<svg width="32" height="27" viewBox="0 0 32 27" fill="none" xmlns="http://www.w3.org/2000/svg">
<path d="M2.89428 6.19447C2.7685 5.96281 2.9977 5.97381 2.77018 5.66565C2.78808 5.61085 2.80608 5.5551 2.82431 5.50057C2.8703 5.65439 2.91642 5.80844 2.96251 5.96377C2.93967 6.04096 2.91706 6.11812 2.89448 6.19524C2.89441 6.19498 2.89435 6.19473 2.89428 6.19447ZM3.33872 8.18064C3.25947 7.72795 3.33028 7.54194 3.11763 7.196C3.14742 7.35448 3.17691 7.51208 3.20654 7.66859C3.13875 7.57133 3.07115 7.47831 3.00453 7.39026C3.00552 7.4555 3.00648 7.5202 3.00719 7.58363C2.92461 7.34208 2.84228 7.10392 2.76086 6.87017C2.78482 6.89291 2.80972 6.9167 2.83412 6.94077C2.83981 6.68485 2.87708 6.57705 2.94824 6.46869C2.92529 6.41167 2.9025 6.3556 2.87963 6.29935C2.94743 6.3688 3.01598 6.44341 3.08479 6.52222C3.07512 6.65713 3.06428 6.80518 3.05554 6.92708C3.21373 7.30708 3.251 7.01937 3.27885 6.89584C3.31802 6.72955 3.35276 6.94828 3.38346 6.83127C3.38845 6.81286 3.34991 6.64631 3.36565 6.63395C3.44515 6.5702 3.62925 6.58379 3.62564 7.02657C3.47687 7.03998 3.43308 7.40637 3.27773 7.36516C3.41808 7.77732 3.3859 7.95899 3.33872 8.18064ZM5.67682 6.03774C5.66322 6.28033 5.55673 6.19676 5.46927 6.04075C5.4692 6.04076 5.46913 6.04077 5.46905 6.04078C5.44991 6.00641 5.37119 5.69576 5.41939 5.70246C5.49842 5.71458 5.605 6.20571 5.59706 5.86421C5.62358 5.92465 5.64988 5.9781 5.67682 6.03774ZM5.83564 5.98912C5.89732 6.10543 5.92463 6.48115 5.85518 6.38674C5.85522 6.38703 5.85526 6.38733 5.8553 6.38763C5.82617 6.34818 5.83326 6.04738 5.78832 6.3572C5.73959 6.12618 5.69345 5.91616 5.6449 5.69269C5.66578 5.68635 5.68447 5.67793 5.70652 5.67229C5.74298 6.05725 5.77383 5.87376 5.83564 5.98912ZM3.64987 6.79556C3.58182 6.4649 3.55483 6.47863 3.45619 6.27814C3.5027 6.26485 3.54965 6.25372 3.59648 6.24338C3.61401 6.42873 3.63187 6.61234 3.64987 6.79556ZM2.66175 7.39479C2.66169 7.39485 2.66163 7.3949 2.66157 7.39495C2.65984 7.44709 2.65805 7.49885 2.65617 7.54918C2.62402 7.46541 2.59223 7.38288 2.56041 7.30099C2.53938 7.42999 2.51768 7.55562 2.49566 7.67729C2.42966 7.4159 2.51931 7.3755 2.51046 7.13841C2.59653 7.14907 2.67283 7.28545 2.74196 7.52367C2.71517 7.48 2.68838 7.43651 2.66175 7.39479ZM15.3602 8.65489C15.417 8.57545 15.4737 8.49585 15.5305 8.41643C15.5284 8.36691 15.522 8.32683 15.5225 8.27088C15.3807 8.48403 15.381 8.4443 15.3845 8.37742L15.2663 8.3344C15.2606 8.29127 15.2542 8.23662 15.2209 8.23839C14.9617 8.25312 14.8676 8.89912 14.886 7.92323C15.0475 8.01053 15.0905 7.5607 15.2818 7.25442C15.2383 7.51362 14.9883 8.05939 15.0279 8.19606C15.1618 8.0275 15.2925 7.86828 15.4225 7.74119L15.6463 7.82267C15.708 7.78099 15.7682 7.74444 15.8269 7.71458C15.8426 7.67193 15.8584 7.62915 15.8741 7.58649C15.842 7.6029 15.81 7.61954 15.7778 7.63593C15.8511 7.53651 15.9235 7.43783 15.9978 7.33735C15.8526 7.57298 15.9886 7.46728 15.8439 7.74851C15.7795 7.8737 15.6651 8.03552 15.5894 8.14844C15.6052 8.23679 15.6244 8.32003 15.6408 8.40647C15.5684 8.4962 15.496 8.58607 15.4238 8.67591C15.4024 8.66963 15.3816 8.6625 15.3601 8.65618C15.3601 8.65575 15.3602 8.65532 15.3602 8.65489ZM25.4106 14.926C25.0755 14.9544 24.9815 14.8473 25.2988 14.6534C25.3375 14.7448 25.375 14.8353 25.4106 14.926ZM2.79979 7.71958C2.78091 7.67857 2.76244 7.63827 2.7437 7.59801C2.74987 7.4909 2.75603 7.38177 2.7616 7.26995C2.8031 7.40101 2.84486 7.53285 2.88662 7.66491C2.85769 7.68283 2.82851 7.70075 2.79979 7.71958ZM4.81644 6.7191C4.79319 6.73406 4.78997 6.72873 4.7541 6.70952C4.75417 6.70966 4.75423 6.70981 4.75429 6.70995C4.74003 6.70286 4.61797 6.62017 4.60444 6.48434C4.6553 6.47264 4.7117 6.46484 4.76499 6.4555C4.78244 6.5433 4.79849 6.63062 4.81644 6.7191ZM4.19909 6.76175C4.19896 6.76147 4.19883 6.7612 4.1987 6.76092C4.17627 6.74547 4.15045 6.70908 4.13003 6.70687C4.15502 6.47906 4.24257 6.85186 4.28371 6.73075C4.31504 6.63783 4.32173 6.48992 4.39217 6.65028C4.41398 6.70003 4.44187 6.7794 4.47831 6.89928C4.4756 6.94691 4.47468 7.00608 4.47394 7.06586C4.47341 7.10805 4.47298 7.15057 4.47205 7.18955C4.34336 7.00115 4.35715 7.20177 4.33037 7.42059C4.28649 7.20051 4.2429 6.9819 4.19909 6.76175ZM14.4631 7.40443C14.3924 7.63109 14.4273 7.4006 14.426 7.39742C14.4261 7.39716 14.4262 7.3969 14.4263 7.39664C14.231 7.57631 14.4751 7.27332 14.3457 7.20541C14.3795 7.15246 14.4138 7.09626 14.4478 7.04269C14.4536 7.16128 14.4565 7.29488 14.4631 7.40443ZM9.61584 6.61057C9.61759 6.53858 9.61906 6.46641 9.62078 6.3944C9.70741 6.41705 9.74417 6.13645 9.80408 6.39916C9.7407 6.46988 9.67803 6.54052 9.61581 6.61143C9.61582 6.61114 9.61583 6.61086 9.61584 6.61057ZM5.33844 7.19105C5.26675 7.34834 5.21103 7.42202 5.08258 7.21088C5.08246 7.21059 5.08234 7.21031 5.08222 7.21002C5.07462 7.19697 5.07294 7.03663 5.05944 6.99842C5.04477 7.02489 5.03172 7.06402 5.01776 7.09509C4.99349 6.97051 4.96931 6.84594 4.94508 6.72212C5.00505 6.74844 5.06475 6.775 5.12431 6.80181C5.10418 6.72993 5.08388 6.65873 5.06359 6.58688C5.10327 6.54175 5.14274 6.49699 5.18352 6.45207C5.2005 6.6597 5.21796 6.86736 5.23612 7.0757C5.27043 7.11436 5.30435 7.1515 5.33844 7.19105ZM10.9705 7.51788C10.9642 7.43966 11.0053 7.31465 10.9896 7.24603C10.9736 7.17818 10.9162 7.31601 10.949 7.10103C10.983 7.07572 11.0193 7.04645 11.0543 7.02003C10.9941 6.61763 10.8535 6.95796 10.9008 6.4756C10.9891 6.61309 11.0756 6.56518 11.188 6.44548C11.1404 6.82557 11.0098 7.14361 11.0293 7.50881C11.0099 7.51149 10.9893 7.51638 10.9708 7.51706C10.9707 7.51733 10.9706 7.5176 10.9705 7.51788ZM2.16019 10.2301C2.07949 10.1511 1.90043 9.99664 1.78084 9.85312C1.75005 9.81301 1.63348 9.63972 1.63152 9.63303C1.62156 9.59712 1.70933 9.64011 1.6033 9.55727C1.63566 9.57481 1.66636 9.59001 1.6978 9.60595C1.68052 9.56719 1.66378 9.53006 1.6477 9.49448C1.61388 9.48923 1.57934 9.48224 1.54416 9.47348C1.53979 9.465 1.53548 9.45667 1.53123 9.44854C1.65739 9.47931 1.57189 9.42741 1.62032 9.39133C1.55818 9.37028 1.49868 9.35983 1.44316 9.36039C1.47369 9.35549 1.50968 9.3499 1.53712 9.34754C1.52499 9.29877 1.46837 9.33192 1.45586 9.32918C1.38855 9.32213 1.6819 9.20696 1.66214 9.06179C1.61641 9.08345 1.57028 9.11232 1.52687 9.1455C1.53517 9.12322 1.54316 9.09932 1.55056 9.07416C1.66165 9.03618 1.78239 8.99248 1.92942 9.00295C1.93871 8.99124 1.9479 8.97912 1.95697 8.96732C1.93436 8.90645 1.9122 8.84649 1.89004 8.7872C1.9031 8.76604 1.91626 8.74438 1.92911 8.72245C1.94968 8.9766 2.01058 8.91361 2.14041 9.028C2.12097 9.13002 2.0489 9.09854 2.09706 9.24113C2.22194 9.08103 2.46864 9.23884 2.57425 9.02261C2.59942 8.96582 2.516 8.67585 2.6104 8.66089C2.61695 8.69571 2.63358 8.75622 2.64411 8.80082C2.75471 8.59889 2.81847 8.43773 3.02589 8.55267C2.98145 8.42485 2.93722 8.29778 2.89322 8.17272C2.87746 8.25558 2.86156 8.3373 2.84517 8.41549C2.76633 8.22194 2.77455 8.11114 2.6776 8.17565C2.59827 8.22899 2.66964 8.28407 2.66382 8.35464C2.65617 8.4484 2.58847 8.31355 2.58098 8.41688C2.57472 8.4947 2.64389 8.63106 2.5687 8.62493C2.5404 8.42202 2.50894 8.20389 2.47656 7.98162C2.50385 8.01363 2.53149 8.04767 2.55944 8.08264C2.55956 8.14858 2.5595 8.21241 2.55912 8.27586C2.586 8.14396 2.61118 8.01245 2.63775 7.86133C2.70496 8.18538 2.7319 8.02986 2.75346 7.9696C2.78709 7.87608 2.80488 8.1279 2.82774 8.07012C2.85072 8.01337 2.81688 7.73142 2.89086 7.74625C2.89945 7.91935 2.9793 8.02927 3.00839 8.17623C3.03743 8.32296 2.98052 8.37959 3.08374 8.50761C3.17255 8.34001 2.89991 7.85668 2.95594 7.72251C3.02208 7.54743 3.28597 8.46858 3.30719 8.67626C3.32376 8.83883 3.23506 8.82842 3.25098 8.98286C3.4677 9.23073 3.32763 8.68057 3.32364 8.56116C3.31025 8.12811 3.52518 9.22762 3.53225 8.80984C3.58206 9.0167 3.62703 9.20246 3.67468 9.40033C3.68385 9.36109 3.6836 9.30953 3.69845 9.27666C3.53133 8.88096 3.58967 8.89084 3.61696 8.88346C3.65995 8.87259 3.54358 8.6884 3.54231 8.63492C3.53901 8.48921 3.60315 8.53662 3.52854 8.36446C3.56275 8.4445 3.59819 8.52525 3.63266 8.60609C3.65655 8.49278 3.55815 7.53488 3.48831 7.7656C3.41763 7.42655 3.49356 7.56941 3.53474 7.60916C3.57591 7.64863 3.52363 7.43175 3.55857 7.46062C3.69788 7.57901 3.7201 7.98545 3.77352 8.28169C3.85898 8.03786 3.69668 7.94469 3.85752 7.74134C3.82026 7.48757 3.67066 7.26169 3.71306 7.08942C3.82455 7.51075 3.94795 7.79955 4.08834 7.91459C4.07676 7.81146 4.06503 7.70718 4.05361 7.60354C4.20126 7.98974 4.26122 8.4221 4.26212 7.8902C4.40202 8.83402 4.31597 8.22815 4.49158 8.5881C4.52691 8.661 4.52302 8.86365 4.5704 8.95679C4.59172 8.99895 4.59073 8.84665 4.64363 8.95437C4.66965 9.00747 4.81052 9.35771 4.82215 9.17649C4.69589 8.72717 4.70993 8.32047 4.55529 7.95915C4.59294 7.97327 4.62502 7.97209 4.65172 7.96938C4.74183 7.96032 4.76889 7.93304 4.73977 8.41689C4.73936 8.42396 4.73894 8.43114 4.73851 8.43842C4.74159 8.44475 4.74467 8.45107 4.74774 8.45739C4.80842 8.58205 4.86837 8.70639 4.9276 8.83079C4.93165 8.71697 4.93643 8.60394 4.9415 8.4908C5.01623 8.86604 5.03196 8.97211 5.11754 8.8878C5.09119 8.98447 5.06631 9.08253 5.04113 9.18003C5.0541 9.2562 5.06327 9.3362 5.07867 9.40958C5.10193 9.25541 5.23613 9.16622 5.25406 9.0597C5.27185 8.95307 5.19798 8.93809 5.19074 8.83908C5.13445 8.02213 5.23356 8.61439 5.27164 8.46593C5.29455 8.37811 5.19084 8.30504 5.20455 8.26695C5.25664 8.12702 5.3636 8.54749 5.42838 8.54218C5.3653 8.30397 5.30095 8.06206 5.23644 7.8217C5.30843 7.82282 5.38641 7.81236 5.43982 7.72434C5.46077 7.68997 5.41265 7.51293 5.41493 7.50021C5.42608 7.43501 5.49707 7.32397 5.50616 7.32191C5.57483 7.31033 5.61435 7.55957 5.68218 7.56376C5.65942 7.58858 5.63795 7.61115 5.61577 7.63523C5.66531 8.04143 5.71527 8.44764 5.76624 8.85459C5.83158 8.87453 5.89636 8.89416 5.96123 8.91463C5.89751 8.78609 5.83298 8.65834 5.76744 8.53011C5.78915 8.19257 5.81383 7.85462 5.84307 7.51697C5.90996 7.71253 5.97553 7.90818 6.04011 8.10393C6.13477 8.03748 6.01012 7.22549 6.15066 7.93309C6.17332 7.86896 6.19624 7.80494 6.21949 7.74174C6.22764 7.84407 6.23593 7.94662 6.24422 8.04896C6.27281 7.9819 6.30227 7.91531 6.33166 7.84772C6.25031 7.4917 6.16493 7.11675 6.08138 6.7712C6.14825 6.68438 6.18684 6.99016 6.20714 7.06522C6.26093 7.26406 6.28809 6.98511 6.33332 7.16967C6.3484 7.23299 6.29886 7.44215 6.35095 7.67158C6.36211 7.71609 6.55267 8.55855 6.58896 8.35508C6.57113 8.20071 6.54597 8.01177 6.52522 7.84396C6.59763 7.74166 6.72164 8.54365 6.73421 8.77063C6.75923 8.60791 6.81964 8.58835 6.8043 8.34061C6.82543 8.33244 6.84643 8.32462 6.86758 8.31652C6.90217 8.91983 6.97938 8.80094 6.93912 8.28386C6.90064 8.2745 6.86196 8.26457 6.82328 8.25541C6.79098 7.61916 6.63971 7.24678 6.93664 7.81255C7.01167 8.13791 6.85079 7.77474 6.9104 8.01816C6.98777 8.15593 7.03821 8.03079 7.11774 8.2549C7.21648 8.53491 7.14436 8.81706 7.29129 8.43925C6.83009 7.55811 7.29807 7.81733 7.4707 7.52637C7.57876 8.42203 7.74059 8.69463 7.93917 8.4192C7.9075 8.17135 7.84581 8.30244 7.80376 8.22233C7.76132 8.14209 7.79661 7.99233 7.74235 7.8781C7.68804 7.76386 7.57482 7.61046 7.51362 7.43654C7.5477 7.29259 7.74561 6.95059 7.62455 7.35718C7.74244 7.60004 7.80158 7.85148 7.92967 7.89303C7.95301 7.50384 7.94173 7.26221 8.06902 7.24855C8.01165 7.78848 8.16374 8.15873 8.14812 8.71508C8.06035 8.58887 8.09098 8.04677 8.03216 7.78955C8.02597 7.76377 7.94886 7.90195 7.92967 7.89303C8.03048 8.37642 8.06101 8.5555 8.03366 9.13602C8.08652 9.08265 8.12266 9.15363 8.11941 8.87768C8.13452 8.99681 8.14948 9.116 8.16397 9.23505C8.18152 9.23125 8.1971 9.21947 8.21586 9.22088C8.17933 8.80652 8.23604 9.06012 8.26782 8.87065C8.30015 8.68116 8.24367 8.3548 8.3457 8.34802C8.30996 8.25172 8.27694 8.16909 8.24148 8.07787C8.30583 7.96956 8.37156 7.8612 8.43824 7.75419C8.38798 7.50171 8.2751 7.12607 8.2709 6.79249C8.30583 6.91816 8.41463 6.6974 8.42723 6.68858C8.47476 6.65496 8.45092 6.86453 8.45462 6.86974C8.53007 6.97208 8.59105 6.90159 8.61994 7.21903C8.67474 7.07653 8.71674 7.15873 8.77521 7.15167C8.80743 7.14784 8.80259 6.91544 8.82136 6.95996C8.9459 7.25744 8.81931 7.55235 9.07101 6.99019C9.04453 6.828 9.01784 6.66195 8.99 6.49797C9.01908 6.43814 9.04822 6.3781 9.07777 6.31854C9.09623 6.34868 9.11445 6.37904 9.13275 6.40918C9.12495 6.75831 9.11706 7.10817 9.1093 7.45731C9.12865 7.47695 9.14803 7.49605 9.16727 7.51571C9.13265 7.54898 9.09812 7.58235 9.06384 7.6159C9.05959 7.6773 9.05558 7.73874 9.05139 7.80016C9.09911 7.89654 9.14601 7.99372 9.19224 8.09071C9.19633 7.96948 9.20045 7.8474 9.20457 7.72618C9.31208 7.8987 9.30929 8.0005 9.42779 7.67211C9.50921 7.6791 9.59825 7.17862 9.65753 6.97005C9.67197 7.03862 9.68622 7.10802 9.70053 7.17653C9.71661 7.0772 9.73294 6.97838 9.74932 6.87919C9.7647 7.01981 9.77995 7.16036 9.7945 7.30001C9.82373 6.98552 9.83616 6.88766 9.75387 6.77061C9.80388 6.37994 9.95274 6.56578 10.0073 6.70226C10.049 6.80581 9.97549 7.12748 9.97915 7.1677C9.99036 7.30388 10.0748 7.19368 10.0896 7.21738C10.1517 7.31575 10.2005 7.30352 10.2567 7.38064C10.2676 7.39606 10.285 7.60441 10.2873 7.61107C10.3065 7.64808 10.3522 7.75249 10.3581 7.75588C10.6597 7.93769 10.3981 7.01693 10.6889 7.14157C10.691 7.02385 10.6935 6.90694 10.6955 6.78914C10.7192 6.78461 10.7431 6.7805 10.7668 6.77605C10.7866 6.87692 10.7341 7.05005 10.8057 6.91376C10.7878 7.05694 10.7699 7.20021 10.752 7.34271C10.7843 7.2679 10.8158 7.19376 10.8492 7.11931C10.8394 7.62182 10.968 7.75041 10.8941 8.33175C10.8687 8.52938 10.7511 8.72352 10.7791 8.94037C10.8155 8.98599 10.8133 8.74645 10.8314 8.73569C10.9628 8.66183 10.9182 8.99253 10.9776 8.90936C11.0018 8.76837 11.027 8.62472 11.0518 8.48248C11.066 8.52624 11.0801 8.57 11.0942 8.61375C11.11 8.5191 11.1261 8.4244 11.142 8.3298C11.1247 8.32131 11.1051 8.31248 11.0893 8.3042C11.1554 7.93754 11.392 7.80029 11.2708 8.10328C11.222 8.22637 11.1684 8.16506 11.1533 8.60458C11.2168 8.54845 11.2883 8.4923 11.3557 8.43744C11.3454 8.53101 11.3349 8.62472 11.3246 8.71828C11.4116 8.66782 11.3889 8.28585 11.4148 8.08573C11.4341 8.08259 11.4535 8.08019 11.4728 8.07711C11.4686 8.1685 11.4634 8.26402 11.4598 8.35259C11.4798 8.20899 11.5353 7.87648 11.5741 8.00821C11.5986 8.09377 11.4931 8.44805 11.5672 8.40707C11.5934 8.18276 11.6062 7.90649 11.6928 7.84565C11.6674 8.08003 11.6474 8.29516 11.6182 8.54101C11.7427 8.33018 11.7315 8.69548 11.879 8.45212C11.972 8.29797 12.1627 7.73312 12.0626 8.63488C12.1087 8.66634 12.1291 8.44119 12.1521 8.39356C12.2617 8.16841 12.2439 8.6007 12.2524 8.62761C12.3083 8.80084 12.3712 8.6611 12.4034 8.87189C12.4289 8.70657 12.4544 8.55031 12.4797 8.38921C12.3736 8.62497 12.3446 8.60814 12.2662 8.54024C12.3011 8.51198 12.3362 8.48306 12.3714 8.45501C12.3897 8.32033 12.4079 8.18561 12.4261 8.0516C12.0638 8.53318 12.2631 7.70748 12.53 7.56711C12.5076 7.81844 12.4854 8.06905 12.4616 8.32066C12.6596 7.96915 12.6646 8.30604 12.7984 8.41133C12.8143 8.42348 12.9061 8.29401 12.9353 8.29246C12.9351 8.29143 12.9348 8.29039 12.9345 8.28936C12.9964 8.06041 12.9937 7.94898 13.0305 7.74073C13.0509 7.71771 13.0711 7.69476 13.0914 7.67176C13.0949 7.83672 13.0575 7.96417 13.1316 7.93979C13.1536 7.78061 13.1755 7.62137 13.1972 7.4621C13.2727 7.47159 13.2871 7.65228 13.371 7.59266C13.3474 7.64971 13.3239 7.70698 13.3004 7.76408C13.4191 7.94644 13.1117 8.84532 13.3171 8.40871C13.3076 8.49067 13.2976 8.57337 13.2879 8.65531C13.2384 8.6657 13.1892 8.67563 13.1402 8.68636C13.1162 8.80024 13.0923 8.91361 13.0685 9.02753C13.1231 9.00293 13.1785 8.97753 13.2336 8.95334C13.1827 9.02251 13.1318 9.0919 13.0815 9.16139C13.1254 9.22712 13.1698 9.29315 13.2123 9.35892C13.2419 8.92822 13.328 8.89272 13.4009 8.47528C13.422 8.76235 13.4131 9.11364 13.5115 9.1274C13.5387 9.13121 13.574 9.10957 13.6207 9.05424C13.6634 9.00303 13.7125 8.71073 13.7186 9.0811C13.8007 8.61696 13.9574 8.42583 14.0428 7.9861C14.0074 8.0002 13.9728 8.00631 13.9374 8.0255C13.9372 8.18465 13.8484 8.60263 13.7708 8.71519C13.6717 8.85859 13.6408 8.54868 13.5436 9.0129C13.5417 9.01048 13.5399 9.00813 13.5381 9.00584C13.5192 8.98234 13.5002 8.96549 13.4813 8.9439C13.5162 8.83108 13.5513 8.71754 13.5863 8.60475C13.4762 8.76961 13.4451 8.70172 13.4721 8.40423C13.5452 8.36825 13.6186 8.33294 13.6924 8.29801C13.7187 8.28559 13.745 8.27321 13.7714 8.26088C13.7631 8.23839 13.7546 8.21571 13.7461 8.1939C13.8765 7.91236 13.8702 7.61697 14.0082 7.58126C13.9773 7.71635 13.9465 7.85157 13.9155 7.98734C14.0401 7.63537 14.1628 7.66527 14.218 7.24066C14.2264 7.37686 14.2153 7.45929 14.2878 7.24017C14.3146 7.57861 14.283 7.992 14.1377 8.46019C14.1911 8.39183 14.2448 8.3235 14.2986 8.25535C14.3086 8.12032 14.3183 7.98586 14.3278 7.85076C14.3892 7.87375 14.4501 7.89664 14.5104 7.919C14.4238 8.30501 14.3632 8.00724 14.3173 8.35984C14.308 8.43058 14.3763 8.29056 14.3757 8.33154C14.3663 8.77407 14.2958 8.43584 14.2458 8.76467C14.3572 8.89668 14.1181 9.41014 14.4136 9.00175C14.3914 9.11388 14.3689 9.22833 14.3463 9.33968C14.4086 9.36205 14.4653 9.11033 14.5326 9.07682C14.5751 9.05614 14.5079 9.50631 14.6209 9.21667C14.6418 9.16332 14.7122 8.60992 14.8425 8.66808C14.9436 8.71339 14.8025 9.08121 14.8245 9.23002C14.8418 9.34946 15.0175 9.056 15.0254 9.2499L14.9805 9.23356C14.9739 9.28063 14.9519 9.35449 14.9073 9.46724C14.9095 9.43826 14.9091 9.41263 14.9074 9.38856L14.9818 9.41563C14.97 9.36898 14.9546 9.32938 14.9438 9.28052C14.9001 9.39291 14.8572 9.50419 14.8141 9.61603C14.8694 9.55276 14.9053 9.56673 14.9417 9.56765L14.8403 9.53072C14.8787 9.53903 14.92 9.53292 15.0074 9.41187C14.9155 9.85153 15.1932 9.5348 15.3768 9.07601C15.3153 9.12553 15.2568 9.33577 15.2725 9.19156C15.3174 9.08564 15.3618 8.98011 15.4067 8.87417C15.4743 8.92171 15.5261 8.94281 15.3424 9.24339C15.3501 9.25631 15.3576 9.26916 15.3653 9.28206C15.4763 9.05411 15.5876 8.8252 15.6986 8.59726C15.7244 8.57792 15.7502 8.55881 15.776 8.53947C15.767 8.59689 15.7577 8.6549 15.7485 8.71298C15.5555 9.06545 15.5148 9.06063 15.5331 9.31799C15.5932 9.1931 15.6533 9.06879 15.7135 8.94391C15.736 9.15006 15.5933 9.45404 15.7199 9.50107C15.4187 9.8902 15.7363 9.09639 15.3191 9.96707C15.3231 9.89867 15.3271 9.82936 15.3308 9.76087C15.2668 9.88545 15.2027 10.0102 15.1389 10.1349C15.2971 10.1286 15.9038 9.39888 15.7194 9.98804C15.7615 9.92567 15.8005 9.87257 15.8458 9.80554C15.7677 10.1772 16.1654 9.45073 16.0396 9.9195C16.026 9.96854 15.6679 10.6585 15.7858 10.6852C15.8276 10.5932 15.901 10.4399 15.9549 10.3244C15.9506 10.3913 15.9448 10.4607 15.9395 10.5287C15.9847 10.4469 16.0301 10.3653 16.0757 10.283C16.0527 10.2313 16.0299 10.1791 16.0063 10.1273C16.0532 10.1145 16.1001 10.1018 16.1467 10.089C16.1715 9.93132 16.1528 9.92035 16.2861 9.71357C16.33 9.71879 16.3722 9.72224 16.4177 9.72835C16.4493 9.67411 16.4812 9.61921 16.5128 9.56498C16.5769 9.38848 16.6379 9.21501 16.7038 9.03634C16.7362 9.22219 16.8196 9.27266 16.7313 9.63857C16.7165 9.70042 16.5635 9.89598 16.7475 9.74248C16.6915 9.85848 16.6473 9.95329 16.5958 10.0607C16.8606 9.78938 16.8501 9.90452 16.8444 10.1931C16.8813 9.93963 16.8748 10.1132 16.9515 10.006C17.0044 9.93215 16.9493 9.91932 16.997 9.83809C17.0443 9.75742 17.2777 9.45291 17.2431 9.38478C16.7612 10.0074 17.1388 9.16353 16.8014 9.41063C16.8722 9.33452 16.9432 9.25832 17.014 9.18224C17.0316 9.11559 17.0476 9.05518 17.066 8.98423C17.0948 9.16731 17.0917 9.05613 17.1841 8.96909C17.2758 8.88169 17.3944 8.82776 17.4585 8.82325C17.4786 8.82181 17.3847 8.96857 17.4123 9.00043C17.4309 9.02224 17.6108 8.82516 17.4893 9.10306C17.4101 9.28384 17.0647 9.71759 17.2055 9.7871C17.1447 9.97289 17.1049 9.88555 17.0929 9.9056C16.9774 10.1048 16.9851 10.3022 17.1033 10.1653C17.1133 10.1534 17.1631 9.97789 17.2286 9.93225C17.3846 9.82304 17.3416 10.0317 17.2674 10.3058C17.4211 10.0182 17.6674 9.70683 17.6969 9.85742C17.7438 9.77665 17.7909 9.69505 17.8382 9.61368C17.8025 9.65085 17.7671 9.68744 17.7314 9.72463C17.7438 9.66521 17.748 9.61948 17.7653 9.55087C17.8875 9.52341 18.1047 9.12998 18.2211 9.005C18.6245 8.58127 17.9906 9.59082 17.8712 9.75957C17.8904 9.6762 17.9149 9.58475 17.9369 9.49816C17.887 9.60014 17.8366 9.70291 17.7862 9.80541C18.0006 9.91217 17.4807 10.4771 17.4906 10.7198C17.7747 10.2379 17.8792 10.2314 17.812 10.5963C17.8241 10.5995 17.8352 10.6045 17.8475 10.607C17.8871 10.5358 17.9449 10.4256 17.9729 10.3796C18.1391 10.3599 17.7578 11.1315 17.7309 11.2095C17.6113 11.5551 17.8832 11.1332 17.8998 11.1372C17.9686 11.154 17.8811 11.359 17.9855 11.3067C18.0975 11.2498 18.1347 11.0764 18.2261 10.9524C18.299 10.854 18.3592 10.8619 18.4394 10.7625C18.3824 10.8485 18.3256 10.9322 18.2686 11.0186C18.2679 11.1772 18.2533 11.3245 18.3113 11.3949C18.7562 10.7817 18.2172 11.9318 18.6833 11.015C18.6469 10.9148 18.663 10.7901 18.7495 10.539C18.813 10.5355 18.8759 10.5328 18.9386 10.5291C18.898 10.6355 18.8546 10.7371 18.8151 10.8465C18.9656 10.6559 18.9935 10.7888 19.0606 10.7457C19.3703 10.541 19.5263 10.1601 19.3226 10.8336C19.1939 10.8378 19.0311 11.129 18.9572 11.0351C18.8622 11.2548 18.9345 11.2387 18.7639 11.4705C18.8898 11.4604 18.9848 11.2214 19.1315 11.0442C19.2581 10.8915 19.325 10.9167 19.4467 10.6942C19.3846 10.8193 19.3231 10.9396 19.2609 11.0644C19.3227 11.0978 19.3828 11.1321 19.4426 11.1648C19.3448 11.2765 19.2471 11.3886 19.15 11.5C19.1418 11.5586 19.1335 11.617 19.1249 11.6754C19.4951 11.3654 19.3241 12.2281 19.8623 11.2251C19.9526 11.2365 19.8888 11.3646 19.8163 11.5721C19.8649 11.5005 19.9058 11.4413 19.9594 11.3614C19.9581 11.4659 20.1598 11.209 20.1556 11.305C20.1528 11.4011 20.0035 11.6688 20.2773 11.2328C20.2269 11.375 20.1887 11.4955 20.1423 11.628C20.2189 11.5378 20.2949 11.4488 20.3712 11.3593C20.3631 11.4264 20.3544 11.4928 20.3461 11.5599C20.4894 11.3596 20.5298 11.5097 20.6594 11.3966C20.5579 11.6459 20.1065 12.3468 20.2785 12.2797C20.3881 12.1043 20.4973 11.9293 20.6067 11.7538C20.6048 11.8039 20.6027 11.8537 20.6003 11.9036C20.5649 11.9611 20.5292 12.0185 20.4937 12.0759C20.4945 12.0515 20.4953 12.0273 20.4963 12.0022C20.4436 12.1042 20.3909 12.2055 20.3376 12.3071C20.4609 12.1853 20.5846 12.0639 20.7088 11.943C20.7368 11.8081 20.7633 11.6724 20.7882 11.5359C20.9269 11.4447 20.8818 11.5961 21.0228 11.4863C20.9089 11.7531 20.8018 11.8796 20.6147 12.1275C20.6447 12.1155 20.6743 12.1044 20.7041 12.0925C20.523 12.3443 20.4464 12.5148 20.3729 12.4365C20.3302 12.5142 20.29 12.5886 20.2454 12.6693C20.2674 12.667 20.2354 12.7355 20.2697 12.7172C20.3628 12.6669 20.6973 12.2358 20.8006 12.0753C20.8546 11.991 20.7057 12.1216 20.7857 12.0051C20.98 11.7204 20.9967 11.9172 21.0412 11.5313C21.2116 11.3809 21.1316 11.5265 21.1491 11.6145C21.209 11.5163 21.2684 11.4188 21.3283 11.3207C21.3241 11.3815 21.3185 11.4414 21.3144 11.5024C20.9512 11.9689 21.0021 12.2714 20.5549 12.5916C20.5862 12.6447 20.6168 12.6978 20.645 12.7511C20.6015 12.7947 20.5584 12.8379 20.515 12.8816C20.5133 12.8415 20.511 12.8018 20.5082 12.7619C20.47 12.8698 20.4314 12.9768 20.3915 13.0838C20.5233 13.0079 20.665 12.8496 20.841 12.6548C20.8824 12.4517 20.757 12.6809 20.6769 12.6883C20.7724 12.5537 20.8561 12.4271 20.9591 12.2876C20.791 12.5867 21.0208 12.4439 21.0512 12.4451C21.1422 12.4473 20.8998 12.6871 20.9359 12.7214C20.9703 12.7545 21.138 12.6291 20.9737 12.9215C21.0833 12.7705 21.1946 12.6126 21.2924 12.4736C21.3928 12.4712 21.2488 12.6391 21.2384 12.6669C21.062 13.1206 21.3504 12.8416 21.4988 12.897C21.5201 12.8401 21.5373 12.7873 21.5554 12.7326C21.889 12.4907 21.7562 12.5401 21.754 12.373C21.8065 12.4636 22.0559 12.2308 22.1743 12.1971C22.2937 12.1643 22.2754 12.3741 22.2221 12.5061C22.0058 12.6079 22.0172 12.4323 21.8953 12.4123C21.7869 12.569 21.696 12.7022 21.5751 12.873C21.8726 12.5999 21.7363 12.8329 21.7179 12.8862C21.6657 13.0441 21.8816 12.7784 21.6746 13.0854C21.7547 12.9871 21.822 12.9046 21.8966 12.8126C21.9633 12.937 21.911 13.1893 22.2874 12.8992C22.0885 13.1297 21.8951 13.3502 21.6914 13.5849C21.883 13.4496 21.7531 13.6494 21.8199 13.639C21.8865 13.6286 22.0456 13.4403 22.1477 13.4074C22.1665 13.4014 22.0723 13.5247 22.1688 13.4605C22.2638 13.3937 22.9362 12.8673 22.4118 13.3918C22.4413 13.4274 22.4495 13.4757 22.4704 13.5169C22.4101 13.5132 22.353 13.5116 22.2935 13.5099C22.189 13.6606 22.0815 13.8076 21.9709 13.9527C22.0913 13.8469 22.2141 13.7395 22.3335 13.6357C22.5109 13.584 22.4311 13.7417 22.4659 13.8067L22.4557 13.7937C22.4615 13.8062 22.4714 13.8163 22.4876 13.8226C22.5057 13.8297 22.7386 13.6112 22.7168 13.7186C22.6959 13.8282 22.2402 14.2067 22.4929 14.174C22.5054 14.1713 22.9045 13.9538 22.665 14.1609C22.6103 14.2072 22.5004 14.2308 22.4337 14.2996C22.3671 14.368 22.3511 14.4873 22.1644 14.6084C22.2311 14.5666 22.2977 14.5193 22.3645 14.475C22.4048 14.4689 22.4453 14.463 22.4852 14.4578C22.3671 14.5303 22.2488 14.603 22.1311 14.6749C22.4499 14.5802 22.9376 14.3716 22.8524 14.5828C23.0116 14.453 23.1698 14.3204 23.3237 14.1829C23.194 14.2405 23.0639 14.2995 22.9351 14.3591C22.9506 14.2714 22.9636 14.1831 22.9745 14.0931C22.8314 14.1674 22.6892 14.2426 22.5471 14.3188C22.5559 14.2935 22.5636 14.2678 22.572 14.242C22.6724 14.1831 22.7725 14.1249 22.8733 14.0667C22.8296 14.0511 22.7852 14.0361 22.7416 14.0221C23.3588 13.7097 22.8035 14.2279 23.2864 13.9172C23.2198 13.9791 23.1519 14.0402 23.0836 14.1009C23.3261 13.9639 23.2767 14.0371 23.2695 14.1127C23.3814 14.0319 23.4903 13.9499 23.603 13.8679C23.4685 14.0212 23.539 14.1091 23.5035 14.2015C23.4879 14.242 23.2962 14.3114 23.2791 14.33C23.1883 14.4229 23.5381 14.3335 23.5211 14.362C23.4203 14.5318 22.8384 14.8636 23.2816 14.7757C23.3356 14.6314 23.3184 14.7049 23.5239 14.5664C23.5886 14.5237 23.6687 14.3182 23.6844 14.519C23.6903 14.5487 23.3927 15.028 23.0245 15.0658C23.1478 15.0681 23.2828 15.0539 23.412 15.0545C22.5843 15.4968 23.3869 15.1458 23.8236 14.9386C23.8328 14.9563 23.8442 14.9723 23.8516 14.9917C23.3648 15.1354 23.407 15.3371 23.6718 15.3225C23.7604 15.3183 23.8901 15.1981 23.9818 15.2284C23.9572 15.2658 23.9238 15.3101 23.8955 15.3504C24.1853 15.2072 24.3294 15.2482 24.6386 15.1453C24.3808 15.2907 23.8069 15.517 23.4809 15.5935C23.6222 15.5912 23.7638 15.5911 23.9062 15.5914C23.9741 15.5494 24.0411 15.5071 24.1087 15.4644C23.9562 15.6594 24.4549 15.7073 23.804 15.9224C23.8137 15.9387 23.8228 15.9555 23.8325 15.9721C23.9455 15.9465 24.0586 15.9209 24.1716 15.8957C24.0974 16.0033 24.0218 16.1117 23.9453 16.2167C23.8571 16.1625 23.6941 16.1895 23.8029 16.0798C23.6823 16.143 23.5611 16.2075 23.4395 16.268C23.8141 16.2857 24.0474 16.2462 23.9856 16.4431C23.9829 16.452 23.7208 16.649 23.6932 16.6599C23.5675 16.71 23.3712 16.7235 23.3074 16.7476C23.1287 16.8149 22.6963 17.0609 22.6255 17.0733C21.7582 17.2215 21.645 16.795 21.5693 16.6969C21.0747 16.0171 21.0433 15.5723 20.7839 15.0291L20.8747 15.1441C20.7523 14.8871 20.4938 14.569 20.1153 14.3357C20.1045 14.3296 20.0307 14.4367 20.0232 14.4381C19.9779 14.4449 20.0735 14.2636 20.0689 14.2498C20.0586 14.2208 19.9589 14.3798 19.944 14.369C19.7903 14.2536 19.6968 14.0547 19.5076 13.9671C19.4953 13.9614 19.5897 13.8444 19.5552 13.8532C19.5368 13.8584 19.3779 14.0287 19.3525 14.0163C19.2683 13.9751 19.2364 13.8669 19.1489 13.8155C19.1012 13.7876 19.0374 13.7245 18.9815 13.694C18.9572 13.6806 18.8772 13.7548 18.8517 13.7432C18.8155 13.7267 18.9336 13.5492 18.9353 13.5347C18.9422 13.4712 18.8171 13.6688 18.7979 13.6506C18.7623 13.6159 18.8413 13.4811 18.7831 13.4615C18.7414 13.4476 18.5923 13.5021 18.5253 13.5046C18.5102 13.2851 18.3267 13.2614 18.1944 13.2548C18.1145 13.2499 18.2166 13.0566 18.1902 13.0424C18.0946 12.9928 17.8931 13.1999 17.8021 13.1594C17.6795 13.1045 17.6735 12.8904 17.5654 12.8162C17.548 12.8043 17.4563 12.9825 17.4358 12.9772C17.3612 12.958 17.2619 12.9457 17.216 12.8887C17.1656 12.826 17.2755 12.555 17.1847 12.5737C17.1577 12.5793 17.0326 12.8015 16.9859 12.8137C16.9119 12.8327 16.9611 12.6045 16.9368 12.5633C16.903 12.5078 16.8252 12.7602 16.7747 12.6944C16.7727 12.6917 16.8484 12.5217 16.8307 12.5224C16.7785 12.5235 16.715 12.6552 16.6618 12.6117C16.6571 12.6071 16.6587 12.4086 16.6509 12.4037C16.6056 12.3771 16.5355 12.2712 16.4923 12.2913C16.3326 12.3596 16.2833 12.6481 16.4751 12.0654C16.3701 12.1783 16.2645 12.2932 16.159 12.4013C16.247 12.2952 16.2258 12.0668 16.2121 12.0739C16.1033 12.132 16.0347 12.3616 15.9736 12.287C16.3233 11.8533 15.9036 12.1729 15.8502 12.1618C15.5937 12.1087 15.4509 11.8864 15.2231 11.7787C15.147 11.743 14.9941 11.7966 14.9132 11.7543C14.8941 11.7448 14.9648 11.6358 14.9492 11.6252C14.9332 11.6153 14.8884 11.7544 14.8731 11.7385C14.7799 11.6376 14.806 11.347 14.5493 11.6024C14.5653 11.5554 14.5824 11.5203 14.597 11.4672C14.3732 11.699 14.3852 11.2492 14.3437 11.1671C14.2804 11.0399 14.1658 11.2143 14.1093 11.1415C14.1035 11.134 14.0983 11.1244 14.0935 11.1134L14.4963 11.2601C14.4216 11.1438 14.3722 10.8258 14.2804 11.437C14.207 11.4396 14.1404 11.4285 14.0874 11.3512C14.0815 11.3425 14.1282 11.1795 14.126 11.1754C14.1125 11.1469 14.0692 11.2924 14.0545 11.2959C14.0147 11.3052 14.1167 11.1436 14.0536 11.1801C14.02 11.1997 13.9727 11.3242 13.8978 11.3086C13.6307 11.2517 13.3559 11.1738 13.082 11.0969C12.8956 11.0444 12.7094 10.9937 12.5271 10.9509C12.4963 10.9438 12.4852 11.1086 12.4485 11.0913C12.3209 11.0311 12.1273 10.7188 12.0027 10.7382C11.8784 10.7577 11.8647 10.9994 11.7757 11.0888C11.7586 11.1063 11.7925 10.9722 11.7802 10.9684C11.6974 10.9442 11.6294 10.7188 11.5639 10.6779C11.5209 10.6507 11.492 10.8657 11.458 10.8772C11.4076 10.8939 11.3909 10.6712 11.3664 10.6613C11.2518 10.617 11.1451 10.7841 11.0466 10.6839C11.0447 10.732 11.0419 10.7763 11.0394 10.8236C10.9104 10.8038 10.7806 10.7853 10.6516 10.7685C10.6529 10.8128 10.6539 10.8575 10.655 10.9024C10.5065 10.8684 10.5735 10.3933 10.4812 11.4003C10.4668 11.4352 10.4513 11.4757 10.4376 11.5079C10.496 10.9897 10.4429 10.6042 10.3359 10.465C10.3277 10.4544 10.2244 10.9602 10.2843 10.3596C10.2559 10.5058 10.238 10.6068 10.214 10.7355C10.2052 10.5523 10.1953 10.3711 10.1849 10.1882C10.1689 10.2147 10.1528 10.2403 10.1369 10.2669C10.1253 10.3849 10.1169 10.5077 10.1032 10.6235C10.0397 10.6391 9.92261 10.4886 9.87203 10.5024C9.74578 10.537 9.6059 10.8591 9.52902 10.5095C9.48114 10.545 9.51558 10.7799 9.44915 10.7503C9.44683 10.6313 9.44457 10.5172 9.44176 10.3945C9.36261 10.9267 9.36589 10.6034 9.29243 10.4923C9.24286 10.4169 9.20454 10.5479 9.156 10.5232C9.14367 10.5169 9.14966 10.3597 9.14088 10.365C9.11124 10.3815 9.02438 10.5998 9.00441 10.6063C8.82092 10.6685 8.66632 10.6512 8.49229 10.6023C8.47363 10.5975 8.49947 10.753 8.48026 10.7475C8.44939 10.7389 8.46439 10.4966 8.44617 10.4857C8.39517 10.4569 8.39882 10.7115 8.33001 10.7294C8.10389 10.7886 7.83416 10.6186 7.59215 10.6258C7.58466 10.6266 7.59489 10.7774 7.58694 10.7798C7.53514 10.7928 7.46733 10.5944 7.41892 10.6019C7.33853 10.6137 7.296 10.8333 7.21833 10.8423C7.06609 10.8606 6.91816 10.7697 6.75937 10.7861C6.62899 10.7994 6.5197 10.8365 6.37781 10.8582C6.00805 10.9149 5.66169 11.1534 5.30899 11.3098C5.06786 11.4173 4.80879 11.4249 4.50609 11.2738C4.48692 11.2641 4.46481 11.1412 4.46067 11.1456C4.42181 11.1904 4.45659 11.3536 4.35522 11.0035C4.30492 11.06 4.34615 11.3112 4.26043 11.2683C4.21445 11.2452 4.1513 10.868 4.12651 11.0465C4.1031 11.204 4.23217 11.4365 3.97286 11.1504C3.96584 11.1421 3.88176 10.9114 3.8531 10.9534C3.82368 10.9924 3.91567 11.1707 3.82147 11.168C3.59777 11.1507 3.21576 10.7957 2.89348 10.6216C2.87367 10.6137 2.69061 10.5413 2.65615 10.5348C2.59208 10.5294 2.6358 10.6296 2.53071 10.5521C2.44823 10.4886 2.35105 10.3441 2.25221 10.2704C2.24053 10.2619 2.24348 10.3162 2.16019 10.2301ZM15.7873 8.39559C15.8919 8.21144 16.252 7.5217 16.234 7.77537C16.2324 7.79927 15.959 8.26125 15.9686 8.36011C15.899 8.3894 15.8473 8.38498 15.7869 8.39633C15.787 8.39608 15.7872 8.39584 15.7873 8.39559ZM1.40673 9.19215C1.45426 9.11052 1.50422 9.03523 1.55607 8.96656C1.52826 9.03865 1.4985 9.10459 1.46686 9.16371C1.44517 9.16829 1.42519 9.17757 1.40673 9.19215ZM10.0711 6.81915C10.0711 6.81914 10.071 6.81913 10.0709 6.81913C10.1551 6.72193 10.2405 6.62536 10.3269 6.52981C10.3128 6.60505 10.2988 6.68064 10.285 6.75596C10.2146 6.86998 10.1452 6.98449 10.077 7.09981C10.0752 7.00628 10.0732 6.91275 10.0711 6.81915ZM9.42652 7.59292C9.38194 7.49905 9.39909 7.34476 9.37745 7.19263C9.37744 7.19292 9.37743 7.19321 9.37742 7.19349C9.37168 7.15388 9.3397 7.11794 9.32707 7.11147C9.32876 7.20872 9.33179 7.30476 9.33375 7.40124C9.21747 7.6326 9.00812 6.78517 9.3138 6.4626C9.30569 6.58496 9.29788 6.70674 9.28993 6.82915C9.43807 6.80224 9.58663 7.07596 9.42652 7.59292ZM16.9375 8.57767C17.2147 8.28704 17.2866 8.23243 17.2991 8.53176C17.2327 8.61999 17.1662 8.70823 17.0998 8.79651C17.1276 8.68669 17.1551 8.57757 17.1826 8.46762C17.1825 8.46759 17.1824 8.46756 17.1824 8.46753C17.1265 8.56968 17.0706 8.67203 17.015 8.77428C16.9896 8.70894 16.9632 8.64305 16.9375 8.57767ZM4.79356 7.62009C4.6048 6.79992 4.70437 7.27837 4.76632 7.07426C4.78827 7.00337 4.72856 6.86468 4.74538 6.83675C4.83712 6.68439 4.94468 7.23759 4.97136 7.53042C4.9118 7.56116 4.85127 7.59063 4.79377 7.62005C4.7937 7.62007 4.79363 7.62008 4.79356 7.62009ZM2.12638 8.81473C2.12632 8.81477 2.12626 8.8148 2.12621 8.81484C2.09666 8.72706 2.12609 8.67126 2.05834 8.61978C2.08994 8.59283 2.12177 8.56673 2.15376 8.54058C2.14717 8.55759 2.14019 8.57414 2.1335 8.59074C2.15172 8.61715 2.1703 8.6448 2.18894 8.67285C2.16659 8.55107 2.19649 8.60735 2.2428 8.62396C2.19545 8.50297 2.14899 8.38492 2.10325 8.27018C2.15048 8.26658 2.20119 8.26714 2.25179 8.27249C2.26239 8.30663 2.27302 8.34086 2.28363 8.37509C2.28561 8.31861 2.28696 8.26036 2.28829 8.20111C2.30469 8.24016 2.32091 8.27932 2.33748 8.31913C2.34605 8.2719 2.35441 8.22356 2.36237 8.1737C2.39915 8.27805 2.37243 8.35521 2.43567 8.27344C2.4464 8.40379 2.4561 8.52928 2.46458 8.65046C2.34994 8.70079 2.23641 8.75546 2.12638 8.81473ZM5.62495 7.22195C5.49067 7.2766 5.50929 7.14 5.48049 6.72467C5.52911 6.89041 5.57742 7.0561 5.62495 7.22195ZM12.8016 7.82046C12.8879 7.57291 12.975 7.32842 13.0627 7.09091C13.1729 6.96535 13.1644 7.44489 13.0688 7.61443C12.954 7.81807 12.9234 7.55906 12.8016 7.82046ZM14.6379 8.10127C14.5696 7.96121 14.7333 7.68509 14.7985 7.51679C14.7571 7.80286 14.8007 7.78743 14.8533 7.83502C14.7916 7.83886 14.6489 8.12491 14.6377 8.10207C14.6378 8.10181 14.6378 8.10154 14.6379 8.10127ZM11.248 7.2736C11.2065 7.27607 11.158 7.3441 11.1321 7.25059C11.1716 7.00135 11.2184 7.23888 11.2091 6.86074C11.2362 6.85789 11.2632 6.85528 11.2902 6.8518C11.2553 7.00318 11.2639 7.12101 11.2479 7.27275C11.248 7.27304 11.248 7.27332 11.248 7.2736ZM6.96447 6.7635C7.07176 7.07358 7.07507 6.93734 7.14162 6.71421C7.17162 6.96996 7.10728 7.40583 7.05612 7.50509C7.02603 7.258 6.99551 7.01068 6.96447 6.7635ZM24.2702 14.0632C23.9872 14.1749 23.8843 14.0582 23.9256 13.9465C23.9697 13.9334 24.0144 13.9202 24.0593 13.9072C24.1303 13.9576 24.2005 14.0094 24.2702 14.0632ZM14.8772 7.86215C14.8692 7.85098 14.8611 7.84214 14.8533 7.83502C14.8642 7.83433 14.8727 7.84178 14.8772 7.86215ZM18.1833 10.8423C18.0201 11.0797 18.0583 11.2091 18.0101 11.0563C18.01 11.0565 18.0099 11.0568 18.0097 11.057C17.9786 10.9568 17.9731 10.9315 17.9214 10.879C18.1155 10.5656 18.3046 10.517 18.1645 10.357C18.1624 10.3555 18.0648 10.5514 18.0506 10.5101C18.0463 10.4973 18.1021 10.3237 18.0833 10.2548C18.0771 10.2326 17.9981 10.1287 18.1425 10.2005C18.2575 9.97138 18.386 9.74577 18.5014 9.52551C18.5915 9.49125 18.3999 9.95772 18.4635 9.97744C18.5583 10.0057 18.84 9.58077 18.5439 10.1776C18.3941 10.2829 18.2708 10.2221 18.4407 9.85899C18.3721 9.81721 18.1989 10.0969 18.1802 10.2705C18.5185 10.2163 18.0166 10.7346 18.3506 10.616C18.3968 10.5357 18.4527 10.4525 18.4924 10.375C18.4034 10.6971 18.2418 10.7575 18.1833 10.8423ZM18.0114 9.95114C18.1436 9.79926 18.2764 9.64604 18.409 9.49371C18.2609 9.7763 18.1055 10.0181 17.9572 10.1434C17.9755 10.0791 17.9936 10.0148 18.0114 9.95114ZM21.5096 11.9231C21.616 11.786 21.7236 11.6676 21.8311 11.5416C21.7616 11.6705 21.9631 11.994 21.7331 12.0022C21.7023 12.0051 21.7476 11.6588 21.5096 11.9231ZM6.42858 7.09252C6.4841 7.21426 6.53867 7.33628 6.59241 7.45816C6.53797 7.54399 6.48438 7.6323 6.43146 7.72038C6.42991 7.51104 6.42882 7.30166 6.42858 7.09252ZM13.3904 8.24808C13.3749 8.23819 13.4794 8.01624 13.4053 8.0392C13.4859 7.9001 13.558 7.78332 13.6364 7.65329C13.6276 7.76681 13.6188 7.87987 13.6097 7.99333C13.6361 7.92487 13.6626 7.85692 13.6891 7.78851C13.6479 7.9478 13.6082 8.10352 13.5662 8.2655C13.5591 7.90352 13.4576 8.29058 13.3904 8.24808ZM10.9002 8.50425C10.9252 8.1395 11.0677 7.93742 10.9576 7.86601C11.0059 7.63004 11.056 7.50933 11.128 7.49683C11.1286 7.58922 11.1292 7.6809 11.1296 7.77319C11.1596 7.53003 11.1878 7.44173 11.248 7.2736C11.248 7.27388 11.248 7.27416 11.248 7.27444C11.357 7.27101 11.3405 7.35132 11.316 7.75339C11.2334 7.51376 11.1845 7.87789 11.085 8.08646C11.0167 8.22996 10.958 8.1547 10.9002 8.50425ZM21.2013 11.7136C21.4374 11.5096 21.5381 11.2374 21.4741 11.5824C21.423 11.6402 21.3723 11.6975 21.3214 11.7555C21.2813 11.7423 21.2414 11.7282 21.2013 11.7136ZM10.6426 7.21511C10.6001 7.78221 10.6297 8.22874 10.7318 7.31124C10.6762 7.11601 10.663 7.64103 10.6426 7.21511ZM14.3996 8.93445C14.2743 8.87742 14.4443 8.27646 14.5736 7.98665C14.5554 8.09908 14.5371 8.21169 14.5188 8.32336C14.5544 8.27899 14.5903 8.23457 14.626 8.19099C14.5503 8.4385 14.4747 8.68677 14.3996 8.93445ZM8.1489 7.74229C8.24472 7.31925 8.02672 7.51032 8.09421 7.2459C8.14943 7.03477 8.23947 7.45792 8.21556 7.72387C8.19529 7.73166 8.17267 7.73731 8.1491 7.74229C8.14904 7.74229 8.14897 7.74229 8.1489 7.74229ZM8.7617 7.61897C8.74589 7.17285 8.77053 7.30296 8.68538 7.3823C8.66131 7.40472 8.46705 7.23591 8.55051 7.60691C8.61876 7.60694 8.69085 7.61379 8.7617 7.61897ZM16.1156 8.92298C16.0368 9.08896 15.7327 9.39032 15.7596 9.29135C15.7595 9.2916 15.7594 9.29184 15.7593 9.29209C15.8335 9.02244 15.9876 9.05323 16.0918 8.68442C16.0793 9.04711 16.4672 8.34224 15.9973 9.29103C15.9008 9.29596 16.0318 9.11689 16.1156 8.92298ZM24.1041 16.1746C24.1042 16.1747 24.1042 16.1748 24.1042 16.1748C24.1102 16.1633 24.3505 16.0163 24.4433 16.0019C24.391 16.1184 24.2145 16.1452 24.52 16.1633C24.4301 16.1911 24.3428 16.2174 24.2522 16.2456C24.1894 16.2242 24.0752 16.2327 24.1041 16.1746ZM21.5925 12.444C21.536 12.4614 21.6009 12.2611 21.562 12.2472C22.1273 11.7139 21.8224 12.3795 21.5925 12.444ZM3.33862 8.18152C3.33865 8.18123 3.33868 8.18094 3.33872 8.18064C3.33879 8.18104 3.33884 8.18143 3.33891 8.18182C3.33881 8.18172 3.33872 8.18162 3.33862 8.18152ZM19.5097 10.5666C19.4891 10.612 19.4702 10.6508 19.4524 10.6842C19.4506 10.6873 19.4488 10.6904 19.4471 10.6935C19.4678 10.6518 19.4887 10.6096 19.5097 10.5666ZM16.4105 9.00442C16.3527 9.26134 15.9926 9.53916 15.9773 9.42374C16.0322 9.32039 16.0791 9.22524 16.147 9.10884C16.0623 9.40438 16.4204 8.96118 16.4105 9.00442ZM11.875 7.83725C12.0315 7.86834 11.6766 8.849 11.7877 8.04039C11.7902 8.02473 11.8706 7.83794 11.875 7.83725ZM15.1524 8.54021C15.0356 8.82635 15.0938 8.92556 14.9814 8.84162C14.994 8.7629 15.0066 8.684 15.0191 8.60527C15.0634 8.58363 15.1079 8.56167 15.1524 8.54021ZM12.6629 9.32518C12.8828 9.19161 13.1276 8.9342 13.1664 8.0793C13.1462 8.10294 13.126 8.12569 13.1058 8.14939C13.0236 8.55384 13.0129 8.32203 12.9356 8.29334C12.8932 8.45212 12.8416 8.48087 12.8074 8.61625C12.7413 8.87799 12.7558 9.07334 12.6629 9.32518ZM4.54845 8.7113C4.53588 8.63533 4.52319 8.55895 4.51082 8.48366C4.52387 8.39218 4.53681 8.3009 4.5509 8.2089C4.57536 8.35516 4.59988 8.50134 4.6245 8.64746C4.59905 8.6689 4.57403 8.69035 4.54874 8.7117C4.54864 8.71156 4.54855 8.71143 4.54845 8.7113ZM17.4386 10.6337C17.8103 9.95417 17.6866 10.0507 17.3966 10.3419C17.411 10.4393 17.4226 10.5353 17.4386 10.6337ZM9.63399 8.65883C9.6413 8.42977 9.64852 8.20136 9.65537 7.97218C9.57576 8.20732 9.57742 8.47087 9.59418 8.7751C9.60745 8.7364 9.62058 8.69747 9.63399 8.65883ZM8.68557 8.74303C8.71266 8.79129 8.69902 8.60357 8.70185 8.60731C8.77099 8.70559 8.77944 8.79131 8.86535 8.6501C8.87621 8.60089 8.88701 8.54917 8.89805 8.49855C8.86347 8.0122 8.83204 8.27699 8.74804 7.9905C8.76293 8.15769 8.77737 8.32501 8.79147 8.49274C8.74518 8.45748 8.69887 8.4228 8.65209 8.38772C8.64663 8.43937 8.64119 8.49056 8.63582 8.54224C8.65246 8.60843 8.66946 8.6828 8.68557 8.74303ZM4.14872 8.57403C4.09974 8.56524 4.05026 8.55621 4.00106 8.54839C4.02611 8.66506 4.05141 8.78243 4.07648 8.89894C4.10043 8.79239 4.12455 8.68382 4.14872 8.57403ZM18.4394 10.7625C18.4617 10.7288 18.4841 10.6948 18.5064 10.6601C18.4823 10.7041 18.4602 10.7367 18.4394 10.7625ZM23.5302 16.4453C23.4655 16.5141 23.5335 16.5732 23.5301 16.6315C23.8064 16.562 23.6962 16.4398 23.8512 16.3486C23.7996 16.3531 23.5575 16.4164 23.5302 16.4453ZM14.2234 8.86616C14.1777 9.00134 14.1324 9.13592 14.0873 9.27124C14.0604 9.24911 14.0332 9.22607 14.006 9.20394C13.9785 9.31699 13.9509 9.43102 13.9234 9.54407C14.0928 9.42867 13.9843 9.74781 13.9724 10.0851C14.0564 9.67908 14.1401 9.27302 14.2234 8.86616ZM2.87061 9.45516C2.95788 9.40022 2.96167 9.27987 2.83481 9.03637C2.81647 9.10228 2.79727 9.16538 2.7775 9.22527C2.80837 9.30079 2.83949 9.37748 2.87061 9.45516ZM19.9051 11.9022C20.0454 11.8353 19.8007 12.2346 20.0063 12.0543C20.0155 11.9584 20.0242 11.8612 20.0317 11.7645C19.9896 11.8103 19.9471 11.8563 19.9051 11.9022ZM15.6931 11.0946C15.6521 11.256 16.0558 10.5915 15.8915 11.148C15.9884 11.0055 16.074 10.866 16.1664 10.7253C16.0963 10.8935 16.0264 11.0644 15.9562 11.2309C15.9563 11.231 15.9563 11.231 15.9564 11.231C16.0632 11.2156 16.1132 10.9858 16.2007 10.8139C16.2372 10.7427 16.2369 10.8919 16.2959 10.7268C16.3973 10.4434 16.1999 10.5373 16.3609 10.2106C16.3511 10.3385 16.4781 10.2905 16.5617 10.0607C16.6533 9.80832 16.376 10.1699 16.4233 9.94634C16.2379 10.5042 16.1683 10.2692 16.348 9.85929C16.1084 10.1242 16.1275 10.2896 16.2249 10.3198C16.0183 10.6 16.1812 10.4739 16.068 10.7358C15.9353 10.8619 15.8071 10.6392 15.6931 11.0946ZM11.8531 9.33233C11.9215 9.31987 11.9885 9.52953 12.0803 9.24926C12.1342 9.08611 12.0533 8.94009 12.1675 8.68862C12.0991 8.70379 12.0679 8.8044 12.0412 9.03668C12.0223 9.06211 12.0033 9.08687 11.9846 9.11168C11.9853 9.06564 11.9856 9.02016 11.9862 8.9741C11.9634 9.0679 11.9407 9.16098 11.9183 9.25489C11.9062 9.23391 11.8936 9.21286 11.8814 9.19117C11.8721 9.2387 11.8625 9.27986 11.8531 9.33233ZM21.8498 13.2719C21.8347 13.2622 21.8195 13.2525 21.8036 13.2432C21.7679 13.287 21.7308 13.3327 21.6942 13.3778C21.6651 13.4133 21.636 13.4488 21.6069 13.4843C21.7086 13.3553 21.8209 13.092 21.68 13.2022C21.6097 13.2577 21.4381 13.5206 21.3472 13.5152C21.3987 13.5375 21.4608 13.5347 21.5183 13.5498C21.4539 13.6165 21.389 13.6842 21.3248 13.7511C21.3247 13.7512 21.3247 13.7513 21.3246 13.7515C21.3234 13.7781 21.3214 13.8055 21.3196 13.8318C21.4958 13.6445 21.6723 13.458 21.8498 13.2719ZM9.66383 9.11324C9.73451 8.92644 9.76151 8.82975 9.74879 8.5231C9.74874 8.52295 9.74868 8.52281 9.74862 8.52266C9.71787 8.65678 9.68757 8.79106 9.65776 8.92562C9.65978 8.9881 9.66173 9.05079 9.66383 9.11324ZM18.4499 11.8744C19.1112 10.9645 18.5122 11.4148 18.3798 11.7764C18.3735 11.7928 18.498 11.7601 18.4499 11.8744ZM14.3422 9.27395C14.3041 9.27396 14.2663 9.27318 14.2282 9.2733C14.2043 9.40869 14.1806 9.54364 14.1564 9.67899C14.2179 9.54408 14.28 9.4086 14.3422 9.27395ZM3.42887 9.86486C3.53709 10.1237 3.66604 10.2466 3.63976 9.95387C3.60461 9.91714 3.5691 9.88105 3.53425 9.84548C3.57501 9.81528 3.6144 9.77939 3.65528 9.7471C3.559 9.36021 3.55981 9.58639 3.44704 9.48567C3.42917 9.46593 3.22718 9.0262 3.28754 9.36566C3.29985 9.43352 3.40225 9.4792 3.39313 9.68127C3.42486 9.6979 3.4476 9.69506 3.47581 9.70466C3.50072 9.79251 3.52566 9.8806 3.5508 9.96877C3.51015 9.93355 3.46958 9.89865 3.42887 9.86486ZM12.2326 9.35753C12.3173 9.39554 12.3573 9.22862 12.429 8.9337C12.3816 8.96025 12.3339 8.98635 12.2863 9.01316C12.2685 9.12774 12.2505 9.24229 12.2326 9.35753ZM4.27358 9.98191C4.33401 10.0305 4.25529 9.78082 4.26396 9.73172C4.2972 9.54511 4.38746 9.72114 4.43571 9.59788C4.44181 9.6481 4.44762 9.69495 4.45361 9.74355C4.45367 9.74354 4.45373 9.74353 4.4538 9.74352C4.84448 9.92215 4.53912 9.35235 4.35054 9.47798C4.32445 9.38357 4.2985 9.28916 4.27252 9.19578C4.21693 9.37667 4.1669 9.54161 4.27358 9.98191ZM17.391 11.3478C17.368 11.4003 17.1701 11.7063 17.3048 11.5851C17.5951 11.1388 17.4002 11.3337 17.4761 11.1433C17.515 11.1063 17.5536 11.0707 17.5923 11.0336C17.5698 10.8528 17.4976 10.9573 17.3523 11.3183C17.3426 11.3426 17.4139 11.2955 17.391 11.3478ZM17.8731 11.8998C18.2573 11.2198 17.974 11.466 17.8636 11.6818C17.875 11.699 17.9501 11.5893 17.9394 11.6499C17.9287 11.7106 17.8465 11.8735 17.8731 11.8998ZM14.7679 10.1105C14.7698 10.1133 14.7517 10.2477 14.7544 10.2796L14.5261 10.1965C14.5245 10.2146 14.5354 10.2016 14.5738 10.117C14.5863 10.0836 14.5973 10.0533 14.6067 10.0257L14.8024 10.097C14.8724 9.63307 14.6989 9.95858 14.6645 10.1556C14.6979 10.1535 14.7415 10.0706 14.7677 10.1113C14.7678 10.111 14.7679 10.1107 14.7679 10.1105ZM2.8243 9.89616C2.83017 9.90925 2.96257 10.025 2.95254 9.9456C2.93715 9.85465 2.91392 9.7545 2.89426 9.65728C2.86365 9.74238 2.72777 9.65907 2.82452 9.89622C2.82444 9.8962 2.82437 9.89618 2.8243 9.89616Z" fill="white"/>
<path d="M24.7865 17.1092C24.5406 17.1839 24.6764 16.9873 24.3162 17.1386C24.286 17.1159 24.2548 17.0932 24.2242 17.0706C24.3644 17.0522 24.5044 17.0333 24.6448 17.0142C24.6926 17.0455 24.74 17.0771 24.7872 17.1092C24.7869 17.1092 24.7867 17.1092 24.7865 17.1092ZM26.5593 17.0315C26.1543 17.0203 26.0329 16.9167 25.6759 17.0678C25.8152 17.0672 25.9543 17.0673 26.0933 17.0676C25.9907 17.1194 25.8882 17.1701 25.7863 17.2187C25.8403 17.231 25.8942 17.2435 25.9473 17.2563C25.7103 17.2886 25.473 17.3192 25.236 17.3483C25.2691 17.3306 25.3028 17.3124 25.336 17.2942C25.1349 17.2399 25.0743 17.187 25.0256 17.1039C24.9699 17.1157 24.9148 17.1273 24.8591 17.1388C24.9492 17.0892 25.0396 17.0379 25.1297 16.9851C25.2307 17.0153 25.3423 17.0504 25.4354 17.0804C25.8045 16.9934 25.5813 16.9011 25.494 16.8554C25.3751 16.7922 25.5577 16.7906 25.4736 16.7431C25.4604 16.7355 25.3189 16.7498 25.3136 16.7329C25.288 16.6477 25.3322 16.468 25.6812 16.5267C25.6637 16.6787 25.9468 16.7789 25.8683 16.9359C26.243 16.8638 26.3821 16.9312 26.5593 17.0315ZM24.7129 14.4729C24.9201 14.4628 24.8716 14.5757 24.7578 14.6717C24.7578 14.6718 24.7578 14.6719 24.7578 14.6719C24.7327 14.6933 24.4873 14.791 24.4836 14.7456C24.4781 14.6719 24.8692 14.5266 24.5836 14.5651C24.629 14.5345 24.6684 14.5044 24.7129 14.4729ZM24.6369 14.3257C24.721 14.2535 25.0319 14.1844 24.968 14.264C24.9682 14.2639 24.9684 14.2638 24.9687 14.2637C24.9419 14.2968 24.6868 14.3203 24.9579 14.3332C24.7739 14.4041 24.607 14.4693 24.4292 14.5371C24.4194 14.5184 24.4082 14.5019 24.3987 14.4821C24.7151 14.4071 24.5537 14.3974 24.6369 14.3257ZM25.5025 16.4731C25.2302 16.5018 25.2373 16.5307 25.0585 16.6015C25.0589 16.5559 25.0595 16.5099 25.0593 16.4639C25.2075 16.4662 25.3549 16.4691 25.5025 16.4731ZM25.6165 17.5554C25.6165 17.5554 25.6165 17.5555 25.6165 17.5556C25.6614 17.5693 25.7064 17.5837 25.7505 17.598C25.6605 17.6083 25.5714 17.6182 25.4826 17.6279C25.5866 17.6782 25.6913 17.7303 25.7947 17.7839C25.5223 17.775 25.5267 17.6827 25.3127 17.6349C25.3682 17.5602 25.5278 17.5202 25.7689 17.5087C25.7178 17.5245 25.6665 17.54 25.6165 17.5554ZM25.222 16.9862C25.2952 16.989 25.3685 16.9913 25.4417 16.9938C25.4661 16.9597 25.4833 16.9277 25.5126 16.8921C25.1985 16.8969 25.4588 16.8231 25.4185 16.7386C25.2944 16.4765 24.8496 16.6539 25.4681 16.2482C25.4824 16.4557 25.7822 16.3042 26.0554 16.3651C25.8753 16.4347 25.4264 16.4142 25.3588 16.5164C25.59 16.612 25.8057 16.6971 25.9726 16.821C26.0036 16.8084 26.0347 16.7958 26.0657 16.7833C26.0392 16.764 26.0126 16.7448 25.9861 16.7253C26.0788 16.7303 26.1707 16.7347 26.2645 16.7394C26.0606 16.7548 26.1918 16.8132 25.9645 16.8584C25.8633 16.8786 25.715 16.8753 25.6138 16.8764C25.5768 16.9482 25.5446 17.0203 25.5094 17.0919C25.422 17.0818 25.3345 17.0714 25.2472 17.0609C25.2383 17.0363 25.2301 17.0117 25.2212 16.9869C25.2215 16.9866 25.2218 16.9864 25.222 16.9862ZM15.8739 21.611C16.0703 21.4061 16.2255 21.4288 16.1749 21.7352C16.0763 21.6955 15.9763 21.6548 15.8739 21.611ZM25.9679 17.4985C25.9232 17.5075 25.8792 17.5161 25.8349 17.5248C25.7435 17.4929 25.6524 17.4618 25.5617 17.4318C25.6945 17.4208 25.8275 17.4093 25.9601 17.3975C25.9619 17.4313 25.9641 17.4651 25.9679 17.4985ZM25.4272 15.2915C25.4423 15.315 25.4383 15.3183 25.4266 15.3542C25.4267 15.3542 25.4268 15.3541 25.4269 15.3541C25.4228 15.3685 25.3681 15.4905 25.2577 15.5011C25.2426 15.4501 25.2298 15.3947 25.2157 15.3423C25.2861 15.3251 25.3563 15.3093 25.4272 15.2915ZM25.5131 15.9166C25.5129 15.9167 25.5127 15.9168 25.5124 15.9169C25.5004 15.9387 25.4714 15.9623 25.4697 15.9827C25.2866 15.9423 25.585 15.8779 25.4854 15.8295C25.3851 15.7811 25.2087 15.7758 25.6099 15.6409C25.6767 15.6492 25.7704 15.6543 25.8473 15.662C25.7026 15.7862 25.8636 15.7805 26.0415 15.8282C25.865 15.8576 25.6896 15.887 25.5131 15.9166ZM25.6296 15.6009C25.4566 15.6162 25.6187 15.563 25.6203 15.5605C25.6205 15.5605 25.6207 15.5605 25.6209 15.5605C25.4322 15.4293 25.7185 15.563 25.7156 15.4065C25.7622 15.4206 25.8113 15.4346 25.8585 15.4485C25.7835 15.4985 25.698 15.5522 25.6296 15.6009ZM25.8635 10.9281C25.9136 10.9686 25.962 11.012 26.0102 11.0553C26.128 10.8356 26.1534 10.8032 26.1994 10.7536C26.2261 10.7921 26.2407 10.8199 26.093 10.8201C26.0757 10.7828 26.0579 10.745 26.0395 10.7066C26.0011 10.7518 25.9624 10.809 25.8628 10.9277C25.8631 10.9279 25.8633 10.928 25.8635 10.9281ZM25.7442 14.7417C25.887 14.8126 25.9569 14.8765 25.7996 15.0148C25.7994 15.015 25.7992 15.0151 25.799 15.0152C25.7892 15.0233 25.6564 15.0261 25.6266 15.0406C25.6506 15.0558 25.6849 15.0694 25.7125 15.0841C25.6126 15.1099 25.5126 15.1355 25.4132 15.161C25.427 15.0997 25.4405 15.0382 25.4537 14.9763C25.397 14.9986 25.3408 15.0209 25.2841 15.043C25.2407 15.004 25.1971 14.9655 25.1531 14.927C25.3235 14.902 25.4938 14.8775 25.6644 14.8532C25.6913 14.8162 25.7168 14.7793 25.7442 14.7417ZM24.8871 11.889C24.9431 11.8793 25.0302 11.9198 25.0798 11.9007C25.1287 11.8817 25.0336 11.8234 25.1849 11.8535C25.2012 11.889 25.2205 11.9263 25.2382 11.9621C25.335 11.9368 25.3726 11.9057 25.3929 11.8762C25.433 11.8184 25.409 11.7674 25.635 11.7983C25.5934 11.8309 25.5727 11.8642 25.5681 11.8986C25.5605 11.9545 25.5921 12.0126 25.644 12.0781C25.3739 12.046 25.1518 11.9185 24.8909 11.9536C24.8898 11.9324 24.8872 11.9098 24.8876 11.8893C24.8874 11.8892 24.8872 11.8891 24.8871 11.889ZM28.2893 19.2838C28.1932 19.3497 28.0379 19.5071 27.8698 19.5696C27.8245 19.5852 27.5603 19.6031 27.5399 19.597C27.4623 19.5752 27.5169 19.493 27.3909 19.5647C27.414 19.5361 27.4339 19.5074 27.4559 19.4783C27.3915 19.4695 27.3283 19.4609 27.2662 19.4521C27.2533 19.4895 27.2394 19.5266 27.2249 19.5634C27.2064 19.5606 27.188 19.5579 27.1697 19.5552C27.2424 19.4293 27.1304 19.4864 27.0906 19.4036C27.0292 19.4568 26.9747 19.5102 26.9259 19.5629C26.9409 19.529 26.957 19.4882 26.9718 19.4583C26.8794 19.4312 26.884 19.5112 26.8648 19.5197C26.7643 19.5694 26.8784 19.2112 26.6947 19.1453C26.6787 19.2011 26.6656 19.2594 26.653 19.3174C26.6342 19.2955 26.6142 19.2734 26.593 19.2515C26.6823 19.1365 26.7223 18.9913 26.8179 18.8458C26.8112 18.8302 26.804 18.8147 26.7971 18.7994C26.7229 18.7931 26.6496 18.7865 26.5767 18.78C26.5638 18.757 26.5502 18.7342 26.5361 18.7115C26.8006 18.8092 26.776 18.7219 26.9512 18.6331C27.0449 18.7025 26.9786 18.7666 27.1474 18.784C27.0441 18.5688 27.3005 18.3514 27.12 18.1431C27.0722 18.0919 26.7581 18.0782 26.7771 17.9704C26.8134 17.9752 26.8781 17.9778 26.9253 17.9816C26.7631 17.783 26.6364 17.6757 26.8038 17.4739C26.6729 17.4887 26.5419 17.5029 26.4121 17.5168C26.4819 17.5552 26.5523 17.5954 26.6205 17.6358C26.4121 17.6653 26.3114 17.6257 26.3356 17.7442C26.3562 17.8412 26.4353 17.7842 26.5004 17.8116C26.5875 17.8497 26.4334 17.879 26.53 17.9203C26.6028 17.9526 26.76 17.9236 26.7273 18.0036C26.5194 17.964 26.297 17.9258 26.0726 17.8905C26.1142 17.8731 26.1578 17.8556 26.202 17.8376C26.2646 17.8574 26.3255 17.8773 26.3862 17.8979C26.27 17.8274 26.1551 17.7636 26.0264 17.6967C26.3547 17.7185 26.2195 17.6471 26.1733 17.6091C26.1014 17.5498 26.3383 17.598 26.2942 17.5586C26.2504 17.5192 25.9849 17.484 26.032 17.4124C26.1866 17.4453 26.3161 17.3886 26.4563 17.3936C26.5963 17.3987 26.6319 17.4782 26.7786 17.3961C26.6587 17.257 26.1678 17.4205 26.0517 17.3475C26.0478 17.345 26.0443 17.3424 26.0412 17.3394C25.9285 17.235 26.7945 17.1564 26.9834 17.1827C27.0952 17.1986 27.1089 17.26 27.1712 17.3003C27.1917 17.3135 27.2175 17.3243 27.2537 17.3304C27.2704 17.3178 27.2837 17.306 27.2941 17.2951C27.4448 17.136 26.9818 17.1579 26.8846 17.1356C26.5051 17.0499 27.5036 17.0583 27.1349 16.9496C27.3212 16.9382 27.4888 16.9278 27.6674 16.9172C27.6321 16.8957 27.5859 16.8833 27.5571 16.8566C27.1998 16.9692 27.2108 16.899 27.2075 16.8648C27.202 16.8105 27.0315 16.9089 26.9846 16.898C26.8591 16.8698 26.909 16.8056 26.7523 16.8559C26.8253 16.8332 26.8984 16.8088 26.9708 16.7849C26.8729 16.7275 26.074 16.6697 26.2479 16.7843C25.9564 16.8002 26.0904 16.7457 26.1303 16.7081C26.1701 16.6706 25.985 16.6911 26.0152 16.6589C26.1359 16.5297 26.4642 16.5668 26.715 16.5592C26.5233 16.4201 26.4312 16.5869 26.2837 16.3788C26.0767 16.3849 25.8761 16.5117 25.7449 16.445C26.0957 16.384 26.3403 16.2874 26.4381 16.1459C26.3546 16.1458 26.2702 16.1462 26.1865 16.1466C26.5025 16.0308 26.8506 16.0093 26.4214 15.9481C27.1828 15.8952 26.6952 15.9272 26.9813 15.7594C27.039 15.7249 27.2039 15.7544 27.2775 15.7072C27.3107 15.6857 27.1869 15.6686 27.2716 15.6151C27.3134 15.5893 27.5898 15.4497 27.4415 15.4148C27.0839 15.5254 26.7524 15.4745 26.468 15.6231C26.509 15.4406 26.3084 15.3526 26.8462 15.4491C26.9485 15.3838 27.0502 15.3172 27.1519 15.2502C27.0585 15.2364 26.9655 15.2227 26.8722 15.2096C27.1729 15.1427 27.2589 15.1298 27.1808 15.0168C27.2631 15.0554 27.346 15.0943 27.4281 15.1345C27.4893 15.1239 27.554 15.1187 27.6128 15.1048C27.485 15.0603 27.3977 14.8815 27.3075 14.8544C27.2174 14.827 27.2136 14.9193 27.1327 14.9234C26.4652 14.9596 26.9422 14.8631 26.8144 14.8116C26.7386 14.7824 26.6918 14.9046 26.6584 14.8872C26.5357 14.8237 26.8695 14.7029 26.8555 14.6229C26.6669 14.6978 26.4753 14.7722 26.2849 14.8448C26.2756 14.7632 26.2547 14.674 26.1725 14.6162C26.1403 14.5936 26.0005 14.652 25.9895 14.6497C25.9334 14.6391 25.8282 14.5664 25.8248 14.5568C25.8026 14.4832 26.0041 14.4277 25.9945 14.3518C26.0198 14.3758 26.0428 14.3987 26.0671 14.4224C26.3982 14.349 26.7293 14.2766 27.0607 14.2046C27.0656 14.1222 27.0696 14.0398 27.0736 13.957C26.9785 14.0427 26.8839 14.1275 26.7887 14.2114C26.5017 14.1954 26.2129 14.1842 25.9228 14.1767C26.0733 14.0888 26.2239 13.9999 26.3746 13.9096C26.2973 13.8029 25.6404 14.0217 26.2051 13.7959C26.1456 13.7757 26.0859 13.7558 26.0267 13.7361C26.1113 13.7161 26.196 13.6961 26.2805 13.6763C26.2168 13.6496 26.1532 13.6233 26.0885 13.5976C25.8078 13.7311 25.5116 13.8663 25.2397 13.9925C25.1501 13.9343 25.3991 13.8573 25.4576 13.8266C25.6124 13.745 25.3693 13.7514 25.5139 13.6794C25.5636 13.6545 25.7535 13.682 25.9344 13.5967C25.9694 13.5811 26.6332 13.2556 26.4502 13.2356C26.3242 13.277 26.1708 13.3315 26.0342 13.3779C25.9275 13.3115 26.5726 13.0507 26.7618 13.003C26.6164 12.9942 26.5819 12.9243 26.3759 12.981C26.3627 12.9572 26.3497 12.9335 26.3363 12.9098C26.8387 12.7721 26.7136 12.6935 26.2864 12.8306C26.2905 12.8777 26.294 12.9249 26.2978 12.972C25.7665 13.1119 25.497 13.347 25.8865 12.9164C26.1396 12.7725 25.8812 13.0208 26.0695 12.9099C26.1625 12.7962 26.0398 12.7609 26.2041 12.625C26.4092 12.455 26.6741 12.4827 26.302 12.3831C25.7077 13.0976 25.7739 12.5002 25.462 12.3834C26.1835 12.0533 26.3533 11.7796 26.0373 11.621C25.8406 11.7275 25.9768 11.7621 25.9257 11.8328C25.8746 11.903 25.7337 11.9029 25.6582 11.9944C25.5828 12.0861 25.4954 12.25 25.37 12.3586C25.2356 12.3556 24.8713 12.238 25.2615 12.2595C25.4231 12.0708 25.6128 11.9355 25.596 11.7806C25.2571 11.8656 25.0579 11.9479 24.9942 11.8188C25.4739 11.719 25.7224 11.4399 26.1981 11.287C26.1299 11.4296 25.6587 11.5546 25.4662 11.6966C25.447 11.7108 25.5957 11.7562 25.596 11.7806C25.9636 11.5301 26.1007 11.4356 26.6038 11.3035C26.5357 11.2527 26.5795 11.1868 26.3479 11.2729C26.4419 11.219 26.5359 11.1649 26.6299 11.1109C26.6188 11.09 26.6019 11.0742 26.5945 11.0501C26.2616 11.2227 26.4497 11.074 26.2756 11.0946C26.1012 11.1157 25.8522 11.2851 25.8004 11.1697C25.7357 11.2421 25.681 11.3062 25.6198 11.3751C25.5002 11.3364 25.38 11.2996 25.2601 11.2629C25.0716 11.404 24.8046 11.6435 24.5257 11.7547C24.6166 11.6783 24.3847 11.643 24.3718 11.6339C24.323 11.5983 24.5089 11.5505 24.5116 11.5451C24.5642 11.434 24.478 11.398 24.7299 11.2559C24.7105 11.2552 24.6946 11.2532 24.6816 11.2503C24.6021 11.2416 24.6383 11.1898 24.6131 11.1526C24.5971 11.1292 24.4103 11.2285 24.4394 11.1973C24.6339 10.9936 24.9045 10.9107 24.3688 11.0315C24.255 11.1268 24.135 11.2194 24.0144 11.3077C23.9595 11.324 23.9057 11.3435 23.8547 11.3671C23.8743 11.3481 23.8943 11.3295 23.9144 11.3114C24.1773 11.1298 24.4409 10.948 24.7041 10.7668C24.705 10.7631 24.7058 10.7595 24.7066 10.7558C24.7109 10.7366 24.7147 10.7173 24.719 10.6983C24.7387 10.6992 24.7594 10.7016 24.7802 10.7044C24.8018 10.7074 24.8241 10.7116 24.8463 10.7163C24.8949 10.688 24.9437 10.6598 24.9927 10.632C25.0108 10.5951 25.0282 10.5577 25.0447 10.5195C25.0689 10.463 25.0911 10.4048 25.1093 10.3444C25.0224 10.4133 24.935 10.483 24.8485 10.5524C24.878 10.4653 24.9028 10.4024 24.8883 10.3825C24.8836 10.3666 24.7873 10.3749 24.7752 10.5322C24.7975 10.5562 25.0285 10.6521 25.2155 10.6292C25.3989 10.6241 25.5561 10.6272 25.654 10.6204C25.6356 10.6034 25.6161 10.5888 25.5958 10.5763C25.5549 10.5763 25.514 10.5766 25.4736 10.5772C25.5523 10.6123 25.6301 10.6469 25.7079 10.681C25.5816 10.6687 25.4564 10.6583 25.3333 10.6491C25.5878 10.7329 25.6638 10.7589 25.7986 10.7058C26.1109 10.8258 25.8822 10.9152 25.7477 10.9471C25.6451 10.9705 25.4105 10.8575 25.3755 10.8545C25.2596 10.8467 25.32 10.9472 25.2955 10.9592C25.195 11.0116 25.1894 11.0639 25.1127 11.1162C25.0972 11.1261 24.9315 11.1295 24.9261 11.1318C24.8925 11.1499 24.8029 11.1947 24.7992 11.2016C24.604 11.5353 25.339 11.2788 25.1865 11.5802C25.2719 11.584 25.3568 11.5888 25.4428 11.5935C25.441 11.617 25.4393 11.6408 25.4384 11.6643C25.3619 11.683 25.2449 11.6285 25.3325 11.7027C25.2318 11.6839 25.1311 11.665 25.0308 11.6458C25.0803 11.6806 25.1296 11.7139 25.1795 11.7484C25.0198 11.7454 24.9109 11.7736 24.804 11.801C24.6705 11.835 24.5385 11.8683 24.3105 11.8349C24.1705 11.8151 24.042 11.6736 23.8842 11.7204C23.8481 11.7706 24.02 11.7546 24.0262 11.7774C24.0691 11.9395 23.8356 11.9068 23.8916 11.9782C23.9915 11.9984 24.0933 12.0191 24.1942 12.039C24.1623 12.0599 24.1304 12.0811 24.0986 12.1027C24.166 12.1143 24.2334 12.126 24.3007 12.1374C24.3072 12.1157 24.314 12.0912 24.3205 12.0714C24.5795 12.1259 24.6784 12.3842 24.4615 12.2718C24.3733 12.2255 24.4182 12.1545 24.1037 12.1758C24.1427 12.2501 24.1827 12.3333 24.2231 12.41C24.156 12.4083 24.0887 12.4065 24.0216 12.4048C24.0591 12.5086 24.3323 12.4314 24.4758 12.4409C24.4785 12.4633 24.4808 12.486 24.4837 12.5084C24.4183 12.5144 24.3498 12.5199 24.2864 12.5269C24.3898 12.533 24.6292 12.5569 24.5372 12.6183C24.4775 12.6583 24.2192 12.5803 24.2522 12.6641C24.4139 12.6636 24.6112 12.6425 24.6603 12.7329C24.4915 12.7366 24.3369 12.7445 24.1596 12.7467C24.3184 12.8659 24.0572 12.9148 24.245 13.0509C24.3639 13.1383 24.7885 13.2429 24.1381 13.3113C24.1223 13.3747 24.2842 13.3506 24.3212 13.368C24.4961 13.4486 24.1898 13.5237 24.1723 13.5416C24.0602 13.6516 24.1697 13.693 24.0289 13.7868C24.1492 13.7749 24.2631 13.7657 24.3805 13.7551C24.1955 13.6892 24.2017 13.6482 24.236 13.5377C24.2617 13.5733 24.2881 13.6086 24.3141 13.6436C24.4117 13.6328 24.5093 13.6222 24.6064 13.612C24.2074 13.2968 24.8191 13.3591 24.9643 13.6174C24.7844 13.6493 24.6051 13.6831 24.4248 13.717C24.7085 13.8589 24.4756 13.9485 24.4344 14.135C24.4298 14.1572 24.5412 14.2253 24.5497 14.2584C24.5504 14.2577 24.551 14.2571 24.5517 14.2565C24.7243 14.2603 24.8 14.2243 24.9522 14.2062C24.9731 14.2219 24.9939 14.2376 25.0149 14.2532C24.9028 14.3043 24.8058 14.3008 24.842 14.3757C24.9565 14.3525 25.0711 14.3296 25.1857 14.3069C25.1989 14.3894 25.0797 14.458 25.1438 14.5299C25.0984 14.5222 25.0529 14.5145 25.0076 14.5066C24.9178 14.6926 24.2213 14.6424 24.5766 14.7317C24.5185 14.7481 24.4599 14.7644 24.4018 14.781C24.3798 14.7274 24.3584 14.6733 24.3369 14.6192C24.2529 14.6284 24.1693 14.6375 24.0853 14.6469C24.1179 14.705 24.1517 14.7626 24.1849 14.8194C24.1228 14.7831 24.0606 14.7458 23.9988 14.7082C23.9675 14.7844 23.9368 14.8609 23.9066 14.9374C24.2041 14.8195 24.2552 14.9109 24.5575 14.8495C24.3208 15.0041 24.0017 15.159 24.2467 15.3139C24.2956 15.3445 24.5042 15.2875 24.2645 15.4395C24.5976 15.3554 24.7794 15.4587 25.0973 15.3835C25.0754 15.3508 25.059 15.3155 25.034 15.2841C24.9295 15.3428 24.6243 15.4043 24.5226 15.358C24.3927 15.2975 24.587 15.1493 24.247 15.2085C24.2579 15.1741 24.2627 15.143 24.2714 15.1098C24.358 15.1095 24.445 15.1085 24.5315 15.1075C24.3853 15.0416 24.4201 14.9783 24.6275 14.9059C24.6917 15.0019 24.7562 15.0965 24.8215 15.1893C24.8335 15.172 24.8457 15.1546 24.8572 15.1374C25.0875 15.1778 25.2802 15.0656 25.3506 15.1971C25.251 15.2133 25.1514 15.2297 25.0513 15.2459C25.326 15.2524 25.3497 15.3899 25.6473 15.2908C25.561 15.3488 25.5033 15.3685 25.6722 15.3613C25.4604 15.5112 25.1824 15.6433 24.8245 15.6702C24.889 15.7019 24.9538 15.733 25.0184 15.7633C25.1091 15.72 25.1995 15.677 25.2903 15.6343C25.2987 15.7076 25.3075 15.7804 25.3171 15.8531C25.0358 15.9183 25.2027 15.7324 24.9587 15.8258C24.9097 15.8447 25.0263 15.8616 24.9999 15.8776C24.7137 16.0507 24.9013 15.8332 24.6712 15.9139C24.6322 16.093 24.2081 16.0464 24.59 16.2038C24.5099 16.2276 24.4282 16.2522 24.3485 16.2755C24.361 16.3565 24.5433 16.3082 24.5934 16.3692C24.6245 16.407 24.3143 16.5349 24.5447 16.5316C24.5871 16.5302 24.9631 16.3622 24.9838 16.529C25.0002 16.6583 24.7098 16.6726 24.6278 16.7659C24.5462 16.8611 24.9696 16.9211 24.5451 17.0785C24.5937 17.0269 24.6136 16.9731 24.6512 16.9214C24.5622 16.9259 24.4741 16.9305 24.3855 16.9349C24.5177 17.0001 24.4123 17.1291 24.6306 17.1407C24.3515 17.3423 24.6743 17.4068 25.0146 17.2796C24.9538 17.2519 24.8125 17.3351 24.8953 17.2538C24.9754 17.2273 25.055 17.2006 25.1351 17.1742C25.1496 17.2716 25.1692 17.3378 24.9094 17.3582C24.9073 17.3746 24.9051 17.3908 24.903 17.4071C25.0835 17.3632 25.2647 17.3189 25.4452 17.2749C25.47 17.2872 25.4947 17.2994 25.5194 17.3115C25.485 17.3411 25.4501 17.3708 25.4152 17.4006C25.1238 17.449 25.1023 17.4049 24.9825 17.5969C25.081 17.5716 25.1791 17.5467 25.2775 17.5214C25.1858 17.6808 24.9479 17.7449 24.9983 17.9006C24.6248 17.8687 25.2133 17.6453 24.5284 17.8251C24.5654 17.7828 24.6029 17.74 24.6399 17.6974C24.5394 17.7187 24.4387 17.7401 24.3382 17.7615C24.4332 17.9133 25.158 18.0116 24.752 18.2325C24.8084 18.232 24.8579 18.2333 24.9184 18.232C24.6841 18.4078 25.2837 18.2978 24.9723 18.4951C24.9393 18.5148 24.3803 18.6342 24.4334 18.7643C24.5047 18.7431 24.6257 18.7112 24.716 18.6858C24.6791 18.7267 24.6394 18.7655 24.6015 18.8074C24.6695 18.7965 24.7376 18.786 24.8062 18.7752C24.8192 18.7156 24.8339 18.6616 24.8468 18.6033C24.8803 18.6404 24.9134 18.676 24.9467 18.7134C25.0422 18.631 25.0372 18.6061 25.2199 18.5963C25.2419 18.6407 25.2658 18.6905 25.2878 18.7366C25.3339 18.731 25.3804 18.7252 25.4265 18.7197C25.5545 18.664 25.6793 18.608 25.8087 18.5505C25.7317 18.7086 25.7525 18.8264 25.5097 18.9838C25.4686 19.0101 25.281 18.9887 25.4629 19.0682C25.3703 19.0893 25.2954 19.108 25.2099 19.1277C25.4989 19.2159 25.4308 19.2809 25.2635 19.4547C25.4262 19.3344 25.3241 19.4351 25.4226 19.4445C25.4906 19.4512 25.4711 19.3881 25.5406 19.3844C25.6098 19.3799 25.8985 19.4288 25.9197 19.3463C25.3266 19.2492 25.988 19.0819 25.6692 18.9012C25.7488 18.9212 25.8285 18.9417 25.9079 18.9626C25.953 18.9356 25.994 18.911 26.0416 18.8814C25.9606 19.036 26.018 18.9582 26.1156 18.9971C26.2136 19.0385 26.306 19.1239 26.3431 19.1984C26.3545 19.2206 26.2244 19.2172 26.2211 19.2709C26.2188 19.3069 26.4207 19.3766 26.2023 19.4321C26.0592 19.4618 25.644 19.3713 25.6699 19.5709C25.5323 19.6232 25.5657 19.5258 25.5481 19.5256C25.3781 19.5329 25.2648 19.6571 25.3975 19.6942C25.409 19.6977 25.5371 19.6433 25.5929 19.6863C25.7259 19.7936 25.5751 19.8728 25.3684 19.9348C25.6088 19.9402 25.8973 20.066 25.7847 20.1994C25.8068 20.2056 25.8289 20.2119 25.851 20.2182C25.896 20.2307 25.9411 20.2434 25.986 20.2564C25.9791 20.2504 25.9721 20.2445 25.9651 20.2387C25.9404 20.2149 25.9154 20.1922 25.8896 20.1703C25.936 20.1515 25.9705 20.1279 26.0238 20.1066C26.0414 20.1736 26.103 20.2263 26.1772 20.2766C26.2873 20.3401 26.4263 20.3933 26.4876 20.4532C26.8315 20.8142 26.0163 20.4362 25.876 20.3714C25.9421 20.3573 26.015 20.3436 26.084 20.3269C26.001 20.3137 25.9173 20.3002 25.8339 20.2862C25.7653 20.5977 25.2929 20.2129 25.1083 20.3041C25.4994 20.4419 25.4999 20.5828 25.2075 20.5993C25.2041 20.6128 25.1991 20.6258 25.1958 20.6394C25.25 20.6661 25.3343 20.7037 25.3689 20.7237C25.3577 20.9139 24.7848 20.6186 24.7297 20.5954C24.4774 20.4956 24.7732 20.7195 24.7649 20.7375C24.7381 20.7979 24.598 20.7094 24.6177 20.7961C24.6351 20.8924 24.7573 20.9449 24.828 21.036C24.8827 21.11 24.8511 21.1664 24.8964 21.2521C24.8509 21.1899 24.8062 21.1288 24.7584 21.0683C24.6301 21.0496 24.5228 21.0089 24.4475 21.0349C24.5222 21.172 24.5231 21.2206 24.5006 21.2275C24.4397 21.247 24.227 20.9751 24.5454 21.4302C24.5805 21.4287 24.6146 21.4317 24.65 21.4413C24.7205 21.46 24.7975 21.5044 24.9074 21.5824C24.8828 21.6215 24.8568 21.6598 24.8291 21.6977C24.8124 21.7208 24.7949 21.744 24.7772 21.767C24.7142 21.7079 24.6584 21.6463 24.5945 21.585C24.6465 21.7639 24.503 21.757 24.4868 21.8242C24.4439 21.9912 24.4635 22.1442 24.4424 22.198L24.3385 22.2286C24.3121 22.2721 24.2658 22.2256 24.1334 21.9844C24.2108 21.9383 24.2252 21.8282 24.2529 21.7507C24.2633 21.6943 24.2777 21.6529 24.3315 21.6438C24.2286 21.4915 24.1903 21.5462 24.1369 21.3321C24.1205 21.3503 24.1117 21.372 24.1085 21.3968L24.1854 21.3742C24.1498 21.4641 24.1924 21.6124 24.1768 21.7564C24.1594 21.9138 24.071 21.938 24.1049 22.136C24.0799 22.0284 24.0579 21.9235 24.0338 21.8153C23.9516 21.8283 23.8677 21.8388 23.7851 21.8486C23.8087 21.7269 23.8301 21.6059 23.8501 21.487C23.8195 21.4451 23.7897 21.4028 23.76 21.36C23.6974 21.5147 23.5907 21.4993 23.4991 21.4871C23.367 21.4698 23.2608 21.4592 23.3129 22.0126C23.2133 22.0458 23.1971 21.9283 23.1408 21.7521C23.1361 21.8233 23.1312 21.8825 23.1263 21.9618C23.061 21.8882 23.0133 22.1554 22.9549 22.0857C22.8973 22.0164 22.8871 21.7639 22.8728 22.1878C22.8371 22.0656 22.8024 21.9639 22.7691 21.85C22.7448 21.9457 22.7199 22.0403 22.6945 22.1353C22.6606 22.0836 22.6281 22.0321 22.5957 21.9802C22.5688 22.1818 22.4344 22.0878 22.3658 22.2194C22.3215 21.9978 22.3709 21.3132 22.2357 21.4261C22.2253 21.5962 22.215 21.7657 22.2049 21.9358C22.1774 21.898 22.1501 21.8601 22.1228 21.822C22.1258 21.7665 22.1292 21.7109 22.1323 21.6554C22.1459 21.6739 22.1595 21.6922 22.1732 21.7112C22.1679 21.6163 22.1631 21.5219 22.1587 21.4271C22.1022 21.562 22.043 21.6965 21.9834 21.8307C22.0348 21.9419 22.0894 22.053 22.1445 22.1635C22.0533 22.2813 22.0073 22.1517 21.9239 22.2834C21.8865 22.0432 21.9244 21.9108 21.9738 21.6593C21.9499 21.6788 21.9258 21.6974 21.9016 21.7167C21.943 21.4643 21.9238 21.3097 22.0444 21.3427C22.0431 21.2694 22.0415 21.1994 22.0411 21.1233C22.0201 21.1327 22.0136 21.0702 21.989 21.0958C21.9225 21.1661 21.8242 21.606 21.8102 21.7627C21.8033 21.8448 21.8829 21.6953 21.8676 21.8107C21.8312 22.0922 21.697 21.9493 21.8784 22.2559C21.7885 22.4281 21.7859 22.2907 21.7148 22.2298C21.7097 22.3245 21.7047 22.4186 21.6997 22.5132C21.668 22.4656 21.6367 22.4181 21.6057 22.3703C21.7127 21.8941 21.4849 21.6809 21.7637 21.2879C21.7009 21.2582 21.6383 21.2278 21.5769 21.196C21.5972 21.1485 21.6172 21.1014 21.6371 21.0537C21.6623 21.0838 21.688 21.1134 21.7139 21.1428C21.6911 21.0479 21.6692 20.9535 21.6483 20.8585C21.5536 20.9595 21.4966 21.1267 21.4269 21.3332C21.5005 21.5024 21.5004 21.2862 21.5803 21.2546C21.559 21.3888 21.5453 21.5131 21.5189 21.6536C21.5188 21.3695 21.362 21.5533 21.3298 21.5621C21.2329 21.5892 21.3468 21.3272 21.2881 21.3119C21.2298 21.2968 21.1308 21.447 21.1296 21.1683C21.104 21.3199 21.0805 21.4773 21.0601 21.6158C20.9564 21.6488 21.0074 21.4732 21.0018 21.4484C20.9176 21.04 20.7764 21.3453 20.5911 21.3472C20.6037 21.3985 20.6176 21.4453 20.6314 21.4938C20.4306 21.7853 20.5407 21.7066 20.6384 21.8363C20.5339 21.7819 20.4131 22.0404 20.3149 22.1037C20.2173 22.167 20.1106 21.9963 20.0872 21.8764C20.2409 21.7285 20.335 21.8706 20.4719 21.849C20.4899 21.6928 20.5037 21.5602 20.5253 21.3889C20.3815 21.6942 20.3845 21.4697 20.3699 21.4218C20.3265 21.281 20.2657 21.5564 20.2904 21.2507C20.2687 21.3529 20.2503 21.4387 20.2301 21.5341C20.0898 21.4571 19.9773 21.239 19.7847 21.5874C19.8381 21.3423 19.8918 21.1067 19.946 20.8564C19.8374 21.0233 19.8343 20.8226 19.7721 20.8515C19.7096 20.8804 19.6762 21.0813 19.5945 21.1398C19.5794 21.1506 19.5898 21.0219 19.5371 21.1043C19.4853 21.1875 19.1874 21.8296 19.3434 21.2389C19.2915 21.221 19.2483 21.1851 19.2 21.16C19.2598 21.1418 19.3189 21.1244 19.3781 21.1056C19.3766 20.9511 19.3764 20.7974 19.3772 20.6432C19.3345 20.7682 19.2909 20.8954 19.2487 21.0187C19.0885 21.1387 19.0686 20.9069 18.9396 20.9197C18.9179 20.9219 18.8846 21.1851 18.8191 21.0944C18.7532 21.0034 18.8434 20.5209 18.6424 20.6517C18.6324 20.6586 18.4696 20.9973 18.5019 20.7354C18.5094 20.6761 18.5861 20.6109 18.5845 20.5291C18.5829 20.4474 18.4865 20.3468 18.5386 20.171C18.5183 20.2325 18.5032 20.2984 18.4849 20.3619C18.4547 20.3841 18.4241 20.4062 18.3937 20.4276C18.4301 20.3194 18.4664 20.211 18.5027 20.1033C18.301 20.3133 18.0902 20.6981 17.9684 20.4991C17.958 20.6724 17.9487 20.8466 17.9407 21.0204C17.9946 20.9161 18.0485 20.811 18.1017 20.7064C18.1655 20.7793 18.2305 20.8516 18.2959 20.9238C18.3531 20.8035 18.4097 20.6833 18.4664 20.5627C18.4817 20.5862 18.4971 20.6092 18.5126 20.6328C18.4761 20.7215 18.4396 20.8098 18.4027 20.8984C18.4528 20.8908 18.5029 20.8826 18.5526 20.8746C18.2837 21.3809 18.3286 20.7463 18.1836 21.1967C18.1886 21.1207 18.194 21.0442 18.1997 20.9677C18.1145 21.1809 18.0971 21.1047 18.0407 21.0458C18.0179 21.1577 17.9976 21.2689 17.9736 21.3817C17.9596 21.2072 17.8352 21.178 17.7871 21.0943C17.7662 21.0576 17.8551 20.9134 17.8529 20.8917C17.8432 20.779 17.6521 21.0166 17.6415 20.9879C17.579 20.8174 17.7131 20.2789 17.4608 20.5682C17.5494 20.7003 17.497 20.6385 17.4662 20.8431C17.4564 20.9071 17.5691 21.0933 17.3892 20.9592C17.3661 20.9431 17.1521 20.4436 17.3819 20.2233C17.3441 20.2488 17.3074 20.2772 17.2709 20.3067C17.2195 20.3493 17.1667 20.3933 17.1127 20.4333C17.2945 19.6745 17.0478 20.3538 16.9245 20.7334C16.9026 20.7257 16.8812 20.7206 16.859 20.7108C17.0733 20.3496 16.8525 20.223 16.6856 20.3775C16.6298 20.4289 16.6485 20.5845 16.5604 20.6134C16.5426 20.573 16.5253 20.5231 16.5078 20.4788C16.4419 20.7394 16.3078 20.7888 16.1938 21.0318C16.2357 20.7868 16.4151 20.3101 16.5646 20.0772C16.4709 20.1555 16.3758 20.2327 16.2795 20.3095C16.2723 20.3772 16.2666 20.4448 16.2606 20.5128C16.1838 20.2883 15.8005 20.5167 16.0446 20.0063C16.0232 19.9988 16.002 19.9908 15.9807 19.9832C15.9273 20.0623 15.8737 20.1416 15.8197 20.2204C15.7699 20.0961 15.7252 19.9711 15.6853 19.8467C15.7937 19.8461 15.8814 19.7412 15.9039 19.8835C15.9294 19.771 15.9567 19.6586 15.9866 19.548C15.7173 19.7262 15.5867 19.874 15.4621 19.6794C15.455 19.6699 15.4726 19.3769 15.4835 19.3545C15.5298 19.2518 15.6543 19.1449 15.679 19.0939C15.7471 18.9506 15.8476 18.5345 15.8869 18.4898C16.3773 17.9567 16.7654 18.2256 16.8771 18.2415C17.1986 18.3143 17.5819 18.4467 18.0054 18.6299L17.9793 18.6187C19.0311 19.055 20.0608 19.6498 21.1832 19.799C21.199 19.8006 21.2121 19.6941 21.2195 19.6908C21.2649 19.672 21.2753 19.8435 21.2895 19.853C21.3196 19.8729 21.3289 19.7179 21.3524 19.722C21.5945 19.7665 21.8108 19.89 22.0544 19.8909C22.0703 19.8909 22.0405 20.0117 22.0707 19.9931C22.0865 19.9829 22.1507 19.7994 22.1821 19.7997C22.2928 19.8009 22.379 19.8691 22.4943 19.8739C22.5565 19.8764 22.6498 19.8974 22.7183 19.8971C22.7485 19.8971 22.7833 19.8116 22.8127 19.8094C22.8545 19.8065 22.8421 19.9817 22.8485 19.9927C22.8764 20.0409 22.8836 19.8484 22.91 19.8533C22.9597 19.8631 22.9618 19.9918 23.0253 19.9808C23.0703 19.9728 23.1718 19.8695 23.2238 19.8377C23.2797 19.8981 23.3398 19.9212 23.3989 19.9229C23.4816 19.9253 23.5605 19.8998 23.624 19.8805C23.6876 19.8617 23.7161 20.0376 23.7445 20.0405C23.8217 20.0481 23.8646 19.9255 23.9168 19.8757L23.5229 19.9915C23.5257 19.978 23.53 19.97 23.5383 19.9712C23.5808 19.9789 23.6647 20.0767 23.7051 20.0888C23.7103 20.0906 23.7148 20.0913 23.7179 20.0905C23.7223 20.0894 23.6317 19.9712 23.6307 19.9673C23.6281 19.9521 23.6089 19.9336 23.6236 19.9496C23.6387 19.9686 23.8084 20.1029 23.7802 20.0679C23.7716 20.0579 23.6175 19.9481 23.5967 19.936C23.5631 19.9185 23.7082 20.002 23.7287 20.0036C23.7548 20.008 23.5797 19.9269 23.6059 19.9332C23.607 19.9336 23.733 19.9892 23.7284 19.9834C23.7154 19.9674 23.6143 19.9286 23.6285 19.9215C23.6297 19.9231 23.7622 19.942 23.7641 19.9371C23.7713 19.923 23.827 19.8898 23.8027 19.8689C23.7906 19.8592 23.776 19.8509 23.7611 19.8441C23.6594 19.8593 23.5628 19.8352 23.9433 19.905C23.8337 19.9012 23.723 19.8984 23.6168 19.8952C23.7162 19.9039 23.8599 19.8709 23.85 19.8608C23.7737 19.8306 23.6016 19.8663 23.6266 19.8174C24.0333 19.8492 23.6717 19.7374 23.654 19.6963C23.5759 19.5043 23.62 19.2376 23.5489 18.9549C23.5248 18.8598 23.4104 18.7508 23.3857 18.6449C23.3796 18.6201 23.476 18.615 23.4724 18.5926C23.4682 18.5703 23.3715 18.6215 23.3706 18.595C23.3679 18.4343 23.5288 18.2563 23.2501 18.1771C23.2833 18.1608 23.3111 18.1538 23.3465 18.1319C23.0986 18.0677 23.3319 17.7611 23.3492 17.66C23.3772 17.5073 23.2217 17.5085 23.2263 17.3983C23.2329 17.2536 23.4721 16.9809 23.0198 17.1862C22.9827 17.0951 22.9577 17.0053 22.9803 16.8996C22.9829 16.8878 23.1051 16.8673 23.1066 16.8625C23.1179 16.8316 23.0079 16.8476 22.9988 16.8304C22.9744 16.7836 23.1218 16.8353 23.0699 16.7726C23.0424 16.7399 22.9429 16.7383 22.9187 16.6356C22.7724 16.0086 22.6817 15.2913 22.6259 14.603C22.6219 14.5556 22.5068 14.5996 22.5083 14.5389C22.5122 14.3268 22.6841 13.9395 22.6491 13.7633C22.6134 13.5848 22.4419 13.6324 22.3652 13.5197C22.3504 13.498 22.4499 13.5129 22.4508 13.4929C22.4558 13.358 22.608 13.1949 22.6314 13.0864C22.647 13.0152 22.4914 13.0204 22.4807 12.97C22.4652 12.8947 22.6239 12.82 22.6299 12.7806C22.6568 12.5937 22.536 12.4608 22.6114 12.2872C22.5768 12.292 22.5448 12.2946 22.5108 12.2984C22.5294 12.088 22.5532 11.8798 22.5829 11.6693C22.5507 11.6756 22.5183 11.6816 22.4856 11.688C22.503 11.5926 22.5648 11.5448 22.5914 11.5184C22.6333 11.4767 22.5886 11.4864 22.1527 11.4439C22.1298 11.422 22.1028 11.3983 22.0813 11.3771C22.4464 11.4326 22.7287 11.3161 22.8199 11.142C22.8281 11.1302 22.4577 10.9705 22.8911 11.0559C22.7844 11.0128 22.7102 10.9848 22.6151 10.9463C22.7442 10.9277 22.8731 10.9098 23.005 10.8943C22.9841 10.8684 22.9637 10.8421 22.9424 10.8157C22.8546 10.7952 22.7639 10.7798 22.6772 10.7556C22.6535 10.6468 22.7433 10.4498 22.7258 10.3615C22.6818 10.1447 22.3962 9.84584 22.6894 9.75886C22.6824 9.73687 22.6656 9.72156 22.6443 9.70935C22.62 9.66046 22.5749 9.6533 22.5509 9.60754C22.5326 9.55629 22.5066 9.49406 22.6453 9.1993C22.7863 9.14575 22.92 9.10878 23.0827 9.05911C23.133 8.53687 23.6655 8.01931 24.3346 7.90255C25.0115 7.76563 25.6724 8.04998 26.026 8.31218C26.4756 8.65743 26.6143 8.67985 26.7662 8.86087C26.798 8.90459 26.6819 8.99048 26.7074 9.01235C26.7593 9.05754 26.8963 9.10817 26.9997 9.15298C27.069 9.18245 27.1256 9.20863 27.1402 9.22721C27.3678 9.51503 27.48 9.74908 27.5681 10.0066C27.5894 10.081 27.6067 10.158 27.622 10.2387C27.6277 10.2669 27.7446 10.178 27.7501 10.2074C27.759 10.2548 27.5478 10.3134 27.548 10.3427C27.5496 10.4234 27.7619 10.3355 27.8116 10.4296C27.9754 10.7402 27.952 11.1804 28.0523 11.5304C28.0559 11.5411 28.1804 11.4949 28.1855 11.5062C28.2169 11.5811 28.0735 11.7197 28.0977 11.7888C28.1371 11.9032 28.3392 11.9298 28.3734 12.0466C28.4405 12.2738 28.4086 12.507 28.4663 12.744C28.513 12.9384 28.572 13.1022 28.6217 13.3168C28.8405 14.2447 29.3847 15.1729 29.2439 16.2373C29.2401 16.2642 29.1343 16.2653 29.1394 16.2728C29.1895 16.3432 29.3312 16.3356 29.0362 16.3936C29.0999 16.483 29.3236 16.4917 29.312 16.6126C29.3057 16.6768 28.9608 16.6584 29.1412 16.7496C29.3034 16.8331 29.49 16.7128 29.3017 17.0165C29.2964 17.0247 29.0888 17.0737 29.1431 17.1302C29.1893 17.18 29.3065 17.1288 29.3659 17.2078C29.3753 17.2204 29.3831 17.2363 29.3882 17.2565C29.4793 17.6036 29.0915 18.0576 28.8322 18.44C28.82 18.465 28.7016 18.6999 28.6875 18.7457C28.6683 18.8374 28.7852 18.832 28.6836 18.9427C28.602 19.0274 28.4252 19.0804 28.3334 19.1748C28.323 19.1857 28.39 19.2189 28.2893 19.2838ZM25.5993 17.2267C25.7539 17.206 26.3137 17.0949 26.174 17.2445C26.1609 17.2589 25.767 17.3025 25.7225 17.3783C25.667 17.33 25.6395 17.278 25.5988 17.2269C25.599 17.2268 25.5991 17.2268 25.5993 17.2267ZM26.4999 19.4282C26.4938 19.3461 26.485 19.263 26.4753 19.1818C26.5198 19.2458 26.5569 19.311 26.5877 19.3748C26.556 19.3924 26.5267 19.4101 26.4999 19.4282ZM25.6254 10.9897C25.6254 10.9896 25.6254 10.9896 25.6255 10.9895C25.6705 11.0815 25.7129 11.1707 25.754 11.2575C25.7004 11.238 25.6463 11.2182 25.5922 11.1982C25.5287 11.1215 25.4633 11.0423 25.395 10.9604C25.4714 10.9699 25.5482 10.9796 25.6254 10.9897ZM24.7452 10.5972C24.6553 10.6506 24.5998 10.7763 24.4914 10.8712C24.4916 10.871 24.4917 10.8708 24.4919 10.8706C24.4621 10.8941 24.4192 10.9023 24.4127 10.9044C24.4747 10.8409 24.5347 10.7771 24.593 10.7114C24.6624 10.6322 24.6048 10.7771 24.4474 10.9092C24.3055 11.0555 24.0246 11.1473 23.9808 11.311C24.0581 11.2306 24.1368 11.1523 24.2174 11.075C24.2192 11.0857 24.3622 11.1805 24.7056 11.1294C24.8641 11.096 24.9615 10.9984 24.9257 10.9165C24.8993 10.8356 24.7526 10.7319 24.7452 10.5972ZM26.1793 18.4708C26.4885 18.5499 26.5594 18.588 26.4106 18.813C26.3267 18.8038 26.2429 18.7952 26.1591 18.7869C26.2322 18.7397 26.3045 18.692 26.377 18.6434C26.377 18.6433 26.377 18.6432 26.3769 18.6431C26.292 18.656 26.2069 18.669 26.1221 18.6823C26.1417 18.6124 26.1608 18.5423 26.1793 18.4708ZM26.1718 15.3359C25.5169 15.5097 25.9005 15.4188 25.7257 15.3475C25.6649 15.3231 25.5573 15.3825 25.5324 15.3647C25.3964 15.2709 25.8398 15.1618 26.0785 15.1375C26.111 15.203 26.1418 15.2704 26.1718 15.3357C26.1718 15.3357 26.1718 15.3358 26.1718 15.3359ZM26.7321 18.5516C26.7321 18.5516 26.7321 18.5517 26.7321 18.5518C26.6308 18.5438 26.5909 18.4905 26.5061 18.5372C26.4958 18.4938 26.4858 18.4511 26.4753 18.4079C26.4888 18.4215 26.5017 18.4354 26.5148 18.449C26.5494 18.4414 26.5853 18.4336 26.6214 18.4257C26.4914 18.3988 26.5609 18.3915 26.5976 18.3493C26.458 18.3506 26.3212 18.3513 26.1874 18.3516C26.2071 18.3041 26.2307 18.2559 26.2581 18.2082C26.2959 18.21 26.3338 18.2118 26.3717 18.2136C26.3175 18.1911 26.2615 18.1691 26.2047 18.1473C26.2495 18.1448 26.2944 18.1423 26.34 18.1395C26.2977 18.1143 26.2543 18.0893 26.2095 18.0647C26.3254 18.0628 26.3895 18.1163 26.3357 18.0241C26.466 18.0564 26.592 18.0905 26.7139 18.1256C26.7197 18.267 26.7263 18.4097 26.7321 18.5516ZM25.7188 14.4335C25.7902 14.5758 25.6718 14.5606 25.3293 14.6143C25.4591 14.5547 25.5888 14.4943 25.7188 14.4335ZM24.8433 13.9775C25.0339 14.0081 25.2228 14.0368 25.4073 14.0647C25.5195 14.1419 25.1889 14.2672 25.0485 14.2122C24.8799 14.1436 25.0514 14.0425 24.8433 13.9775ZM25.2526 16.0639C25.3136 15.9334 25.5556 15.9918 25.6887 15.9881C25.4904 16.0636 25.5177 16.1011 25.5098 16.1765C25.4815 16.1139 25.2423 16.0862 25.252 16.064C25.2522 16.064 25.2524 16.064 25.2526 16.0639ZM25.054 12.1805C25.0524 12.1363 25.0046 12.0871 25.0719 12.0543C25.2486 12.0845 25.0791 12.1452 25.3484 12.1164C25.3502 12.1441 25.352 12.1717 25.3546 12.1991C25.2467 12.1719 25.1628 12.1877 25.0546 12.1804C25.0544 12.1805 25.0542 12.1805 25.054 12.1805ZM24.9859 13.0865C25.215 12.9134 25.0981 12.9352 24.8865 12.9164C25.0938 12.8289 25.4857 12.8036 25.5867 12.8412C25.3864 12.9232 25.1861 13.005 24.9859 13.0865ZM17.3365 21.5799C17.4492 21.3556 17.6184 21.3857 17.6719 21.4844C17.6495 21.5156 17.6268 21.5472 17.6041 21.5789C17.5152 21.5799 17.4258 21.5802 17.3365 21.5799ZM25.5027 16.2128C25.5064 16.1998 25.5086 16.1877 25.5098 16.1765C25.5148 16.1875 25.5137 16.1995 25.5027 16.2128ZM24.9326 21.0011C24.7859 20.8438 24.674 20.8711 24.8065 20.8363C24.8063 20.8362 24.8062 20.836 24.806 20.8359C24.8933 20.8094 24.9157 20.802 24.9669 20.7498C25.1914 20.9062 25.1721 21.123 25.3523 20.9355C25.3541 20.9327 25.2102 20.858 25.2477 20.836C25.259 20.8294 25.3951 20.8588 25.4571 20.8188C25.4765 20.8069 25.5789 20.6835 25.4922 20.8748C25.6654 20.9534 25.8322 21.0499 25.9972 21.1322C25.9966 21.2529 25.6341 21.1375 25.5918 21.2206C25.5291 21.3449 25.769 21.645 25.3664 21.3575C25.3478 21.1904 25.4383 21.0398 25.7105 21.1597C25.7751 21.0525 25.5682 20.919 25.4232 20.9359C25.3634 21.3272 25.0806 20.8246 25.0629 21.1681C25.1133 21.215 25.1613 21.2727 25.2116 21.3134C24.9686 21.2239 24.9876 21.0557 24.9326 21.0011ZM25.7219 20.6303C25.8381 20.7387 25.9497 20.8572 26.0529 20.9859C25.8356 20.8918 25.6587 20.7698 25.5671 20.6337C25.6187 20.6338 25.6705 20.6324 25.7219 20.6303ZM21.1553 22.1107C21.1242 22.2504 21.0807 22.376 21.0418 22.5074C21.0413 22.3866 20.6428 22.197 20.8772 22.1194C20.9101 22.1082 21.0574 22.3899 21.1553 22.1107ZM25.4232 13.5886C25.5114 13.5123 25.5998 13.4354 25.688 13.3579C25.7763 13.4048 25.866 13.4521 25.9547 13.5003C25.7777 13.529 25.6005 13.5585 25.4232 13.5886ZM24.7068 14.7607C24.7088 14.7404 24.8895 14.7821 24.8519 14.7085C24.9696 14.7513 25.0701 14.7914 25.1815 14.8311C25.1027 14.8595 25.0244 14.8885 24.9457 14.9175C24.9998 14.9228 25.0537 14.9284 25.1078 14.9334C24.9883 14.9436 24.8718 14.9541 24.7503 14.9638C24.9894 14.8298 24.6989 14.8518 24.7068 14.7607ZM24.1867 11.8515C24.4456 11.8644 24.583 12.0193 24.6394 11.8883C24.8053 11.9336 24.8892 11.9836 24.8964 12.0628C24.8304 12.0688 24.765 12.075 24.699 12.0815C24.872 12.1 24.9344 12.1265 25.054 12.1805C25.0538 12.1805 25.0536 12.1805 25.0534 12.1806C25.0559 12.2974 24.9992 12.2852 24.7117 12.2923C24.8825 12.1788 24.6226 12.1546 24.4764 12.0504C24.376 11.9786 24.433 11.9033 24.1867 11.8515ZM21.6009 22.1718C21.4731 22.4056 21.5272 22.647 21.3912 22.3617C21.4112 22.3008 21.4309 22.2404 21.4505 22.1794C21.5006 22.1765 21.5507 22.1741 21.6009 22.1718ZM25.1414 11.5306C24.7333 11.4724 24.4085 11.5115 25.0564 11.6239C25.2068 11.5668 24.827 11.5457 25.1414 11.5306ZM24.6266 16.159C24.6103 15.9925 25.0629 15.9311 25.2993 15.9482C25.2204 15.9754 25.1414 16.0027 25.063 16.0298C25.1058 16.0497 25.1486 16.0694 25.1909 16.089C25.003 16.1127 24.8146 16.1361 24.6266 16.159ZM25.3772 11.5827C24.9802 11.6107 25.2329 11.7845 24.9816 11.7932C24.7811 11.8016 25.0989 11.5742 25.333 11.5154C25.3484 11.5351 25.363 11.5584 25.3771 11.5825C25.3772 11.5826 25.3772 11.5826 25.3772 11.5827ZM25.0007 10.9774C24.6426 11.1689 24.7384 11.0934 24.8388 11.1371C24.846 11.1403 24.8474 11.1574 24.8496 11.1779C24.8603 11.2483 24.882 11.3543 25.0856 11.1922C25.0718 11.1601 25.0588 11.1269 25.046 11.0933C25.0314 11.0546 25.0167 11.0156 25.0007 10.9774ZM25.5227 17.8957C25.3927 17.932 25.0615 17.8372 25.1276 17.7972C25.1274 17.7972 25.1272 17.7973 25.127 17.7973C25.3069 17.6878 25.3816 17.8585 25.6291 17.7105C25.4388 17.945 26.0225 17.8444 25.2673 18.0299C25.2082 17.9392 25.3755 17.9454 25.5227 17.8957ZM15.6128 19.961C15.6127 19.9609 15.6126 19.9609 15.6126 19.9608C15.6179 19.973 15.585 20.2152 15.5343 20.2741C15.4624 20.1504 15.5642 20.042 15.3337 20.1772C15.3715 20.1094 15.409 20.0441 15.4472 19.9759C15.5104 19.9631 15.5818 19.8991 15.6128 19.961ZM20.7648 21.7315C20.8142 21.7007 20.8604 21.8763 20.9112 21.8756C20.6405 22.4669 20.5642 21.8522 20.7648 21.7315ZM26.5601 17.0318C26.5598 17.0317 26.5596 17.0316 26.5593 17.0315C26.5597 17.0315 26.56 17.0315 26.5604 17.0315C26.5603 17.0316 26.5602 17.0317 26.5601 17.0318ZM24.1311 22.2454C24.1197 22.2076 24.1116 22.1744 24.1062 22.145C24.1058 22.1422 24.1054 22.1394 24.105 22.1366C24.1133 22.1725 24.1219 22.2087 24.1311 22.2454ZM25.6538 18.2362C25.489 18.3521 25.1398 18.1964 25.1885 18.1005C25.273 18.0841 25.3486 18.0653 25.4474 18.0529C25.2484 18.1715 25.6815 18.2168 25.6538 18.2362ZM24.6812 12.9405C24.6747 13.127 23.9433 12.8746 24.5289 12.8722C24.5402 12.873 24.6802 12.9359 24.6812 12.9405ZM25.2016 16.8039C24.9725 16.8108 24.9377 16.9191 24.9385 16.7592C24.9928 16.7367 25.0472 16.7143 25.1014 16.6919C25.1347 16.7296 25.1683 16.7669 25.2016 16.8039ZM23.7726 14.2407C23.919 14.4827 24.1653 14.6818 24.7563 14.4566C24.7347 14.4413 24.7137 14.4257 24.6922 14.4102C24.3943 14.4409 24.5492 14.3564 24.5492 14.2589C24.4296 14.257 24.3969 14.2049 24.2955 14.2044C24.0993 14.2024 23.9686 14.2793 23.7726 14.2407ZM27.0789 15.7047C27.0177 15.7112 26.9563 15.7179 26.8957 15.7244C26.821 15.6989 26.7462 15.6735 26.6709 15.6491C26.7884 15.6341 26.9058 15.6192 27.0231 15.6045C27.042 15.6378 27.0607 15.671 27.0792 15.7044C27.0791 15.7045 27.079 15.7046 27.0789 15.7047ZM25.1684 20.2274C25.6405 20.3606 25.6506 20.2982 25.4805 20.1519C25.4515 20.1288 25.4168 20.1043 25.3778 20.0795C25.3581 20.0954 25.3381 20.1099 25.3179 20.1228C25.2687 20.1604 25.2189 20.1954 25.1684 20.2274ZM24.2338 10.2276C24.4259 10.2774 24.6178 10.3276 24.8108 10.3781C24.7838 10.3572 24.7556 10.3382 24.7261 10.3208C24.5721 10.2274 24.3941 10.1477 24.1699 10.1575C24.1615 10.1564 24.153 10.1553 24.1445 10.1542C24.1743 10.179 24.2042 10.2033 24.2338 10.2276ZM25.9661 10.6309C25.9898 10.576 25.8428 10.6654 25.8442 10.6602C25.8846 10.5338 25.9471 10.4816 25.7755 10.431C25.7287 10.4386 25.6802 10.4481 25.6327 10.4576C25.269 10.7166 25.5004 10.6359 25.3115 10.8439C25.4409 10.7621 25.5694 10.6784 25.6969 10.5917C25.6966 10.6636 25.6943 10.7341 25.6895 10.804C25.7124 10.7981 25.7351 10.7923 25.7579 10.7865C25.7808 10.7805 25.8037 10.7744 25.8266 10.7682C25.8345 10.7611 25.8426 10.7539 25.8507 10.7466C25.8906 10.7082 25.9324 10.6677 25.9661 10.6309ZM26.9745 16.1671C26.9668 16.2246 26.9583 16.2826 26.95 16.3396C27.0468 16.3294 27.1443 16.319 27.2412 16.3089C27.153 16.2607 27.064 16.2131 26.9745 16.1671ZM24.8964 21.2521C24.9142 21.2765 24.9321 21.3011 24.9505 21.3259C24.9249 21.2987 24.9082 21.2744 24.8964 21.2521ZM15.7746 19.4525C15.7616 19.3646 15.6658 19.3496 15.6197 19.2989C15.4858 19.492 15.6642 19.5398 15.6357 19.6915C15.6675 19.6623 15.7801 19.4896 15.7746 19.4525ZM24.5974 15.9311C24.4927 15.9363 24.3885 15.9412 24.2838 15.9462C24.2871 15.9058 24.2911 15.8651 24.2945 15.8243C24.2111 15.8395 24.1269 15.8548 24.0435 15.8699C24.1853 16.0204 23.9378 16.0281 23.7189 16.1626C24.0114 16.0847 24.3041 16.0077 24.5974 15.9311ZM27.6386 17.9522C27.6046 17.8201 27.4873 17.7752 27.2147 17.8429C27.2742 17.8879 27.3312 17.9338 27.3849 17.9802C27.4686 17.9711 27.5533 17.9617 27.6386 17.9522ZM22.8458 21.5569C22.7432 21.6622 22.7529 21.2765 22.6493 21.4883C22.6979 21.5614 22.7491 21.635 22.8001 21.7072C22.8155 21.6573 22.831 21.6069 22.8458 21.5569ZM24.1685 18.9477C24.0612 19.0154 24.6337 18.9577 24.2477 19.1622C24.376 19.1607 24.4968 19.1511 24.622 19.1475C24.4939 19.189 24.3643 19.232 24.2367 19.2714C24.2367 19.2715 24.2367 19.2716 24.2367 19.2716C24.2999 19.355 24.4523 19.2611 24.5918 19.2338C24.6496 19.2218 24.5682 19.317 24.6893 19.268C24.8972 19.1823 24.7413 19.0598 25.0025 18.9992C24.9295 19.0742 25.0227 19.1621 25.1916 19.0947C25.3768 19.0194 25.0327 18.987 25.1764 18.8846C24.7794 19.0724 24.866 18.8559 25.1803 18.7564C24.9069 18.7005 24.833 18.8322 24.8699 18.9404C24.6085 18.9298 24.764 18.9977 24.5633 19.0622C24.4253 19.0226 24.4698 18.7549 24.1685 18.9477ZM23.6178 13.1939C23.6345 13.2803 23.4958 13.4208 23.7075 13.4728C23.8306 13.5022 23.921 13.3675 24.1157 13.4518C24.0944 13.3716 24.0192 13.3546 23.8515 13.373C23.8308 13.3547 23.8107 13.3359 23.7906 13.3174C23.8232 13.3079 23.8554 13.2982 23.888 13.2889C23.8187 13.2803 23.7499 13.2714 23.6806 13.2627C23.6939 13.2421 23.7073 13.2213 23.7212 13.2007C23.6864 13.1987 23.656 13.1949 23.6178 13.1939ZM19.9899 21.1554C20.0122 21.1586 20.034 21.1617 20.0565 21.1643C20.0652 21.1185 20.074 21.0708 20.0828 21.0237C20.0899 20.9865 20.097 20.9493 20.1042 20.9122C20.0836 21.0462 20.1347 21.2897 20.2118 21.1597C20.25 21.0944 20.2606 20.8332 20.3612 20.8108C20.2928 20.8084 20.2238 20.8279 20.1544 20.8333C20.1784 20.7606 20.2022 20.687 20.226 20.6143C20.226 20.6142 20.226 20.614 20.226 20.6139C20.2091 20.5921 20.1922 20.5693 20.1756 20.5475C20.114 20.7503 20.0523 20.9527 19.9899 21.1554ZM23.8455 10.1922C23.9905 10.3212 24.0642 10.3675 24.3218 10.3979C24.3219 10.3978 24.322 10.3978 24.3222 10.3977C24.2172 10.3381 24.1111 10.2768 24.0038 10.214C23.9509 10.2065 23.898 10.1991 23.8455 10.1922ZM24.0414 20.9578C24.2869 21.7752 24.3472 21.1771 24.1448 20.9583C24.1377 20.9478 24.0935 21.0388 24.0414 20.9578ZM24.3881 16.2418C24.372 16.1985 24.3566 16.1547 24.3406 16.1105C24.2448 16.1417 24.1495 16.1731 24.0538 16.2044C24.1651 16.2176 24.2769 16.23 24.3881 16.2418ZM28.1174 17.3706C28.2355 17.3427 28.3201 17.2972 28.3478 17.2507C28.3803 17.1961 28.3373 17.1417 28.1859 17.1144C28.1542 17.1507 28.1224 17.1867 28.0905 17.2224C28.0572 17.1592 28.02 17.0974 27.9872 17.0345C27.6291 17.0533 27.8402 17.1143 27.745 17.2293C27.7394 17.2357 27.6788 17.2566 27.6192 17.2814C27.5135 17.3256 27.411 17.3803 27.6226 17.3975C27.6907 17.4033 27.7379 17.2846 27.9357 17.3593C27.9505 17.3263 27.949 17.2978 27.9544 17.2673C27.9549 17.264 27.9556 17.2606 27.9564 17.2572C28.0412 17.2511 28.1261 17.2449 28.2109 17.2384C28.2067 17.2446 28.2025 17.2508 28.1983 17.257C28.1723 17.2952 28.1451 17.333 28.1174 17.3706ZM23.6572 13.698C23.6463 13.8177 23.7712 13.8247 23.9909 13.8349C23.9628 13.783 23.9354 13.7306 23.908 13.6777C23.8246 13.6846 23.7411 13.6911 23.6572 13.698ZM28.1463 16.2653C28.1821 16.1935 27.976 16.2479 27.9337 16.2265C27.774 16.1464 27.9158 16.0582 27.8102 15.9743C27.8514 15.9748 27.89 15.9753 27.93 15.9759C27.93 15.9759 27.93 15.9758 27.93 15.9757C28.0483 15.4821 27.6037 15.8046 27.7154 16.064C27.6383 16.0813 27.561 16.0982 27.4846 16.1153C27.6359 16.2175 27.7776 16.3152 28.1463 16.2653ZM24.6265 20.3346C24.5863 20.3209 24.3455 20.2 24.4458 20.2861C24.7916 20.4757 24.6375 20.3419 24.7844 20.38C24.814 20.4079 24.8419 20.4364 24.8703 20.4659C25.0113 20.4156 24.9262 20.3695 24.6459 20.3017C24.6273 20.2968 24.667 20.3474 24.6265 20.3346ZM24.2194 20.5941C24.6038 21.0301 24.5079 20.7587 24.3675 20.6434C24.3543 20.6469 24.4179 20.7224 24.3772 20.7016C24.3366 20.6806 24.2401 20.5856 24.2194 20.5941ZM24.0611 17.1175C24.0597 17.1225 23.8384 17.2284 24.0197 17.1784C24.4369 17.0122 24.1306 16.9641 23.9851 17.0207C24.002 17.0583 24.0731 17.0685 24.0605 17.1176C24.0607 17.1176 24.0609 17.1175 24.0611 17.1175ZM28.0707 18.1929C28.0862 18.1916 28.235 18.0622 28.1514 18.0421C28.0558 18.0247 27.9494 18.0144 27.8469 18.001C27.9261 18.0749 27.8049 18.2167 28.0708 18.1926C28.0708 18.1927 28.0708 18.1928 28.0707 18.1929Z" fill="white"/>
</svg>
