<svg width="19" height="20" viewBox="0 0 19 20" fill="none" xmlns="http://www.w3.org/2000/svg">
<g clip-path="url(#clip0_126_10963)">
<mask id="mask0_126_10963" style="mask-type:alpha" maskUnits="userSpaceOnUse" x="-7" y="0" width="24" height="24">
<path d="M-6.99841 8.61108L7.58735 23.6227L16.0502 15.409L11.9641 8.64824L8.97326 5.96309L7.86101 5.80082L1.46443 0.397444L-6.99841 8.61108Z" fill="#D9D9D9"/>
</mask>
<g mask="url(#mask0_126_10963)">
<path d="M54.3766 -37.5437C54.3144 -37.9865 53.9314 -37.4228 53.9528 -38.1579C53.8575 -38.1451 53.761 -38.1332 53.6658 -38.1204C53.7692 -37.92 53.8719 -37.7197 53.9753 -37.5193C54.109 -37.527 54.2428 -37.5347 54.3772 -37.5428C54.377 -37.5431 54.3768 -37.5434 54.3766 -37.5437ZM56.0338 -35.2676C55.5978 -35.7482 55.2211 -35.7084 55.2075 -36.4026C55.3511 -36.2337 55.4951 -36.0652 55.6386 -35.8963C55.6528 -36.1081 55.668 -36.3205 55.6835 -36.5318C55.7673 -36.4861 55.8511 -36.4403 55.9344 -36.3953C55.7771 -36.748 55.6191 -37.1014 55.4617 -37.4551C55.4481 -37.38 55.4344 -37.3038 55.4209 -37.2287C55.0805 -37.3786 54.8809 -37.3511 54.6161 -37.2492C54.5876 -37.3383 54.5596 -37.4268 54.5312 -37.5159C54.4958 -37.3104 54.4611 -37.1046 54.4271 -36.8997C54.611 -36.839 54.8163 -36.7718 54.9873 -36.7148C55.1602 -36.114 54.7134 -36.222 54.5071 -36.2372C54.2261 -36.2583 54.4236 -36.047 54.2194 -36.0566C54.187 -36.0578 54.0629 -36.2432 54.0169 -36.2178C53.7851 -36.0885 53.4218 -35.7105 53.9565 -35.4376C54.2828 -35.7301 54.8214 -35.5812 55.0981 -35.9417C55.33 -35.3749 55.6303 -35.3251 56.0338 -35.2676ZM48.2764 -32.4287C48.5517 -32.2626 48.7109 -32.5136 48.7507 -32.7858C48.7509 -32.7859 48.751 -32.786 48.7512 -32.7861C48.7599 -32.846 48.6184 -33.2196 48.5167 -33.1314C48.3516 -32.9866 48.6092 -32.4221 48.2813 -32.7012C48.2828 -32.6087 48.2773 -32.5218 48.2764 -32.4287ZM47.8682 -32.194C47.8437 -31.9957 48.1536 -31.6493 48.2197 -31.8455C48.2199 -31.8452 48.2201 -31.8449 48.2203 -31.8446C48.2479 -31.9266 47.9302 -32.1508 48.3436 -31.9853C48.2232 -32.2514 48.117 -32.4957 48.0016 -32.754C47.9486 -32.7235 47.8985 -32.6984 47.8436 -32.6655C48.1458 -32.2993 47.8933 -32.3914 47.8682 -32.194ZM53.6303 -35.5357C53.3806 -35.8807 53.4536 -35.9251 53.4148 -36.2522C53.3068 -36.1651 53.1996 -36.0774 53.0925 -35.9907C53.2722 -35.839 53.4507 -35.6875 53.6303 -35.5357ZM56.3435 -37.3645C56.3436 -37.3646 56.3438 -37.3648 56.344 -37.3649C56.4191 -37.3332 56.4944 -37.3014 56.5684 -37.2702C56.51 -37.413 56.4518 -37.5552 56.3935 -37.698C56.608 -37.6657 56.8241 -37.6343 57.0387 -37.6007C56.7739 -37.9819 56.5652 -37.7599 56.2546 -37.9462C56.1266 -37.699 56.1743 -37.41 56.3728 -37.0705C56.363 -37.1681 56.3526 -37.2666 56.3435 -37.3645ZM26.3146 -12.9099C26.1897 -12.9717 26.0652 -13.034 25.9402 -13.0957C25.9559 -13.1869 25.9803 -13.2674 25.9906 -13.3662C26.4999 -13.0679 26.1896 -13.453 26.4012 -13.5902C27.0514 -14.0095 27.4682 -13.2235 27.1528 -14.6257C26.7786 -14.227 26.5562 -14.8225 25.9979 -14.9501C26.1729 -14.6388 26.9417 -14.2574 26.876 -13.9853C26.3383 -14.0125 25.8294 -14.0298 25.3488 -13.9301C25.3186 -13.984 25.2882 -14.038 25.258 -14.0919C25.3345 -14.1076 25.4107 -14.1228 25.4872 -14.1385C25.3255 -14.2129 25.166 -14.2873 25.0021 -14.3622C25.3144 -14.1461 24.9981 -14.144 25.2996 -13.8459C25.4338 -13.7132 25.6848 -13.5854 25.8497 -13.4905C25.792 -13.3111 25.7264 -13.1356 25.6669 -12.9579C25.8285 -12.8998 25.9902 -12.8415 26.1514 -12.783C26.2061 -12.8243 26.2598 -12.8664 26.3147 -12.9079C26.3147 -12.9085 26.3146 -12.9092 26.3146 -12.9099ZM0.85584 10.4195C1.31332 10.5597 1.60616 10.3303 1.36489 9.86327C1.19081 10.0547 1.02101 10.2396 0.85584 10.4195ZM56.5342 -36.7891C56.5138 -36.8643 56.4932 -36.9385 56.4728 -37.0138C56.3117 -37.0745 56.1507 -37.134 55.9896 -37.1945C56.089 -37.0028 56.188 -36.8108 56.2864 -36.6196C56.3689 -36.6757 56.4515 -36.733 56.5342 -36.7891ZM50.9431 -33.4235C51.012 -33.4539 51.0135 -33.4634 51.0734 -33.5402C51.0734 -33.54 51.0734 -33.5398 51.0734 -33.5396C51.0974 -33.5694 51.2833 -33.8442 51.1631 -33.963C51.0344 -33.8807 50.9006 -33.7881 50.7711 -33.7016C50.8277 -33.6085 50.887 -33.5181 50.9431 -33.4235ZM52.3915 -34.501C52.3915 -34.5015 52.3915 -34.5019 52.3914 -34.5023C52.4245 -34.5542 52.4407 -34.6262 52.4841 -34.666C52.166 -34.7684 52.3962 -34.3602 52.1654 -34.3662C51.9342 -34.3731 51.6941 -34.5234 51.915 -33.9014C52.0176 -33.8543 52.1468 -33.7753 52.2596 -33.716C52.3412 -34.0771 52.5348 -33.9161 52.8534 -33.8241C52.6991 -34.0502 52.5459 -34.2749 52.3915 -34.501ZM28.0423 -16.0861C28.2854 -15.8768 28.1294 -16.1515 28.1316 -16.1582C28.1313 -16.1584 28.131 -16.1586 28.1306 -16.1588C28.669 -16.2273 27.9719 -16.2547 28.2715 -16.5698C28.1713 -16.5892 28.0691 -16.6126 27.9688 -16.6331C27.9914 -16.4528 28.025 -16.2552 28.0423 -16.0861ZM39.5563 -25.2001C39.5047 -25.2766 39.4537 -25.3538 39.4021 -25.4304C39.2063 -25.2584 38.9364 -25.51 38.9615 -25.1166C39.16 -25.1437 39.3584 -25.1713 39.557 -25.1992C39.5568 -25.1995 39.5565 -25.1998 39.5563 -25.2001ZM50.2586 -32.1566C50.5882 -32.1664 50.8027 -32.2171 50.8705 -32.5991C50.8705 -32.5995 50.8705 -32.5999 50.8705 -32.6003C50.8738 -32.6232 50.7039 -32.7416 50.6936 -32.7932C50.7559 -32.8002 50.8283 -32.7954 50.8942 -32.798C50.8145 -32.9306 50.7345 -33.0629 50.6553 -33.1947C50.548 -33.0701 50.4409 -32.9456 50.3338 -32.8209C50.3028 -32.9089 50.2727 -32.9965 50.2417 -33.0846C50.104 -33.0481 49.9669 -33.0118 49.8295 -32.9754C50.0098 -32.7915 50.19 -32.6075 50.3702 -32.4224C50.3331 -32.3335 50.295 -32.2462 50.2586 -32.1566ZM36.7625 -21.8279C36.7371 -21.9352 36.5678 -22.0179 36.5708 -22.1294C36.5745 -22.2401 36.792 -22.1703 36.5949 -22.3771C36.4963 -22.3495 36.3906 -22.3236 36.2896 -22.2965C36.224 -22.8919 36.7544 -22.7141 36.3739 -23.2191C36.2344 -22.9062 35.993 -22.8169 35.657 -22.7794C35.973 -22.3891 36.4662 -22.2209 36.6097 -21.7368C36.6598 -21.7672 36.7142 -21.7969 36.7613 -21.8284C36.7617 -21.8282 36.7621 -21.8281 36.7625 -21.8279ZM63.3597 -33.65C63.4866 -33.7739 63.9325 -33.8093 63.9661 -34.1738C63.9741 -34.2635 63.6372 -35.1527 63.5719 -35.2569C63.3496 -35.6067 63.131 -35.5381 63.1913 -35.8927C63.1218 -35.8531 63.0476 -35.8255 62.9762 -35.7902C62.8418 -36.0344 62.7077 -36.2781 62.5733 -36.5213C62.6777 -36.5365 62.7824 -36.5516 62.8874 -36.5661C62.8431 -36.647 62.7985 -36.7282 62.7542 -36.8091C62.4564 -36.6276 62.4445 -37.0384 62.1162 -37.2253C62.1697 -37.4554 62.2253 -37.6857 62.2795 -37.9159C62.2082 -37.8479 62.1195 -37.7754 62.0601 -37.7103C61.8023 -38.106 62.0339 -38.1166 62.0175 -38.2093C61.9241 -38.7328 61.2083 -37.9976 60.7778 -38.5388C60.8724 -38.6873 60.975 -38.8384 61.0739 -38.9881C60.9896 -39.0357 60.9047 -39.0829 60.8204 -39.1304C60.7557 -38.5331 60.4943 -38.1734 60.2893 -37.6978C60.2464 -37.694 60.203 -37.6907 60.1611 -37.6864C60.0577 -37.8732 59.9543 -38.059 59.8509 -38.2458C59.7883 -38.2364 59.7252 -38.2264 59.6626 -38.217C60.1799 -37.7122 59.9734 -37.5947 59.9598 -37.0808C60.219 -36.9519 60.2982 -37.1777 60.5309 -36.7811C59.9022 -36.8055 59.656 -36.0606 59.0207 -36.1318C58.8632 -36.1491 58.5463 -36.6505 58.3292 -36.4484C58.3725 -36.3987 58.4369 -36.3002 58.4882 -36.2312C57.9153 -36.2047 57.5524 -36.1752 57.2569 -35.6429C57.1682 -35.8392 57.0786 -36.036 56.99 -36.2323C57.1433 -36.2043 57.2978 -36.1749 57.4508 -36.1464C57.3273 -36.4851 57.1464 -36.5542 57.4372 -36.7347C57.6745 -36.8821 57.6169 -36.6614 57.7362 -36.6136C57.8969 -36.5469 57.8208 -36.8304 57.997 -36.7536C58.1327 -36.6951 58.2121 -36.4016 58.3561 -36.5799C58.081 -36.851 57.7977 -37.1315 57.5192 -37.406C57.5198 -37.306 57.5215 -37.2052 57.5227 -37.1045C57.6218 -37.0483 57.7195 -36.9927 57.8186 -36.9364C57.5628 -36.9882 57.3209 -37.0364 57.0489 -37.0853C57.3963 -36.6616 57.1113 -36.722 56.9818 -36.7157C56.7798 -36.706 57.1079 -36.4713 56.9774 -36.4621C56.8465 -36.4538 56.5167 -36.7394 56.3903 -36.5524C56.6144 -36.4084 56.6043 -36.1442 56.7494 -35.9717C56.8946 -35.7993 57.1053 -35.8753 57.06 -35.5568C56.6203 -35.4955 56.5298 -36.448 56.2256 -36.417C55.8599 -36.3795 56.5455 -35.1709 56.7883 -34.9724C56.9793 -34.8162 57.1752 -34.9979 57.3664 -34.8426C57.1976 -34.2336 56.7448 -34.9322 56.5887 -35.0257C56.0219 -35.3665 57.044 -34.1414 56.4441 -34.4362C56.61 -34.1909 56.7588 -33.97 56.9182 -33.7349C56.8391 -33.7482 56.7671 -33.7872 56.6837 -33.7843C56.5483 -34.3835 56.4164 -34.269 56.3413 -34.2216C56.2228 -34.1473 56.2516 -34.5008 56.1811 -34.5417C55.9915 -34.6508 55.9067 -34.4909 55.8501 -34.7569C55.8777 -34.634 55.9026 -34.5088 55.9289 -34.3861C55.712 -34.4214 54.7172 -35.2493 55.1599 -35.2387C54.8815 -35.6054 54.9021 -35.3559 54.8628 -35.2471C54.8234 -35.1384 54.6656 -35.3846 54.6271 -35.2952C54.4749 -34.9386 54.9244 -34.6342 55.1807 -34.3331C54.6783 -34.3286 54.9279 -34.7044 54.3184 -34.5229C54.0943 -34.7581 54.1443 -35.1976 53.8467 -35.2237C54.1136 -34.7352 54.188 -34.3079 54.0075 -33.9693C53.9094 -34.0576 53.8108 -34.1469 53.7126 -34.2351C53.8355 -33.7031 54.2088 -33.3111 53.5683 -33.6503C54.3671 -32.7766 53.8481 -33.3305 53.8503 -32.7622C53.8505 -32.6475 54.1055 -32.5251 54.0997 -32.3741C54.097 -32.3059 53.9154 -32.4055 53.9121 -32.234C53.9109 -32.1496 53.9748 -31.6517 53.7292 -31.7459C53.5104 -32.2801 53.0012 -32.5208 52.9513 -33.0495C52.629 -32.6978 52.211 -32.7465 53.0681 -32.3885C53.0653 -32.181 53.0623 -31.9743 53.0596 -31.7679C52.9172 -31.8355 52.7748 -31.9017 52.6324 -31.968C52.8802 -31.5739 52.9626 -31.472 52.6522 -31.3636C52.828 -31.3488 53.0046 -31.3322 53.1817 -31.3169C53.2377 -31.2413 53.3079 -31.1707 53.3546 -31.0922C53.1136 -31.1468 52.6735 -30.9458 52.5088 -30.9846C52.3439 -31.0233 52.5105 -31.1755 52.4161 -31.2569C51.6345 -31.9261 52.0591 -31.331 51.7995 -31.3617C51.6465 -31.3803 51.8171 -31.6261 51.7414 -31.6269C51.4615 -31.6284 51.666 -31.1316 51.5004 -31.0121C51.3937 -31.3006 51.2842 -31.5926 51.175 -31.8827C51.0051 -31.7496 50.8082 -31.6139 50.5896 -31.5821C50.5039 -31.5695 50.4284 -31.7867 50.4095 -31.7919C50.3171 -31.8218 50.0252 -31.7705 50.002 -31.756C49.8252 -31.6385 49.9929 -31.3803 49.8323 -31.251C49.9137 -31.2747 49.9897 -31.2979 50.0692 -31.3213C50.379 -30.9283 50.6893 -30.5356 50.9994 -30.1416C50.8534 -29.999 50.7075 -29.8571 50.5622 -29.7145C50.5896 -29.9346 50.6183 -30.1546 50.6466 -30.3751C50.2298 -30.5798 49.8124 -30.7849 49.3949 -30.9897C49.4356 -30.7177 49.477 -30.4462 49.5186 -30.1746C49.2153 -30.0466 48.7007 -30.9128 49.0723 -30.0998C48.9519 -30.1076 48.8315 -30.1153 48.7117 -30.1223C48.7941 -30.0264 48.8764 -29.9301 48.9587 -29.8341C48.8208 -29.8333 48.6833 -29.8321 48.5451 -29.832C48.3914 -30.2665 48.2233 -30.7192 48.0773 -31.143C47.8363 -31.095 48.0468 -30.7815 48.0725 -30.6848C48.1406 -30.4288 47.8044 -30.6061 47.8774 -30.3759C47.9028 -30.2972 48.2249 -30.2171 48.3252 -29.938C48.3442 -29.8837 48.7012 -28.8499 48.41 -28.9444C48.3043 -29.1035 48.183 -29.3042 48.0711 -29.4794C47.7984 -29.432 48.2615 -28.5404 48.4479 -28.3296C48.2272 -28.4148 48.0587 -28.3177 47.862 -28.5531C47.8021 -28.5205 47.7429 -28.488 47.6831 -28.4555C48.1665 -27.8855 47.8553 -27.8348 47.4722 -28.3476C47.5631 -28.4302 47.6481 -28.5096 47.7348 -28.5891C47.2126 -29.181 47.2427 -29.7789 47.0381 -28.7514C47.1521 -28.3336 47.2186 -28.9449 47.296 -28.6265C47.2286 -28.3629 46.9853 -28.3745 46.9886 -28.0302C46.994 -27.6009 47.433 -27.492 46.7136 -27.5391C47.0819 -29.1785 46.1321 -28.0664 45.4576 -28.0191C45.9721 -27.0143 45.7798 -26.4452 45.0467 -26.3309C44.9222 -26.6242 45.1857 -26.6151 45.2248 -26.7685C45.2639 -26.922 45.0502 -26.9966 45.089 -27.2023C45.1278 -27.408 45.2761 -27.7551 45.2751 -28.0234C45.0666 -28.0918 44.3021 -28.0599 44.9377 -27.8976C44.8576 -27.4631 44.9206 -27.1193 44.6375 -26.8466C44.2608 -27.1739 44.0916 -27.4245 43.7756 -27.2156C44.3499 -26.7975 44.2742 -26.1671 44.7571 -25.6561C44.8791 -25.943 44.3637 -26.4066 44.3009 -26.7602C44.295 -26.7957 44.5971 -26.803 44.6375 -26.8466C44.7853 -26.205 44.8472 -25.9709 45.3936 -25.4719C45.2124 -25.4203 45.176 -25.2825 44.9615 -25.5539C45.0188 -25.4106 45.0761 -25.2671 45.134 -25.1242C45.0855 -25.0939 45.0344 -25.0744 44.9845 -25.0352C44.7512 -25.5093 44.8013 -25.1504 44.5661 -25.2724C44.3308 -25.3945 44.2208 -25.8223 43.9505 -25.6346C43.968 -25.7976 43.9884 -25.9412 44.0074 -26.0971C43.7562 -26.0817 43.5044 -26.0667 43.254 -26.0513C43.1879 -26.3964 43.1746 -26.9697 42.9227 -27.3047C42.9351 -27.1188 42.4996 -27.1476 42.4631 -27.1353C42.3226 -27.0867 42.5404 -26.918 42.5355 -26.9064C42.4297 -26.6716 42.2286 -26.6369 42.3955 -26.2634C42.1544 -26.3116 42.1132 -26.1545 41.9648 -26.0591C41.8832 -26.0066 41.7252 -26.2553 41.7122 -26.1768C41.6277 -25.6541 42.1409 -25.5586 41.13 -25.7154C41.0793 -25.9323 41.0251 -26.1524 40.9739 -26.371C40.8621 -26.385 40.7505 -26.3997 40.6388 -26.4136C40.6167 -26.3512 40.5951 -26.2889 40.5732 -26.2266C40.837 -25.8692 41.1017 -25.5113 41.3655 -25.1539C41.3318 -25.0992 41.2975 -25.0448 41.2639 -24.9901C41.3721 -25.0153 41.4806 -25.0406 41.589 -25.0658C41.6428 -25.0083 41.6961 -24.9504 41.7499 -24.8929C41.6989 -24.7055 41.6495 -24.5177 41.6001 -24.3299C41.5062 -24.4527 41.4116 -24.5763 41.3177 -24.699C41.1699 -24.3232 41.2451 -24.2161 40.7277 -24.363C40.5234 -24.2062 39.9706 -24.6005 39.6889 -24.7301C39.6978 -24.6288 39.7074 -24.5267 39.716 -24.4251C39.6119 -24.5079 39.5078 -24.59 39.4037 -24.6727C39.4564 -24.489 39.5085 -24.3048 39.561 -24.1221C39.2883 -24.4249 39.1964 -24.5147 39.3227 -24.7863C38.9483 -25.137 38.7097 -24.6812 38.6616 -24.4332C38.6249 -24.2451 39.0038 -24.0028 39.0202 -23.9511C39.0771 -23.7764 38.8001 -23.7563 38.7783 -23.7038C38.6849 -23.4834 38.5567 -23.4133 38.4643 -23.2269C38.4466 -23.1902 38.5267 -22.9165 38.525 -22.9047C38.4992 -22.828 38.4465 -22.6255 38.4339 -22.6113C37.7883 -21.872 37.9081 -23.4163 37.2668 -22.7757C37.1962 -22.9138 37.1248 -23.05 37.0536 -23.1877C36.9925 -23.1529 36.9307 -23.1169 36.8695 -23.082C36.8765 -22.9268 37.1025 -22.8074 36.8491 -22.8495C36.9725 -22.707 37.0959 -22.5644 37.2191 -22.4229C37.0968 -22.4573 36.9773 -22.4927 36.8536 -22.526C37.1528 -21.9331 36.8914 -21.5456 37.3838 -20.9574C37.5512 -20.7572 37.9624 -20.7353 38.0008 -20.4138C37.9278 -20.2887 37.8101 -20.591 37.7567 -20.5706C37.3741 -20.42 37.6593 -20.0883 37.4609 -20.0825C37.3266 -20.2152 37.1889 -20.3499 37.0529 -20.4836C37.0385 -20.4032 37.024 -20.3226 37.0093 -20.2418C36.9213 -20.3327 36.8326 -20.4232 36.7445 -20.514C36.7845 -20.5555 36.8301 -20.6015 36.8665 -20.6402C36.5104 -20.9809 35.8467 -20.7434 36.3031 -20.5718C36.4884 -20.5022 36.5951 -20.6752 36.8524 -20.1468C36.6602 -20.1029 36.4484 -20.0458 36.2498 -19.9964C36.3212 -19.895 36.3932 -19.7938 36.4647 -19.6925C36.2168 -19.6012 36.093 -20.1324 35.9297 -20.3417C35.8795 -20.3121 35.8295 -20.2814 35.7794 -20.2518C35.8339 -20.1421 35.8928 -20.0288 35.9442 -19.9214C35.8249 -20.0706 35.5262 -20.4007 35.4924 -20.1652C35.4717 -20.0129 35.905 -19.7399 35.6987 -19.6635C35.5274 -19.9078 35.3634 -20.2404 35.1201 -20.1719C35.2937 -19.9128 35.4442 -19.6688 35.6318 -19.4006C35.2203 -19.4577 35.4033 -18.9908 34.9147 -19.0481C34.6043 -19.0833 33.881 -19.506 34.5168 -18.4758C34.4103 -18.351 34.2641 -18.6171 34.1849 -18.6402C33.8104 -18.7496 34.0353 -18.1999 34.0238 -18.1478C33.9503 -17.8143 33.7345 -17.8944 33.7351 -17.5501C33.6049 -17.7311 33.478 -17.8994 33.3496 -18.0746C33.7122 -17.9378 33.7802 -18.0122 33.9529 -18.2416C33.8521 -18.2184 33.7507 -18.196 33.65 -18.1728C33.5491 -18.3234 33.4481 -18.4739 33.3473 -18.6235C34.4654 -18.6044 33.608 -19.3592 32.8879 -19.0993C33.048 -18.7993 33.206 -18.4988 33.3677 -18.1988C32.7268 -18.3347 32.8506 -17.87 32.5552 -17.4964C32.5182 -17.451 32.2349 -17.4695 32.1594 -17.4206C32.1598 -17.4225 32.1601 -17.4245 32.1605 -17.4264C31.9183 -17.6365 31.8854 -17.7968 31.7147 -18.0217C31.6546 -18.0186 31.5946 -18.0153 31.5346 -18.0122C31.586 -17.7769 31.7269 -17.6637 31.5295 -17.5694C31.4166 -17.7536 31.3033 -17.9376 31.1905 -18.1219C31.0044 -17.9803 31.0335 -17.7038 30.8026 -17.6452C30.882 -17.6054 30.9612 -17.5651 31.0405 -17.5253C30.808 -17.0684 31.8945 -16.33 31.2244 -16.5916C31.2768 -16.4924 31.3303 -16.3929 31.3827 -16.2938C31.5117 -16.3646 31.6406 -16.4362 31.7699 -16.5069C31.8705 -16.3884 31.971 -16.2705 32.0712 -16.1516C31.9215 -16.0896 31.7707 -16.0282 31.6218 -15.9664C31.7751 -15.9572 31.9292 -15.9483 32.0828 -15.9391C31.9909 -15.7678 31.8998 -15.5968 31.8095 -15.4262C31.5929 -15.9881 31.3586 -15.8862 31.0347 -16.3528C31.089 -15.7875 31.2942 -15.1518 30.6679 -15.1493C30.5436 -15.1492 30.3303 -15.4864 30.4295 -14.9428C30.0802 -15.4712 29.6187 -15.4714 29.2701 -15.9602C29.3638 -16.0007 29.4569 -16.0546 29.5488 -16.0849C29.6009 -15.8582 29.9534 -15.4083 30.1838 -15.3793C30.4776 -15.3425 30.4539 -15.8369 30.849 -15.3407C30.8926 -15.4154 30.9396 -15.4771 30.9846 -15.5468C30.8593 -15.6473 30.7339 -15.749 30.6089 -15.8499C30.9398 -15.8032 30.9982 -15.9552 30.8303 -16.3306C30.5636 -16.2294 30.299 -16.128 30.0351 -16.0267C30.0482 -16.0726 30.0617 -16.1191 30.0756 -16.1643C29.6606 -16.3467 29.5768 -16.7757 29.2296 -16.6003C29.3499 -16.4593 29.4699 -16.3179 29.5907 -16.1762C29.1721 -16.4728 28.8687 -16.2165 28.6004 -16.7349C28.6217 -16.5247 28.6743 -16.4244 28.4259 -16.6172C28.4644 -16.0851 28.6656 -15.5389 29.1697 -15.1083C29.0145 -15.1156 28.8592 -15.1228 28.7047 -15.1304C28.64 -15.3096 28.5762 -15.4883 28.5119 -15.6678C28.3664 -15.5312 28.2205 -15.394 28.0764 -15.2591C28.403 -14.8427 28.4713 -15.3819 28.6877 -14.946C28.7312 -14.8586 28.5188 -14.9455 28.5319 -14.8866C28.6801 -14.2551 28.7636 -14.872 28.983 -14.4773C28.737 -14.0908 29.4829 -13.749 28.6229 -13.8388C28.7096 -13.7121 28.7975 -13.5824 28.8846 -13.4572C28.733 -13.3166 28.5224 -13.5903 28.3451 -13.5251C28.2341 -13.4839 28.5217 -12.9332 28.1612 -13.1678C28.0953 -13.2114 27.7703 -13.9077 27.4635 -13.6025C27.2195 -13.3604 27.6675 -13.0552 27.6469 -12.7933C27.626 -12.5312 26.8294 -12.8022 27.2734 -12.0988C27.2753 -12.2444 27.3305 -12.3697 27.354 -12.5079C27.4919 -12.4154 27.6278 -12.3233 27.7646 -12.2309C27.4423 -12.2263 27.4097 -11.876 27.035 -12.0566C27.1707 -11.4016 26.5426 -11.5729 26.1828 -12.1341C26.3261 -12.1328 26.4271 -11.8395 26.4189 -12.0753C26.3295 -12.2012 26.2412 -12.3271 26.1519 -12.453C25.9723 -12.2722 25.8377 -12.1603 26.2326 -11.8831C26.2104 -11.8489 26.1885 -11.8151 26.1665 -11.7809C25.9381 -12.0316 25.7094 -12.2837 25.481 -12.5343C25.4205 -12.5322 25.3601 -12.5297 25.2998 -12.5277C25.3096 -12.4374 25.3201 -12.3464 25.3303 -12.2551C25.7373 -11.8984 25.8382 -11.9634 25.7386 -11.4772C25.6154 -11.6157 25.4923 -11.7533 25.3691 -11.8917C25.2751 -11.4955 25.5697 -11.1569 25.2356 -10.8842C25.9095 -10.6209 25.2853 -11.5908 26.1374 -10.6212C26.1409 -10.7372 26.1444 -10.8545 26.1483 -10.9708C26.281 -10.8381 26.4137 -10.7052 26.546 -10.5721C26.1702 -10.3743 24.7905 -10.7975 25.1179 -9.99561C25.0252 -10.0465 24.941 -10.0875 24.8429 -10.1435C24.9575 -9.58566 24.1279 -10.3278 24.3385 -9.66102C24.3613 -9.59158 25.1008 -8.8591 24.8 -8.63878C24.7165 -8.7453 24.5679 -8.91746 24.4595 -9.04909C24.4551 -8.93368 24.4538 -8.81581 24.4515 -8.69965C24.3572 -8.78262 24.2624 -8.86504 24.1675 -8.94865C24.2366 -9.07624 24.3053 -9.2044 24.3754 -9.33249C24.2616 -9.28783 24.1475 -9.24279 24.0342 -9.19829C24.008 -9.44923 24.0569 -9.49607 23.7712 -9.67853C23.6618 -9.60633 23.5518 -9.53504 23.4431 -9.46311C23.377 -9.51629 23.3104 -9.57024 23.2444 -9.62339C23.1232 -9.85032 23.0065 -10.0738 22.8833 -10.3039C22.7719 -9.92859 22.5541 -9.71598 22.687 -9.17329C22.7094 -9.08149 23.0469 -8.94916 22.6211 -8.95785C22.7337 -8.82748 22.8219 -8.71864 22.9254 -8.59749C22.322 -8.69992 22.3275 -8.50966 22.2784 -7.99109C22.2429 -8.40014 22.2212 -8.09298 22.0562 -8.17776C21.9426 -8.2363 22.0805 -8.33913 21.9811 -8.41849C21.8824 -8.49724 21.3768 -8.71672 21.476 -8.89046C22.52 -8.4471 21.7785 -9.44309 22.5655 -9.48819C22.4061 -9.52333 22.2462 -9.55819 22.0869 -9.59325C22.0588 -9.68973 22.0329 -9.77695 22.0038 -9.88011C21.888 -9.50111 21.9221 -9.7099 21.7114 -9.73309C21.5006 -9.75627 21.2221 -9.68472 21.068 -9.60255C21.0195 -9.57664 21.2176 -9.44409 21.144 -9.34705C21.094 -9.28086 20.6973 -9.38234 20.9345 -9.05024C21.0891 -8.83423 21.8418 -8.54141 21.4808 -8.21036C21.5888 -7.9583 21.7063 -8.17622 21.7312 -8.15684C21.971 -7.95988 21.9076 -7.58676 21.6471 -7.66518C21.6251 -7.67239 21.5422 -7.92219 21.3913 -7.91038C21.0306 -7.88208 21.1055 -7.57641 21.2184 -7.17355C20.9062 -7.4784 20.3705 -7.69071 20.2597 -7.3657C20.163 -7.446 20.066 -7.5276 19.9686 -7.60855C20.0482 -7.59268 20.1272 -7.57744 20.2068 -7.56156C20.1907 -7.65378 20.1916 -7.73265 20.1654 -7.83439C19.8685 -7.70323 19.4259 -8.11151 19.1683 -8.17103C18.2885 -8.37382 19.5999 -7.42718 19.8527 -7.28915C19.8237 -7.41417 19.7846 -7.54723 19.7518 -7.67615C19.8506 -7.56067 19.9502 -7.44431 20.0501 -7.32858C19.505 -6.82162 20.6431 -6.53351 20.564 -6.07094C19.981 -6.54774 19.7305 -6.40998 19.8069 -5.82832C19.7765 -5.80461 19.7481 -5.77883 19.7172 -5.75583C19.6374 -5.83025 19.5226 -5.95077 19.4655 -5.99551C19.0769 -5.79993 19.8204 -4.91877 19.8655 -4.81112C20.0699 -4.33759 19.5059 -4.723 19.4636 -4.69027C19.2869 -4.55244 19.4468 -4.29416 19.2069 -4.23966C18.9487 -4.18156 18.9011 -4.45259 18.7097 -4.55119C18.5573 -4.62904 18.4093 -4.5257 18.2396 -4.59491C18.3563 -4.51682 18.4734 -4.44287 18.5903 -4.36428C18.5533 -4.06748 18.545 -3.80476 18.3901 -3.58953C17.4757 -4.10062 18.4862 -2.7173 17.5946 -3.76824C17.7044 -4.00788 17.6941 -4.21683 17.5446 -4.56041C17.3962 -4.47798 17.2492 -4.39492 17.102 -4.31308C17.1739 -4.17228 17.2533 -4.04416 17.321 -3.89526C17.0058 -4.03465 16.8941 -3.73146 16.7471 -3.71813C16.0582 -3.65595 15.788 -4.15767 16.0951 -3.16738C16.404 -3.34894 16.7181 -3.03225 16.9208 -3.31978C17.0918 -3.04081 16.9209 -2.96419 17.2706 -2.77314C16.9677 -2.60503 16.8039 -2.92272 16.4983 -3.0457C16.2348 -3.15162 16.0658 -3.00356 15.835 -3.25228C15.9506 -3.10425 16.0657 -2.96415 16.1814 -2.81644C16.0287 -2.66648 15.8785 -2.51602 15.7284 -2.3675C15.93 -2.29425 16.1318 -2.22066 16.3328 -2.14794C16.3368 -2.04776 16.3406 -1.94783 16.345 -1.84792C15.5492 -1.90729 15.6851 -0.461653 14.7051 -1.63417C14.491 -1.48494 14.6054 -1.32891 14.7149 -1.0292C14.6216 -1.09893 14.5425 -1.15538 14.4399 -1.23419C14.4122 -1.03273 14.0141 -1.24526 13.9951 -1.06389C13.9755 -0.883249 14.2454 -0.573257 13.7363 -1.037C13.8133 -0.832757 13.87 -0.655428 13.9338 -0.457446C13.7811 -0.524449 13.6298 -0.590203 13.4782 -0.656912C13.4745 -0.535076 13.4708 -0.413566 13.4678 -0.292211C13.1974 -0.485095 13.0564 -0.133656 12.7911 -0.175286C12.9467 0.174593 13.7559 0.941494 13.3786 1.04806C13.1841 0.851268 12.9901 0.655099 12.7957 0.458249C12.7841 0.554216 12.7724 0.650001 12.7609 0.746038C12.8232 0.811496 12.886 0.876509 12.9483 0.941954C12.9551 0.894209 12.9617 0.846906 12.9679 0.798429C13.0552 0.928408 13.1425 1.0573 13.2303 1.18669C12.9853 1.11603 12.7404 1.04549 12.4953 0.975288C12.4793 0.742829 12.4643 0.509405 12.4505 0.275251C12.1646 0.281331 12.2161 0.521504 11.9327 0.491753C12.1051 0.865374 12.3037 0.975485 12.6486 1.21376C12.5836 1.2311 12.5175 1.25133 12.4519 1.26936C12.7787 1.52691 12.8961 1.76202 13.0976 1.50001C13.1682 1.5974 13.2345 1.69129 13.309 1.79137C13.2598 1.81633 13.3062 1.9127 13.2314 1.92556C13.0264 1.96099 12.4089 1.55504 12.2306 1.37208C12.1374 1.27609 12.4363 1.33152 12.2942 1.20677C11.9477 0.902533 11.838 1.32064 11.8764 0.605029C11.5378 0.536333 11.6709 0.717759 11.5963 0.920874C11.495 0.80442 11.3941 0.688921 11.2924 0.572839C11.2806 0.688749 11.2688 0.804314 11.2577 0.919696C11.9197 1.36681 11.6777 2.05877 12.5944 2.08964C12.4979 2.24422 12.4031 2.3977 12.3105 2.55154C12.3945 2.58031 12.4779 2.60852 12.5618 2.63729C12.5848 2.54997 12.6081 2.4633 12.6322 2.37624C12.676 2.5461 12.7195 2.7151 12.7642 2.88423C12.4797 2.9201 12.2148 2.79061 11.8912 2.62706C11.8789 2.26707 12.0764 2.56453 12.2632 2.46535C12.097 2.32007 11.9549 2.17494 11.7734 2.02977C12.0366 2.41737 11.5647 2.43664 11.4958 2.47814C11.286 2.60456 11.7408 2.77441 11.6412 2.89581C11.5444 3.01407 11.2138 2.97819 11.4516 3.37725C11.2696 3.20653 11.0868 3.02386 10.9261 2.86293C10.6932 2.99487 10.9451 3.15664 10.9554 3.20185C11.1361 3.93327 10.5945 3.73999 10.2343 4.04064C10.2166 3.94514 10.2051 3.8541 10.1916 3.76101C9.5635 3.66423 9.8413 3.59951 9.91917 3.25423C9.76421 3.50297 9.32057 3.32036 9.08631 3.3791C8.84975 3.44063 8.77709 3.86715 8.82581 4.08318C9.23939 4.05801 9.32196 3.68082 9.59159 3.50314C9.75536 3.70095 9.891 3.87163 10.0729 4.08687C9.54884 3.8704 9.7331 4.1986 9.74095 4.29547C9.76374 4.57993 9.4278 4.26869 9.71511 4.68567C9.59235 4.56876 9.48879 4.47084 9.37436 4.36139C9.15719 4.70801 9.09871 5.22268 8.46327 4.99505C8.75179 5.28303 9.03305 5.5568 9.32575 5.85271C8.98864 5.77048 9.12942 6.08433 8.97889 6.14602C8.83014 6.20562 8.61997 5.94683 8.41378 5.98855C8.37575 5.99637 8.48726 6.18101 8.32321 6.13735C8.15803 6.09367 7.12022 5.55462 7.84258 6.23452C7.75279 6.34351 7.69248 6.46699 7.61525 6.58039C7.74481 6.5175 7.87375 6.45283 8.00424 6.38923C8.10887 6.63398 8.21418 6.877 8.32031 7.12029C8.14976 6.98983 7.97625 6.85687 7.80814 6.72786C7.41466 6.78079 7.52338 7.18847 7.25244 7.37309C7.20718 7.40376 6.9695 7.03173 6.89699 7.27933C6.82514 7.52645 7.30903 8.17472 6.82563 8.26648C6.79957 8.27239 6.27268 7.95592 6.49175 8.34349C6.54194 8.4307 6.73978 8.41677 6.78436 8.55601C6.82844 8.69581 6.68634 9.01761 6.89492 9.23081C6.8175 9.15946 6.74848 9.07254 6.67393 8.99499C6.59855 9.00542 6.5229 9.01613 6.4481 9.02735C6.58514 9.15224 6.72211 9.27763 6.85845 9.40191C6.31881 9.36777 5.68073 9.03077 5.54711 9.54424C5.43551 9.26083 5.31026 8.99177 5.19334 8.71474C5.36056 8.81025 5.52882 8.90651 5.69573 9.0024C5.78078 8.78763 5.86898 8.5703 5.95879 8.35061C6.146 8.46299 6.33234 8.57545 6.51958 8.68781C6.53753 8.62425 6.55591 8.56152 6.5742 8.49761C6.44657 8.40741 6.31947 8.31786 6.19144 8.22813C6.29855 8.16251 6.40693 8.09678 6.50806 8.03827C5.66518 7.60899 6.12923 8.59635 5.57007 8.06876C5.6257 8.18673 5.68208 8.30512 5.73876 8.42335C5.44142 8.19792 5.4524 8.34939 5.37545 8.52891C5.26403 8.37703 5.15756 8.22324 5.04269 8.07254C5.11975 8.37993 4.8933 8.60503 4.85034 8.80828C4.82936 8.89999 5.08915 9.01181 5.09688 9.05156C5.13719 9.25925 4.61843 9.1407 4.6135 9.20376C4.58259 9.58084 5.13468 10.3096 4.4779 10.172C4.58366 9.82461 4.51276 10.002 4.34152 9.69918C4.28776 9.60431 4.40894 9.13352 4.12638 9.61016C4.10064 9.6585 3.90985 10.8319 4.48642 10.8851C4.26462 10.9124 4.04921 10.8959 3.83163 10.9038C4.54636 11.9856 3.73725 11.1303 3.31427 10.6332C3.27412 10.6758 3.23314 10.7136 3.19438 10.7589C3.79521 11.0984 3.39452 11.6312 2.98517 11.5827C2.84963 11.5661 2.82306 11.2644 2.63133 11.3303C2.6132 11.4242 2.5989 11.5351 2.58285 11.6351C2.33965 11.2609 2.05458 11.3388 1.72701 11.0512C1.92032 11.4217 2.46691 12.0481 2.85971 12.2761C2.64289 12.2506 2.40923 12.2447 2.18579 12.225C2.14859 12.1102 2.11277 11.9951 2.07593 11.8797C1.98788 12.3999 1.17628 12.3789 1.79807 13.0575C1.75381 13.0977 1.71007 13.1386 1.66636 13.178C1.53871 13.0888 1.41134 12.9989 1.28389 12.9095C1.20926 13.1951 1.14525 13.468 1.07367 13.7451C1.29762 13.642 1.49303 13.754 1.52096 13.4555C1.59156 13.6431 1.6619 13.8322 1.73382 14.0178C1.14711 13.9511 0.858944 13.8028 0.602164 14.2828C0.597002 14.2988 0.591545 14.8834 0.607575 14.9218C0.688446 15.0947 0.945543 15.2035 0.989194 15.2881C1.11266 15.5264 1.20153 16.3341 1.27375 16.3958C2.18129 17.1773 3.48264 15.8353 3.79798 15.5576C7.41919 12.3926 9.54452 8.48388 12.7071 5.26665C12.7401 5.23395 12.8546 5.3662 12.8735 5.35666C12.9885 5.29568 12.8711 5.02317 12.8939 4.98183C12.9432 4.89413 13.091 5.10315 13.1396 5.05056C13.6425 4.50013 13.9782 3.92336 14.5234 3.40664C14.5586 3.37331 14.3788 3.27213 14.463 3.23439C14.5065 3.21649 14.8282 3.32317 14.895 3.25926C15.1338 3.02975 15.2559 2.75825 15.5059 2.50318C15.6428 2.36391 15.8284 2.13256 15.986 1.97558C16.0555 1.90622 16.228 1.92989 16.2991 1.86298C16.4001 1.76788 16.1756 1.59022 16.1771 1.5632C16.1836 1.44529 16.417 1.65376 16.4708 1.58761C16.5702 1.46365 16.4262 1.31223 16.5799 1.17954C16.69 1.08501 17.0408 0.961652 17.2051 0.863349C17.3312 0.388459 17.8041 0.0467454 18.1312 -0.168236C18.3303 -0.300913 18.139 -0.522911 18.2077 -0.590409C18.452 -0.826934 18.8999 -0.74612 19.1385 -0.965627C19.4548 -1.25697 19.5605 -1.70736 19.8348 -2.00065C19.8802 -2.04892 20.0567 -1.84691 20.1079 -1.88738C20.2973 -2.03737 20.5533 -2.21842 20.6828 -2.39708C20.8275 -2.59572 20.622 -2.9377 20.8496 -3.04716C20.9166 -3.07907 21.168 -2.84792 21.2834 -2.89817C21.4663 -2.97862 21.4114 -3.34218 21.4774 -3.45168C21.5725 -3.60443 21.7027 -3.24865 21.8408 -3.44479C21.8465 -3.45292 21.7006 -3.65683 21.7455 -3.68328C21.8759 -3.76106 21.9998 -3.60926 22.1445 -3.77235C22.1577 -3.78843 22.205 -4.15904 22.2255 -4.17972C22.3461 -4.29899 22.54 -4.59543 22.6488 -4.62857C23.0368 -4.74747 23.0826 -4.27854 22.7551 -5.08216C22.9909 -5.03116 23.2278 -4.97736 23.4661 -4.93597C23.2752 -5.00389 23.3764 -5.45249 23.4077 -5.45855C23.6621 -5.51044 23.7796 -5.18941 23.9507 -5.41899C23.1821 -5.70006 24.1541 -5.73526 24.2894 -5.83396C24.9349 -6.3053 25.3726 -6.94899 25.9576 -7.46879C26.1572 -7.64574 26.5279 -7.77103 26.739 -7.96406C26.7887 -8.00858 26.6363 -8.1037 26.6777 -8.14557C26.7198 -8.18647 26.8 -7.99875 26.8432 -8.0509C27.1085 -8.37672 27.1188 -8.87329 27.705 -8.78134C27.675 -8.84282 27.6401 -8.88155 27.6147 -8.95576C28.1127 -8.84962 28.1957 -9.65245 28.3165 -9.85729C28.5046 -10.1764 28.7543 -10.027 28.9122 -10.2373C29.1203 -10.5159 29.1607 -11.2621 29.5669 -10.4361C29.7639 -10.5685 29.9416 -10.7106 30.0607 -10.9212C30.0741 -10.945 29.9135 -11.1058 29.9182 -11.116C29.9466 -11.1829 30.0945 -11.0425 30.1339 -11.0639C30.241 -11.1222 29.9351 -11.1806 30.1087 -11.2394C30.2008 -11.2701 30.3541 -11.1684 30.5474 -11.3276C31.7219 -12.299 32.9462 -13.3983 34.1492 -14.4142C34.2324 -14.4841 34.315 -14.269 34.412 -14.3657C34.7579 -14.7093 35.1591 -15.5053 35.5072 -15.7189C35.8525 -15.9303 35.9817 -15.6234 36.2623 -15.6754C36.3167 -15.6853 36.1717 -15.8033 36.2045 -15.833C36.4261 -16.0306 36.5284 -16.4748 36.6931 -16.6592C36.8017 -16.7814 36.9695 -16.548 37.07 -16.601C37.2193 -16.6806 37.1753 -17.015 37.24 -17.0776C37.5347 -17.3606 37.8981 -17.3477 38.1265 -17.6763C38.1535 -17.6172 38.1817 -17.565 38.21 -17.5081C38.5604 -17.7935 38.914 -18.0798 39.2716 -18.3675C39.2896 -18.3086 39.3086 -18.2497 39.3272 -18.19C39.7347 -18.543 39.3062 -19.0026 40.0725 -17.925C40.1319 -17.9118 40.1978 -17.8943 40.2536 -17.883C39.8266 -18.4136 39.7858 -19.0099 40.0117 -19.3995C40.0275 -19.4279 40.588 -19.0202 40.0961 -19.6313C40.2537 -19.5101 40.3584 -19.4235 40.4955 -19.3159C40.4203 -19.5569 40.3479 -19.7964 40.2739 -20.037C40.3324 -20.0369 40.3907 -20.0382 40.4493 -20.0382C40.5476 -19.9198 40.6396 -19.7894 40.7426 -19.6781C40.9288 -19.7898 41.1704 -20.2097 41.3204 -20.2978C41.6929 -20.5158 42.293 -20.4453 42.2955 -21.0065C42.4548 -21.0679 42.5037 -20.7285 42.6773 -20.905C42.6085 -21.044 42.5421 -21.177 42.4715 -21.3206C43.039 -20.892 42.8263 -21.251 42.9616 -21.5282C43.0488 -21.713 43.243 -21.649 43.3622 -21.7771C43.3924 -21.8097 43.2686 -21.9673 43.2966 -21.9798C43.3894 -22.0224 43.7832 -21.9696 43.8449 -22.0055C44.4061 -22.3266 44.838 -22.6789 45.2997 -23.1033C45.3496 -23.1485 45.3951 -22.9375 45.4463 -22.9849C45.529 -23.0608 45.2979 -23.2685 45.3416 -23.3185C45.4649 -23.4564 45.6532 -23.1975 45.8679 -23.3313C46.573 -23.7707 47.1775 -24.4964 47.8715 -25.0115C47.8935 -25.027 48.0003 -24.8728 48.0252 -24.888C48.1859 -24.99 48.198 -25.3085 48.3419 -25.406C48.5801 -25.5685 48.9094 -25.4771 49.1437 -25.6417C49.6055 -25.9647 49.9149 -26.3434 50.378 -26.6716C50.7545 -26.9388 51.101 -27.1461 51.5236 -27.4355C53.3844 -28.709 55.5841 -29.457 57.2856 -30.9403C57.3284 -30.9781 57.2187 -31.1046 57.2371 -31.1079C57.4138 -31.1372 57.5478 -30.9575 57.3418 -31.3822C57.5679 -31.4188 57.8147 -31.1594 58.0139 -31.3181C58.1204 -31.4026 57.7393 -31.8058 58.0846 -31.6939C58.397 -31.5927 58.3656 -31.2173 58.7198 -31.8082C58.729 -31.8241 58.6171 -32.1473 58.7724 -32.1441C58.9278 -32.142 58.93 -31.8607 59.2314 -31.9686C59.9437 -32.2256 60.563 -32.9595 61.3176 -33.3297C61.3649 -33.353 61.8893 -33.4726 62.0182 -33.4565C62.2676 -33.4248 62.3643 -33.1939 62.6107 -33.2765C62.8011 -33.3406 62.79 -33.6634 63.0156 -33.738C63.042 -33.7465 63.2324 -33.526 63.3597 -33.65ZM25.3029 -12.7697C25.081 -12.9509 24.3302 -13.6757 24.3199 -13.2459C24.3189 -13.2054 24.9019 -12.7657 24.8567 -12.5748C25.024 -12.6212 25.1551 -12.7034 25.3037 -12.7689C25.3034 -12.7692 25.3032 -12.7694 25.3029 -12.7697ZM60.954 -39.9564C60.7911 -39.7948 60.628 -39.6333 60.4665 -39.472C60.6631 -39.4459 60.86 -39.42 61.0568 -39.3926C61.0226 -39.5805 60.9879 -39.7684 60.954 -39.9564ZM38.5792 -24.1924C38.5794 -24.1925 38.5795 -24.1926 38.5797 -24.1927C38.3144 -24.1614 38.0494 -24.1302 37.7851 -24.0989C37.8639 -24.0346 37.943 -23.9701 38.0217 -23.9058C38.2602 -23.8908 38.4988 -23.876 38.7373 -23.8606C38.6845 -23.9711 38.6319 -24.0817 38.5792 -24.1924ZM40.6781 -24.452C40.7285 -24.6351 40.5796 -24.7712 40.5297 -24.974C40.5299 -24.9737 40.5301 -24.9734 40.5303 -24.9731C40.5174 -25.0259 40.5701 -25.1194 40.5961 -25.1479C40.6584 -25.0399 40.7165 -24.9308 40.7774 -24.823C41.2261 -24.7813 41.1315 -26.0341 40.1833 -25.8698C40.2865 -25.7515 40.3887 -25.6335 40.4919 -25.5152C40.1275 -25.3013 39.9295 -24.7322 40.6781 -24.452ZM22.4046 -10.7989C21.7925 -10.9363 21.6282 -10.9334 21.5269 -10.3663C21.6724 -10.3024 21.8178 -10.2385 21.9632 -10.1744C21.9192 -10.3346 21.8758 -10.4939 21.8323 -10.6544C21.8325 -10.6545 21.8326 -10.6547 21.8328 -10.6548C21.9486 -10.5499 22.0646 -10.4447 22.1799 -10.3393C22.2585 -10.4961 22.3292 -10.6455 22.4046 -10.7989ZM51.9969 -32.8356C51.5153 -33.7439 51.8201 -33.2326 51.4481 -33.262C51.3192 -33.2723 51.3022 -33.4761 51.2331 -33.4658C50.859 -33.4119 51.218 -32.8273 51.4792 -32.5729C51.6523 -32.6595 51.8263 -32.7489 51.9964 -32.8352C51.9965 -32.8353 51.9967 -32.8355 51.9969 -32.8356ZM59.5463 -37.4557C59.5465 -37.4558 59.5467 -37.4559 59.5469 -37.456C59.4218 -37.6721 59.2697 -37.656 59.2754 -37.9386C59.176 -37.8752 59.0772 -37.8109 58.9776 -37.7473C59.0194 -37.7461 59.0611 -37.7461 59.1029 -37.7449C59.1225 -37.656 59.1427 -37.5663 59.1624 -37.4775C58.9744 -37.6981 59.0302 -37.5363 58.9769 -37.3895C58.8426 -37.6669 58.7081 -37.9445 58.5739 -38.2221C58.5007 -38.0684 58.4277 -37.9143 58.3552 -37.7608C58.395 -37.6945 58.4347 -37.6281 58.4744 -37.5619C58.3761 -37.6166 58.2777 -37.6725 58.1794 -37.7272C58.2163 -37.6415 58.2531 -37.5567 58.29 -37.4709C58.1977 -37.4953 58.1054 -37.5196 58.0127 -37.5447C58.1154 -37.3454 58.2878 -37.3402 58.0433 -37.2528C58.2315 -37.1008 58.4191 -36.9491 58.6076 -36.7972C58.919 -37.0158 59.2318 -37.2356 59.5463 -37.4557ZM49.6119 -31.6125C49.9914 -31.818 49.8009 -31.8843 49.434 -32.2476C49.4933 -32.0359 49.5522 -31.824 49.6119 -31.6125ZM32.3172 -18.3C32.0055 -18.4927 31.6987 -18.6847 31.3888 -18.863C31.0678 -18.8515 31.2668 -18.2019 31.5713 -18.131C31.9376 -18.0467 31.9155 -18.4549 32.3172 -18.3ZM27.8118 -14.7778C27.941 -15.0973 27.4564 -15.2249 27.2488 -15.3627C27.4333 -15.0148 27.3216 -14.9646 27.2073 -14.8086C27.3581 -14.9041 27.791 -14.7245 27.8125 -14.777C27.8123 -14.7773 27.812 -14.7776 27.8118 -14.7778ZM35.9423 -21.6537C36.0459 -21.7208 36.2019 -21.7192 36.2177 -21.8794C35.9895 -22.1207 35.9983 -21.7479 35.8241 -22.2321C35.7564 -22.1904 35.6888 -22.1486 35.6212 -22.1081C35.7847 -21.978 35.8245 -21.8171 35.9418 -21.6548C35.942 -21.6544 35.9421 -21.6541 35.9423 -21.6537ZM46.0059 -29.603C46.0298 -29.1424 45.8963 -29.2533 45.5396 -29.3341C45.6944 -29.0537 46.24 -28.7848 46.4576 -28.7936C46.3068 -29.0631 46.1561 -29.333 46.0059 -29.603ZM3.67939 8.64192C4.02378 8.86387 4.3516 8.56236 4.3961 8.3262C4.33444 8.3056 4.27214 8.28451 4.20983 8.26325C4.03227 8.39019 3.85377 8.51833 3.67939 8.64192ZM27.157 -14.7297C27.1733 -14.7591 27.1902 -14.7852 27.2073 -14.8086C27.1806 -14.7916 27.1621 -14.7668 27.157 -14.7297ZM18.8397 -4.81979C19.1786 -4.61486 19.0514 -4.31346 19.2102 -4.67498C19.2104 -4.67472 19.2107 -4.67445 19.211 -4.67419C19.3169 -4.91333 19.3374 -4.96964 19.4801 -5.1478C19.0809 -5.4463 18.6265 -5.2538 19.0146 -5.76676C19.0198 -5.77236 19.2126 -5.55197 19.2546 -5.64754C19.2677 -5.67726 19.171 -5.9171 19.2291 -6.06912C19.248 -6.11805 19.4556 -6.4184 19.0999 -6.0855C18.8735 -6.34326 18.6148 -6.57596 18.3858 -6.81708C18.1824 -6.75635 18.5372 -6.16685 18.375 -6.03392C18.1338 -5.83837 17.5498 -6.21774 18.1262 -5.5365C18.4633 -5.55812 18.7888 -5.86332 18.4609 -6.29064C18.6363 -6.46762 18.9866 -6.1954 18.9965 -5.90457C18.1809 -5.50415 19.2746 -5.2699 18.4895 -4.99929C18.397 -5.08209 18.2821 -5.15638 18.2045 -5.24327C18.3432 -4.77105 18.7185 -4.89312 18.8397 -4.81979ZM19.4714 -6.7347C19.1848 -6.82362 18.8971 -6.91426 18.6105 -7.00398C18.9049 -6.69527 19.2268 -6.47335 19.5593 -6.45769C19.5295 -6.55006 19.5003 -6.64288 19.4714 -6.7347ZM10.6694 2.01061C10.485 1.86842 10.2913 1.76486 10.1016 1.64478C10.2145 1.80981 9.62016 2.73398 10.1332 2.45916C10.2053 2.42178 10.2429 1.77587 10.6694 2.01061ZM47.5783 -30.2698C47.5645 -30.0712 47.5515 -29.8729 47.5389 -29.675C47.7509 -29.7017 47.9648 -29.7264 48.1785 -29.7517C47.9784 -29.9243 47.7786 -30.0973 47.5783 -30.2698ZM30.9847 -16.6927C31.02 -16.7329 30.6819 -16.8681 30.8748 -16.9613C30.6253 -17.0205 30.4035 -17.0617 30.1646 -17.1137C30.2255 -16.9684 30.2858 -16.8234 30.3469 -16.6783C30.2581 -16.7306 30.1692 -16.7821 30.0803 -16.8344C30.2366 -16.6783 30.3877 -16.5247 30.5471 -16.3664C30.4432 -16.8914 30.8282 -16.5161 30.9847 -16.6927ZM37.4573 -20.7319C37.2027 -21.1387 36.7345 -21.1371 36.978 -21.4207C36.7316 -21.6271 36.5424 -21.6894 36.3558 -21.5809C36.4019 -21.4649 36.4476 -21.3496 36.4939 -21.2337C36.2938 -21.4851 36.1773 -21.546 35.9423 -21.6537C35.9424 -21.6534 35.9425 -21.653 35.9427 -21.6527C35.6717 -21.4727 35.753 -21.3999 36.0152 -20.9351C36.1028 -21.38 36.4068 -21.0051 36.767 -20.9207C37.0146 -20.8626 37.1267 -21.0615 37.4573 -20.7319ZM11.4393 1.19184C10.9782 1.09431 10.8515 0.678836 10.8712 1.28571C10.965 1.33528 11.0583 1.38419 11.1522 1.4338C11.2481 1.35416 11.3437 1.27341 11.4393 1.19184ZM37.4229 -22.7668C37.851 -22.1634 38.014 -21.5639 37.2528 -22.4964C37.2842 -22.8283 37.6111 -22.2207 37.4229 -22.7668ZM28.6399 -13.9618C28.9417 -14.2624 28.3426 -14.8487 27.9385 -15.0535C28.0158 -14.9201 28.0934 -14.7865 28.1708 -14.6543C28.0692 -14.6586 27.9676 -14.6631 27.8667 -14.6667C28.1243 -14.4321 28.3825 -14.1967 28.6399 -13.9618ZM43.977 -26.5965C43.4013 -26.8335 44.0899 -27.0387 43.7131 -27.1743C43.4158 -27.2855 43.5223 -26.7069 43.7933 -26.491C43.8508 -26.5209 43.9127 -26.5573 43.9765 -26.5961C43.9767 -26.5962 43.9768 -26.5963 43.977 -26.5965ZM42.3414 -25.6015C42.0527 -26.0892 42.0867 -25.9107 42.3559 -25.9808C42.4323 -26.0008 42.7861 -26.5186 42.8597 -25.9947C42.689 -25.8711 42.5141 -25.7341 42.3414 -25.6015ZM24.3697 -11.3543C24.5298 -11.168 25.2297 -11.067 25.1847 -11.2071C25.185 -11.2068 25.1852 -11.2065 25.1854 -11.2063C25.0611 -11.5873 24.6634 -11.3058 24.4864 -11.823C24.4324 -11.1824 23.6167 -11.8943 24.5812 -10.8576C24.8255 -10.9915 24.5357 -11.1244 24.3697 -11.3543ZM0.913821 13.5943C0.913674 13.5945 0.913527 13.5947 0.913381 13.5948C0.929498 13.5603 0.818073 13.1464 0.706864 13.083C0.598188 13.362 0.79824 13.4952 0.323659 13.4343C0.405576 13.5308 0.486136 13.6231 0.567792 13.7212C0.697654 13.6907 0.850986 13.7472 0.913821 13.5943ZM10.2503 3.19789C10.372 3.16006 10.3122 2.83109 10.4101 2.74797C9.38139 2.35594 9.76567 3.35012 10.2503 3.19789ZM56.0352 -35.2672C56.0347 -35.2673 56.0343 -35.2674 56.0338 -35.2676C56.0342 -35.2672 56.0346 -35.2668 56.035 -35.2664C56.0351 -35.2666 56.0352 -35.2669 56.0352 -35.2672ZM15.7183 -3.40438C15.7552 -3.34741 15.7903 -3.30098 15.8241 -3.26316C15.8275 -3.25979 15.8308 -3.25643 15.8342 -3.25306C15.7957 -3.30242 15.757 -3.35264 15.7183 -3.40438ZM23.6162 -10.7823C23.7052 -10.4023 24.5337 -10.4124 24.5997 -10.6447C24.485 -10.7521 24.3891 -10.8565 24.2448 -10.9686C24.3913 -10.557 23.601 -10.8463 23.6162 -10.7823ZM34.6544 -19.8659C34.2657 -19.5481 35.6156 -18.8888 34.9698 -19.754C34.9561 -19.7698 34.6658 -19.8725 34.6544 -19.8659ZM26.6476 -13.2565C27.0119 -13.0297 26.8886 -12.78 27.153 -13.101C27.1018 -13.197 27.0506 -13.2931 26.9995 -13.3892C26.8821 -13.3448 26.7645 -13.3008 26.6476 -13.2565ZM33.2385 -16.4652C32.6052 -16.2468 31.889 -16.1811 31.4908 -17.3141C31.5506 -17.316 31.6102 -17.3193 31.6701 -17.3212C32.0237 -16.8984 31.9696 -17.2423 32.1591 -17.4189C32.3255 -17.2722 32.4688 -17.323 32.6067 -17.1955C32.8732 -16.9487 32.9046 -16.6491 33.2385 -16.4652ZM53.8577 -32.5737C53.7975 -32.6467 53.7371 -32.7202 53.6774 -32.7924C53.536 -32.8264 53.3948 -32.8597 53.2535 -32.8937C53.3664 -32.7519 53.4793 -32.6102 53.5922 -32.4684C53.6806 -32.5033 53.7688 -32.538 53.8575 -32.5729C53.8575 -32.5732 53.8576 -32.5735 53.8577 -32.5737ZM20.7103 -6.30564C19.9586 -7.01991 20.2335 -7.01737 20.8871 -6.91266C20.8274 -6.7099 20.7681 -6.50722 20.7103 -6.30564ZM40.8368 -22.8855C40.6716 -23.1292 40.5067 -23.3721 40.3421 -23.6162C40.6975 -23.4987 40.8663 -23.2043 41.0163 -22.8308C40.9563 -22.8488 40.8967 -22.8675 40.8368 -22.8855ZM43.3659 -24.589C43.3308 -24.4876 43.2274 -24.7061 43.2228 -24.6968C43.1159 -24.4648 43.1548 -24.3585 42.8294 -24.3425C42.7657 -24.3732 42.7005 -24.4069 42.6356 -24.4391C42.3737 -25.011 42.6456 -24.7935 42.6489 -25.2438C42.7343 -25.0445 42.8201 -24.8451 42.9063 -24.6452C43 -24.7687 43.0939 -24.8915 43.1884 -25.0153C43.2411 -24.973 43.2934 -24.9311 43.346 -24.8887C43.3523 -24.7898 43.3634 -24.6815 43.3659 -24.589ZM54.6683 -33.4257C54.7743 -33.5239 54.8807 -33.6234 54.9874 -33.7218C55.0747 -33.5975 55.1624 -33.4723 55.2497 -33.348C55.056 -33.374 54.8618 -33.3998 54.6683 -33.4257ZM18.2396 -4.59491C18.1939 -4.62555 18.1481 -4.6566 18.1026 -4.68918C18.1501 -4.64172 18.1956 -4.61286 18.2396 -4.59491ZM1.26019 14.4472C1.22193 14.6442 1.0185 14.7582 0.903544 14.9095C0.649566 14.6252 1.02263 14.3856 0.967838 14.1041C1.03573 14.1314 1.27565 14.3649 1.26019 14.4472ZM29.0685 -14.3676C29.2225 -14.249 29.3759 -14.1309 29.5294 -14.0118C29.5924 -14.0916 29.655 -14.1725 29.7189 -14.2528C29.8212 -14.1356 29.9244 -14.0173 30.0266 -13.9001C29.5583 -13.7707 29.9252 -13.493 30.0444 -13.0151C29.7192 -13.4656 29.3937 -13.9159 29.0685 -14.3676ZM59.0694 -35.0846C58.7488 -35.006 58.5499 -35.1124 58.4485 -35.6007C58.5992 -35.5696 58.7506 -35.5386 58.9015 -35.5074C58.9572 -35.3664 59.0131 -35.2252 59.0694 -35.0846ZM14.4065 -0.257981C14.0985 -0.190449 14.5414 0.252527 14.1074 0.198941C14.1221 0.0171599 14.1366 -0.166077 14.1525 -0.348573C14.2377 -0.319271 14.3222 -0.288279 14.4065 -0.257981ZM24.9375 -8.02765C25.0003 -7.79091 24.1625 -8.42976 24.4357 -7.64523C24.226 -7.76299 24.0441 -7.89215 23.8453 -8.01344C23.9809 -7.80814 24.115 -7.59723 24.2509 -7.39473C24.2507 -7.39459 24.2506 -7.39444 24.2504 -7.39431C23.9829 -7.26137 23.9149 -7.6119 23.7362 -7.79813C23.6617 -7.87501 23.6248 -7.59918 23.5169 -7.81593C23.332 -8.18833 23.8072 -8.31014 23.4807 -8.67147C23.4745 -8.45084 23.1656 -8.34927 23.0114 -8.64844C22.8422 -8.97694 23.4526 -8.72412 23.3869 -9.06409C23.7215 -8.31649 23.9467 -8.84524 23.5868 -9.32578C24.1183 -9.18697 24.0378 -8.86227 23.7966 -8.67256C24.2437 -8.45925 23.8716 -8.45626 24.0912 -8.14112C24.3963 -8.10793 24.7536 -8.68836 24.9375 -8.02765ZM35.357 -17.9214C35.1716 -17.8125 35.076 -17.4022 34.7222 -17.6149C34.5158 -17.7387 34.6665 -18.0813 34.2672 -18.2159C34.4503 -18.3174 34.5734 -18.2386 34.7386 -17.9738C34.7986 -17.9739 34.8585 -17.9751 34.918 -17.9759C34.8975 -18.0368 34.8779 -18.0975 34.8574 -18.1584C34.9561 -18.0739 35.0542 -17.9902 35.1524 -17.9052C35.1761 -17.956 35.2002 -18.0071 35.2234 -18.0587C35.2678 -18.0121 35.3104 -17.9745 35.357 -17.9214ZM9.18959 5.32551C9.23105 5.28472 9.27224 5.24424 9.31464 5.20386C9.36665 5.259 9.42017 5.31713 9.47313 5.37436C9.51534 5.41918 9.55754 5.464 9.59976 5.50881C9.45853 5.33793 9.37348 4.88706 9.62725 4.95492C9.7545 4.98901 9.97379 5.36844 10.197 5.22914C10.0583 5.3512 9.90326 5.4387 9.75982 5.54579C9.86265 5.61667 9.96604 5.68891 10.0688 5.75982C10.0689 5.76002 10.069 5.76022 10.069 5.76042C10.051 5.82243 10.0336 5.88573 10.0158 5.9475C9.74022 5.74006 9.46533 5.53279 9.18959 5.32551ZM41.0453 -22.3156C40.7385 -22.3902 40.6089 -22.4509 40.4499 -22.8227C40.45 -22.8229 40.45 -22.8232 40.4501 -22.8235C40.6145 -22.7289 40.7788 -22.6342 40.9431 -22.5395C40.9772 -22.465 41.0116 -22.3904 41.0453 -22.3156ZM17.9217 -2.46642C16.5648 -3.22431 17.8997 -3.2569 18.1253 -2.76467C18.1355 -2.74216 17.8341 -2.61175 17.9217 -2.46642ZM28.8774 -13.5613C28.9738 -13.6271 29.0699 -13.6941 29.1673 -13.7605C29.2652 -13.603 29.3622 -13.4456 29.4602 -13.2882C29.2663 -13.3791 29.0715 -13.4706 28.8774 -13.5613ZM58.2623 -33.7675C58.3787 -33.3556 58.1925 -33.06 57.8216 -33.3514C57.8617 -33.4392 57.9019 -33.527 57.9423 -33.6148C57.7851 -33.5749 57.6268 -33.5403 57.4706 -33.4974C57.1547 -33.973 57.4837 -33.7908 57.6253 -34.0686C57.6464 -34.1123 57.4892 -34.8532 57.8552 -34.4532C57.93 -34.3707 57.7308 -34.1547 58.0694 -33.9923C58.0101 -33.9246 57.9445 -33.8892 57.8834 -33.8335C57.9519 -33.7158 58.0205 -33.5981 58.0884 -33.4802C58.1465 -33.5759 58.2039 -33.6717 58.2623 -33.7675ZM34.3673 -17.1915C34.1622 -16.9872 33.9923 -17.1432 33.6932 -17.4201C33.826 -17.4681 33.9587 -17.5168 34.092 -17.5649C34.1833 -17.4405 34.2754 -17.3166 34.3673 -17.1915ZM56.1595 -32.2554C56.0642 -32.1146 55.9412 -32.4261 55.8543 -32.444C55.5262 -32.5102 55.5186 -32.2252 55.2419 -32.2198C55.2896 -32.1754 55.334 -32.1337 55.3802 -32.0905C55.38 -32.0904 55.3798 -32.0902 55.3797 -32.0901C54.5761 -31.2324 54.675 -32.188 55.3048 -32.4553C55.251 -32.5659 55.1967 -32.6763 55.1435 -32.7862C55.51 -32.7709 55.8535 -32.7496 56.1595 -32.2554ZM20.6579 -5.04885C20.7014 -4.98483 21.114 -4.70751 20.8109 -4.73273C20.206 -5.13526 20.6388 -5.06173 20.499 -5.30478C20.4122 -5.31613 20.3259 -5.3253 20.2396 -5.33706C20.3397 -5.70872 20.4914 -5.62006 20.7609 -5.1619C20.7786 -5.13077 20.6146 -5.11276 20.6579 -5.04885ZM19.3279 -3.28498C18.5665 -4.00107 19.1946 -3.95661 19.4095 -3.71332C19.377 -3.66378 19.2215 -3.75929 19.2321 -3.66056C19.2422 -3.5614 19.4009 -3.37554 19.3279 -3.28498ZM27.9978 -11.5668C27.9914 -11.5552 28.1845 -11.1421 27.9691 -11.41C27.5534 -12.1255 28.132 -11.933 28.2754 -11.6828C28.1882 -11.6262 28.0566 -11.6739 27.9985 -11.566C27.9983 -11.5663 27.9981 -11.5666 27.9978 -11.5668ZM60.0073 -34.5846C60.0178 -34.5569 59.8548 -34.2452 59.7341 -34.3626C59.6081 -34.5011 59.4888 -34.6594 59.3661 -34.8076C59.6024 -34.7478 59.8181 -35.0434 60.0067 -34.5843C60.0069 -34.5844 60.0071 -34.5845 60.0073 -34.5846Z" fill="#8C8C8C"/>
</g>
<mask id="mask1_126_10963" style="mask-type:alpha" maskUnits="userSpaceOnUse" x="1" y="4" width="18" height="18">
<path d="M10.1914 4.43933L1.34444 13.0258L10.027 21.9618L14.5916 20.1535L16.0848 18.301L15.9574 17.4167L18.874 13.3754L10.1914 4.43933Z" fill="#D9D9D9"/>
</mask>
<g mask="url(#mask1_126_10963)">
<path d="M-27.1391 -20.8202C-27.3087 -20.8947 -26.8028 -20.5529 -27.1627 -20.7435C-27.0974 -20.6893 -27.0314 -20.6342 -26.9654 -20.5791C-26.9351 -20.5859 -26.9042 -20.5925 -26.8736 -20.5997C-26.9626 -20.6739 -27.0509 -20.7474 -27.139 -20.8203C-27.139 -20.8202 -27.1391 -20.8202 -27.1391 -20.8202ZM-27.1109 -21.1446C-27.06 -21.0352 -26.7992 -20.8306 -27.124 -20.9842C-27.1351 -21.0188 -27.1467 -21.0536 -27.158 -21.0876C-27.2668 -21.1419 -27.3803 -21.2004 -27.4965 -21.2618C-27.5304 -21.2949 -27.5642 -21.3278 -27.5981 -21.3603C-27.6655 -21.3645 -27.7319 -21.369 -27.7978 -21.3744C-27.753 -21.3485 -27.7074 -21.3222 -27.6621 -21.2962C-27.509 -21.1525 -27.3618 -21.0361 -27.1508 -20.8759C-27.1749 -20.8821 -27.199 -20.8885 -27.2229 -20.8949C-27.1046 -20.8273 -26.9846 -20.7599 -26.8633 -20.6927C-26.9522 -20.7763 -27.051 -20.8682 -27.1325 -20.9432C-26.957 -20.8932 -26.7177 -20.6855 -26.5895 -20.5772C-26.4147 -20.4305 -26.4389 -20.4868 -26.3073 -20.3774C-26.2862 -20.3599 -26.2979 -20.3365 -26.2541 -20.3048C-26.042 -20.1502 -25.6256 -19.8719 -25.8304 -20.0963C-26.1735 -20.3289 -26.4753 -20.5953 -26.8307 -20.8208C-26.703 -20.8101 -26.8772 -20.9565 -27.1109 -21.1446ZM-20.764 -16.2844C-20.8358 -16.4182 -21.0698 -16.5598 -21.24 -16.6348C-21.2402 -16.6349 -21.2403 -16.635 -21.2405 -16.6351C-21.2782 -16.6515 -21.3965 -16.64 -21.2901 -16.5632C-21.1165 -16.4376 -20.958 -16.4823 -20.9179 -16.3403C-20.8677 -16.3232 -20.8164 -16.3031 -20.764 -16.2844ZM-20.4069 -16.0035C-20.2855 -15.9535 -20.2723 -16.0745 -20.4167 -16.1473C-20.4167 -16.1473 -20.4166 -16.1474 -20.4166 -16.1475C-20.4766 -16.1778 -20.4184 -16.0331 -20.5624 -16.2437C-20.6378 -16.2208 -20.708 -16.2021 -20.7816 -16.1819C-20.7352 -16.1451 -20.6947 -16.1118 -20.6465 -16.0737C-20.6195 -16.1845 -20.5279 -16.0538 -20.4069 -16.0035ZM-25.67 -19.9434C-25.6829 -19.8864 -25.7529 -19.9362 -25.8898 -19.9901C-25.7786 -19.9118 -25.6663 -19.8329 -25.5535 -19.7535C-25.5924 -19.8177 -25.6309 -19.8807 -25.67 -19.9434ZM-28.3225 -21.8043C-28.3226 -21.8044 -28.3228 -21.8045 -28.3229 -21.8047C-28.356 -21.8344 -28.389 -21.8641 -28.4214 -21.8931C-28.4487 -21.8981 -28.4793 -21.9056 -28.5081 -21.912C-28.6377 -22.0171 -28.7663 -22.1206 -28.8925 -22.2214C-28.8943 -22.184 -28.6543 -22.0199 -28.5334 -21.9037C-28.3332 -21.773 -28.2378 -21.7314 -28.2065 -21.7484C-28.2453 -21.7669 -28.2837 -21.7853 -28.3225 -21.8043ZM1.90516 1.80494C1.88634 1.90249 1.86677 1.99988 1.84749 2.0979C1.77054 2.07694 1.70036 2.04975 1.61922 2.03276C1.73379 1.6393 1.50166 1.86168 1.343 1.67771C0.861659 1.11817 1.35945 0.846336 0.324058 0.961665C0.747476 1.31504 0.340205 1.44404 0.378807 1.89195C0.580174 1.77674 0.682413 1.1798 0.914913 1.259C1.03343 1.69717 1.13207 2.10451 1.32291 2.51379C1.28727 2.53399 1.25163 2.55433 1.21605 2.5745C1.18626 2.50963 1.15692 2.44519 1.12703 2.38062C1.10575 2.50753 1.08358 2.63303 1.06152 2.76245C1.16076 2.52262 1.23393 2.78587 1.40079 2.56234C1.47506 2.4628 1.51784 2.26599 1.55399 2.13819C1.71027 2.20147 1.86658 2.27152 2.02444 2.33743C2.03237 2.20787 2.04002 2.07873 2.04758 1.95048C2.00069 1.90157 1.95362 1.85374 1.90679 1.80502C1.90625 1.80499 1.9057 1.80497 1.90516 1.80494ZM23.3217 28.4343C23.5925 27.9522 23.4344 27.619 22.8822 27.8204C23.035 28.0316 23.176 28.2305 23.3217 28.4343ZM-28.1799 -21.7617C-28.2016 -21.7694 -28.2226 -21.7769 -28.2442 -21.7847C-28.1694 -21.719 -28.0936 -21.6521 -28.0178 -21.5844C-27.9922 -21.5885 -27.966 -21.5924 -27.9397 -21.5964C-28.0203 -21.6518 -28.1007 -21.7071 -28.1799 -21.7617ZM-22.9041 -18.0247C-22.9626 -18.0696 -22.9686 -18.0724 -23.0458 -18.1213C-23.0457 -18.1213 -23.0456 -18.1212 -23.0455 -18.1212C-23.0764 -18.1408 -23.3324 -18.2986 -23.3207 -18.2557C-23.2006 -18.168 -23.0709 -18.0745 -22.9458 -17.9835C-22.9312 -17.9967 -22.9197 -18.012 -22.9041 -18.0247ZM-24.364 -19.0491C-24.3642 -19.0492 -24.3644 -19.0493 -24.3646 -19.0494C-24.4114 -19.078 -24.4579 -19.1017 -24.5044 -19.1332C-24.3609 -18.9828 -24.2955 -19.0226 -24.1544 -18.8977C-24.0131 -18.7723 -23.9419 -18.6687 -23.753 -18.6608C-23.7934 -18.7084 -23.8339 -18.7638 -23.8745 -18.8138C-24.1163 -18.934 -24.153 -19.007 -24.3057 -19.1588C-24.3251 -19.1222 -24.3445 -19.0858 -24.364 -19.0491ZM-1.06078 0.0927456C-0.968779 -0.082504 -1.13442 0.0172859 -1.13999 0.0149011C-1.14006 0.0151372 -1.14014 0.015363 -1.14021 0.0156017C-1.34005 -0.418449 -1.16984 0.132695 -1.48794 -0.132762C-1.47518 -0.0552336 -1.46502 0.0237768 -1.45333 0.101729C-1.32438 0.100055 -1.18444 0.091146 -1.06078 0.0927456ZM-11.8618 -9.55471C-11.8868 -9.5294 -11.9125 -9.50454 -11.9374 -9.47926C-11.742 -9.32654 -11.7814 -9.17398 -11.5426 -9.14137C-11.6487 -9.28063 -11.7551 -9.41845 -11.8616 -9.55504C-11.8616 -9.55493 -11.8617 -9.55482 -11.8618 -9.55471ZM-21.7897 -17.3804C-21.9918 -17.5674 -22.1588 -17.701 -22.4129 -17.8174C-22.4132 -17.8175 -22.4134 -17.8176 -22.4136 -17.8176C-22.4283 -17.8242 -22.3859 -17.7502 -22.4078 -17.7547C-22.4509 -17.7921 -22.4939 -17.8328 -22.5369 -17.871C-22.559 -17.8521 -22.5808 -17.833 -22.6028 -17.8144C-22.4683 -17.7272 -22.3325 -17.6394 -22.1952 -17.5506C-22.2244 -17.5506 -22.2539 -17.5511 -22.283 -17.5511C-22.1737 -17.461 -22.074 -17.377 -21.9727 -17.2913C-21.9819 -17.3592 -21.9913 -17.4266 -22.0005 -17.4933C-21.9305 -17.4558 -21.8604 -17.4178 -21.7897 -17.3804ZM-8.37185 -7.18017C-8.43477 -7.17445 -8.41919 -7.06227 -8.49697 -7.07755C-8.57432 -7.09337 -8.61905 -7.24107 -8.67621 -7.12394C-8.61577 -7.04998 -8.55334 -6.97072 -8.49208 -6.89433C-8.87106 -6.91906 -8.97075 -7.27718 -9.15053 -7.0647C-8.88431 -6.92806 -8.72218 -6.74334 -8.55722 -6.49235C-8.42122 -6.67598 -8.5156 -7.01306 -8.24327 -7.05945C-8.28583 -7.09923 -8.32976 -7.14188 -8.37168 -7.17938C-8.37173 -7.17965 -8.37179 -7.17991 -8.37185 -7.18017ZM-31.4668 -24.2535C-31.6173 -24.3461 -31.9392 -24.5495 -32.136 -24.6775C-32.1833 -24.707 -32.3346 -24.8035 -32.3334 -24.8029C-32.3303 -24.7989 -32.1525 -24.6724 -32.3437 -24.8062C-32.2803 -24.761 -32.2176 -24.7166 -32.1522 -24.6707C-32.1652 -24.6772 -32.1781 -24.6838 -32.1903 -24.6902C-32.2685 -24.747 -32.3451 -24.803 -32.4198 -24.8582C-32.4236 -24.8607 -32.4274 -24.8632 -32.4312 -24.8657C-32.16 -24.6654 -32.3213 -24.7827 -32.1791 -24.6746C-32.3137 -24.7725 -32.443 -24.8701 -32.5645 -24.9658C-32.4945 -24.9106 -32.4092 -24.8447 -32.3438 -24.795C-32.337 -24.7868 -32.4895 -24.9061 -32.5143 -24.9259C-32.6708 -25.0453 -31.8927 -24.4435 -31.8327 -24.3918C-31.9475 -24.4774 -32.0969 -24.5908 -32.2203 -24.6878C-32.1844 -24.6588 -32.1477 -24.629 -32.1112 -24.5994C-31.8037 -24.3643 -31.5086 -24.1492 -31.138 -23.8947C-31.1086 -23.8731 -31.079 -23.8514 -31.0497 -23.83C-31.0619 -23.8313 -31.0736 -23.8323 -31.0857 -23.8338C-31.0412 -23.8006 -30.9957 -23.7668 -30.9504 -23.7331C-31.0723 -23.8469 -30.8905 -23.7136 -30.6452 -23.5632C-30.7667 -23.657 -30.9199 -23.7569 -30.9014 -23.7613C-30.4792 -23.456 -29.9703 -23.1432 -29.5511 -22.8427C-29.4488 -22.7688 -29.4566 -22.7332 -29.2219 -22.5789C-29.2278 -22.5876 -29.2252 -22.5946 -29.2275 -22.6024C-28.8302 -22.3173 -28.5481 -22.1099 -28.113 -21.8488C-28.1474 -21.8509 -28.1812 -21.8529 -28.2152 -21.8554C-28.3016 -21.9241 -28.3842 -21.9899 -28.4788 -22.0628C-28.5582 -22.0847 -28.4702 -22.0109 -28.7521 -22.2036C-28.9808 -22.3602 -28.8387 -22.2759 -28.8969 -22.324C-28.9755 -22.3887 -29.0583 -22.4229 -29.1409 -22.4915C-29.2046 -22.5441 -29.1218 -22.5098 -29.3007 -22.6249C-29.2425 -22.5585 -29.1833 -22.4888 -29.1249 -22.4184C-29.0787 -22.3928 -29.0325 -22.3674 -28.9855 -22.3419C-29.0262 -22.3781 -29.066 -22.4133 -29.1064 -22.4488C-28.958 -22.333 -28.8156 -22.2209 -28.6574 -22.0949C-28.69 -22.1648 -28.5262 -22.0351 -28.4337 -21.9657C-28.2966 -21.8622 -28.4013 -21.9689 -28.3131 -21.9029C-28.2253 -21.8373 -28.1464 -21.7419 -27.9758 -21.6329C-28.0541 -21.7114 -27.9223 -21.6433 -27.9354 -21.6753C-27.9489 -21.7074 -28.1242 -21.8288 -27.9424 -21.7324C-27.6202 -21.4987 -28.019 -21.6783 -27.8028 -21.5164C-27.543 -21.318 -27.4042 -21.3814 -27.4721 -21.459C-27.5257 -21.5199 -27.7492 -21.6603 -27.8018 -21.7183C-27.3869 -21.4956 -27.4205 -21.4272 -27.3613 -21.3692C-27.1412 -21.1558 -27.2279 -21.3962 -26.9745 -21.1649C-26.9636 -21.1934 -26.9532 -21.2185 -26.943 -21.2458C-26.8968 -21.2103 -26.8682 -21.1835 -26.8108 -21.1418C-27.0185 -21.2044 -26.8738 -21.1151 -26.8001 -21.067C-26.6839 -20.9915 -26.8795 -21.0835 -26.8527 -21.0573C-26.7813 -20.9865 -26.6446 -20.9072 -26.7399 -20.938C-26.697 -20.9245 -26.6507 -20.9092 -26.6063 -20.8952C-26.4773 -20.7942 -26.2292 -20.4578 -26.5214 -20.6901C-26.5206 -20.6283 -26.4085 -20.5806 -26.3259 -20.534C-26.2434 -20.4873 -26.2633 -20.4601 -26.1909 -20.4179C-25.9114 -20.2563 -26.0515 -20.4259 -26.0681 -20.4912C-25.7395 -20.2331 -26.0921 -20.4449 -25.6031 -20.0859C-25.5771 -20.0184 -25.8317 -20.1431 -25.6522 -19.9897C-25.578 -20.0234 -25.4085 -19.9692 -25.1087 -19.797C-25.0905 -19.7638 -25.0724 -19.7304 -25.0542 -19.6968C-24.862 -19.65 -24.8875 -19.76 -24.6625 -19.4992C-24.7188 -19.7378 -24.6776 -19.5805 -24.3878 -19.4717C-24.3287 -19.4497 -24.4277 -19.557 -24.346 -19.5252C-24.3089 -19.5109 -24.2447 -19.4367 -24.1528 -19.402C-24.1082 -19.3849 -23.8854 -19.3235 -23.7742 -19.2123C-23.9174 -19.201 -23.7164 -18.9756 -23.9647 -19.0547C-23.5719 -18.8095 -23.3198 -18.588 -23.6877 -18.9852C-23.5739 -18.9421 -23.459 -18.8991 -23.343 -18.8563C-23.2872 -18.7929 -23.235 -18.7315 -23.1808 -18.6681C-23.1269 -18.7262 -23.1257 -18.7522 -22.87 -18.5671C-22.9739 -18.6584 -23.0768 -18.7484 -23.1804 -18.8377C-23.1755 -18.8532 -23.1823 -18.8769 -23.17 -18.8871C-23.0476 -18.7734 -22.6569 -18.503 -22.5711 -18.42C-22.4861 -18.3377 -22.6774 -18.4564 -22.6612 -18.4203C-22.5275 -18.1193 -22.4732 -18.2387 -22.322 -18.1005C-22.2337 -18.0185 -22.4804 -18.1613 -22.4319 -18.1191C-22.2532 -17.9625 -22.1068 -17.9812 -21.9295 -17.8637C-22.0242 -17.859 -22.1181 -17.8538 -22.21 -17.8489C-22.0224 -17.7226 -21.83 -17.5898 -21.6781 -17.4607C-21.6185 -17.4099 -21.6915 -17.4074 -21.6827 -17.3977C-21.6398 -17.3492 -21.4429 -17.1796 -21.4205 -17.1632C-21.2521 -17.0426 -21.2113 -17.0912 -21.0432 -16.9768C-21.1054 -17.0274 -21.1639 -17.0747 -21.2244 -17.1236C-21.1951 -17.2284 -21.1669 -17.3329 -21.1385 -17.4365C-20.97 -17.3324 -20.8 -17.227 -20.6279 -17.1205C-20.7706 -17.1738 -20.9123 -17.2278 -21.0522 -17.2815C-20.9111 -17.0849 -20.7708 -16.8832 -20.6314 -16.6766C-20.5011 -16.6496 -20.3752 -16.6271 -20.2497 -16.6064C-19.9999 -16.4149 -20.1825 -16.2634 -19.9454 -16.3405C-19.8787 -16.2727 -19.8119 -16.2043 -19.7449 -16.1356C-19.7391 -16.1673 -19.7333 -16.1989 -19.7276 -16.2304C-19.645 -16.1504 -19.5622 -16.0698 -19.4794 -15.9881C-19.6382 -15.972 -19.7961 -15.9515 -19.9483 -15.94C-19.7818 -15.7885 -19.7271 -15.8579 -19.6874 -15.8563C-19.5818 -15.852 -19.4847 -15.6818 -19.3953 -15.6846C-19.3648 -15.6862 -19.5102 -15.8651 -19.409 -15.876C-19.3902 -15.8773 -19.0004 -15.9129 -18.8762 -15.7545C-18.9062 -15.7183 -18.9516 -15.6801 -18.9873 -15.6431C-18.7907 -15.4658 -18.551 -15.6013 -18.5355 -15.6762C-18.4557 -15.5613 -18.2993 -15.4466 -18.3224 -15.3672C-18.2681 -15.3264 -18.214 -15.2859 -18.1595 -15.2448C-18.1061 -15.442 -17.8919 -15.2509 -17.9744 -15.1031C-18.073 -15.1682 -18.1713 -15.2328 -18.2689 -15.2972C-18.3135 -15.0812 -18.6757 -15.1916 -17.9637 -14.9076C-17.7851 -14.9114 -18.1777 -15.0445 -18.0367 -15.0415C-17.8456 -14.9619 -17.7139 -14.818 -17.511 -14.7665C-17.2571 -14.7028 -17.4464 -14.9546 -17.0554 -14.5226C-18.2567 -15.0054 -17.0292 -14.2468 -16.6483 -13.8327C-16.3326 -13.998 -15.8739 -13.8056 -15.3803 -13.3187C-15.4953 -13.284 -15.6392 -13.4512 -15.757 -13.4989C-15.8746 -13.5469 -15.8007 -13.423 -15.9496 -13.479C-16.0986 -13.5352 -16.3918 -13.6807 -16.5511 -13.7205C-16.4785 -13.6031 -16.0402 -13.1128 -16.2906 -13.4902C-15.9831 -13.3723 -15.8055 -13.3603 -15.4737 -13.135C-15.4673 -12.9424 -15.5284 -12.8706 -15.235 -12.6389C-15.2844 -12.944 -14.8545 -12.8057 -14.7965 -13.0402C-15.0433 -13.1564 -15.051 -12.8967 -15.2351 -12.9071C-15.253 -12.9081 -15.4212 -13.1007 -15.4737 -13.135C-15.1493 -13.1276 -15.0435 -13.1424 -15.0315 -13.4116C-14.8996 -13.2931 -14.7924 -13.2517 -14.8448 -13.1545C-14.7863 -13.1708 -14.7275 -13.1872 -14.6691 -13.2042C-14.6226 -13.1696 -14.5827 -13.1356 -14.5319 -13.1004C-14.7012 -13.0161 -14.5058 -13.0026 -14.4564 -12.8724C-14.4075 -12.7415 -14.6151 -12.7289 -14.3562 -12.5341C-14.4671 -12.5667 -14.5665 -12.5984 -14.6721 -12.6309C-14.5319 -12.4716 -14.3914 -12.3096 -14.2511 -12.1462C-14.4332 -12.1512 -14.7772 -12.2221 -14.8519 -12.1079C-14.7457 -12.0903 -14.5419 -11.8124 -14.5159 -11.7862C-14.4147 -11.6872 -14.4212 -11.8054 -14.4116 -11.8005C-14.2122 -11.6977 -14.0869 -11.5591 -13.9375 -11.6154C-13.8439 -11.4633 -13.7178 -11.4085 -13.5885 -11.3017C-13.5158 -11.2417 -13.5927 -11.1714 -13.5376 -11.1524C-13.1705 -11.0255 -13.3621 -11.3563 -12.9607 -10.703C-13.0738 -10.699 -13.1863 -10.6933 -13.2984 -10.6896C-13.2528 -10.6166 -13.2077 -10.5434 -13.1622 -10.4697C-13.1121 -10.4458 -13.0622 -10.4223 -13.012 -10.3983C-12.9141 -10.5268 -12.8162 -10.6556 -12.7183 -10.784C-12.666 -10.7538 -12.6135 -10.7233 -12.561 -10.693C-12.632 -10.7696 -12.7032 -10.8459 -12.7741 -10.9217C-12.7641 -10.9499 -12.7538 -10.9776 -12.7439 -11.0057C-12.5971 -10.9468 -12.4495 -10.8885 -12.3005 -10.8298C-12.333 -10.7831 -12.3658 -10.7361 -12.3984 -10.6893C-12.0773 -10.5375 -12.0389 -10.5727 -11.8767 -10.2397C-11.671 -10.0797 -11.6697 -9.761 -11.6244 -9.58685C-11.5641 -9.58063 -11.5032 -9.57477 -11.442 -9.56834C-11.4475 -9.50819 -11.4527 -9.44783 -11.4584 -9.38735C-11.3647 -9.40052 -11.2698 -9.4134 -11.1753 -9.42683C-11.246 -9.27823 -11.2633 -9.2268 -11.4943 -9.34631C-11.5496 -9.13598 -11.1512 -8.91288 -10.966 -8.84699C-10.8259 -8.79713 -10.8402 -9.02986 -10.814 -9.03453C-10.7251 -9.05204 -10.5831 -8.85673 -10.538 -8.83446C-10.3474 -8.74065 -10.24 -8.64092 -10.07 -8.55054C-10.0369 -8.53306 -9.88757 -8.55408 -9.87851 -8.55129C-9.81405 -8.52298 -9.64815 -8.45759 -9.63475 -8.44871C-8.84539 -7.90978 -9.94114 -8.17754 -9.22751 -7.64529C-9.28967 -7.61126 -9.34978 -7.5763 -9.41122 -7.54212C-9.36264 -7.49517 -9.31335 -7.44779 -9.26468 -7.40061C-9.16458 -7.3878 -9.17941 -7.53388 -9.10149 -7.35969C-9.0579 -7.43067 -9.01439 -7.50165 -8.97164 -7.57255C-8.94286 -7.49036 -8.91606 -7.40983 -8.88629 -7.32581C-8.61391 -7.47082 -8.23331 -7.24023 -8.03875 -7.52571C-7.97249 -7.62327 -8.14115 -7.91126 -7.93329 -7.90378C-7.81242 -7.83889 -7.97198 -7.78813 -7.93376 -7.74817C-7.65675 -7.4596 -7.54855 -7.62586 -7.45456 -7.48302C-7.48869 -7.40125 -7.523 -7.31719 -7.55751 -7.23407C-7.49373 -7.21433 -7.42964 -7.19448 -7.36506 -7.1744C-7.39068 -7.12085 -7.41592 -7.0668 -7.44165 -7.01313C-7.48915 -7.04727 -7.54228 -7.08597 -7.58594 -7.11695C-7.66296 -6.89369 -7.22994 -6.39527 -7.29763 -6.7042C-7.3261 -6.83 -7.49146 -6.92317 -7.2307 -7.05249C-7.11878 -6.91182 -6.98909 -6.75425 -6.8701 -6.60524C-6.82829 -6.64624 -6.78669 -6.6876 -6.74484 -6.72865C-6.57392 -6.53975 -6.90131 -6.50587 -6.98057 -6.41005C-6.93871 -6.37034 -6.89611 -6.33051 -6.8542 -6.29065C-6.79902 -6.31847 -6.74296 -6.34919 -6.6878 -6.37506C-6.74405 -6.30411 -6.85488 -6.12171 -6.67274 -6.07018C-6.55478 -6.03777 -6.541 -6.32689 -6.39849 -6.1663C-6.50279 -6.06683 -6.67278 -5.9839 -6.5226 -5.79472C-6.40822 -5.8941 -6.29477 -5.97827 -6.179 -6.08734C-6.04548 -5.78682 -5.79017 -5.87958 -5.63202 -5.52343C-5.53076 -5.29809 -5.55423 -4.79789 -5.05745 -5.17101C-4.92643 -5.08149 -5.06318 -4.99858 -5.04979 -4.9424C-4.98767 -4.67605 -4.67309 -4.78923 -4.62991 -4.77587C-4.35633 -4.68889 -4.33236 -4.53428 -4.07528 -4.49999C-4.16026 -4.41966 -4.23703 -4.34063 -4.31818 -4.2611C-4.35478 -4.52223 -4.43739 -4.58064 -4.67159 -4.73213C-4.61605 -4.65465 -4.56086 -4.57644 -4.50539 -4.49836C-4.57793 -4.43747 -4.65026 -4.37655 -4.72185 -4.31579C-5.12998 -5.15003 -5.3491 -4.58906 -4.89814 -4.01729C-4.73901 -4.10724 -4.57771 -4.19589 -4.41716 -4.28765C-4.2754 -3.81433 -3.97784 -3.85767 -3.57972 -3.58663C-3.53254 -3.55424 -3.44469 -3.33927 -3.38105 -3.27605C-3.38262 -3.2765 -3.3842 -3.27697 -3.38578 -3.27743C-3.45677 -3.11188 -3.56506 -3.10261 -3.67221 -2.99376C-3.64888 -2.94697 -3.62551 -2.90014 -3.60224 -2.85317C-3.44455 -2.8682 -3.40964 -2.96665 -3.2753 -2.80838C-3.37329 -2.73879 -3.47079 -2.66906 -3.56833 -2.59978C-3.40594 -2.44508 -3.21229 -2.44194 -3.094 -2.25812C-3.09029 -2.31574 -3.08625 -2.37304 -3.08271 -2.43045C-2.66771 -2.2081 -2.47331 -2.97922 -2.44547 -2.4856C-2.3881 -2.5169 -2.33068 -2.54911 -2.27313 -2.58054C-2.37097 -2.68705 -2.46908 -2.79275 -2.5663 -2.89787C-2.51141 -2.96443 -2.45696 -3.03086 -2.40168 -3.09702C-2.3029 -2.97755 -2.20408 -2.85632 -2.10529 -2.73554C-2.15122 -2.85325 -2.19788 -2.97089 -2.24437 -3.08745C-2.08203 -3.00243 -1.91882 -2.91717 -1.75483 -2.83169C-2.11279 -2.71512 -1.95265 -2.52405 -2.20005 -2.31538C-1.78756 -2.30274 -1.35947 -2.40611 -1.13818 -1.90565C-1.09442 -1.80607 -1.28956 -1.67007 -0.890734 -1.69227C-1.18747 -1.4645 -1.04163 -1.09884 -1.31165 -0.867237C-1.37222 -0.946533 -1.43964 -1.02338 -1.49547 -1.10297C-1.33512 -1.11989 -1.09703 -1.35731 -1.15327 -1.54052C-1.22572 -1.77395 -1.60535 -1.80565 -1.35225 -2.06968C-1.42609 -2.11182 -1.49074 -2.15528 -1.56073 -2.1977C-1.59588 -2.10861 -1.63211 -2.01939 -1.66804 -1.93036C-1.74453 -2.18836 -1.88327 -2.24814 -2.11407 -2.15314C-1.9467 -1.93377 -1.7795 -1.71312 -1.61195 -1.48998C-1.6522 -1.50549 -1.69289 -1.52127 -1.73267 -1.53717C-1.73636 -1.22283 -2.04145 -1.20285 -1.79292 -0.901193C-1.72244 -0.983163 -1.65158 -1.06485 -1.58076 -1.1472C-1.67013 -0.837117 -1.38768 -0.571765 -1.70237 -0.407468C-1.54848 -0.402981 -1.49014 -0.438313 -1.56547 -0.25879C-1.17979 -0.243051 -0.817409 -0.355138 -0.633131 -0.717086C-0.59337 -0.595346 -0.553934 -0.472945 -0.515205 -0.350489C-0.635038 -0.314689 -0.754109 -0.279539 -0.873017 -0.244228C-0.727641 -0.116557 -0.580859 0.0127968 -0.435387 0.141745C-0.204766 -0.083428 -0.643052 -0.18666 -0.367415 -0.320673C-0.312058 -0.347747 -0.318082 -0.185501 -0.276069 -0.190647C0.174627 -0.252795 -0.332321 -0.375016 -0.0883137 -0.515264C0.288341 -0.283744 0.337523 -0.854286 0.525001 -0.168015C0.600361 -0.226638 0.677997 -0.28591 0.752283 -0.345015C0.912302 -0.209066 0.755132 -0.0631323 0.86123 0.08846C0.927368 0.18368 1.29026 0.000714625 1.20802 0.275279C1.19176 0.325944 0.722062 0.522557 1.06077 0.810929C1.32391 1.03506 1.44594 0.694781 1.66246 0.733412C1.87729 0.767643 1.86247 1.39191 2.31659 1.08645C2.19787 1.07349 2.08249 1.01911 1.96558 0.989741C2.00425 0.885328 2.04278 0.782717 2.08101 0.679566C2.16893 0.938875 2.46213 0.992327 2.41292 1.28428C2.91288 1.22498 2.9397 1.73113 2.56775 1.98152C2.53265 1.86235 2.74756 1.80419 2.5561 1.79035C2.47567 1.85359 2.39509 1.91585 2.31485 1.97897C2.50674 2.14417 2.63325 2.26786 2.76173 1.96251C2.79559 1.98409 2.82919 2.00544 2.8631 2.02705C2.71381 2.19555 2.5633 2.36416 2.41384 2.53277C2.43026 2.58389 2.44692 2.63509 2.46326 2.68638C2.53491 2.6868 2.60721 2.68683 2.68006 2.6871C2.87543 2.377 2.79331 2.28528 3.22556 2.41657C3.14078 2.50772 3.05674 2.5989 2.97193 2.69005C3.32522 2.80958 3.54172 2.5947 3.84574 2.89744C3.90792 2.35458 3.24446 2.79252 3.84653 2.16074C3.74647 2.14647 3.64573 2.13225 3.54631 2.11786C3.62371 2.01809 3.70123 1.91833 3.7789 1.8191C4.06363 2.16057 4.01782 3.27809 4.61161 3.06364C4.58927 3.13726 4.57315 3.20454 4.54741 3.28252C4.99193 3.22854 4.54319 3.87056 5.06296 3.74765C5.11763 3.73425 5.58011 3.16467 5.84082 3.43974C5.76711 3.50221 5.6512 3.61479 5.56144 3.6964C5.66214 3.71014 5.76474 3.72154 5.86657 3.73379C5.81537 3.80771 5.76466 3.88216 5.71288 3.95668C5.58682 3.88543 5.46106 3.815 5.33584 3.74405C5.39898 3.84525 5.46259 3.94736 5.52558 4.04927C5.31441 4.04921 5.26463 4.00294 5.16856 4.23282C5.25333 4.33381 5.3377 4.4359 5.42256 4.5376C5.39045 4.59006 5.35773 4.64298 5.32554 4.69551C5.15496 4.77931 4.98729 4.85952 4.81611 4.94455C5.16021 5.08081 5.37707 5.28658 5.81605 5.21761C5.89059 5.20626 5.942 4.92465 6.01292 5.29356C6.10449 5.20702 6.18204 5.13982 6.26744 5.06044C6.29393 5.57816 6.44926 5.58763 6.90639 5.67072C6.55883 5.66929 6.8279 5.71204 6.78181 5.84872C6.74981 5.94271 6.63868 5.81465 6.58668 5.89456C6.5355 5.97367 6.42608 6.39633 6.26236 6.29533C6.47761 5.42705 5.74409 5.98376 5.56956 5.29596C5.56814 5.43077 5.56665 5.56666 5.56443 5.70238C5.48722 5.71827 5.41768 5.73302 5.33543 5.74915C5.6764 5.88432 5.49395 5.83566 5.50978 6.01812C5.52701 6.20195 5.62998 6.45101 5.72038 6.59134C5.7492 6.63577 5.83183 6.47426 5.92464 6.5466C5.98828 6.59547 5.95927 6.93465 6.20757 6.75563C6.37046 6.63847 6.50272 6.00411 6.8466 6.34904C7.04837 6.27596 6.83999 6.15394 6.85287 6.1339C6.98411 5.94078 7.3211 6.02721 7.29572 6.2505C7.29287 6.26932 7.08767 6.32012 7.12232 6.45461C7.20329 6.77508 7.46538 6.74459 7.79784 6.67341C7.57724 6.92286 7.46323 7.37568 7.76119 7.50242C7.70368 7.58142 7.64499 7.66056 7.58683 7.74017C7.59053 7.67072 7.59365 7.60187 7.59715 7.53264C7.51891 7.53898 7.45033 7.53155 7.36564 7.54623C7.51743 7.82004 7.21748 8.17938 7.19568 8.40482C7.11975 9.1782 7.79411 8.08599 7.88138 7.87238C7.77512 7.88688 7.66355 7.90985 7.55524 7.92759C7.64358 7.84968 7.73265 7.77117 7.82117 7.69227C8.33948 8.22681 8.44409 7.2325 8.86931 7.34533C8.52241 7.82338 8.68375 8.0724 9.19138 8.04976C9.21623 8.0789 9.24276 8.10662 9.26711 8.13633C9.20988 8.20159 9.11549 8.29443 9.08211 8.34188C9.3006 8.71 10.0126 8.11704 10.1037 8.08327C10.5074 7.93479 10.2208 8.40854 10.254 8.44892C10.3962 8.61733 10.6146 8.49381 10.6895 8.71451C10.7692 8.95279 10.526 8.97352 10.455 9.13864C10.3988 9.27029 10.507 9.4142 10.4595 9.56334C10.52 9.46364 10.5766 9.36323 10.6373 9.26352C10.9127 9.32363 11.1573 9.35523 11.3744 9.51961C10.9845 10.3175 12.1873 9.5191 11.2839 10.243C11.0491 10.1144 10.8559 10.1033 10.5528 10.2075C10.6413 10.3535 10.7305 10.4996 10.8187 10.6468C10.9434 10.5944 11.0563 10.534 11.1894 10.4862C11.0822 10.7631 11.367 10.8944 11.3835 11.0271C11.4701 11.6609 11.0169 11.8701 11.9132 11.6719C11.7341 11.3696 12.0098 11.1069 11.7373 10.8991C11.9835 10.7644 12.0633 10.9267 12.2208 10.6219C12.3924 10.9122 12.1072 11.0378 12.008 11.3091C11.9222 11.5433 12.0656 11.7139 11.8451 11.9063C11.9771 11.8121 12.102 11.7176 12.2342 11.6234C12.3802 11.7793 12.5275 11.9349 12.674 12.0923C12.7345 11.9089 12.7945 11.7259 12.8531 11.5442C12.9475 11.5501 13.042 11.5561 13.1368 11.5619C13.1171 12.3068 14.4717 12.3016 13.382 13.1216C13.5262 13.3399 13.6724 13.2474 13.9576 13.1737C13.8925 13.2558 13.8398 13.3257 13.766 13.4159C13.9592 13.4634 13.7628 13.8265 13.9321 13.8605C14.1026 13.8964 14.3993 13.6692 13.9559 14.11C14.1496 14.0562 14.3214 14.0223 14.5068 13.9761C14.4402 14.1139 14.3744 14.2508 14.3074 14.3881C14.4212 14.4014 14.5351 14.415 14.6495 14.4282C14.4596 14.6674 14.7871 14.8329 14.7391 15.0841C15.0771 14.9689 15.8368 14.2639 15.9344 14.6392C15.7382 14.8074 15.5427 14.9751 15.3467 15.1432C15.4391 15.1645 15.5318 15.1859 15.625 15.2076C15.6905 15.1539 15.7556 15.0997 15.8212 15.046C15.7746 15.0343 15.7286 15.0228 15.6815 15.0116C15.8104 14.9406 15.9385 14.8694 16.0673 14.7977C15.993 15.0285 15.9178 15.2603 15.8419 15.4932C15.6131 15.4822 15.3854 15.4709 15.1591 15.4593C15.1548 15.7384 15.3896 15.7152 15.3505 15.9909C15.719 15.8627 15.8351 15.6798 16.0809 15.37C16.0951 15.4348 16.1107 15.4993 16.1249 15.5643C16.3884 15.2722 16.6272 15.1857 16.374 14.9616C16.4719 14.9033 16.5664 14.8488 16.6673 14.7871C16.6923 14.8391 16.7865 14.8015 16.7964 14.8746C16.8235 15.074 16.3995 15.6324 16.2126 15.7873C16.1149 15.8682 16.1841 15.5848 16.0563 15.7103C15.7455 16.016 16.1379 16.1615 15.4563 16.0571C15.37 16.3768 15.5505 16.2656 15.7413 16.3582C15.6231 16.445 15.506 16.5314 15.3884 16.6186C15.4983 16.6417 15.6084 16.6651 15.7189 16.6882C16.1884 16.0882 16.8572 16.3962 16.9306 15.5047C17.0784 15.6139 17.2264 15.7228 17.3761 15.831C17.4084 15.7515 17.44 15.6725 17.4721 15.5932C17.3858 15.5613 17.3005 15.5294 17.2152 15.4969C17.3854 15.4716 17.5557 15.4468 17.727 15.4211C17.7548 15.7067 17.6068 15.9466 17.4265 16.2473C17.071 16.2234 17.3796 16.0639 17.288 15.868C17.1359 16.0156 16.9852 16.1395 16.8323 16.3023C17.2315 16.0881 17.2176 16.5457 17.2541 16.6189C17.3646 16.838 17.5627 16.409 17.6769 16.5197C17.7916 16.6303 17.7238 16.9436 18.136 16.7484C17.9528 16.9099 17.7578 17.0712 17.5863 17.2129C17.6925 17.4508 17.8747 17.2209 17.9199 17.2148C18.6562 17.1064 18.42 17.6192 18.6883 18.0146C18.5903 18.0212 18.4977 18.0223 18.4033 18.0252C18.247 18.643 18.2065 18.356 17.8724 18.2403C18.1039 18.4219 17.8777 18.8465 17.9111 19.091C17.9447 19.3353 18.3494 19.448 18.5717 19.4243C18.5973 19.006 18.2423 18.895 18.0871 18.5964C18.3012 18.4554 18.4858 18.3394 18.7202 18.1822C18.454 18.6856 18.7973 18.5349 18.8948 18.5364C19.1803 18.5417 18.8303 18.8439 19.2807 18.6011C19.1494 18.7112 19.0393 18.804 18.9164 18.9065C19.2325 19.1571 19.7588 19.2854 19.4404 19.8966C19.7693 19.6381 20.0833 19.3853 20.4217 19.1233C20.2959 19.4541 20.6333 19.3465 20.6716 19.4991C20.7089 19.6516 20.4174 19.8364 20.427 20.0456C20.4288 20.0842 20.6318 19.9906 20.5624 20.1505C20.4942 20.3107 19.7823 21.3007 20.5855 20.6446C20.6819 20.7475 20.7985 20.8232 20.903 20.916C20.8586 20.7757 20.8125 20.637 20.768 20.4979C21.0333 20.4188 21.2988 20.3393 21.5665 20.2593C21.4063 20.4181 21.243 20.5797 21.0844 20.7363C21.0815 21.1497 21.5096 21.0772 21.6513 21.3718C21.6746 21.4212 21.252 21.6224 21.4918 21.7238C21.7311 21.8258 22.4892 21.4024 22.5054 21.9183C22.5062 21.9445 22.0873 22.4607 22.5259 22.2742C22.6256 22.2319 22.6502 22.0288 22.8024 21.9975C22.9546 21.9662 23.2625 22.147 23.5236 21.9531C23.4342 22.025 23.3304 22.087 23.2353 22.1554C23.2306 22.2327 23.226 22.3106 23.2222 22.3879C23.3794 22.2605 23.5372 22.1331 23.6937 22.0062C23.5503 22.5516 23.0687 23.1788 23.5759 23.3744C23.2612 23.4653 22.9471 23.5565 22.6359 23.6468C22.7706 23.484 22.9061 23.3204 23.0407 23.1583C22.8347 23.0458 22.6297 22.9327 22.4256 22.8207C22.5803 22.6413 22.7341 22.4625 22.8871 22.2823C22.8246 22.2569 22.7633 22.2313 22.7009 22.206C22.5827 22.327 22.4652 22.4476 22.3472 22.5692C22.3015 22.4525 22.2562 22.3355 22.2106 22.2198C21.6131 23.0476 22.7114 22.6715 22.0549 23.1888C22.1866 23.1437 22.3194 23.0979 22.4524 23.052C22.1582 23.3332 22.3143 23.3371 22.4826 23.4365C22.3023 23.5347 22.1215 23.6276 21.9425 23.7295C22.2727 23.6831 22.4568 23.9454 22.6605 24.0176C22.75 24.0491 22.9246 23.7932 22.9671 23.7892C23.1881 23.7659 22.9447 24.2871 23.0081 24.2991C23.3874 24.3708 24.2797 23.8743 23.9891 24.5519C23.6445 24.3968 23.8167 24.4941 23.4591 24.6376C23.3468 24.6827 22.8843 24.4998 23.3164 24.8534C23.365 24.8946 24.5426 25.2151 24.7405 24.6181C24.7157 24.8517 24.6466 25.0764 24.6031 25.3079C25.9286 24.6756 24.8225 25.4362 24.1912 25.826C24.2269 25.8743 24.2575 25.923 24.2967 25.9707C24.8048 25.3739 25.2751 25.8554 25.1181 26.284C25.0655 26.4263 24.7388 26.4227 24.7586 26.6332C24.8522 26.661 24.9654 26.687 25.0674 26.7143C24.607 26.9345 24.6144 27.2467 24.2228 27.5672C24.6662 27.4021 25.4808 26.8834 25.825 26.4857C25.7467 26.7196 25.6682 26.9546 25.5872 27.1906C25.4558 27.2208 25.3249 27.2497 25.194 27.2798C25.71 27.4043 25.4887 28.2988 26.3807 27.681C26.4109 27.7298 26.4422 27.7785 26.4723 27.8274C26.342 27.9573 26.2109 28.087 26.0804 28.217C26.3649 28.3161 26.6516 28.4141 26.9395 28.5133C26.8829 28.2618 27.0504 28.0534 26.7328 28.0019C26.9553 27.9396 27.1804 27.8777 27.4031 27.8136C27.1942 28.456 26.9306 28.734 27.4109 29.053C27.4322 29.0675 28.0733 29.0844 28.1199 29.0654C28.3302 28.9792 28.5116 28.7035 28.6154 28.6569C28.9049 28.5258 29.8283 28.4161 29.9143 28.3348C30.9569 27.3328 29.8536 26.0746 29.6114 25.6988C27.0614 21.7984 23.2197 19.1033 20.1211 15.6957C20.0897 15.6605 20.2318 15.5609 20.2231 15.5416C20.1672 15.424 19.8829 15.5146 19.8426 15.489C19.7569 15.4339 19.9775 15.3085 19.9271 15.2572C19.4033 14.7327 18.8066 14.3329 18.2983 13.7655C18.2655 13.7289 18.1608 13.8923 18.1247 13.8085C18.1069 13.7645 18.2225 13.4701 18.1543 13.3965C17.9162 13.1395 17.6398 12.9954 17.3823 12.7348C17.2414 12.5922 17.0102 12.3982 16.8545 12.2393C16.7858 12.1692 16.8069 12.0102 16.7406 11.9397C16.6464 11.8396 16.4765 12.0358 16.4496 12.0319C16.3321 12.0148 16.5312 11.8124 16.4632 11.7557C16.3358 11.6504 16.1932 11.7751 16.0544 11.6165C15.9538 11.501 15.8117 11.1558 15.7052 10.9929C15.2256 10.8277 14.886 10.3779 14.6382 10.0444C14.4916 9.84687 14.2915 10.0059 14.2207 9.93633C13.973 9.69 14.0137 9.28645 13.7836 9.0556C13.4832 8.75445 13.0394 8.61984 12.7185 8.33618C12.6662 8.28996 12.8382 8.14609 12.7924 8.09541C12.623 7.90786 12.4161 7.66045 12.23 7.53024C12.0227 7.38496 11.7292 7.54349 11.5986 7.33314C11.5605 7.27139 11.7427 7.06424 11.6806 6.95903C11.5805 6.79172 11.2554 6.82051 11.1399 6.74985C10.9821 6.6526 11.2951 6.56424 11.0895 6.42622C11.081 6.42063 10.9135 6.53463 10.882 6.49274C10.789 6.37089 10.9125 6.27452 10.7353 6.13236C10.7173 6.11891 10.3611 6.04425 10.3386 6.02436C10.2058 5.90625 9.89808 5.71122 9.84891 5.61342C9.6723 5.26443 10.0911 5.25944 9.41647 5.48698C9.42214 5.28524 9.42922 5.08377 9.42389 4.88147C9.39937 5.04429 8.96585 4.91747 8.95466 4.88976C8.85653 4.66282 9.1259 4.58554 8.88125 4.41925C8.78017 5.06553 8.5534 4.21779 8.43665 4.09753C7.88423 3.51679 7.20529 3.09118 6.59347 2.54883C6.38723 2.36558 6.18495 2.04598 5.96455 1.85899C5.91354 1.81501 5.86902 1.93468 5.82255 1.89769C5.77676 1.86024 5.91922 1.80634 5.86332 1.76736C5.51636 1.53056 5.08899 1.48575 5.00324 1.00449C4.95793 1.02433 4.9341 1.05027 4.87633 1.06504C4.8209 0.654719 4.0987 0.522675 3.89203 0.408636C3.56686 0.230761 3.62105 0.0400288 3.39851 -0.101183C3.10346 -0.287438 2.48125 -0.364776 3.04215 -0.634212C2.87553 -0.796931 2.69491 -0.954352 2.47404 -1.07096C2.44926 -1.08399 2.36705 -0.967545 2.35677 -0.972362C2.29051 -1.00151 2.35966 -1.10923 2.32808 -1.14316C2.24254 -1.23509 2.29634 -0.992176 2.18824 -1.13811C2.13155 -1.21522 2.16502 -1.33079 1.96609 -1.49873C0.78241 -2.49493 -0.583736 -3.55683 -1.82441 -4.51951C-1.90967 -4.58577 -1.77458 -4.63122 -1.88658 -4.70969C-2.28983 -4.99333 -3.09582 -5.37966 -3.40043 -5.65222C-3.70642 -5.92453 -3.52607 -5.99223 -3.68421 -6.19982C-3.71469 -6.23988 -3.74319 -6.14465 -3.77944 -6.17073C-4.02214 -6.34599 -4.39717 -6.4541 -4.6112 -6.59335C-4.75093 -6.6834 -4.6487 -6.78341 -4.73299 -6.86042C-4.85895 -6.97468 -5.08882 -6.97211 -5.16305 -7.02355C-5.51139 -7.266 -5.66982 -7.52549 -6.01657 -7.71638C-5.98542 -7.73 -5.95978 -7.74506 -5.93073 -7.7598C-6.29949 -8.03025 -6.67608 -8.30551 -7.05964 -8.58455C-7.02533 -8.59136 -6.99143 -8.59881 -6.95675 -8.606C-7.41049 -8.9226 -7.53445 -8.66949 -7.12408 -9.0948C-7.14346 -9.13416 -7.16276 -9.17737 -7.18182 -9.21423C-7.36045 -8.97162 -7.76739 -8.99839 -8.14836 -9.18817C-8.17611 -9.20238 -8.16189 -9.54399 -8.35534 -9.27001C-8.34638 -9.36542 -8.3364 -9.42801 -8.32754 -9.51031C-8.46198 -9.4832 -8.59581 -9.45819 -8.72838 -9.43233C-8.75675 -9.47195 -8.78585 -9.51134 -8.8144 -9.55087C-8.77974 -9.60544 -8.73317 -9.65431 -8.70616 -9.71293C-8.8848 -9.85523 -9.30879 -10.0668 -9.44679 -10.177C-9.78988 -10.4526 -10.0498 -10.8371 -10.4313 -10.8937C-10.553 -11.0023 -10.3488 -11.0007 -10.5557 -11.1287C-10.6144 -11.0981 -10.6702 -11.0687 -10.7306 -11.0377C-10.7271 -11.3558 -10.8678 -11.2597 -11.128 -11.3793C-11.3049 -11.4605 -11.3674 -11.581 -11.5212 -11.6745C-11.5601 -11.6982 -11.6002 -11.6362 -11.624 -11.656C-11.7038 -11.7224 -11.8832 -11.9711 -11.9411 -12.0143C-12.4623 -12.4095 -12.93 -12.7167 -13.473 -13.0594C-13.5306 -13.0958 -13.418 -13.0987 -13.4779 -13.136C-13.574 -13.1961 -13.5799 -13.0782 -13.6368 -13.1112C-13.7948 -13.2037 -13.7326 -13.289 -13.9384 -13.4346C-14.6011 -13.9017 -15.4725 -14.3962 -16.1877 -14.8612C-16.21 -14.876 -16.1771 -14.9184 -16.2012 -14.9347C-16.3598 -15.0414 -16.5555 -15.0841 -16.7083 -15.1862C-16.9555 -15.3504 -17.0989 -15.5288 -17.341 -15.6844C-17.8177 -15.9913 -18.2329 -16.2149 -18.7388 -16.5363C-19.1428 -16.7916 -19.4845 -17.014 -19.9124 -17.2808C-21.8275 -18.4902 -23.7579 -19.743 -25.7381 -20.8406C-25.787 -20.8678 -25.778 -20.84 -25.7922 -20.8493C-25.9343 -20.9425 -25.9352 -20.9723 -26.0168 -20.9582C-26.1987 -21.0779 -26.2368 -21.1448 -26.4612 -21.2715C-26.5802 -21.3386 -26.5239 -21.2401 -26.7058 -21.3801C-26.8721 -21.5072 -26.6485 -21.4101 -27.2087 -21.7004C-27.2239 -21.7081 -27.3129 -21.7246 -27.4219 -21.7977C-27.5312 -21.8703 -27.3891 -21.8126 -27.6576 -21.9746C-28.2712 -22.3417 -29.0874 -22.7882 -29.8358 -23.2399C-29.8839 -23.2689 -30.3053 -23.5272 -30.4025 -23.5898C-30.5717 -23.6982 -30.5319 -23.6845 -30.7496 -23.8162C-30.9197 -23.9191 -31.0453 -23.9839 -31.2565 -24.1169C-31.2798 -24.1317 -31.317 -24.162 -31.4668 -24.2535ZM2.26463 2.6603C2.17098 2.82999 1.75683 3.39404 2.10703 3.4481C2.14061 3.45299 2.36333 3.00022 2.53091 3.05823C2.45282 2.91064 2.35409 2.79137 2.26513 2.65977C2.26496 2.65995 2.2648 2.66013 2.26463 2.6603ZM-32.5242 -24.9316C-32.3658 -24.7977 -32.1964 -24.6601 -32.0175 -24.5197C-32.1399 -24.618 -32.2583 -24.7139 -32.3719 -24.8069C-32.4241 -24.8485 -32.4746 -24.8898 -32.5242 -24.9316ZM-10.7701 -8.7582C-10.7703 -8.75833 -10.7704 -8.75847 -10.7706 -8.75861C-10.6284 -8.56867 -10.4862 -8.37641 -10.3443 -8.18215C-10.3372 -8.22996 -10.3302 -8.27786 -10.3232 -8.32549C-10.4229 -8.49407 -10.5232 -8.66101 -10.6233 -8.82595C-10.6723 -8.80327 -10.7213 -8.78073 -10.7701 -8.7582ZM-11.9105 -10.2177C-12.0543 -10.2755 -12.0716 -10.1941 -12.1797 -10.1882C-12.1796 -10.1883 -12.1795 -10.1885 -12.1795 -10.1886C-12.2078 -10.1872 -12.2958 -10.2372 -12.3276 -10.2593C-12.2881 -10.2867 -12.2457 -10.3112 -12.2054 -10.3378C-12.41 -10.6385 -13.1648 -10.7536 -12.5922 -10.0787C-12.5665 -10.1328 -12.5407 -10.1863 -12.5152 -10.2403C-12.1913 -9.95331 -11.7302 -9.74664 -11.9105 -10.2177ZM4.4897 5.31408C4.4911 5.83856 4.51459 5.98145 5.00538 6.12088C5.03535 5.99972 5.065 5.87887 5.09434 5.7583C4.96726 5.78235 4.84153 5.80609 4.71535 5.82977C4.7152 5.82962 4.71506 5.82947 4.71491 5.82932C4.78317 5.73828 4.85146 5.64713 4.91997 5.55664C4.77614 5.47578 4.63238 5.39463 4.4897 5.31408ZM-23.2429 -18.4914C-23.4209 -18.4051 -23.3419 -18.4731 -23.1293 -18.2745C-23.0556 -18.2053 -23.1522 -18.236 -23.1045 -18.1956C-22.8474 -17.9756 -22.7553 -18.0604 -22.7822 -18.1567C-22.9372 -18.27 -23.0927 -18.3827 -23.2424 -18.491C-23.2426 -18.4911 -23.2428 -18.4913 -23.2429 -18.4914ZM-30.5298 -23.4593C-30.53 -23.4595 -30.5302 -23.4596 -30.5304 -23.4597C-30.543 -23.4573 -30.4295 -23.3738 -30.5641 -23.458C-30.4681 -23.3899 -30.3587 -23.3132 -30.2701 -23.2507C-30.2974 -23.2711 -30.3222 -23.2898 -30.3522 -23.312C-30.3228 -23.2957 -30.2992 -23.2835 -30.2725 -23.2694C-30.2463 -23.2362 -30.2121 -23.2206 -30.1106 -23.1556C-30.1458 -23.163 -30.1805 -23.1707 -30.2149 -23.1788C-30.0995 -23.101 -29.9812 -23.0224 -29.8607 -22.9434C-29.8571 -22.9456 -29.8535 -22.9478 -29.8499 -22.95C-29.8081 -22.9148 -29.7666 -22.8795 -29.7244 -22.8435C-29.7095 -22.839 -29.695 -22.8348 -29.6799 -22.8303C-29.6273 -22.7892 -29.5742 -22.7476 -29.5209 -22.7056C-29.4971 -22.7045 -29.6162 -22.7933 -29.4015 -22.6411C-29.4593 -22.6973 -29.5205 -22.7548 -29.5802 -22.8105C-29.9125 -23.0346 -30.1965 -23.2284 -30.5298 -23.4593ZM-21.11 -16.916C-21.4492 -17.1695 -21.3699 -17.073 -21.3503 -16.9301C-21.2709 -16.9252 -21.1905 -16.9202 -21.11 -16.916ZM-4.09707 -3.49102C-4.12569 -3.27048 -4.15405 -3.04948 -4.17883 -2.82882C-4.06278 -2.57943 -3.65061 -2.66476 -3.70329 -2.89399C-3.76831 -3.1682 -4.06241 -3.19377 -4.09707 -3.49102ZM0.0163013 0.402809C-0.271776 0.266226 -0.233734 0.648866 -0.284745 0.805923C-0.0636407 0.689623 0.00747931 0.786196 0.163224 0.897208C0.0454478 0.762002 0.0645467 0.424846 0.0167573 0.402309C0.0166053 0.402476 0.0164533 0.402642 0.0163013 0.402809ZM-7.89847 -6.56206C-7.9899 -6.64689 -8.05591 -6.76092 -8.17395 -6.79181C-8.24396 -6.65463 -7.98921 -6.61486 -8.25109 -6.54683C-8.19372 -6.4919 -8.13613 -6.43683 -8.07936 -6.38165C-8.05792 -6.48619 -7.96268 -6.49544 -7.89904 -6.56188C-7.89885 -6.56194 -7.89866 -6.562 -7.89847 -6.56206ZM-17.881 -14.4181C-17.6262 -14.3575 -17.6148 -14.2942 -17.4629 -14.0838C-17.3831 -14.1347 -17.532 -14.4307 -17.6606 -14.5641C-17.7341 -14.5151 -17.8075 -14.4663 -17.881 -14.4181ZM22.2076 25.2081C22.5172 24.8712 22.2937 24.5082 22.0607 24.4331C22.0258 24.4954 21.9902 24.5583 21.9545 24.6212C22.039 24.8159 22.1237 25.012 22.2076 25.2081ZM0.240054 0.947193C0.212067 0.930625 0.186574 0.913828 0.163224 0.897208C0.184167 0.921116 0.209117 0.939106 0.240054 0.947193ZM10.1989 8.99864C10.3512 8.70994 10.637 8.84818 10.2935 8.6769C10.2937 8.67669 10.2939 8.67649 10.2941 8.67628C10.0676 8.5629 10.0154 8.5404 9.84228 8.40101C9.6167 8.73352 9.8264 9.15328 9.3381 8.7697C9.33219 8.76418 9.51115 8.61117 9.41929 8.56369C9.39086 8.54911 9.18568 8.61461 9.04335 8.54846C8.99733 8.52706 8.70648 8.31296 9.04321 8.6638C8.83799 8.84525 8.65857 9.05825 8.46834 9.24361C8.54279 9.43592 9.02771 9.16481 9.15833 9.31962C9.35131 9.55057 9.0605 10.0483 9.61958 9.58401C9.57173 9.27619 9.27176 8.96311 8.92639 9.22337C8.75527 9.05089 8.95619 8.75567 9.21707 8.77433C9.64512 9.5344 9.75397 8.57091 10.0696 9.30032C10.0034 9.37712 9.94675 9.47502 9.8754 9.53798C10.2888 9.45264 10.1447 9.10152 10.1989 8.99864ZM8.42273 8.26988C8.38182 8.5234 8.33119 8.77207 8.28143 9.02292C8.52252 8.78486 8.68584 8.51516 8.66002 8.21774C8.58073 8.23552 8.50118 8.25274 8.42273 8.26988ZM16.7351 17.3825C16.5816 17.549 16.4648 17.7292 16.3317 17.9037C16.5002 17.8091 17.3269 18.4757 17.1162 17.948C17.0846 17.8717 16.4774 17.7844 16.7351 17.3825ZM-19.1554 -15.4837C-19.0315 -15.4395 -18.9044 -15.3942 -18.7863 -15.3561C-18.9183 -15.4831 -19.0711 -15.6243 -19.2126 -15.7557C-19.193 -15.6657 -19.1743 -15.5752 -19.1554 -15.4837ZM-2.44152 -2.30889C-2.48358 -2.34027 -2.47366 -2.08973 -2.60767 -2.24905C-2.56973 -2.06052 -2.5281 -1.89048 -2.48977 -1.70695C-2.3997 -1.74026 -2.30925 -1.77315 -2.21865 -1.80677C-2.22929 -1.74182 -2.23928 -1.67651 -2.25013 -1.61132C-2.18218 -1.71933 -2.1146 -1.82345 -2.04642 -1.93356C-2.41358 -1.90436 -2.25471 -2.17021 -2.44152 -2.30889ZM-7.91338 -7.55298C-8.08503 -7.41716 -7.8798 -7.08006 -8.18349 -7.28791C-8.2195 -7.13475 -8.18153 -7.00561 -8.02539 -6.85652C-7.96428 -6.87622 -7.90332 -6.89575 -7.8419 -6.91564C-7.93156 -6.79966 -7.92376 -6.72203 -7.89847 -6.56206C-7.89829 -6.56213 -7.89809 -6.56218 -7.89791 -6.56224C-7.66109 -6.34461 -7.64715 -6.39709 -7.4317 -6.53574C-7.77444 -6.64542 -7.64158 -6.82547 -7.74081 -7.07747C-7.80911 -7.25056 -7.99797 -7.35385 -7.91338 -7.55298ZM15.9933 16.5393C15.8708 16.9811 15.4573 17.0592 16.0489 17.1092C16.1034 17.022 16.157 16.9353 16.2113 16.8482C16.1393 16.7443 16.0665 16.6414 15.9933 16.5393ZM-9.28858 -7.75434C-9.06729 -7.98378 -8.73347 -8.03586 -9.03522 -7.60446C-9.27047 -7.66375 -9.00223 -7.82348 -9.28858 -7.75434ZM0.421526 -0.193196C0.0911478 -0.464117 -0.190107 -0.035451 -0.236155 0.272896C-0.153843 0.222847 -0.0712835 0.172553 0.0105223 0.122326C0.0364806 0.204367 0.0622442 0.286708 0.0883231 0.368805C0.199815 0.181165 0.311116 -0.00647406 0.421526 -0.193196ZM-14.9605 -12.6777C-14.8067 -12.3475 -15.2916 -12.813 -15.1766 -12.5928C-15.0861 -12.4161 -14.7958 -12.4079 -14.8021 -12.5488C-14.8499 -12.5889 -14.9038 -12.6325 -14.96 -12.6773C-14.9602 -12.6774 -14.9603 -12.6776 -14.9605 -12.6777ZM-13.4902 -11.4862C-13.6521 -11.3636 -13.5512 -11.358 -13.7372 -11.548C-13.7911 -11.6027 -14.3011 -11.9089 -14.0096 -11.8824C-13.8437 -11.7544 -13.658 -11.6142 -13.4902 -11.4862ZM3.64636 3.58617C3.77002 3.46885 3.69538 2.88619 3.58863 2.91257C3.5888 2.91239 3.58898 2.91221 3.58914 2.91203C3.30258 2.98344 3.62448 3.34381 3.23661 3.44766C3.78046 3.55285 3.35369 4.17242 4.00996 3.44718C3.84932 3.23348 3.80057 3.46513 3.64636 3.58617ZM26.7338 28.6771C26.7339 28.6772 26.734 28.6774 26.7342 28.6776C26.7041 28.6629 26.2144 28.7417 26.1184 28.8596C26.4038 29.0126 26.5918 28.7904 26.4034 29.3049C26.5298 29.2215 26.6514 29.1392 26.7796 29.0559C26.7795 28.9128 26.8808 28.7504 26.7338 28.6771ZM17.8494 17.9061C17.8236 17.782 17.4953 17.8081 17.4245 17.7047C16.9361 18.6734 17.9504 18.4032 17.8494 17.9061ZM-27.1116 -21.1452C-27.1114 -21.145 -27.1112 -21.1448 -27.1109 -21.1446C-27.111 -21.1447 -27.1111 -21.1448 -27.1111 -21.1449C-27.1113 -21.145 -27.1115 -21.1451 -27.1116 -21.1452ZM11.7094 12.0011C11.7604 11.972 11.8019 11.9435 11.8355 11.9155C11.8384 11.9126 11.8414 11.9098 11.8444 11.907C11.8004 11.9384 11.7556 11.9698 11.7094 12.0011ZM4.26826 4.26811C4.56892 4.22399 4.38881 3.51903 4.18188 3.44796C4.11692 3.53572 4.05052 3.60806 3.98752 3.72044C4.29787 3.62872 4.21907 4.27473 4.26826 4.26811ZM-6.11672 -5.4166C-5.73468 -5.09586 -5.80051 -6.02359 -6.16153 -5.63704C-6.16726 -5.62875 -6.12579 -5.42583 -6.11672 -5.4166ZM1.54667 1.50407C1.63654 1.22647 1.86537 1.3451 1.54427 1.10718C1.48114 1.14112 1.41802 1.17514 1.35508 1.20897C1.41908 1.30687 1.48281 1.40545 1.54667 1.50407ZM-3.05559 -4.00883C-2.64271 -3.50272 -2.36831 -2.96326 -3.07458 -2.75627C-3.09579 -2.80208 -3.11796 -2.84773 -3.13925 -2.89335C-2.94648 -3.12631 -3.17624 -3.10882 -3.3797 -3.27565C-3.32925 -3.38925 -3.41913 -3.50402 -3.3735 -3.59698C-3.28568 -3.77651 -3.07057 -3.77237 -3.05559 -4.00883ZM-24.2951 -19.4391C-24.2946 -19.4221 -24.2943 -19.4051 -24.2937 -19.3881C-24.2214 -19.3212 -24.1488 -19.2536 -24.0762 -19.1853C-24.0741 -19.2171 -24.072 -19.2489 -24.0701 -19.2805C-24.1454 -19.3337 -24.2199 -19.3864 -24.2946 -19.4389C-24.2947 -19.439 -24.2949 -19.4391 -24.2951 -19.4391ZM8.63724 7.19317C8.10474 7.80253 8.07249 7.55368 8.07317 6.98481C8.26005 7.05406 8.44842 7.12386 8.63724 7.19317ZM-10.9669 -10.1384C-11.048 -10.0562 -11.1286 -9.97423 -11.2099 -9.89259C-11.3001 -10.1157 -11.19 -10.1929 -11.0168 -10.2508C-10.9999 -10.2133 -10.9837 -10.1761 -10.9669 -10.1384ZM-13.3769 -12.0177C-13.2916 -11.9807 -13.3783 -11.943 -13.3697 -11.9387C-13.1635 -11.8383 -13.119 -11.8539 -12.9406 -11.6419C-12.9276 -11.6046 -12.9157 -11.5667 -12.9031 -11.5287C-13.1354 -11.4311 -13.1356 -11.5801 -13.4203 -11.6386C-13.3383 -11.6682 -13.2561 -11.6984 -13.1731 -11.7288C-13.2982 -11.8033 -13.4264 -11.8806 -13.558 -11.9603C-13.5589 -11.9889 -13.5599 -12.0173 -13.5608 -12.0458C-13.5002 -12.0363 -13.4359 -12.0287 -13.3769 -12.0177ZM-25.2659 -20.0325C-25.3893 -20.1099 -25.5122 -20.1868 -25.6332 -20.2628C-25.6272 -20.2815 -25.6209 -20.3002 -25.6149 -20.3188C-25.4995 -20.2251 -25.3828 -20.1294 -25.2659 -20.0325ZM10.4595 9.56334C10.4357 9.60245 10.4115 9.64156 10.3859 9.68031C10.4249 9.6411 10.4471 9.60203 10.4595 9.56334ZM27.7507 28.3422C27.9553 28.3888 28.0427 28.6259 28.1798 28.7495C27.8126 29.0292 27.618 28.5916 27.3006 28.6421C27.3478 28.5701 27.6644 28.3223 27.7507 28.3422ZM-0.0276826 -0.573923C0.0195593 -0.686472 0.066205 -0.798338 0.113356 -0.910007C0.0312622 -0.966551 -0.0512889 -1.02261 -0.13347 -1.0793C-0.0729507 -1.15028 -0.0118555 -1.2218 0.0486271 -1.29276C0.295085 -0.914334 0.400914 -1.18006 0.746708 -1.23612C0.48767 -1.01508 0.230013 -0.794162 -0.0276826 -0.573923ZM-29.082 -22.6021C-28.8219 -22.4289 -28.7323 -22.354 -28.9004 -22.4259C-28.9902 -22.4929 -29.0797 -22.5593 -29.1679 -22.6242C-29.1393 -22.6166 -29.1105 -22.6091 -29.082 -22.6021ZM14.701 13.5462C14.7646 13.8459 15.1874 13.4599 15.13 13.865C14.9574 13.8363 14.7847 13.8084 14.614 13.7799C14.6432 13.7023 14.672 13.6237 14.701 13.5462ZM6.3449 3.37414C6.53867 3.33787 6.174 4.01525 6.79552 3.83755C6.73643 4.00748 6.66098 4.15318 6.59535 4.31425C6.74691 4.21408 6.90424 4.11561 7.05426 4.01476C7.05441 4.0149 7.05458 4.01505 7.05473 4.01519C7.22831 4.25578 6.93241 4.28672 6.80561 4.42555C6.7531 4.48343 7.00302 4.53844 6.83412 4.61374C6.54392 4.74194 6.3451 4.32311 6.09767 4.57495C6.28864 4.59742 6.43712 4.87306 6.20712 4.98143C5.95593 5.09961 6.05771 4.59413 5.77955 4.62422C6.35733 4.39789 5.85221 4.15962 5.51105 4.42543C5.51794 3.97701 5.81529 4.07598 6.03544 4.3048C6.12509 3.93543 6.20781 4.25886 6.43481 4.09397C6.40395 3.83765 5.80473 3.47335 6.3449 3.37414ZM-4.98528 -5.73497C-4.82792 -5.58656 -4.49286 -5.48507 -4.5091 -5.24312C-4.51993 -5.1023 -4.829 -5.24524 -4.77322 -4.96317C-4.91737 -5.10807 -4.90743 -5.19064 -4.77868 -5.28775C-4.80209 -5.3317 -4.82628 -5.37558 -4.85005 -5.41899C-4.88636 -5.40943 -4.9228 -5.40056 -4.95902 -5.39106C-4.93599 -5.45542 -4.91349 -5.51935 -4.89023 -5.58314C-4.93608 -5.60443 -4.98344 -5.62702 -5.03168 -5.64983C-5.01551 -5.67806 -5.00535 -5.70581 -4.98528 -5.73497ZM19.8686 19.2022C19.8316 19.155 19.7949 19.1083 19.7585 19.0606C19.8207 19.0145 19.8862 18.9673 19.9506 18.9205C20.0012 18.8831 20.0518 18.8457 20.1024 18.8084C19.9108 18.9308 19.4433 18.9638 19.5415 18.7175C19.5902 18.594 19.9994 18.415 19.8821 18.1779C19.9909 18.3286 20.0635 18.4937 20.1578 18.6509C20.2416 18.5554 20.3268 18.4595 20.4105 18.3641C20.4107 18.364 20.4109 18.364 20.4111 18.3639C20.4731 18.3892 20.5366 18.4141 20.5987 18.4394C20.3557 18.6937 20.1125 18.9474 19.8686 19.2022ZM-10.6903 -10.2134C-10.5909 -10.0183 -10.5695 -9.93746 -10.7403 -9.87349C-10.7405 -9.87357 -10.7407 -9.87364 -10.7409 -9.87371C-10.7568 -9.97314 -10.7731 -10.0721 -10.7896 -10.1704C-10.7567 -10.1848 -10.7238 -10.1993 -10.6903 -10.2134ZM12.4659 10.0522C11.8458 11.2298 11.742 10.0129 12.1753 9.84459C12.1971 9.83841 12.3375 10.1216 12.4659 10.0522ZM0.670676 -0.348715C0.588358 -0.432772 0.505447 -0.516187 0.422864 -0.600058C0.518597 -0.664708 0.61473 -0.728771 0.710839 -0.793667C0.698094 -0.64617 0.684535 -0.497466 0.670676 -0.348715ZM-27.8831 -21.9087C-27.7617 -21.8734 -27.482 -21.7212 -27.3691 -21.6035C-27.4424 -21.643 -27.5153 -21.6824 -27.5874 -21.7216C-27.4582 -21.6363 -27.3292 -21.5502 -27.1957 -21.4617C-27.2181 -21.4114 -27.3584 -21.5367 -27.5957 -21.6689C-27.6334 -21.6889 -27.8904 -21.7813 -27.9417 -21.8672C-27.9525 -21.8845 -27.7116 -21.7407 -27.862 -21.8668C-27.7887 -21.8235 -27.7261 -21.784 -27.6563 -21.7419C-27.6448 -21.7488 -27.6332 -21.7557 -27.6212 -21.7623C-27.7095 -21.8115 -27.7965 -21.8601 -27.8831 -21.9087ZM-4.05436 -4.94038C-3.81967 -4.76743 -3.86947 -4.65393 -3.96136 -4.45509C-4.04925 -4.56079 -4.13742 -4.66571 -4.2253 -4.77032C-4.16824 -4.82667 -4.11179 -4.88361 -4.05436 -4.94038ZM-25.6588 -20.5525C-25.5212 -20.4772 -25.6004 -20.4785 -25.5511 -20.4386C-25.3644 -20.2869 -25.2078 -20.2239 -25.013 -20.0783C-25.0219 -20.094 -25.0301 -20.1085 -25.0387 -20.1236C-25.0386 -20.1235 -25.0384 -20.1234 -25.0382 -20.1233C-24.0409 -19.5431 -24.6098 -19.775 -25.1832 -20.1604C-25.2055 -20.1556 -25.2272 -20.1505 -25.2494 -20.1459C-25.491 -20.334 -25.7086 -20.5005 -25.6588 -20.5525ZM9.78528 7.3536C9.83764 7.31996 10.0329 6.97465 10.052 7.2424C9.76726 7.74978 9.7758 7.36932 9.57493 7.47472C9.57602 7.55099 9.57891 7.62725 9.57934 7.7034C9.23347 7.58514 9.28782 7.45238 9.66887 7.25294C9.69526 7.24019 9.73305 7.3869 9.78528 7.3536ZM11.5594 8.68534C10.9736 9.31752 10.9513 8.74817 11.1519 8.57455C11.2013 8.60814 11.1297 8.74122 11.2201 8.74013C11.311 8.73943 11.4665 8.61084 11.5594 8.68534ZM2.55669 0.540135C2.5677 0.546179 2.85369 0.420481 2.69282 0.574738C2.22021 0.857229 2.22417 0.405927 2.38694 0.309311C2.4566 0.382836 2.4535 0.485071 2.55717 0.539618C2.55701 0.53979 2.55685 0.539963 2.55669 0.540135ZM-29.5018 -22.9308C-29.496 -22.9287 -29.2189 -22.7689 -29.1961 -22.7437C-29.1751 -22.7177 -29.1683 -22.6993 -29.1544 -22.6767C-29.2816 -22.769 -29.5934 -22.9569 -29.5013 -22.9305C-29.5015 -22.9306 -29.5016 -22.9307 -29.5018 -22.9308Z" fill="#8C8C8C"/>
</g>
</g>
<defs>
<clipPath id="clip0_126_10963">
<rect width="19" height="20" fill="white"/>
</clipPath>
</defs>
</svg>
