<svg width="26" height="25" viewBox="0 0 26 25" fill="none" xmlns="http://www.w3.org/2000/svg">
<path d="M3.29314 9.97427C3.23159 9.78282 3.38388 9.82041 3.26177 9.55807C3.27899 9.51889 3.29628 9.47898 3.31354 9.44C3.32948 9.5623 3.34555 9.68478 3.36154 9.80822C3.3388 9.86382 3.31605 9.91938 3.29319 9.97488C3.29318 9.97468 3.29316 9.97448 3.29314 9.97427ZM3.39464 11.5348C3.38706 11.1819 3.45566 11.0499 3.34406 10.7611C3.34817 10.8849 3.35248 11.008 3.35671 11.1302C3.32051 11.0479 3.28427 10.9687 3.2484 10.8934C3.24241 10.9428 3.23641 10.9919 3.23031 11.04C3.19948 10.8463 3.16887 10.6553 3.13835 10.4677C3.15213 10.4881 3.16614 10.5094 3.17998 10.5309C3.20967 10.3381 3.24421 10.2616 3.30229 10.1888C3.29248 10.1427 3.2825 10.0973 3.27294 10.0518C3.31152 10.1131 3.35076 10.1783 3.38975 10.2466C3.36987 10.3476 3.34754 10.4583 3.32903 10.5495C3.39884 10.8574 3.45451 10.644 3.48559 10.5537C3.528 10.4325 3.53068 10.6025 3.56253 10.5175C3.56762 10.5042 3.55716 10.3732 3.56889 10.3658C3.62812 10.3271 3.75113 10.3588 3.70881 10.6944C3.6063 10.6873 3.54254 10.9597 3.43758 10.9093C3.49317 11.239 3.45137 11.3729 3.39464 11.5348ZM5.15472 10.1267C5.13522 10.3116 5.06774 10.2406 5.01658 10.1152C5.01653 10.1152 5.01649 10.1152 5.01644 10.1153C5.00521 10.0876 4.96797 9.84456 4.99958 9.85304C5.05123 9.86777 5.09965 10.2506 5.10956 9.98876C5.12439 10.0367 5.13944 10.0794 5.15472 10.1267ZM5.26178 10.0993C5.298 10.192 5.30157 10.4814 5.25877 10.4049C5.25879 10.4052 5.2588 10.4054 5.25881 10.4056C5.24092 10.3737 5.25821 10.1438 5.21526 10.3783C5.19249 10.1984 5.17079 10.0347 5.14831 9.86059C5.16225 9.85707 5.17484 9.8518 5.18949 9.84887C5.19777 10.1458 5.22556 10.0073 5.26178 10.0993ZM3.7461 10.5219C3.72944 10.263 3.70993 10.2703 3.66172 10.1067C3.69394 10.102 3.72625 10.099 3.75839 10.0965C3.75424 10.2392 3.75022 10.3807 3.7461 10.5219ZM3.01486 10.8507C3.01482 10.8507 3.01477 10.8508 3.01473 10.8508C3.00781 10.8899 3.00084 10.9288 2.99395 10.9666C2.9813 10.8988 2.9688 10.8321 2.95624 10.7659C2.92767 10.8603 2.89869 10.9521 2.86968 11.0408C2.85453 10.8342 2.92019 10.8164 2.94032 10.6361C2.99737 10.6562 3.03434 10.7696 3.05546 10.9591C3.04194 10.9224 3.02843 10.8859 3.01486 10.8507ZM11.9457 11.4745C11.9618 11.4014 11.9777 11.3282 11.9938 11.2551C11.9791 11.2206 11.9641 11.1941 11.9495 11.1542C11.89 11.4728 11.9002 11.1889 11.8422 11.2058C11.6639 11.2584 11.6887 11.7588 11.5646 11.022C11.6891 11.0623 11.6559 10.7172 11.7447 10.4566C11.751 10.6584 11.6548 11.1083 11.7013 11.2048C11.7998 10.9961 11.895 10.8021 12.0004 10.6697C11.9993 10.6348 11.9982 10.5998 11.9971 10.565C11.9803 10.5861 11.9637 10.6074 11.947 10.6285C11.9685 10.5363 11.9896 10.4449 12.0116 10.3517C11.9792 10.5617 12.0405 10.4466 12.0208 10.6888C12.012 10.7966 11.98 10.9452 11.9606 11.0476C11.9947 11.1056 12.0298 11.1589 12.0641 11.2154C12.0404 11.3004 12.0167 11.3855 11.9933 11.4706C11.9775 11.4725 11.9618 11.4736 11.946 11.4755C11.9459 11.4751 11.9458 11.4748 11.9457 11.4745ZM19.8878 11.026C19.8201 11.2726 19.7334 11.3067 19.7149 11.0239C19.7726 11.0248 19.83 11.0252 19.8878 11.026ZM3.0735 11.115C3.06507 11.0814 3.05685 11.0484 3.04845 11.0155C3.06454 10.9354 3.08065 10.8538 3.09648 10.77C3.11063 10.8747 3.12491 10.9799 3.13923 11.0854C3.11737 11.095 3.09534 11.1046 3.0735 11.115ZM4.54062 10.5823C4.52402 10.5916 4.52219 10.5873 4.49936 10.5695C4.49939 10.5696 4.49943 10.5697 4.49946 10.5698C4.49049 10.5631 4.41345 10.489 4.41371 10.3842C4.44907 10.3799 4.48698 10.3791 4.52315 10.3767C4.52917 10.4452 4.53429 10.5132 4.54062 10.5823ZM4.11822 10.5561C4.11815 10.5559 4.11808 10.5557 4.11802 10.5555C4.10382 10.5414 4.089 10.5111 4.07514 10.5073C4.11066 10.3365 4.14112 10.6292 4.17846 10.5411C4.20695 10.4735 4.22236 10.3615 4.25816 10.4905C4.26925 10.5306 4.2823 10.5937 4.29826 10.6886C4.29286 10.7246 4.28778 10.7696 4.28273 10.8151C4.27916 10.8472 4.27561 10.8795 4.27197 10.9091C4.19783 10.753 4.19262 10.9071 4.15538 11.071C4.14297 10.899 4.13062 10.7282 4.11822 10.5561ZM11.2012 10.6962C11.1824 10.8776 11.1759 10.6987 11.1746 10.6965C11.1747 10.6963 11.1747 10.6961 11.1747 10.6959C11.0644 10.8604 11.1919 10.5957 11.0948 10.5637C11.111 10.5188 11.1272 10.4713 11.1433 10.4259C11.1624 10.5144 11.1821 10.6147 11.2012 10.6962ZM7.80346 10.6011C7.80138 10.5458 7.79911 10.4904 7.79703 10.4351C7.85687 10.4483 7.86807 10.2313 7.92113 10.4296C7.88188 10.4871 7.84267 10.5444 7.80347 10.6017C7.80347 10.6015 7.80346 10.6013 7.80346 10.6011ZM4.86564 10.9855C4.80703 11.1003 4.76421 11.1521 4.6895 10.9803C4.68944 10.9801 4.68937 10.9799 4.68931 10.9797C4.68496 10.9691 4.69383 10.8465 4.68701 10.8162C4.67542 10.8352 4.6641 10.864 4.65264 10.8865C4.64402 10.7894 4.63549 10.6923 4.62691 10.5957C4.6656 10.6209 4.70419 10.6461 4.74277 10.6713C4.73344 10.6148 4.724 10.5588 4.71463 10.5023C4.74389 10.4711 4.77278 10.44 4.80225 10.4089C4.80191 10.5688 4.80217 10.7289 4.80239 10.8894C4.82315 10.9217 4.84421 10.9527 4.86564 10.9855ZM8.79231 11.2054C8.78188 11.1462 8.80053 11.0472 8.78444 10.9962C8.76832 10.9457 8.73932 11.0558 8.74555 10.8889C8.76709 10.8667 8.78915 10.8413 8.81165 10.8181C8.73942 10.516 8.67 10.7874 8.66688 10.415C8.73606 10.5129 8.7908 10.469 8.85862 10.3678C8.8563 10.6622 8.7902 10.9163 8.83294 11.1934C8.81954 11.1972 8.80521 11.2027 8.79245 11.2048C8.7924 11.205 8.79236 11.2052 8.79231 11.2054ZM2.30308 12.9137C2.25574 12.8417 2.14867 12.6973 2.08397 12.5702C2.0677 12.5351 2.00973 12.3861 2.00934 12.3807C2.00749 12.3522 2.06376 12.3987 2.00029 12.3193C2.02076 12.3377 2.04044 12.3541 2.06056 12.3712C2.05386 12.3393 2.0473 12.3087 2.04101 12.2794C2.01769 12.27 1.99415 12.2591 1.97044 12.2468C1.96857 12.2397 1.96672 12.2327 1.96488 12.2259C2.05002 12.2696 1.99683 12.2167 2.03644 12.1975C1.99531 12.1716 1.95468 12.1541 1.91531 12.1453C1.93763 12.1467 1.96393 12.1484 1.98372 12.1511C1.98217 12.1125 1.93729 12.1281 1.92884 12.124C1.88221 12.1078 2.10664 12.0692 2.11312 11.9568C2.07769 11.9658 2.04097 11.98 2.00553 11.9978C2.01459 11.9825 2.02366 11.9658 2.03246 11.9481C2.116 11.9377 2.2091 11.9239 2.30985 11.9549C2.3179 11.9476 2.32593 11.9399 2.33383 11.9324C2.32616 11.8832 2.3187 11.8346 2.31115 11.7866C2.32302 11.7727 2.33503 11.7585 2.34683 11.744C2.32764 11.9383 2.37817 11.9005 2.45408 12.0065C2.427 12.0803 2.38062 12.0454 2.39537 12.1601C2.50484 12.059 2.6559 12.2151 2.75945 12.0672C2.78477 12.0279 2.7622 11.7973 2.83111 11.7994C2.83141 11.8266 2.83567 11.8747 2.83756 11.9098C2.94274 11.773 3.00409 11.6604 3.13669 11.7753C3.12014 11.6727 3.10373 11.5706 3.08731 11.4701C3.06696 11.5306 3.0465 11.5902 3.02598 11.647C2.99347 11.4899 3.01198 11.4074 2.93733 11.4426C2.87613 11.4717 2.91913 11.5233 2.90675 11.5758C2.88989 11.6455 2.85852 11.5342 2.84053 11.6111C2.82649 11.6689 2.85862 11.7817 2.80597 11.7663C2.8113 11.6092 2.81598 11.4401 2.8202 11.2678C2.83544 11.2958 2.8507 11.3254 2.86612 11.3557C2.85825 11.4055 2.85045 11.4537 2.84242 11.5015C2.8777 11.4058 2.91057 11.3101 2.94608 11.1997C2.95519 11.4538 2.99181 11.3401 3.01351 11.2975C3.04733 11.2315 3.0311 11.4242 3.0535 11.3837C3.07593 11.3439 3.084 11.1263 3.13325 11.1474C3.1201 11.2795 3.16315 11.3733 3.16706 11.4883C3.17097 11.6031 3.12459 11.6383 3.18247 11.7489C3.26354 11.634 3.12714 11.2322 3.18068 11.1382C3.24432 11.0146 3.32779 11.746 3.32025 11.9059C3.31429 12.0311 3.25296 12.0117 3.24639 12.1306C3.37262 12.3465 3.33395 11.9118 3.34411 11.821C3.38091 11.4914 3.41302 12.3515 3.46342 12.0359C3.47636 12.1989 3.48812 12.3452 3.50044 12.5012C3.51166 12.4725 3.51735 12.4334 3.53193 12.4103C3.45453 12.0897 3.49601 12.1044 3.51651 12.1021C3.54882 12.0991 3.48497 11.9452 3.48999 11.9045C3.50357 11.7936 3.54431 11.8374 3.50944 11.6977C3.52529 11.7626 3.54202 11.8282 3.55813 11.8937C3.5887 11.8105 3.61507 11.0722 3.54377 11.2387C3.52878 10.973 3.56677 11.0906 3.59138 11.1257C3.61598 11.1606 3.60097 10.9898 3.62221 11.0159C3.70678 11.1222 3.68362 11.4332 3.6915 11.6644C3.77552 11.4892 3.67119 11.3997 3.80239 11.2638C3.79992 11.0668 3.71802 10.8782 3.76271 10.7522C3.8005 11.0849 3.86029 11.3183 3.94668 11.4212C3.94779 11.3415 3.94883 11.261 3.94996 11.181C4.01767 11.4906 4.02258 11.8258 4.0688 11.4214C4.085 12.1541 4.07679 11.6843 4.16945 11.9763C4.1882 12.0354 4.16774 12.1893 4.19335 12.265C4.20477 12.2993 4.21784 12.1832 4.24703 12.2704C4.26136 12.3135 4.33378 12.5941 4.35826 12.457C4.30525 12.1024 4.34894 11.7938 4.26894 11.5035C4.29433 11.518 4.31708 11.5202 4.33614 11.5206C4.40026 11.5223 4.42246 11.504 4.3626 11.8701C4.36172 11.8755 4.36084 11.8809 4.35993 11.8864C4.36162 11.8915 4.3633 11.8966 4.36499 11.9017C4.39828 12.0025 4.43141 12.1029 4.46435 12.2032C4.47655 12.1167 4.48901 12.0309 4.50149 11.9451C4.52592 12.238 4.52921 12.3204 4.59806 12.2635C4.57159 12.335 4.54537 12.4077 4.51889 12.4798C4.5222 12.5391 4.52236 12.601 4.52768 12.6584C4.55806 12.5428 4.66325 12.4863 4.68393 12.4064C4.70467 12.3264 4.6523 12.3088 4.65443 12.2326C4.67318 11.6041 4.70112 12.0646 4.73889 11.9543C4.76112 11.8891 4.69256 11.8248 4.70492 11.7969C4.75106 11.6943 4.79872 12.0241 4.84559 12.025C4.81609 11.8381 4.78637 11.6482 4.75683 11.4594C4.80728 11.466 4.86097 11.4641 4.90477 11.4007C4.92166 11.376 4.89833 11.2371 4.90071 11.2275C4.91249 11.1785 4.96848 11.0987 4.97489 11.0978C5.02341 11.0938 5.03739 11.2872 5.08497 11.2949C5.06761 11.3124 5.05125 11.3282 5.03426 11.3451C5.04651 11.6593 5.05873 11.9736 5.07126 12.2884C5.11814 12.3081 5.16484 12.3274 5.21151 12.3471C5.17182 12.2447 5.1318 12.1427 5.09165 12.0402C5.12729 11.7833 5.16337 11.5262 5.19991 11.2696C5.23695 11.4235 5.27362 11.5773 5.31017 11.731C5.38086 11.6856 5.32829 11.0564 5.39625 11.6064C5.41504 11.5585 5.43387 11.5107 5.45273 11.4635C5.45429 11.5423 5.45589 11.6214 5.45747 11.7002C5.48054 11.6504 5.50364 11.6008 5.52671 11.5505C5.48336 11.2735 5.43928 10.9817 5.39586 10.7124C5.44415 10.6495 5.4589 10.8858 5.47002 10.9444C5.49952 11.0996 5.52744 10.8871 5.55229 11.0308C5.56031 11.0801 5.51903 11.238 5.54663 11.4164C5.55163 11.4512 5.65755 12.106 5.69215 11.9514C5.68471 11.8322 5.67321 11.6862 5.66421 11.5566C5.71906 11.4813 5.78257 12.1014 5.78432 12.2761C5.80851 12.1522 5.85297 12.1394 5.8492 11.9487C5.86472 11.9432 5.88012 11.938 5.89562 11.9325C5.90362 12.3968 5.96427 12.308 5.94811 11.9098C5.9206 11.9014 5.89298 11.8924 5.86536 11.884C5.86003 11.3945 5.76224 11.1038 5.95775 11.5479C6.00347 11.8 5.89769 11.5161 5.93417 11.7049C5.98617 11.8132 6.02491 11.7186 6.07739 11.8928C6.14254 12.1103 6.08614 12.3253 6.1985 12.0385C5.88609 11.3504 6.21168 11.5622 6.33787 11.3406C6.40607 12.0302 6.52661 12.2417 6.67097 12.0302C6.64744 11.8398 6.60315 11.9403 6.57271 11.8786C6.5422 11.8167 6.56772 11.7018 6.52912 11.6137C6.49051 11.5256 6.41072 11.4066 6.36889 11.2722C6.39434 11.1622 6.53286 10.9013 6.44727 11.2125C6.52901 11.4002 6.57128 11.5938 6.66264 11.6259C6.67774 11.3269 6.66862 11.1414 6.75637 11.1307C6.7203 11.5457 6.83041 11.8296 6.82446 12.2571C6.75952 12.1606 6.77803 11.7439 6.73462 11.5464C6.73017 11.5266 6.67638 11.6328 6.66264 11.6259C6.73585 11.9974 6.76059 12.1348 6.74259 12.581C6.78168 12.5399 6.80895 12.5942 6.80465 12.3822C6.81659 12.4736 6.82853 12.5651 6.84025 12.6565C6.8533 12.6535 6.86481 12.6443 6.87878 12.6453C6.84785 12.3272 6.89227 12.5216 6.91349 12.3757C6.93509 12.2298 6.88921 11.9797 6.964 11.9734C6.93628 11.8998 6.91151 11.8367 6.88533 11.7669C6.92907 11.6831 6.97619 11.5991 7.02173 11.5159C6.98122 11.3227 6.89642 11.0354 6.88926 10.7791C6.91542 10.8754 6.98726 10.7044 6.99557 10.6974C7.02763 10.671 7.01505 10.8323 7.01768 10.8362C7.07183 10.9137 7.1124 10.8584 7.1395 11.1017C7.17449 10.9912 7.20542 11.0534 7.24583 11.0466C7.26806 11.0428 7.25849 10.8645 7.27258 10.8982C7.36609 11.1233 7.28951 11.3536 7.44456 10.9142C7.42111 10.7906 7.3977 10.6639 7.37392 10.5388C7.39165 10.492 7.40928 10.445 7.42707 10.3984C7.44038 10.4209 7.45356 10.4436 7.46683 10.4662C7.47345 10.7344 7.48004 11.0033 7.48667 11.2715C7.50077 11.2859 7.51489 11.2999 7.52895 11.3143C7.50612 11.3411 7.48323 11.3679 7.46041 11.3948C7.4595 11.4421 7.45874 11.4894 7.45784 11.5366C7.49466 11.6091 7.53101 11.682 7.56759 11.7547C7.56599 11.6615 7.56436 11.5677 7.56276 11.4745C7.64619 11.6028 7.64947 11.6809 7.71977 11.4239C7.77819 11.4257 7.8178 11.0376 7.84868 10.8747C7.86186 10.9266 7.87504 10.9791 7.88828 11.0309C7.8946 10.9539 7.90104 10.8773 7.90742 10.8004C7.92485 10.9075 7.94238 11.0144 7.95959 11.1207C7.96385 10.878 7.96715 10.8024 7.90523 10.717C7.9204 10.415 8.02947 10.5494 8.07392 10.6507C8.10773 10.7276 8.07541 10.9783 8.07999 11.0089C8.09515 11.1126 8.14715 11.0231 8.1586 11.0404C8.20701 11.1119 8.2414 11.0994 8.28542 11.1547C8.29404 11.1658 8.3195 11.3241 8.32154 11.329C8.33745 11.356 8.37661 11.4328 8.38097 11.4349C8.6063 11.5522 8.36026 10.8672 8.57024 10.9407C8.56334 10.8506 8.55692 10.761 8.5501 10.6708C8.56594 10.6655 8.58194 10.6605 8.59777 10.6552C8.61835 10.7308 8.59492 10.8673 8.63406 10.7574C8.63213 10.8683 8.6302 10.9792 8.62816 11.0895C8.64502 11.0298 8.6613 10.9706 8.67864 10.911C8.70848 11.2959 8.80861 11.3832 8.80289 11.8335C8.80079 11.9866 8.73152 12.1448 8.76906 12.308C8.7991 12.3398 8.77821 12.157 8.79041 12.1473C8.8801 12.0796 8.87559 12.3359 8.91212 12.2671C8.91776 12.1573 8.92375 12.0455 8.9296 11.9347C8.94354 11.9668 8.95748 11.9989 8.97149 12.031C8.97471 11.9573 8.97809 11.8836 8.98133 11.81C8.96822 11.8051 8.95344 11.8001 8.94139 11.7953C8.95797 11.5096 9.11299 11.3828 9.05367 11.6252C9.0296 11.7237 8.98587 11.6819 9.01331 12.0186C9.05437 11.9699 9.10096 11.9203 9.1442 11.8719C9.14532 11.9442 9.14636 12.0167 9.14747 12.089C9.20546 12.042 9.15386 11.7531 9.15435 11.5981C9.1677 11.5938 9.18119 11.59 9.19453 11.5858C9.19992 11.6558 9.20498 11.7291 9.2106 11.797C9.21157 11.6856 9.22017 11.4267 9.25943 11.5232C9.28458 11.5859 9.24315 11.8664 9.2917 11.8277C9.28908 11.6542 9.2726 11.4425 9.32714 11.3872C9.33142 11.5683 9.33777 11.7342 9.34067 11.9244C9.40821 11.7509 9.43776 12.0302 9.51892 11.829C9.57039 11.7017 9.64537 11.2509 9.66936 11.9475C9.70577 11.9662 9.69633 11.7928 9.7077 11.7539C9.76152 11.5703 9.79502 11.9006 9.80415 11.9201C9.86282 12.045 9.89169 11.9314 9.93815 12.0874C9.93768 11.9589 9.93829 11.8373 9.93826 11.712C9.88983 11.9037 9.86733 11.8944 9.80443 11.8521C9.82611 11.8266 9.84781 11.8004 9.86949 11.7749C9.86765 11.6705 9.86582 11.5661 9.86407 11.4622C9.66085 11.8705 9.71514 11.2202 9.8842 11.082C9.89551 11.2755 9.9072 11.4683 9.91805 11.6621C10.0174 11.3714 10.0605 11.6263 10.1674 11.6891C10.1802 11.6963 10.2296 11.5865 10.25 11.5815C10.2496 11.5807 10.2493 11.58 10.249 11.5792C10.2656 11.3978 10.2505 11.3138 10.252 11.1513C10.2635 11.1312 10.275 11.1112 10.2865 11.0911C10.3083 11.2156 10.2973 11.317 10.3462 11.2888C10.3427 11.1654 10.3391 11.042 10.3355 10.9185C10.3888 10.9158 10.4202 11.0506 10.4709 10.9942C10.4614 11.0405 10.4521 11.087 10.4426 11.1334C10.5464 11.2553 10.4424 11.9768 10.5321 11.6187C10.5355 11.682 10.5387 11.7459 10.542 11.8091C10.5088 11.8238 10.4755 11.8379 10.4423 11.8526C10.4393 11.942 10.4363 12.031 10.4335 12.1204C10.4692 12.0945 10.5051 12.0677 10.5408 12.0419C10.5136 12.1012 10.4864 12.1606 10.4593 12.2199C10.4988 12.2637 10.5375 12.3076 10.5776 12.3515C10.5432 12.0218 10.6009 11.9831 10.5995 11.6575C10.6512 11.8716 10.6906 12.1384 10.7627 12.1349C10.7825 12.1339 10.8048 12.1125 10.8305 12.0641C10.8542 12.0193 10.8498 11.7916 10.9036 12.0703C10.9004 11.7082 10.9856 11.5412 10.9874 11.197C10.9646 11.2128 10.9412 11.2225 10.919 11.2421C10.9395 11.3622 10.9323 11.6905 10.8921 11.7866C10.8409 11.9091 10.7791 11.6795 10.7705 12.0438C10.7689 12.0423 10.7673 12.0408 10.7657 12.0393C10.7492 12.0242 10.7335 12.0142 10.7172 12.0005C10.7275 11.9104 10.7377 11.8197 10.7479 11.7295C10.6912 11.8696 10.6599 11.8226 10.6412 11.594C10.6886 11.5567 10.7358 11.5197 10.7831 11.4829C10.7999 11.4698 10.8168 11.4567 10.8336 11.4436C10.8249 11.4278 10.816 11.4119 10.8073 11.3966C10.8622 11.1654 10.8202 10.9434 10.9108 10.8966C10.9067 11.003 10.9027 11.1095 10.8986 11.2164C10.9402 10.9329 11.0287 10.9375 11.0119 10.6091C11.0352 10.7106 11.0383 10.7744 11.0597 10.5985C11.1216 10.8497 11.1544 11.166 11.1157 11.5405C11.1437 11.4811 11.1725 11.4215 11.2008 11.3621C11.1895 11.2589 11.1782 11.1561 11.1668 11.0528C11.2125 11.061 11.2583 11.0691 11.3036 11.0768C11.2959 11.3807 11.2122 11.1655 11.2282 11.438C11.2313 11.4927 11.2604 11.3769 11.2656 11.4079C11.3201 11.7427 11.2234 11.4985 11.2334 11.7538C11.3307 11.8364 11.2332 12.2595 11.3853 11.9069C11.3853 11.9947 11.3854 12.0843 11.3851 12.1716C11.4323 12.1789 11.4369 11.9806 11.4794 11.945C11.5061 11.9228 11.5227 12.272 11.5614 12.0364C11.5684 11.993 11.5397 11.5658 11.639 11.589C11.7159 11.6071 11.6699 11.906 11.7071 12.0143C11.7441 12.1227 11.8611 11.711 11.866 12.1845C11.8471 12.1209 11.8207 12.0857 11.7987 12.0333C11.7843 12.1247 11.7703 12.2152 11.7561 12.3061C11.8177 12.1901 11.8683 12.3329 11.9168 12.1156C11.974 12.4545 12.0726 12.1478 12.0702 11.7682C12.0428 11.8215 12.0609 11.9879 12.0323 11.881C12.0335 11.7926 12.0343 11.7046 12.0354 11.6163C12.0931 11.63 12.1334 11.6297 12.0927 11.8971C12.1014 11.904 12.1099 11.9109 12.1185 11.9178C12.1306 11.7233 12.1424 11.5281 12.1545 11.3336C12.1664 11.3123 12.1784 11.2911 12.1904 11.2698C12.2001 11.3132 12.2098 11.3571 12.2196 11.401C12.1865 11.708 12.1582 11.7166 12.2405 11.8937C12.2467 11.7874 12.2529 11.6815 12.2591 11.5752C12.3291 11.7147 12.3165 11.9724 12.4135 11.9684C12.3184 12.3333 12.315 11.6765 12.2735 12.4172C12.2578 12.3676 12.2419 12.3172 12.226 12.2676C12.2172 12.3748 12.2085 12.4823 12.1999 12.5895C12.3016 12.5383 12.5082 11.8416 12.5465 12.3139C12.558 12.2573 12.569 12.2081 12.5809 12.1471C12.6284 12.4337 12.6957 11.8009 12.7386 12.1705C12.743 12.2093 12.6914 12.8044 12.7782 12.7885C12.7811 12.7109 12.7883 12.5804 12.7928 12.4826C12.8084 12.5313 12.8236 12.5822 12.8389 12.632C12.8469 12.5607 12.855 12.4894 12.863 12.4175C12.8331 12.3877 12.8033 12.3574 12.7732 12.3276C12.8012 12.3048 12.8294 12.2819 12.8574 12.259C12.8305 12.1399 12.8149 12.1376 12.8478 11.9516C12.8785 11.9423 12.9094 11.9323 12.9401 11.9231C12.9464 11.8753 12.9526 11.8269 12.9589 11.7791C12.9537 11.635 12.9481 11.4941 12.9429 11.3479C13.0141 11.47 13.082 11.4809 13.123 11.7663C13.13 11.8146 13.0812 11.9985 13.1622 11.8351C13.1565 11.934 13.1529 12.0143 13.1478 12.1056C13.2517 11.8348 13.2738 11.9194 13.3487 12.1254C13.3044 11.9349 13.3472 12.0598 13.3689 11.961C13.3839 11.8929 13.3439 11.9003 13.3534 11.8285C13.3629 11.7573 13.4348 11.4721 13.3934 11.4342C13.2437 12.0187 13.2652 11.3088 13.1077 11.584C13.134 11.5091 13.1606 11.434 13.187 11.3591C13.1806 11.3066 13.1748 11.2591 13.1677 11.2034C13.2368 11.3245 13.2045 11.2467 13.2424 11.1575C13.2804 11.0684 13.3431 10.9948 13.384 10.9725C13.3968 10.9655 13.3745 11.0974 13.4012 11.1117C13.4194 11.1216 13.4849 10.9284 13.4801 11.1613C13.4768 11.3129 13.3652 11.7231 13.4783 11.7302C13.4889 11.8799 13.4381 11.8299 13.4356 11.8477C13.4132 12.0232 13.4727 12.1606 13.5145 12.0284C13.5179 12.017 13.5026 11.8779 13.5341 11.8261C13.6088 11.7022 13.635 11.8624 13.6611 12.0786C13.6843 11.8291 13.7618 11.5349 13.8231 11.6324C13.832 11.5612 13.8409 11.4894 13.8499 11.4176C13.8364 11.4547 13.8229 11.4912 13.8094 11.5282C13.8012 11.4825 13.7914 11.4489 13.7841 11.3952C13.8577 11.339 13.8938 10.9956 13.937 10.8722C14.0848 10.4509 13.9446 11.3555 13.9121 11.5108C13.9023 11.4461 13.8934 11.3741 13.8839 11.3063C13.8788 11.3934 13.8737 11.4812 13.8685 11.5688C14.0384 11.5793 13.8506 12.1355 13.9237 12.3038C13.9791 11.8776 14.0457 11.8413 14.1039 12.1192C14.1129 12.1178 14.1218 12.118 14.1309 12.116C14.1374 12.0538 14.145 11.9584 14.1508 11.9175C14.2532 11.8527 14.2165 12.513 14.2204 12.5762C14.2379 12.8563 14.3006 12.4758 14.3129 12.4735C14.3642 12.4644 14.3646 12.6356 14.4184 12.5666C14.4764 12.492 14.4522 12.3585 14.4777 12.2431C14.4981 12.1514 14.5401 12.1383 14.565 12.0436C14.5517 12.1216 14.5378 12.1981 14.5245 12.2765C14.5687 12.3882 14.6033 12.4963 14.6614 12.5276C14.7792 11.9583 14.7531 12.9336 14.7979 12.1447C14.7453 12.0858 14.721 11.9934 14.7074 11.7902C14.7474 11.7679 14.7873 11.7462 14.8273 11.7239C14.8308 11.8112 14.8313 11.8961 14.8366 11.9852C14.8807 11.8042 14.9395 11.8887 14.9699 11.8371C15.1126 11.5956 15.1035 11.2796 15.1665 11.815C15.0827 11.8591 15.0601 12.1145 14.9848 12.0723C14.9856 12.2562 15.0287 12.2219 14.9836 12.4382C15.064 12.3911 15.0569 12.1938 15.1019 12.0232C15.1407 11.8761 15.1928 11.8723 15.2074 11.678C15.203 11.7852 15.1978 11.8888 15.1934 11.9959C15.2427 11.9992 15.2918 12.0036 15.341 12.007C15.3099 12.1165 15.2789 12.2262 15.2479 12.3352C15.2599 12.3787 15.2719 12.422 15.2839 12.4655C15.436 12.13 15.5854 12.7842 15.6329 11.9109C15.6938 11.8886 15.691 11.9984 15.7072 12.166C15.7169 12.1003 15.7254 12.0456 15.7358 11.9724C15.7669 12.0451 15.819 11.7998 15.8462 11.8674C15.8733 11.9345 15.8595 12.1695 15.9014 11.7762C15.9123 11.8912 15.9248 11.987 15.9362 12.094C15.9575 12.0058 15.9787 11.9186 15.9999 11.8309C16.0156 11.8797 16.0314 11.9283 16.047 11.9771C16.0757 11.7901 16.1472 11.8787 16.1942 11.7558C16.208 11.9616 16.146 12.5994 16.2347 12.4925C16.2479 12.3341 16.2611 12.1762 16.2743 12.0178C16.2889 12.0525 16.3037 12.0872 16.3185 12.1219C16.3146 12.1737 16.3105 12.2254 16.3067 12.2771C16.2991 12.2603 16.2916 12.2435 16.2841 12.2261C16.2836 12.3143 16.283 12.402 16.2823 12.4901C16.322 12.3633 16.3618 12.2365 16.4016 12.1097C16.3742 12.0081 16.3467 11.9065 16.3191 11.8049C16.3767 11.6932 16.3978 11.8122 16.4506 11.6866C16.4646 11.9084 16.4395 12.033 16.4024 12.2686C16.4174 12.2496 16.4324 12.2314 16.4473 12.2124C16.4158 12.4486 16.4242 12.592 16.3501 12.5655C16.3488 12.6336 16.3479 12.6986 16.3462 12.7693C16.3597 12.7599 16.3623 12.8178 16.3784 12.793C16.4225 12.7252 16.4913 12.3117 16.5029 12.1654C16.5089 12.0888 16.458 12.2315 16.47 12.1236C16.4991 11.8603 16.572 11.9868 16.476 11.7103C16.5326 11.5464 16.5294 11.6738 16.5692 11.7266C16.5742 11.6384 16.5793 11.5508 16.5845 11.4626C16.6012 11.5051 16.618 11.5474 16.6347 11.5899C16.5623 12.0384 16.698 12.2226 16.5227 12.6041C16.5612 12.6282 16.5996 12.6525 16.6378 12.6777C16.625 12.7232 16.6122 12.7683 16.5994 12.8138C16.5836 12.7876 16.5678 12.7617 16.5519 12.736C16.5651 12.8227 16.5784 12.909 16.5916 12.9958C16.6524 12.8957 16.688 12.7363 16.7306 12.5393C16.6858 12.3881 16.6857 12.5886 16.6359 12.6236C16.6498 12.4976 16.659 12.3813 16.6759 12.2491C16.6742 12.5128 16.7702 12.3302 16.7895 12.3192C16.848 12.2857 16.78 12.5383 16.8161 12.5473C16.8522 12.5562 16.9105 12.4076 16.9154 12.6651C16.9289 12.5224 16.9409 12.3745 16.9515 12.2443C17.0129 12.203 16.9851 12.3705 16.9889 12.3929C17.0477 12.7611 17.1284 12.463 17.2398 12.4368C17.2304 12.3913 17.2205 12.35 17.2108 12.3071C17.3218 12.012 17.2579 12.0995 17.1971 11.9924C17.2603 12.0293 17.3235 11.7749 17.3777 11.7028C17.4319 11.6308 17.4994 11.7712 17.5183 11.8773C17.4352 12.037 17.3734 11.9203 17.2946 11.9588C17.2888 12.105 17.2849 12.2289 17.278 12.3895C17.3532 12.0888 17.3594 12.2954 17.3704 12.3373C17.4026 12.4604 17.4268 12.1983 17.4257 12.4826C17.4342 12.3856 17.4414 12.304 17.4491 12.2134C17.5353 12.2627 17.6157 12.4436 17.7095 12.0914C17.6921 12.3247 17.6742 12.5494 17.6572 12.7875C17.7125 12.6161 17.7278 12.7987 17.764 12.7609C17.8002 12.723 17.8063 12.5337 17.8511 12.4649C17.8594 12.4523 17.8625 12.5714 17.8882 12.4863C17.9141 12.4007 18.0414 11.7578 17.9938 12.3256C18.0258 12.3314 18.0543 12.3551 18.0849 12.3677C18.051 12.3967 18.0173 12.4247 17.9836 12.4537C17.9964 12.5937 18.0092 12.7332 18.0221 12.8732C18.0373 12.751 18.0528 12.6266 18.0677 12.5059C18.1528 12.3636 18.1848 12.5689 18.261 12.5284C18.2737 12.5216 18.2689 12.2766 18.316 12.3434C18.363 12.4103 18.3591 12.8664 18.4666 12.7004C18.4722 12.6918 18.5319 12.348 18.5413 12.5908C18.5434 12.6459 18.5049 12.7233 18.5149 12.7963C18.5249 12.8693 18.5947 12.9352 18.5845 13.1057C18.5894 13.0455 18.5906 12.9827 18.5942 12.9212C18.6098 12.8936 18.6255 12.8661 18.6412 12.8391C18.6323 12.9452 18.6236 13.0515 18.6148 13.1571C18.7124 12.9175 18.7886 12.5186 18.8862 12.6621C18.8697 12.5052 18.8533 12.3477 18.837 12.1908C18.8184 12.2982 18.7997 12.4063 18.7811 12.5137C18.7346 12.4658 18.6879 12.4181 18.6416 12.3702C18.6216 12.4925 18.6018 12.6144 18.5818 12.7367C18.5699 12.7195 18.5581 12.7027 18.5463 12.6855C18.5581 12.5968 18.5699 12.5086 18.5818 12.42C18.5533 12.4393 18.5248 12.4591 18.4962 12.4784C18.6 11.9583 18.6417 12.5373 18.6766 12.0973C18.682 12.1666 18.6874 12.2364 18.6928 12.3062C18.7182 12.0937 18.7366 12.1573 18.7762 12.1949C18.7763 12.089 18.7753 11.9844 18.7764 11.8775C18.8038 12.0296 18.8789 12.0221 18.9167 12.0832C18.9332 12.11 18.8998 12.2627 18.9038 12.2814C18.9238 12.379 19.0043 12.1146 19.0139 12.137C19.0715 12.2703 19.0683 12.7855 19.1746 12.4556C19.1049 12.3653 19.1438 12.4043 19.1336 12.2147C19.1304 12.1553 19.042 12.0237 19.1619 12.0896C19.1756 12.0977 19.3709 12.4718 19.2713 12.7355C19.3162 12.6526 19.3542 12.5554 19.3965 12.4668C19.4147 13.1875 19.4468 12.5149 19.4561 12.1438C19.4699 12.1434 19.4831 12.1409 19.4971 12.1421C19.4319 12.527 19.5827 12.5648 19.6505 12.3736C19.6734 12.3101 19.6368 12.1818 19.6814 12.1267C19.6978 12.1555 19.716 12.1926 19.7332 12.2248C19.7261 11.977 19.7911 11.8875 19.8123 11.6379C19.8287 11.8634 19.8149 12.3371 19.7724 12.5908C19.8116 12.49 19.8509 12.3894 19.89 12.288C19.8812 12.2276 19.8723 12.1677 19.8636 12.1073C19.9478 12.2727 20.1052 11.9269 20.0808 12.4529C20.0942 12.4503 20.1077 12.4482 20.1212 12.4456C20.1328 12.3574 20.1443 12.269 20.1559 12.1808C20.2081 12.2626 20.2596 12.3449 20.312 12.4266C20.2551 12.4771 20.2319 12.6021 20.1859 12.4951C20.1983 12.5987 20.2111 12.703 20.2233 12.8065C20.3292 12.5394 20.3553 12.3601 20.4733 12.4521C20.4785 12.4563 20.5542 12.694 20.5557 12.7167C20.5622 12.8203 20.5275 12.9673 20.5299 13.0196C20.5363 13.1662 20.6194 13.5397 20.6129 13.5944C20.5307 14.2667 20.1492 14.2443 20.0452 14.2702C18.9485 14.5391 17.9614 13.9566 16.9156 13.937C16.9048 13.9372 16.8997 14.0371 16.8947 14.0409C16.8641 14.0631 16.8515 13.9055 16.8417 13.898C16.8207 13.8827 16.819 14.027 16.8027 14.0255C16.6345 14.0075 16.4837 13.9078 16.3135 13.9161C16.3024 13.9166 16.3246 13.8032 16.3035 13.8215C16.2925 13.8317 16.2445 14.0044 16.2219 14.0049C16.1428 14.0064 16.0825 13.9437 16 13.9385C15.9548 13.9358 15.8887 13.9144 15.8382 13.9123C15.8158 13.9114 15.7851 13.9896 15.7629 13.9902C15.7315 13.991 15.7532 13.8286 15.7494 13.818C15.7326 13.7718 15.7128 13.9504 15.6932 13.9443C15.6569 13.9323 15.6662 13.8126 15.6182 13.8183C15.5838 13.8226 15.498 13.9097 15.4531 13.9335C15.367 13.7858 15.2369 13.8293 15.1407 13.8668C15.0837 13.889 15.0937 13.7213 15.0714 13.7198C14.9926 13.7159 14.914 13.9243 14.8399 13.9247C14.7415 13.9251 14.6675 13.7762 14.5739 13.7579C14.5588 13.755 14.5491 13.9087 14.5338 13.9113C14.477 13.9209 14.4036 13.9428 14.356 13.9168C14.3029 13.8881 14.3011 13.6638 14.2432 13.7046C14.2263 13.7168 14.2054 13.9116 14.1769 13.9345C14.1316 13.9704 14.0994 13.7945 14.0715 13.7729C14.0331 13.744 14.0522 13.9457 13.9999 13.9147C13.9978 13.9133 14.0011 13.7705 13.9888 13.7763C13.9532 13.7928 13.9476 13.9051 13.8986 13.8904C13.894 13.8886 13.8385 13.7478 13.8319 13.7468C13.7934 13.7416 13.7189 13.6881 13.6937 13.7151C13.6041 13.8114 13.6523 14.0302 13.6181 13.5606C13.5789 13.6719 13.5399 13.7848 13.4993 13.8929C13.5287 13.7915 13.4519 13.6363 13.4449 13.6454C13.3881 13.7191 13.4053 13.902 13.3428 13.8674C13.4588 13.4562 13.263 13.8075 13.2246 13.8156C13.0396 13.8545 12.8833 13.7392 12.7002 13.7302C12.6386 13.7274 12.5525 13.8106 12.4884 13.8046C12.4735 13.8036 12.4908 13.7054 12.4777 13.7025C12.4646 13.7002 12.4725 13.8121 12.4579 13.8053C12.3671 13.7612 12.3055 13.5474 12.2047 13.8044C12.2026 13.7663 12.2045 13.7364 12.1999 13.6945C12.1159 13.925 11.9998 13.6024 11.9509 13.5564C11.8751 13.485 11.8467 13.6426 11.7906 13.6077C11.7165 13.5611 11.6157 13.2458 11.643 13.7598C11.5895 13.7733 11.5397 13.7755 11.4894 13.7255C11.4838 13.7199 11.4936 13.59 11.4914 13.5872C11.4774 13.5679 11.4674 13.6841 11.4572 13.689C11.4294 13.7022 11.4799 13.5648 11.4394 13.602C11.418 13.622 11.402 13.723 11.3452 13.7227C11.1406 13.7208 10.9275 13.7027 10.7141 13.683C10.5678 13.6696 10.4227 13.6565 10.2811 13.6479C10.2571 13.6465 10.27 13.7727 10.24 13.7644C10.1367 13.7355 9.94937 13.5226 9.86002 13.5521C9.76938 13.5816 9.78696 13.7667 9.72956 13.845C9.71848 13.8602 9.72885 13.7545 9.71901 13.753C9.6529 13.7441 9.5753 13.5804 9.52115 13.5564C9.48537 13.5404 9.48669 13.7071 9.4617 13.7195C9.42462 13.7376 9.38713 13.5699 9.36794 13.5649C9.2763 13.5431 9.21242 13.6811 9.12644 13.6143C9.12971 13.6511 9.13184 13.6852 9.13459 13.7215C9.03265 13.7189 8.93025 13.7167 8.8271 13.715C8.83205 13.7487 8.83683 13.7827 8.84177 13.817C8.72198 13.8038 8.73476 13.435 8.74827 14.2119C8.73983 14.2398 8.7309 14.2721 8.72286 14.2978C8.72443 13.897 8.65132 13.6071 8.55802 13.5088C8.55111 13.5013 8.50899 13.8959 8.51002 13.4321C8.49908 13.546 8.4927 13.6246 8.48357 13.7248C8.46278 13.5854 8.44158 13.4475 8.42045 13.3083C8.41002 13.3297 8.39943 13.3504 8.38901 13.3719C8.3884 13.463 8.39061 13.5576 8.38816 13.6472C8.33937 13.6636 8.236 13.5562 8.19768 13.5699C8.10273 13.6043 8.01011 13.859 7.93044 13.5951C7.89454 13.6247 7.93417 13.8031 7.87965 13.7838C7.87172 13.6927 7.86419 13.6053 7.85588 13.5113C7.81978 13.9233 7.80567 13.6752 7.74259 13.5933C7.69992 13.5377 7.67508 13.6398 7.63513 13.6229C7.625 13.6185 7.62348 13.4977 7.6167 13.5021C7.59402 13.5159 7.53452 13.6867 7.51873 13.6924C7.37618 13.7465 7.25143 13.7374 7.11079 13.7031C7.09569 13.6997 7.1191 13.8187 7.10347 13.8148C7.07833 13.8087 7.0867 13.6223 7.07193 13.6143C7.03081 13.5929 7.03678 13.7885 6.9816 13.8032C6.80231 13.8516 6.58611 13.7211 6.39128 13.7235C6.38522 13.724 6.39089 13.84 6.38437 13.8417C6.34159 13.851 6.29272 13.6975 6.25435 13.7023C6.19102 13.7098 6.15138 13.8775 6.08855 13.8824C5.96565 13.8924 5.85043 13.8177 5.72156 13.8238C5.61794 13.8285 5.53015 13.8517 5.41631 13.8607C5.11779 13.8841 4.82996 14.0411 4.53362 14.1292C4.32891 14.1902 4.13009 14.1696 3.91127 14.0212C3.89756 14.0117 3.89467 13.9158 3.89097 13.9187C3.85596 13.9484 3.8636 14.0764 3.82644 13.7988C3.78159 13.836 3.78342 14.0316 3.72166 13.9891C3.68867 13.9661 3.68607 13.6723 3.64507 13.8048C3.60798 13.9216 3.67657 14.1139 3.51656 13.8649C3.51227 13.8578 3.47753 13.6723 3.45124 13.7005C3.42462 13.7263 3.47153 13.8731 3.40054 13.8591C3.23365 13.8176 2.99158 13.4977 2.77932 13.3195C2.76658 13.3106 2.64283 13.2291 2.61877 13.2191C2.57299 13.2054 2.5907 13.2875 2.5253 13.2132C2.47441 13.1528 2.42462 13.0291 2.3642 12.9583C2.35716 12.9501 2.35119 12.9914 2.30308 12.9137ZM12.1587 11.1644C12.1783 11.0029 12.2307 10.4074 12.2885 10.5926C12.2939 10.6101 12.2369 11.0185 12.2706 11.0858C12.2318 11.1271 12.1959 11.1392 12.1586 11.1651C12.1586 11.1648 12.1587 11.1646 12.1587 11.1644ZM1.91399 12.0131C1.95933 11.9598 2.00533 11.9114 2.05163 11.8683C2.02181 11.9179 1.99138 11.9625 1.96053 12.0017C1.94456 12.0016 1.92913 12.0053 1.91399 12.0131ZM8.12349 10.7364C8.12344 10.7364 8.1234 10.7364 8.12335 10.7364C8.17456 10.6569 8.22844 10.5776 8.28146 10.4987C8.27647 10.5572 8.27149 10.616 8.26653 10.6746C8.22522 10.7665 8.18294 10.8586 8.14329 10.9511C8.13672 10.8796 8.13011 10.808 8.12349 10.7364ZM7.71546 11.3632C7.67991 11.2931 7.68557 11.174 7.66414 11.0582C7.66415 11.0584 7.66415 11.0586 7.66416 11.0589C7.65852 11.0287 7.63473 11.0025 7.62565 10.998C7.63069 11.0725 7.63666 11.1461 7.64193 11.2201C7.56645 11.4025 7.39496 10.7594 7.59112 10.5006C7.59028 10.5948 7.58959 10.6886 7.58879 10.7828C7.68969 10.7565 7.80535 10.9594 7.71546 11.3632ZM12.974 10.9535C13.0783 10.6653 13.1103 10.6052 13.1998 10.8136C13.1796 10.8958 13.1594 10.9781 13.1393 11.0603C13.128 10.9743 13.1168 10.8888 13.1054 10.8028C13.1053 10.8028 13.1053 10.8028 13.1053 10.8028C13.0959 10.8917 13.0865 10.9808 13.0773 11.0698C13.043 11.031 13.0085 10.9923 12.974 10.9535ZM4.46265 11.2675C4.39148 10.6248 4.4259 10.9988 4.48304 10.8487C4.50284 10.7966 4.47176 10.6855 4.48502 10.6657C4.55669 10.5577 4.59365 10.989 4.5923 11.2149C4.54916 11.2332 4.50538 11.2503 4.4628 11.2675C4.46275 11.2675 4.4627 11.2675 4.46265 11.2675ZM2.47217 11.8438C2.47212 11.8439 2.47208 11.8439 2.47203 11.8439C2.46283 11.7733 2.49051 11.7358 2.45003 11.6867C2.47548 11.6713 2.50096 11.6565 2.52654 11.6416C2.51979 11.6535 2.51282 11.6649 2.50603 11.6763C2.51533 11.699 2.52474 11.7226 2.53415 11.7465C2.53414 11.6515 2.54777 11.6984 2.57794 11.7178C2.56032 11.6196 2.54294 11.5237 2.52575 11.4305C2.55914 11.4348 2.59295 11.443 2.62689 11.4546C2.63 11.4818 2.63312 11.5092 2.63623 11.5366C2.64443 11.4943 2.65296 11.4506 2.66126 11.4061C2.66786 11.438 2.67434 11.4699 2.68099 11.5023C2.69295 11.4679 2.70486 11.4327 2.71663 11.3963C2.7295 11.4803 2.70108 11.5346 2.75575 11.4821C2.74714 11.582 2.73825 11.678 2.72889 11.7706C2.63999 11.7921 2.55778 11.8159 2.47217 11.8438ZM5.06312 11.0295C4.96661 11.0622 4.98744 10.9588 4.98963 10.6392C5.01418 10.7693 5.03879 10.8994 5.06312 11.0295ZM10.1015 11.2409C10.1338 11.0424 10.1665 10.8461 10.1999 10.6549C10.2608 10.5456 10.3107 10.9098 10.2639 11.0507C10.2078 11.2198 10.157 11.0274 10.1015 11.2409ZM11.4176 11.1945C11.3508 11.0996 11.4269 10.8666 11.4488 10.7298C11.4592 10.9515 11.4873 10.9332 11.5299 10.9608C11.4882 10.9733 11.4285 11.2106 11.4175 11.1951C11.4176 11.1949 11.4176 11.1947 11.4176 11.1945ZM8.96678 10.9945C8.93824 11.0001 8.90993 11.0564 8.88425 10.9873C8.89166 10.7936 8.94318 10.9707 8.90616 10.6829C8.92453 10.6783 8.94292 10.6739 8.96113 10.6688C8.9496 10.7875 8.96519 10.8766 8.9667 10.9938C8.96673 10.994 8.96675 10.9942 8.96678 10.9945ZM5.99847 10.7435C6.0661 10.9846 6.0712 10.8801 6.119 10.7104C6.13621 10.9075 6.08593 11.2406 6.0482 11.3154C6.03175 11.1249 6.0152 10.9341 5.99847 10.7435ZM19.1118 11.5257C19.0771 11.7568 18.9771 11.778 18.9355 11.7048C18.9444 11.6709 18.9534 11.6365 18.9625 11.6021C19.0121 11.5767 19.0621 11.5512 19.1118 11.5257ZM11.5501 10.9774C11.5431 10.9703 11.5363 10.9649 11.5299 10.9608C11.5373 10.9585 11.5442 10.9628 11.5501 10.9774ZM14.419 12.1789C14.3778 12.3962 14.4397 12.4755 14.3642 12.3828C14.3642 12.383 14.3642 12.3832 14.3642 12.3834C14.3141 12.3223 14.3034 12.3062 14.2543 12.285C14.2954 12.0049 14.4067 11.9127 14.2697 11.8429C14.2678 11.8425 14.2579 12.0104 14.2371 11.9856C14.2307 11.9779 14.2195 11.8385 14.1886 11.7958C14.1786 11.7821 14.0991 11.733 14.2123 11.7394C14.2249 11.5428 14.247 11.3446 14.2622 11.1541C14.3111 11.1023 14.3138 11.4895 14.3612 11.4839C14.4318 11.4747 14.4999 11.089 14.4707 11.6001C14.4016 11.7205 14.3016 11.7153 14.3135 11.4075C14.2573 11.3992 14.2208 11.6492 14.2561 11.7772C14.4634 11.6352 14.2786 12.1544 14.4656 11.968C14.4735 11.8973 14.487 11.8216 14.4915 11.7548C14.5226 12.0087 14.4337 12.1012 14.419 12.1789ZM14.0565 11.6034C14.1021 11.4562 14.1478 11.3077 14.1936 11.16C14.174 11.4043 14.1378 11.6221 14.0738 11.7555C14.0681 11.7047 14.0622 11.6538 14.0565 11.6034ZM16.8918 11.7957C16.9096 11.6635 16.9343 11.5433 16.9561 11.4179C16.9557 11.5308 17.1863 11.6617 17.0528 11.7594C17.0335 11.7737 16.9475 11.5285 16.8918 11.7957ZM5.62148 10.976C5.65614 11.0719 5.69051 11.1678 5.72467 11.2635C5.68359 11.3271 5.64258 11.3925 5.60161 11.4577C5.60817 11.297 5.6147 11.1364 5.62148 10.976ZM10.5633 11.4872C10.5514 11.4819 10.5965 11.2997 10.5482 11.3272C10.5866 11.211 10.6238 11.1129 10.6621 11.0037C10.6702 11.0907 10.6783 11.1774 10.6862 11.2644C10.6961 11.209 10.7061 11.1539 10.716 11.0985C10.7073 11.2246 10.6992 11.3478 10.6902 11.4761C10.6392 11.2036 10.6166 11.5101 10.5633 11.4872ZM8.82144 11.9647C8.80997 11.684 8.89525 11.5174 8.81083 11.4724C8.82629 11.288 8.85195 11.1916 8.90143 11.1756C8.90947 11.2461 8.91745 11.316 8.92543 11.3864C8.92635 11.1981 8.93898 11.1282 8.96678 10.9945C8.9668 10.9947 8.96683 10.9949 8.96685 10.9951C9.04211 10.9825 9.03755 11.0452 9.05512 11.3541C8.97623 11.1791 8.97352 11.4613 8.91993 11.6295C8.88313 11.7451 8.83468 11.6928 8.82144 11.9647ZM16.6339 11.7738C16.7114 11.5485 16.6828 11.3285 16.7569 11.5831C16.7449 11.6411 16.7329 11.6986 16.7209 11.7566C16.6918 11.7629 16.6628 11.7685 16.6339 11.7738ZM8.54345 11.0005C8.55331 11.4374 8.60744 11.7765 8.61189 11.0671C8.55967 10.9222 8.58757 11.3246 8.54345 11.0005ZM11.366 11.8583C11.2693 11.8345 11.3065 11.356 11.357 11.1181C11.3598 11.2055 11.3624 11.2931 11.365 11.38C11.3839 11.3411 11.4028 11.3022 11.4216 11.2639C11.403 11.4618 11.3844 11.6604 11.366 11.8583ZM6.81639 11.5097C6.87891 11.1842 6.7292 11.332 6.77374 11.1285C6.80958 10.9662 6.87629 11.2906 6.86296 11.4951C6.84884 11.5012 6.83304 11.5057 6.81654 11.5097C6.81649 11.5097 6.81644 11.5097 6.81639 11.5097ZM7.24847 11.4058C7.2259 11.0635 7.24668 11.1629 7.18898 11.2258C7.17263 11.2436 7.0327 11.1174 7.09889 11.4009C7.14727 11.3997 7.19838 11.4035 7.24847 11.4058ZM12.5205 11.4415C12.5129 11.5825 12.3918 11.886 12.383 11.8079C12.383 11.8081 12.383 11.8083 12.383 11.8085C12.3592 11.5954 12.4702 11.5717 12.4395 11.2793C12.5298 11.5402 12.5977 10.9258 12.542 11.7375C12.4784 11.7695 12.5174 11.6038 12.5205 11.4415ZM20.3218 12.3007C20.3218 12.3007 20.3219 12.3007 20.3219 12.3007C20.3156 12.2935 20.2765 12.0823 20.2895 12.0113C20.3521 12.0784 20.3287 12.2133 20.4106 11.9952C20.4081 12.0674 20.4052 12.1375 20.4029 12.2103C20.3742 12.2508 20.353 12.3361 20.3218 12.3007ZM17.1251 12.1046C17.0964 12.1389 17.0656 11.9821 17.0362 11.9884C17.1843 11.4124 17.2396 11.9684 17.1251 12.1046ZM3.39448 11.5355C3.39454 11.5353 3.39459 11.535 3.39464 11.5348C3.39464 11.5351 3.39464 11.5354 3.39465 11.5357C3.39459 11.5357 3.39454 11.5356 3.39448 11.5355ZM15.2114 11.5687C15.2112 11.607 15.2101 11.6401 15.2082 11.6692C15.2079 11.6719 15.2077 11.6746 15.2074 11.6773C15.2089 11.6416 15.2102 11.6055 15.2114 11.5687ZM12.7377 11.412C12.7682 11.6112 12.6065 11.9149 12.565 11.8375C12.5736 11.748 12.579 11.6667 12.5928 11.5641C12.616 11.7987 12.7325 11.3784 12.7377 11.412ZM9.45435 11.3617C9.5687 11.3685 9.41344 12.1529 9.41232 11.5256C9.41262 11.5134 9.45136 11.3627 9.45435 11.3617ZM11.8378 11.4436C11.7974 11.6773 11.8526 11.7425 11.7615 11.6974C11.759 11.6363 11.7565 11.575 11.7539 11.5138C11.7819 11.4905 11.8099 11.4668 11.8378 11.4436ZM10.1788 12.3989C10.3224 12.2696 10.4634 12.0418 10.3872 11.3898C10.3759 11.4104 10.3645 11.4303 10.3532 11.4509C10.3439 11.7679 10.3084 11.5938 10.2502 11.5821C10.2391 11.7079 10.2062 11.7363 10.1978 11.8432C10.1817 12.05 10.2154 12.1962 10.1788 12.3989ZM4.19923 12.0758C4.19693 12.0167 4.19455 11.9573 4.1923 11.8987C4.20987 11.8303 4.22754 11.762 4.24514 11.6934C4.25023 11.8072 4.25532 11.921 4.26044 12.0347C4.24007 12.0486 4.2198 12.0624 4.1994 12.0762C4.19934 12.0761 4.19929 12.076 4.19923 12.0758ZM13.8658 12.2588C13.9249 11.6666 13.8704 11.7722 13.7567 12.0652C13.7929 12.1297 13.8294 12.1942 13.8658 12.2588ZM7.91434 12.1708C7.90811 11.9948 7.9019 11.8193 7.89548 11.6432C7.85024 11.8275 7.86345 12.0295 7.891 12.262C7.89883 12.2316 7.9065 12.2011 7.91434 12.1708ZM7.22144 12.2709C7.2426 12.3073 7.22798 12.1634 7.23016 12.1662C7.28321 12.2401 7.29214 12.3057 7.35099 12.1949C7.3575 12.1568 7.36385 12.1168 7.37035 12.0776C7.33108 11.7051 7.31604 11.9094 7.24828 11.6914C7.26318 11.8195 7.27797 11.9476 7.29272 12.0761C7.25809 12.0502 7.22349 12.0246 7.18863 11.9987C7.18582 12.0385 7.18301 12.0779 7.18023 12.1177C7.19391 12.1682 7.20812 12.225 7.22144 12.2709ZM3.92898 11.9291C3.89486 11.917 3.86048 11.9046 3.82624 11.8931C3.83265 11.9846 3.83916 12.0766 3.84557 12.168C3.87341 12.0897 3.90127 12.0099 3.92898 11.9291ZM14.565 12.0436C14.5703 12.013 14.5755 11.9821 14.5804 11.9508C14.5769 11.9892 14.5715 12.019 14.565 12.0436ZM20.3689 12.7849C20.4013 12.8488 20.4589 12.8134 20.4991 12.8295C20.5138 12.6112 20.404 12.6628 20.3784 12.5275C20.3693 12.5662 20.3551 12.758 20.3689 12.7849ZM11.2315 11.8337C11.2178 11.9424 11.2041 12.0506 11.1906 12.1593C11.1683 12.1467 11.146 12.1334 11.1235 12.1208C11.1195 12.2101 11.1154 12.3001 11.1114 12.3894C11.2163 12.2772 11.1834 12.5339 11.2227 12.7899C11.2257 12.4713 11.2287 12.1528 11.2315 11.8337ZM2.91733 12.4358C2.98788 12.4065 3.00529 12.316 2.9446 12.1145C2.92315 12.1617 2.90134 12.2067 2.87943 12.2491C2.89204 12.3105 2.90473 12.3728 2.91733 12.4358ZM15.8681 12.3637C15.9382 12.2697 15.9052 12.6281 15.9835 12.4336C15.958 12.3646 15.9326 12.2948 15.9072 12.2257C15.8942 12.2716 15.881 12.3178 15.8681 12.3637ZM12.829 13.1062C12.846 13.2327 12.9327 12.642 12.9746 13.0851C13.0003 12.9554 13.0193 12.8312 13.0426 12.704C13.0417 12.844 13.0417 12.9858 13.0404 13.1247C13.0404 13.1247 13.0405 13.1247 13.0405 13.1247C13.108 13.0821 13.0783 12.9044 13.0898 12.7566C13.0947 12.6953 13.1356 12.8011 13.1298 12.6666C13.1196 12.4357 13.0136 12.5609 13.0321 12.2816C13.0602 12.3752 13.132 12.3034 13.125 12.1158C13.1172 11.9098 13.031 12.2483 13.0021 12.0759C13.0299 12.5261 12.9206 12.3803 12.9293 12.0366C12.8422 12.2953 12.8995 12.4069 12.9716 12.3994C12.9107 12.6592 12.9841 12.5215 12.98 12.7406C12.9266 12.8695 12.7805 12.7496 12.829 13.1062ZM9.59172 12.5013C9.64007 12.4842 9.71274 12.6359 9.74849 12.4123C9.76947 12.2821 9.69551 12.1806 9.75027 11.9763C9.70299 11.9958 9.69125 12.0757 9.69698 12.2553C9.68603 12.2768 9.67496 12.2978 9.66403 12.3187C9.65952 12.2837 9.65487 12.2491 9.65034 12.214C9.64383 12.2879 9.63733 12.3612 9.631 12.4351C9.61984 12.4205 9.60854 12.4059 9.59735 12.3908C9.59561 12.428 9.59298 12.4603 9.59172 12.5013ZM17.6121 12.5218C17.5985 12.5226 17.585 12.5234 17.5713 12.5248C17.5686 12.5681 17.5659 12.6133 17.5633 12.6578C17.5611 12.693 17.5588 12.7282 17.5566 12.7634C17.5611 12.6373 17.5177 12.4228 17.4778 12.554C17.4577 12.6198 17.4651 12.8612 17.4038 12.8972C17.4464 12.889 17.4881 12.8603 17.5304 12.844C17.5198 12.9145 17.5093 12.9857 17.4988 13.0562C17.4988 13.0563 17.4988 13.0564 17.4988 13.0566C17.5107 13.0738 17.5226 13.0919 17.5344 13.1092C17.5603 12.9133 17.5861 12.7177 17.6121 12.5218ZM7.95974 12.5176C8.00232 12.3706 8.01633 12.2949 7.9908 12.0606C7.99075 12.0605 7.9907 12.0604 7.99065 12.0603C7.97551 12.1648 7.96044 12.2693 7.94546 12.3741C7.95019 12.4218 7.9549 12.4698 7.95974 12.5176ZM14.8936 12.8204C15.0662 11.9743 14.8011 12.4789 14.8174 12.7737C14.8181 12.7872 14.8929 12.7252 14.8936 12.8204ZM11.3729 12.1227C11.346 12.1286 11.319 12.1338 11.2919 12.1396C11.2938 12.2453 11.2958 12.3505 11.2977 12.4561C11.3227 12.3452 11.3478 12.2337 11.3729 12.1227ZM3.27051 12.8215C3.31788 13.0316 3.39885 13.1412 3.41321 12.9161C3.39203 12.8838 3.37084 12.8519 3.34965 12.8205C3.38269 12.8029 3.41487 12.7808 3.44792 12.7615C3.42237 12.4562 3.39767 12.6277 3.32869 12.5368C3.31783 12.5195 3.22442 12.1603 3.22788 12.4251C3.22861 12.4781 3.29717 12.5261 3.26658 12.6778C3.28759 12.6946 3.30444 12.6954 3.32379 12.7063C3.33149 12.776 3.3392 12.846 3.34705 12.916C3.32151 12.8841 3.29608 12.8524 3.27051 12.8215ZM9.87044 12.4766C9.93548 12.4953 9.9457 12.3637 9.96342 12.1312C9.93246 12.1572 9.9015 12.1827 9.87053 12.2088C9.87058 12.2979 9.87042 12.387 9.87044 12.4766ZM3.87809 13.0131C3.91786 13.0568 3.88577 12.8582 3.89729 12.8219C3.94084 12.6837 3.99017 12.8274 4.03698 12.7388C4.03655 12.7777 4.03622 12.8139 4.03583 12.8515C4.03588 12.8515 4.03593 12.8515 4.03597 12.8515C4.30498 13.0284 4.13458 12.5633 3.98686 12.6384C3.97715 12.5638 3.96755 12.4892 3.95788 12.4153C3.89964 12.5468 3.84585 12.6665 3.87809 13.0131ZM14.033 12.7773C14.0324 12.8213 13.9854 13.0973 14.0424 12.9709C14.1119 12.5679 14.0351 12.7646 14.0323 12.6072C14.0481 12.5693 14.0641 12.5324 14.0798 12.4945C14.0131 12.3737 13.9943 12.4694 13.9984 12.7682C13.9987 12.7883 14.0335 12.7335 14.033 12.7773ZM14.5132 13.0184C14.5744 12.4214 14.4558 12.6821 14.4437 12.868C14.4563 12.8765 14.4751 12.7762 14.4853 12.8221C14.4956 12.8681 14.4874 13.0081 14.5132 13.0184ZM11.7959 12.6851C11.7986 12.6879 11.8142 12.9412 11.8212 12.7439C11.8095 12.2754 11.7243 12.5724 11.7289 12.7356C11.7524 12.7286 11.7713 12.6594 11.7959 12.6857C11.7959 12.6855 11.7959 12.6853 11.7959 12.6851ZM2.82589 12.7622C2.82835 12.773 2.91006 12.8791 2.91325 12.8177C2.91395 12.7468 2.91007 12.668 2.90839 12.5918C2.87493 12.6518 2.78698 12.5695 2.82604 12.7623C2.82599 12.7623 2.82594 12.7622 2.82589 12.7622Z" fill="#A8D28F"/>
<path d="M16.9045 7.26264C16.9565 7.0716 17.0335 7.24485 17.0809 6.9465C17.1092 6.93694 17.1391 6.92753 17.1681 6.91827C17.1211 7.01634 17.0744 7.11427 17.0272 7.21243C16.9862 7.2294 16.9444 7.24585 16.9043 7.26311C16.9043 7.26295 16.9044 7.26279 16.9045 7.26264ZM16.2264 8.4456C16.3943 8.18399 16.5045 8.14476 16.564 7.85609C16.5075 7.94689 16.451 8.03754 16.3947 8.12823C16.4075 8.04269 16.4197 7.95727 16.4315 7.87248C16.4028 7.9035 16.3743 7.93453 16.346 7.96509C16.4201 7.79706 16.4943 7.62885 16.5679 7.46082C16.5665 7.48958 16.5649 7.51884 16.5634 7.54765C16.6774 7.43604 16.7361 7.41748 16.8089 7.41964C16.8244 7.37875 16.8397 7.33822 16.8551 7.29737C16.8502 7.37628 16.8453 7.45583 16.8405 7.53564C16.7789 7.58793 16.7108 7.64591 16.6549 7.69486C16.5547 7.9676 16.7002 7.85901 16.7647 7.82203C16.8528 7.77188 16.7753 7.8888 16.8388 7.85467C16.8489 7.84939 16.902 7.75385 16.9142 7.75755C16.9757 7.7767 17.0563 7.88003 16.8687 8.07384C16.7928 8.00025 16.6163 8.14105 16.5608 8.03093C16.4457 8.30032 16.3494 8.36364 16.2264 8.4456ZM18.3815 8.48646C18.2714 8.60093 18.2495 8.51797 18.2661 8.40667C18.2661 8.40665 18.2661 8.40663 18.266 8.4066C18.2698 8.38209 18.3565 8.19877 18.3802 8.22065C18.4188 8.25685 18.2716 8.54145 18.4097 8.36897C18.399 8.40918 18.3915 8.4462 18.3815 8.48646ZM18.4906 8.525C18.4762 8.60749 18.3341 8.80659 18.3349 8.73136C18.3348 8.73152 18.3347 8.73168 18.3346 8.73185C18.3348 8.70041 18.4649 8.55357 18.3099 8.6897C18.3795 8.55526 18.4418 8.43256 18.5083 8.30247C18.5227 8.30745 18.5366 8.31051 18.5513 8.31624C18.4103 8.52248 18.5045 8.44307 18.4906 8.525ZM16.9773 7.98424C17.0834 7.80264 17.0647 7.79498 17.1035 7.65297C17.1299 7.67279 17.1564 7.69335 17.1835 7.71374C17.1144 7.80414 17.0459 7.89411 16.9773 7.98424ZM16.2897 7.63841C16.2896 7.6384 16.2896 7.63838 16.2895 7.63837C16.2639 7.66361 16.2388 7.68927 16.2138 7.71429C16.2404 7.65002 16.2667 7.58639 16.2928 7.52287C16.2226 7.57588 16.152 7.62971 16.0819 7.68322C16.1825 7.49947 16.2411 7.53338 16.35 7.40542C16.3786 7.46933 16.3458 7.59168 16.2625 7.75734C16.2718 7.71748 16.2811 7.67752 16.2897 7.63841ZM21.2893 14.5038C21.3212 14.5492 21.353 14.5947 21.3844 14.6404C21.4139 14.6447 21.4388 14.6452 21.4711 14.6521C21.3263 14.4617 21.4844 14.5968 21.5121 14.5438C21.5998 14.3757 21.2854 14.1834 21.8036 14.3943C21.6958 14.4852 21.9227 14.604 22.0132 14.7962C21.8908 14.7131 21.6924 14.4345 21.6041 14.4319C21.6634 14.6019 21.7107 14.7676 21.7167 14.9113C21.7375 14.9262 21.7584 14.9412 21.7792 14.9561C21.7781 14.9333 21.7763 14.9112 21.776 14.8874C21.814 14.9471 21.8534 15.0044 21.8924 15.0642C21.7929 14.9434 21.8185 15.0442 21.6923 14.9187C21.6361 14.8628 21.5717 14.7703 21.5252 14.7089C21.47 14.7088 21.4161 14.7121 21.3601 14.714C21.3275 14.6563 21.2944 14.5989 21.2609 14.542C21.2702 14.5289 21.2797 14.5164 21.2886 14.5036C21.2889 14.5037 21.2891 14.5038 21.2893 14.5038ZM14.4791 18.8049C14.4545 18.5938 14.52 18.5344 14.6383 18.7373C14.5845 18.7599 14.5333 18.782 14.4791 18.8049ZM16.1945 7.89447C16.2057 7.86143 16.2169 7.82891 16.2279 7.79614C16.2817 7.74564 16.3355 7.69572 16.389 7.64613C16.3453 7.73869 16.3016 7.83146 16.258 7.92396C16.2373 7.91347 16.2161 7.90335 16.1945 7.89447ZM17.6227 8.47048C17.6037 8.4679 17.6041 8.46405 17.5924 8.44018C17.5924 8.44027 17.5924 8.44036 17.5923 8.44045C17.5872 8.431 17.5557 8.34246 17.6053 8.2734C17.6376 8.28838 17.6719 8.30774 17.7052 8.32508C17.6779 8.37362 17.65 8.42138 17.6227 8.47048ZM17.2694 8.23241C17.2695 8.23223 17.2695 8.23205 17.2696 8.23187C17.264 8.21486 17.2659 8.18715 17.2562 8.17704C17.3638 8.0848 17.2554 8.29288 17.328 8.25537C17.401 8.21756 17.4914 8.1168 17.3627 8.41474C17.326 8.45034 17.2781 8.50349 17.2373 8.54573C17.2463 8.40444 17.1703 8.50216 17.063 8.58861C17.132 8.46962 17.2005 8.35142 17.2694 8.23241ZM22.2641 14.1365C22.159 14.0534 22.2821 14.0997 22.2849 14.0979C22.285 14.098 22.2851 14.0981 22.2853 14.0982C22.2623 13.8738 22.3377 14.1662 22.4419 13.9921C22.4585 14.0375 22.4785 14.0772 22.4947 14.1201C22.4154 14.1358 22.3335 14.1342 22.2641 14.1365ZM20.3535 10.4165C20.384 10.378 20.4144 10.3392 20.445 10.3006C20.4765 10.3611 20.6058 10.2317 20.5255 10.4081C20.4697 10.4092 20.4123 10.4121 20.3531 10.417C20.3533 10.4168 20.3534 10.4167 20.3535 10.4165ZM17.7114 8.91216C17.606 8.95756 17.545 8.96843 17.5628 8.81398C17.5628 8.81379 17.5629 8.81361 17.5629 8.81342C17.5642 8.80405 17.6306 8.7273 17.6392 8.7035C17.62 8.70995 17.5964 8.72303 17.5757 8.73186C17.6146 8.66273 17.6536 8.59367 17.6922 8.52498C17.7141 8.56215 17.7358 8.59936 17.7571 8.63667C17.7762 8.59401 17.7949 8.55165 17.8139 8.50903C17.8545 8.50355 17.895 8.49804 17.9355 8.49247C17.8581 8.59956 17.7808 8.70661 17.7037 8.81403C17.7061 8.84673 17.7088 8.8786 17.7114 8.91216ZM20.6931 11.5708C20.7147 11.5334 20.7776 11.4966 20.7909 11.4593C20.8039 11.4223 20.7276 11.4573 20.8148 11.3771C20.842 11.3813 20.8715 11.3846 20.8995 11.3885C20.9319 11.32 20.9317 11.284 20.9244 11.2595C20.9099 11.2109 20.869 11.2049 20.989 11.0772C20.9901 11.1171 21.0004 11.144 21.0185 11.1617C21.0479 11.1904 21.0957 11.196 21.1598 11.1958C21.0107 11.3422 20.8344 11.4225 20.7287 11.5934C20.7167 11.5854 20.704 11.5785 20.6935 11.5705C20.6934 11.5706 20.6932 11.5707 20.6931 11.5708ZM14.5018 9.144C14.4957 9.06934 14.457 8.94627 14.4625 8.82146C14.4653 8.78793 14.5135 8.59545 14.5207 8.58093C14.5489 8.52572 14.5828 8.57102 14.5698 8.47456C14.5809 8.49324 14.5925 8.50972 14.6036 8.52792C14.6225 8.48178 14.641 8.43649 14.6593 8.39201C14.6409 8.37957 14.6227 8.3667 14.6046 8.35361C14.6098 8.34029 14.6151 8.32703 14.6203 8.31386C14.6781 8.37624 14.6679 8.29013 14.7244 8.26816C14.7065 8.21858 14.6855 8.17424 14.6624 8.13452C14.6803 8.14798 14.7017 8.16308 14.7166 8.17646C14.7513 8.11104 14.7018 8.10755 14.7001 8.09283C14.6892 8.01356 14.8839 8.1307 14.9645 8.00775C14.9337 7.98872 14.8998 7.97173 14.8661 7.95624C14.8836 7.94479 14.9015 7.9326 14.9196 7.91965C14.9743 7.99926 15.054 8.04875 15.1149 8.14181C15.1258 8.13955 15.1371 8.13718 15.148 8.13489C15.1711 8.08255 15.1941 8.0309 15.2168 7.97951C15.2344 7.97442 15.2523 7.9691 15.2702 7.96343C15.1401 8.1351 15.2023 8.13417 15.2043 8.27614C15.1384 8.32982 15.1196 8.27121 15.064 8.38912C15.2168 8.35268 15.2568 8.57692 15.4258 8.4993C15.4691 8.47827 15.5796 8.26298 15.6349 8.30492C15.62 8.32868 15.5968 8.37278 15.5789 8.40439C15.7426 8.34401 15.8498 8.2899 15.8968 8.46402C15.9375 8.37145 15.9783 8.27888 16.0184 8.18704C15.97 8.22144 15.9229 8.25729 15.8759 8.2915C15.9346 8.1414 15.9937 8.08474 15.9163 8.06537C15.8523 8.05046 15.858 8.12169 15.8195 8.15823C15.7678 8.20719 15.8038 8.09292 15.7468 8.1479C15.7035 8.18925 15.6673 8.30552 15.6326 8.26165C15.7244 8.12811 15.8218 7.98524 15.9197 7.84108C15.9163 7.87503 15.9121 7.91022 15.9076 7.94597C15.8742 7.98304 15.8415 8.01913 15.8088 8.05508C15.8897 7.99514 15.9678 7.93565 16.0542 7.86926C15.9244 8.08605 16.0141 8.01583 16.053 7.99661C16.1136 7.96675 15.9992 8.11162 16.0377 8.09414C16.0764 8.07715 16.197 7.91062 16.2218 7.96685C16.144 8.05898 16.1277 8.16467 16.0715 8.25652C16.0153 8.34824 15.9591 8.34726 15.9482 8.47121C16.0686 8.43534 16.1665 8.05518 16.2522 8.00229C16.2551 8.0005 16.2581 7.99908 16.2609 7.99807C16.3673 7.96064 16.0681 8.55845 15.981 8.67488C15.9295 8.7438 15.8929 8.73356 15.8489 8.76296C15.8345 8.77263 15.8192 8.78656 15.8024 8.809C15.8024 8.82386 15.8032 8.83628 15.8046 8.8465C15.8251 8.99445 15.9937 8.68164 16.0437 8.62474C16.2378 8.40313 15.8372 9.05645 16.0366 8.84955C15.9673 8.97515 15.9052 9.08816 15.8388 9.20856C15.8627 9.19207 15.8868 9.16574 15.9107 9.15535C16.0021 8.88604 16.0299 8.91528 16.0484 8.92478C16.0772 8.93949 16.0982 8.79535 16.1224 8.76845C16.1877 8.69641 16.1999 8.75135 16.2387 8.63211C16.2204 8.68741 16.2025 8.7433 16.1844 8.79842C16.2512 8.75373 16.6204 8.26453 16.4857 8.33268C16.5998 8.13957 16.5734 8.24654 16.5763 8.2863C16.5792 8.32602 16.6476 8.20026 16.6519 8.23198C16.6684 8.3588 16.5058 8.55194 16.4033 8.7148C16.5537 8.6446 16.511 8.52302 16.6796 8.51046C16.7684 8.3787 16.7909 8.20202 16.8842 8.14699C16.7607 8.3912 16.702 8.5824 16.727 8.69966C16.7647 8.64798 16.8028 8.59577 16.8406 8.54401C16.7544 8.78632 16.6041 9.00766 16.8294 8.76931C16.5052 9.2572 16.715 8.94586 16.6582 9.18738C16.6467 9.23619 16.5586 9.32557 16.5452 9.38896C16.5391 9.41762 16.603 9.34862 16.5866 9.42122C16.5788 9.45709 16.5092 9.67981 16.5924 9.60412C16.7123 9.34358 16.8915 9.16594 16.9589 8.93282C17.0236 9.03516 17.1556 8.95273 16.8576 9.2325C16.8376 9.32089 16.8172 9.40911 16.7965 9.49738C16.8466 9.44751 16.8968 9.39808 16.9471 9.3485C16.8304 9.55445 16.7945 9.61039 16.8769 9.61146C16.8218 9.64367 16.7669 9.67683 16.712 9.70921C16.6871 9.74994 16.6585 9.79057 16.6361 9.83117C16.7137 9.77254 16.8255 9.79535 16.8806 9.75482C16.9354 9.71404 16.9006 9.67233 16.9382 9.62335C17.2509 9.21933 17.0566 9.53893 17.1402 9.48747C17.1898 9.45677 17.1631 9.37566 17.1867 9.3641C17.2743 9.32188 17.1568 9.56738 17.1948 9.59468C17.2599 9.45367 17.3259 9.31082 17.3912 9.16906C17.4308 9.20127 17.4765 9.22957 17.5439 9.21128C17.57 9.20403 17.6176 9.09826 17.6242 9.09318C17.6578 9.06686 17.7439 9.04376 17.7498 9.04657C17.7928 9.07017 17.7102 9.20788 17.746 9.23919C17.723 9.24146 17.7017 9.24313 17.6793 9.24517C17.5365 9.46312 17.3939 9.68088 17.2515 9.89905C17.2796 9.93914 17.3074 9.97888 17.3347 10.019C17.3533 9.92719 17.371 9.83578 17.3883 9.74417C17.542 9.59193 17.6971 9.43856 17.854 9.28499C17.8096 9.40986 17.7643 9.53477 17.7185 9.65986C17.7994 9.66985 18.0699 9.21214 17.852 9.62461C17.8915 9.60279 17.931 9.58094 17.9704 9.55946C17.9321 9.61409 17.8938 9.66885 17.8556 9.72347C17.8996 9.70271 17.9434 9.68212 17.9878 9.66086C18.0918 9.44695 18.2017 9.22306 18.2999 9.01547C18.3731 8.99897 18.2664 9.16859 18.2462 9.21482C18.1923 9.33702 18.3251 9.20821 18.2731 9.32041C18.2551 9.35893 18.1394 9.44303 18.0726 9.58091C18.0602 9.60759 17.8146 10.1168 17.9203 10.0312C17.975 9.9451 18.04 9.8383 18.0986 9.7442C18.1822 9.72354 17.9157 10.1867 17.8277 10.3079C17.9099 10.2369 17.9513 10.254 18.0464 10.1203C18.0613 10.1253 18.0769 10.1311 18.0922 10.1365C17.8588 10.4613 17.9526 10.4369 18.1466 10.152C18.1287 10.1299 18.1109 10.1073 18.0926 10.0851C18.3411 9.74446 18.4116 9.48625 18.3427 9.90751C18.2488 10.1088 18.31 9.85024 18.2417 10.0022C18.2278 10.1078 18.3086 10.0651 18.2594 10.217C18.1974 10.4067 18.0381 10.5219 18.2795 10.3907C18.3899 9.72599 18.5438 10.0687 18.7642 9.98733C18.4487 10.5085 18.4272 10.7309 18.6548 10.6704C18.7411 10.5224 18.6512 10.5661 18.6609 10.5043C18.6704 10.4424 18.7535 10.3774 18.7705 10.2923C18.7876 10.2072 18.7866 10.0755 18.8259 9.95757C18.9042 9.89464 19.1624 9.79539 18.9219 9.96197C18.8875 10.1424 18.8157 10.3038 18.8704 10.3815C19.0472 10.1807 19.1412 10.0439 19.2207 10.0907C18.9606 10.36 18.8921 10.6279 18.649 10.9247C18.6519 10.8162 18.8975 10.5351 18.9718 10.3694C18.9788 10.3525 18.8774 10.3945 18.8704 10.3815C18.7237 10.6864 18.6661 10.7989 18.4065 11.1008C18.459 11.0963 18.45 11.1518 18.5642 11.0002C18.5227 11.0719 18.4811 11.1437 18.4393 11.2153C18.4509 11.2213 18.4647 11.2221 18.4747 11.2315C18.6284 10.9886 18.5539 11.1531 18.6515 11.0637C18.7495 10.9744 18.8551 10.7707 18.9154 10.8115C18.9358 10.743 18.952 10.6833 18.9703 10.6179C19.0526 10.5867 19.1341 10.5544 19.2184 10.5249C19.2952 10.3631 19.3902 10.1101 19.5281 9.92523C19.4948 10.0085 19.6499 9.93185 19.6613 9.93234C19.703 9.93356 19.6008 10.0394 19.6008 10.0438C19.6012 10.1319 19.6659 10.1182 19.5484 10.3063C19.6399 10.2502 19.6283 10.3126 19.6653 10.3337C19.6857 10.3454 19.7811 10.2138 19.7732 10.2465C19.7194 10.4648 19.5222 10.5775 19.9038 10.368C19.9575 10.2661 20.0125 10.1621 20.0659 10.0589C20.108 10.0375 20.1501 10.0158 20.1921 9.9945C20.1899 10.0189 20.1873 10.0433 20.1851 10.0678C20.0327 10.2603 19.88 10.4532 19.7276 10.6458C19.7281 10.6489 19.7286 10.652 19.7291 10.6551C19.7316 10.6713 19.7342 10.6875 19.7365 10.7038C19.7199 10.7056 19.7031 10.7073 19.6863 10.7092C19.6687 10.711 19.6519 10.7134 19.6347 10.7156C19.6063 10.7482 19.578 10.781 19.5496 10.8136C19.5441 10.8437 19.538 10.8734 19.5326 10.9038C19.5245 10.9485 19.516 10.9932 19.5075 11.0377C19.5611 10.9714 19.6151 10.9047 19.6688 10.8384C19.6567 10.983 19.6137 11.0369 19.8159 10.9075C19.8587 10.9478 20.113 10.7165 20.2265 10.6351C20.2056 10.6799 20.1845 10.7249 20.164 10.7691C20.2121 10.7238 20.2599 10.6793 20.3076 10.6349C20.2582 10.7187 20.2094 10.8015 20.1612 10.8827C20.3004 10.7312 20.3443 10.687 20.3534 10.5791C20.5338 10.3956 20.5241 10.586 20.4964 10.687C20.4754 10.7641 20.3188 10.8878 20.3048 10.9109C20.2583 10.9866 20.3412 10.9746 20.3392 10.9945C20.3321 11.0758 20.3624 11.0965 20.3627 11.1627C20.3626 11.176 20.2979 11.2845 20.2968 11.2886C20.2937 11.3159 20.2815 11.3867 20.2834 11.3909C20.3836 11.6191 20.5551 11.0685 20.6618 11.2715C20.7015 11.2193 20.7415 11.1676 20.7815 11.1151C20.7947 11.1252 20.8079 11.1354 20.8213 11.1452C20.7984 11.2004 20.7142 11.2518 20.7966 11.2264C20.7407 11.2817 20.6847 11.3371 20.6289 11.3922C20.6706 11.3744 20.7116 11.3565 20.7537 11.3392C20.6792 11.4365 20.6442 11.5135 20.6081 11.5882C20.563 11.6815 20.5155 11.7716 20.3892 11.8957C20.3117 11.9717 20.1852 12.0043 20.1306 12.1127C20.1356 12.1493 20.2117 12.0425 20.2249 12.0459C20.3204 12.0728 20.1897 12.1995 20.2487 12.1898C20.3076 12.1385 20.3678 12.0864 20.4275 12.0348C20.421 12.0606 20.4143 12.0864 20.4076 12.112C20.4469 12.0774 20.4864 12.0428 20.5258 12.0082C20.5193 11.9967 20.5116 11.9839 20.5057 11.9731C20.66 11.8403 20.836 11.8899 20.6702 11.9675C20.6028 11.999 20.5936 11.9472 20.4421 12.1346C20.4955 12.1396 20.5528 12.1482 20.607 12.1549C20.5706 12.1914 20.5341 12.228 20.4977 12.2645C20.5603 12.2819 20.6749 12.1032 20.7546 12.0267C20.766 12.0342 20.7771 12.042 20.7885 12.0495C20.7562 12.0881 20.7219 12.128 20.6908 12.1655C20.749 12.1113 20.8892 11.9906 20.8669 12.0673C20.8518 12.1167 20.6774 12.2236 20.7306 12.2401C20.8194 12.1535 20.9181 12.0375 20.9851 12.0514C20.8932 12.1428 20.8106 12.2282 20.7126 12.3228C20.8494 12.2884 20.7214 12.4452 20.8802 12.4074C20.9812 12.3839 21.278 12.2316 20.9124 12.5756C20.9244 12.6109 21.0141 12.5236 21.0426 12.5141C21.179 12.4711 21.0173 12.6496 21.0117 12.6651C20.9769 12.7656 21.0598 12.7386 20.9985 12.8436C21.0711 12.7858 21.1404 12.7318 21.2114 12.6756C21.0735 12.7238 21.0642 12.7008 21.0497 12.6341C21.0772 12.6388 21.1049 12.6434 21.1331 12.6493C21.1905 12.6005 21.2478 12.5515 21.3048 12.5027C20.9486 12.531 21.3392 12.2685 21.5311 12.3466C21.4304 12.4442 21.3296 12.5412 21.227 12.6371C21.4532 12.586 21.3363 12.7364 21.3609 12.8498C21.3641 12.8633 21.4572 12.8578 21.4716 12.8727C21.4719 12.8721 21.4721 12.8715 21.4724 12.8709C21.5896 12.8094 21.6309 12.7618 21.7279 12.6951C21.7355 12.6958 21.743 12.6965 21.7505 12.6972C21.7609 12.6969 21.7713 12.6966 21.7816 12.6961C21.7183 12.7628 21.6526 12.7977 21.695 12.8211C21.7649 12.7651 21.8353 12.7096 21.9059 12.6546C21.9322 12.687 21.8704 12.767 21.9322 12.7799C21.9004 12.7938 21.8685 12.8078 21.8366 12.8215C21.8283 12.9553 21.3567 13.2022 21.6149 13.1112C21.581 13.1426 21.5466 13.174 21.5124 13.205C21.4839 13.185 21.4552 13.1649 21.4268 13.1453C21.3741 13.1833 21.3217 13.2211 21.2691 13.2592C21.3059 13.2765 21.3434 13.2931 21.3784 13.3083C21.329 13.3144 21.2794 13.3207 21.2286 13.3253C21.2284 13.3774 21.2261 13.4267 21.2175 13.4691C21.3935 13.3038 21.4439 13.3251 21.634 13.1841C21.521 13.3705 21.2944 13.4954 21.4539 13.4663C21.487 13.4635 21.654 13.4727 21.4509 13.4877C21.717 13.4942 21.8217 13.6122 22.0638 13.67C22.063 13.6251 22.0637 13.5778 22.0524 13.5314C21.9604 13.5781 21.7257 13.5278 21.6573 13.492C21.5725 13.4571 21.7155 13.3643 21.4627 13.4443C21.4723 13.4333 21.4759 13.422 21.4806 13.4072C21.5422 13.3836 21.6052 13.3624 21.669 13.3446C21.554 13.3377 21.5731 13.3087 21.6967 13.1933C21.7648 13.23 21.8419 13.2849 21.8983 13.3857C21.9067 13.3682 21.9144 13.3498 21.9208 13.3313C22.102 13.3888 22.257 13.2369 22.3056 13.4944C22.2281 13.4913 22.1506 13.4888 22.0727 13.4865C22.2867 13.5668 22.2277 13.7987 22.4755 13.7893C22.3856 13.8389 22.3383 13.8301 22.4465 13.9099C22.2149 14.0048 21.9881 13.923 21.7603 13.7721C21.7855 13.8192 21.8082 13.8686 21.8296 13.9182C21.9023 13.9428 21.9779 13.9614 22.0537 13.9792C22.0164 14.0364 21.9801 14.084 21.9457 14.1267C21.7601 14.0064 21.9489 13.9995 21.7648 13.9192C21.7283 13.9026 21.7837 13.9735 21.7614 13.9666C21.5201 13.8908 21.7281 13.8954 21.5612 13.8106C21.4571 13.8617 21.2513 13.6144 21.384 13.8752C21.331 13.8391 21.2769 13.8024 21.2245 13.766C21.1957 13.7971 21.3108 13.8847 21.3074 13.9328C21.3051 13.9628 21.0891 13.8254 21.2046 13.9572C21.2253 13.9821 21.4962 14.143 21.4201 14.2122C21.3587 14.2679 21.2153 14.0973 21.1293 14.0777C21.0437 14.0575 21.2087 14.3308 20.9318 14.1213C20.9807 14.1355 21.0176 14.1314 21.0613 14.1388C21.0174 14.0869 20.9734 14.0361 20.9295 13.9847C20.9605 14.0808 20.8438 14.057 20.9394 14.1906C20.7093 14.0784 20.8209 14.2931 21.0398 14.4653C21.0267 14.4205 20.9202 14.3575 20.9992 14.3856C21.0492 14.4268 21.0992 14.4675 21.1492 14.5086C21.1042 14.546 21.0781 14.5766 20.9516 14.4231C20.942 14.4264 20.9325 14.4298 20.9229 14.4332C21.0263 14.5317 21.1302 14.6303 21.2335 14.7288C21.2377 14.7479 21.2417 14.7671 21.2458 14.7863C21.2141 14.7743 21.1829 14.7613 21.1516 14.7483C20.9975 14.5821 21.011 14.5571 20.8569 14.5364C20.9136 14.5902 20.97 14.6438 21.0267 14.6975C20.9616 14.6914 20.8925 14.6541 20.8324 14.6303C20.7777 14.6072 20.7323 14.5941 20.703 14.6275C20.6234 14.4894 20.7043 14.5337 20.7206 14.5244C20.7337 14.5164 20.7069 14.4806 20.5364 14.3195C20.5753 14.3304 20.6145 14.3417 20.6531 14.3529C20.5976 14.2968 20.5419 14.2407 20.4863 14.1847C20.4771 14.2098 20.487 14.2594 20.5015 14.3169C20.5638 14.4661 20.633 14.7068 20.4313 14.5408C20.4535 14.5772 20.4719 14.6097 20.4955 14.6489C20.3166 14.5279 20.59 14.9077 20.3732 14.7357C20.3508 14.7171 20.0907 14.3639 20.0427 14.4194C20.0785 14.464 20.1369 14.5403 20.1815 14.5969C20.147 14.5789 20.1111 14.5598 20.0772 14.5402C20.106 14.5844 20.1346 14.6288 20.1635 14.6736C20.1981 14.6738 20.2356 14.672 20.2711 14.6707C20.2627 14.6998 20.2532 14.7295 20.2436 14.7589C20.3211 14.809 20.3347 14.7999 20.4005 14.9232C20.3805 14.9483 20.3633 14.9716 20.3439 14.9957C20.362 15.0262 20.3803 15.0572 20.3983 15.0879C20.4714 15.1655 20.5439 15.2405 20.6192 15.3182C20.5025 15.2964 20.4372 15.3356 20.2719 15.1959C20.2439 15.1723 20.198 15.0378 20.2088 15.1794C20.1679 15.1189 20.134 15.0704 20.0961 15.0145C20.1386 15.2306 20.0755 15.1984 19.9268 15.1162C20.0464 15.2046 19.9573 15.1541 19.9833 15.2247C20.0013 15.2733 20.0305 15.2467 20.0546 15.2944C20.079 15.3416 20.1452 15.5515 20.197 15.55C20.0581 15.121 20.3665 15.5458 20.3689 15.2914C20.3826 15.3501 20.3956 15.4094 20.4079 15.4689C20.4377 15.4951 20.4647 15.5188 20.4966 15.5463C20.3814 15.52 20.4453 15.5443 20.4535 15.6195C20.4619 15.6947 20.4378 15.7781 20.4121 15.816C20.4041 15.8278 20.364 15.7371 20.3346 15.7446C20.3148 15.7494 20.343 15.9029 20.2438 15.7621C20.1801 15.6698 20.0927 15.3633 19.9943 15.423C19.9199 15.3397 19.9844 15.341 19.9786 15.329C19.9198 15.2123 19.8113 15.1627 19.8336 15.2649C19.8356 15.2737 19.9092 15.3485 19.9049 15.3972C19.8964 15.5123 19.8048 15.4301 19.6913 15.3128C19.7785 15.4761 19.8353 15.698 19.7412 15.6712C19.7634 15.7195 19.7859 15.7682 19.8082 15.8169C19.8044 15.787 19.8007 15.7575 19.7967 15.7277C19.8228 15.7513 19.8461 15.7661 19.8753 15.7947C19.834 15.8695 19.9476 16.0983 19.9605 16.1977C20.0034 16.5373 19.7526 15.905 19.7155 15.7929C19.751 15.8273 19.7887 15.8668 19.8254 15.9032C19.7933 15.8472 19.761 15.7907 19.7289 15.7342C19.5778 15.8172 19.5089 15.3767 19.3775 15.3102C19.5062 15.6016 19.4619 15.6595 19.3003 15.515C19.2932 15.5204 19.2856 15.5248 19.2786 15.5305C19.2982 15.5726 19.3301 15.6359 19.3417 15.6643C19.2786 15.7565 19.0455 15.3244 19.0172 15.2866C18.8912 15.1188 18.9896 15.3879 18.9799 15.3953C18.94 15.4256 18.8724 15.3175 18.8535 15.3867C18.8329 15.4615 18.9059 15.5345 18.9292 15.6198C18.9474 15.6877 18.9155 15.7163 18.9311 15.7881C18.9122 15.7322 18.8944 15.6771 18.8753 15.6211C18.7939 15.5709 18.7225 15.5181 18.6602 15.5252C18.6927 15.6407 18.6889 15.676 18.6722 15.6776C18.6285 15.6817 18.4966 15.4524 18.6878 15.8337C18.7112 15.8381 18.7331 15.8463 18.7553 15.8599C18.7994 15.8869 18.8448 15.9353 18.9051 16.0169C18.8886 16.0376 18.8718 16.0581 18.8549 16.0786C18.8446 16.0913 18.8342 16.104 18.8239 16.1168C18.787 16.0628 18.754 16.0087 18.7151 15.954C18.7461 16.0908 18.6623 16.0648 18.6554 16.113C18.6234 16.34 18.755 16.5551 18.4914 16.2246C18.5465 16.1531 18.4682 15.9717 18.5513 15.9657C18.4793 15.8448 18.4538 15.8854 18.4101 15.722C18.3558 15.786 18.4393 15.9168 18.4663 16.0526C18.4898 16.1699 18.4458 16.1982 18.5096 16.3388C18.4712 16.2632 18.4349 16.1894 18.3965 16.1134C18.3518 16.134 18.3065 16.1537 18.2611 16.1741C18.2451 16.0819 18.229 15.9902 18.2132 15.9002C18.1851 15.8745 18.157 15.8486 18.1288 15.8224C18.1274 15.9459 18.0621 15.953 18.0054 15.9616C17.9233 15.9744 17.8592 15.9895 18.0395 16.3763C17.9935 16.42 17.9526 16.3391 17.872 16.2249C17.8894 16.2768 17.9033 16.3202 17.923 16.3779C17.8667 16.339 17.9167 16.5401 17.8657 16.5032C17.8148 16.4666 17.735 16.2898 17.8518 16.594C17.7968 16.5154 17.7479 16.4513 17.6957 16.3786C17.7111 16.4522 17.726 16.525 17.7413 16.5981C17.7082 16.5695 17.6751 16.5411 17.642 16.5125C17.6892 16.6611 17.5903 16.628 17.5955 16.7381C17.503 16.5942 17.3119 16.1023 17.2739 16.2186C17.3232 16.3399 17.3723 16.4608 17.4216 16.5821C17.395 16.5631 17.3684 16.5442 17.3417 16.5252C17.3253 16.4858 17.309 16.4462 17.2926 16.4068C17.3059 16.4158 17.319 16.4248 17.3325 16.4343C17.299 16.3697 17.2658 16.3054 17.2325 16.2408C17.2458 16.3504 17.259 16.4602 17.2718 16.5701C17.3355 16.6324 17.3993 16.6948 17.4633 16.7569C17.4545 16.8635 17.3896 16.7857 17.39 16.9004C17.2921 16.7444 17.2671 16.6424 17.2101 16.4542C17.2039 16.4745 17.1974 16.4943 17.1912 16.5146C17.129 16.3284 17.0668 16.2271 17.1431 16.2148C17.1182 16.1644 17.0941 16.1165 17.0685 16.0641C17.0601 16.0767 17.0357 16.0355 17.0307 16.0605C17.0174 16.1288 17.1136 16.4609 17.159 16.5729C17.1829 16.6315 17.1742 16.5053 17.2048 16.5893C17.2794 16.7943 17.1645 16.7335 17.3579 16.894C17.3694 17.0384 17.3233 16.9439 17.2668 16.9225C17.296 16.9891 17.325 17.0554 17.3541 17.1221C17.3225 17.0983 17.2909 17.0746 17.2595 17.0507C17.1536 16.6915 16.9617 16.6143 16.9737 16.2604C16.9301 16.259 16.8866 16.2575 16.8428 16.2551C16.837 16.2163 16.8313 16.1779 16.8255 16.1391C16.8496 16.1517 16.8735 16.164 16.8974 16.1761C16.8527 16.1181 16.8081 16.0605 16.7635 16.0024C16.7472 16.1014 16.7757 16.2334 16.8119 16.3959C16.9094 16.4878 16.8336 16.3407 16.865 16.294C16.9003 16.3923 16.9362 16.4814 16.9712 16.5855C16.8726 16.3915 16.8555 16.566 16.8422 16.5823C16.8021 16.6316 16.7679 16.4175 16.7321 16.4261C16.6964 16.4347 16.6999 16.5684 16.5986 16.3811C16.6402 16.4917 16.6849 16.6055 16.7243 16.7056C16.6842 16.7618 16.6464 16.627 16.6346 16.6121C16.4433 16.366 16.4824 16.6189 16.3913 16.6846C16.4167 16.7143 16.4411 16.7405 16.4659 16.7681C16.4753 17.0316 16.5005 16.9407 16.5958 16.994C16.5246 16.9934 16.562 17.2071 16.5394 17.2829C16.5166 17.3586 16.4034 17.283 16.3464 17.2126C16.3632 17.0603 16.4622 17.1209 16.5197 17.0595C16.4705 16.9494 16.4278 16.8566 16.3743 16.7353C16.4182 16.9882 16.3356 16.8385 16.3102 16.8121C16.2355 16.7346 16.3106 16.9379 16.2064 16.7277C16.2347 16.8028 16.2584 16.8659 16.2849 16.936C16.188 16.9355 16.0483 16.835 16.0927 17.1337C16.0227 16.9542 15.9562 16.7808 15.8842 16.5978C15.8972 16.7471 15.8162 16.6184 15.7973 16.6611C15.7784 16.7039 15.8422 16.8464 15.8267 16.9156C15.8238 16.9284 15.7774 16.8414 15.7853 16.9149C15.7932 16.9888 15.9123 17.5165 15.7482 17.0768C15.717 17.0855 15.6824 17.0796 15.6496 17.0827C15.6701 17.0474 15.6908 17.0129 15.7108 16.9778C15.648 16.8793 15.5857 16.7811 15.5228 16.6827C15.5534 16.7795 15.5846 16.8779 15.615 16.9734C15.5888 17.1135 15.485 16.9744 15.4306 17.0351C15.4216 17.0453 15.5147 17.2251 15.4478 17.1944C15.3808 17.1638 15.219 16.824 15.1816 16.9903C15.1798 16.9988 15.2492 17.2782 15.1531 17.1016C15.1313 17.0616 15.1385 16.9886 15.1031 16.9384C15.0676 16.8882 14.9807 16.8672 14.9284 16.7365C14.9456 16.7832 14.9671 16.8304 14.986 16.8774C14.9816 16.9042 14.9771 16.931 14.9724 16.9574C14.9423 16.875 14.9121 16.7925 14.8821 16.7105C14.8792 16.9277 14.9525 17.2549 14.813 17.1868C14.884 17.297 14.9552 17.4076 15.0262 17.5178C15.0047 17.4305 14.983 17.3426 14.9614 17.2554C15.021 17.2724 15.0809 17.289 15.141 17.3058C15.1153 17.2069 15.0896 17.1083 15.0638 17.0095C15.0807 17.0175 15.0975 17.0253 15.1145 17.0333C15.1356 17.1039 15.1566 17.1741 15.1777 17.2448C15.1967 17.219 15.2157 17.1928 15.2348 17.167C15.3274 17.595 15.0809 17.1816 15.2072 17.5226C15.1771 17.4733 15.147 17.4237 15.1169 17.374C15.17 17.5422 15.1301 17.5024 15.0804 17.4903C15.1183 17.5691 15.1568 17.6464 15.1943 17.7262C15.1143 17.6244 15.0484 17.66 14.9924 17.6296C14.9678 17.6162 14.9434 17.4893 14.9332 17.477C14.8804 17.4123 14.9007 17.6414 14.884 17.6285C14.7838 17.5523 14.6021 17.1679 14.6232 17.4557C14.7189 17.4952 14.6696 17.4816 14.7466 17.6186C14.7707 17.6616 14.8989 17.7241 14.7654 17.723C14.7507 17.7222 14.4365 17.5225 14.4342 17.2862C14.4227 17.3659 14.4226 17.4534 14.4158 17.5361C14.1433 17.0065 14.3533 17.5201 14.4765 17.8003C14.4642 17.806 14.4534 17.813 14.44 17.8177C14.3625 17.5052 14.2111 17.5372 14.2168 17.7067C14.2185 17.7631 14.2976 17.8441 14.2764 17.9029C14.2511 17.888 14.2214 17.8676 14.1944 17.8504C14.2887 18.0322 14.2619 18.1245 14.3308 18.319C14.235 18.1578 14.0788 17.7997 14.0277 17.5938C14.0273 17.6846 14.0271 17.7753 14.0275 17.8663C14.0569 17.9078 14.0865 17.9488 14.116 17.9903C13.98 17.9008 13.9604 18.2209 13.7949 17.8198C13.7836 17.8272 13.772 17.8341 13.7608 17.8414C13.7817 17.9117 13.8027 17.982 13.8236 18.0523C13.747 18.0123 13.6712 17.9717 13.5929 17.9325C13.6272 17.8718 13.6048 17.7691 13.6843 17.8305C13.6358 17.7584 13.588 17.6857 13.5388 17.6139C13.5361 17.8559 13.576 17.9997 13.4376 17.9785C13.4312 17.9775 13.2753 17.8324 13.266 17.8162C13.2226 17.742 13.2013 17.6187 13.1802 17.5809C13.1211 17.4749 12.9106 17.232 12.8967 17.1887C12.7248 16.6574 13.0909 16.5151 13.1788 16.4536C14.0942 15.8106 15.1872 15.863 16.1225 15.4456C16.132 15.441 16.0992 15.3653 16.1022 15.3605C16.121 15.3315 16.1909 15.4424 16.2024 15.4438C16.2267 15.4464 16.1742 15.3395 16.1892 15.3339C16.344 15.2779 16.5138 15.2886 16.6598 15.211C16.6693 15.206 16.693 15.2984 16.7046 15.2761C16.7104 15.264 16.6866 15.1174 16.7061 15.1076C16.7743 15.0733 16.8502 15.0939 16.9242 15.0626C16.9645 15.0454 17.0299 15.0329 17.0743 15.013C17.0939 15.0042 17.0898 14.9342 17.1089 14.9242C17.1357 14.9102 17.1801 15.0376 17.1875 15.0437C17.2201 15.0701 17.1677 14.9316 17.1869 14.9277C17.2228 14.9209 17.2615 15.0118 17.3005 14.987C17.3285 14.9691 17.367 14.8692 17.3964 14.8323C17.4515 14.8614 17.5 14.8629 17.5423 14.8498C17.6014 14.8315 17.6528 14.7946 17.6968 14.7657C17.7414 14.737 17.7996 14.8611 17.8213 14.8573C17.8971 14.8431 17.8894 14.6848 17.9605 14.6718C18.0431 14.6559 18.1476 14.7159 18.2298 14.7062C18.2409 14.7049 18.2516 14.7027 18.2619 14.6991C18.2757 14.6942 18.2249 14.5916 18.2366 14.5831C18.28 14.5518 18.3303 14.506 18.3794 14.5011C18.434 14.4956 18.5228 14.6371 18.5538 14.5851C18.5627 14.5698 18.5033 14.4371 18.5169 14.41C18.5385 14.3672 18.6336 14.4636 18.6648 14.4642C18.707 14.4649 18.6119 14.3467 18.6654 14.3426C18.6676 14.3424 18.7218 14.4336 18.7292 14.4243C18.7505 14.3977 18.7101 14.3249 18.7535 14.312C18.7575 14.3114 18.8574 14.3736 18.8631 14.371C18.8955 14.3564 18.974 14.3551 18.9817 14.3268C19.0095 14.226 18.8816 14.1144 19.1026 14.3867C19.0865 14.2996 19.0686 14.212 19.0528 14.1273C19.0738 14.203 19.1948 14.2618 19.1959 14.2529C19.2052 14.1817 19.1153 14.079 19.1745 14.0706C19.2669 14.3741 19.258 14.0685 19.2779 14.0471C19.3852 13.9383 19.5349 13.9326 19.6358 13.856C19.67 13.8297 19.6691 13.7481 19.6984 13.7258C19.705 13.7205 19.7474 13.7799 19.7543 13.7762C19.7607 13.7722 19.701 13.7156 19.7101 13.7136C19.7616 13.7058 19.8905 13.778 19.7998 13.652C19.7971 13.6439 19.7938 13.6353 19.7901 13.6261C19.8132 13.6422 19.829 13.6574 19.856 13.6734C19.779 13.5051 20.0372 13.5697 20.0922 13.5571C20.1814 13.5339 20.1063 13.4439 20.1601 13.4199C20.2307 13.3896 20.4677 13.4638 20.1561 13.2509C20.1763 13.2106 20.2018 13.1765 20.2536 13.1692C20.2595 13.1685 20.3306 13.2316 20.3333 13.2315C20.3514 13.2312 20.2883 13.1739 20.2901 13.1657C20.295 13.1434 20.3526 13.2335 20.3491 13.1932C20.3467 13.1722 20.2947 13.1189 20.3159 13.0899C20.3463 13.0491 20.37 13.0132 20.3628 13.0287C20.364 13.0455 20.282 13.1249 20.2695 13.4609C20.2668 13.6218 20.316 13.803 20.3601 13.8948C20.4045 13.9906 20.4303 14.0166 20.4303 14.0139C20.4305 14.0044 20.3564 13.9007 20.2844 13.791C20.2637 13.7595 20.2025 13.8322 20.1805 13.789C20.1728 13.774 20.1654 13.7568 20.1581 13.7376C20.155 13.6589 20.1827 13.486 20.1281 13.4461C20.067 13.401 19.973 13.4979 19.9021 13.4983C19.8883 13.4985 19.9519 13.4562 19.9479 13.4493C19.9198 13.4029 19.9712 13.2794 19.9537 13.2317C19.9433 13.2012 19.8548 13.2818 19.835 13.2721C19.806 13.2576 19.8747 13.153 19.866 13.1375C19.8264 13.0679 19.7159 13.092 19.7014 13.0049C19.6845 13.0252 19.6682 13.0435 19.6512 13.0631C19.593 12.996 19.5341 12.9304 19.4709 12.8626C19.4573 12.8829 19.4433 12.9031 19.4293 12.9236C19.4034 12.8911 19.4166 12.8451 19.4197 12.8233C19.4245 12.7893 19.4066 12.8181 19.1776 13.0645C19.1587 13.0735 19.1371 13.0846 19.1191 13.0931C19.318 12.8908 19.4101 12.6969 19.3813 12.6056C19.3799 12.5977 19.1458 12.7915 19.3786 12.5447C19.312 12.601 19.2668 12.6407 19.208 12.6915C19.2591 12.6094 19.309 12.5264 19.361 12.4422C19.3407 12.4502 19.3206 12.4579 19.3 12.4664C19.2527 12.5169 19.2063 12.5702 19.158 12.6194C19.1034 12.6155 19.0565 12.5272 19.0112 12.5263C18.8991 12.5226 18.6547 12.6713 18.7308 12.4775C18.6795 12.4873 18.6143 12.6171 18.5732 12.59C18.6186 12.5264 18.6624 12.4652 18.7095 12.3988C18.4365 12.6665 18.5655 12.4951 18.5615 12.4137C18.5588 12.3579 18.4788 12.4179 18.4584 12.386C18.4534 12.3777 18.5234 12.292 18.5158 12.2915C18.5007 12.2901 18.4425 12.3201 18.3964 12.342C18.3655 12.3566 18.34 12.3689 18.3344 12.3665C18.2061 12.3164 18.1262 12.2319 18.0488 12.1202C18.0402 12.1084 17.9894 12.2068 17.9808 12.1943C17.9669 12.1742 18.0775 12.0483 18.0717 12.0333C18.0545 11.9923 17.9503 12.1346 17.9042 12.1104C17.7523 12.0302 17.6706 11.801 17.533 11.6824C17.5285 11.679 17.471 11.7633 17.4655 11.7604C17.4309 11.7402 17.4756 11.6016 17.4448 11.5804C17.395 11.5456 17.2797 11.6368 17.232 11.6001C17.1371 11.528 17.0946 11.4058 16.9971 11.3292C16.9171 11.2661 16.8426 11.2276 16.7524 11.1616C16.3585 10.8775 15.8092 10.8526 15.4778 10.4412C15.4694 10.4307 15.5128 10.3622 15.5079 10.3632C15.4607 10.3741 15.4056 10.4682 15.5046 10.2601C15.4438 10.2743 15.3496 10.417 15.3084 10.3752C15.2863 10.353 15.4309 10.1321 15.3233 10.2247C15.2268 10.3087 15.2009 10.4631 15.1575 10.2596C15.1565 10.254 15.2169 10.1032 15.1734 10.1248C15.136 10.143 15.1115 10.2339 15.0582 10.2543C15.0498 10.2575 15.0406 10.2588 15.0308 10.2574C14.8607 10.2343 14.8209 9.87902 14.7322 9.63514C14.7258 9.62225 14.6587 9.50388 14.6412 9.48801C14.6053 9.46205 14.5738 9.5453 14.5529 9.45993C14.5376 9.39209 14.5618 9.26021 14.5421 9.18562C14.5396 9.17711 14.5065 9.22168 14.5018 9.144ZM21.3276 14.8097C21.4076 14.8983 21.711 15.2151 21.5683 15.173C21.5548 15.1691 21.3588 14.9376 21.2984 14.9321C21.2999 14.8839 21.3169 14.8506 21.3273 14.8093C21.3274 14.8095 21.3275 14.8096 21.3276 14.8097ZM14.8237 7.83152C14.8786 7.83523 14.9338 7.83825 14.9883 7.84202C14.9376 7.86608 14.889 7.88592 14.8424 7.90195C14.837 7.87667 14.8309 7.85323 14.8237 7.83152ZM20.4803 10.7833C20.4803 10.7833 20.4802 10.7832 20.4802 10.7832C20.5543 10.7808 20.6287 10.7837 20.7006 10.7879C20.6674 10.8164 20.6339 10.8452 20.6004 10.8741C20.5274 10.8898 20.4521 10.9067 20.3772 10.9287C20.4114 10.8806 20.4458 10.8321 20.4803 10.7833ZM19.8483 10.863C19.8634 10.7908 19.9373 10.7127 19.9897 10.6178C19.9896 10.618 19.9895 10.6181 19.9894 10.6183C20.003 10.5935 20.001 10.5585 19.9969 10.549C19.9568 10.6042 19.9179 10.6593 19.8784 10.7141C19.7164 10.7915 19.9574 10.2212 20.2639 10.1792C20.2078 10.2439 20.1521 10.3086 20.096 10.3736C20.1863 10.4283 20.1486 10.6538 19.8483 10.863ZM20.7852 15.5575C20.8357 15.7883 20.8283 15.8497 20.6509 15.7898C20.6303 15.7296 20.6092 15.6698 20.588 15.6099C20.6388 15.6511 20.6897 15.6918 20.7413 15.7323C20.7413 15.7322 20.7414 15.7322 20.7414 15.7322C20.7074 15.6757 20.6732 15.6192 20.6388 15.5629C20.6876 15.5616 20.7365 15.5598 20.7852 15.5575ZM17.2319 8.88171C17.4732 8.42065 17.3267 8.68542 17.4459 8.61609C17.4875 8.59203 17.5131 8.50225 17.5341 8.49619C17.6488 8.46266 17.4756 8.76818 17.3673 8.91682C17.3213 8.90537 17.2756 8.89286 17.232 8.88178C17.232 8.88175 17.2319 8.88173 17.2319 8.88171ZM15.3137 8.1361C15.3137 8.13609 15.3136 8.13608 15.3136 8.13606C15.3468 8.06536 15.3909 8.04856 15.3863 7.97795C15.4158 7.98002 15.445 7.98257 15.4743 7.98505C15.4621 7.99153 15.4499 7.99752 15.4378 8.00373C15.4324 8.03006 15.4266 8.05726 15.4207 8.08463C15.475 7.99853 15.4593 8.04953 15.4731 8.08511C15.5144 7.98626 15.5547 7.8893 15.5939 7.7944C15.6182 7.82011 15.641 7.84891 15.662 7.88054C15.6491 7.90664 15.6362 7.93282 15.6234 7.95897C15.6538 7.92662 15.6848 7.89303 15.7161 7.85903C15.7036 7.89118 15.6909 7.92327 15.6781 7.95589C15.7071 7.93306 15.7364 7.90963 15.7662 7.88528C15.7297 7.96658 15.6765 7.99642 15.7499 7.98443C15.6874 8.06586 15.6265 8.14455 15.5669 8.22063C15.4834 8.18886 15.4002 8.16165 15.3137 8.1361ZM17.8576 9.04844C17.7603 9.01815 17.8278 8.96015 17.9859 8.74604C17.9434 8.84675 17.9007 8.94758 17.8576 9.04844ZM21.5821 12.6016C21.7166 12.5421 21.8527 12.4879 21.9869 12.4378C22.0413 12.4435 22.0188 12.5007 21.9677 12.5553C21.9201 12.5982 21.8548 12.6453 21.8049 12.6616C21.8015 12.6625 21.7981 12.6631 21.7948 12.6636C21.6614 12.6856 21.7401 12.5558 21.5821 12.6016ZM21.7969 14.1919C21.9003 14.1659 21.9909 14.3325 22.059 14.4086C21.9173 14.3284 21.9083 14.3635 21.8633 14.3897C21.8842 14.347 21.7811 14.194 21.7966 14.1917C21.7967 14.1917 21.7968 14.1918 21.7969 14.1919ZM20.9269 11.5897C20.9033 11.572 20.8543 11.5799 20.8698 11.5266C20.9722 11.4345 20.922 11.561 21.0386 11.3894C21.0548 11.4006 21.0708 11.4118 21.0869 11.4225C21.0186 11.4736 20.9853 11.5296 20.9272 11.5894C20.9271 11.5895 20.927 11.5896 20.9269 11.5897ZM18.798 9.37343C18.7286 9.57963 18.7864 9.50968 18.9179 9.41948C18.8273 9.56659 18.6089 9.76922 18.5389 9.79916C18.6255 9.65732 18.7119 9.51536 18.798 9.37343ZM15.013 18.1224C14.9619 17.9367 15.0472 17.8804 15.1107 17.9184C15.1147 17.9472 15.1188 17.9764 15.1229 18.0056C15.0869 18.0443 15.0493 18.0836 15.013 18.1224ZM21.84 14.4003C21.8489 14.3972 21.8566 14.3935 21.8633 14.3897C21.8598 14.3971 21.8526 14.4013 21.84 14.4003ZM19.0054 15.6321C18.9553 15.4751 18.871 15.4546 18.9721 15.4771C18.9721 15.477 18.972 15.4768 18.9719 15.4767C19.0386 15.4913 19.0543 15.4962 19.1042 15.4859C19.1813 15.6816 19.1208 15.7948 19.2678 15.7707C19.2696 15.7701 19.211 15.6599 19.2392 15.665C19.2478 15.6666 19.3137 15.7482 19.3581 15.7593C19.3723 15.7628 19.4616 15.7531 19.36 15.8065C19.4284 15.9355 19.4889 16.0706 19.5524 16.1972C19.5292 16.255 19.3698 16.0148 19.3311 16.0415C19.2732 16.0823 19.365 16.3594 19.1886 16.0227C19.2023 15.9127 19.2902 15.8671 19.4037 16.0655C19.4579 16.0417 19.3889 15.8672 19.3063 15.805C19.1812 15.9975 19.1371 15.5792 19.0479 15.7879C19.0688 15.8365 19.0868 15.8909 19.1091 15.9353C18.9817 15.7899 19.0236 15.6882 19.0054 15.6321ZM19.5506 15.8118C19.5717 15.9264 19.5922 16.0421 19.6115 16.1578C19.5295 15.9957 19.4732 15.8415 19.4737 15.7262C19.4993 15.7549 19.5251 15.7835 19.5506 15.8118ZM16.9475 17.0098C16.9813 17.1143 17.0043 17.2132 17.0318 17.3144C16.9896 17.2314 16.7295 17.2329 16.8147 17.1046C16.8269 17.086 16.9979 17.2296 16.9475 17.0098ZM18.3592 9.32147C18.3394 9.40663 18.3189 9.49186 18.2979 9.577C18.2315 9.59764 18.1644 9.61936 18.0976 9.64068C18.1845 9.53437 18.2716 9.42787 18.3592 9.32147ZM21.7096 13.0779C21.705 13.0653 21.8385 13.0225 21.7912 12.9931C21.8823 12.9734 21.9647 12.9642 22.0611 12.9659C22.0167 13.0134 21.9719 13.0606 21.9252 13.1056C21.9661 13.0953 22.0079 13.0874 22.0505 13.0813C21.9654 13.117 21.8835 13.1543 21.7988 13.1944C21.9281 13.0257 21.7287 13.1319 21.7096 13.0779ZM20.3368 11.9746C20.4679 11.8246 20.6128 11.801 20.5739 11.7186C20.6764 11.636 20.744 11.6062 20.7882 11.6337C20.7588 11.6749 20.7295 11.7157 20.6999 11.7567C20.795 11.6628 20.8393 11.6367 20.9269 11.5897C20.9269 11.5899 20.9268 11.59 20.9267 11.5901C20.9872 11.6374 20.9537 11.6672 20.8091 11.8336C20.8398 11.6877 20.6964 11.8285 20.5739 11.8749C20.4901 11.9072 20.4814 11.8466 20.3368 11.9746ZM17.1901 16.9158C17.2056 17.114 17.3153 17.2629 17.1509 17.1082C17.1398 17.0606 17.1288 17.0133 17.1176 16.9657C17.1416 16.9486 17.1658 16.932 17.1901 16.9158ZM20.6139 11.2819C20.4039 11.519 20.276 11.7305 20.6282 11.3683C20.6635 11.254 20.4841 11.4844 20.6139 11.2819ZM21.4247 13.879C21.4909 13.8134 21.7704 14.0225 21.8841 14.1647C21.8283 14.1332 21.7727 14.1013 21.7177 14.0692C21.73 14.1013 21.7405 14.1357 21.7523 14.1673C21.6435 14.0709 21.5347 13.9739 21.4247 13.879ZM19.0588 10.3943C19.2916 10.2041 19.0864 10.2155 19.2363 10.1C19.3569 10.0079 19.2301 10.2772 19.1045 10.4129C19.0897 10.4085 19.0745 10.4018 19.0589 10.3944C19.0588 10.3944 19.0588 10.3943 19.0588 10.3943ZM19.4601 10.5881C19.6394 10.333 19.5983 10.4157 19.5166 10.4243C19.4938 10.4268 19.4538 10.2511 19.3451 10.4918C19.3842 10.5211 19.4218 10.5551 19.4601 10.5881ZM20.9134 14.9661C20.8452 14.8885 20.7649 14.6507 20.8122 14.6829C20.8121 14.6828 20.812 14.6827 20.8119 14.6826C20.9491 14.7649 20.8815 14.8631 21.0675 14.9785C20.8525 14.9268 21.1311 15.283 20.7384 14.8332C20.7662 14.7728 20.8281 14.8827 20.9134 14.9661ZM13.629 18.03C13.6289 18.0301 13.6289 18.0301 13.6289 18.0301C13.6372 18.0329 13.7493 18.1739 13.7628 18.2319C13.6807 18.2076 13.6537 18.0979 13.6573 18.293C13.6337 18.2383 13.6112 18.1851 13.5873 18.1301C13.5988 18.0884 13.5875 18.0164 13.629 18.03ZM16.6193 16.8813C16.6324 16.844 16.7193 16.9464 16.7437 16.9293C16.8251 17.4154 16.5661 17.0295 16.6193 16.8813ZM16.226 8.44597C16.2262 8.44585 16.2263 8.44572 16.2264 8.4456C16.2263 8.44583 16.2262 8.44604 16.226 8.44627C16.226 8.44617 16.226 8.44607 16.226 8.44597ZM18.549 16.4155C18.5341 16.3893 18.5221 16.366 18.5123 16.3452C18.5115 16.3432 18.5106 16.3412 18.5098 16.3392C18.5226 16.3644 18.5356 16.3898 18.549 16.4155ZM20.7563 15.1422C20.6318 15.0567 20.6011 14.7858 20.6688 14.7982C20.7099 14.85 20.749 14.8953 20.7928 14.9577C20.6534 14.853 20.7781 15.1563 20.7563 15.1422ZM21.087 12.1356C21.1598 12.2243 20.6399 12.4861 20.9715 12.1829C20.9781 12.1772 21.0844 12.1338 21.087 12.1356ZM21.3774 14.4337C21.2681 14.2974 21.1948 14.3114 21.2791 14.2608C21.3162 14.286 21.3535 14.3113 21.3907 14.3365C21.3861 14.3692 21.3814 14.4021 21.3774 14.4337ZM20.9497 13.159C20.9707 13.1662 20.9927 13.1725 21.0159 13.1772C21.1801 13.2386 21.3754 13.1937 21.6587 12.8951C21.6403 12.8955 21.6227 12.896 21.6045 12.8966C21.4216 13.0239 21.4907 12.9299 21.4735 12.8782C21.4729 12.8765 21.4722 12.8748 21.4714 12.8732C21.3905 12.9162 21.3553 12.9014 21.2876 12.9398C21.1571 13.0144 21.0882 13.1011 20.9497 13.159ZM16.6371 9.26858C16.6624 9.22871 16.6878 9.18858 16.7128 9.14909C16.7582 9.11364 16.8048 9.07895 16.8512 9.04375C16.8029 9.12079 16.7546 9.1978 16.7064 9.27479C16.683 9.27262 16.6599 9.27069 16.6371 9.26889C16.6371 9.26879 16.6371 9.26869 16.6371 9.26858ZM19.4447 15.3087C19.6395 15.7039 19.6437 15.61 19.6158 15.3718C19.5585 15.3512 19.5017 15.33 19.4447 15.3087ZM19.5331 11.5319C19.6287 11.413 19.7241 11.2942 19.8199 11.1746C19.6809 11.2654 19.5732 11.4105 19.4622 11.5789C19.4859 11.5632 19.5096 11.5473 19.5331 11.5319ZM18.9422 11.1804C18.9371 11.2191 19.0087 11.1088 19.0087 11.1121C19.0056 11.1966 18.9755 11.2494 19.0841 11.2086C19.1112 11.1859 19.1392 11.1618 19.1669 11.1383C19.3528 10.8515 19.2229 10.9856 19.2952 10.789C19.2332 10.8886 19.1709 10.9882 19.1082 11.0879C19.096 11.0473 19.0851 11.0084 19.0734 10.9684C19.0485 10.9947 19.0238 11.0208 18.999 11.0471C18.9804 11.0911 18.9586 11.1399 18.9422 11.1804ZM16.477 9.02467C16.4537 8.99799 16.4297 8.97047 16.4071 8.94443C16.3699 9.00934 16.3324 9.0747 16.2952 9.13959C16.3546 9.10094 16.416 9.06304 16.477 9.02467ZM18.9311 15.7881C18.9385 15.81 18.946 15.832 18.954 15.8543C18.942 15.8282 18.9351 15.8068 18.9311 15.7881ZM13.4122 17.6894C13.3598 17.655 13.321 17.7043 13.2772 17.7092C13.3431 17.877 13.4243 17.7942 13.4958 17.8845C13.4903 17.8521 13.4344 17.7038 13.4122 17.6894ZM21.5118 13.7797C21.4504 13.7282 21.3884 13.6781 21.325 13.6294C21.3418 13.6189 21.3591 13.6077 21.375 13.5968C21.3183 13.5647 21.261 13.5325 21.2042 13.5006C21.2453 13.5981 21.0885 13.4921 20.9194 13.4117C21.115 13.537 21.3118 13.6607 21.5118 13.7797ZM15.3533 8.90385C15.4305 8.91165 15.4946 8.84375 15.5546 8.63945C15.5106 8.66871 15.4673 8.69639 15.4251 8.72222C15.4015 8.78219 15.3776 8.84282 15.3533 8.90385ZM17.651 16.1526C17.6251 16.2519 17.5144 15.9769 17.5209 16.1524C17.5704 16.1916 17.6202 16.2312 17.6701 16.2701C17.6638 16.2311 17.6575 16.1917 17.651 16.1526ZM19.858 14.2683C19.7891 14.2041 20.0083 14.5862 19.7727 14.3547C19.815 14.4427 19.8581 14.5249 19.9003 14.6104C19.8367 14.529 19.772 14.4468 19.7099 14.3654C19.7099 14.3654 19.7098 14.3654 19.7098 14.3654C19.6831 14.4242 19.7834 14.5131 19.8426 14.6049C19.867 14.6431 19.7893 14.6031 19.8543 14.6785C19.9671 14.8075 19.9868 14.6776 20.1037 14.8472C20.0378 14.8106 20.0185 14.8906 20.1092 14.9957C20.2102 15.1101 20.1204 14.8657 20.2235 14.9467C19.9914 14.7065 20.1401 14.7278 20.2978 14.9255C20.2379 14.7293 20.1433 14.7004 20.0943 14.7453C20.0164 14.5633 20.0277 14.683 19.9285 14.5553C19.9082 14.4521 20.0581 14.4442 19.858 14.2683ZM20.5639 12.7798C20.6025 12.8063 20.5608 12.9275 20.7054 12.8504C20.7902 12.806 20.801 12.7036 20.9474 12.6502C20.9071 12.6232 20.8557 12.6516 20.7608 12.7396C20.7422 12.7413 20.7243 12.7434 20.7063 12.7454C20.7228 12.7258 20.7389 12.7063 20.7553 12.6866C20.7111 12.7165 20.6673 12.7463 20.6233 12.7765C20.6246 12.7618 20.6257 12.7468 20.6272 12.7317C20.6059 12.748 20.5868 12.7614 20.5639 12.7798ZM16.0227 16.7757C16.0347 16.7695 16.0466 16.7634 16.0585 16.7567C16.0451 16.7236 16.0308 16.6892 16.0168 16.6552C16.0058 16.6282 15.9948 16.6013 15.9839 16.5744C16.0262 16.6694 16.1449 16.8099 16.1327 16.6966C16.1266 16.6397 16.0307 16.4646 16.0728 16.4127C16.0372 16.4364 16.0102 16.4748 15.9779 16.5042C15.9615 16.4478 15.9447 16.3908 15.9282 16.3344C15.9282 16.3343 15.9281 16.3343 15.9281 16.3342C15.911 16.3263 15.8936 16.3178 15.8766 16.3099C15.9253 16.4652 15.974 16.6203 16.0227 16.7757ZM19.3728 11.7817C19.4915 11.7065 19.5457 11.669 19.6563 11.5042C19.6563 11.5041 19.6563 11.504 19.6564 11.5039C19.5852 11.5614 19.5144 11.621 19.4425 11.6813C19.4192 11.7149 19.3959 11.7484 19.3728 11.7817ZM18.3427 15.4329C18.5165 16.0631 18.557 15.6191 18.4289 15.4353C18.4232 15.4268 18.3805 15.4961 18.3427 15.4329ZM21.2603 13.7773C21.2718 13.7537 21.2821 13.732 21.2914 13.7101C21.2252 13.6705 21.1603 13.6295 21.095 13.5885C21.1519 13.649 21.2071 13.7123 21.2603 13.7773ZM15.4581 9.37592C15.4268 9.46271 15.4152 9.53145 15.425 9.56247C15.4365 9.59882 15.4766 9.58506 15.5471 9.49232C15.5433 9.46101 15.5394 9.4297 15.5354 9.39846C15.5767 9.39399 15.6188 9.38705 15.6597 9.38373C15.7913 9.14173 15.6814 9.26287 15.6642 9.16629C15.6633 9.16075 15.6767 9.1143 15.6875 9.06737C15.7069 8.98409 15.718 8.89929 15.6305 9.03645C15.6025 9.08058 15.6407 9.14541 15.5313 9.25714C15.5411 9.27608 15.5548 9.283 15.5668 9.29511C15.5681 9.29643 15.5694 9.29781 15.5706 9.29928C15.5412 9.35758 15.5117 9.41595 15.4824 9.47433C15.4812 9.46984 15.48 9.46536 15.4789 9.46087C15.4717 9.43312 15.4649 9.40467 15.4581 9.37592ZM20.7396 12.9681C20.7659 13.024 20.8455 12.9722 20.9881 12.8821C20.9557 12.8705 20.9233 12.8586 20.8903 12.8469C20.8402 12.8873 20.79 12.9275 20.7396 12.9681ZM15.9268 9.7294C15.9412 9.77613 16.0064 9.62682 16.0334 9.60722C16.1349 9.53314 16.1123 9.65446 16.1937 9.61849C16.1752 9.64408 16.1581 9.66802 16.1403 9.69285C16.1403 9.69288 16.1404 9.6929 16.1404 9.69292C16.2889 9.94521 16.3591 9.55223 16.1969 9.52663C16.2233 9.472 16.2497 9.4174 16.2757 9.36321C16.1636 9.42019 16.0625 9.47775 15.9268 9.7294ZM19.094 15.07C19.0768 15.0422 19.004 14.8474 19.0084 14.9535C19.113 15.2387 19.0974 15.079 19.1631 15.1758C19.1654 15.2071 19.167 15.2378 19.1692 15.2691C19.2738 15.3118 19.25 15.2432 19.126 15.059C19.1176 15.0467 19.1112 15.0976 19.094 15.07ZM18.597 15.144C18.7762 15.5524 18.776 15.3313 18.7139 15.2076C18.6999 15.2081 18.7227 15.2807 18.6964 15.2561C18.6699 15.2316 18.6226 15.1388 18.597 15.144ZM20.6873 13.8424C20.6841 13.8431 20.5288 13.7397 20.638 13.8343C20.9155 14.0372 20.7947 13.8419 20.6979 13.7717C20.6876 13.7921 20.7172 13.836 20.687 13.8421C20.6871 13.8422 20.6872 13.8423 20.6873 13.8424ZM15.0908 9.14966C15.0867 9.16069 15.0987 9.29046 15.1361 9.23726C15.1765 9.17498 15.2174 9.1038 15.2585 9.03614C15.1958 9.07376 15.1659 8.95981 15.0909 9.14979C15.0908 9.14974 15.0908 9.1497 15.0908 9.14966Z" fill="#A8D28F"/>
</svg>
