<svg width="14" height="10" viewBox="0 0 14 10" fill="none" xmlns="http://www.w3.org/2000/svg">
<g clip-path="url(#clip0_131_16667)">
<path d="M1.01555 3.03378C0.972414 2.87506 1.06484 2.90776 0.983123 2.68986C0.992138 2.65772 1.00115 2.62496 1.01015 2.59297C1.02374 2.6941 1.03741 2.79537 1.05108 2.89743C1.03932 2.94309 1.02752 2.98871 1.01561 3.03428C1.01559 3.03411 1.01557 3.03394 1.01555 3.03378ZM1.12687 4.32314C1.11167 4.03169 1.14843 3.92345 1.07173 3.68383C1.07822 3.78607 1.08455 3.88774 1.09092 3.98874C1.0658 3.92044 1.04076 3.85473 1.01609 3.79216C1.01382 3.83295 1.01151 3.8734 1.00911 3.91303C0.984071 3.75288 0.959298 3.59482 0.934707 3.43962C0.943915 3.4566 0.953289 3.47435 0.962564 3.4922C0.975283 3.33337 0.994775 3.27051 1.02804 3.21094C1.02062 3.17278 1.01324 3.13522 1.00586 3.09754C1.03121 3.14856 1.0568 3.20279 1.0825 3.25958C1.07389 3.34275 1.06406 3.43395 1.05583 3.50904C1.10794 3.76395 1.13462 3.5883 1.15025 3.5141C1.17167 3.41445 1.17898 3.55484 1.19521 3.48496C1.19782 3.47399 1.18711 3.36579 1.19388 3.35973C1.22802 3.32838 1.30247 3.35548 1.28885 3.63225C1.22733 3.62551 1.19813 3.84982 1.13305 3.80717C1.1773 4.07993 1.15684 4.19 1.12687 4.32314ZM2.15818 3.16297C2.15376 3.31576 2.10952 3.25759 2.07314 3.15432C2.07311 3.15432 2.07308 3.15432 2.07305 3.15432C2.06506 3.13159 2.03259 2.93101 2.0523 2.93785C2.08449 2.94973 2.12949 3.26563 2.12502 3.04931C2.13601 3.08885 2.14693 3.12395 2.15818 3.16297ZM2.22232 3.13959C2.24816 3.2159 2.26227 3.45487 2.23302 3.39205C2.23304 3.39224 2.23305 3.39243 2.23307 3.39262C2.22084 3.36634 2.22202 3.17638 2.20537 3.37032C2.18414 3.22191 2.16425 3.08688 2.14348 2.9432C2.15183 2.94021 2.15928 2.93578 2.16807 2.93325C2.18524 3.17846 2.19651 3.06386 2.22232 3.13959ZM1.30513 3.49009C1.28614 3.27625 1.27477 3.28217 1.24036 3.14663C1.25956 3.14306 1.27789 3.14092 1.298 3.13898C1.29961 3.25688 1.30278 3.37357 1.30513 3.49009ZM0.86835 3.75454C0.868321 3.75457 0.868294 3.75459 0.868267 3.75462C0.865018 3.78686 0.861723 3.81886 0.858432 3.84995C0.848566 3.79391 0.838822 3.73867 0.829071 3.68381C0.813717 3.76149 0.797939 3.83692 0.781961 3.9098C0.766814 3.73905 0.807808 3.72514 0.815428 3.57654C0.851865 3.59376 0.878283 3.68781 0.896963 3.84445C0.887412 3.81404 0.877879 3.78374 0.86835 3.75454ZM6.41913 4.07984C6.42758 4.01883 6.43599 3.95777 6.44456 3.89676C6.43469 3.86873 6.42475 3.84731 6.41473 3.81485C6.38431 4.08028 6.38467 3.84516 6.3485 3.86116C6.23719 3.91079 6.26581 4.32377 6.16931 3.71893C6.24842 3.74782 6.21772 3.46367 6.26831 3.24505C6.27751 3.41166 6.22712 3.7871 6.25957 3.86523C6.31671 3.68923 6.37257 3.52551 6.43663 3.4125C6.43518 3.38369 6.43374 3.35478 6.43228 3.32596C6.42208 3.344 6.41197 3.36215 6.40179 3.3802C6.41344 3.30324 6.42494 3.22696 6.43697 3.14914C6.42082 3.32391 6.45743 3.22662 6.4499 3.42758C6.44656 3.51703 6.42952 3.64095 6.41945 3.72634C6.44211 3.77313 6.46518 3.81607 6.48763 3.86161C6.47448 3.93271 6.46144 4.00389 6.44858 4.07501C6.4388 4.07709 6.4291 4.07854 6.4193 4.08063C6.41924 4.08036 6.41918 4.0801 6.41913 4.07984ZM11.3688 3.54836C11.3221 3.75332 11.2673 3.78312 11.2607 3.54995C11.2965 3.54953 11.3324 3.54877 11.3688 3.54836ZM0.912739 3.97338C0.906475 3.94558 0.900367 3.91826 0.894147 3.89094C0.902012 3.825 0.909813 3.75777 0.917322 3.68878C0.929219 3.77534 0.941225 3.86242 0.95326 3.94963C0.939801 3.95739 0.926207 3.96508 0.912739 3.97338ZM1.7975 3.54174C1.78784 3.54947 1.78657 3.54588 1.77209 3.53113C1.77212 3.53123 1.77214 3.53132 1.77217 3.53141C1.7665 3.52592 1.7171 3.46465 1.71333 3.37807C1.73456 3.37459 1.75742 3.37392 1.77913 3.37193C1.78537 3.42851 1.79105 3.48469 1.7975 3.54174ZM1.53984 3.51952C1.53979 3.51933 1.53974 3.51915 1.53969 3.51897C1.5305 3.50733 1.52037 3.48223 1.51175 3.47906C1.52744 3.33813 1.55644 3.57988 1.57611 3.50726C1.59109 3.4515 1.59639 3.35908 1.62287 3.46569C1.63108 3.49876 1.64132 3.55095 1.6545 3.6293C1.65253 3.65904 1.65107 3.69619 1.64964 3.73372C1.64863 3.76022 1.64763 3.78693 1.64648 3.81137C1.59554 3.68233 1.59792 3.80949 1.58083 3.94479C1.56714 3.80273 1.55353 3.66162 1.53984 3.51952ZM5.92994 3.46295C5.92413 3.61362 5.91449 3.46593 5.9136 3.46416C5.91362 3.46399 5.91363 3.46381 5.91364 3.46364C5.85012 3.60384 5.92136 3.38015 5.85922 3.35741C5.86797 3.31966 5.87657 3.2798 5.88528 3.24161C5.9003 3.31407 5.91567 3.39622 5.92994 3.46295ZM3.80519 3.50735C3.80127 3.46173 3.79722 3.416 3.79328 3.37037C3.83031 3.37963 3.82821 3.1999 3.87106 3.36215C3.8492 3.41086 3.826 3.45946 3.80523 3.5079C3.80522 3.50772 3.80521 3.50754 3.80519 3.50735ZM2.01372 3.87383C1.98212 3.96886 1.95308 4.01229 1.90262 3.87037C1.90257 3.87018 1.90253 3.87 1.90248 3.86981C1.89945 3.86106 1.90004 3.75983 1.89476 3.73483C1.88852 3.75053 1.88281 3.77432 1.87676 3.79294C1.86782 3.71273 1.85893 3.63252 1.85004 3.55279C1.87457 3.57353 1.89754 3.59442 1.92398 3.61501C1.91594 3.56837 1.90785 3.52214 1.89979 3.4755C1.91738 3.44955 1.93484 3.42373 1.95232 3.39787C1.9582 3.52999 1.96412 3.66218 1.97018 3.79484C1.98474 3.82134 1.99918 3.84684 2.01372 3.87383ZM4.45003 3.97493C4.44067 3.92639 4.44763 3.84396 4.4351 3.80233C4.42259 3.76121 4.40964 3.85318 4.40556 3.71501C4.41797 3.69593 4.43088 3.67414 4.44344 3.65422C4.38422 3.40713 4.35305 3.63382 4.33329 3.3262C4.38157 3.40471 4.41441 3.36649 4.45068 3.28055C4.4633 3.52385 4.43503 3.7361 4.47439 3.96364C4.46636 3.96718 4.45798 3.97221 4.45009 3.9744C4.45007 3.97458 4.45005 3.97475 4.45003 3.97493ZM0.482543 5.4459C0.450955 5.3856 0.379941 5.26434 0.336195 5.15812C0.325119 5.12885 0.285191 5.00468 0.284834 5.00026C0.283045 4.97664 0.319652 5.01621 0.277779 4.94935C0.291128 4.96499 0.303936 4.97893 0.31703 4.99341C0.312091 4.96695 0.307278 4.94157 0.302656 4.91725C0.287717 4.90899 0.2726 4.89954 0.257332 4.88886C0.256001 4.88298 0.254681 4.87721 0.253375 4.87156C0.308146 4.90939 0.273382 4.86462 0.297971 4.84958C0.271444 4.82739 0.245381 4.81204 0.22029 4.80399C0.234441 4.80559 0.251105 4.80755 0.263663 4.8102C0.261852 4.77834 0.233829 4.79027 0.228394 4.78668C0.198625 4.77232 0.339502 4.74517 0.34088 4.65248C0.318818 4.65915 0.296019 4.67015 0.274079 4.68414C0.27945 4.67165 0.28479 4.65809 0.289942 4.64368C0.342317 4.63675 0.400433 4.62724 0.464206 4.65467C0.469065 4.64876 0.473898 4.64257 0.478654 4.63657C0.472657 4.59574 0.466812 4.55554 0.460921 4.51575C0.467999 4.50453 0.475141 4.49301 0.482146 4.48127C0.474949 4.64126 0.505571 4.61102 0.555585 4.69981C0.540542 4.76025 0.510669 4.73067 0.522716 4.82561C0.58828 4.74419 0.688167 4.87535 0.74582 4.75508C0.759907 4.72314 0.739643 4.53238 0.780946 4.53533C0.781939 4.55779 0.785909 4.5975 0.788089 4.62654C0.845051 4.51556 0.884935 4.4229 0.971259 4.51925C0.957901 4.43434 0.944653 4.34992 0.931461 4.26676C0.920285 4.31649 0.908977 4.36545 0.897508 4.41214C0.872577 4.28205 0.882088 4.21417 0.835692 4.24235C0.797614 4.26566 0.826297 4.30878 0.81983 4.35194C0.810971 4.40932 0.789526 4.31685 0.780957 4.38005C0.774295 4.42755 0.796886 4.52115 0.764922 4.50761C0.76346 4.378 0.761198 4.23854 0.758493 4.09639C0.768411 4.11978 0.778396 4.14447 0.788492 4.16976C0.785322 4.21072 0.782136 4.25034 0.778787 4.28969C0.796226 4.21132 0.815329 4.13261 0.83464 4.04191C0.847333 4.25178 0.867454 4.15834 0.879987 4.12344C0.899538 4.06931 0.894629 4.22822 0.907665 4.19501C0.920746 4.16243 0.919705 3.98283 0.951284 4.00081C0.946782 4.10968 0.976579 4.18759 0.982345 4.28259C0.988098 4.37745 0.959748 4.40606 0.999493 4.49797C1.04742 4.40384 0.94985 4.07074 0.980841 3.99365C1.01714 3.89226 1.09113 4.49692 1.09106 4.62893C1.09096 4.73226 1.0516 4.7156 1.0508 4.81375C1.13701 4.99324 1.09989 4.6339 1.10361 4.55897C1.11695 4.28718 1.16298 4.99765 1.18495 4.73746C1.19801 4.87215 1.20982 4.99312 1.22228 5.12196C1.22827 5.09843 1.23051 5.06618 1.23871 5.04723C1.18119 4.78184 1.20705 4.79434 1.21948 4.79267C1.2391 4.79052 1.19522 4.66284 1.19699 4.62927C1.20172 4.53787 1.2279 4.5744 1.20219 4.45877C1.21392 4.51248 1.22621 4.56676 1.23813 4.62097C1.25415 4.55262 1.24556 3.94335 1.20801 4.08013C1.19018 3.86066 1.21698 3.95809 1.233 3.98728C1.24899 4.0163 1.23422 3.87518 1.24788 3.8969C1.30233 3.98543 1.29899 4.24195 1.31147 4.43284C1.35627 4.28893 1.29043 4.21425 1.36462 4.10303C1.35628 3.94042 1.30073 3.78402 1.32309 3.6804C1.35702 3.95537 1.40149 4.14846 1.46038 4.2336C1.45853 4.16782 1.4566 4.10129 1.45473 4.0352C1.5079 4.2911 1.52209 4.56798 1.53829 4.23397C1.57265 4.83917 1.552 4.45113 1.62078 4.69242C1.63471 4.74125 1.62671 4.86834 1.64559 4.93091C1.65414 4.95922 1.6583 4.86336 1.67941 4.9355C1.68978 4.97106 1.74456 5.20293 1.7549 5.08975C1.7096 4.79684 1.72553 4.54211 1.66595 4.30223C1.68208 4.3142 1.69613 4.31604 1.70784 4.31647C1.7472 4.31792 1.76026 4.3028 1.73667 4.6051C1.73632 4.60951 1.73597 4.614 1.73561 4.61855C1.73684 4.62278 1.73805 4.627 1.73928 4.63122C1.76339 4.71448 1.7874 4.79741 1.81131 4.88024C1.81569 4.80885 1.8202 4.73801 1.8247 4.66711C1.85043 4.90904 1.85553 4.97713 1.89566 4.93009C1.88209 4.98916 1.86864 5.04918 1.85495 5.10876C1.85915 5.15771 1.8615 5.2088 1.86686 5.25618C1.88146 5.16079 1.94398 5.11405 1.9536 5.04803C1.96328 4.982 1.93058 4.96749 1.92903 4.90453C1.91682 4.38548 1.95119 4.76579 1.97 4.67465C1.98102 4.62077 1.93688 4.56777 1.94333 4.54465C1.96764 4.45987 2.0082 4.73224 2.03925 4.73267C2.01352 4.57841 1.98699 4.42175 1.96183 4.26589C1.99379 4.27116 2.02964 4.26916 2.05395 4.21664C2.06355 4.19612 2.04369 4.0815 2.04481 4.07359C2.0503 4.03307 2.08202 3.96689 2.08595 3.96606C2.11589 3.9625 2.1321 4.12216 2.1619 4.1283C2.15184 4.14283 2.1423 4.15598 2.13241 4.17004C2.15226 4.42948 2.17205 4.68896 2.19201 4.94898C2.22212 4.96497 2.25202 4.98057 2.28187 4.99654C2.25312 4.91222 2.22419 4.82826 2.19516 4.74381C2.20742 4.53142 2.21966 4.31883 2.23191 4.1066C2.2609 4.23348 2.2897 4.36026 2.31844 4.48696C2.3602 4.44888 2.3021 3.92964 2.36633 4.38337C2.3759 4.34366 2.38546 4.30401 2.39505 4.26485C2.39926 4.32997 2.40351 4.39523 2.40773 4.46037C2.41981 4.41896 2.43188 4.37786 2.44386 4.33607C2.40584 4.10768 2.36682 3.86701 2.32922 3.64493C2.35598 3.5926 2.37479 3.78764 2.384 3.83595C2.4084 3.96387 2.41663 3.78813 2.43748 3.90659C2.44458 3.94722 2.42612 4.07801 2.45039 4.22516C2.45532 4.25378 2.54557 4.79387 2.56212 4.66559C2.5525 4.56723 2.53923 4.44675 2.52821 4.33979C2.55967 4.2769 2.62543 4.7884 2.63381 4.93267C2.64396 4.83002 2.67141 4.81885 2.66102 4.66137C2.67054 4.65661 2.67998 4.65206 2.68946 4.64731C2.7141 5.03074 2.74846 4.95659 2.72135 4.62783C2.7038 4.62126 2.68612 4.61427 2.66844 4.6077C2.64439 4.20335 2.57105 3.96455 2.71191 4.32877C2.75121 4.5364 2.6731 4.30336 2.70391 4.45878C2.74102 4.54749 2.76106 4.4688 2.80121 4.61193C2.85108 4.79066 2.82556 4.96915 2.88266 4.73052C2.65844 4.16676 2.87218 4.33683 2.93588 4.15188C3.00625 4.7206 3.09358 4.893 3.17481 4.71535C3.15141 4.5585 3.12806 4.64247 3.10605 4.59204C3.08401 4.54153 3.095 4.44613 3.06667 4.37411C3.03875 4.30206 2.98126 4.20544 2.9512 4.09491C2.9602 4.0038 3.03768 3.78546 2.99709 4.04424C3.05708 4.19773 3.09247 4.35682 3.1513 4.38153C3.14722 4.13416 3.13317 3.98114 3.18735 3.97042C3.18383 4.31404 3.2655 4.5463 3.28138 4.89957C3.23635 4.82119 3.22889 4.47657 3.19277 4.31434C3.1891 4.29809 3.16026 4.38695 3.1513 4.38153C3.21404 4.68693 3.23586 4.7999 3.24478 5.16886C3.26751 5.13408 3.28707 5.17839 3.2747 5.00333C3.28635 5.07864 3.29801 5.15397 3.30953 5.22922C3.31756 5.22644 3.32434 5.21863 3.33311 5.21909C3.2992 4.95697 3.33588 5.11665 3.34237 4.99567C3.34888 4.87465 3.30964 4.669 3.35458 4.66218C3.33448 4.602 3.31629 4.55036 3.29677 4.49327C3.3205 4.42312 3.3442 4.35277 3.36777 4.28308C3.33434 4.12437 3.26981 3.88872 3.25347 3.67715C3.27376 3.75615 3.30877 3.61347 3.31338 3.60752C3.33129 3.58496 3.33142 3.71849 3.33318 3.7217C3.3693 3.78458 3.39051 3.73804 3.41869 3.93836C3.43579 3.84616 3.4583 3.89679 3.48352 3.89012C3.4974 3.88647 3.48299 3.73937 3.49346 3.76686C3.56288 3.95039 3.52584 4.14266 3.60218 3.7756C3.58166 3.67406 3.56102 3.57004 3.54021 3.46733C3.5491 3.4282 3.5579 3.38892 3.56679 3.34989C3.57617 3.36817 3.58546 3.38659 3.5948 3.40484C3.61168 3.62629 3.62856 3.84822 3.64545 4.06968C3.65493 4.08121 3.66441 4.09238 3.67385 4.1039C3.6609 4.12664 3.64789 4.14939 3.63488 4.17221C3.63656 4.21129 3.63832 4.25039 3.64 4.28948C3.66647 4.34834 3.69272 4.40762 3.71885 4.46671C3.7134 4.38976 3.7079 4.31227 3.70245 4.23532C3.75921 4.33911 3.76498 4.40361 3.79491 4.18938C3.83045 4.18927 3.83401 3.86765 3.84639 3.73213C3.85727 3.77459 3.86816 3.81757 3.87906 3.85996C3.87939 3.79617 3.8798 3.73269 3.88016 3.66897C3.89635 3.75685 3.91259 3.84467 3.92858 3.93194C3.91961 3.73133 3.91812 3.66878 3.87477 3.60006C3.86996 3.35008 3.94532 3.4578 3.97807 3.54009C4.00299 3.60257 3.99478 3.81076 3.99912 3.8359C4.01366 3.92111 4.04194 3.84554 4.04991 3.85941C4.08358 3.91698 4.10345 3.9056 4.13293 3.94994C4.1387 3.95883 4.16178 4.08883 4.16325 4.09285C4.1742 4.1147 4.20156 4.17686 4.20429 4.17853C4.34646 4.26825 4.16094 3.71038 4.2973 3.76396C4.28858 3.68971 4.28019 3.61591 4.27152 3.5416C4.28134 3.5367 4.29127 3.53202 4.30106 3.52713C4.31773 3.58884 4.30945 3.70242 4.32896 3.61031C4.33306 3.70197 4.33716 3.79368 4.34116 3.88492C4.34897 3.83498 4.35641 3.78551 4.3645 3.73567C4.40183 4.05262 4.46881 4.1213 4.48662 4.4935C4.4927 4.62009 4.45689 4.75322 4.4882 4.88681C4.50849 4.91202 4.4867 4.76173 4.49385 4.75324C4.54566 4.69424 4.55481 4.90614 4.57374 4.84808C4.57193 4.75718 4.57023 4.66453 4.5685 4.57279C4.57847 4.59885 4.58843 4.6249 4.5984 4.65093C4.59685 4.58996 4.59539 4.52892 4.59386 4.46797C4.58571 4.46438 4.57654 4.4608 4.56901 4.45718C4.56557 4.22061 4.65294 4.11037 4.62869 4.31279C4.61887 4.395 4.59054 4.36197 4.62302 4.6392C4.64547 4.59753 4.67068 4.55493 4.69645 4.51332C4.70057 4.57304 4.70463 4.63287 4.70874 4.69259C4.74324 4.65163 4.69701 4.41482 4.69 4.28668C4.69828 4.28265 4.70666 4.27906 4.71491 4.27504C4.7216 4.33273 4.72824 4.39311 4.73496 4.44897C4.73035 4.35687 4.7237 4.14266 4.75298 4.22088C4.77174 4.27174 4.75877 4.50513 4.78748 4.4713C4.77775 4.32801 4.75754 4.15371 4.78926 4.10602C4.80035 4.25551 4.81203 4.39235 4.82265 4.54942C4.85712 4.40353 4.88742 4.63323 4.9275 4.464C4.95291 4.35684 4.97757 3.98154 5.02366 4.55635C5.04757 4.57036 5.03379 4.42741 5.03926 4.39487C5.06516 4.24102 5.10091 4.51272 5.10748 4.52844C5.14978 4.62944 5.16281 4.53442 5.19843 4.66158C5.19258 4.55538 5.1877 4.45481 5.18226 4.35125C5.16037 4.51158 5.14602 4.50479 5.10465 4.47226C5.11714 4.45029 5.1296 4.42786 5.14205 4.40595C5.13633 4.31974 5.13061 4.23349 5.12495 4.1477C5.01502 4.49299 5.02017 3.95353 5.12095 3.83272C5.13655 3.99216 5.15229 4.15109 5.16749 4.31084C5.21735 4.06669 5.25363 4.27576 5.32082 4.32359C5.32852 4.32906 5.35464 4.23634 5.3675 4.23141C5.36727 4.23081 5.36704 4.23021 5.3668 4.2296C5.36984 4.07899 5.35674 4.01012 5.35097 3.87575C5.35744 3.8587 5.36393 3.84173 5.37041 3.82469C5.38938 3.9267 5.38657 4.01095 5.41634 3.98573C5.40908 3.88387 5.40182 3.78198 5.39446 3.68011C5.42824 3.67573 5.45344 3.78595 5.48309 3.73734C5.47896 3.77601 5.47491 3.81481 5.47081 3.85349C5.54076 3.95022 5.50384 4.55066 5.54568 4.25117C5.55021 4.30334 5.55465 4.35603 5.55914 4.40821C5.53917 4.42158 5.51911 4.4346 5.49907 4.44804C5.50075 4.52203 5.50239 4.59571 5.50415 4.6697C5.52524 4.64688 5.54635 4.62341 5.56731 4.60067C5.55287 4.65072 5.53837 4.70086 5.52398 4.75096C5.54998 4.78565 5.57573 4.8204 5.6012 4.85517C5.56818 4.58394 5.60146 4.54979 5.58844 4.28068C5.62802 4.45568 5.66009 4.67471 5.70567 4.669C5.718 4.66744 5.73111 4.64892 5.74542 4.60788C5.7585 4.56996 5.74791 4.3819 5.79095 4.61022C5.77639 4.31098 5.82368 4.1697 5.81311 3.88506C5.79938 3.899 5.78502 3.90786 5.77173 3.92491C5.78887 4.02343 5.7956 4.2951 5.77396 4.37613C5.74645 4.47937 5.69948 4.29193 5.70727 4.59346C5.7062 4.59222 5.70514 4.59103 5.70408 4.58988C5.69323 4.57806 5.68302 4.57036 5.6723 4.5597C5.67543 4.48479 5.67849 4.40941 5.68161 4.3345C5.65043 4.45249 5.63145 4.41479 5.61132 4.22656C5.63841 4.1939 5.666 4.16152 5.69479 4.12923C5.70492 4.11774 5.71505 4.10627 5.72517 4.0948C5.71912 4.08209 5.71298 4.06927 5.70691 4.057C5.73318 3.86376 5.69868 3.68182 5.75438 3.63961C5.75557 3.72774 5.75682 3.81593 5.75802 3.9045C5.77425 3.66848 5.83026 3.66892 5.80837 3.3981C5.82661 3.48111 5.83068 3.53374 5.83826 3.38748C5.88586 3.59285 5.91612 3.85307 5.9043 4.16421C5.91966 4.11398 5.93507 4.0637 5.95045 4.01351C5.94047 3.92855 5.93035 3.844 5.92013 3.75907C5.94787 3.76409 5.97753 3.76906 6.00647 3.77375C6.01094 4.0253 5.95127 3.8505 5.96996 4.07525C5.97368 4.12037 5.98838 4.02355 5.99264 4.04895C6.03718 4.32373 5.96893 4.12547 5.98311 4.33615C6.04652 4.40084 5.99833 4.75427 6.08228 4.45708C6.08477 4.52971 6.0874 4.6038 6.08968 4.67599C6.11887 4.68028 6.11618 4.51621 6.14137 4.48518C6.15725 4.46589 6.17649 4.75401 6.19397 4.55785C6.19722 4.5217 6.16843 4.16946 6.23024 4.18514C6.27847 4.19736 6.25749 4.44613 6.28306 4.53445C6.30841 4.62274 6.37171 4.27827 6.38473 4.66964C6.37186 4.61768 6.35489 4.58955 6.34016 4.54691C6.33331 4.62304 6.32669 4.69834 6.32005 4.77403C6.3553 4.67598 6.38917 4.79228 6.41438 4.61096C6.45598 4.88927 6.50973 4.63242 6.5017 4.31858C6.48587 4.36354 6.49997 4.50056 6.48055 4.41308C6.47958 4.33996 6.47848 4.26719 6.47746 4.19407C6.51329 4.2035 6.53808 4.20193 6.51777 4.42443C6.52307 4.42984 6.52874 4.43525 6.53424 4.44067C6.53829 4.27946 6.54226 4.11765 6.54635 3.95645C6.55359 3.93842 6.56087 3.92054 6.56813 3.90252C6.57509 3.93809 6.58202 3.97407 6.58896 4.01009C6.57312 4.26499 6.55609 4.27302 6.61007 4.4169C6.61224 4.32876 6.61448 4.24098 6.61665 4.15285C6.66238 4.26603 6.65809 4.47952 6.71746 4.47321C6.66401 4.77791 6.65298 4.23494 6.63791 4.84875C6.62766 4.80817 6.61725 4.76705 6.60682 4.72649C6.60306 4.81547 6.59933 4.90459 6.5957 4.99357C6.65602 4.94788 6.77361 4.36544 6.80255 4.75497C6.80906 4.70777 6.81541 4.66677 6.82219 4.61603C6.85403 4.85161 6.89064 4.32646 6.91997 4.63083C6.92284 4.66278 6.89526 5.15634 6.94712 5.14073C6.94849 5.07649 6.95228 4.96842 6.95456 4.88741C6.96419 4.92725 6.97361 4.96893 6.98296 5.00967C6.98751 4.95047 6.99217 4.8913 6.99678 4.83166C6.97857 4.80781 6.96034 4.78361 6.94193 4.75982C6.95882 4.74011 6.97583 4.7204 6.99277 4.70074C6.97593 4.60295 6.96628 4.60153 6.98557 4.44679C7.00441 4.43827 7.02329 4.4292 7.04212 4.42073C7.04579 4.38104 7.04948 4.34088 7.05318 4.30119C7.04953 4.18219 7.04551 4.0658 7.04161 3.94502C7.0862 4.04407 7.12969 4.05141 7.15543 4.28642C7.15983 4.32611 7.12962 4.47945 7.17988 4.34232C7.17636 4.42416 7.17412 4.49065 7.17098 4.56632C7.23524 4.33986 7.24973 4.40923 7.2947 4.57774C7.26817 4.42137 7.29395 4.52355 7.30772 4.44136C7.3172 4.38473 7.29251 4.39177 7.29863 4.33224C7.30463 4.27313 7.35031 4.03567 7.32462 4.00532C7.23046 4.4921 7.24436 3.90455 7.14564 4.13605C7.162 4.07342 7.17859 4.01068 7.19517 3.94809C7.19106 3.90489 7.18737 3.8657 7.1828 3.81981C7.22664 3.91827 7.20605 3.85471 7.23002 3.78011C7.254 3.70549 7.2941 3.6432 7.3198 3.62379C7.32789 3.61769 7.31361 3.72725 7.33038 3.73847C7.34166 3.7462 7.3837 3.58501 7.37988 3.77771C7.37713 3.90313 7.30614 4.24473 7.37648 4.24807C7.38229 4.37154 7.35101 4.33143 7.34941 4.34617C7.33483 4.49176 7.37077 4.604 7.39731 4.4938C7.39953 4.48429 7.39083 4.36962 7.41064 4.32606C7.45783 4.22201 7.47327 4.35393 7.48765 4.53202C7.5039 4.32531 7.55478 4.08049 7.59241 4.15992C7.59868 4.10088 7.60489 4.04131 7.61121 3.98183C7.60238 4.0127 7.5936 4.04315 7.58479 4.07402C7.58006 4.0364 7.57419 4.00885 7.57002 3.96461C7.6168 3.91668 7.64267 3.63208 7.6711 3.52927C7.76877 3.17819 7.67078 3.92856 7.64908 4.05755C7.64363 4.00432 7.63886 3.94499 7.63356 3.88911C7.62955 3.96121 7.6255 4.03387 7.62135 4.10641C7.72689 4.11169 7.6042 4.57509 7.64723 4.71277C7.68637 4.3594 7.72854 4.32814 7.76089 4.55673C7.7665 4.55538 7.77204 4.55535 7.7777 4.55357C7.7826 4.50199 7.78868 4.42304 7.79281 4.38913C7.85798 4.33376 7.82451 4.88 7.82597 4.93211C7.83209 5.16321 7.87679 4.84773 7.88438 4.84561C7.91604 4.83709 7.91328 4.97858 7.9476 4.92057C7.98466 4.8579 7.97217 4.7481 7.98997 4.65226C8.00421 4.57615 8.03058 4.56462 8.04787 4.48596C8.03814 4.55068 8.02807 4.61409 8.01839 4.67905C8.04392 4.77058 8.06335 4.85937 8.09812 4.88421C8.18199 4.41191 8.14623 5.21801 8.19 4.56557C8.15859 4.51783 8.14548 4.44189 8.14107 4.27429C8.16619 4.25516 8.19138 4.2366 8.21671 4.21753C8.21714 4.2896 8.21574 4.35968 8.21725 4.43319C8.24836 4.283 8.28321 4.35182 8.30332 4.30879C8.3976 4.10705 8.39963 3.84624 8.42611 4.28741C8.37358 4.32522 8.35407 4.53646 8.30775 4.50282C8.3044 4.65466 8.33208 4.6257 8.29928 4.80507C8.35073 4.76492 8.35016 4.60201 8.38174 4.46037C8.40884 4.33825 8.44106 4.33431 8.45445 4.17357C8.44935 4.26216 8.44377 4.34786 8.43864 4.43633C8.46894 4.43831 8.49932 4.44115 8.52994 4.4432C8.50807 4.5341 8.48626 4.62518 8.4646 4.71567C8.47103 4.7514 8.47748 4.78701 8.48391 4.82276C8.58701 4.54335 8.66354 5.08118 8.71381 4.35926C8.75184 4.33986 8.74748 4.4306 8.7535 4.56874C8.76107 4.51431 8.76768 4.46906 8.77587 4.40845C8.79343 4.46796 8.83178 4.26458 8.84717 4.31998C8.8626 4.37496 8.84839 4.56927 8.88399 4.24384C8.88811 4.33862 8.89376 4.41758 8.89849 4.50575C8.91401 4.43257 8.9295 4.36024 8.94491 4.28749C8.95322 4.3275 8.9616 4.36736 8.96996 4.40738C8.99213 4.25256 9.03379 4.32446 9.06591 4.22223C9.06943 4.39189 9.01535 4.91947 9.07329 4.82982C9.0853 4.69882 9.09729 4.56821 9.1093 4.43721C9.11763 4.46566 9.12602 4.49403 9.13449 4.52249C9.13083 4.56527 9.12708 4.60804 9.12342 4.65082C9.11905 4.63702 9.11477 4.62331 9.11046 4.60907C9.10807 4.68185 9.10561 4.75429 9.10315 4.82707C9.13102 4.72171 9.159 4.61635 9.18713 4.51102C9.17211 4.42758 9.1572 4.34411 9.1424 4.26069C9.18104 4.16754 9.19156 4.26543 9.22783 4.16091C9.2316 4.34383 9.21286 4.44711 9.18396 4.64226C9.19387 4.62636 9.20384 4.61104 9.21379 4.59514C9.18846 4.79068 9.1904 4.90893 9.14405 4.8882C9.14167 4.94447 9.13961 4.99814 9.13692 5.05659C9.14568 5.04858 9.14598 5.09637 9.15683 5.07568C9.18619 5.019 9.23796 4.67627 9.24883 4.55537C9.25441 4.49202 9.21984 4.61074 9.22983 4.5214C9.25399 4.30352 9.29597 4.40671 9.24332 4.18008C9.28313 4.04386 9.27704 4.14902 9.30025 4.1919C9.30551 4.11902 9.31079 4.0466 9.31614 3.97372C9.32529 4.00848 9.33451 4.04312 9.34373 4.07789C9.28819 4.44939 9.36722 4.59908 9.25009 4.9171C9.27312 4.93636 9.29621 4.95571 9.31937 4.97587C9.31034 5.01369 9.30134 5.05111 9.29232 5.08893C9.28313 5.06752 9.27401 5.04644 9.26484 5.02548C9.27087 5.09687 9.27702 5.16785 9.28315 5.23926C9.32329 5.15561 9.34927 5.02334 9.38046 4.85997C9.35596 4.73595 9.35126 4.90148 9.31949 4.93124C9.33109 4.82695 9.33954 4.7308 9.35316 4.62138C9.34582 4.83909 9.41001 4.68668 9.42237 4.67725C9.45989 4.64861 9.41144 4.85834 9.43396 4.86514C9.45653 4.87188 9.49672 4.7482 9.49435 4.9608C9.50601 4.84269 9.51686 4.72036 9.52638 4.6127C9.56498 4.57742 9.54386 4.71622 9.54563 4.73465C9.57276 5.0375 9.62942 4.78987 9.69934 4.76618C9.69451 4.72874 9.68926 4.69486 9.68417 4.65962C9.75983 4.41396 9.71796 4.4873 9.68285 4.40006C9.72107 4.42929 9.76612 4.21812 9.8016 4.15757C9.83704 4.09712 9.87651 4.21185 9.88662 4.2992C9.83037 4.43249 9.79403 4.33724 9.74406 4.37051C9.73722 4.49134 9.7321 4.59367 9.72426 4.72641C9.77782 4.47674 9.77735 4.64722 9.78338 4.68166C9.80111 4.78267 9.82194 4.56586 9.81539 4.80065C9.82272 4.72039 9.82895 4.65291 9.83576 4.57794C9.88984 4.61718 9.93282 4.76463 9.99877 4.47206C9.98301 4.66503 9.96714 4.85086 9.95151 5.04784C9.98942 4.90517 9.99508 5.05567 10.0185 5.02374C10.0419 4.99176 10.0495 4.83532 10.079 4.77767C10.0844 4.76707 10.084 4.86541 10.1018 4.7946C10.1198 4.72343 10.2126 4.19017 10.1717 4.65994C10.1919 4.66414 10.2102 4.68324 10.228 4.69298C10.2073 4.71767 10.1848 4.74135 10.1627 4.7659C10.1681 4.88125 10.1747 4.99638 10.1791 5.11161C10.1909 5.01039 10.203 4.90734 10.2146 4.80744C10.2694 4.68812 10.2847 4.85696 10.3324 4.82195C10.3404 4.81604 10.3423 4.61385 10.3701 4.66809C10.3979 4.72237 10.3866 5.09901 10.4572 4.95982C10.4608 4.9526 10.5047 4.6675 10.5065 4.86791C10.5069 4.91333 10.481 4.97804 10.4861 5.03813C10.4912 5.09824 10.5349 5.15138 10.5255 5.29244C10.5297 5.24256 10.5315 5.19065 10.5348 5.1398C10.5454 5.11677 10.5551 5.09364 10.5652 5.07102C10.5577 5.15885 10.5503 5.24682 10.5429 5.33421C10.607 5.1342 10.661 4.80321 10.7184 4.91969C10.7111 4.79045 10.704 4.66072 10.6971 4.53151C10.6837 4.62058 10.6701 4.71025 10.6567 4.79932C10.6291 4.76072 10.6024 4.72245 10.5744 4.68379C10.5596 4.78518 10.5448 4.88629 10.5299 4.98767C10.5226 4.97364 10.5153 4.96002 10.5081 4.94599C10.5171 4.87254 10.5262 4.79948 10.5353 4.72604C10.5168 4.74253 10.4982 4.7594 10.4799 4.77591C10.5547 4.34437 10.5717 4.82187 10.6014 4.45777C10.6036 4.51489 10.6052 4.57237 10.6071 4.62992C10.6268 4.45386 10.6366 4.50598 10.6599 4.53618C10.6621 4.44873 10.6635 4.36241 10.6663 4.27413C10.6799 4.39908 10.7259 4.39134 10.748 4.44097C10.7576 4.46277 10.7342 4.58957 10.7363 4.60493C10.7468 4.68509 10.8014 4.46509 10.8069 4.48339C10.84 4.59232 10.8296 5.01794 10.9026 4.74343C10.8597 4.67015 10.8838 4.70164 10.8805 4.5452C10.8794 4.49615 10.8259 4.38915 10.9005 4.4413C10.9091 4.44779 11.0265 4.75304 10.9596 4.97284C10.9882 4.90336 11.0131 4.82226 11.0403 4.74819C11.0381 5.34309 11.07 4.78688 11.0825 4.48022C11.0909 4.47963 11.099 4.47722 11.1075 4.47797C11.0608 4.79718 11.1517 4.82529 11.1979 4.66611C11.2132 4.6132 11.1925 4.5079 11.2213 4.46151C11.231 4.48503 11.2418 4.51533 11.2521 4.54156C11.2517 4.33698 11.2939 4.26183 11.3114 4.05527C11.318 4.24126 11.3018 4.63285 11.2709 4.84319C11.2972 4.75922 11.3237 4.67536 11.3501 4.59095C11.3455 4.54119 11.3408 4.49186 11.3362 4.44211C11.3881 4.57733 11.49 4.28854 11.4654 4.72349C11.4735 4.72107 11.4817 4.71907 11.4899 4.71665C11.4985 4.64357 11.5071 4.57035 11.5157 4.49728C11.5461 4.56385 11.5767 4.63084 11.6078 4.69743C11.5717 4.74021 11.5553 4.84388 11.5287 4.75635C11.5346 4.84172 11.5407 4.92758 11.5465 5.01294C11.6167 4.79029 11.6357 4.64172 11.7081 4.71568C11.7113 4.71905 11.7552 4.91423 11.7558 4.93295C11.7583 5.01848 11.7341 5.14047 11.7347 5.18365C11.7364 5.30469 11.7833 5.61204 11.7784 5.65741C11.7151 6.21417 11.4756 6.20201 11.4117 6.22546C10.7292 6.46798 10.1157 6.0082 9.46417 6.01073C9.45751 6.01112 9.45206 6.09365 9.44891 6.09689C9.42946 6.11579 9.42549 5.9859 9.41966 5.97997C9.40717 5.9677 9.40267 6.08688 9.39274 6.08596C9.28639 6.07386 9.19349 5.99405 9.08945 6.00396C9.08267 6.00461 9.09908 5.91055 9.08571 5.92611C9.0791 5.93471 9.04415 6.07801 9.02989 6.07879C8.97972 6.08126 8.94343 6.0305 8.89235 6.02756C8.86439 6.02606 8.82429 6.00953 8.79356 6.00867C8.78005 6.00825 8.75919 6.07334 8.74504 6.07416C8.72518 6.07528 8.74269 5.94086 8.74052 5.93218C8.731 5.89429 8.71437 6.04209 8.70227 6.03732C8.67985 6.02796 8.68845 5.92902 8.65845 5.93449C8.63696 5.93858 8.58194 6.01191 8.55395 6.0323C8.50588 5.91183 8.42286 5.94969 8.36295 5.98223C8.32739 6.00151 8.33755 5.86283 8.32392 5.86198C8.27559 5.8601 8.22441 6.03364 8.17812 6.03514C8.11758 6.03708 8.07575 5.91541 8.01959 5.90197C8.0105 5.89984 8.00143 6.02691 7.99216 6.02938C7.95815 6.03839 7.91276 6.05775 7.88452 6.03713C7.853 6.01443 7.85608 5.82915 7.82048 5.864C7.81005 5.87436 7.79402 6.0357 7.77656 6.05516C7.74874 6.08574 7.73262 5.94104 7.71628 5.92375C7.69372 5.90065 7.70184 6.06694 7.67095 6.04232C7.66969 6.04127 7.67391 5.92318 7.66644 5.92825C7.64476 5.94258 7.63972 6.03543 7.61068 6.02436C7.60795 6.02292 7.57687 5.90781 7.57296 5.90708C7.55004 5.90361 7.50651 5.86103 7.49126 5.88395C7.4368 5.96544 7.46317 6.14525 7.44784 5.75789C7.42317 5.85078 7.39881 5.94499 7.37374 6.03523C7.39215 5.95074 7.34796 5.82426 7.34373 5.83199C7.30939 5.89423 7.31814 6.04501 7.28156 6.01792C7.3532 5.6752 7.23466 5.97033 7.21238 5.978C7.10412 6.01487 7.01058 5.9237 6.90453 5.92158C6.86877 5.92102 6.81818 5.9924 6.7804 5.98935C6.77157 5.98894 6.78103 5.90723 6.77327 5.9052C6.76552 5.90372 6.77108 5.996 6.76238 5.99083C6.70869 5.95714 6.67088 5.78233 6.61494 5.99806C6.61328 5.96662 6.61398 5.94183 6.61076 5.90727C6.56543 6.10063 6.49029 5.83758 6.46161 5.80127C6.41592 5.74475 6.4021 5.87604 6.36846 5.8491C6.32412 5.81312 6.25667 5.55592 6.28455 5.98002C6.25317 5.99309 6.2237 5.99662 6.19324 5.95714C6.18983 5.95266 6.19241 5.84492 6.19104 5.8427C6.18233 5.82722 6.17934 5.92368 6.17346 5.92811C6.15746 5.94001 6.18369 5.82452 6.1608 5.85677C6.1487 5.87405 6.14194 5.95817 6.10835 5.96002C5.98561 5.96583 5.86227 5.9588 5.73152 5.95072C5.64302 5.94521 5.55884 5.93982 5.47118 5.93819C5.45642 5.938 5.4694 6.04182 5.45074 6.0361C5.38409 6.01626 5.26936 5.8472 5.21369 5.87506C5.15928 5.90295 5.17817 6.05524 5.14621 6.12211C5.14002 6.13512 5.14175 6.04734 5.13559 6.04649C5.09333 6.04175 5.04061 5.90926 5.00715 5.89143C4.98507 5.87947 4.99342 6.01716 4.97905 6.02836C4.95764 6.0447 4.92768 5.90741 4.91541 5.90399C4.85783 5.8894 4.82447 6.00582 4.76726 5.95375C4.77105 5.98405 4.774 6.01214 4.77743 6.04202C4.7135 6.0436 4.65448 6.04521 4.59129 6.04736C4.59591 6.07504 4.60043 6.10298 4.60506 6.1311C4.53113 6.1243 4.52049 5.81918 4.56634 6.46068C4.56242 6.484 4.5584 6.51098 4.5546 6.53248C4.53637 6.20131 4.47687 5.96428 4.41298 5.88627C4.40825 5.88032 4.40047 6.20779 4.3788 5.82452C4.37723 5.91906 4.37761 5.98414 4.37691 6.06725C4.35772 5.9527 4.33831 5.83942 4.31887 5.72508C4.31363 5.74311 4.30826 5.76055 4.30302 5.77861C4.30707 5.85394 4.31299 5.93196 4.31586 6.00607C4.28723 6.02116 4.21961 5.93561 4.19629 5.94812C4.13858 5.97952 4.09216 6.19286 4.02867 5.97721C4.00722 6.00281 4.04084 6.14898 4.0054 6.13468C3.99621 6.05961 3.98745 5.98762 3.9779 5.9102C3.97617 6.2516 3.95566 6.04701 3.91355 5.98106C3.88502 5.93626 3.87485 6.02128 3.84967 6.00834C3.84328 6.00498 3.83656 5.90521 3.83263 5.90899C3.81945 5.92103 3.78997 6.06375 3.78032 6.06888C3.69437 6.11735 3.60836 6.11351 3.52469 6.08796C3.51539 6.08548 3.53517 6.1833 3.52552 6.18041C3.50999 6.17594 3.5063 6.02176 3.49697 6.01546C3.47095 5.99872 3.48407 6.16013 3.45066 6.17348C3.34221 6.21729 3.19191 6.11456 3.07584 6.11936C3.07219 6.11986 3.08084 6.21562 3.07697 6.21713C3.05158 6.22549 3.01376 6.09947 2.99009 6.10408C2.95078 6.11127 2.93305 6.25043 2.89352 6.2554C2.81653 6.26549 2.73853 6.20549 2.658 6.21198C2.59469 6.21685 2.54056 6.23688 2.46962 6.24522C2.2837 6.26702 2.1031 6.39844 1.92303 6.47092C1.80083 6.52081 1.65782 6.505 1.52359 6.38043C1.51483 6.37249 1.50992 6.29324 1.50774 6.29561C1.48713 6.31993 1.49594 6.42564 1.46407 6.19613C1.43761 6.22652 1.44496 6.38808 1.40534 6.35244C1.38417 6.33322 1.3734 6.09056 1.35213 6.19968C1.33255 6.29576 1.38197 6.45511 1.27226 6.24826C1.2693 6.24233 1.24179 6.08891 1.22572 6.11196C1.20935 6.13306 1.24361 6.2547 1.19754 6.24251C1.08766 6.20691 0.92649 5.93986 0.79256 5.78905C0.784345 5.78154 0.704472 5.71229 0.689059 5.70356C0.659886 5.6915 0.673051 5.75958 0.629984 5.69713C0.596402 5.64639 0.562022 5.54344 0.52221 5.48385C0.517566 5.47696 0.514755 5.51096 0.482543 5.4459ZM6.54591 3.81638C6.55541 3.6822 6.57838 3.18801 6.61922 3.33942C6.62296 3.35368 6.59351 3.69318 6.61607 3.74779C6.59209 3.78315 6.56926 3.7943 6.5459 3.8169C6.54591 3.81673 6.54591 3.81655 6.54591 3.81638ZM0.21664 4.69487C0.244143 4.65177 0.272071 4.61283 0.300212 4.57814C0.282574 4.6185 0.264396 4.65472 0.245778 4.68639C0.235698 4.68597 0.226031 4.68868 0.21664 4.69487ZM4.01329 3.60941C4.01326 3.60941 4.01323 3.60941 4.0132 3.60941C4.0418 3.54209 4.07032 3.47489 4.09874 3.40807C4.09855 3.45658 4.09838 3.50531 4.0982 3.55386C4.07747 3.6311 4.05671 3.70845 4.03603 3.78613C4.02847 3.72723 4.02088 3.66834 4.01329 3.60941ZM3.78938 4.13936C3.76459 4.08241 3.76223 3.98385 3.74372 3.88875C3.74374 3.88893 3.74375 3.88911 3.74376 3.88929C3.7389 3.86454 3.72329 3.84347 3.71759 3.84002C3.72423 3.90148 3.73138 3.9621 3.73814 4.02306C3.70176 4.17571 3.56501 3.64898 3.67275 3.43001C3.67679 3.50787 3.68089 3.58534 3.68494 3.66323C3.74469 3.63883 3.8238 3.80337 3.78938 4.13936ZM7.05929 3.61813C7.1235 3.37708 7.14506 3.32663 7.20254 3.4967C7.18978 3.56521 7.17709 3.63372 7.16449 3.70225C7.15715 3.63136 7.14974 3.56097 7.14216 3.49009C7.14213 3.49009 7.1421 3.49009 7.14207 3.49009C7.13639 3.56388 7.13072 3.63781 7.12517 3.71161C7.10325 3.68042 7.08109 3.64923 7.05929 3.61813ZM1.77596 4.10757C1.70879 3.57677 1.74367 3.88568 1.77274 3.76175C1.78278 3.71874 1.75977 3.62695 1.76705 3.61061C1.80629 3.52148 1.84505 3.87762 1.85281 4.06411C1.82734 4.07925 1.80136 4.09335 1.77605 4.10756C1.77602 4.10757 1.77599 4.10757 1.77596 4.10757ZM0.562741 4.56589C0.56271 4.56591 0.562686 4.56592 0.562655 4.56594C0.555141 4.50753 0.57138 4.47707 0.544964 4.43585C0.560392 4.42354 0.575833 4.41177 0.591314 4.39994C0.58743 4.40957 0.583409 4.41887 0.579492 4.42823C0.585846 4.44707 0.592304 4.46673 0.598764 4.48664C0.596291 4.40818 0.605963 4.44712 0.625182 4.46368C0.611672 4.38232 0.598385 4.3029 0.585291 4.22561C0.606068 4.2298 0.627181 4.23707 0.648454 4.24717C0.65111 4.26975 0.653773 4.29239 0.656435 4.31502C0.660344 4.2803 0.664048 4.24438 0.667754 4.20783C0.672627 4.23422 0.67743 4.26066 0.682352 4.28754C0.688512 4.2594 0.694606 4.23054 0.700564 4.20067C0.710731 4.27022 0.695342 4.31458 0.726474 4.27216C0.724286 4.35443 0.721779 4.43354 0.718864 4.50981C0.666989 4.52589 0.614922 4.54438 0.562741 4.56589ZM2.13794 3.90921C2.07949 3.93671 2.08836 3.85122 2.07721 3.58719C2.09747 3.69458 2.11777 3.80189 2.13794 3.90921ZM5.26227 3.95563C5.2736 3.79033 5.28529 3.62681 5.29771 3.4675C5.33063 3.37485 5.37864 3.67386 5.35437 3.79213C5.32483 3.93415 5.28737 3.77707 5.26227 3.95563ZM6.08192 3.8669C6.03711 3.79086 6.07821 3.5954 6.08819 3.48153C6.10119 3.66446 6.11834 3.64828 6.14592 3.66954C6.11998 3.68141 6.08925 3.87982 6.08192 3.86743C6.08192 3.86725 6.08192 3.86708 6.08192 3.8669ZM4.54634 3.79461C4.52931 3.80028 4.51479 3.84776 4.49585 3.79156C4.49114 3.63123 4.53093 3.77578 4.4947 3.53928C4.50567 3.53485 4.51664 3.53056 4.52745 3.5257C4.52609 3.62416 4.53978 3.69726 4.54627 3.79408C4.54629 3.79426 4.54632 3.79443 4.54634 3.79461ZM2.70246 3.66367C2.7547 3.86189 2.75335 3.77546 2.77525 3.6346C2.79453 3.79716 2.77821 4.0731 2.75806 4.13541C2.73959 3.97825 2.72107 3.82093 2.70246 3.66367ZM10.8787 3.97655C10.8529 4.1681 10.7907 4.18768 10.7666 4.12812C10.7728 4.09992 10.779 4.07135 10.7851 4.04272C10.8161 4.02067 10.8473 3.99859 10.8787 3.97655ZM6.15901 3.68261C6.15441 3.67695 6.15004 3.67273 6.14592 3.66954C6.1505 3.66744 6.15493 3.67073 6.15901 3.68261ZM7.95475 4.60028C7.92556 4.78054 7.96233 4.84496 7.91747 4.76968C7.91745 4.76986 7.91744 4.77003 7.91742 4.77021C7.88773 4.72065 7.88133 4.70755 7.85145 4.69092C7.88117 4.45868 7.95181 4.3805 7.86787 4.32531C7.86673 4.32501 7.85797 4.46391 7.84553 4.44383C7.8417 4.43759 7.83696 4.32264 7.81814 4.28785C7.8121 4.27672 7.76299 4.23758 7.8338 4.24086C7.84441 4.07816 7.86111 3.91395 7.8733 3.75627C7.90494 3.71264 7.90068 4.03254 7.93037 4.02709C7.97448 4.01822 8.02352 3.69839 7.99673 4.12114C7.95166 4.22178 7.88972 4.21929 7.90178 3.96477C7.86676 3.95887 7.84054 4.16613 7.86045 4.27126C7.99153 4.15025 7.86823 4.58254 7.98728 4.42525C7.99344 4.36666 8.0031 4.30385 8.00707 4.24863C8.02203 4.4579 7.9651 4.53579 7.95475 4.60028ZM7.73806 4.13135C7.76836 4.00878 7.79898 3.88525 7.82983 3.76232C7.81428 3.96462 7.78859 4.14524 7.74699 4.25673C7.74408 4.21478 7.74106 4.17285 7.73806 4.13135ZM9.49851 4.24329C9.51267 4.13386 9.53096 4.03411 9.54747 3.93025C9.54594 4.02361 9.68367 4.12725 9.59989 4.2105C9.5886 4.22272 9.53952 4.02169 9.49851 4.24329ZM2.47736 3.86068C2.50312 3.93944 2.52869 4.01827 2.55412 4.09689C2.53113 4.14995 2.50738 4.20455 2.48504 4.25875C2.48172 4.12607 2.47986 3.99325 2.47736 3.86068ZM5.55997 4.14127C5.55237 4.1373 5.5734 3.985 5.54444 4.00962C5.56398 3.91206 5.58263 3.82949 5.60205 3.73777C5.61021 3.80939 5.61836 3.88071 5.62639 3.95233C5.63032 3.90615 5.63438 3.86026 5.63835 3.81409C5.63767 3.91868 5.6373 4.02083 5.63657 4.1272C5.59564 3.90387 5.59325 4.15818 5.55997 4.14127ZM4.50421 4.60128C4.4838 4.36977 4.52788 4.22916 4.47421 4.19487C4.47484 4.04202 4.48594 3.96145 4.51528 3.94657C4.52353 4.00451 4.5317 4.062 4.53989 4.1199C4.53149 3.9643 4.53584 3.9061 4.54634 3.79461C4.54637 3.79479 4.54639 3.79496 4.54642 3.79514C4.59139 3.78209 4.59155 3.83405 4.61675 4.08873C4.56092 3.94686 4.57258 4.18015 4.54812 4.32094C4.53132 4.41777 4.4993 4.37618 4.50421 4.60128ZM9.33869 4.22968C9.39192 4.0423 9.3795 3.86121 9.41923 4.07007C9.41041 4.11815 9.40161 4.16583 9.39279 4.21391C9.37464 4.21964 9.35661 4.22483 9.33869 4.22968ZM4.28314 3.81427C4.31044 4.17491 4.36104 4.4532 4.32979 3.86693C4.28971 3.74901 4.32676 4.08053 4.28314 3.81427ZM6.06892 4.41768C6.00827 4.40155 6.01668 4.00455 6.04154 3.80594C6.04587 3.87813 6.05017 3.95045 6.05433 4.0222C6.06502 3.98937 6.07573 3.95648 6.08647 3.92411C6.08049 4.08848 6.07463 4.2533 6.06892 4.41768ZM3.24208 4.28227C3.26598 4.01202 3.17969 4.13734 3.19806 3.96831C3.21289 3.83341 3.26916 4.1 3.27034 4.26923C3.26186 4.2746 3.25225 4.27865 3.24217 4.28226C3.24214 4.28227 3.24211 4.28227 3.24208 4.28227ZM3.50201 4.18682C3.4717 3.90463 3.48956 3.98624 3.45589 4.03961C3.44498 4.05493 3.35547 3.95371 3.40852 4.18646C3.43637 4.18451 3.4705 4.1862 3.50201 4.18682ZM6.77725 4.0343C6.77401 4.1511 6.70306 4.40578 6.69675 4.34143C6.69675 4.34161 6.69674 4.34178 6.69674 4.34196C6.6792 4.16642 6.74769 4.14344 6.72492 3.90261C6.78426 4.11565 6.81956 3.60556 6.7937 4.27842C6.75497 4.30676 6.77711 4.16858 6.77725 4.0343ZM11.616 4.59324C11.6161 4.59325 11.6161 4.59325 11.6161 4.59325C11.6123 4.58742 11.5916 4.41357 11.6008 4.35472C11.6385 4.40898 11.6217 4.52088 11.6764 4.33924C11.6736 4.39897 11.6707 4.45689 11.668 4.51708C11.6495 4.5511 11.6348 4.62193 11.616 4.59324ZM9.63587 4.49405C9.61743 4.52292 9.60228 4.39408 9.58424 4.39982C9.68818 3.92143 9.70955 4.37947 9.63587 4.49405ZM1.12679 4.32368C1.12682 4.3235 1.12684 4.32332 1.12687 4.32314C1.12688 4.3234 1.12689 4.32365 1.1269 4.3239C1.12686 4.32383 1.12683 4.32375 1.12679 4.32368ZM8.45941 4.08324C8.45845 4.11486 8.457 4.14228 8.45514 4.16629C8.45493 4.16854 8.45471 4.17079 8.4545 4.17305C8.4562 4.14351 8.45786 4.11363 8.45941 4.08324ZM6.91374 4.00365C6.93434 4.16751 6.83581 4.42317 6.80922 4.36048C6.81368 4.28619 6.8162 4.21879 6.82378 4.13354C6.84071 4.32683 6.91 3.97601 6.91374 4.00365ZM4.86696 4.08018C4.93684 4.08156 4.87832 4.73549 4.84881 4.21716C4.84844 4.20709 4.86518 4.08113 4.86696 4.08018ZM6.35117 4.05792C6.33122 4.2526 6.36713 4.30463 6.30939 4.2705C6.30639 4.22 6.30336 4.16939 6.3003 4.1189C6.31726 4.09864 6.33422 4.07813 6.35117 4.05792ZM5.35684 4.90978C5.44102 4.79737 5.5199 4.6036 5.44623 4.0676C5.43995 4.08505 5.43356 4.10195 5.42728 4.11941C5.43427 4.38179 5.40503 4.23933 5.3677 4.23193C5.36587 4.33631 5.34617 4.36109 5.3454 4.44982C5.34412 4.62134 5.37081 4.74084 5.35684 4.90978ZM1.64301 4.77469C1.63953 4.72586 1.636 4.67676 1.63257 4.62838C1.64107 4.57196 1.64959 4.51562 1.65802 4.45894C1.66518 4.55295 1.67233 4.64692 1.67948 4.74086C1.66737 4.75225 1.6553 4.76367 1.64313 4.77496C1.64309 4.77487 1.64305 4.77478 1.64301 4.77469ZM7.61222 4.67672C7.65534 4.18606 7.62042 4.27445 7.54705 4.51897C7.56901 4.57153 7.59066 4.62411 7.61222 4.67672ZM3.95023 4.80094C3.93783 4.65572 3.92548 4.51092 3.91296 4.36565C3.89299 4.51931 3.91104 4.6858 3.93973 4.87699C3.94327 4.85167 3.94669 4.82623 3.95023 4.80094ZM3.52521 4.90223C3.54038 4.9318 3.52437 4.81331 3.52589 4.81557C3.56306 4.87522 3.57184 4.92921 3.60386 4.83613C3.60619 4.80448 3.60831 4.77125 3.61057 4.73871C3.56826 4.43202 3.5684 4.60117 3.51524 4.42283C3.53068 4.52824 3.54604 4.63372 3.56141 4.73946C3.53825 4.71897 3.51507 4.69876 3.49164 4.67821C3.4917 4.71116 3.49174 4.74381 3.49181 4.77677C3.50288 4.81814 3.51459 4.86465 3.52521 4.90223ZM1.46516 4.65303C1.44221 4.64305 1.42186 4.6325 1.40062 4.62277C1.40762 4.69833 1.4147 4.77436 1.42168 4.84983C1.43606 4.78539 1.4492 4.71978 1.46516 4.65303ZM8.04787 4.48596C8.05169 4.46058 8.05548 4.43505 8.05914 4.40905C8.05627 4.44087 8.05235 4.46556 8.04787 4.48596ZM11.6374 4.99244C11.6566 5.04469 11.6933 5.01444 11.7184 5.02714C11.731 4.84643 11.6613 4.89095 11.6476 4.77963C11.6412 4.81172 11.6293 4.97044 11.6374 4.99244ZM5.98439 4.40224C5.97917 4.49265 5.97401 4.58263 5.969 4.67304C5.95466 4.66341 5.94136 4.65325 5.92739 4.64365C5.92776 4.71763 5.92815 4.79226 5.92853 4.86624C5.98716 4.76954 5.97671 4.98301 6.00809 5.19317C6.00038 4.92967 5.99255 4.66617 5.98439 4.40224ZM0.85154 5.06195C0.892536 5.03896 0.902453 4.96433 0.858318 4.79721C0.846897 4.83584 0.83515 4.8726 0.823248 4.90726C0.832633 4.95811 0.842103 5.00973 0.85154 5.06195ZM8.84925 4.72951C8.89542 4.65079 8.86733 4.94732 8.91961 4.78541C8.90605 4.72885 8.8916 4.67158 8.87713 4.61494C8.86788 4.65304 8.85848 4.6914 8.84925 4.72951ZM6.97843 5.40198C6.98851 5.50614 7.03969 5.01536 7.06555 5.3806C7.08094 5.2727 7.09241 5.16949 7.10652 5.06375C7.106 5.17949 7.10599 5.29674 7.10509 5.41158C7.10511 5.41158 7.10514 5.41158 7.10517 5.41158C7.14575 5.3746 7.12816 5.22851 7.1352 5.10599C7.13821 5.0552 7.16294 5.14163 7.15957 5.0306C7.15362 4.83995 7.08881 4.94617 7.09977 4.71475C7.11713 4.79139 7.16117 4.73026 7.15689 4.57528C7.15191 4.40514 7.099 4.68721 7.08089 4.54542C7.09886 4.91698 7.03148 4.79932 7.03586 4.51486C6.98367 4.73119 7.01855 4.82184 7.06282 4.8137C7.02611 5.03019 7.07078 4.91438 7.06855 5.09565C7.03596 5.20353 6.94855 5.1085 6.97843 5.40198ZM5.00171 5.01684C5.02909 5.00099 5.08197 5.12351 5.09437 4.93738C5.10179 4.829 5.05071 4.74791 5.07609 4.57701C5.04715 4.59491 5.04328 4.66145 5.05496 4.80962C5.04902 4.82781 5.04297 4.84556 5.03701 4.86332C5.03255 4.83452 5.02813 4.8061 5.02389 4.77728C5.0233 4.83857 5.02269 4.89939 5.02222 4.96071C5.0149 4.94907 5.00749 4.93742 5.00011 4.92533C5.00074 4.95612 5.00062 4.98296 5.00171 5.01684ZM9.92947 4.82933C9.92109 4.83028 9.91281 4.83123 9.90442 4.83263C9.90177 4.86846 9.89915 4.90579 9.89654 4.94263C9.89439 4.97174 9.89225 5.00084 9.89011 5.02995C9.89562 4.92575 9.87396 4.74951 9.84672 4.85865C9.83273 4.91337 9.83291 5.11262 9.793 5.14341C9.82093 5.13596 9.84566 5.11123 9.87223 5.09696C9.86419 5.15537 9.85619 5.21442 9.84815 5.27283C9.84815 5.27292 9.84816 5.27301 9.84817 5.27309C9.85503 5.28713 9.86194 5.30181 9.86884 5.31584C9.88909 5.15358 9.90924 4.9916 9.92947 4.82933ZM3.9957 5.08607C4.01567 4.96332 4.02086 4.9004 3.99346 4.70758C3.99343 4.7075 3.99339 4.70741 3.99335 4.70732C3.98879 4.79411 3.98425 4.88096 3.97975 4.96794C3.98505 5.00728 3.99034 5.04675 3.9957 5.08607ZM8.23517 5.12213C8.36038 4.42051 8.18488 4.84157 8.18904 5.08487C8.18915 5.09599 8.2367 5.04352 8.23517 5.12213ZM6.0808 4.63605C6.06437 4.64186 6.04785 4.64714 6.03125 4.653C6.03557 4.74025 6.03994 4.82719 6.04417 4.91445C6.05624 4.82179 6.06847 4.72868 6.0808 4.63605ZM1.08553 5.38444C1.1216 5.55846 1.1765 5.64967 1.17918 5.46391C1.16477 5.43705 1.15037 5.4105 1.13598 5.38436C1.15653 5.37013 1.17636 5.35215 1.19678 5.3365C1.17168 5.08417 1.16103 5.22558 1.11459 5.14989C1.10717 5.13559 1.03772 4.83805 1.04733 5.05672C1.04927 5.10049 1.09427 5.14079 1.07903 5.26579C1.09289 5.27982 1.10365 5.28065 1.11628 5.28985C1.12316 5.3475 1.13004 5.40532 1.13702 5.4632C1.11984 5.43662 1.10272 5.41021 1.08553 5.38444ZM5.1733 4.98581C5.21445 4.99875 5.21499 4.88962 5.21598 4.69679C5.19793 4.71941 5.17982 4.74175 5.16167 4.76447C5.16559 4.83809 5.16938 4.91174 5.1733 4.98581ZM1.46995 5.54784C1.49568 5.58416 1.46944 5.42001 1.47523 5.39007C1.49675 5.27635 1.53247 5.39518 1.56025 5.32209C1.56119 5.35418 1.56211 5.38414 1.56304 5.4152C1.56306 5.4152 1.5631 5.4152 1.56313 5.4152C1.74258 5.56162 1.61771 5.17732 1.52469 5.23906C1.51608 5.1774 1.50755 5.11575 1.499 5.05474C1.46646 5.16313 1.43901 5.26138 1.46995 5.54784ZM7.70802 5.10188C7.70703 5.13824 7.67438 5.36726 7.71098 5.26167C7.75941 4.92735 7.7095 5.09129 7.71 4.96133C7.72021 4.92967 7.73057 4.89891 7.74076 4.86726C7.7013 4.76871 7.68857 4.84816 7.68697 5.09504C7.68691 5.11164 7.70897 5.06563 7.70802 5.10188ZM7.99767 5.29217C8.04678 4.79793 7.96841 5.01536 7.95769 5.16918C7.96525 5.17599 7.97869 5.09275 7.98414 5.13053C7.98967 5.16835 7.98197 5.28411 7.99767 5.29217ZM6.35266 5.08602C6.35438 5.08825 6.36906 5.29714 6.36915 5.13375C6.35226 4.74678 6.30652 4.99534 6.31314 5.13008C6.32726 5.12354 6.33719 5.06559 6.35265 5.08655C6.35265 5.08637 6.35266 5.0862 6.35266 5.08602ZM0.805887 5.32983C0.807683 5.33874 0.860158 5.42773 0.86029 5.37707C0.858651 5.3186 0.854003 5.25343 0.850757 5.19052C0.83236 5.23952 0.776863 5.1701 0.805981 5.32989C0.805951 5.32987 0.805917 5.32985 0.805887 5.32983Z" fill="#8C8C8C"/>
<path d="M10.1092 0.895019C10.1671 0.743307 10.2027 0.877839 10.2692 0.641687C10.2906 0.633696 10.3125 0.625283 10.334 0.617251C10.2898 0.69559 10.2457 0.773803 10.2013 0.852191C10.1705 0.866652 10.1397 0.881061 10.1089 0.895395C10.109 0.89527 10.1091 0.895144 10.1092 0.895019ZM9.49883 1.84407C9.64567 1.63323 9.72785 1.59943 9.80261 1.37106C9.75268 1.44406 9.70277 1.51695 9.65303 1.58988C9.6721 1.52254 9.69066 1.45527 9.70874 1.38847C9.68528 1.41376 9.66185 1.43907 9.63868 1.464C9.70974 1.32981 9.78074 1.19542 9.85128 1.06114C9.84699 1.08375 9.84255 1.10676 9.83815 1.1294C9.93036 1.03809 9.97356 1.02169 10.0242 1.02111C10.0397 0.988565 10.0551 0.956295 10.0706 0.923768C10.0579 0.985728 10.046 1.04871 10.0331 1.11126C9.98412 1.15424 9.92944 1.20161 9.88476 1.24176C9.78373 1.45913 9.89701 1.36881 9.94648 1.33789C10.0138 1.29579 9.94586 1.38975 9.99419 1.36099C10.0018 1.35654 10.0503 1.28013 10.0583 1.28264C10.099 1.29571 10.1428 1.37392 9.98851 1.53124C9.94455 1.47622 9.80508 1.59221 9.77992 1.50814C9.66791 1.7227 9.59364 1.7756 9.49883 1.84407ZM11.0007 1.81138C10.9076 1.90253 10.9021 1.83812 10.929 1.75185C10.9289 1.75183 10.9289 1.75181 10.9289 1.75179C10.9349 1.73276 11.0205 1.58885 11.0346 1.6053C11.0573 1.63259 10.9147 1.85587 11.0364 1.71988C11.0236 1.75134 11.0132 1.78003 11.0007 1.81138ZM11.073 1.83877C11.0516 1.90275 10.9236 2.05944 10.9345 2.00145C10.9344 2.00158 10.9343 2.00171 10.9342 2.00183C10.9387 1.9776 11.0508 1.86131 10.9225 1.96991C10.9901 1.86457 11.0508 1.76842 11.1155 1.66641C11.125 1.66997 11.1346 1.67205 11.1442 1.67619C11.0163 1.83855 11.0939 1.77519 11.073 1.83877ZM10.0755 1.45805C10.1718 1.31305 10.1589 1.30716 10.2032 1.19505C10.2192 1.2097 10.2361 1.22544 10.2523 1.24045C10.1931 1.31314 10.1343 1.38551 10.0755 1.45805ZM9.6377 1.21C9.63767 1.20999 9.63764 1.20998 9.6376 1.20997C9.61705 1.23073 9.59625 1.25148 9.57623 1.27207C9.60198 1.22069 9.62744 1.16982 9.65274 1.11903C9.59809 1.16309 9.54307 1.20788 9.48855 1.25245C9.57892 1.10451 9.61564 1.12905 9.70577 1.02481C9.71858 1.07412 9.68204 1.17141 9.60523 1.30424C9.61624 1.27266 9.62726 1.24099 9.6377 1.21ZM12.5947 6.14677C12.627 6.17883 12.6592 6.21108 12.6911 6.24363C12.7144 6.24581 12.7336 6.24535 12.7595 6.24929C12.6152 6.11538 12.7581 6.21132 12.7707 6.17041C12.8076 6.04412 12.5265 5.92719 12.9684 6.04447C12.9013 6.12005 13.0982 6.19322 13.2025 6.32993C13.0934 6.2751 12.8885 6.08392 12.8208 6.08543C12.8966 6.20791 12.9626 6.32634 12.992 6.43129C13.0106 6.4415 13.0292 6.45175 13.0477 6.46192C13.0432 6.44493 13.0384 6.4281 13.0336 6.41139C13.0736 6.453 13.1131 6.49452 13.1529 6.53746C13.0564 6.45166 13.0923 6.52615 12.9743 6.43792C12.9219 6.3986 12.8569 6.33257 12.8108 6.28912C12.7681 6.29146 12.728 6.29465 12.6869 6.29573C12.6515 6.25516 12.6158 6.21496 12.5798 6.17529C12.5846 6.16554 12.5896 6.15616 12.5942 6.1466C12.5944 6.14666 12.5945 6.14671 12.5947 6.14677ZM8.6701 9.53137C8.62242 9.36435 8.65714 9.31713 8.76021 9.47992C8.72989 9.49694 8.7001 9.51417 8.6701 9.53137ZM9.5423 1.4142C9.55391 1.3879 9.56538 1.36201 9.57682 1.33591C9.61984 1.29437 9.66281 1.25332 9.70564 1.21257C9.66467 1.28667 9.62363 1.36094 9.58271 1.43498C9.56963 1.42752 9.55622 1.42037 9.5423 1.4142ZM10.4665 1.81749C10.4534 1.81604 10.4543 1.81304 10.4492 1.79487C10.4492 1.79494 10.4491 1.79501 10.4491 1.79508C10.447 1.78811 10.4353 1.71956 10.4792 1.66469C10.5004 1.6757 10.5221 1.6899 10.5432 1.70239C10.5177 1.74081 10.492 1.77864 10.4665 1.81749ZM10.2492 1.64268C10.2492 1.64254 10.2493 1.6424 10.2493 1.64225C10.2476 1.6292 10.252 1.60731 10.2464 1.59967C10.3341 1.52521 10.2316 1.69007 10.2872 1.65875C10.343 1.6271 10.4192 1.54621 10.2911 1.78156C10.261 1.81033 10.2207 1.85309 10.1868 1.88718C10.2113 1.77719 10.1457 1.85545 10.0602 1.92618C10.1233 1.83147 10.186 1.7374 10.2492 1.64268ZM13.2896 5.73337C13.1859 5.69307 13.2951 5.69234 13.2969 5.68927C13.297 5.68933 13.2971 5.68939 13.2972 5.68945C13.2163 5.49186 13.3608 5.73134 13.3873 5.53272C13.4148 5.56463 13.4425 5.59595 13.4675 5.62995C13.4105 5.676 13.3448 5.70652 13.2896 5.73337ZM12.1356 3.25448C12.1642 3.22559 12.1929 3.19649 12.2215 3.16756C12.2348 3.21264 12.351 3.11579 12.2633 3.24769C12.222 3.24857 12.1794 3.25088 12.1353 3.25481C12.1354 3.2547 12.1355 3.25459 12.1356 3.25448ZM10.4705 2.15702C10.39 2.19471 10.3462 2.20519 10.3792 2.08522C10.3793 2.08508 10.3794 2.08493 10.3794 2.08479C10.3816 2.0775 10.4382 2.01616 10.4474 1.9975C10.4331 2.00305 10.4149 2.01387 10.3992 2.02131C10.4356 1.96667 10.472 1.91206 10.5081 1.85775C10.5186 1.88593 10.5289 1.91413 10.5389 1.94241C10.558 1.90887 10.5767 1.87556 10.5957 1.84203C10.625 1.83671 10.654 1.83124 10.684 1.82637C10.6151 1.91117 10.5464 1.99598 10.4778 2.0811C10.4754 2.10651 10.4734 2.13127 10.4705 2.15702ZM12.1898 4.10363C12.2124 4.07647 12.2655 4.04974 12.2819 4.02258C12.2979 3.99558 12.2352 4.02104 12.3138 3.96266C12.3333 3.96574 12.3548 3.96822 12.3749 3.97121C12.4109 3.92129 12.4169 3.89495 12.4156 3.87693C12.4131 3.84129 12.3837 3.83686 12.4948 3.74354C12.4888 3.77286 12.4919 3.79263 12.5024 3.80571C12.5196 3.827 12.5543 3.83125 12.602 3.83115C12.4651 3.93683 12.3211 3.99638 12.212 4.11973C12.2048 4.11434 12.1965 4.10926 12.1901 4.10346C12.19 4.10352 12.1899 4.10357 12.1898 4.10363ZM8.24661 2.46633C8.25125 2.40814 8.23947 2.31354 8.25723 2.21525C8.26294 2.1888 8.31683 2.03523 8.32329 2.02346C8.34838 1.97872 8.36619 2.01274 8.36814 1.9375C8.37356 1.95167 8.37949 1.96409 8.38493 1.97787C8.40282 1.94071 8.42034 1.90423 8.43757 1.8684C8.42657 1.85947 8.4157 1.85019 8.4049 1.84073C8.40991 1.83001 8.41491 1.81933 8.41986 1.80872C8.45199 1.85514 8.45462 1.78785 8.49518 1.76798C8.48855 1.72979 8.47917 1.69584 8.46791 1.6656C8.47854 1.67539 8.49136 1.68631 8.5 1.69616C8.53064 1.64309 8.49744 1.64258 8.49791 1.63106C8.49911 1.56911 8.61827 1.6526 8.6865 1.55233C8.66768 1.53869 8.64651 1.52679 8.62531 1.51607C8.63838 1.50628 8.65188 1.4959 8.66562 1.48491C8.69411 1.54523 8.74289 1.5807 8.77404 1.65129C8.78177 1.64911 8.78964 1.64671 8.79732 1.64445C8.81893 1.60231 8.84031 1.56072 8.86147 1.51934C8.87403 1.5146 8.88683 1.50966 8.89966 1.50445C8.7919 1.64492 8.83441 1.64158 8.81973 1.75296C8.76889 1.79797 8.76273 1.75279 8.7117 1.84783C8.81957 1.81254 8.82062 1.98645 8.94485 1.91852C8.97673 1.90018 9.07707 1.72684 9.10998 1.75743C9.09707 1.77666 9.07611 1.81217 9.06016 1.83768C9.17889 1.78356 9.25862 1.73686 9.27057 1.87143C9.30948 1.79743 9.34841 1.72341 9.38682 1.64997C9.34967 1.67887 9.31253 1.70844 9.27647 1.73717C9.33431 1.61734 9.38151 1.57065 9.33059 1.55846C9.28833 1.54926 9.28402 1.60488 9.25339 1.63503C9.21225 1.67545 9.25014 1.58446 9.20478 1.62983C9.1703 1.66399 9.13205 1.75657 9.11347 1.72362C9.19168 1.61519 9.27485 1.49929 9.35875 1.38242C9.35252 1.40919 9.34559 1.43696 9.33841 1.46518C9.31116 1.49554 9.28458 1.52511 9.25795 1.5546C9.32041 1.50441 9.38098 1.45475 9.44814 1.39947C9.33371 1.57435 9.40359 1.51587 9.43264 1.49935C9.47786 1.47369 9.38208 1.59144 9.41093 1.57646C9.43965 1.56174 9.5421 1.42674 9.55272 1.4699C9.48822 1.54493 9.46463 1.62828 9.41505 1.70228C9.36556 1.77618 9.32714 1.77767 9.30486 1.87498C9.39167 1.84217 9.50429 1.54114 9.56956 1.49653C9.57178 1.49502 9.57395 1.49381 9.57606 1.49291C9.65406 1.45981 9.37644 1.93832 9.30266 2.03268C9.259 2.08855 9.23531 2.08207 9.20173 2.10685C9.19069 2.11499 9.17861 2.12651 9.16443 2.14472C9.1626 2.15631 9.16159 2.16597 9.16133 2.17388C9.157 2.28833 9.31047 2.03742 9.35163 1.99104C9.51167 1.81042 9.15745 2.33602 9.31914 2.1666C9.25625 2.26728 9.19979 2.35786 9.1395 2.45438C9.15778 2.44049 9.17766 2.41907 9.19541 2.41009C9.29076 2.19624 9.30679 2.21832 9.31814 2.22491C9.33601 2.23516 9.36832 2.12209 9.38821 2.10015C9.44184 2.0414 9.44339 2.08374 9.48477 1.98929C9.46533 2.03311 9.4462 2.07735 9.42692 2.121C9.47803 2.08341 9.79284 1.68842 9.69148 1.74647C9.79388 1.59164 9.76267 1.67611 9.75978 1.70703C9.75693 1.73791 9.81959 1.63738 9.81872 1.66198C9.81466 1.76034 9.67828 1.91661 9.58748 2.04734C9.69987 1.9871 9.68512 1.89366 9.80386 1.8783C9.88202 1.77273 9.91831 1.63354 9.99077 1.58806C9.87499 1.78265 9.81048 1.93357 9.81278 2.02378C9.8454 1.98226 9.87833 1.94032 9.91108 1.89875C9.82074 2.09019 9.68842 2.26736 9.87463 2.07422C9.58801 2.4646 9.77302 2.21544 9.70228 2.40468C9.68792 2.44291 9.61572 2.51552 9.5981 2.5651C9.59006 2.58746 9.64317 2.53167 9.62256 2.58867C9.61246 2.61673 9.53479 2.79146 9.60183 2.72963C9.71907 2.52367 9.86612 2.37961 9.94338 2.19672C9.97466 2.27372 10.0766 2.20511 9.83383 2.4323C9.8082 2.50138 9.78234 2.57028 9.75608 2.63917C9.79728 2.59875 9.83848 2.55871 9.87986 2.51858C9.77172 2.68197 9.73875 2.72601 9.7961 2.72429C9.75336 2.75088 9.71122 2.77862 9.6692 2.80577C9.64654 2.83814 9.62137 2.87059 9.60045 2.90276C9.66131 2.85425 9.73557 2.86795 9.77872 2.83443C9.822 2.80092 9.80392 2.77022 9.83657 2.73106C10.1075 2.40821 9.92971 2.66164 9.99436 2.6189C10.0328 2.59348 10.0256 2.53197 10.0434 2.52221C10.1098 2.48661 9.99478 2.67982 10.0171 2.69939C10.0818 2.58863 10.1472 2.47634 10.2119 2.36486C10.2347 2.38821 10.2636 2.40922 10.3128 2.39281C10.332 2.38638 10.3796 2.30341 10.3849 2.29928C10.412 2.27794 10.4753 2.25754 10.4791 2.25954C10.5059 2.27646 10.4292 2.38497 10.4498 2.40796C10.4335 2.41041 10.4183 2.41235 10.4024 2.41461C10.2725 2.58673 10.1429 2.75876 10.0135 2.93116C10.027 2.9608 10.0405 2.99016 10.0534 3.0198C10.0796 2.94895 10.105 2.87833 10.1301 2.8075C10.2582 2.68547 10.3871 2.56218 10.5195 2.44034C10.4709 2.53759 10.4215 2.63479 10.3716 2.73205C10.4264 2.737 10.6811 2.37827 10.4697 2.70082C10.5004 2.68288 10.5312 2.66496 10.5618 2.64734C10.5271 2.6903 10.4925 2.73336 10.4579 2.77632C10.4915 2.75907 10.5251 2.74196 10.5598 2.72477C10.663 2.5577 10.7722 2.38309 10.8705 2.22105C10.9246 2.20659 10.8254 2.33957 10.8048 2.37567C10.7501 2.47124 10.8617 2.36885 10.8091 2.45623C10.7909 2.48619 10.6975 2.55377 10.6307 2.66118C10.6184 2.68204 10.3719 3.07811 10.458 3.00935C10.509 2.94207 10.5702 2.85867 10.6251 2.78514C10.6868 2.76702 10.4314 3.12779 10.3519 3.22274C10.4197 3.16603 10.446 3.1777 10.5328 3.07335C10.5428 3.07699 10.5526 3.08072 10.5625 3.08436C10.3503 3.33834 10.419 3.31651 10.598 3.09444C10.5889 3.07819 10.5799 3.06161 10.5706 3.04532C10.7956 2.77885 10.8838 2.58044 10.7725 2.90296C10.6762 3.05862 10.7581 2.86037 10.6873 2.97783C10.6615 3.0584 10.7247 3.02367 10.6669 3.14022C10.5944 3.28585 10.4646 3.3774 10.6545 3.27145C10.8331 2.76386 10.8898 3.02024 11.058 2.9531C10.7546 3.35542 10.7039 3.52335 10.8734 3.47123C10.9581 3.35782 10.8877 3.39307 10.9045 3.34635C10.9211 3.29954 10.99 3.2484 11.0155 3.18384C11.0411 3.11935 11.0608 3.01978 11.1063 2.92913C11.172 2.88018 11.3708 2.79944 11.1742 2.93074C11.122 3.06808 11.0456 3.19142 11.072 3.24856C11.2289 3.09304 11.3184 2.98878 11.3675 3.02237C11.1398 3.23067 11.0483 3.43351 10.828 3.66196C10.8481 3.58091 11.067 3.36372 11.1463 3.23748C11.1542 3.22483 11.0746 3.25801 11.072 3.24856C10.92 3.48185 10.8608 3.56747 10.6289 3.80088C10.6665 3.79598 10.6507 3.83744 10.756 3.72084C10.715 3.77561 10.6738 3.83039 10.6325 3.88499C10.6396 3.88911 10.6491 3.88923 10.6545 3.89589C10.8029 3.71025 10.723 3.83498 10.8065 3.76549C10.8904 3.69605 10.9986 3.54117 11.0345 3.5701C11.0602 3.51845 11.0815 3.4734 11.1051 3.424C11.1682 3.39846 11.2324 3.37326 11.297 3.34913C11.3784 3.22675 11.4856 3.03379 11.6137 2.89232C11.5765 2.95548 11.7011 2.89623 11.709 2.89627C11.7389 2.89665 11.6486 2.97778 11.6479 2.98111C11.6343 3.04749 11.6831 3.03627 11.5685 3.17928C11.6433 3.13578 11.6252 3.18307 11.6486 3.19851C11.6614 3.20692 11.7514 3.10699 11.7405 3.13167C11.6666 3.2961 11.5053 3.38246 11.8155 3.22119C11.8708 3.14437 11.9275 3.06584 11.9827 2.98783C12.0167 2.97136 12.0508 2.9548 12.0849 2.93853C12.0794 2.95688 12.0738 2.97542 12.0685 2.99398C11.9267 3.1396 11.7846 3.28551 11.6429 3.43115C11.6427 3.43344 11.6426 3.43574 11.6424 3.43803C11.6415 3.45008 11.6407 3.46207 11.6397 3.47422C11.6273 3.47574 11.615 3.47731 11.6026 3.47894C11.5897 3.48068 11.5767 3.48224 11.5641 3.48425C11.5382 3.50899 11.5124 3.53381 11.4866 3.55857C11.4775 3.58089 11.4686 3.60352 11.4595 3.62609C11.4461 3.65939 11.4325 3.69266 11.4187 3.72572C11.4685 3.67567 11.5186 3.62528 11.5683 3.57526C11.5353 3.68271 11.4949 3.723 11.6628 3.62427C11.6873 3.65383 11.9103 3.47919 12.0068 3.41803C11.9842 3.45151 11.9613 3.48505 11.9389 3.51799C11.9816 3.48406 12.0239 3.45068 12.0661 3.41741C12.0161 3.47997 11.9666 3.5417 11.9179 3.60229C12.0451 3.48916 12.0843 3.45595 12.1089 3.37566C12.2713 3.23827 12.2334 3.38053 12.196 3.45539C12.1678 3.51261 12.0321 3.6049 12.018 3.62209C11.9711 3.67832 12.0339 3.6689 12.029 3.68362C12.01 3.74365 12.0286 3.75858 12.0174 3.8072C12.0151 3.81698 11.9489 3.89705 11.9474 3.90005C11.9404 3.92003 11.9191 3.97196 11.9198 3.975C11.953 4.14051 12.1751 3.73735 12.2188 3.88574C12.2573 3.84752 12.2957 3.80962 12.3343 3.77105C12.3424 3.77851 12.3505 3.78605 12.3588 3.79325C12.3323 3.83364 12.2614 3.87165 12.3263 3.85244C12.2753 3.89288 12.2243 3.93346 12.1735 3.97384C12.2073 3.96056 12.2408 3.94758 12.275 3.93491C12.203 4.00597 12.1636 4.06211 12.1237 4.11644C12.074 4.18426 12.0228 4.24962 11.9073 4.33985C11.8365 4.395 11.7377 4.41982 11.6779 4.49819C11.6748 4.52425 11.7501 4.44693 11.7593 4.44922C11.8238 4.46673 11.7049 4.55908 11.7499 4.55131C11.8027 4.51409 11.8566 4.47634 11.91 4.43899C11.9005 4.45751 11.8909 4.47597 11.8813 4.49439C11.9167 4.46932 11.9522 4.44434 11.9876 4.41935C11.9848 4.4111 11.9814 4.40198 11.979 4.39422C12.1173 4.29837 12.2386 4.33268 12.1016 4.38897C12.046 4.41187 12.0491 4.37557 11.9027 4.51022C11.9402 4.51217 11.9819 4.51875 12.0208 4.5232C11.9872 4.54941 11.9534 4.57562 11.9197 4.6018C11.963 4.61388 12.0808 4.48624 12.1539 4.43132C12.1611 4.43669 12.1681 4.44231 12.1752 4.44767C12.1441 4.47513 12.1113 4.50352 12.0811 4.53022C12.1344 4.49162 12.2603 4.40448 12.2301 4.45951C12.21 4.49476 12.0602 4.57103 12.0971 4.58275C12.1792 4.52108 12.2737 4.43826 12.3217 4.44852C12.2365 4.51359 12.1592 4.57432 12.0688 4.64154C12.1772 4.61665 12.0521 4.72663 12.1789 4.70045C12.2586 4.68305 12.5103 4.57646 12.1725 4.81777C12.1755 4.84277 12.2588 4.78134 12.2821 4.77473C12.3925 4.74382 12.2383 4.86856 12.2314 4.87937C12.1877 4.95028 12.2544 4.92944 12.1893 5.00225C12.255 4.9623 12.3174 4.92499 12.3814 4.88616C12.2675 4.9192 12.2657 4.90536 12.2657 4.85785C12.286 4.86139 12.3065 4.86484 12.3266 4.86854C12.379 4.83471 12.4314 4.8008 12.4834 4.76703C12.2068 4.7853 12.5494 4.6016 12.6834 4.65879C12.5894 4.72639 12.4954 4.7934 12.4002 4.85961C12.5832 4.82654 12.4662 4.92781 12.4667 5.00654C12.4669 5.01575 12.5397 5.01167 12.5487 5.02223C12.549 5.02183 12.5492 5.02143 12.5495 5.02103C12.6507 4.9795 12.6903 4.94652 12.7765 4.90105C12.791 4.90255 12.8055 4.90422 12.82 4.90588C12.7613 4.95481 12.7039 4.97613 12.7343 4.99834C12.7991 4.96221 12.8637 4.92584 12.9281 4.88913C12.9374 4.9054 12.9282 4.92699 12.9208 4.94674C12.9105 4.96331 12.9031 4.97846 12.9249 4.98137C12.898 4.99019 12.8711 4.99928 12.8441 5.00784C12.8052 5.08937 12.3971 5.24761 12.6121 5.19122C12.58 5.21179 12.5476 5.23256 12.5156 5.25332C12.4972 5.23854 12.4795 5.2241 12.4612 5.2082C12.4128 5.23173 12.3647 5.25508 12.3164 5.27862C12.3423 5.29465 12.3682 5.30859 12.3937 5.32221C12.3537 5.32391 12.3133 5.32439 12.2727 5.32404C12.263 5.36208 12.2542 5.40037 12.245 5.43749C12.4048 5.3173 12.4442 5.33931 12.6128 5.23941C12.492 5.3591 12.3211 5.49138 12.4635 5.47468C12.4912 5.47023 12.6215 5.4259 12.4703 5.50041C12.6759 5.42449 12.7901 5.45906 12.9928 5.4195C12.9776 5.39214 12.9641 5.3658 12.9449 5.3457C12.8851 5.3965 12.6923 5.44189 12.6301 5.44008C12.5522 5.44089 12.6588 5.3475 12.4618 5.44426C12.4668 5.43089 12.468 5.41981 12.4706 5.40612C12.5209 5.38481 12.5716 5.36359 12.6223 5.34307C12.5313 5.35275 12.5464 5.32294 12.6589 5.24277C12.7056 5.26266 12.7531 5.28306 12.8027 5.31774C12.8081 5.30682 12.8136 5.29618 12.8185 5.28556C12.9636 5.26744 13.0642 5.15853 13.1339 5.25581C13.0732 5.27639 13.0124 5.29725 12.9515 5.31821C13.1273 5.28804 13.1586 5.44681 13.3431 5.36378C13.2924 5.42883 13.2539 5.4378 13.3629 5.46172C13.221 5.62839 13.0158 5.63554 12.7964 5.58488C12.8302 5.6112 12.8615 5.64362 12.8912 5.67612C12.9548 5.67653 13.0188 5.67271 13.0834 5.66255C13.0692 5.72294 13.0504 5.77215 13.0307 5.81651C12.8574 5.75906 13.0051 5.71384 12.8402 5.69214C12.8076 5.6869 12.8688 5.72766 12.8492 5.72772C12.6418 5.71402 12.8061 5.68111 12.6542 5.65012C12.5871 5.69806 12.3688 5.55016 12.5364 5.70719C12.4875 5.68663 12.4377 5.66546 12.3895 5.64422C12.3767 5.66306 12.4839 5.71636 12.4925 5.74848C12.4976 5.76897 12.3049 5.68233 12.4214 5.76706C12.442 5.78394 12.682 5.88374 12.6374 5.93693C12.6026 5.97712 12.4596 5.86227 12.3911 5.85015C12.3237 5.83635 12.5002 6.02696 12.2534 5.8808C12.2918 5.89162 12.3189 5.88804 12.3531 5.89257C12.31 5.85679 12.2671 5.82178 12.2237 5.78687C12.2659 5.85379 12.1762 5.83491 12.2729 5.92882C12.0793 5.85154 12.2053 5.99953 12.4003 6.12177C12.3825 6.08962 12.2908 6.04587 12.3554 6.06492C12.4005 6.09392 12.4454 6.12261 12.4905 6.15152C12.4636 6.1786 12.4488 6.20182 12.3262 6.09265C12.3194 6.09543 12.3133 6.09722 12.3069 6.09955C12.4023 6.16916 12.4982 6.23897 12.5936 6.30866C12.6004 6.32208 12.607 6.33553 12.6137 6.3491C12.588 6.34034 12.5621 6.33142 12.5361 6.32252C12.3909 6.20398 12.3966 6.18595 12.2767 6.17286C12.3288 6.21112 12.3806 6.2493 12.4327 6.28758C12.338 6.27793 12.2106 6.18671 12.1788 6.23908C12.0264 6.06792 12.3621 6.28327 11.9994 6.01639C12.0299 6.02479 12.0608 6.03341 12.0913 6.04191C12.0396 6.00199 11.9877 5.96215 11.936 5.92227C11.9298 5.98862 12.2102 6.33113 11.9566 6.19339C11.9814 6.21831 12.0025 6.24056 12.0292 6.26722C11.8678 6.19482 12.1631 6.44523 11.9609 6.34271C11.9397 6.33189 11.6572 6.10323 11.6346 6.15339C11.6728 6.18119 11.7363 6.22921 11.7841 6.26474C11.754 6.25633 11.7227 6.2471 11.6919 6.23835C11.7251 6.26676 11.7583 6.29526 11.7917 6.3239C11.8178 6.31799 11.8438 6.31255 11.8695 6.30713C11.8712 6.32936 11.8727 6.3519 11.8741 6.37458C11.9442 6.40062 11.9509 6.39323 12.0332 6.47363C12.0282 6.48881 12.0233 6.50432 12.0181 6.51989C12.0168 6.52408 12.0155 6.52827 12.0141 6.53244C12.036 6.55204 12.0581 6.5719 12.0799 6.59162C12.1293 6.62257 12.1784 6.65258 12.2282 6.6826C12.2534 6.69796 12.2787 6.71342 12.3043 6.72911C12.2987 6.72896 12.2933 6.72895 12.2882 6.72905C12.2096 6.73305 12.17 6.7596 12.0235 6.68286C11.9971 6.66891 11.9263 6.57678 11.9745 6.67783C11.9287 6.63841 11.8912 6.60682 11.8489 6.5704C11.941 6.72128 11.8879 6.70436 11.7631 6.65725C11.8693 6.71174 11.7945 6.68229 11.8316 6.73167C11.8572 6.76574 11.8702 6.74362 11.8999 6.77632C11.9298 6.80841 12.0313 6.9576 12.0677 6.95078C11.8564 6.64749 12.1863 6.9295 12.1193 6.74052C12.1455 6.7818 12.171 6.82386 12.1962 6.86604C12.2246 6.88154 12.2505 6.89556 12.2812 6.9114C12.1907 6.90762 12.2436 6.91674 12.2696 6.97168C12.2956 7.02653 12.3005 7.09152 12.2909 7.12383C12.2879 7.13394 12.2359 7.07072 12.2163 7.08028C12.2033 7.08632 12.2615 7.19915 12.1549 7.10456C12.0867 7.0418 11.9449 6.82367 11.8922 6.87659C11.819 6.82127 11.8637 6.81693 11.8565 6.80859C11.7846 6.72805 11.6981 6.69926 11.7406 6.77245C11.7442 6.77884 11.8141 6.82846 11.8239 6.86469C11.847 6.95145 11.7623 6.89793 11.656 6.8176C11.7566 6.93324 11.8492 7.09615 11.7769 7.08311C11.8035 7.11815 11.8303 7.15346 11.8569 7.18886C11.8476 7.16632 11.8384 7.14409 11.8288 7.12171C11.8526 7.13755 11.8722 7.14713 11.8994 7.16643C11.8877 7.22644 12.0181 7.39272 12.0482 7.46853C12.1483 7.72884 11.8374 7.26021 11.7861 7.17776C11.8186 7.20153 11.854 7.22876 11.8881 7.2536C11.853 7.2133 11.8177 7.17266 11.7825 7.13199C11.6953 7.20578 11.5492 6.87487 11.4454 6.83096C11.5993 7.04459 11.5808 7.09188 11.4401 6.9885C11.4365 6.99286 11.4323 6.99645 11.4288 7.00108C11.451 7.03242 11.486 7.0795 11.4999 7.10073C11.475 7.17472 11.2305 6.85019 11.204 6.82192C11.0864 6.69622 11.2075 6.89936 11.2024 6.90536C11.1822 6.92923 11.1159 6.84748 11.118 6.90025C11.1197 6.95751 11.1816 7.01303 11.2136 7.07824C11.2388 7.13018 11.2232 7.15265 11.2465 7.20819C11.2236 7.16521 11.2015 7.12283 11.1783 7.07984C11.1146 7.04243 11.0574 7.00242 11.0183 7.00772C11.0607 7.09689 11.0644 7.12435 11.0538 7.12557C11.0257 7.12895 10.8991 6.95082 11.0913 7.2468C11.1076 7.25011 11.1236 7.25634 11.1408 7.26676C11.1749 7.28738 11.2138 7.32448 11.2689 7.38703C11.2612 7.40345 11.2533 7.41974 11.2452 7.43607C11.2403 7.44609 11.2354 7.45618 11.2305 7.46638C11.1965 7.42463 11.1651 7.38281 11.1298 7.34051C11.1729 7.44742 11.1115 7.4281 11.1146 7.46589C11.1285 7.64428 11.249 7.81352 11.0202 7.55466C11.0477 7.49775 10.9666 7.35578 11.0212 7.35097C10.9538 7.25645 10.9436 7.28794 10.8883 7.16014C10.8631 7.20972 10.939 7.31253 10.9778 7.41916C11.011 7.51164 10.9855 7.5339 11.0492 7.64466C11.0121 7.58518 10.9768 7.52703 10.9398 7.46716C10.9127 7.48328 10.8851 7.49869 10.8576 7.51452C10.8338 7.4416 10.8098 7.3693 10.786 7.29836C10.7636 7.27785 10.7412 7.25719 10.7188 7.23625C10.7362 7.33332 10.6938 7.33817 10.6575 7.34418C10.605 7.35306 10.5648 7.3638 10.7356 7.67275C10.7106 7.7067 10.6726 7.64212 10.6042 7.55028C10.6224 7.59175 10.6373 7.62638 10.6577 7.67245C10.615 7.64081 10.6734 7.80136 10.6344 7.77134C10.5956 7.74158 10.5209 7.5995 10.636 7.84337C10.5896 7.77993 10.5492 7.72809 10.5057 7.66925C10.5248 7.72802 10.5436 7.78621 10.5624 7.84472C10.5367 7.82142 10.5111 7.79819 10.4855 7.77477C10.5344 7.89409 10.464 7.86594 10.48 7.9538C10.4017 7.83716 10.2188 7.44053 10.2072 7.53203C10.2536 7.62997 10.2998 7.72762 10.3462 7.82553C10.3263 7.80979 10.3064 7.79408 10.2865 7.77831C10.2712 7.74642 10.256 7.7145 10.2407 7.68261C10.2505 7.69015 10.2603 7.69766 10.2703 7.70551C10.2408 7.6532 10.2115 7.60107 10.1822 7.54867C10.2033 7.63649 10.2243 7.72436 10.2448 7.81237C10.2939 7.86384 10.3435 7.91507 10.3934 7.96606C10.3989 8.05104 10.3469 7.9875 10.3595 8.07909C10.2772 7.95213 10.2497 7.86997 10.1912 7.71829C10.1893 7.73433 10.1872 7.74997 10.1853 7.76602C10.1237 7.61568 10.0715 7.53312 10.1204 7.52549C10.0983 7.48465 10.0771 7.44578 10.0544 7.40322C10.0503 7.41306 10.0297 7.37943 10.0293 7.3992C10.0283 7.45324 10.128 7.721 10.1702 7.81166C10.1924 7.85912 10.173 7.75807 10.2024 7.82602C10.2743 7.99167 10.1908 7.94027 10.3373 8.07327C10.3604 8.18894 10.3194 8.11233 10.2793 8.09384C10.3058 8.14787 10.3322 8.20158 10.3587 8.25563C10.335 8.23587 10.3113 8.21616 10.2876 8.19632C10.179 7.90643 10.0437 7.83933 10.0138 7.55692C9.98473 7.55465 9.95609 7.55204 9.92698 7.54887C9.91902 7.5177 9.91117 7.48683 9.90316 7.45569C9.92033 7.46648 9.93734 7.47702 9.95439 7.48744C9.91871 7.43979 9.88325 7.39241 9.84776 7.34464C9.84783 7.4231 9.88056 7.52942 9.92153 7.66043C9.9956 7.73679 9.93009 7.61695 9.94574 7.58059C9.97951 7.66015 10.0127 7.73242 10.0468 7.81661C9.96111 7.65871 9.96814 7.79771 9.96094 7.81036C9.9394 7.84866 9.8947 7.67635 9.87187 7.68219C9.84922 7.68799 9.86526 7.79505 9.77917 7.64216C9.81796 7.7319 9.85917 7.82429 9.89548 7.90558C9.87454 7.94946 9.83587 7.84037 9.82654 7.82809C9.67491 7.62537 9.72658 7.82898 9.67276 7.87893C9.69254 7.90346 9.71129 7.92523 9.73048 7.94803C9.76297 8.15955 9.7706 8.08742 9.8391 8.13297C9.79187 8.13033 9.83784 8.30274 9.83021 8.36291C9.82246 8.42304 9.73987 8.35911 9.69529 8.30101C9.69127 8.17936 9.76301 8.23077 9.79513 8.18324C9.75154 8.09353 9.71405 8.01785 9.66658 7.9191C9.72071 8.12306 9.65106 8.00069 9.63166 7.97874C9.57456 7.91445 9.64441 8.0797 9.55458 7.90807C9.58075 7.96909 9.60268 8.02042 9.62717 8.07738C9.56308 8.07406 9.46048 7.98953 9.51951 8.23043C9.45535 8.08442 9.39421 7.94347 9.32835 7.79461C9.35167 7.91486 9.28534 7.80928 9.27702 7.84308C9.26878 7.87689 9.32521 7.993 9.32183 8.04809C9.32118 8.05823 9.28178 7.98724 9.29432 8.04641C9.30688 8.10592 9.43871 8.53249 9.28593 8.17537C9.26608 8.18159 9.24254 8.17595 9.22127 8.17764C9.23119 8.14985 9.24138 8.12269 9.25123 8.09494C9.19972 8.01437 9.1484 7.93402 9.09684 7.85347C9.1269 7.93186 9.15754 8.01166 9.18727 8.089C9.18431 8.20078 9.1014 8.08657 9.0714 8.13416C9.06642 8.14215 9.14666 8.28851 9.0991 8.26246C9.05158 8.23636 8.90919 7.96013 8.90148 8.09297C8.90113 8.09985 8.97679 8.32529 8.89424 8.18184C8.87549 8.14935 8.87263 8.09084 8.84371 8.04995C8.81477 8.00905 8.75424 7.99085 8.70554 7.88506C8.72201 7.92286 8.74138 7.96105 8.759 7.99915C8.75896 8.02054 8.75884 8.04198 8.75858 8.06307C8.72967 7.99646 8.70065 7.92978 8.67187 7.86351C8.69291 8.038 8.77797 8.30122 8.67726 8.24506C8.73698 8.33421 8.79666 8.42386 8.85591 8.51327C8.83191 8.44298 8.80778 8.37221 8.78378 8.30192C8.82524 8.31645 8.86669 8.3308 8.908 8.34549C8.88025 8.26572 8.85254 8.18619 8.82485 8.10639C8.83707 8.11314 8.84906 8.11961 8.86127 8.12636C8.88282 8.1834 8.90425 8.24014 8.92575 8.2972C8.93567 8.27682 8.94552 8.25614 8.95541 8.2358C9.06237 8.58091 8.85471 8.24482 8.97535 8.5205C8.95025 8.48041 8.92497 8.44006 8.89965 8.39967C8.95321 8.53542 8.92266 8.50272 8.88854 8.49219C8.92231 8.55596 8.95625 8.61859 8.98976 8.68327C8.92597 8.60009 8.88662 8.62749 8.84619 8.6023C8.82841 8.59124 8.79793 8.48925 8.78976 8.47921C8.74729 8.42671 8.78752 8.61027 8.7751 8.59973C8.70074 8.53716 8.53471 8.22772 8.58246 8.45849C8.65078 8.49082 8.61641 8.47957 8.6836 8.59002C8.7047 8.62464 8.79627 8.67625 8.70847 8.67377C8.69858 8.67284 8.46773 8.51031 8.43672 8.32153C8.43871 8.38528 8.44942 8.45531 8.45521 8.52145C8.2072 8.09751 8.41161 8.50856 8.52872 8.73279C8.52138 8.73727 8.51493 8.74298 8.50687 8.7466C8.41567 8.49669 8.31967 8.5219 8.3459 8.65732C8.3546 8.70231 8.41754 8.76686 8.41154 8.81377C8.39296 8.80183 8.37068 8.78557 8.3504 8.77205C8.43742 8.91673 8.43214 8.99044 8.50466 9.14504C8.42049 9.01637 8.26763 8.73185 8.20524 8.56805C8.21762 8.64039 8.2302 8.71258 8.24344 8.78502C8.26873 8.81786 8.29391 8.85038 8.31906 8.88331C8.21703 8.81265 8.25207 9.06692 8.08341 8.75013C8.07706 8.75607 8.07049 8.76174 8.06416 8.76769C8.08854 8.8232 8.11308 8.87876 8.13753 8.93424C8.08139 8.90329 8.02445 8.87258 7.96726 8.84264C7.98003 8.79408 7.949 8.71318 8.01172 8.7602C7.96872 8.70376 7.9248 8.64738 7.88141 8.5912C7.91707 8.78325 7.96765 8.89563 7.8717 8.88252C7.86752 8.88176 7.74058 8.77083 7.73132 8.75846C7.6899 8.70114 7.65511 8.60437 7.63469 8.57513C7.5779 8.4928 7.39251 8.30966 7.3754 8.27627C7.16951 7.86206 7.41174 7.72804 7.46585 7.67592C8.04003 7.11829 8.80515 7.18027 9.36992 6.87855C9.37563 6.87519 9.34637 6.81363 9.34781 6.80986C9.35706 6.78735 9.41426 6.87832 9.42189 6.87983C9.438 6.88276 9.39258 6.79555 9.4017 6.79157C9.49619 6.75236 9.60698 6.76702 9.69163 6.71078C9.69712 6.70712 9.7231 6.78143 9.72789 6.76409C9.73022 6.75473 9.69764 6.63743 9.70879 6.63039C9.74779 6.60596 9.79917 6.62489 9.84163 6.60315C9.86477 6.59121 9.90446 6.58387 9.92978 6.56977C9.941 6.56358 9.92914 6.50822 9.93951 6.50119C9.95424 6.49126 9.99954 6.59331 10.005 6.59837C10.029 6.62039 9.97709 6.50944 9.98843 6.50716C10.0097 6.50329 10.0469 6.57617 10.0678 6.55812C10.0828 6.54505 10.0925 6.46801 10.1045 6.4406C10.1427 6.46564 10.1732 6.46857 10.1972 6.46001C10.2308 6.44793 10.2562 6.42127 10.2781 6.40054C10.3003 6.38005 10.3571 6.47823 10.3698 6.47601C10.4139 6.46767 10.3813 6.34519 10.4212 6.3381C10.4673 6.32937 10.543 6.37811 10.5901 6.37362C10.5965 6.37302 10.6025 6.37166 10.6079 6.36927C10.6151 6.36602 10.5634 6.28663 10.5685 6.28067C10.5874 6.25876 10.608 6.22551 10.6355 6.22391C10.6659 6.22197 10.7509 6.33039 10.7576 6.29224C10.7594 6.28103 10.693 6.18076 10.6943 6.1612C10.6966 6.13037 10.7756 6.20461 10.794 6.20607C10.8187 6.20788 10.7333 6.11839 10.7631 6.11727C10.7644 6.11726 10.8196 6.18535 10.8215 6.17878C10.8272 6.16002 10.7844 6.10597 10.806 6.09812C10.8082 6.09771 10.8827 6.14586 10.8854 6.1441C10.9001 6.13457 10.9456 6.13562 10.942 6.11572C10.929 6.04501 10.8211 5.96389 11.0303 6.16053C10.9952 6.09892 10.9581 6.03759 10.9223 5.9789C10.9579 6.03185 11.0464 6.07543 11.0444 6.06911C11.0275 6.02034 10.9425 5.94806 10.9731 5.94472C11.1257 6.15215 11.0209 5.94521 11.0241 5.93248C11.0437 5.87707 11.1014 5.86869 11.1419 5.8411C11.1579 5.82608 11.1728 5.81045 11.1858 5.79348C11.2082 5.76403 11.1976 5.69032 11.2223 5.6607C11.2279 5.65365 11.2717 5.69542 11.2776 5.68997C11.2831 5.6843 11.2239 5.65031 11.2322 5.64544C11.2864 5.61381 11.4143 5.65639 11.3174 5.52049C11.3374 5.53222 11.352 5.54308 11.3748 5.55488C11.2839 5.43891 11.484 5.49079 11.5221 5.4825C11.5801 5.47183 11.5078 5.40723 11.5397 5.39556C11.5829 5.37909 11.7676 5.43924 11.4943 5.29095C11.4979 5.26792 11.5044 5.25275 11.5362 5.25595C11.5398 5.25637 11.6074 5.29665 11.6091 5.29693C11.6209 5.29921 11.5604 5.26314 11.5587 5.25972C11.5541 5.25051 11.6228 5.29989 11.6065 5.28121C11.5973 5.2721 11.5453 5.23909 11.5445 5.23852C11.5438 5.23995 11.5289 5.2595 11.5077 5.35581C11.4833 5.44377 11.4868 5.66652 11.5325 5.7834C11.6315 6.00909 11.5351 5.78584 11.4636 5.62962C11.4612 5.62308 11.4588 5.61644 11.4562 5.6097C11.4527 5.6007 11.3874 5.6396 11.3866 5.6268C11.3852 5.58416 11.457 5.44889 11.4195 5.41976C11.3831 5.39204 11.2932 5.45734 11.2406 5.45978C11.2304 5.46038 11.286 5.43052 11.2844 5.42617C11.2738 5.39778 11.3348 5.31106 11.3324 5.28078C11.3308 5.26045 11.2495 5.317 11.2369 5.31094C11.2184 5.30178 11.2898 5.22916 11.2867 5.21917C11.2713 5.17245 11.1868 5.19299 11.1934 5.1331C11.177 5.14757 11.1616 5.16057 11.1453 5.17459C11.1164 5.12988 11.0874 5.08675 11.0559 5.042C11.042 5.05644 11.0279 5.0709 11.0137 5.08549C11.0021 5.06431 11.0204 5.03139 11.027 5.0162C11.0371 4.9923 11.0187 5.01298 10.8057 5.19232C10.7904 5.19922 10.7728 5.20776 10.7583 5.21434C10.9408 5.06658 11.0457 4.9287 11.0426 4.86482C11.043 4.85921 10.8383 5.00348 11.0525 4.82185C10.994 4.86369 10.9541 4.89323 10.9023 4.93105C10.9549 4.87142 11.0064 4.8111 11.0599 4.74989C11.0439 4.75616 11.0281 4.76226 11.0118 4.76888C10.9684 4.80624 10.925 4.8455 10.8811 4.88201C10.8432 4.88109 10.8274 4.82029 10.7956 4.82121C10.7171 4.82239 10.5177 4.93858 10.6084 4.79706C10.5707 4.80618 10.5 4.90159 10.4768 4.88407C10.5207 4.83671 10.5631 4.79105 10.6086 4.7416C10.367 4.94455 10.4903 4.81694 10.5026 4.75819C10.5114 4.71813 10.4444 4.76468 10.4364 4.74261C10.4345 4.73688 10.4993 4.67216 10.4941 4.67208C10.4839 4.67169 10.4379 4.69583 10.4019 4.71362C10.3778 4.72551 10.3575 4.73519 10.3542 4.73382C10.2753 4.70349 10.2359 4.64547 10.2034 4.56756C10.1997 4.5593 10.1468 4.63349 10.1432 4.62474C10.1374 4.61077 10.2362 4.5137 10.235 4.50306C10.2307 4.47386 10.1328 4.58215 10.1059 4.56677C10.017 4.51547 10.002 4.35028 9.92784 4.26782C9.92534 4.26547 9.87178 4.3308 9.86858 4.32891C9.84862 4.31561 9.90268 4.21044 9.8853 4.19608C9.85636 4.17165 9.76346 4.24568 9.73728 4.22051C9.6856 4.17153 9.67596 4.08127 9.6228 4.02857C9.5787 3.98472 9.53428 3.95909 9.4841 3.91367C9.26219 3.71723 8.89832 3.72568 8.73479 3.42619C8.73064 3.41851 8.76889 3.36349 8.76551 3.3645C8.73249 3.37527 8.68302 3.45076 8.77732 3.28505C8.73478 3.29912 8.65275 3.41413 8.63102 3.38399C8.61933 3.368 8.7454 3.18995 8.66105 3.26686C8.58512 3.3365 8.5477 3.4575 8.54587 3.30229C8.5459 3.29806 8.60601 3.17819 8.57416 3.19715C8.54687 3.21317 8.51867 3.28484 8.4806 3.30338C8.47455 3.30632 8.46831 3.30783 8.46197 3.30723C8.35184 3.29811 8.37182 3.02483 8.34193 2.83876C8.33929 2.82905 8.30888 2.74006 8.2991 2.72853C8.2783 2.71006 8.24738 2.77672 8.24363 2.71108C8.24164 2.65885 8.2732 2.55436 8.26873 2.49693C8.26806 2.49039 8.24075 2.52696 8.24661 2.46633ZM12.6788 6.36588C12.7547 6.42893 13.0413 6.65141 12.9242 6.62542C12.9133 6.62281 12.7255 6.45697 12.6785 6.45428C12.6719 6.41857 12.6788 6.39442 12.6785 6.36565C12.6786 6.36573 12.6787 6.3658 12.6788 6.36588ZM8.60992 1.41965C8.64681 1.42017 8.68403 1.42016 8.72071 1.42078C8.68363 1.44192 8.64842 1.45966 8.61505 1.47434C8.61413 1.45465 8.61248 1.43645 8.60992 1.41965ZM12.1681 3.52684C12.1681 3.52681 12.1681 3.52678 12.1681 3.52675C12.223 3.52484 12.2773 3.52679 12.3298 3.5299C12.3004 3.55098 12.2708 3.57232 12.2413 3.59374C12.1849 3.60539 12.1267 3.61825 12.068 3.63484C12.1013 3.59908 12.1346 3.56308 12.1681 3.52684ZM11.6937 3.5909C11.7168 3.5371 11.7834 3.47823 11.8371 3.40704C11.837 3.40716 11.8369 3.40728 11.8368 3.4074C11.8507 3.38881 11.8551 3.3627 11.8537 3.35568C11.8155 3.39724 11.7782 3.4387 11.7404 3.47994C11.6109 3.54004 11.8779 3.11074 12.1082 3.07711C12.0569 3.12598 12.0058 3.17475 11.9544 3.22379C12.0113 3.26406 11.947 3.43269 11.6937 3.5909ZM12.4926 6.87945C12.4967 6.88533 12.5006 6.89104 12.5045 6.89659C12.595 7.04451 12.6001 7.0874 12.4587 7.07086C12.4278 7.02864 12.3966 6.98682 12.365 6.94541C12.4129 6.96901 12.4609 6.99186 12.5096 7.01424C12.5096 7.01421 12.5097 7.01418 12.5097 7.01415C12.4694 6.97736 12.4289 6.94062 12.3884 6.90414C12.4202 6.89713 12.4522 6.88937 12.4843 6.88096C12.4871 6.88046 12.4898 6.87995 12.4926 6.87945ZM10.1393 2.1478C10.3679 1.78298 10.2306 1.99239 10.3237 1.93553C10.3561 1.91581 10.3856 1.84531 10.4011 1.84001C10.4858 1.81069 10.3244 2.05245 10.2292 2.17086C10.199 2.16363 10.1682 2.15499 10.1394 2.14785C10.1393 2.14783 10.1393 2.14782 10.1393 2.1478ZM8.91001 1.6383C8.90998 1.6383 8.90994 1.63829 8.90991 1.63829C8.94054 1.58134 8.97251 1.56632 8.97729 1.51102C8.99721 1.51142 9.01689 1.51222 9.03668 1.51297C9.02757 1.51856 9.01856 1.52377 9.00959 1.52914C9.00295 1.55005 8.99593 1.57165 8.98878 1.5934C9.03559 1.52353 9.01913 1.56424 9.02452 1.5916C9.06396 1.51229 9.10248 1.43448 9.13995 1.35832C9.15377 1.37757 9.16614 1.39931 9.17697 1.42332C9.16521 1.44434 9.15343 1.4654 9.14165 1.48645C9.1662 1.45985 9.19112 1.43218 9.21676 1.4044C9.20453 1.43015 9.19221 1.45584 9.17974 1.48196C9.20218 1.46288 9.22495 1.44333 9.24816 1.42304C9.21387 1.48829 9.17396 1.51383 9.22568 1.50151C9.17351 1.56787 9.1228 1.63206 9.07331 1.69418C9.01957 1.6725 8.96612 1.65474 8.91001 1.6383ZM10.5542 2.25783C10.4903 2.23733 10.5454 2.19059 10.6856 2.02107C10.6421 2.09996 10.5984 2.1789 10.5542 2.25783ZM12.6789 4.83603C12.7932 4.79645 12.9072 4.7591 13.0195 4.72516C13.0992 4.73359 12.9244 4.87065 12.8337 4.87995C12.726 4.89373 12.8095 4.80677 12.6789 4.83603ZM12.9253 5.89243C13.0019 5.85839 13.1077 5.97061 13.1744 6.02343C13.0463 5.98188 13.0457 6.00976 13.0147 6.03489C13.024 5.99939 12.9129 5.89673 12.9249 5.89227C12.925 5.89232 12.9251 5.89237 12.9253 5.89243ZM12.3602 4.11714C12.3455 4.10418 12.3076 4.10982 12.3285 4.07111C12.4208 4.00438 12.3615 4.09634 12.4782 3.9719C12.4884 3.98011 12.4985 3.98838 12.5087 3.99631C12.4488 4.0331 12.4142 4.0737 12.3604 4.11687C12.3604 4.11696 12.3603 4.11705 12.3602 4.11714ZM11.1734 2.48486C11.0938 2.64372 11.1453 2.5892 11.2525 2.51804C11.1666 2.63225 10.9803 2.79052 10.9268 2.81536C11.0092 2.70528 11.0915 2.59508 11.1734 2.48486ZM8.91813 8.99666C8.86257 8.84738 8.91076 8.80411 8.95702 8.83554C8.96295 8.85865 8.969 8.88206 8.97509 8.9055C8.9561 8.93582 8.93691 8.96631 8.91813 8.99666ZM12.9981 6.04544C13.0047 6.04213 13.0101 6.03855 13.0147 6.03489C13.0132 6.04092 13.0083 6.04491 12.9981 6.04544ZM11.2664 7.08655C11.2022 6.96683 11.1425 6.9524 11.2138 6.96809C11.2137 6.96798 11.2136 6.96787 11.2135 6.96777C11.2607 6.97774 11.2722 6.98105 11.3035 6.97186C11.3955 7.11927 11.3756 7.20928 11.4716 7.18516C11.4727 7.18459 11.4107 7.10205 11.4306 7.10514C11.4367 7.10611 11.4978 7.16653 11.5307 7.17288C11.5411 7.17499 11.6009 7.16314 11.5416 7.20909C11.6148 7.30528 11.6837 7.40648 11.753 7.50106C11.7472 7.54767 11.5901 7.36909 11.5678 7.39191C11.535 7.42626 11.6483 7.6389 11.4647 7.38351C11.4541 7.29751 11.506 7.25869 11.6233 7.40686C11.6565 7.38575 11.5735 7.25475 11.5046 7.21011C11.4563 7.36365 11.345 7.04238 11.325 7.20568C11.3483 7.24271 11.3707 7.28434 11.3941 7.31813C11.2808 7.20874 11.2897 7.12921 11.2664 7.08655ZM11.6753 7.20277C11.7139 7.28953 11.7517 7.37773 11.7878 7.46643C11.6978 7.34599 11.6276 7.23003 11.6037 7.14168C11.6275 7.16226 11.6514 7.18266 11.6753 7.20277ZM10.0746 8.15555C10.1078 8.24021 10.1331 8.31997 10.1616 8.40183C10.125 8.33428 9.95164 8.32833 9.99569 8.22783C10.0019 8.21329 10.1305 8.33297 10.0746 8.15555ZM10.8696 2.45482C10.8434 2.52055 10.8166 2.58628 10.7894 2.65188C10.7397 2.66942 10.6894 2.68789 10.6396 2.70613C10.7159 2.62237 10.7926 2.53853 10.8696 2.45482ZM12.6903 5.16876C12.6896 5.16112 12.7978 5.1296 12.7695 5.11347C12.8413 5.09826 12.903 5.08655 12.9722 5.07465C12.9296 5.10561 12.8873 5.13661 12.8447 5.16753C12.8769 5.15646 12.909 5.14585 12.9414 5.13527C12.8726 5.16803 12.8058 5.20054 12.7361 5.2342C12.8608 5.12235 12.6946 5.20402 12.6903 5.16876ZM11.8545 4.39695C11.9781 4.28812 12.0886 4.26932 12.0754 4.21105C12.1658 4.15089 12.2208 4.12866 12.249 4.14873C12.2199 4.17857 12.1909 4.20812 12.1617 4.23777C12.249 4.16986 12.2865 4.15095 12.3602 4.11714C12.3601 4.11724 12.36 4.11733 12.3599 4.11742C12.3973 4.15243 12.3659 4.17237 12.2289 4.29257C12.2787 4.18892 12.146 4.28915 12.0472 4.3233C11.9793 4.34693 11.9837 4.3032 11.8545 4.39695ZM10.2271 8.08664C10.2581 8.24563 10.3468 8.36763 10.2207 8.23966C10.2084 8.20123 10.1962 8.16312 10.1838 8.12471C10.1981 8.11168 10.2125 8.09905 10.2271 8.08664ZM12.1816 3.89344C11.9857 4.0675 11.854 4.22172 12.1773 3.95664C12.2232 3.87299 12.0507 4.04179 12.1816 3.89344ZM12.568 5.70752C12.6006 5.66276 12.8709 5.76377 12.989 5.85879C12.938 5.84403 12.8876 5.82785 12.8376 5.81145C12.8541 5.83348 12.87 5.85643 12.885 5.88C12.7805 5.82029 12.6747 5.76261 12.568 5.70752ZM11.204 3.25422C11.4001 3.10631 11.252 3.11906 11.3772 3.02904C11.4779 2.95741 11.3448 3.1627 11.2336 3.26718C11.2237 3.26418 11.2139 3.25953 11.2041 3.25428C11.204 3.25426 11.204 3.25424 11.204 3.25422ZM11.4597 3.39213C11.6302 3.1984 11.587 3.26084 11.5267 3.26829C11.5099 3.27054 11.5094 3.13947 11.3927 3.32188C11.4161 3.34314 11.437 3.36742 11.4597 3.39213ZM12.4086 6.47163C12.3402 6.41983 12.2278 6.25561 12.2709 6.27658C12.2708 6.2765 12.2707 6.27642 12.2706 6.27635C12.3874 6.33438 12.3603 6.40146 12.5195 6.48263C12.3559 6.44286 12.6421 6.68639 12.2505 6.38438C12.2574 6.33923 12.3273 6.41577 12.4086 6.47163ZM8.00657 8.91922C8.00655 8.91923 8.00652 8.91925 8.00649 8.91926C8.01253 8.92126 8.1078 9.0315 8.12578 9.07724C8.06931 9.05867 8.03344 8.9726 8.06802 9.12651C8.0437 9.08366 8.02029 9.04201 7.99559 8.99896C7.99626 8.96582 7.97731 8.90909 8.00657 8.91922ZM9.84336 8.04332C9.84838 8.01385 9.91635 8.09833 9.9309 8.08538C10.0334 8.47723 9.82287 8.16054 9.84336 8.04332ZM9.49848 1.84438C9.4986 1.84428 9.49872 1.84418 9.49883 1.84407C9.49871 1.84426 9.49858 1.84443 9.49845 1.84461C9.49846 1.84454 9.49847 1.84446 9.49848 1.84438ZM11.0872 7.70505C11.0732 7.68446 11.0616 7.66614 11.052 7.64972C11.0511 7.64815 11.0503 7.64659 11.0494 7.64502C11.0617 7.66485 11.0743 7.68484 11.0872 7.70505ZM12.3454 6.59831C12.2332 6.54772 12.1386 6.35779 12.1914 6.36336C12.2337 6.39793 12.2731 6.42807 12.3203 6.46974C12.1937 6.40244 12.3645 6.60644 12.3454 6.59831ZM12.383 4.50805C12.4226 4.57173 11.9835 4.75557 12.2876 4.54144C12.2934 4.53715 12.3813 4.5067 12.383 4.50805ZM12.648 6.09524C12.5395 6.00079 12.4876 6.01117 12.5403 5.97524C12.5731 5.99243 12.6061 6.0095 12.6393 6.02616C12.6422 6.04929 12.6456 6.07174 12.648 6.09524ZM12.0971 5.21744C12.1539 5.23505 12.2265 5.2479 12.3326 5.2224C12.4233 5.2059 12.5332 5.15352 12.6788 5.06017C12.6834 5.05706 12.6881 5.05391 12.6929 5.05069C12.6784 5.04949 12.6643 5.04808 12.6499 5.04699C12.4776 5.12809 12.5607 5.06062 12.5484 5.02257C12.4784 5.05149 12.4537 5.04171 12.3949 5.06784C12.2816 5.11886 12.2137 5.17769 12.0971 5.21744ZM9.67711 2.46835C9.69971 2.43651 9.72249 2.40452 9.74495 2.37302C9.78133 2.34417 9.81777 2.31547 9.85444 2.28652C9.81099 2.34795 9.76759 2.40935 9.72424 2.47075C9.70851 2.47002 9.69277 2.46933 9.67706 2.4686C9.67707 2.46851 9.67709 2.46843 9.67711 2.46835ZM11.4896 6.82717C11.713 7.11536 11.6963 7.04269 11.62 6.8657C11.5762 6.85358 11.5327 6.84076 11.4896 6.82717ZM11.3513 4.08884C11.4409 3.99996 11.5304 3.9111 11.6202 3.82159C11.5041 3.89054 11.4015 3.99929 11.2921 4.12476C11.3119 4.11272 11.3316 4.10063 11.3513 4.08884ZM10.9917 3.84401C10.9814 3.87284 11.0509 3.78917 11.0503 3.79164C11.0345 3.85502 11.0035 3.89424 11.0875 3.86134C11.1106 3.84389 11.1346 3.82534 11.1583 3.80733C11.3394 3.59047 11.2242 3.69289 11.3087 3.54512C11.2479 3.62059 11.1868 3.69599 11.1253 3.77146C11.1237 3.74191 11.1219 3.71254 11.1205 3.68334C11.0984 3.70349 11.0765 3.72345 11.0545 3.74362C11.0339 3.77679 11.0102 3.81353 10.9917 3.84401ZM9.59911 2.28558C9.58656 2.26576 9.57382 2.24547 9.56111 2.22577C9.52728 2.27765 9.49325 2.3299 9.45944 2.38177C9.50549 2.34965 9.55236 2.31774 9.59911 2.28558ZM11.2465 7.20819C11.2555 7.22505 11.2645 7.242 11.2739 7.25913C11.2611 7.23915 11.2526 7.22261 11.2465 7.20819ZM7.80861 8.65397C7.7679 8.62812 7.74892 8.66876 7.72098 8.6736C7.79243 8.80454 7.83334 8.73665 7.89549 8.80651C7.88662 8.78098 7.82581 8.66481 7.80861 8.65397ZM12.6079 5.63654C12.5467 5.61162 12.4849 5.58929 12.4222 5.56871C12.4311 5.5632 12.4398 5.55864 12.4479 5.55344C12.3948 5.5445 12.3411 5.53567 12.2878 5.5271C12.355 5.54761 12.2022 5.51563 12.0575 5.4636C12.2391 5.5268 12.4225 5.5847 12.6079 5.63654ZM8.8478 2.23819C8.89902 2.2408 8.9508 2.18499 9.01594 2.02267C8.98251 2.04744 8.94978 2.07096 8.91808 2.09302C8.895 2.14095 8.87157 2.18941 8.8478 2.23819ZM10.4483 7.48883C10.4435 7.56703 10.3369 7.34604 10.3624 7.48568C10.3999 7.51794 10.4377 7.55052 10.4755 7.58253C10.4665 7.55137 10.4574 7.51996 10.4483 7.48883ZM11.4553 6.07235C11.4439 6.06687 11.4414 6.06876 11.4441 6.07524C11.463 6.10264 11.619 6.257 11.4283 6.135C11.4847 6.192 11.5397 6.2452 11.5944 6.30169C11.5268 6.24966 11.4583 6.19685 11.392 6.14417C11.392 6.14418 11.392 6.1442 11.392 6.14421C11.3945 6.18455 11.4869 6.24155 11.5547 6.30135C11.5827 6.32642 11.5195 6.3029 11.5855 6.35159C11.6994 6.43479 11.6731 6.34198 11.804 6.45127C11.7489 6.43034 11.7592 6.48915 11.8523 6.55574C11.9558 6.62741 11.8212 6.46259 11.9159 6.51043C11.6844 6.36264 11.7904 6.36641 11.9608 6.48801C11.9512 6.47546 11.9419 6.46408 11.9328 6.45376C11.8911 6.40473 11.8541 6.37916 11.8248 6.37009C11.7949 6.35921 11.7746 6.36506 11.7657 6.38141C11.6558 6.26226 11.7013 6.34373 11.595 6.26267C11.5698 6.22658 11.5852 6.20559 11.577 6.17814C11.5731 6.14913 11.549 6.11733 11.4553 6.07235ZM11.8725 4.96093C11.8968 4.97948 11.8429 5.06324 11.9657 5.00838C12.0378 4.97706 12.0651 4.90711 12.1851 4.86895C12.1598 4.85088 12.116 4.87098 12.0283 4.9323C12.0141 4.93383 12.0001 4.93516 11.9861 4.93658C12.0021 4.92287 12.0178 4.90919 12.0338 4.89539C11.9949 4.91635 11.9565 4.9372 11.9178 4.95841C11.9215 4.94812 11.925 4.93769 11.9288 4.9271C11.9099 4.93855 11.8931 4.94798 11.8725 4.96093ZM9.43773 7.94124C9.44507 7.93662 9.4524 7.93201 9.45962 7.92704C9.44741 7.90007 9.43457 7.87204 9.42192 7.84437C9.41199 7.82247 9.40207 7.80057 9.39215 7.77867C9.4296 7.85608 9.5221 7.97219 9.50278 7.88092C9.49308 7.83514 9.4123 7.69189 9.435 7.65157C9.41386 7.66947 9.39977 7.69946 9.38129 7.72213C9.36483 7.67642 9.34808 7.63026 9.3316 7.58455C9.33156 7.58449 9.33152 7.58443 9.33148 7.58437C9.3194 7.57754 9.30703 7.57025 9.29495 7.56341C9.34257 7.68944 9.39014 7.81521 9.43773 7.94124ZM11.1918 4.27461C11.2903 4.21728 11.3358 4.1887 11.4447 4.0663C11.4448 4.06623 11.4448 4.06616 11.4448 4.06608C11.3834 4.10944 11.3219 4.15427 11.2597 4.19992C11.237 4.22489 11.2143 4.24982 11.1918 4.27461ZM10.796 6.93455C11.0148 7.42662 10.968 7.0803 10.852 6.93731C10.8468 6.93073 10.8313 6.98406 10.796 6.93455ZM12.419 5.65005C12.4211 5.63559 12.4224 5.62325 12.4231 5.61004C12.3629 5.58922 12.3032 5.56762 12.2436 5.54505C12.3035 5.57671 12.3623 5.61172 12.419 5.65005ZM8.86094 2.6017C8.82893 2.67069 8.81245 2.72469 8.81512 2.74833C8.81824 2.77603 8.8469 2.76342 8.90621 2.68809C8.90763 2.66393 8.90896 2.63977 8.91019 2.61566C8.93864 2.61028 8.96799 2.60295 8.99604 2.59852C9.11564 2.40446 9.02594 2.50356 9.0264 2.42916C9.02649 2.42489 9.04135 2.38813 9.05452 2.35109C9.07797 2.28537 9.0959 2.21874 9.01965 2.32951C8.99529 2.36515 9.01308 2.41393 8.9252 2.50588C8.92947 2.52017 8.93783 2.52493 8.9444 2.53382C8.94511 2.53478 8.9458 2.5358 8.94646 2.53689C8.91927 2.58359 8.89203 2.63035 8.86488 2.67711C8.86467 2.67368 8.86446 2.67025 8.86425 2.66681C8.86293 2.64557 8.86194 2.62376 8.86094 2.6017ZM11.9703 5.08906C11.9795 5.12618 12.05 5.09119 12.1748 5.02914C12.1518 5.02053 12.1293 5.01283 12.1065 5.00527C12.0613 5.03321 12.0159 5.06103 11.9703 5.08906ZM9.13202 2.85467C9.13551 2.89017 9.19943 2.7717 9.22034 2.75533C9.29977 2.69404 9.26773 2.78855 9.32788 2.75725C9.31197 2.77783 9.29714 2.79709 9.28174 2.81707C9.28177 2.81709 9.28179 2.8171 9.28182 2.81712C9.34849 3.00538 9.4494 2.69903 9.34233 2.68605C9.36744 2.64265 9.39264 2.59926 9.41748 2.55619C9.3338 2.60517 9.25678 2.65362 9.13202 2.85467ZM11.2044 6.65802C11.187 6.63746 11.0945 6.49304 11.1226 6.57194C11.2557 6.78418 11.2087 6.6648 11.2736 6.73605C11.2823 6.75951 11.2904 6.78264 11.2988 6.80622C11.3773 6.8356 11.3459 6.78459 11.2224 6.64933C11.2141 6.64023 11.222 6.67842 11.2044 6.65802ZM10.905 6.71452C11.0996 7.02813 11.0577 6.85765 10.9922 6.7636C10.9834 6.76386 11.0127 6.8193 10.9908 6.80057C10.9689 6.78184 10.9202 6.71069 10.905 6.71452ZM12.0149 5.68917C12.0126 5.68983 11.877 5.61761 11.9772 5.6829C12.2236 5.82385 12.0943 5.68897 12.0074 5.64192C12.0048 5.65467 12.0356 5.68509 12.0146 5.68896C12.0147 5.68903 12.0148 5.6891 12.0149 5.68917ZM8.64114 2.44233C8.63712 2.45116 8.62939 2.55188 8.66101 2.50858C8.69575 2.45806 8.73188 2.40058 8.76783 2.34584C8.721 2.37813 8.71453 2.29049 8.64119 2.44243C8.64117 2.4424 8.64116 2.44237 8.64114 2.44233Z" fill="#8C8C8C"/>
</g>
<defs>
<clipPath id="clip0_131_16667">
<rect width="14" height="10" fill="white"/>
</clipPath>
</defs>
</svg>
