<svg width="67" height="38" viewBox="0 0 67 38" fill="none" xmlns="http://www.w3.org/2000/svg">
<g clip-path="url(#clip0_141_32583)">
<mask id="mask0_141_32583" style="mask-type:alpha" maskUnits="userSpaceOnUse" x="-10" y="2" width="37" height="36">
<path d="M-9.72095 19.9258L12.5303 2.13349L26.5918 19.6989L20.532 28.8944L15.9427 31.8951L14.1791 31.6329L4.34052 37.4912L-9.72095 19.9258Z" fill="#D9D9D9"/>
</mask>
<g mask="url(#mask0_141_32583)">
<path d="M65.6606 96.2634C65.5014 96.8509 65.0799 96.0245 64.9839 97.0209C64.8573 96.9874 64.7291 96.9548 64.6027 96.9214C64.7763 96.6683 64.9491 96.4153 65.1229 96.1623C65.3021 96.1954 65.4815 96.2286 65.6616 96.2623C65.6613 96.2627 65.6609 96.263 65.6606 96.2634ZM68.2859 93.4714C67.6153 94.0464 67.1133 93.9285 66.9769 94.8637C67.1995 94.66 67.4227 94.457 67.6452 94.2532C67.6283 94.5417 67.6128 94.8311 67.5977 95.1192C67.7187 95.0717 67.8397 95.0241 67.9598 94.9775C67.6874 95.4271 67.4138 95.8775 67.1411 96.3284C67.1355 96.2247 67.1301 96.1193 67.1246 96.0157C66.6394 96.1603 66.3744 96.0892 66.0342 95.9064C65.9806 96.0219 65.9277 96.1367 65.8742 96.2522C65.8614 95.9686 65.8495 95.6849 65.8384 95.4023C66.0972 95.3516 66.3858 95.2958 66.6264 95.2479C66.9621 94.466 66.3403 94.5358 66.0591 94.5212C65.6761 94.5019 65.9787 94.2502 65.7013 94.2284C65.6573 94.2245 65.4582 94.4538 65.4004 94.4117C65.1093 94.1976 64.683 93.6253 65.4516 93.3477C65.8425 93.7983 66.5952 93.6888 66.9075 94.2227C67.3171 93.4966 67.7311 93.4805 68.2859 93.4714ZM58.2923 88.3182C58.6924 88.1406 58.8647 88.5066 58.8722 88.881C58.8724 88.8812 58.8726 88.8814 58.8728 88.8816C58.8743 88.9639 58.6197 89.4443 58.4973 89.308C58.299 89.0843 58.7429 88.3658 58.2527 88.687C58.2703 88.5623 58.2778 88.444 58.2923 88.3182ZM57.7809 87.9317C57.7817 87.6597 58.259 87.2446 58.3149 87.5208C58.3152 87.5204 58.3156 87.5201 58.3159 87.5197C58.3392 87.6352 57.8721 87.8839 58.4586 87.7308C58.2507 88.0696 58.0656 88.3815 57.866 88.7106C57.7996 88.6604 57.7361 88.618 57.6676 88.5642C58.138 88.1211 57.7813 88.2026 57.7809 87.9317ZM64.9943 93.4247C64.5984 93.8481 64.6895 93.9206 64.5815 94.3556C64.4504 94.2197 64.3205 94.083 64.1907 93.9478C64.4591 93.7734 64.726 93.5992 64.9943 93.4247ZM68.3474 96.356C68.3476 96.3562 68.3478 96.3564 68.348 96.3566C68.4548 96.3266 68.5619 96.2965 68.6672 96.2669C68.5641 96.4499 68.4612 96.6319 68.3582 96.8149C68.6534 96.8078 68.9506 96.8021 69.2461 96.7932C68.8237 97.2629 68.5796 96.9276 68.1284 97.1265C67.9976 96.7708 68.1112 96.3887 68.437 95.964C68.4072 96.0941 68.3764 96.2253 68.3474 96.356ZM31.9528 58.2226C31.7736 58.2848 31.5949 58.3478 31.4157 58.4099C31.4213 58.5357 31.4406 58.6485 31.4377 58.7837C32.1762 58.4675 31.6916 58.9348 31.9541 59.156C32.7608 59.833 33.4574 58.8424 32.793 60.6824C32.3554 60.0802 31.9539 60.8466 31.1782 60.924C31.4674 60.5334 32.5705 60.1491 32.5282 59.7705C31.7973 59.7157 31.1071 59.6525 30.4751 59.436C30.4251 59.5037 30.3749 59.5715 30.3249 59.6392C30.4254 59.6734 30.5258 59.7068 30.6265 59.7411C30.3955 59.8141 30.1674 59.8874 29.9333 59.9607C30.3918 59.7219 29.9651 59.6653 30.4229 59.3141C30.6267 59.1577 30.9874 59.0278 31.2263 58.9276C31.1788 58.6756 31.1201 58.4274 31.0699 58.1773C31.2981 58.1263 31.5263 58.0751 31.754 58.0234C31.821 58.0886 31.8862 58.1545 31.9534 58.2198C31.9532 58.2208 31.953 58.2217 31.9528 58.2226ZM1.53884 22.3861C2.18051 22.2746 2.53698 22.6342 2.13171 23.2239C1.92918 22.9357 1.7313 22.6571 1.53884 22.3861ZM68.7029 95.6113C68.6625 95.7095 68.622 95.8062 68.5817 95.9043C68.3538 95.9589 68.1262 96.0118 67.8985 96.0663C68.0653 95.8242 68.2316 95.5818 68.3971 95.3403C68.4989 95.4301 68.6007 95.5215 68.7029 95.6113ZM61.7245 90.1152C61.8124 90.1679 61.8128 90.181 61.8806 90.2949C61.8806 90.2946 61.8807 90.2943 61.8808 90.294C61.9081 90.3384 62.1124 90.7412 61.9298 90.8812C61.77 90.7481 61.6051 90.6003 61.445 90.4615C61.5373 90.3453 61.6326 90.2333 61.7245 90.1152ZM63.4973 91.8167C63.4972 91.8173 63.4971 91.8178 63.497 91.8184C63.5328 91.8941 63.5425 91.9942 63.5942 92.0552C63.1473 92.1395 63.5276 91.6273 63.2149 91.5962C62.9015 91.5661 62.5517 91.7283 62.9558 90.9259C63.1023 90.8797 63.2902 90.795 63.4526 90.734C63.5015 91.2356 63.7903 91.0512 64.2363 90.981C63.9894 91.2602 63.7443 91.5375 63.4973 91.8167ZM33.7459 62.806C34.1098 62.5645 33.8524 62.909 33.8542 62.9185C33.8537 62.9187 33.8533 62.9189 33.8528 62.9192C34.5682 63.1032 33.6222 63.0216 33.9731 63.4981C33.8345 63.5073 33.6925 63.5215 33.5536 63.5321C33.6148 63.2925 33.6938 63.0313 33.7459 62.806ZM47.7454 77.0727C47.6627 77.1673 47.5806 77.2628 47.4979 77.3574C47.2628 77.0919 46.8555 77.3858 46.9563 76.8587C47.2198 76.9291 47.483 77.0002 47.7464 77.0716C47.7461 77.072 47.7457 77.0723 47.7454 77.0727ZM61.0156 88.2877C61.459 88.3571 61.7401 88.4621 61.7668 88.9894C61.7666 88.9899 61.7665 88.9905 61.7664 88.9911C61.767 89.0226 61.5174 89.1535 61.4948 89.2215C61.5777 89.2415 61.6763 89.2473 61.7648 89.2621C61.6347 89.4276 61.5041 89.5927 61.3748 89.7572C61.251 89.5706 61.1276 89.3843 61.0042 89.1977C60.9473 89.3112 60.8918 89.4245 60.835 89.5381C60.6551 89.4655 60.4762 89.3931 60.2968 89.3206C60.5716 89.1029 60.8462 88.885 61.1211 88.6658C61.0861 88.5393 61.0495 88.4149 61.0156 88.2877ZM44.5459 72.0434C44.4934 72.184 44.2506 72.2669 44.2357 72.418C44.2219 72.5681 44.5275 72.5108 44.2262 72.7565C44.0977 72.7026 43.9593 72.6495 43.8276 72.5958C43.6377 73.3887 44.3843 73.2388 43.7845 73.8561C43.6493 73.4098 43.3384 73.2482 42.8911 73.1403C43.3842 72.667 44.0789 72.5237 44.3551 71.8944C44.4176 71.9439 44.4859 71.9933 44.5442 72.0438C44.5448 72.0437 44.5453 72.0435 44.5459 72.0434ZM78.4545 92.5329C78.6048 92.7218 79.2011 92.8455 79.1844 93.3434C79.18 93.4659 78.5738 94.6095 78.4678 94.7391C78.1081 95.1737 77.8247 95.0439 77.8458 95.533C77.7586 95.4677 77.663 95.4179 77.5727 95.358C77.3496 95.665 77.1271 95.9712 76.9042 96.2768C77.0426 96.3151 77.1814 96.3534 77.3208 96.3908C77.2471 96.4925 77.1732 96.5945 77.0995 96.6963C76.7282 96.4005 76.6424 96.9533 76.1671 97.1498C76.2003 97.4697 76.2362 97.7902 76.2702 98.1103C76.1855 98.0064 76.0781 97.8934 76.0089 97.7954C75.5934 98.2858 75.9043 98.3396 75.8665 98.462C75.6513 99.1531 74.8096 98.0385 74.1363 98.6961C74.2387 98.9127 74.3516 99.1342 74.4597 99.3533C74.3377 99.4031 74.2151 99.4525 74.0931 99.5022C74.1073 98.6847 73.8155 98.1543 73.6196 97.4772C73.5622 97.4648 73.5043 97.453 73.4483 97.4401C73.2769 97.6747 73.1056 97.908 72.9343 98.1427C72.8513 98.1194 72.7678 98.0952 72.6849 98.0718C73.4694 97.478 73.2105 97.2843 73.2795 96.588C73.6514 96.458 73.7199 96.7764 74.1018 96.2803C73.2485 96.2063 73.0427 95.1585 72.1727 95.1466C71.957 95.1432 71.4437 95.7664 71.185 95.4566C71.2519 95.3967 71.3556 95.2747 71.4366 95.1903C70.6674 95.057 70.1823 94.9555 69.8738 94.1864C69.7206 94.4363 69.5661 94.6868 69.4131 94.9369C69.625 94.9251 69.8386 94.9117 70.0501 94.8993C69.8257 95.3356 69.5696 95.3982 69.9316 95.6914C70.227 95.9309 70.1868 95.623 70.356 95.5788C70.5843 95.516 70.4334 95.8859 70.6844 95.8122C70.8776 95.7563 71.0347 95.3734 71.1989 95.6387C70.7812 95.9581 70.3509 96.2886 69.9282 96.612C69.946 96.4771 69.9654 96.3412 69.9842 96.2054C70.1276 96.1464 70.2689 96.0878 70.4124 96.0287C70.0581 96.0551 69.7232 96.0792 69.3476 96.0988C69.8888 95.5858 69.4937 95.619 69.3198 95.5883C69.0486 95.5409 69.5317 95.2797 69.357 95.2451C69.1817 95.2116 68.6877 95.5412 68.5488 95.2672C68.8759 95.1108 68.9072 94.7523 69.1326 94.5441C69.3579 94.3359 69.6296 94.4744 69.6225 94.0366C69.0392 93.879 68.7549 95.15 68.3494 95.0563C67.8619 94.9435 68.9933 93.4278 69.355 93.2011C69.6396 93.0227 69.8732 93.3013 70.1578 93.1242C70.0335 92.273 69.3031 93.1394 69.0764 93.2391C68.253 93.603 69.8416 92.1224 68.9813 92.4184C69.2472 92.1154 69.4857 91.8424 69.7409 91.552C69.6318 91.5564 69.528 91.5968 69.4159 91.5788C69.131 92.3649 68.9724 92.1879 68.879 92.1111C68.7316 91.9906 68.7103 92.4729 68.6082 92.5162C68.3336 92.6312 68.2463 92.4008 68.1246 92.7505C68.1829 92.5892 68.2377 92.4244 68.2941 92.2631C67.9952 92.2739 66.511 93.2228 67.1105 93.2838C66.6722 93.7317 66.7425 93.3982 66.7079 93.2446C66.6733 93.0911 66.4182 93.3967 66.3814 93.2694C66.2365 92.762 66.8954 92.4274 67.2926 92.0643C66.615 91.9728 66.8882 92.5228 66.0959 92.174C65.7533 92.4535 65.7459 93.0556 65.3396 93.0402C65.7832 92.4259 65.9564 91.8614 65.7702 91.3735C65.6227 91.476 65.4743 91.5798 65.3267 91.6823C65.5831 90.9847 66.1539 90.5188 65.2313 90.868C66.4587 89.8239 65.6635 90.4836 65.7632 89.7166C65.7829 89.5616 66.1482 89.4397 66.166 89.2348C66.1739 89.1422 65.9117 89.2458 65.9365 89.0137C65.9492 88.8994 66.1201 88.238 65.7725 88.3234C65.3861 89.0076 64.6576 89.2462 64.5001 89.9515C64.1248 89.4219 63.552 89.4165 64.7704 89.0788C64.8018 88.7982 64.8329 88.5184 64.8644 88.2393C64.6606 88.3062 64.4571 88.3715 64.2535 88.4369C64.6552 87.9467 64.7837 87.8231 64.383 87.6239C64.623 87.6339 64.8643 87.6414 65.1061 87.651C65.1945 87.5583 65.3014 87.4749 65.3777 87.3768C65.043 87.4096 64.4828 87.0633 64.2538 87.0877C64.0245 87.112 64.2237 87.3458 64.0823 87.4396C62.9129 88.2105 63.5876 87.479 63.2317 87.4764C63.022 87.4755 63.2105 87.8364 63.1082 87.8246C62.7299 87.779 63.0907 87.1429 62.8872 86.9534C62.6941 87.3248 62.4966 87.7006 62.2998 88.0737C62.093 87.8651 61.8501 87.6483 61.5603 87.5683C61.4467 87.5366 61.3078 87.8171 61.2814 87.8209C61.1516 87.8456 60.766 87.7267 60.7372 87.7031C60.5184 87.5144 60.7889 87.1942 60.594 86.9923C60.6998 87.0381 60.7985 87.0823 60.9019 87.1276C61.3871 86.6495 61.873 86.1719 62.3587 85.6926C62.1858 85.4751 62.013 85.2587 61.841 85.0414C61.8405 85.3433 61.8419 85.6452 61.8426 85.9478C61.2449 86.1534 60.6463 86.3594 60.0477 86.5649C60.1488 86.2045 60.251 85.8449 60.3533 85.4852C59.9655 85.2608 59.1232 86.3431 59.7634 85.3082C59.5994 85.2983 59.4355 85.2883 59.2726 85.2774C59.4001 85.1618 59.5276 85.0458 59.6551 84.9302C59.469 84.9056 59.2836 84.8806 59.0969 84.857C58.8155 85.4176 58.5113 86.0004 58.2421 86.5479C57.9248 86.4421 58.2625 86.0544 58.3136 85.9283C58.4492 85.5941 57.9649 85.7764 58.1027 85.478C58.1503 85.3759 58.599 85.3225 58.7818 84.9627C58.8168 84.8926 59.4747 83.5571 59.0653 83.6353C58.8956 83.8321 58.6976 84.0826 58.5168 84.3001C58.1565 84.1897 58.9336 83.0644 59.2211 82.8115C58.9086 82.8889 58.6975 82.7292 58.3919 83.0136C58.3165 82.9595 58.2421 82.9055 58.1669 82.8514C58.9166 82.1638 58.505 82.0424 57.9004 82.6698C58.0091 82.7968 58.1104 82.9185 58.214 83.0406C57.408 83.7511 57.347 84.5637 57.2455 83.1413C57.4705 82.5965 57.4564 83.4333 57.615 83.0165C57.5689 82.6491 57.2382 82.6233 57.3012 82.1589C57.3815 81.58 57.9931 81.5076 57.0134 81.4489C57.2319 83.7255 56.1384 82.0621 55.2355 81.8835C56.1014 80.614 55.9383 79.8128 54.9678 79.5337C54.7498 79.9087 55.1072 79.9412 55.1339 80.155C55.1606 80.3689 54.8594 80.4333 54.8767 80.7177C54.8941 81.0021 55.0353 81.4961 54.9884 81.8582C54.6952 81.9152 53.6681 81.742 54.554 81.631C54.5199 81.0306 54.6633 80.577 54.3274 80.1605C53.7631 80.5385 53.4919 80.8482 53.1007 80.5124C53.9474 80.0454 53.9525 79.1811 54.6914 78.5731C54.8074 78.9814 54.0325 79.5198 53.8876 79.9866C53.8735 80.0336 54.2803 80.0947 54.3274 80.1605C54.6362 79.3192 54.7597 79.0136 55.5824 78.4327C55.3465 78.3322 55.3207 78.1398 54.9849 78.4699C55.0867 78.2861 55.1885 78.102 55.291 77.9188C55.2305 77.8698 55.1649 77.8347 55.1042 77.7733C54.7084 78.3738 54.8371 77.8976 54.4988 78.0224C54.1602 78.1473 53.9389 78.7063 53.6058 78.4069C53.6018 78.63 53.6048 78.8274 53.604 79.0412C53.2674 78.9777 52.9298 78.9145 52.5943 78.8512C52.4463 79.306 52.3308 80.078 51.9337 80.4875C51.9821 80.2386 51.389 80.2034 51.3419 80.1806C51.1604 80.091 51.4832 79.9002 51.4785 79.8837C51.3756 79.5487 51.1099 79.4676 51.3989 78.9916C51.065 79.0157 51.0362 78.7965 50.852 78.6425C50.7506 78.5577 50.4949 78.8667 50.4908 78.7585C50.4656 78.0381 51.1748 77.9965 49.7829 78.0363C49.6776 78.3205 49.5671 78.6086 49.4607 78.8952C49.3073 78.8951 49.1541 78.8958 49.0008 78.8957C48.9816 78.8077 48.9631 78.7199 48.944 78.6319C49.3612 78.1942 49.7794 77.7558 50.1966 77.3181C50.1603 77.2384 50.1233 77.1592 50.0872 77.0795C50.229 77.1319 50.3712 77.1846 50.5134 77.2371C50.5958 77.1686 50.6776 77.0995 50.76 77.031C50.7231 76.7692 50.6883 76.5071 50.6535 76.2452C50.5058 76.395 50.357 76.5458 50.2093 76.6956C50.0737 76.1629 50.1934 76.031 49.4697 76.1414C49.2205 75.895 48.4068 76.3334 48.0044 76.4605C48.0336 76.3253 48.064 76.1889 48.0928 76.0533C47.9382 76.1473 47.7837 76.2405 47.629 76.3345C47.7314 76.0954 47.8331 75.8555 47.9351 75.6177C47.5152 75.9803 47.376 76.0858 47.5002 76.4741C46.935 76.8841 46.6902 76.2279 46.6675 75.8849C46.6499 75.6245 47.2028 75.3618 47.2338 75.2948C47.3403 75.0684 46.9697 74.9943 46.9492 74.9197C46.8605 74.6062 46.6993 74.4896 46.6062 74.2222C46.5885 74.1697 46.7434 73.8136 46.743 73.7973C46.7212 73.6894 46.6844 73.407 46.6698 73.3857C45.9237 72.2774 45.8229 74.3834 45.0658 73.4091C44.947 73.5837 44.8274 73.7555 44.7078 73.9293C44.6312 73.8719 44.5538 73.8128 44.4771 73.7552C44.5129 73.5469 44.8384 73.424 44.4891 73.4378C44.6799 73.2663 44.8708 73.0947 45.0613 72.9246C44.8903 72.9503 44.7228 72.9777 44.5502 73.0016C45.0551 72.2518 44.7679 71.6841 45.533 70.9734C45.7932 70.7315 46.3522 70.7719 46.4588 70.3443C46.3814 70.1629 46.171 70.5511 46.1024 70.5145C45.6113 70.246 46.0529 69.8466 45.786 69.805C45.582 69.9613 45.3732 70.1199 45.1667 70.2774C45.1609 70.1662 45.1551 70.0549 45.149 69.9433C45.0146 70.051 44.8795 70.1583 44.745 70.2659C44.792 70.3288 44.8458 70.3987 44.8884 70.4571C44.3496 70.8566 43.4936 70.423 44.1391 70.2688C44.4012 70.2064 44.5159 70.4582 44.9532 69.7884C44.7012 69.6964 44.4248 69.5833 44.165 69.4827C44.2787 69.358 44.3931 69.2335 44.5069 69.1088C44.1876 68.9433 43.9301 69.6397 43.674 69.8946C43.6112 69.846 43.5489 69.7961 43.4863 69.7476C43.5785 69.6088 43.6774 69.4658 43.7651 69.3295C43.5786 69.5106 43.119 69.9056 43.1134 69.5819C43.1113 69.3727 43.743 69.0777 43.4773 68.9395C43.2044 69.2402 42.9265 69.6615 42.6095 69.5276C42.888 69.2072 43.1328 68.9033 43.4318 68.573C42.8663 68.5802 43.1928 67.9807 42.5232 67.9749C42.0981 67.9698 41.0493 68.4175 42.0832 67.1344C41.9606 66.9477 41.718 67.2823 41.607 67.3C41.0826 67.384 41.4799 66.6799 41.4732 66.6076C41.4307 66.1448 41.1256 66.2162 41.1849 65.7513C40.9784 65.9735 40.7784 66.1793 40.5751 66.394C41.0881 66.2709 41.1672 66.383 41.3615 66.7222C41.2293 66.6737 41.0962 66.6262 40.9642 66.5778C40.8023 66.764 40.6402 66.9501 40.4788 67.1349C41.9919 67.2994 40.7057 68.1729 39.7773 67.6994C40.0445 67.3215 40.3091 66.9425 40.5784 66.5649C39.6898 66.6394 39.936 66.0329 39.6008 65.478C39.5584 65.4105 39.1726 65.3873 39.0791 65.3084C39.0792 65.3111 39.0793 65.3137 39.0795 65.3164C38.7167 65.559 38.645 65.7699 38.3763 66.0445C38.2956 66.0301 38.2152 66.0155 38.1346 66.001C38.244 65.692 38.4535 65.5632 38.2031 65.4022C38.0192 65.6317 37.835 65.8611 37.6513 66.0908C37.424 65.8678 37.5103 65.4994 37.2085 65.3809C37.3225 65.3407 37.4362 65.2998 37.5502 65.2595C37.3139 64.6029 38.9068 63.7905 37.9574 64.0298C38.0449 63.9048 38.1341 63.7794 38.2217 63.6545C38.3839 63.7721 38.5458 63.8908 38.7084 64.0082C38.8645 63.8653 39.0202 63.7232 39.1758 63.5797C38.9842 63.4704 38.791 63.3619 38.6004 63.253C38.809 63.2667 39.0186 63.2809 39.2275 63.2946C39.1326 63.0477 39.0387 62.8012 38.9457 62.5555C38.5576 63.2775 38.2585 63.1 37.7417 63.6751C37.9112 62.9208 38.2965 62.0973 37.4511 61.9874C37.2833 61.966 36.9378 62.3852 37.1642 61.668C36.6027 62.3221 35.9793 62.2439 35.4255 62.8448C35.545 62.9153 35.6617 63.004 35.7806 63.0606C35.8896 62.7632 36.4421 62.2155 36.7582 62.2156C37.1612 62.2159 37.0451 62.8795 37.6631 62.2766C37.7092 62.3849 37.7623 62.4762 37.8112 62.578C37.6249 62.6925 37.4382 62.8085 37.2523 62.9234C37.707 62.9167 37.76 63.1318 37.4694 63.6103C37.1265 63.4282 36.7864 63.2464 36.4472 63.0646C36.4572 63.1288 36.4675 63.1939 36.4785 63.2574C35.887 63.433 35.7009 63.9983 35.2619 63.7023C35.4483 63.5323 35.6344 63.3618 35.8217 63.1909C35.2059 63.5203 34.8398 63.1226 34.3893 63.7771C34.4537 63.4967 34.5419 63.3702 34.1736 63.5885C34.3161 62.8764 34.6807 62.1729 35.4348 61.6772C35.2239 61.6605 35.013 61.644 34.803 61.6279C34.6852 61.8589 34.5685 62.0894 34.4512 62.3208C34.278 62.1116 34.1042 61.9016 33.9326 61.6948C34.4445 61.188 34.445 61.9278 34.8114 61.376C34.885 61.2653 34.5834 61.3466 34.6111 61.2693C34.9187 60.4417 34.9265 61.2889 35.2899 60.7932C35.0235 60.2294 36.0889 59.8947 34.9122 59.8696C35.0509 59.7133 35.1916 59.5531 35.3306 59.3989C35.1497 59.1832 34.8188 59.517 34.5904 59.3987C34.4475 59.3243 34.9296 58.6295 34.4028 58.8849C34.3064 58.9327 33.7491 59.8177 33.3866 59.3534C33.0983 58.9849 33.7552 58.6489 33.772 58.2917C33.7883 57.9342 32.6664 58.1647 33.3857 57.2902C33.3635 57.4873 33.4167 57.6659 33.4249 57.8565C33.627 57.755 33.8261 57.6537 34.0266 57.5523C33.5921 57.4912 33.6077 57.0126 33.0709 57.1928C33.3655 56.3312 32.4881 56.4558 31.9068 57.1525C32.1005 57.1751 32.2869 56.7962 32.2357 57.1132C32.0935 57.268 31.9529 57.423 31.8108 57.5779C31.5991 57.3032 31.4363 57.1291 32.0167 56.8219C31.9926 56.7721 31.9688 56.7226 31.9448 56.6727C31.5937 56.9724 31.242 57.2739 30.8909 57.5735C30.8096 57.5604 30.7285 57.5469 30.6473 57.5338C30.676 57.4135 30.7056 57.2924 30.7349 57.1709C31.3453 56.7583 31.4705 56.8633 31.4187 56.1898C31.2287 56.3558 31.039 56.5207 30.8491 56.6868C30.7895 56.1357 31.245 55.7285 30.8403 55.3033C31.795 55.0623 30.7871 56.2661 32.1029 55.1016C32.0879 55.2588 32.0726 55.4179 32.0581 55.5755C32.2598 55.419 32.4617 55.262 32.6629 55.1048C32.1891 54.7737 30.2539 55.1106 30.8324 54.0833C30.6985 54.1362 30.5779 54.1773 30.4358 54.2363C30.6855 53.5024 29.4389 54.3635 29.8367 53.4989C29.8793 53.409 31.0025 52.5455 30.6339 52.1968C30.5029 52.3265 30.273 52.5337 30.1042 52.6931C30.1179 52.5364 30.1362 52.377 30.1529 52.2198C30.0114 52.3158 29.8693 52.411 29.7269 52.5077C29.7985 52.6918 29.8696 52.8766 29.9425 53.0615C29.7964 52.9818 29.6499 52.9016 29.5044 52.8222C29.4265 53.1567 29.4845 53.2282 29.0676 53.426C28.9321 53.3099 28.7957 53.1949 28.6611 53.0793C28.5629 53.1399 28.4638 53.2014 28.3655 53.262C28.1633 53.5478 27.9676 53.8298 27.7621 54.1195C27.6755 53.5938 27.4175 53.2696 27.6894 52.5593C27.7352 52.4392 28.2134 52.3178 27.637 52.2571C27.8112 52.1002 27.9489 51.9683 28.1092 51.8222C27.277 51.858 27.3168 51.6019 27.3385 50.8932C27.221 51.4396 27.244 51.0211 27.0067 51.1076C26.8434 51.1673 27.0121 51.3296 26.8644 51.4199C26.7177 51.5095 25.9975 51.7199 26.102 51.9714C27.5873 51.5502 26.4166 52.7691 27.4716 52.9639C27.2505 52.9843 27.0285 53.0041 26.8075 53.0244C26.7531 53.1499 26.7032 53.2633 26.6464 53.3977C26.5545 52.8661 26.5651 53.1539 26.2765 53.1494C25.9879 53.1448 25.624 53.0008 25.4299 52.8637C25.3688 52.8204 25.6589 52.6751 25.5759 52.5315C25.5196 52.4336 24.9667 52.5032 25.3435 52.095C25.5891 51.8296 26.6554 51.5622 26.2241 51.0537C26.4128 50.7317 26.5345 51.046 26.5715 51.024C26.9287 50.7988 26.9067 50.2842 26.5414 50.3457C26.5105 50.3517 26.3561 50.675 26.1542 50.6334C25.672 50.5338 25.8251 50.1337 26.0462 49.6089C25.5726 49.9674 24.8131 50.1631 24.7187 49.7053C24.5744 49.7973 24.4296 49.891 24.2843 49.9838C24.3945 49.9759 24.5037 49.9687 24.6139 49.9608C24.5766 50.0826 24.5644 50.1893 24.5116 50.3222C24.133 50.0946 23.4658 50.5707 23.1078 50.6073C21.8852 50.7315 23.8172 49.6761 24.182 49.5327C24.1217 49.6966 24.0462 49.8696 23.98 50.0382C24.1331 49.899 24.2873 49.7588 24.4419 49.6195C23.7921 48.8422 25.378 48.6466 25.3499 48.0085C24.4815 48.5533 24.1665 48.3246 24.3686 47.552C24.3317 47.5149 24.2977 47.4752 24.2599 47.4389C24.1395 47.5258 23.9639 47.6691 23.8792 47.7198C23.3876 47.3896 24.5417 46.326 24.6209 46.1883C24.9775 45.5836 24.1502 46.0082 24.0987 45.9567C23.8834 45.7405 24.1434 45.4189 23.8286 45.3045C23.4897 45.1821 23.3794 45.5401 23.1042 45.6407C22.8851 45.7199 22.7028 45.5552 22.4619 45.6198C22.6327 45.5341 22.8035 45.4542 22.9747 45.368C22.9752 44.9608 23.0087 44.6046 22.8361 44.2876C21.5143 44.8223 23.1142 43.126 21.7313 44.3936C21.8389 44.736 21.7894 45.0164 21.5291 45.455C21.3427 45.3184 21.1583 45.1812 20.9735 45.0457C21.0946 44.8678 21.2235 44.7082 21.3403 44.5187C20.8909 44.6533 20.7916 44.2248 20.5953 44.1818C19.6755 43.9807 19.2254 44.6123 19.8085 43.3272C20.1948 43.6249 20.6728 43.2506 20.8977 43.6734C21.1761 43.3257 20.9583 43.1932 21.463 42.9947C21.0826 42.7161 20.8073 43.1173 20.3737 43.2314C19.9998 43.3296 19.7968 43.1009 19.4428 43.3976C19.6241 43.2173 19.8034 43.0477 19.9847 42.8679C19.804 42.6394 19.6268 42.4106 19.4493 42.1845C19.734 42.1199 20.0191 42.0549 20.3029 41.9908C20.3253 41.8562 20.3475 41.7219 20.3704 41.5877C19.2857 41.5326 19.7151 39.6033 18.192 41.0201C17.9283 40.7822 18.1093 40.5909 18.3082 40.2048C18.1704 40.2831 18.054 40.3459 17.9019 40.4348C17.8988 40.1581 17.3251 40.3774 17.3302 40.1292C17.3345 39.8819 17.7517 39.5092 16.9854 40.0489C17.1241 39.7861 17.2307 39.5563 17.3506 39.2998C17.133 39.3643 16.9174 39.4274 16.7013 39.4917C16.7171 39.3265 16.7328 39.1618 16.7494 38.9974C16.3514 39.2119 16.2207 38.7133 15.8553 38.7244C16.125 38.2783 17.3483 37.3803 16.8569 37.1722C16.5607 37.4049 16.2654 37.6368 15.9693 37.8696C15.9699 37.738 15.9706 37.6066 15.9713 37.475C16.0666 37.3972 16.1624 37.3201 16.2577 37.2423C16.2588 37.3079 16.2596 37.3729 16.2598 37.4394C16.3997 37.2787 16.5395 37.1195 16.6801 36.9597C16.3373 37.0135 15.9945 37.0671 15.6517 37.1202C15.5905 37.4314 15.5305 37.7441 15.472 38.058C15.0869 38.0012 15.1973 37.6856 14.8096 37.6775C15.1059 37.2023 15.3929 37.0874 15.8992 36.8242C15.8143 36.7897 15.7285 36.7512 15.643 36.7157C16.1281 36.4235 16.3267 36.1259 16.5543 36.514C16.6662 36.3945 16.7717 36.279 16.8893 36.1565C16.8271 36.1144 16.9061 35.9921 16.8073 35.9621C16.5364 35.8793 15.6336 36.3226 15.3616 36.5393C15.2194 36.6531 15.6326 36.6291 15.4194 36.7734C14.8997 37.1253 14.8226 36.542 14.7528 37.515C14.2839 37.5502 14.4944 37.3278 14.4282 37.0408C14.2716 37.1808 14.1157 37.3196 13.9587 37.4591C13.9624 37.3006 13.9662 37.1425 13.9707 36.9848C14.9409 36.4936 14.7317 35.5179 15.9749 35.6321C15.8709 35.407 15.769 35.1836 15.6701 34.9601C15.7884 34.9355 15.9058 34.9116 16.0241 34.887C16.0402 35.0088 16.057 35.1298 16.0747 35.2515C16.1628 35.0296 16.2503 34.8087 16.3394 34.5879C15.9613 34.4911 15.5816 34.6209 15.1167 34.7868C15.0388 35.2708 15.3562 34.9027 15.5916 35.0684C15.3425 35.2364 15.1259 35.4082 14.856 35.5733C15.2774 35.0947 14.6434 34.9884 14.5574 34.9206C14.2956 34.7142 14.9386 34.5622 14.8248 34.3813C14.7142 34.2051 14.2616 34.1973 14.6507 33.6989C14.3758 33.8984 14.0979 34.1141 13.8535 34.3041C13.5614 34.0863 13.9291 33.9106 13.9507 33.8513C14.319 32.8943 13.5549 33.0632 13.1195 32.5959C13.0794 32.7219 13.0483 32.8429 13.0143 32.9663C12.1495 32.9901 12.5137 33.1248 12.5601 33.6043C12.3932 33.2421 11.763 33.4132 11.4566 33.294C11.1476 33.1707 11.122 32.5823 11.2246 32.2989C11.7788 32.4032 11.8262 32.9267 12.1601 33.2125C12.4149 32.9732 12.6271 32.7658 12.9093 32.506C12.1648 32.7092 12.4695 32.2973 12.4966 32.1678C12.5757 31.7875 12.0691 32.1507 12.528 31.6365C12.3424 31.7735 12.1859 31.8881 12.0127 32.0164C11.7784 31.5114 11.7869 30.8064 10.89 31.0057C11.3287 30.6659 11.7551 30.344 12.2007 29.9942C11.7314 30.0479 11.9749 29.648 11.7821 29.5391C11.5914 29.4333 11.2636 29.747 10.9922 29.6556C10.9422 29.6386 11.1242 29.4082 10.8952 29.4392C10.6647 29.4701 9.17143 30.0216 10.2626 29.2263C10.1599 29.0638 10.0994 28.8868 10.0144 28.7205C10.1787 28.8275 10.3418 28.9367 10.5073 29.0448C10.6902 28.7321 10.8737 28.4218 11.0584 28.1113C10.8059 28.2585 10.549 28.4085 10.3 28.5542C9.77762 28.4157 9.9938 27.8837 9.65928 27.5882C9.60339 27.5391 9.21912 28.0011 9.16331 27.6544C9.10831 27.3085 9.87206 26.5153 9.23483 26.3091C9.20065 26.2967 8.43525 26.6345 8.79703 26.1483C8.87965 26.0391 9.14446 26.0916 9.22834 25.9111C9.31166 25.7298 9.17449 25.271 9.49243 25.0186C9.37573 25.1018 9.26774 25.2074 9.15388 25.2995C9.05386 25.2726 8.9535 25.2452 8.8544 25.2174C9.0607 25.072 9.26701 24.926 9.47228 24.7813C8.7377 24.7356 7.81864 25.0822 7.72552 24.3661C7.5266 24.7298 7.3117 25.0719 7.10668 25.4261C7.34875 25.3256 7.59236 25.2242 7.83408 25.1231C7.9124 25.4276 7.99455 25.7361 8.07848 26.0481C8.35043 25.9282 8.6212 25.808 8.89318 25.6881C8.9066 25.777 8.92077 25.8648 8.93459 25.9542C8.74689 26.0543 8.56001 26.1537 8.37184 26.2531C8.50533 26.3599 8.64051 26.4671 8.76714 26.5633C7.55583 26.9997 8.35045 25.7452 7.50557 26.3626C7.60077 26.2127 7.69705 26.0624 7.7937 25.9124C7.35381 26.1663 7.39439 25.9636 7.32101 25.7081C7.14471 25.8942 6.97476 26.0838 6.794 26.2678C6.95035 25.8658 6.68281 25.5233 6.65936 25.2415C6.64663 25.114 7.01649 25.0072 7.0337 24.9549C7.12345 24.6812 6.4027 24.7531 6.40677 24.6671C6.42917 24.1526 7.29872 23.2623 6.38834 23.3364C6.47208 23.8236 6.4065 23.5719 6.12373 23.9518C6.03499 24.0707 6.11857 24.7272 5.81804 24.0354C5.79151 23.9657 5.73341 22.3486 6.52112 22.3749C6.22622 22.3003 5.9325 22.2859 5.64001 22.2382C6.78927 20.8987 5.55108 21.9163 4.89529 22.5157C4.84831 22.4513 4.79941 22.3932 4.75477 22.3255C5.62393 21.9692 5.17341 21.1815 4.61235 21.1774C4.42647 21.1768 4.33928 21.5796 4.09155 21.458C4.08305 21.3281 4.08259 21.1759 4.07792 21.0382C3.68585 21.5021 3.31411 21.3485 2.8228 21.6811C3.14688 21.2136 3.99159 20.4607 4.56085 20.2196C4.2637 20.2171 3.94714 20.1853 3.64202 20.174C3.57225 20.3227 3.50431 20.4721 3.43494 20.6216C3.40451 19.9041 2.30486 19.7945 3.26002 18.9837C3.20708 18.9219 3.15496 18.8593 3.10262 18.7987C2.91507 18.8973 2.72776 18.9971 2.54044 19.0961C2.48822 18.6978 2.4482 18.3183 2.39866 17.9319C2.68356 18.1093 2.96652 17.9912 2.95347 18.3991C3.08073 18.1577 3.20788 17.9143 3.33656 17.676C2.53288 17.6662 2.11848 17.8175 1.85335 17.1256C1.8491 17.1031 1.94115 16.3127 1.96933 16.2636C2.10797 16.0437 2.47368 15.9405 2.54702 15.8337C2.75429 15.533 3.01168 14.4573 3.11971 14.3861C4.47826 13.4852 6.00748 15.5188 6.38611 15.9475C10.7382 20.8378 12.9437 26.478 16.6676 31.3608C16.7065 31.4105 16.8837 31.2514 16.9075 31.2675C17.0526 31.3694 16.8475 31.7175 16.8713 31.7772C16.923 31.904 17.1582 31.6469 17.2149 31.7262C17.8004 32.555 18.1557 33.3911 18.8041 34.1816C18.846 34.2326 18.586 34.3387 18.6933 34.404C18.7489 34.4355 19.2015 34.3462 19.2809 34.4439C19.5644 34.7944 19.683 35.1818 19.9773 35.5689C20.1384 35.7802 20.3497 36.1242 20.5359 36.363C20.618 36.4685 20.8549 36.4659 20.9396 36.5683C21.0598 36.714 20.7264 36.9157 20.7238 36.9525C20.7126 37.1128 21.0633 36.871 21.1246 36.9694C21.2378 37.1538 21.0176 37.3337 21.2026 37.5391C21.3352 37.6855 21.7879 37.9117 21.9931 38.0724C22.0827 38.7352 22.6631 39.2771 23.0683 39.6231C23.3146 39.8362 23.0186 40.1034 23.0998 40.2063C23.3895 40.5672 24.0082 40.5343 24.293 40.8713C24.6707 41.3186 24.7368 41.9448 25.0574 42.3876C25.1105 42.4605 25.3832 42.2177 25.4455 42.281C25.6758 42.5158 25.9907 42.8039 26.1352 43.0672C26.2969 43.3601 25.9611 43.7869 26.2499 43.9735C26.335 44.028 26.7138 43.7586 26.8611 43.846C27.0945 43.9858 26.9584 44.4674 27.0289 44.6265C27.1314 44.849 27.3678 44.3907 27.5209 44.679C27.5271 44.691 27.2955 44.9416 27.3517 44.9849C27.5145 45.1121 27.7077 44.9282 27.8754 45.1731C27.8904 45.197 27.8912 45.7056 27.9155 45.737C28.058 45.9186 28.2695 46.3519 28.4108 46.4152C28.9145 46.6417 29.0561 46.0162 28.4771 47.0458C28.8042 47.0171 29.1333 46.9847 29.4622 46.9693C29.1929 47.0286 29.2532 47.6516 29.2944 47.6651C29.6293 47.7785 29.8424 47.3649 30.0345 47.7041C28.9488 47.9529 30.2554 48.1658 30.4213 48.3221C31.2129 49.0684 31.6945 50.0122 32.3962 50.8137C32.6356 51.0866 33.115 51.3188 33.3673 51.6154C33.4267 51.684 33.2048 51.7865 33.2536 51.8501C33.3035 51.9125 33.4437 51.6726 33.4931 51.7504C33.796 52.2356 33.7255 52.908 34.5328 52.8835C34.4819 52.9614 34.4281 53.0078 34.3812 53.1037C35.0718 53.045 35.0473 54.1434 35.1756 54.4405C35.3754 54.9035 35.738 54.7441 35.9155 55.0551C36.1491 55.4667 36.0768 56.4813 36.7659 55.4349C37.0093 55.6473 37.2252 55.8693 37.3502 56.1741C37.3642 56.2085 37.12 56.3982 37.1247 56.4128C37.1516 56.5081 37.3752 56.3435 37.4249 56.3792C37.5595 56.4762 37.1365 56.503 37.361 56.612C37.4801 56.669 37.7044 56.5578 37.9384 56.8057C39.3593 58.3173 40.8257 60.0101 42.2777 61.5866C42.378 61.6952 42.5263 61.4189 42.6408 61.566C43.0495 62.0888 43.4558 63.232 43.8897 63.5797C44.32 63.9239 44.5467 63.5314 44.9169 63.6494C44.9886 63.6721 44.7727 63.8067 44.812 63.8523C45.0776 64.1569 45.1403 64.7742 45.3313 65.0513C45.4572 65.2348 45.7235 64.9481 45.8502 65.0368C46.0382 65.1696 45.922 65.6138 45.9988 65.7093C46.3486 66.1417 46.8415 66.186 47.0941 66.6687C47.1407 66.5935 47.1876 66.5277 47.2354 66.4557C47.6602 66.9008 48.089 67.3475 48.5229 67.7969C48.5574 67.7204 48.593 67.6441 48.6283 67.5667C49.1186 68.1127 48.4617 68.6605 49.6799 67.3354C49.7624 67.3278 49.8543 67.3153 49.9315 67.3096C49.2647 67.9535 49.1081 68.7519 49.347 69.3165C49.3635 69.3575 50.1898 68.9022 49.4215 69.6438C49.655 69.507 49.8111 69.4079 50.0146 69.2859C49.872 69.5985 49.7336 69.9097 49.5926 70.222C49.6717 70.2319 49.7502 70.2436 49.8293 70.2534C49.9822 70.1103 50.1287 69.9498 50.2867 69.817C50.5191 69.9995 50.774 70.6077 50.9616 70.7522C51.4275 71.11 52.25 71.1168 52.1579 71.8752C52.3626 71.9852 52.4864 71.5351 52.6908 71.803C52.5742 71.9791 52.4619 72.1474 52.3422 72.3293C53.1815 71.847 52.8331 72.2956 52.9688 72.6931C53.0551 72.9575 53.3282 72.904 53.4674 73.0973C53.5026 73.1465 53.3087 73.3383 53.3443 73.3598C53.4624 73.4333 54.0033 73.4288 54.0804 73.4878C54.7837 74.0169 55.3071 74.5662 55.8584 75.2178C55.9181 75.2874 56.0154 75.0102 56.0766 75.0828C56.1753 75.1994 55.8279 75.4407 55.8785 75.5156C56.0214 75.7228 56.3198 75.4052 56.587 75.6224C57.4646 76.3358 58.1575 77.4186 59.0071 78.2324C59.0341 78.257 59.2046 78.0668 59.2357 78.0917C59.4354 78.2568 59.3975 78.6889 59.5752 78.8451C59.8693 79.1051 60.3295 79.0377 60.618 79.2998C61.1867 79.8146 61.5402 80.3786 62.1098 80.9006C62.5728 81.3255 63.0055 81.6644 63.5269 82.1271C65.8234 84.1635 68.6669 85.5477 70.7123 87.8404C70.7637 87.8987 70.5941 88.0508 70.6183 88.0585C70.852 88.128 71.0637 87.9083 70.7131 88.4467C71.0123 88.5345 71.3897 88.2262 71.6318 88.4745C71.7612 88.6067 71.178 89.0864 71.6633 88.994C72.1023 88.9104 72.1238 88.3981 72.5017 89.2564C72.5114 89.2794 72.3052 89.6969 72.5156 89.719C72.7258 89.7425 72.7766 89.363 73.1654 89.56C74.0835 90.0283 74.7951 91.1247 75.7512 91.7531C75.8111 91.7926 76.4991 92.0432 76.6759 92.0434C77.0181 92.043 77.1878 91.7476 77.5066 91.9011C77.7528 92.02 77.6829 92.4542 77.9749 92.5933C78.0091 92.6092 78.3037 92.3437 78.4545 92.5329ZM30.6105 57.8612C30.2799 58.0681 29.1427 58.9192 29.2018 58.3371C29.2074 58.2822 30.0696 57.7876 30.041 57.5221C30.2591 57.6132 30.422 57.7465 30.6116 57.8602C30.6112 57.8605 30.6108 57.8609 30.6105 57.8612ZM74.1331 100.641C73.9406 100.395 73.7478 100.149 73.5571 99.9034C73.8271 99.9016 74.0973 99.9001 74.3678 99.8967C74.2897 100.145 74.2108 100.392 74.1331 100.641ZM46.5972 75.5456C46.5974 75.5458 46.5976 75.546 46.5978 75.5462C46.2448 75.4587 45.8922 75.3715 45.5407 75.2843C45.658 75.2109 45.7757 75.1372 45.893 75.0638C46.2176 75.0841 46.5425 75.1047 46.8672 75.1244C46.7771 75.2647 46.6872 75.4051 46.5972 75.5456ZM49.3876 76.2532C49.4245 76.5091 49.2002 76.6675 49.0983 76.9329C49.0987 76.9325 49.099 76.9322 49.0994 76.9318C49.0729 77.001 49.1282 77.1361 49.1585 77.1791C49.261 77.0439 49.3581 76.9064 49.4586 76.7711C50.0716 76.7911 49.7309 78.4669 48.4782 78.0838C48.6377 77.9416 48.7958 77.7997 48.9553 77.6574C48.4995 77.3065 48.3289 76.5044 49.3876 76.2532ZM27.0314 54.7067C26.1815 54.7881 25.9601 54.7562 25.9197 53.9732C26.127 53.9116 26.3343 53.85 26.5416 53.7883C26.4549 53.9971 26.3692 54.2048 26.2832 54.4141C26.2834 54.4144 26.2835 54.4146 26.2837 54.4148C26.458 54.2928 26.6325 54.1705 26.8062 54.0478C26.8856 54.2729 26.9557 54.4867 27.0314 54.7067ZM63.2476 89.5004C62.4427 90.6452 62.9413 90.0065 62.434 89.9829C62.2582 89.9749 62.2005 90.2472 62.1089 90.2216C61.6128 90.0852 62.1972 89.3567 62.5932 89.0576C62.8123 89.2039 63.0321 89.3544 63.247 89.4998C63.2472 89.5 63.2474 89.5002 63.2476 89.5004ZM72.6574 97.0239C72.6576 97.0241 72.6578 97.0242 72.658 97.0244C72.4524 97.295 72.2497 97.2474 72.2093 97.63C72.0858 97.5274 71.9634 97.4239 71.8397 97.321C71.8963 97.3264 71.9527 97.3336 72.0093 97.339C72.0509 97.2224 72.0934 97.1046 72.1352 96.988C71.8438 97.254 71.9466 97.045 71.8996 96.8377C71.671 97.1895 71.4421 97.5415 71.2137 97.8935C71.1411 97.6735 71.0686 97.4529 70.9969 97.2333C71.0618 97.1506 71.1268 97.0677 71.1916 96.985C71.0496 97.0422 70.9072 97.101 70.7652 97.1581C70.8295 97.0485 70.8937 96.9404 70.958 96.8308C70.8293 96.848 70.7006 96.8651 70.5711 96.8833C70.7437 96.6316 70.9773 96.6539 70.662 96.4943C70.942 96.3209 71.2211 96.1481 71.5016 95.975C71.885 96.3232 72.27 96.6731 72.6574 97.0239ZM60.2348 87.443C60.7123 87.785 60.4438 87.8421 59.8864 88.2705C60.0026 87.9947 60.1181 87.7185 60.2348 87.443ZM39.1425 66.5229C38.6888 66.73 38.2419 66.9372 37.793 67.1253C37.3614 67.0551 37.7408 66.2117 38.1639 66.1677C38.6731 66.1162 38.5737 66.6637 39.1425 66.5229ZM33.6571 60.9999C33.7773 61.4533 33.1011 61.5432 32.7973 61.694C33.1056 61.2555 32.9634 61.1687 32.8355 60.9386C33.0229 61.0933 33.6381 60.9244 33.6582 60.9989C33.6578 60.9992 33.6575 60.9995 33.6571 60.9999ZM43.4678 71.6687C43.5964 71.7768 43.8073 71.8012 43.8014 72.0203C43.4522 72.3074 43.5274 71.8054 43.2098 72.4296C43.1255 72.3619 43.0414 72.2938 42.9569 72.2277C43.1998 72.0797 43.281 71.8692 43.467 71.67C43.4673 71.6696 43.4675 71.6691 43.4678 71.6687ZM55.7067 84.1158C55.8173 83.4979 55.6181 83.6248 55.1226 83.6733C55.3794 83.321 56.162 83.0506 56.4543 83.0995C56.2048 83.4379 55.9554 83.7767 55.7067 84.1158ZM5.0497 25.267C5.55255 25.0258 5.94399 25.4887 5.96392 25.8152C5.87714 25.8326 5.78942 25.8505 5.70166 25.8686C5.48345 25.667 5.26418 25.4635 5.0497 25.267ZM32.781 60.8235C32.7979 60.866 32.8164 60.9041 32.8355 60.9386C32.8023 60.9111 32.7815 60.8744 32.781 60.8235ZM23.2341 46.0255C23.7266 45.8064 23.6061 45.3778 23.759 45.893C23.7594 45.8927 23.7598 45.8924 23.7602 45.892C23.8626 46.233 23.8807 46.3126 24.0431 46.5774C23.4533 46.9127 22.8723 46.5754 23.3091 47.3342C23.3152 47.3426 23.6131 47.0778 23.6536 47.214C23.6662 47.2564 23.4948 47.5638 23.5474 47.779C23.5646 47.8483 23.794 48.2892 23.3701 47.7791C23.0206 48.0887 22.6316 48.359 22.2814 48.6457C22.0169 48.5291 22.5964 47.7933 22.4 47.5862C22.1075 47.2811 21.2543 47.6941 22.1485 46.8721C22.6001 46.9586 22.9878 47.4262 22.4723 47.9475C22.679 48.2163 23.1984 47.9083 23.2613 47.5172C22.2279 46.8377 23.7448 46.7074 22.7306 46.2084C22.5916 46.3045 22.4238 46.3853 22.3042 46.4894C22.5718 45.8753 23.0579 46.104 23.2341 46.0255ZM23.7614 48.7191C23.3592 48.7904 22.9554 48.8639 22.553 48.9363C23.0031 48.5694 23.4756 48.3245 23.9273 48.3599C23.8714 48.4796 23.8162 48.6 23.7614 48.7191ZM13.3618 35.4114C13.0886 35.5721 12.8093 35.679 12.5328 35.8089C12.7134 35.6053 12.0678 34.2561 12.7139 34.7145C12.8049 34.7772 12.746 35.6559 13.3618 35.4114ZM57.7168 85.2837C57.7319 85.0132 57.7481 84.7432 57.7648 84.4738C58.0465 84.546 58.3312 84.6157 58.6155 84.6861C58.3159 84.8852 58.0166 85.0849 57.7168 85.2837ZM37.6164 64.1255C37.6573 64.1859 37.1777 64.311 37.4224 64.4696C37.0753 64.5072 36.7687 64.5251 36.4373 64.5547C36.5443 64.3688 36.6503 64.1832 36.7576 63.9976C36.6287 64.0532 36.4998 64.1076 36.371 64.1631C36.6085 63.9789 36.8387 63.7971 37.0809 63.6104C36.8513 64.3018 37.4351 63.8604 37.6164 64.1255ZM45.6706 70.6814C45.2575 71.1875 44.6256 71.1057 44.9062 71.5301C44.5383 71.767 44.2721 71.8188 44.0387 71.6406C44.1207 71.4918 44.202 71.3439 44.2842 71.1953C43.9712 71.5006 43.8035 71.5631 43.4678 71.6687C43.468 71.6682 43.4683 71.6677 43.4685 71.6673C43.1332 71.3781 43.2553 71.2937 43.6885 70.7106C43.7312 71.3263 44.2055 70.8717 44.7063 70.819C45.0505 70.7825 45.1681 71.0703 45.6706 70.6814ZM14.2622 36.6481C13.6231 36.7014 13.3812 37.241 13.511 36.4247C13.6462 36.3738 13.7805 36.3236 13.9157 36.2725C14.0317 36.3964 14.1471 36.5217 14.2622 36.6481ZM45.2781 73.4237C45.9589 72.6816 46.2809 71.8997 45.0944 73.0295C45.0803 73.4831 45.6251 72.7181 45.2781 73.4237ZM34.9142 60.0387C35.2707 60.496 34.362 61.1858 33.7813 61.3937C33.9085 61.2267 34.036 61.0595 34.1629 60.8941C34.025 60.8827 33.887 60.8714 33.7502 60.8591C34.138 60.5861 34.5267 60.3121 34.9142 60.0387ZM53.478 79.7104C52.6602 79.9326 53.5553 80.3268 53.0233 80.4458C52.6029 80.5456 52.8452 79.7822 53.2479 79.5368C53.3205 79.5869 53.3978 79.6465 53.4774 79.7098C53.4776 79.71 53.4778 79.7102 53.478 79.7104ZM51.4383 78.0886C50.9655 78.6981 51.0418 78.4628 51.3935 78.6033C51.4932 78.6433 51.8829 79.4027 52.0715 78.7076C51.8619 78.5117 51.649 78.297 51.4383 78.0886ZM29.5908 55.791C29.8387 55.5666 30.8012 55.5492 30.7166 55.7308C30.717 55.7304 30.7173 55.7301 30.7177 55.7298C30.485 56.2232 29.9958 55.7754 29.6688 56.4438C29.7048 55.5695 28.4821 56.3922 29.961 55.1562C30.2682 55.3785 29.8542 55.5087 29.5908 55.791ZM2.15714 18.1084C2.15697 18.1081 2.1568 18.1079 2.15663 18.1076C2.17252 18.157 1.95165 18.6969 1.79068 18.7637C1.69137 18.3684 1.98418 18.2226 1.33291 18.2241C1.45994 18.1078 1.58445 17.9967 1.71141 17.8782C1.8816 17.9414 2.09828 17.8912 2.15714 18.1084ZM12.9978 33.7367C13.1557 33.8085 13.019 34.2426 13.1371 34.3715C11.6811 34.726 12.3691 33.4487 12.9978 33.7367ZM68.2878 93.4711C68.2872 93.4712 68.2865 93.4713 68.2859 93.4714C68.2865 93.4709 68.2871 93.4705 68.2877 93.47C68.2877 93.4704 68.2878 93.4707 68.2878 93.4711ZM19.2593 43.5831C19.3189 43.5125 19.3742 43.4557 19.4262 43.4104C19.4313 43.4064 19.4365 43.4025 19.4416 43.3985C19.3811 43.4586 19.3204 43.5198 19.2593 43.5831ZM28.6705 54.8904C28.8554 54.3922 29.9726 54.5468 30.0221 54.8718C29.849 54.9973 29.7017 55.122 29.4877 55.2488C29.7557 54.7178 28.6391 54.9742 28.6705 54.8904ZM42.0326 69.0351C41.5618 68.5399 43.497 67.8791 42.4776 68.9376C42.4564 68.9566 42.0469 69.046 42.0326 69.0351ZM32.3436 58.7473C32.8741 58.5029 32.7501 58.1448 33.0526 58.6232C32.9672 58.7442 32.8816 58.8653 32.7963 58.9864C32.6453 58.9064 32.494 58.827 32.3436 58.7473ZM40.6988 64.2017C39.8808 63.799 38.9247 63.5885 38.1942 65.0509C38.2747 65.0636 38.3546 65.0782 38.4351 65.0909C38.9846 64.5801 38.853 65.0353 39.0789 65.3061C39.3287 65.1362 39.5135 65.2293 39.7215 65.0804C40.1233 64.7926 40.2166 64.3932 40.6988 64.2017ZM65.8052 89.4633C65.7114 89.5516 65.6175 89.6406 65.5245 89.7279C65.3278 89.7497 65.1314 89.7708 64.9348 89.7925C65.1114 89.6203 65.288 89.4481 65.4646 89.2758C65.578 89.3381 65.6913 89.3998 65.805 89.4622C65.8051 89.4625 65.8051 89.4629 65.8052 89.4633ZM25.5076 48.3504C24.3709 49.1871 24.7425 49.2304 25.6431 49.2002C25.5969 48.9162 25.5513 48.6324 25.5076 48.3504ZM49.8683 74.1647C49.6037 74.4657 49.3398 74.7657 49.0759 75.0673C49.576 74.969 49.8539 74.6002 50.12 74.1213C50.036 74.1354 49.9524 74.1505 49.8683 74.1647ZM52.9942 76.8954C52.9639 76.7525 52.7872 77.03 52.7825 77.0166C52.6777 76.6852 52.7483 76.5482 52.3115 76.4712C52.2202 76.5019 52.1265 76.5362 52.0335 76.5687C51.5825 77.2965 51.9866 77.0491 51.9145 77.6578C52.0636 77.4031 52.2135 77.1485 52.3638 76.8931C52.4694 77.0759 52.5754 77.2577 52.682 77.4409C52.7602 77.3927 52.838 77.3451 52.9163 77.2968C52.9416 77.1642 52.975 77.0199 52.9942 76.8954ZM66.755 90.7517C66.8816 90.9024 67.0083 91.0548 67.1355 91.2059C67.2746 91.0529 67.4144 90.8987 67.5534 90.7457C67.2874 90.7478 67.0207 90.7496 66.755 90.7517ZM22.4619 45.6198C22.3949 45.6534 22.3278 45.6875 22.2607 45.7238C22.333 45.6678 22.3994 45.6365 22.4619 45.6198ZM2.76996 17.0155C2.7518 16.7429 2.49647 16.5543 2.36696 16.3304C1.9756 16.6712 2.43867 17.0582 2.3168 17.4291C2.41312 17.4038 2.77686 17.1292 2.76996 17.0155ZM35.424 60.6596C35.6522 60.5256 35.8794 60.3923 36.107 60.2575C36.1785 60.3759 36.2494 60.4958 36.322 60.6152C36.4801 60.4743 36.6395 60.3321 36.7975 60.1912C36.187 59.9368 36.7298 59.6242 36.9721 58.9991C36.4563 59.5522 35.9401 60.105 35.424 60.6596ZM72.4165 93.7406C71.9969 93.58 71.7102 93.6898 71.4903 94.3321C71.6991 94.3156 71.9088 94.2995 72.1178 94.283C72.2171 94.1021 72.3165 93.921 72.4165 93.7406ZM18.0229 39.1108C17.6185 38.9672 18.2919 38.4443 17.6967 38.4429C17.6856 38.6908 17.6741 38.9408 17.6644 39.1899C17.7845 39.1649 17.9038 39.1374 18.0229 39.1108ZM30.9234 51.3949C31.0486 51.0859 29.8085 51.8061 30.3108 50.7931C30.0076 50.9165 29.74 51.0599 29.4509 51.1899C29.6689 50.9358 29.8858 50.6737 30.1039 50.4234C30.1037 50.4231 30.1035 50.4229 30.1033 50.4227C29.7647 50.1977 29.6132 50.6595 29.3402 50.8806C29.2265 50.9718 29.2235 50.593 29.041 50.8674C28.7279 51.3388 29.349 51.5841 28.8465 52.0166C28.8757 51.7176 28.4758 51.5279 28.2167 51.9057C27.9323 52.3205 28.7997 52.0829 28.6532 52.5309C29.2322 51.5782 29.4463 52.3305 28.8786 52.9183C29.62 52.8212 29.5665 52.369 29.273 52.0718C29.913 51.8598 29.4111 51.7924 29.7612 51.4042C30.179 51.4113 30.5627 52.2559 30.9234 51.3949ZM43.3122 66.5286C43.0804 66.35 43.021 65.7797 42.5071 66.0067C42.2073 66.1387 42.3525 66.6272 41.7904 66.741C42.0203 66.9092 42.2 66.8236 42.4681 66.4942C42.5492 66.5045 42.6299 66.5163 42.7101 66.5275C42.672 66.6063 42.6352 66.6849 42.5971 66.7637C42.7448 66.6663 42.8916 66.57 43.0387 66.4719C43.062 66.5445 43.0859 66.6177 43.1084 66.6913C43.1764 66.6359 43.2402 66.5924 43.3122 66.5286ZM11.9271 30.683C11.9762 30.7451 12.0249 30.8068 12.0753 30.8685C12.1549 30.8029 12.2371 30.7335 12.3184 30.6652C12.383 30.6119 12.4476 30.5585 12.5122 30.5052C12.2925 30.7119 12.1009 31.3064 12.4552 31.2579C12.6328 31.2335 12.9935 30.7584 13.2713 30.9845C13.1047 30.796 12.9102 30.6515 12.7347 30.4825C12.8856 30.4043 13.0375 30.3243 13.1884 30.246C13.1886 30.2457 13.1887 30.2455 13.1888 30.2452C13.175 30.1584 13.1623 30.07 13.1488 29.9835C12.7413 30.2168 12.3348 30.45 11.9271 30.683ZM50.2468 73.4304C49.8198 73.479 49.6345 73.5389 49.3566 74.014C49.3566 74.0144 49.3566 74.0148 49.3567 74.0151C49.5947 73.9153 49.8328 73.8155 50.0708 73.7154C50.1295 73.6207 50.1886 73.5257 50.2468 73.4304ZM22.3946 42.6912C20.4332 43.4839 22.2304 43.755 22.6188 43.1286C22.6365 43.0999 22.2516 42.8725 22.3946 42.6912ZM35.3032 59.5382C35.4222 59.6435 35.5406 59.7503 35.6608 59.8565C35.8197 59.6604 35.9776 59.4644 36.1367 59.2685C35.8593 59.3583 35.5806 59.4487 35.3032 59.5382ZM71.5505 91.8246C71.7778 91.2881 71.5767 90.8573 71.0261 91.1877C71.0654 91.3131 71.1048 91.4385 71.1443 91.564C70.9389 91.4833 70.731 91.4096 70.5273 91.3251C70.0198 91.9137 70.4951 91.7237 70.6391 92.1229C70.6602 92.1856 70.3219 93.1593 70.8842 92.6814C70.9992 92.5827 70.767 92.2571 71.2518 92.0953C71.1834 91.9939 71.1007 91.9349 71.0277 91.8493C71.1401 91.702 71.2528 91.5547 71.3646 91.407C71.4268 91.5461 71.4879 91.6853 71.5505 91.8246ZM42.0998 65.3745C41.8576 65.0637 41.6016 65.2455 41.1505 65.5686C41.3217 65.6561 41.4926 65.7443 41.6645 65.832C41.809 65.6795 41.9543 65.5278 42.0998 65.3745ZM68.9679 89.4249C68.8632 89.2186 68.6441 89.6183 68.5236 89.6276C68.0693 89.6613 68.1075 89.275 67.7347 89.2207C67.8067 89.1688 67.8738 89.1201 67.9435 89.0696C67.9433 89.0694 67.9431 89.0692 67.9429 89.069C67.0035 87.774 66.9746 89.0813 67.7797 89.5494C67.6883 89.6896 67.5961 89.8295 67.5055 89.9689C68.0031 90.0106 68.4706 90.0402 68.9679 89.4249ZM25.6505 46.6441C25.7202 46.5651 26.3246 46.2607 25.911 46.2432C25.0256 46.684 25.6226 46.6583 25.3924 46.9627C25.2733 46.9633 25.1551 46.961 25.0366 46.9622C25.1086 47.4812 25.3286 47.3872 25.7704 46.8143C25.7997 46.7753 25.5812 46.7231 25.6505 46.6441ZM24.1545 44.0358C23.0043 44.8734 23.8602 44.9202 24.1918 44.6282C24.1562 44.5557 23.9301 44.6583 23.9611 44.5267C23.9917 44.3945 24.2376 44.1705 24.1545 44.0358ZM34.4545 56.6951C34.4478 56.6782 34.7788 56.1532 34.4424 56.4783C33.7593 57.3739 34.5735 57.2124 34.8096 56.8989C34.7015 56.8077 34.5156 56.8496 34.4556 56.6941C34.4552 56.6944 34.4549 56.6948 34.4545 56.6951ZM73.7682 93.2249C73.7871 93.1892 73.62 92.7406 73.437 92.8786C73.2434 93.0442 73.0553 93.2377 72.8644 93.4171C73.1936 93.3765 73.4346 93.8123 73.7675 93.2244C73.7677 93.2246 73.7679 93.2247 73.7682 93.2249Z" fill="#FF8BDF"/>
</g>
<mask id="mask1_141_32583" style="mask-type:alpha" maskUnits="userSpaceOnUse" x="1" y="-7" width="49" height="48">
<path d="M49.1416 14.1865L19.6504 -6.33866L1.51661 19.7474L9.62399 31.2345L15.6949 34.5609L18.0031 33.9204L31.0078 40.2726L49.1416 14.1865Z" fill="#D9D9D9"/>
</mask>
<g mask="url(#mask1_141_32583)">
<path d="M52.9441 -44.7354C52.9914 -45.0127 52.658 -44.158 52.8106 -44.7541C52.7513 -44.6415 52.691 -44.5276 52.6306 -44.4137C52.6545 -44.3687 52.6783 -44.3229 52.7029 -44.2775C52.7843 -44.431 52.8647 -44.5833 52.9442 -44.7353C52.9442 -44.7353 52.9441 -44.7353 52.9441 -44.7354ZM53.4781 -44.7663C53.3239 -44.6631 53.1062 -44.216 53.2144 -44.7497C53.2654 -44.7745 53.3162 -44.8004 53.3663 -44.8255C53.4072 -45.0054 53.452 -45.1912 53.5014 -45.3841C53.5401 -45.4438 53.5785 -45.5032 53.6164 -45.5626C53.5942 -45.6671 53.5731 -45.77 53.5536 -45.8724C53.531 -45.7978 53.5082 -45.7217 53.4858 -45.6462C53.32 -45.3779 53.1963 -45.127 53.0287 -44.766C53.0284 -44.8045 53.0284 -44.8429 53.0284 -44.8811C52.9704 -44.684 52.9132 -44.4844 52.857 -44.2828C52.9535 -44.4384 53.059 -44.6111 53.1449 -44.7533C53.1394 -44.4725 52.9077 -44.0577 52.7884 -43.8362C52.627 -43.5343 52.7073 -43.5844 52.5876 -43.3574C52.5685 -43.321 52.5259 -43.3336 52.4937 -43.2591C52.3365 -42.9001 52.0664 -42.1961 52.3398 -42.562C52.5673 -43.1423 52.8662 -43.6645 53.077 -44.262C53.1144 -44.0635 53.2754 -44.3645 53.4781 -44.7663ZM48.3786 -33.9233C48.5627 -34.0629 48.6904 -34.4545 48.7382 -34.7331C48.7383 -34.7334 48.7384 -34.7336 48.7386 -34.7339C48.7488 -34.7955 48.68 -34.9753 48.6021 -34.7946C48.4743 -34.4998 48.6136 -34.2653 48.4027 -34.1726C48.3966 -34.0916 48.3862 -34.0081 48.3786 -33.9233ZM48.0803 -33.3132C48.0518 -33.1151 48.2514 -33.1209 48.3068 -33.3595C48.3069 -33.3594 48.307 -33.3593 48.3072 -33.3593C48.3303 -33.4585 48.1229 -33.3372 48.3995 -33.605C48.3307 -33.716 48.2712 -33.8213 48.2068 -33.9288C48.1681 -33.8508 48.1315 -33.78 48.091 -33.6977C48.2803 -33.6802 48.1096 -33.5107 48.0803 -33.3132ZM52.1625 -42.2809C52.0653 -42.2878 52.1155 -42.4065 52.1436 -42.6291C52.0652 -42.4406 51.9862 -42.2501 51.9069 -42.0589C51.9935 -42.1331 52.0783 -42.2065 52.1625 -42.2809ZM54.0207 -46.7762C54.0209 -46.7765 54.021 -46.7768 54.0211 -46.7771C54.0549 -46.8346 54.0885 -46.8921 54.1213 -46.9485C54.1173 -46.9906 54.1163 -47.0395 54.1143 -47.0852C54.228 -47.3082 54.3394 -47.5294 54.4477 -47.7461C54.3867 -47.7404 54.2254 -47.3343 54.0902 -47.1221C53.9661 -46.7864 53.9397 -46.6294 53.9804 -46.5855C53.9936 -46.6491 54.0068 -46.7124 54.0207 -46.7762ZM29.0203 4.8928C28.8584 4.87969 28.6966 4.86535 28.5338 4.85157C28.5357 4.72642 28.5502 4.61092 28.5442 4.47987C29.2127 4.59383 28.7669 4.26503 28.9934 3.98313C29.6837 3.1258 30.3119 3.87143 29.7095 2.2556C29.3228 2.98447 28.953 2.36409 28.2605 2.50154C28.5245 2.79965 29.5102 2.85858 29.4794 3.23916C28.8391 3.494 28.2322 3.7241 27.6636 4.09359C27.6172 4.04076 27.5706 3.98789 27.5243 3.93515C27.6147 3.87716 27.7046 3.8199 27.7945 3.76176C27.5853 3.7497 27.378 3.73595 27.1645 3.723C27.5838 3.83911 27.1976 3.99912 27.6185 4.2248C27.806 4.32523 28.1344 4.35942 28.3511 4.39478C28.3144 4.65237 28.2671 4.9112 28.2269 5.17184C28.4349 5.16239 28.6421 5.15255 28.8479 5.14265C28.9063 5.06022 28.9628 4.97768 29.0208 4.89539C29.0207 4.89453 29.0205 4.89365 29.0203 4.8928ZM-4.25048 43.1057C-3.39612 43.4753 -2.9399 43.1762 -3.46509 42.3137C-3.73558 42.5898 -3.98905 42.8424 -4.25048 43.1057ZM54.0132 -46.5476C54.0163 -46.5827 54.0193 -46.6167 54.0227 -46.6516C53.949 -46.5217 53.8737 -46.39 53.7973 -46.2583C53.8148 -46.2198 53.8324 -46.1806 53.85 -46.141C53.9047 -46.2774 53.9593 -46.4136 54.0132 -46.5476ZM50.2604 -37.6001C50.3076 -37.7002 50.3095 -37.7101 50.3552 -37.8397C50.3552 -37.8395 50.3551 -37.8394 50.3551 -37.8392C50.3735 -37.8911 50.5178 -38.3201 50.4538 -38.2925C50.3642 -38.0882 50.2692 -37.8679 50.1764 -37.6552C50.2039 -37.6357 50.2333 -37.6214 50.2604 -37.6001ZM51.2831 -40.0732C51.2832 -40.0736 51.2832 -40.0739 51.2832 -40.0742C51.3093 -40.1526 51.3275 -40.2293 51.3583 -40.308C51.1778 -40.0535 51.2698 -39.962 51.1292 -39.717C50.9879 -39.4716 50.8518 -39.3389 50.9198 -39.0468C50.9791 -39.1196 51.0508 -39.1943 51.1139 -39.2678C51.2039 -39.6667 51.3054 -39.7394 51.4843 -40.0084C51.4172 -40.03 51.3504 -40.0516 51.2831 -40.0732ZM30.5201 -0.0776978C30.8351 0.0366897 30.6094 -0.206795 30.6109 -0.215984C30.6105 -0.216071 30.6101 -0.216131 30.6097 -0.216208C31.2153 -0.606544 30.4123 -0.242503 30.7025 -0.789572C30.585 -0.755945 30.464 -0.726219 30.3454 -0.69424C30.4008 -0.491528 30.4721 -0.272752 30.5201 -0.0776978ZM41.375 -18.7564C41.3241 -18.7903 41.2737 -18.8253 41.2229 -18.8592C41.0611 -18.5251 40.8013 -18.5565 40.8493 -18.1783C41.0269 -18.3709 41.2023 -18.5635 41.3756 -18.7561C41.3754 -18.7562 41.3752 -18.7563 41.375 -18.7564ZM49.701 -35.7434C49.9155 -36.0966 50.058 -36.3807 50.1369 -36.7984C50.1369 -36.7987 50.1369 -36.7991 50.137 -36.7994C50.1413 -36.8235 50.0405 -36.7418 50.0384 -36.7765C50.0801 -36.8513 50.1271 -36.9264 50.1702 -37.001C50.1304 -37.0309 50.0904 -37.0602 50.051 -37.0899C49.9684 -36.8636 49.8853 -36.6352 49.8013 -36.4041C49.7887 -36.4491 49.7769 -36.4947 49.7646 -36.5394C49.6662 -36.3506 49.5748 -36.1811 49.4801 -36.0055C49.5852 -36.0347 49.6894 -36.0641 49.7926 -36.0929C49.7622 -35.977 49.7311 -35.8606 49.701 -35.7434ZM39.0473 -12.8572C39.0121 -12.9544 38.84 -12.9088 38.832 -13.0332C38.825 -13.157 39.0415 -13.255 38.8313 -13.322C38.7387 -13.2135 38.6385 -13.101 38.5423 -12.9908C38.4242 -13.5874 38.9528 -13.8112 38.5397 -14.0514C38.4329 -13.6098 38.2063 -13.3215 37.8754 -13.0164C38.2242 -12.8386 38.7216 -13.0501 38.9085 -12.6333C38.9542 -12.7074 39.0038 -12.7841 39.0461 -12.8568C39.0465 -12.8569 39.0469 -12.8571 39.0473 -12.8572ZM56.6135 -52.1589C56.6981 -52.4111 56.8872 -52.9512 57.009 -53.2827C57.0362 -53.3621 57.1268 -53.6167 57.1263 -53.6147C57.1212 -53.6091 56.9939 -53.3073 57.1273 -53.6313C57.0817 -53.5237 57.0371 -53.4173 56.9914 -53.3065C56.9963 -53.3281 57.0014 -53.3493 57.0065 -53.3696C57.0643 -53.5026 57.1216 -53.6328 57.1784 -53.76C57.1808 -53.7664 57.1832 -53.7728 57.1856 -53.7792C56.9795 -53.3175 57.0992 -53.5918 56.9862 -53.3491C57.0861 -53.578 57.1877 -53.7985 57.2894 -54.0065C57.2307 -53.8866 57.1613 -53.7409 57.1093 -53.6292C57.0991 -53.617 57.2256 -53.8779 57.2468 -53.9205C57.3718 -54.1879 56.7372 -52.8571 56.68 -52.7539C56.7683 -52.949 56.887 -53.2045 56.99 -53.4157C56.9587 -53.3541 56.9266 -53.2911 56.8946 -53.2283C56.6485 -52.7036 56.4285 -52.2006 56.178 -51.5745C56.1559 -51.5245 56.1337 -51.474 56.1117 -51.4242C56.1086 -51.4433 56.1053 -51.4616 56.1025 -51.4805C56.0682 -51.4047 56.0333 -51.3271 55.9985 -51.2499C56.1293 -51.4627 55.9928 -51.1532 55.8556 -50.7422C55.9546 -50.9501 56.0496 -51.2081 56.0646 -51.1805C55.7542 -50.4624 55.4691 -49.6109 55.165 -48.8982C55.0897 -48.724 55.0298 -48.7293 54.8818 -48.3334C54.8933 -48.3444 54.9055 -48.342 54.9171 -48.3474C54.6287 -47.6725 54.4153 -47.1908 54.1819 -46.4648C54.1706 -46.5181 54.1593 -46.5705 54.1488 -46.6231C54.2225 -46.772 54.2925 -46.9123 54.3694 -47.0746C54.3708 -47.2014 54.2897 -47.0494 54.4791 -47.5263C54.633 -47.9134 54.5583 -47.6758 54.6108 -47.7762C54.6812 -47.9116 54.7008 -48.0467 54.7759 -48.1892C54.8331 -48.299 54.8134 -48.164 54.9221 -48.4649C54.8401 -48.3604 54.7533 -48.2536 54.6651 -48.148C54.6436 -48.0712 54.6227 -47.9943 54.6017 -47.9164C54.6424 -47.9871 54.6821 -48.0563 54.7219 -48.1264C54.5992 -47.8721 54.4798 -47.6279 54.3447 -47.3561C54.4432 -47.4221 54.3045 -47.141 54.2325 -46.9831C54.1252 -46.7506 54.2517 -46.9346 54.1833 -46.7844C54.1154 -46.6346 53.9956 -46.4917 53.8933 -46.2048C53.986 -46.3429 53.9329 -46.125 53.9787 -46.1525C54.0247 -46.1805 54.145 -46.4775 54.0676 -46.1762C53.8295 -45.6282 53.9478 -46.2816 53.7799 -45.9125C53.5718 -45.4684 53.7332 -45.2698 53.829 -45.3918C53.904 -45.488 54.0342 -45.8632 54.1051 -45.9572C53.9244 -45.2693 53.7999 -45.3053 53.732 -45.2011C53.4834 -44.8162 53.8326 -45.0031 53.5691 -44.5615C53.6195 -44.5511 53.6645 -44.5411 53.7127 -44.5315C53.6752 -44.4526 53.6444 -44.4024 53.6019 -44.3049C53.6138 -44.638 53.5321 -44.3954 53.4862 -44.2714C53.4143 -44.0757 53.4788 -44.397 53.4481 -44.3499C53.3648 -44.224 53.2956 -43.996 53.3044 -44.1494C53.3011 -44.0804 53.2962 -44.0059 53.2927 -43.9346C53.1854 -43.7135 52.7503 -43.2558 52.999 -43.7574C52.9 -43.7421 52.8711 -43.559 52.8315 -43.4216C52.7917 -43.2843 52.7394 -43.3086 52.7025 -43.1878C52.5628 -42.7234 52.7756 -42.9773 52.8731 -43.0159C52.599 -42.4545 52.7884 -43.0429 52.4202 -42.2106C52.3228 -42.1553 52.4145 -42.5745 52.2446 -42.2641C52.3305 -42.1577 52.3158 -41.8851 52.167 -41.3856C52.1214 -41.35 52.0754 -41.3146 52.0292 -41.2791C52.0361 -40.9735 52.2016 -41.0362 51.8792 -40.6336C52.2388 -40.774 52.0034 -40.675 51.9522 -40.2051C51.9422 -40.1093 52.0725 -40.2857 52.0562 -40.1529C52.0491 -40.0926 51.9571 -39.9773 51.9405 -39.8281C51.9321 -39.7558 51.9285 -39.3993 51.7972 -39.2033C51.7179 -39.4208 51.4415 -39.0612 51.4627 -39.4607C51.2361 -38.8017 50.9877 -38.3643 51.469 -39.0192C51.4484 -38.8346 51.4283 -38.6482 51.409 -38.4602C51.3318 -38.3624 51.2548 -38.2667 51.1762 -38.1694C51.2925 -38.0995 51.3349 -38.1036 51.1465 -37.6687C51.2488 -37.849 51.3496 -38.0275 51.4489 -38.2069C51.4759 -38.2028 51.5112 -38.2186 51.5327 -38.202C51.4021 -37.9882 51.1342 -37.3264 51.0375 -37.1758C50.9414 -37.0266 51.0506 -37.3475 50.9996 -37.3145C50.573 -37.0417 50.788 -36.9847 50.6305 -36.7212C50.5363 -36.567 50.6605 -36.9785 50.6135 -36.8946C50.438 -36.5847 50.5304 -36.3635 50.4173 -36.0643C50.3694 -36.2091 50.3211 -36.3526 50.2739 -36.493C50.1507 -36.1755 50.0205 -35.8523 49.8775 -35.5893C49.8214 -35.4863 49.7863 -35.5981 49.7745 -35.5825C49.7149 -35.5057 49.5263 -35.1651 49.5096 -35.127C49.3876 -34.841 49.4831 -34.7889 49.3709 -34.5047C49.4258 -34.6116 49.4767 -34.7121 49.5296 -34.8161C49.7102 -34.794 49.89 -34.7735 50.0684 -34.7525C49.9729 -34.4699 49.8761 -34.1846 49.7782 -33.8959C49.8032 -34.1277 49.8295 -34.3579 49.8562 -34.5853C49.6006 -34.3246 49.3366 -34.0643 49.0644 -33.8043C49.0761 -33.5968 49.0947 -33.4005 49.1144 -33.2017C48.9133 -32.7747 48.5926 -33.0235 48.8171 -32.6745C48.7366 -32.5568 48.6553 -32.4389 48.5735 -32.3206C48.6268 -32.3186 48.68 -32.3164 48.733 -32.3145C48.6397 -32.1697 48.5455 -32.0244 48.4497 -31.879C48.3564 -32.1206 48.2565 -32.3599 48.1733 -32.5921C48.0011 -32.3026 48.1356 -32.2332 48.15 -32.1716C48.1879 -32.0077 47.9561 -31.8211 47.9986 -31.6837C48.0141 -31.637 48.2393 -31.9 48.2997 -31.7462C48.3098 -31.7174 48.5323 -31.1232 48.331 -30.8972C48.2602 -30.9359 48.1796 -30.9977 48.1051 -31.045C47.9039 -30.7025 48.224 -30.3644 48.3504 -30.3555C48.2 -30.2076 48.0824 -29.9413 47.9453 -29.96C47.903 -29.8673 47.8609 -29.7751 47.8182 -29.682C48.1569 -29.6416 47.9412 -29.2695 47.6694 -29.3658C47.732 -29.5319 47.7939 -29.6977 47.8558 -29.8624C47.4907 -29.8853 47.5141 -30.4686 47.3606 -29.3075C47.4423 -29.0323 47.4893 -29.6676 47.5443 -29.4489C47.4976 -29.1364 47.3227 -28.9024 47.3262 -28.5775C47.3314 -28.1712 47.6548 -28.5174 47.128 -27.821C47.393 -29.7808 46.6985 -27.7248 46.196 -27.0476C46.5941 -26.5934 46.4793 -25.8423 45.9082 -24.9758C45.8042 -25.147 46.0111 -25.4047 46.0378 -25.5973C46.0651 -25.7894 45.8979 -25.6493 45.9247 -25.8916C45.9517 -26.1342 46.0609 -26.6186 46.0574 -26.8737C45.9 -26.7366 45.3005 -25.9559 45.7987 -26.4221C45.7398 -25.9213 45.7956 -25.6437 45.5749 -25.0826C45.2689 -25.0319 45.1303 -25.1157 44.8828 -24.6122C45.3499 -24.7516 45.3099 -24.0564 45.7093 -24.0146C45.7913 -24.4216 45.3726 -24.3798 45.3118 -24.6676C45.3062 -24.6965 45.5417 -24.9932 45.5749 -25.0826C45.7016 -24.5822 45.7685 -24.4183 46.2046 -24.4561C46.0706 -24.2268 46.0493 -24.0518 45.8718 -24.1131C45.9226 -24.0258 45.9736 -23.9379 46.0253 -23.8508C45.9894 -23.7714 45.9519 -23.7024 45.9169 -23.6164C45.7109 -23.8618 45.7714 -23.5556 45.5839 -23.4522C45.3951 -23.3493 45.2877 -23.669 45.085 -23.2272C45.0906 -23.406 45.0995 -23.5669 45.1069 -23.7373C44.9111 -23.4872 44.7113 -23.2358 44.509 -22.9848C44.4405 -23.2685 44.409 -23.8167 44.1949 -23.9093C44.2115 -23.7409 43.853 -23.3681 43.8222 -23.3225C43.7066 -23.1453 43.8926 -23.1794 43.8888 -23.1636C43.8085 -22.8332 43.6397 -22.6106 43.7924 -22.3899C43.5881 -22.2127 43.5558 -22.0103 43.4389 -21.7867C43.3735 -21.6617 43.2289 -21.7669 43.2217 -21.6777C43.1732 -21.0818 43.621 -21.4457 42.7461 -20.691C42.6923 -20.866 42.636 -21.0397 42.583 -21.2131C42.4856 -21.1275 42.3876 -21.0429 42.289 -20.9575C42.2719 -20.8749 42.2552 -20.7927 42.2381 -20.7098C42.4843 -20.5833 42.7311 -20.4568 42.9771 -20.3303C42.9509 -20.2429 42.9241 -20.1552 42.8978 -20.0675C42.9903 -20.1932 43.0824 -20.3191 43.1737 -20.4446C43.2228 -20.4348 43.2715 -20.4242 43.3205 -20.4145C43.2878 -20.1744 43.2566 -19.9332 43.2254 -19.6896C43.1371 -19.7308 43.0483 -19.7725 42.96 -19.8138C42.8522 -19.2841 42.9243 -19.231 42.4606 -18.9126C42.2907 -18.5593 41.7851 -18.4992 41.5256 -18.3932C41.5409 -18.2981 41.557 -18.2022 41.5724 -18.1056C41.4741 -18.1023 41.3757 -18.0985 41.2768 -18.0955C41.337 -17.9522 41.3972 -17.8069 41.4581 -17.6625C41.1916 -17.7434 41.1023 -17.7602 41.1963 -18.1434C40.8377 -18.1881 40.6486 -17.5243 40.6209 -17.2229C40.5999 -16.995 40.965 -17.0626 40.9834 -17.0227C41.0485 -16.8876 40.7964 -16.6281 40.7797 -16.5535C40.7096 -16.2382 40.5955 -16.0514 40.5223 -15.7687C40.5082 -15.7136 40.604 -15.4848 40.6033 -15.4702C40.5843 -15.3627 40.552 -15.0967 40.5427 -15.0726C40.0126 -13.7366 39.9829 -15.4983 39.4322 -14.2824C39.3521 -14.3729 39.2714 -14.46 39.1914 -14.5493C39.1369 -14.4646 39.0819 -14.3786 39.0271 -14.2936C39.0483 -14.1349 39.2748 -14.186 39.0298 -14.031C39.161 -13.9765 39.2921 -13.9222 39.4228 -13.869C39.3039 -13.8083 39.1868 -13.7511 39.0654 -13.6886C39.4096 -13.2909 39.2005 -12.6522 39.7358 -12.4024C39.9186 -12.3174 40.3073 -12.6362 40.3816 -12.3098C40.3284 -12.1083 40.1814 -12.3481 40.1336 -12.2807C39.7889 -11.7924 40.0985 -11.6548 39.91 -11.4805C39.7657 -11.5183 39.6176 -11.556 39.471 -11.5942C39.466 -11.4907 39.461 -11.3867 39.4557 -11.2818C39.3602 -11.3123 39.2642 -11.3426 39.1686 -11.3735C39.2005 -11.4491 39.242 -11.5431 39.2727 -11.6165C38.8854 -11.6945 38.2738 -10.927 38.7368 -11.0902C38.9252 -11.1584 39.005 -11.4348 39.3188 -11.0513C39.1413 -10.8495 38.9442 -10.6167 38.7564 -10.4024C38.8389 -10.3447 38.9219 -10.2873 39.0046 -10.2295C38.7747 -9.9263 38.5854 -10.4326 38.4001 -10.5385C38.3542 -10.4656 38.3085 -10.3914 38.2624 -10.3183C38.3295 -10.2372 38.4016 -10.1552 38.4656 -10.0737C38.3294 -10.1484 37.9934 -10.2877 37.9868 -9.9929C37.9841 -9.8021 38.4496 -9.83474 38.2531 -9.58142C38.0518 -9.72617 37.8495 -9.97676 37.6108 -9.70627C37.8162 -9.54574 37.9969 -9.38375 38.2182 -9.2228C37.7955 -8.95744 38.0484 -8.57461 37.5474 -8.26038C37.2299 -8.05792 36.4289 -8.00901 37.2258 -7.29712C37.1375 -7.07506 36.9494 -7.27424 36.8656 -7.24287C36.468 -7.09638 36.7775 -6.62371 36.774 -6.55345C36.7484 -6.10804 36.5127 -6.04205 36.5639 -5.63209C36.4014 -5.75082 36.2443 -5.85687 36.0846 -5.96971C36.4843 -6.07496 36.5431 -6.21543 36.6874 -6.6108C36.5871 -6.50938 36.4856 -6.40842 36.3844 -6.30704C36.2578 -6.40971 36.1313 -6.51207 36.0053 -6.61325C37.1625 -7.40682 36.1807 -7.64697 35.4586 -6.83524C35.667 -6.60206 35.8742 -6.36516 36.086 -6.12994C35.3927 -5.82092 35.584 -5.36184 35.3172 -4.68707C35.2851 -4.60707 34.98 -4.43007 34.9058 -4.31864C34.9059 -4.32119 34.9059 -4.32375 34.906 -4.32631C34.6142 -4.40794 34.555 -4.57644 34.3382 -4.72511C34.2736 -4.68002 34.2089 -4.63485 34.1439 -4.58984C34.2349 -4.34912 34.4048 -4.31074 34.209 -4.07141C34.0583 -4.21286 33.9077 -4.35353 33.7577 -4.49431C33.579 -4.21149 33.6536 -3.90666 33.4106 -3.68786C33.5035 -3.69232 33.596 -3.69625 33.6885 -3.70096C33.5062 -3.00886 34.8088 -2.84111 34.0373 -2.70889C34.1104 -2.62425 34.185 -2.53969 34.2585 -2.45478C34.3873 -2.6278 34.5148 -2.8011 34.6418 -2.97291C34.7699 -2.89856 34.8975 -2.82487 35.0252 -2.7498C34.8761 -2.57288 34.7242 -2.39562 34.573 -2.21849C34.741 -2.31189 34.9085 -2.40646 35.0744 -2.5006C35.006 -2.22985 34.9375 -1.95766 34.8689 -1.68412C34.5376 -2.22668 34.3 -1.94033 33.8678 -2.29237C34.0167 -1.64118 34.3554 -0.985264 33.6523 -0.547566C33.5123 -0.460894 33.2171 -0.744269 33.415 -0.119807C32.9329 -0.546926 32.413 -0.252586 31.9358 -0.637162C32.0367 -0.746506 32.1309 -0.866205 32.2342 -0.96815C32.3265 -0.718663 32.7999 -0.385496 33.0673 -0.506554C33.4078 -0.662063 33.3029 -1.26554 33.8249 -0.913946C33.8616 -1.03775 33.9041 -1.14729 33.9427 -1.26508C33.7871 -1.30453 33.6308 -1.34567 33.475 -1.38641C33.8528 -1.55274 33.8909 -1.7819 33.6458 -2.12813C33.3664 -1.82565 33.085 -1.52325 32.7999 -1.21994C32.808 -1.28608 32.8163 -1.3529 32.8253 -1.41836C32.3256 -1.36851 32.1691 -1.84519 31.7928 -1.40086C31.9515 -1.30437 32.1099 -1.20721 32.2694 -1.11026C31.7411 -1.19563 31.4377 -0.706764 31.048 -1.17197C31.1077 -0.935501 31.1848 -0.845339 30.8703 -0.933609C31.0032 -0.323806 31.3286 0.227624 31.977 0.454604C31.8004 0.538601 31.6226 0.622189 31.4445 0.7046C31.3389 0.522009 31.2347 0.3405 31.1303 0.159344C30.9874 0.41066 30.8425 0.664463 30.6977 0.916169C31.1482 1.24053 31.133 0.531682 31.4576 0.942753C31.523 1.02531 31.2636 1.0441 31.2889 1.10944C31.571 1.80921 31.5579 0.988572 31.8794 1.34878C31.6662 1.98322 32.5896 1.96128 31.5792 2.37686C31.7027 2.48559 31.8281 2.59776 31.9519 2.70469C31.8016 2.98103 31.5067 2.75832 31.3099 2.95218C31.186 3.07307 31.623 3.61438 31.155 3.53215C31.0682 3.51522 30.5662 2.80779 30.2475 3.3923C30.0002 3.84579 30.5862 3.98286 30.6165 4.32568C30.6495 4.67105 29.6561 4.75474 30.3232 5.42009C30.2956 5.2302 30.3349 5.03849 30.334 4.8487C30.5148 4.89187 30.6927 4.93508 30.8714 4.97772C30.4968 5.16132 30.531 5.63405 30.0493 5.60631C30.3454 6.38672 29.5558 6.51588 29.0095 5.97021C29.1837 5.8944 29.3626 6.22433 29.307 5.9192C29.1745 5.80283 29.0435 5.68602 28.9112 5.56993C28.7278 5.90136 28.5834 6.12247 29.1181 6.27373C29.0977 6.33095 29.0775 6.38773 29.057 6.44504C28.7303 6.23757 28.403 6.02816 28.076 5.82044C28.0019 5.85506 27.9277 5.89006 27.8533 5.92455C27.8816 6.0379 27.9108 6.15223 27.9399 6.26748C28.5089 6.52405 28.6207 6.37843 28.5879 7.08463C28.4096 6.96591 28.2316 6.84837 28.0533 6.72964C28.0072 7.30874 28.4341 7.61516 28.0784 8.14766C28.9612 8.15436 28.0015 7.17809 29.2429 8.02418C29.2251 7.86332 29.2069 7.7014 29.1895 7.54157C29.3785 7.64714 29.5674 7.75288 29.7557 7.85896C29.3291 8.3704 27.5501 8.47863 28.1269 9.38503C28.0016 9.36199 27.8889 9.34778 27.7554 9.32007C28.0195 10.0154 26.8252 9.41172 27.2284 10.2149C27.2716 10.2994 28.3569 10.9372 28.0272 11.397C27.8989 11.2905 27.6746 11.1255 27.5097 10.9968C27.5285 11.1588 27.5517 11.3235 27.5732 11.487C27.436 11.4182 27.2981 11.3502 27.1596 11.2804C27.2215 11.0686 27.2822 10.8574 27.3439 10.647C27.2095 10.764 27.0738 10.8819 26.9383 10.9988C26.8535 10.6639 26.9065 10.5773 26.5051 10.4632C26.3798 10.6144 26.2526 10.7651 26.1262 10.9166C26.0305 10.8743 25.9338 10.8312 25.838 10.7889C25.6372 10.5323 25.4433 10.2797 25.2402 10.0225C25.1637 10.5904 24.9264 10.9681 25.2114 11.6531C25.2592 11.7695 25.7241 11.8047 25.1706 11.978C25.3439 12.1091 25.481 12.2211 25.6404 12.3435C24.833 12.473 24.8856 12.7131 24.9364 13.4546C24.7994 12.9025 24.8398 13.3367 24.6059 13.2859C24.4449 13.2504 24.6022 13.0531 24.4554 12.9836C24.3102 12.9153 23.6002 12.8105 23.6937 12.5343C25.15 12.7321 23.9731 11.6668 24.9889 11.275C24.7757 11.295 24.5608 11.3149 24.3459 11.3337C24.2898 11.2139 24.2386 11.106 24.1801 10.9782C24.104 11.5411 24.1074 11.2438 23.8261 11.2987C23.5419 11.3582 23.1957 11.5544 23.0097 11.7225C22.9512 11.7755 23.2389 11.8803 23.1622 12.0393C23.1107 12.1482 22.5647 12.1571 22.9464 12.5221C23.1963 12.7617 24.2491 12.8682 23.8433 13.4704C24.0392 13.7789 24.1481 13.4281 24.1848 13.4453C24.5418 13.6221 24.5404 14.1716 24.1783 14.1677C24.1475 14.1662 23.9854 13.8485 23.7873 13.9254C23.3147 14.1061 23.4677 14.5174 23.7126 15.0343C23.2314 14.7243 22.4726 14.6162 22.3921 15.1102C22.2447 15.0315 22.0966 14.951 21.948 14.8714C22.0589 14.8661 22.1685 14.86 22.279 14.8544C22.2377 14.731 22.222 14.6209 22.165 14.4887C21.7945 14.774 21.1089 14.355 20.7453 14.3564C19.4978 14.3592 21.4863 15.2565 21.8575 15.3608C21.7923 15.1942 21.7115 15.0206 21.6403 14.8513C21.7983 14.9792 21.9575 15.1081 22.1171 15.2361C21.4824 16.1461 23.0898 16.1525 23.0816 16.8471C22.1898 16.3734 21.8644 16.6664 22.103 17.4695C22.0671 17.5137 22.034 17.5603 21.9969 17.6038C21.8714 17.5232 21.6877 17.3878 21.5997 17.3423C21.1075 17.7486 22.3239 18.7876 22.4132 18.9273C22.8073 19.5465 21.9478 19.1659 21.8975 19.2251C21.6889 19.4785 21.97 19.8069 21.6524 19.9614C21.3091 20.1265 21.18 19.7421 20.892 19.6552C20.6626 19.5866 20.4792 19.7818 20.2258 19.7296C20.4066 19.8104 20.587 19.8846 20.7679 19.9655C20.7826 20.414 20.8298 20.8089 20.6573 21.1812C19.2482 20.6855 20.9797 22.478 19.484 21.1512C19.5931 20.7565 19.534 20.4467 19.25 19.98C19.0555 20.144 18.8613 20.3091 18.6649 20.4729C18.7966 20.6635 18.9364 20.8339 19.0642 21.0388C18.5852 20.9131 18.4966 21.3806 18.2934 21.4295C17.3319 21.6665 16.8243 20.9758 17.4902 22.3746C17.8942 22.042 18.416 22.441 18.6346 21.9738C18.9436 22.3455 18.7202 22.4983 19.2614 22.7018C18.873 23.0212 18.563 22.5856 18.0975 22.4695C17.6958 22.3691 17.4846 22.6244 17.0952 22.3024C17.2953 22.4984 17.4931 22.6831 17.6934 22.8793C17.5062 23.1365 17.32 23.3959 17.1309 23.6541C17.4426 23.7223 17.7537 23.7898 18.0622 23.855C18.0902 24.0067 18.118 24.1585 18.1463 24.3109C16.9689 24.3948 17.5103 26.5588 15.7943 24.9437C15.5085 25.2076 15.7112 25.4271 15.939 25.8716C15.7846 25.7802 15.6542 25.7067 15.4837 25.6026C15.4838 25.9203 14.8417 25.6555 14.8539 25.9329C14.8646 26.2109 15.3376 26.6506 14.4719 26.0088C14.6326 26.3102 14.7532 26.5797 14.8986 26.8692C14.6563 26.7837 14.4158 26.6994 14.1742 26.6131C14.1981 26.7969 14.2215 26.9812 14.2458 27.1662C13.7962 26.8987 13.6655 27.4476 13.2529 27.4088C13.5662 27.9321 14.9693 29.041 14.4191 29.2543C14.0785 28.9657 13.739 28.6782 13.3987 28.3898C13.4016 28.541 13.4043 28.6925 13.4069 28.8451C13.5167 28.9418 13.6271 29.0379 13.7369 29.1346C13.7371 29.0584 13.7371 28.983 13.7362 28.9059C13.898 29.1014 14.0598 29.2957 14.2226 29.4912C13.8317 29.4072 13.4389 29.3218 13.0442 29.2354C12.9719 28.8673 12.9004 28.5012 12.8298 28.1372C12.3908 28.1724 12.5193 28.5447 12.072 28.5236C12.4172 29.0942 12.7492 29.2527 13.3309 29.5995C13.235 29.6321 13.1399 29.6667 13.0437 29.6992C13.6044 30.0773 13.8334 30.4467 14.0858 30.0072C14.2154 30.1551 14.3377 30.2983 14.474 30.4506C14.4022 30.4985 14.498 30.6438 14.3873 30.6708C14.0852 30.7444 13.0444 30.1494 12.7285 29.8734C12.5635 29.729 13.0347 29.7972 12.7881 29.6114C12.1874 29.1598 12.1133 29.8097 12.0098 28.7028C11.4752 28.6127 11.72 28.8849 11.6498 29.2042C11.4676 29.028 11.2863 28.8535 11.1037 28.6783C11.1106 28.8576 11.1171 29.0374 11.1242 29.2178C12.2478 29.8796 12.0265 30.9978 13.452 30.9811C13.3386 31.2345 13.2257 31.4882 13.1146 31.7444C13.2518 31.7842 13.3878 31.823 13.5247 31.8625C13.541 31.7193 13.5578 31.5778 13.5754 31.4362C13.6814 31.7051 13.7867 31.9744 13.8938 32.2453C13.4613 32.3273 13.025 32.1299 12.4844 31.885C12.3822 31.3124 12.7552 31.7797 13.0222 31.6089C12.7316 31.3873 12.4786 31.1642 12.1639 30.9437C12.6597 31.5456 11.9348 31.5957 11.8351 31.6642C11.5352 31.874 12.2842 32.1275 12.1555 32.3271C12.027 32.5276 11.51 32.4655 11.9764 33.0975C11.652 32.8277 11.3236 32.5391 11.0348 32.2851C10.704 32.4908 11.1349 32.7488 11.1619 32.8204C11.6185 33.9852 10.7237 33.6828 10.2096 34.1718C10.1611 34.0155 10.1234 33.8672 10.082 33.716C9.05454 33.5566 9.48793 33.4492 9.53867 32.8961C9.34477 33.2943 8.59261 32.9939 8.22322 33.0834C7.85434 33.1731 7.83577 33.8389 7.95919 34.1924C8.62315 34.172 8.65875 33.586 9.06533 33.2931C9.3693 33.6158 9.62262 33.8949 9.95976 34.2479C9.06862 33.895 9.43798 34.4237 9.47343 34.5805C9.57615 35.0395 8.96748 34.5221 9.5221 35.2096C9.29899 35.0149 9.11097 34.8518 8.90294 34.6697C8.63416 35.2136 8.6366 36.0793 7.56023 35.6539C8.09194 36.1444 8.60896 36.6118 9.14975 37.1171C8.58383 36.9634 8.88279 37.4899 8.65909 37.5737C8.43518 37.656 8.03332 37.2146 7.71019 37.2605C7.65048 37.269 7.8754 37.5816 7.5987 37.4935C7.32184 37.4072 5.49947 36.4066 6.83565 37.6024C6.71217 37.7723 6.63905 37.9707 6.53454 38.1522C6.7365 38.0604 6.93541 37.9661 7.13548 37.8744C7.36174 38.2894 7.58871 38.7047 7.81707 39.1236C7.50703 38.8892 7.19143 38.65 6.8855 38.4178C6.23848 38.4731 6.51734 39.1511 6.11186 39.4216C6.04365 39.4663 5.56623 38.8155 5.50057 39.216C5.43379 39.6156 6.38736 40.7745 5.58781 40.8753C5.54717 40.8804 4.57987 40.2803 5.04009 40.9596C5.14457 41.1141 5.47105 41.1244 5.57853 41.3649C5.68542 41.6064 5.52434 42.125 5.92673 42.5184C5.78007 42.3848 5.64342 42.2266 5.50003 42.0833C5.37749 42.0867 5.25418 42.0906 5.13206 42.0956C5.39154 42.3304 5.65109 42.5662 5.90933 42.8C5.00273 42.6476 3.83891 41.9614 3.72895 42.8063C3.46604 42.3123 3.20297 41.8195 2.9422 41.3313C3.24804 41.5251 3.55542 41.7199 3.86003 41.9135C3.95624 41.5658 4.05371 41.2196 4.14977 40.875C4.48958 41.098 4.82668 41.3215 5.16659 41.5425C5.18215 41.4381 5.19842 41.3357 5.21401 41.2316C4.97954 41.0588 4.746 40.8869 4.51075 40.7144C4.67517 40.624 4.84043 40.5342 5.0034 40.4441C3.48025 39.6024 4.49341 41.3129 3.43239 40.331C3.55363 40.5366 3.67622 40.7437 3.79926 40.9512C3.24709 40.5177 3.30117 40.7695 3.21114 41.0547C2.98843 40.7783 2.77381 40.5006 2.54581 40.227C2.74553 40.7517 2.40746 41.0854 2.37348 41.4235C2.35874 41.5722 2.82514 41.8171 2.84774 41.8848C2.96915 42.2374 2.06268 41.9194 2.06835 42.0232C2.10267 42.6442 3.21954 44.0119 2.05149 43.6397C2.16092 43.0623 2.07541 43.3536 1.71422 42.7977C1.60071 42.6231 1.70786 41.8523 1.32282 42.5982C1.27754 42.6822 1.23004 44.6257 2.23658 44.8605C1.86276 44.8536 1.48606 44.774 1.10851 44.7365C2.60193 46.7852 0.992764 45.1084 0.143181 44.1454C0.0817333 44.2097 0.0174717 44.2658 -0.0416916 44.3359C1.08328 45.0709 0.512112 45.8984 -0.214731 45.7043C-0.455241 45.6377 -0.577826 45.114 -0.895954 45.1729C-0.903428 45.3277 -0.900471 45.5139 -0.903887 45.6822C-1.42331 44.9703 -1.90645 45.0257 -2.55547 44.4387C-2.12834 45.1306 -1.0089 46.3728 -0.25786 46.8726C-0.652113 46.779 -1.04803 46.685 -1.44638 46.5872C-1.54376 46.3793 -1.63881 46.1722 -1.73574 45.9651C-1.73203 46.8151 -3.20864 46.5819 -1.90637 47.9363C-1.97082 47.9918 -2.03459 48.0491 -2.09919 48.1046C-2.35111 47.9121 -2.60303 47.7185 -2.8552 47.5257C-2.90065 47.9989 -2.94374 48.4754 -2.98835 48.9543C-2.61869 48.8279 -2.23046 49.0696 -2.27143 48.5495C-2.08961 48.9001 -1.90737 49.2552 -1.7227 49.6062C-2.80223 49.358 -3.33507 48.9703 -3.64844 49.7907C-3.66285 49.827 -3.44514 50.8658 -3.39793 50.9385C-3.18384 51.2666 -2.68601 51.5218 -2.57404 51.6832C-2.25995 52.133 -1.73902 53.6119 -1.57988 53.7398C0.374607 55.2876 1.91741 53.324 2.41101 52.8792C7.52232 48.2023 10.2648 41.6105 14.397 36.1257C14.44 36.07 14.6513 36.2832 14.6781 36.2663C14.8407 36.1587 14.5884 35.7159 14.6129 35.6473C14.6659 35.5013 14.9481 35.8366 15.0089 35.7479C15.6288 34.8259 16.0191 33.8134 16.7125 32.9095C16.7571 32.8512 16.46 32.7084 16.5773 32.6376C16.6395 32.6024 17.1464 32.7426 17.2353 32.6219C17.5459 32.2005 17.6643 31.7352 17.9727 31.2823C18.1416 31.0346 18.3558 30.634 18.5443 30.3601C18.6275 30.2391 18.8854 30.2483 18.9702 30.1311C19.0905 29.9648 18.716 29.7231 18.7115 29.6795C18.6923 29.4887 19.0882 29.776 19.1507 29.6584C19.2655 29.4388 19.0165 29.2264 19.2073 28.9847C19.3483 28.807 19.8358 28.5247 20.0498 28.3289C20.1215 27.5353 20.695 26.9215 21.122 26.4727C21.375 26.2071 21.0463 25.9124 21.1278 25.7882C21.4176 25.3534 22.0683 25.3545 22.3408 24.9503C22.6975 24.4207 22.7295 23.6971 23.0506 23.1376C23.1027 23.0467 23.397 23.2982 23.4588 23.217C23.6872 22.9164 23.995 22.5464 24.1265 22.2283C24.2734 21.8741 23.9076 21.4315 24.1872 21.1893C24.2694 21.1186 24.6678 21.3757 24.8089 21.2596C25.0328 21.0728 24.8587 20.559 24.9243 20.3635C25.0149 20.0961 25.2782 20.5808 25.4142 20.2306C25.4196 20.2161 25.1736 19.9677 25.2271 19.9107C25.3816 19.7436 25.5852 19.9208 25.7349 19.621C25.7478 19.5918 25.725 19.0108 25.7473 18.972C25.8807 18.741 26.066 18.219 26.2007 18.1246C26.6808 17.7861 26.8552 18.4521 26.2281 17.4153C26.5485 17.3912 26.869 17.3693 27.186 17.3274C26.9194 17.3152 26.9469 16.6043 26.9861 16.582C27.305 16.3884 27.5343 16.8042 27.6992 16.3874C26.6393 16.3335 27.8863 15.8325 28.0296 15.6268C28.7206 14.6596 29.1253 13.5033 29.7362 12.4417C29.9431 12.0833 30.367 11.7081 30.5742 11.3266C30.6232 11.2382 30.4162 11.1878 30.456 11.1078C30.4968 11.0288 30.6392 11.2457 30.6784 11.1504C30.9147 10.5576 30.8089 9.88005 31.5369 9.65949C31.4873 9.59107 31.4366 9.55775 31.3901 9.46869C32.0168 9.31027 31.9351 8.14292 32.0321 7.79608C32.1825 7.25044 32.5062 7.30323 32.6399 6.92643C32.8156 6.42702 32.6864 5.4294 33.3398 6.26971C33.526 5.98434 33.7048 5.66696 33.7997 5.29804C33.8103 5.25655 33.5926 5.14697 33.596 5.12988C33.6154 5.01998 33.814 5.11042 33.855 5.05452C33.966 4.9031 33.603 5.03087 33.7904 4.83429C33.8896 4.7311 34.0863 4.76368 34.2718 4.41959C35.372 2.37096 36.4966 0.0318627 37.5194 -2.09934C37.5897 -2.24548 37.7176 -2.04205 37.7957 -2.23132C38.0783 -2.91283 38.3643 -4.25583 38.672 -4.78421C38.9793 -5.3157 39.161 -5.04483 39.4262 -5.33207C39.4774 -5.38743 39.3142 -5.41449 39.3408 -5.47629C39.5208 -5.89212 39.535 -6.49478 39.6695 -6.85868C39.7552 -7.09495 39.9564 -6.95328 40.0443 -7.10009C40.1742 -7.31937 40.0755 -7.67964 40.1268 -7.80582C40.3691 -8.39811 40.7169 -8.69581 40.8777 -9.27574C40.9122 -9.22951 40.9468 -9.1922 40.9823 -9.14945C41.2616 -9.7807 41.5412 -10.4174 41.828 -11.0734C41.853 -11.0209 41.8789 -10.9693 41.9047 -10.9164C42.2215 -11.688 41.7668 -11.833 42.6145 -11.2728C42.6692 -11.3108 42.7301 -11.3494 42.781 -11.3864C42.3204 -11.6191 42.1946 -12.2613 42.3391 -12.8939C42.3502 -12.94 42.9008 -12.9843 42.3837 -13.2335C42.5395 -13.238 42.6435 -13.2346 42.7784 -13.2368C42.6794 -13.4418 42.5839 -13.6461 42.4876 -13.8482C42.539 -13.9002 42.5898 -13.9536 42.6409 -14.0056C42.7421 -13.9617 42.8395 -13.8988 42.9437 -13.8671C43.095 -14.1712 43.2573 -14.8772 43.3755 -15.1139C43.6725 -15.704 44.178 -16.1861 44.1095 -16.7925C44.2321 -17.0041 44.3146 -16.6851 44.4327 -17.0335C44.3595 -17.1189 44.2893 -17.2 44.2145 -17.2881C44.7246 -17.3474 44.51 -17.5427 44.5931 -17.9735C44.6489 -18.2655 44.8153 -18.3871 44.9005 -18.6456C44.922 -18.711 44.8062 -18.7609 44.8279 -18.802C44.9006 -18.9397 45.223 -19.2693 45.2679 -19.3683C45.6819 -20.2611 45.9752 -21.0471 46.296 -21.9628C46.33 -22.0598 46.3819 -21.8854 46.4166 -21.9861C46.4724 -22.148 46.2813 -22.1328 46.3102 -22.2281C46.3919 -22.4927 46.5543 -22.4136 46.7009 -22.7635C47.1705 -23.8909 47.5938 -25.3425 48.0375 -26.5501C48.0517 -26.5879 48.1335 -26.5459 48.1495 -26.5866C48.254 -26.8559 48.2383 -27.1647 48.3377 -27.424C48.4965 -27.8416 48.7219 -28.1016 48.869 -28.5098C49.1598 -29.314 49.3414 -30.0014 49.643 -30.8536C49.8814 -31.5332 50.0934 -32.1096 50.3399 -32.8285C51.4675 -36.0474 52.6577 -39.299 53.5764 -42.5896C53.5993 -42.671 53.5584 -42.6508 53.5673 -42.6749C53.6558 -42.9124 53.7038 -42.9219 53.6461 -43.0437C53.7609 -43.3503 53.8523 -43.4241 53.96 -43.7978C54.0171 -43.9958 53.8828 -43.8868 54.0302 -44.1981C54.1635 -44.4822 54.1032 -44.1179 54.33 -45.0426C54.3359 -45.0676 54.3244 -45.208 54.3953 -45.3921C54.4653 -45.5765 54.4334 -45.3452 54.5792 -45.7944C54.9075 -46.8211 55.2753 -48.1726 55.6819 -49.4253C55.7081 -49.5062 55.9426 -50.2106 56.0018 -50.3744C56.1038 -50.6588 56.0987 -50.5945 56.2173 -50.9586C56.3102 -51.2435 56.3602 -51.45 56.4839 -51.8048C56.4976 -51.844 56.5304 -51.9079 56.6135 -52.1589ZM27.814 5.60614C27.508 5.48685 26.4491 4.92735 26.5057 5.48977C26.5116 5.54368 27.317 5.81955 27.2932 6.09427C27.4947 5.94592 27.6432 5.76971 27.8151 5.60684C27.8147 5.60661 27.8144 5.60637 27.814 5.60614ZM57.2517 -53.937C57.1044 -53.6639 56.9558 -53.373 56.8067 -53.0665C56.9122 -53.2767 57.0157 -53.48 57.1166 -53.6753C57.1611 -53.7648 57.2059 -53.8516 57.2517 -53.937ZM40.5612 -16.9005C40.5613 -16.9008 40.5615 -16.901 40.5616 -16.9013C40.3182 -16.6427 40.0711 -16.3839 39.8207 -16.1251C39.8999 -16.1233 39.9792 -16.1216 40.058 -16.12C40.285 -16.3081 40.5093 -16.4967 40.7305 -16.6848C40.6739 -16.7568 40.6175 -16.8288 40.5612 -16.9005ZM42.4114 -18.9608C42.4435 -19.196 42.3063 -19.2068 42.2517 -19.3739C42.2519 -19.3738 42.2521 -19.3737 42.2523 -19.3735C42.2383 -19.4174 42.2812 -19.5643 42.3031 -19.618C42.3635 -19.5621 42.4203 -19.501 42.4796 -19.4436C42.8742 -19.8219 42.7413 -21.0182 41.904 -19.9937C42.0012 -19.9646 42.0973 -19.935 42.1942 -19.906C41.8719 -19.3454 41.7351 -18.5869 42.4114 -18.9608ZM24.5259 9.56622C23.6993 9.65475 23.4837 9.715 23.4614 10.5158C23.6644 10.5435 23.8669 10.5707 24.0688 10.5974C23.9797 10.3999 23.8917 10.2045 23.8036 10.0084C23.8038 10.0082 23.8039 10.0079 23.8041 10.0077C23.9751 10.1009 24.1463 10.1942 24.3166 10.2879C24.3862 10.0467 24.4563 9.80553 24.5259 9.56622ZM50.8657 -38.2256C50.6512 -38.48 50.7941 -38.3737 50.5657 -38.0022C50.4859 -37.8735 50.494 -38.0289 50.4495 -37.9465C50.2058 -37.502 50.3813 -37.3792 50.5244 -37.442C50.6405 -37.7058 50.7552 -37.9702 50.8653 -38.2247C50.8654 -38.225 50.8656 -38.2253 50.8657 -38.2256ZM55.738 -50.5414C55.7381 -50.5417 55.7383 -50.542 55.7384 -50.5423C55.7291 -50.5613 55.6434 -50.3679 55.7213 -50.594C55.6529 -50.4312 55.5759 -50.2448 55.5139 -50.0958C55.5349 -50.1421 55.5547 -50.1853 55.5771 -50.2352C55.5639 -50.1876 55.5541 -50.1476 55.5428 -50.1035C55.5008 -50.0558 55.4902 -49.9998 55.429 -49.8291C55.4259 -49.8849 55.4235 -49.9399 55.4218 -49.9947C55.3461 -49.7998 55.2702 -49.6001 55.1946 -49.3971C55.1997 -49.392 55.2048 -49.3869 55.2099 -49.3819C55.1711 -49.3097 55.1321 -49.2379 55.0923 -49.165C55.0914 -49.141 55.0908 -49.1177 55.0901 -49.0935C55.0464 -49.0033 55.0022 -48.9123 54.9574 -48.8209C54.966 -48.7844 55.0575 -48.9864 54.905 -48.6234C54.9701 -48.7236 55.0368 -48.8316 55.1007 -48.9358C55.319 -49.4971 55.5096 -49.9781 55.738 -50.5414ZM49.2449 -34.5944C49.5075 -35.1725 49.3864 -35.0291 49.1653 -34.9676C49.1912 -34.8443 49.2175 -34.7193 49.2449 -34.5944ZM34.9528 -5.48229C34.5909 -5.48723 34.2285 -5.49179 33.8682 -5.49093C33.5203 -5.26392 33.8251 -4.63194 34.1672 -4.75593C34.5756 -4.90754 34.4952 -5.374 34.9528 -5.48229ZM30.4686 1.6736C30.5674 1.19568 29.9773 1.32201 29.708 1.26867C29.9821 1.59715 29.8583 1.726 29.7461 1.99078C29.912 1.78174 30.4533 1.75353 30.4696 1.67424C30.4692 1.67402 30.4689 1.67381 30.4686 1.6736ZM38.26 -12.0002C38.357 -12.1591 38.5111 -12.2839 38.5113 -12.4742C38.2639 -12.5577 38.3063 -12.152 38.0893 -12.5484C38.0257 -12.4484 37.962 -12.348 37.8978 -12.2489C38.0731 -12.2351 38.1273 -12.088 38.2594 -12.001C38.2596 -12.0007 38.2598 -12.0004 38.26 -12.0002ZM46.6115 -29.0759C46.6221 -28.6693 46.5255 -28.6382 46.2528 -28.3591C46.3682 -28.2463 46.7793 -28.539 46.9386 -28.7661C46.8289 -28.8694 46.7197 -28.9726 46.6115 -29.0759ZM0.343212 40.8625C0.987502 41.3136 1.46721 40.9024 1.49431 40.5167C1.38387 40.4694 1.27212 40.4211 1.1602 40.3724C0.88937 40.5358 0.61646 40.6998 0.343212 40.8625ZM29.6982 2.12059C29.7131 2.07357 29.7293 2.03048 29.7461 1.99078C29.7168 2.02795 29.6985 2.07038 29.6982 2.12059ZM21.0106 19.225C21.5253 19.4216 21.4212 19.8989 21.5544 19.3244C21.5548 19.3247 21.5552 19.325 21.5556 19.3253C21.6441 18.9465 21.6587 18.8597 21.8092 18.5617C21.1962 18.2557 20.6194 18.6561 21.0285 17.8179C21.0348 17.8076 21.3468 18.0681 21.385 17.9143C21.3966 17.8667 21.2118 17.5506 21.2592 17.3136C21.2746 17.2369 21.4955 16.7401 21.0777 17.3317C20.7104 17.0341 20.3038 16.7825 19.9363 16.5094C19.6636 16.6582 20.2833 17.3866 20.0918 17.6191C19.8054 17.9629 18.9071 17.5784 19.8596 18.3951C20.3246 18.2703 20.6979 17.743 20.1508 17.2348C20.3539 16.9352 20.8985 17.2079 20.973 17.626C19.9477 18.428 21.5066 18.4484 20.4847 19.0669C20.3376 18.9736 20.1611 18.8989 20.0337 18.7952C20.3322 19.4401 20.8272 19.155 21.0106 19.225ZM21.4478 16.2854C21.0331 16.26 20.624 16.2155 20.2089 16.1772C20.6792 16.5233 21.1702 16.7379 21.6258 16.6526C21.5642 16.5322 21.5062 16.4072 21.4478 16.2854ZM10.4371 30.9461C10.1164 30.7249 9.78876 30.5643 9.46366 30.3768C9.67773 30.6328 8.95774 32.0561 9.701 31.6405C9.80813 31.5784 9.70726 30.5928 10.4371 30.9461ZM47.7782 -31.2703C47.7598 -31.0686 47.7423 -30.8658 47.731 -30.6744C47.8782 -30.9047 48.0393 -31.17 48.1902 -31.417C48.0541 -31.3674 47.9169 -31.3191 47.7782 -31.2703ZM33.7586 -2.67106C33.7912 -2.74283 33.398 -2.68249 33.5957 -2.9217C33.3122 -2.82836 33.0597 -2.73261 32.7845 -2.63972C32.8742 -2.50398 32.9634 -2.36756 33.0538 -2.231C32.9465 -2.23617 32.8388 -2.24032 32.7311 -2.24581C32.9301 -2.15808 33.1228 -2.07025 33.3253 -1.98255C33.1287 -2.55506 33.6152 -2.3524 33.7586 -2.67106ZM39.8312 -12.2116C39.5437 -12.454 39.0922 -12.0691 39.2971 -12.5833C39.0383 -12.6105 38.8484 -12.5266 38.6759 -12.2543C38.7326 -12.1625 38.789 -12.0709 38.8462 -11.9786C38.6244 -12.0968 38.504 -12.0699 38.26 -12.0002C38.2601 -11.9999 38.2603 -11.9996 38.2605 -11.9993C38.0156 -11.594 38.1027 -11.578 38.4132 -11.2681C38.4464 -11.8265 38.7849 -11.6466 39.1457 -11.8512C39.3929 -11.9909 39.479 -12.3058 39.8312 -12.2116ZM11.4648 29.6349C10.7253 29.5042 10.4395 28.8561 10.5955 29.8074C10.7522 29.8831 10.9087 29.9565 11.0663 30.0303C11.2008 29.8995 11.3335 29.7676 11.4648 29.6349ZM39.5805 -14.3986C40.0381 -14.0973 40.2598 -13.5858 39.4472 -13.9744C39.4437 -14.353 39.8098 -13.9649 39.5805 -14.3986ZM31.577 2.20921C31.8716 1.64068 31.0782 1.27211 30.5714 1.25301C30.6841 1.37409 30.7974 1.49553 30.9102 1.61581C30.7909 1.671 30.671 1.72594 30.5517 1.78129C30.8941 1.9246 31.2364 2.06756 31.577 2.20921ZM45.0604 -24.1944C44.597 -23.888 45.1373 -24.7358 44.8336 -24.5121C44.5892 -24.3356 44.6983 -23.8835 44.921 -23.9222C44.965 -24.0046 45.012 -24.0971 45.06 -24.1936C45.0601 -24.1939 45.0603 -24.1941 45.0604 -24.1944ZM43.7749 -21.6712C43.5108 -21.8973 43.5456 -21.7425 43.7688 -22.0653C43.8336 -22.1601 44.1087 -23.0141 44.1889 -22.5561C44.0543 -22.2733 43.9069 -21.9534 43.7749 -21.6712ZM26.9125 7.9441C27.1488 8.11833 28.0342 7.90975 27.9508 7.74314C27.9511 7.74338 27.9515 7.74362 27.9518 7.74386C27.7233 7.30234 27.2841 7.87246 26.9634 7.27603C27.0217 8.14686 25.868 7.57995 27.2787 8.49644C27.5513 8.2063 27.1659 8.16795 26.9125 7.9441ZM-3.32161 48.6446C-3.32181 48.6448 -3.32202 48.6451 -3.32222 48.6453C-3.31082 48.5946 -3.62031 47.8147 -3.84047 47.6759C-3.96948 48.1578 -3.5521 48.4311 -4.42428 48.1976C-4.24631 48.3904 -4.07192 48.5754 -3.89352 48.771C-3.67087 48.751 -3.37969 48.8922 -3.32161 48.6446ZM10.0526 32.8098C10.2368 32.7501 10.0679 32.2274 10.2021 32.0988C8.49595 31.4588 9.31433 33.0452 10.0526 32.8098ZM53.4787 -44.7675C53.4785 -44.7671 53.4783 -44.7667 53.4781 -44.7663C53.4782 -44.7664 53.4784 -44.7665 53.4785 -44.7666C53.4786 -44.7669 53.4787 -44.7672 53.4787 -44.7675ZM16.8927 22.1006C16.9587 22.1775 17.0198 22.2392 17.077 22.2884C17.0826 22.2928 17.0883 22.2971 17.0939 22.3014C17.0272 22.236 16.9601 22.1694 16.8927 22.1006ZM26.0869 9.04245C26.2776 9.51146 27.3179 9.10853 27.3468 8.76881C27.182 8.68063 27.041 8.58759 26.8382 8.50662C27.1081 8.98277 26.0566 8.96572 26.0869 9.04245ZM37.1774 -9.00013C36.8253 -8.34187 38.2731 -8.61763 37.5094 -9.11135C37.4938 -9.11876 37.1883 -9.01605 37.1774 -9.00013ZM29.3506 4.27509C29.8261 4.3695 29.7313 4.75131 29.9773 4.20329C29.898 4.10942 29.8186 4.01555 29.7395 3.92199C29.6107 4.03982 29.4806 4.15737 29.3506 4.27509ZM36.2026 -3.94007C35.5721 -3.20541 34.8261 -2.67238 34.2087 -3.7466C34.2727 -3.78818 34.336 -3.83122 34.3996 -3.87289C34.8481 -3.61133 34.7274 -3.97171 34.9057 -4.31645C35.1067 -4.25769 35.252 -4.41974 35.4183 -4.36491C35.7394 -4.25952 35.821 -3.92057 36.2026 -3.94007ZM51.9395 -40.0553C51.9124 -40.0506 51.8852 -40.0463 51.8581 -40.0416C51.7814 -39.9154 51.7037 -39.7885 51.6248 -39.6615C51.6769 -39.6654 51.7289 -39.6695 51.7805 -39.6735C51.834 -39.8013 51.8868 -39.9278 51.9393 -40.0544C51.9394 -40.0547 51.9395 -40.055 51.9395 -40.0553ZM23.2288 16.4533C22.0567 15.7046 22.4356 15.6135 23.332 15.5225C23.2975 15.8308 23.2627 16.1417 23.2288 16.4533ZM42.6805 -17.4778C42.5154 -17.588 42.351 -17.6974 42.1867 -17.808C42.5051 -17.9924 42.6743 -17.8364 42.839 -17.5779C42.7863 -17.5442 42.7336 -17.5115 42.6805 -17.4778ZM44.6708 -21.6007C44.6475 -21.4606 44.5509 -21.5877 44.5476 -21.5735C44.4759 -21.2371 44.5179 -21.1679 44.2543 -20.8485C44.2002 -20.8206 44.1445 -20.7945 44.0891 -20.7673C43.8358 -21.1088 44.0737 -21.1391 44.0477 -21.5934C44.1296 -21.472 44.2122 -21.3502 44.2957 -21.2275C44.3628 -21.4383 44.4304 -21.6487 44.5031 -21.8705C44.5485 -21.8776 44.5934 -21.885 44.6386 -21.8922C44.6489 -21.7961 44.6637 -21.6946 44.6708 -21.6007ZM52.4786 -41.6804C52.5502 -41.8876 52.6214 -42.0938 52.6919 -42.297C52.7245 -42.292 52.7572 -42.2866 52.7898 -42.2817C52.6884 -42.083 52.5845 -41.882 52.4786 -41.6804ZM20.2258 19.7296C20.1549 19.6979 20.0838 19.6656 20.0126 19.6309C20.0898 19.6869 20.1601 19.7161 20.2258 19.7296ZM-2.41306 50.2414C-2.4078 50.5785 -2.74342 50.7529 -2.8836 50.9916C-3.45854 50.4367 -2.85162 50.0615 -3.0512 49.5556C-2.92114 49.6219 -2.41497 50.0991 -2.41306 50.2414ZM31.997 1.43413C32.1945 1.48894 32.3907 1.5429 32.5868 1.59765C32.6429 1.45823 32.6981 1.3182 32.7545 1.17864C32.8916 1.26158 33.0298 1.34532 33.1668 1.42822C32.6676 1.88361 33.1317 2.00376 33.361 2.53968C32.9055 2.16971 32.4508 1.80197 31.997 1.43413ZM54.9788 -48.1238C54.8116 -47.6849 54.7293 -47.5302 54.7731 -47.8047C54.8426 -47.9579 54.911 -48.1105 54.9777 -48.2607C54.9777 -48.215 54.978 -48.1691 54.9788 -48.1238ZM15.6491 27.1142C15.2042 27.2617 15.9756 27.879 15.3176 27.849C15.2949 27.5686 15.2709 27.2881 15.2484 27.0108C15.3817 27.0456 15.5163 27.0797 15.6491 27.1142ZM28.333 12.1859C28.4678 12.4876 27.2523 12.0217 27.7818 12.9789C27.4899 12.9134 27.2297 12.8179 26.9492 12.7405C27.168 12.9645 27.3864 13.198 27.6056 13.4194C27.6054 13.4197 27.6053 13.42 27.6051 13.4203C27.2948 13.7361 27.1276 13.2711 26.8577 13.0928C26.7454 13.0191 26.7586 13.4251 26.5722 13.1694C26.2537 12.7297 26.8349 12.3447 26.3383 11.9937C26.3794 12.3006 26.004 12.5819 25.7409 12.2347C25.4537 11.8556 26.292 11.9335 26.1329 11.4971C26.7218 12.3764 26.8953 11.5352 26.3387 11.0383C27.0492 10.9747 27.0125 11.4627 26.7396 11.8501C27.3586 11.931 26.8813 12.116 27.2325 12.4489C27.6248 12.3573 27.9597 11.3453 28.333 12.1859ZM38.1503 -7.2854C37.9828 -7.01748 37.9569 -6.46824 37.5662 -6.45002C37.338 -6.44102 37.4379 -6.95242 37.0126 -6.81283C37.1835 -7.06571 37.3188 -7.06542 37.5262 -6.88136C37.5864 -6.92621 37.6462 -6.9723 37.7054 -7.01765C37.6752 -7.07285 37.6461 -7.12839 37.6161 -7.18344C37.7279 -7.15923 37.8388 -7.13581 37.9498 -7.11113C37.9652 -7.18792 37.9799 -7.2632 37.9958 -7.34235C38.0474 -7.32225 38.0957 -7.31146 38.1503 -7.2854ZM8.81016 36.2425C8.86958 36.176 8.92838 36.1101 8.98891 36.0448C9.08506 36.1379 9.18433 36.236 9.28248 36.3328C9.36055 36.4085 9.43863 36.4843 9.51672 36.5601C9.25099 36.2702 9.01794 35.5242 9.44136 35.6456C9.65341 35.7056 10.0921 36.3365 10.4176 36.1129C10.224 36.31 9.99389 36.451 9.78443 36.6258C9.96636 36.7464 10.1494 36.8691 10.3312 36.9895C10.3313 36.9898 10.3315 36.9901 10.3316 36.9905C10.316 37.0938 10.3017 37.1996 10.2861 37.3032C9.79418 36.9502 9.30305 36.5967 8.81016 36.2425ZM42.9156 -17.0616C42.6458 -16.8679 42.5257 -16.8187 42.3524 -17.0723C42.3524 -17.0727 42.3524 -17.073 42.3525 -17.0733C42.5045 -17.1177 42.6555 -17.1626 42.8056 -17.2078C42.8422 -17.1594 42.8791 -17.1109 42.9156 -17.0616ZM20.2537 23.0035C18.159 22.1969 20.0255 21.8478 20.4629 22.5105C20.4799 22.5462 20.0953 22.8077 20.2537 23.0035ZM31.9246 2.57525C32.0242 2.43066 32.1226 2.28525 32.2218 2.14026C32.3631 2.28 32.5037 2.42049 32.6455 2.5608C32.4067 2.56655 32.1657 2.57117 31.9246 2.57525ZM54.3767 -46.1255C54.3717 -45.931 54.2466 -45.4669 54.1055 -45.2666C54.1377 -45.3883 54.1699 -45.5091 54.2021 -45.6288C54.1202 -45.411 54.0368 -45.1933 53.9515 -44.9681C53.8611 -44.9909 54.0026 -45.235 54.1138 -45.6296C54.1298 -45.6919 54.1686 -46.1077 54.2848 -46.206C54.308 -46.2266 54.1797 -45.8239 54.3182 -46.0835C54.28 -45.9611 54.2432 -45.8561 54.2054 -45.7392C54.2213 -45.7231 54.2374 -45.707 54.2532 -45.6899C54.2946 -45.8368 54.3355 -45.9814 54.3767 -46.1255ZM37.2722 -5.68016C37.0939 -5.27973 36.893 -5.33704 36.5394 -5.44495C36.6712 -5.60236 36.8016 -5.76008 36.9317 -5.9173C37.0447 -5.83806 37.1584 -5.75992 37.2722 -5.68016ZM53.147 -42.4022C53.0846 -42.1738 53.0528 -42.2957 53.0098 -42.2108C52.8456 -41.8895 52.8112 -41.6347 52.6603 -41.3023C52.6817 -41.3196 52.7015 -41.3354 52.7221 -41.3521C52.722 -41.3518 52.7219 -41.3515 52.7218 -41.3512C52.2159 -39.6897 52.3445 -40.6131 52.7196 -41.5824C52.7023 -41.6156 52.6848 -41.6479 52.668 -41.6808C52.8672 -42.0947 53.042 -42.467 53.147 -42.4022ZM23.4355 18.303C23.5093 18.3809 24.1307 18.6361 23.7166 18.7098C22.8044 18.3381 23.407 18.2904 23.1611 17.9876C23.0414 18.0016 22.9225 18.0185 22.8028 18.0314C22.8531 17.4592 23.0764 17.5351 23.5473 18.1019C23.5787 18.1408 23.3621 18.2254 23.4355 18.303ZM22.043 21.3437C20.8163 20.51 21.7032 20.3841 22.0559 20.6761C22.0227 20.7603 21.7849 20.6673 21.8224 20.8113C21.8595 20.9561 22.1234 21.1836 22.043 21.3437ZM31.2846 5.70565C31.2796 5.72408 31.5941 6.1547 31.285 5.92691C30.6468 5.22826 31.3623 5.15682 31.5812 5.39737C31.493 5.52022 31.33 5.53298 31.2857 5.70633C31.2853 5.7061 31.285 5.70587 31.2846 5.70565ZM55.3277 -48.8425C55.3266 -48.8326 55.1887 -48.3722 55.1578 -48.3311C55.125 -48.293 55.0983 -48.2783 55.068 -48.2518C55.1621 -48.4685 55.3304 -48.9888 55.3274 -48.8416C55.3275 -48.8419 55.3276 -48.8422 55.3277 -48.8425Z" fill="#FF8BDF"/>
</g>
</g>
<defs>
<clipPath id="clip0_141_32583">
<rect width="67" height="38" fill="white"/>
</clipPath>
</defs>
</svg>
