<svg width="35" height="17" viewBox="0 0 35 17" fill="none" xmlns="http://www.w3.org/2000/svg">
<g clip-path="url(#clip0_141_32596)">
<path d="M1.05164 8.97135C0.829995 8.8182 1.10005 8.69957 0.735226 8.52978C0.738177 8.46668 0.740912 8.40264 0.744313 8.3397C0.847908 8.46253 0.951719 8.58551 1.05595 8.70972C1.05451 8.7972 1.0533 8.88459 1.05211 8.97198C1.05196 8.97177 1.0518 8.97156 1.05164 8.97135ZM2.2143 10.6425C1.9753 10.2488 1.99764 10.0285 1.63714 9.81436C1.72328 9.95093 1.80878 10.0868 1.89407 10.2216C1.78324 10.1661 1.67547 10.1136 1.56984 10.0658C1.59236 10.1283 1.61467 10.1904 1.63627 10.2513C1.46208 10.064 1.2896 9.87963 1.1192 9.69933C1.15443 9.7077 1.19061 9.71694 1.22658 9.72653C1.14948 9.47567 1.1552 9.35199 1.2036 9.20622C1.15834 9.16402 1.11358 9.12265 1.06869 9.08115C1.17016 9.10999 1.27425 9.14343 1.38009 9.1808C1.41268 9.31673 1.44812 9.46617 1.47747 9.58919C1.78529 9.8673 1.73564 9.56764 1.728 9.43256C1.71848 9.25066 1.83043 9.4423 1.82732 9.31268C1.827 9.29222 1.72775 9.15302 1.74181 9.13249C1.81378 9.02637 2.03356 8.93693 2.17368 9.36587C2.00267 9.46282 2.07544 9.83792 1.87902 9.8872C2.17679 10.2065 2.19799 10.4005 2.2143 10.6425ZM4.26541 7.31962C4.3301 7.55696 4.17636 7.53225 4.0199 7.42981C4.01982 7.42986 4.01974 7.4299 4.01965 7.42995C3.9854 7.40728 3.78866 7.15282 3.84834 7.13402C3.94673 7.10419 4.23627 7.51608 4.11311 7.19578C4.16464 7.23956 4.2136 7.27682 4.26541 7.31962ZM4.43785 7.19208C4.55032 7.27076 4.70811 7.61326 4.59352 7.55949C4.59367 7.55975 4.59381 7.56001 4.59396 7.56028C4.54606 7.53782 4.45421 7.24867 4.50419 7.56573C4.3693 7.37142 4.24453 7.1957 4.1125 7.0084C4.1351 6.99171 4.15441 6.97416 4.17863 6.95756C4.35044 7.30419 4.32535 7.1145 4.43785 7.19208ZM2.12675 9.12963C1.93925 8.84883 1.91212 8.87707 1.73148 8.73871C1.78145 8.70001 1.83268 8.66322 1.88404 8.62732C1.9651 8.79609 2.04593 8.96306 2.12675 9.12963ZM1.17347 10.2659C1.17342 10.266 1.17337 10.2661 1.17332 10.2662C1.1884 10.3177 1.20327 10.3689 1.21757 10.4187C1.15328 10.3557 1.08981 10.2937 1.02653 10.2323C1.04463 10.3692 1.06081 10.5034 1.07528 10.6341C0.914251 10.4178 1.00381 10.3277 0.916065 10.1029C1.018 10.0647 1.15085 10.1534 1.30833 10.3451C1.26308 10.318 1.21758 10.2914 1.17347 10.2659ZM17.0828 5.88096C17.1103 5.78624 17.1376 5.69144 17.1652 5.59674C17.1382 5.55129 17.1107 5.51623 17.0835 5.46382C16.982 5.87677 16.9951 5.50726 16.8895 5.52737C16.5627 5.58985 16.6193 6.24265 16.3781 5.27914C16.6066 5.33542 16.5394 4.88496 16.6952 4.5482C16.7103 4.81119 16.5448 5.39434 16.6307 5.5214C16.8079 5.25278 16.979 5.00326 17.1663 4.83442C17.1637 4.78893 17.161 4.74328 17.1584 4.69779C17.1286 4.72474 17.0989 4.75189 17.069 4.77885C17.1062 4.6595 17.1427 4.54118 17.1805 4.42049C17.1261 4.693 17.2344 4.54508 17.2033 4.85994C17.1894 5.00009 17.1348 5.19254 17.1015 5.32535C17.1635 5.40201 17.2298 5.47285 17.295 5.54777C17.2528 5.65762 17.2105 5.76762 17.1686 5.87753C17.1396 5.87938 17.1119 5.88032 17.0832 5.88222C17.0831 5.8818 17.0829 5.88138 17.0828 5.88096ZM31.5433 9.48798C31.2632 9.68232 31.0969 9.62052 31.2475 9.27693C31.3453 9.34522 31.4459 9.41657 31.5433 9.48798ZM1.43894 10.5022C1.4037 10.4732 1.36917 10.4447 1.33433 10.4164C1.307 10.3086 1.27895 10.199 1.24932 10.0871C1.34002 10.1906 1.43128 10.2947 1.52263 10.3989C1.49464 10.433 1.46637 10.4673 1.43894 10.5022ZM3.47122 8.42063C3.44872 8.44734 3.44317 8.44397 3.39456 8.44479C3.39468 8.44489 3.3948 8.44499 3.39492 8.4451C3.37604 8.44575 3.20396 8.4328 3.1436 8.30997C3.20011 8.27117 3.26396 8.23353 3.32364 8.1962C3.37316 8.27079 3.42088 8.34566 3.47122 8.42063ZM2.7584 8.79507C2.75816 8.79488 2.75792 8.79468 2.75767 8.79449C2.72626 8.79192 2.68401 8.7711 2.6593 8.78016C2.61407 8.54774 2.83884 8.8579 2.84734 8.71939C2.85367 8.61322 2.81291 8.46785 2.94838 8.58336C2.99037 8.61921 3.04924 8.68016 3.1315 8.77528C3.14395 8.82238 3.16229 8.87959 3.18103 8.93729C3.19426 8.97802 3.20769 9.01901 3.21937 9.05689C3.00598 8.9463 3.08839 9.131 3.12851 9.35573C3.00485 9.16846 2.88202 8.98244 2.7584 8.79507ZM15.7096 4.84497C15.6783 5.08069 15.6636 4.84754 15.6611 4.84464C15.6612 4.84436 15.6612 4.84409 15.6613 4.84382C15.4597 5.05522 15.6909 4.71376 15.5115 4.6697C15.5398 4.61157 15.5694 4.5502 15.5988 4.49144C15.636 4.60722 15.6736 4.73826 15.7096 4.84497ZM9.21722 5.97943C9.19336 5.91147 9.16909 5.84347 9.14519 5.77552C9.25902 5.75856 9.20216 5.4807 9.37066 5.69954C9.31889 5.79323 9.26781 5.88668 9.21749 5.98024C9.2174 5.97997 9.21731 5.9797 9.21722 5.97943ZM4.24559 8.59344C4.21326 8.7807 4.16899 8.88206 3.94784 8.74847C3.9476 8.74827 3.94737 8.74806 3.94713 8.74785C3.93384 8.73943 3.87896 8.58725 3.85038 8.55796C3.84176 8.59102 3.83923 8.63533 3.83296 8.67243C3.76318 8.56639 3.6935 8.46031 3.62403 8.35497C3.70365 8.34815 3.78252 8.34212 3.86254 8.33577C3.81488 8.27792 3.76725 8.22079 3.71943 8.16304C3.75191 8.09871 3.78457 8.03475 3.81763 7.97069C3.90646 8.15962 3.99583 8.34836 4.08621 8.53741C4.13961 8.55616 4.1921 8.57369 4.24559 8.59344ZM11.2146 6.24113C11.1772 6.17108 11.1803 6.03756 11.135 5.98037C11.0898 5.92397 11.0713 6.07635 11.0303 5.86263C11.0627 5.8247 11.0957 5.78233 11.1287 5.74305C10.9033 5.39392 10.8586 5.76999 10.7352 5.30129C10.8945 5.39207 10.9829 5.31102 11.0741 5.15293C11.1604 5.52616 11.1209 5.87664 11.2834 6.20798C11.2606 6.21861 11.2372 6.23181 11.2147 6.24025C11.2146 6.24054 11.2146 6.24083 11.2146 6.24113ZM1.51079 13.3259C1.39261 13.2961 1.13742 13.2506 0.954298 13.1805C0.90612 13.1594 0.716959 13.0582 0.712573 13.0528C0.689635 13.0234 0.803915 13.0135 0.655937 12.995C0.698599 12.993 0.738637 12.9898 0.779753 12.9868C0.747512 12.9589 0.716412 12.9324 0.686563 12.9069C0.646166 12.9218 0.604407 12.9354 0.561343 12.9477C0.553626 12.942 0.546018 12.9363 0.538539 12.9309C0.692742 12.8862 0.578252 12.8859 0.622052 12.8218C0.544178 12.8379 0.472793 12.8629 0.409513 12.8964C0.44284 12.8735 0.482191 12.8466 0.512803 12.828C0.483251 12.7873 0.429182 12.8535 0.414003 12.8582C0.33478 12.8911 0.63314 12.604 0.56374 12.4734C0.518432 12.5216 0.474987 12.5772 0.436055 12.6355C0.438372 12.6087 0.439802 12.5805 0.440156 12.5514C0.554693 12.4486 0.679392 12.3341 0.851744 12.2577C0.858599 12.2408 0.865214 12.2236 0.871785 12.2067C0.826207 12.1604 0.781456 12.1146 0.736904 12.0696C0.745015 12.0412 0.753071 12.0123 0.760679 11.9834C0.866474 12.2201 0.915766 12.1228 1.10166 12.1589C1.11236 12.27 1.01954 12.2814 1.12084 12.3928C1.21109 12.164 1.55 12.1709 1.60027 11.9001C1.61099 11.8301 1.42016 11.5963 1.52492 11.5267C1.54371 11.5568 1.58249 11.6062 1.60904 11.6435C1.67506 11.38 1.69278 11.1896 1.97126 11.1818C1.87818 11.0832 1.7856 10.9852 1.69395 10.889C1.70244 10.9786 1.71108 11.0667 1.71763 11.1519C1.56381 11.0089 1.53712 10.8967 1.44673 11.0145C1.37295 11.1115 1.47294 11.1243 1.48918 11.1962C1.5103 11.2922 1.38807 11.2003 1.41245 11.3056C1.43008 11.3853 1.55443 11.4778 1.46476 11.516C1.36674 11.3344 1.2602 11.1398 1.15114 10.9418C1.1932 10.9571 1.23634 10.9741 1.28015 10.9919C1.30145 11.0562 1.32186 11.1185 1.34176 11.1807C1.3311 11.0359 1.31732 10.8937 1.29842 10.732C1.48135 11.0083 1.46159 10.842 1.46669 10.7714C1.47481 10.6616 1.5775 10.8957 1.58492 10.8267C1.59254 10.7589 1.46285 10.5037 1.55382 10.4755C1.61965 10.6389 1.74833 10.6996 1.82968 10.8257C1.9109 10.9515 1.86251 11.0396 2.02448 11.1043C2.07448 10.89 1.59993 10.5777 1.62214 10.415C1.64213 10.2074 2.2469 10.951 2.3394 11.1399C2.41183 11.2878 2.30511 11.3285 2.37318 11.4697C2.70709 11.585 2.36409 11.1329 2.32085 11.0193C2.16417 10.6077 2.77055 11.5512 2.64436 11.1417C2.76956 11.3138 2.88226 11.4682 3.00201 11.6327C3.00019 11.5894 2.9833 11.5395 2.9902 11.4991C2.66613 11.2113 2.73796 11.1873 2.76764 11.1645C2.81468 11.1294 2.61849 11.0175 2.59975 10.9664C2.54886 10.827 2.63947 10.8363 2.49626 10.7121C2.56227 10.7702 2.62998 10.8282 2.6966 10.8868C2.68893 10.7627 2.26031 9.89409 2.25531 10.1553C2.06255 9.86737 2.197 9.96316 2.25767 9.97869C2.31822 9.99396 2.18656 9.81385 2.23641 9.82239C2.43796 9.85846 2.59625 10.2384 2.75496 10.4945C2.77631 10.2108 2.55541 10.212 2.67824 9.92557C2.5519 9.70169 2.30297 9.56743 2.29655 9.37766C2.56417 9.72189 2.80437 9.93034 3.00478 9.96454C2.95757 9.87166 2.9098 9.77777 2.86258 9.68434C3.16208 9.97422 3.37377 10.3569 3.20145 9.84466C3.67403 10.6751 3.37495 10.1399 3.69977 10.3888C3.76531 10.4394 3.82665 10.6364 3.91306 10.6997C3.95203 10.7284 3.90129 10.5825 3.99906 10.6568C4.04732 10.6933 4.3279 10.9524 4.28289 10.7718C3.98671 10.4098 3.87044 10.0117 3.56957 9.74969C3.61864 9.74262 3.65616 9.72395 3.68683 9.70678C3.79036 9.64898 3.81365 9.60794 3.93735 10.0879C3.93918 10.0949 3.94102 10.102 3.94289 10.1093C3.9486 10.1136 3.95432 10.118 3.96003 10.1224C4.07263 10.2088 4.18436 10.2952 4.29537 10.3821C4.263 10.2708 4.23172 10.1598 4.20072 10.0487C4.41237 10.3675 4.46513 10.4608 4.54033 10.3329C4.54016 10.4401 4.54257 10.5476 4.54442 10.6549C4.58473 10.7208 4.62175 10.7925 4.66403 10.8544C4.64126 10.6939 4.77291 10.5348 4.75917 10.4235C4.74544 10.3118 4.65251 10.3374 4.61147 10.2466C4.27661 9.49552 4.5887 10.0086 4.58536 9.84619C4.58375 9.74998 4.43636 9.73582 4.44017 9.69205C4.45622 9.53032 4.72111 9.87511 4.79765 9.83479C4.64377 9.64125 4.48732 9.4448 4.3316 9.24968C4.41765 9.21224 4.50815 9.16013 4.54224 9.04825C4.5558 9.00443 4.44009 8.86109 4.4386 8.84776C4.43029 8.77973 4.47789 8.63667 4.48801 8.62997C4.5658 8.58298 4.69532 8.79956 4.77828 8.76766C4.75915 8.8033 4.74062 8.83625 4.72217 8.8708C4.91564 9.23153 5.10955 9.59208 5.30481 9.95286C5.38931 9.9375 5.4749 9.92122 5.55992 9.90642C5.44059 9.81776 5.32044 9.73043 5.19921 9.64311C5.11441 9.30982 5.03295 8.97485 4.95536 8.639C5.10008 8.79019 5.24344 8.9421 5.38582 9.09459C5.47748 8.9823 5.05811 8.27582 5.46233 8.87483C5.46842 8.80215 5.47484 8.72951 5.48192 8.6575C5.52578 8.7504 5.56986 8.84343 5.61386 8.93628C5.62616 8.85782 5.63903 8.77975 5.65178 8.70067C5.43521 8.40477 5.20823 8.09265 4.99273 7.80783C5.04382 7.69129 5.19184 7.9617 5.24125 8.02247C5.37201 8.18354 5.31116 7.90552 5.42705 8.05744C5.46632 8.10975 5.47696 8.33302 5.61608 8.52394C5.64405 8.56056 6.15527 9.26134 6.13172 9.04992C6.05856 8.91282 5.96498 8.74671 5.88382 8.59836C5.93712 8.46464 6.35592 9.16074 6.44709 9.36917C6.42331 9.20227 6.48953 9.15348 6.38787 8.92693C6.41065 8.90857 6.43344 8.89063 6.45646 8.87229C6.7009 9.42526 6.7553 9.27375 6.53246 8.80541C6.48252 8.81589 6.4321 8.82603 6.38218 8.83684C6.12953 8.25159 5.82075 7.97548 6.37088 8.36137C6.57151 8.63116 6.25396 8.36864 6.40822 8.56877C6.54856 8.66011 6.56774 8.51672 6.74027 8.68861C6.95482 8.90391 6.96222 9.20582 7.01376 8.77657C6.15535 8.17365 6.81087 8.186 6.9224 7.82834C7.35872 8.61927 7.65066 8.79617 7.80039 8.44176C7.67619 8.2241 7.64558 8.37696 7.56653 8.32196C7.48705 8.26699 7.47887 8.10916 7.3734 8.02791C7.26786 7.94665 7.07747 7.85704 6.94385 7.72298C6.93613 7.57085 7.05931 7.15415 7.05149 7.59474C7.27793 7.76645 7.43649 7.97429 7.60766 7.95198C7.50213 7.57529 7.40491 7.35364 7.55521 7.28071C7.67177 7.8147 7.98591 8.09016 8.15942 8.61968C8.00762 8.5431 7.85807 8.01957 7.69721 7.80603C7.68075 7.78473 7.63418 7.95117 7.60766 7.95198C7.89731 8.35799 7.99723 8.51137 8.16345 9.06977C8.21032 8.99421 8.27955 9.04355 8.1802 8.78603C8.24001 8.89064 8.2997 8.99537 8.35881 9.10017C8.37923 9.0882 8.39447 9.06968 8.41822 9.06203C8.22949 8.69065 8.38755 8.90151 8.36118 8.70866C8.33539 8.51557 8.15238 8.23614 8.2757 8.18166C8.19816 8.10821 8.12886 8.04627 8.05359 7.97747C8.09511 7.84546 8.13796 7.71307 8.18233 7.58171C8.03244 7.36853 7.76399 7.06901 7.64291 6.75816C7.72924 6.85963 7.78454 6.60228 7.79675 6.58824C7.84279 6.53478 7.88706 6.74216 7.89338 6.74533C8.02108 6.80631 8.07077 6.71223 8.21754 6.99616C8.23447 6.83751 8.31455 6.89525 8.38356 6.8619C8.42159 6.8436 8.33367 6.62836 8.37229 6.66147C8.62941 6.88321 8.57981 7.21601 8.68807 6.57655C8.5981 6.43686 8.5067 6.29361 8.41457 6.15286C8.42884 6.08376 8.44288 6.01456 8.45757 5.94564C8.49068 5.96555 8.5236 5.98577 8.55658 6.00576C8.67136 6.33557 8.7863 6.6661 8.90112 6.99591C8.93184 7.00554 8.96244 7.01465 8.99307 7.02435C8.96244 7.07103 8.93194 7.11781 8.90181 7.16468C8.91845 7.22399 8.93537 7.28325 8.95207 7.34256C9.04501 7.41101 9.13735 7.48061 9.22922 7.55028C9.19094 7.43517 9.15238 7.31927 9.11413 7.20416C9.3082 7.3169 9.34231 7.41288 9.36979 7.05345C9.47253 7.02364 9.40103 6.51722 9.39823 6.29647C9.44078 6.35408 9.48345 6.41253 9.5259 6.47012C9.50964 6.37037 9.49383 6.27101 9.47792 6.17129C9.54784 6.2957 9.6178 6.42003 9.68634 6.54391C9.60763 6.23788 9.58757 6.14103 9.44408 6.06801C9.36401 5.68146 9.61174 5.79035 9.72856 5.89388C9.81729 5.97235 9.84517 6.30406 9.8643 6.33998C9.92783 6.46203 9.99135 6.32255 10.0183 6.33821C10.1313 6.40277 10.1865 6.37033 10.2839 6.41797C10.303 6.42762 10.4016 6.61413 10.4068 6.61936C10.4442 6.64555 10.5394 6.72302 10.5478 6.72367C10.9891 6.76304 10.323 6.01815 10.7262 6.01039C10.6845 5.89999 10.6439 5.79012 10.6023 5.67966C10.6295 5.66542 10.6572 5.65147 10.6845 5.63731C10.7465 5.7228 10.7472 5.90607 10.7837 5.74898C10.8156 5.88975 10.8475 6.03059 10.8791 6.17074C10.8906 6.08748 10.9015 6.00516 10.9143 5.92183C11.0913 6.39338 11.3 6.45827 11.4294 7.02991C11.4733 7.2243 11.4004 7.45484 11.5179 7.64441C11.5807 7.6713 11.4867 7.44964 11.5052 7.43192C11.6409 7.30744 11.7118 7.63364 11.7544 7.53112C11.7306 7.3899 11.7068 7.24584 11.6832 7.10321C11.7176 7.13788 11.752 7.17256 11.7865 7.20722C11.7698 7.11264 11.7534 7.01792 11.7368 6.92335C11.712 6.92276 11.6843 6.92281 11.6614 6.92179C11.6031 6.55319 11.8431 6.32668 11.8098 6.65881C11.7969 6.79354 11.7061 6.75929 11.8568 7.17376C11.9147 7.09479 11.9817 7.01271 12.0444 6.93354C12.0679 7.02472 12.0912 7.1161 12.1146 7.20728C12.2037 7.12397 12.0267 6.77899 11.9814 6.58235C12.0041 6.57139 12.0272 6.56107 12.05 6.55015C12.0803 6.63673 12.111 6.72756 12.141 6.81127C12.11 6.66965 12.0494 6.3379 12.1489 6.44401C12.2128 6.51321 12.2197 6.88597 12.296 6.81705C12.2408 6.59802 12.1495 6.33615 12.2322 6.24394C12.2924 6.472 12.3517 6.67993 12.4118 6.92015C12.4839 6.67289 12.614 7.01633 12.7018 6.72961C12.7577 6.548 12.7671 5.94647 13.0028 6.82347C13.0729 6.83368 13.0083 6.61661 13.0179 6.56299C13.0641 6.30934 13.2154 6.71732 13.237 6.73874C13.3772 6.87623 13.3978 6.7213 13.5233 6.90344C13.488 6.73991 13.4564 6.58475 13.4227 6.42517C13.3868 6.68673 13.3446 6.68285 13.2189 6.65214C13.2511 6.61165 13.2835 6.57043 13.3159 6.53008C13.2844 6.3978 13.2527 6.26553 13.2213 6.13392C12.9641 6.72849 12.8824 5.88122 13.155 5.64257C13.2279 5.88473 13.3011 6.12607 13.3728 6.36896C13.4758 5.96278 13.619 6.27279 13.8284 6.31604C13.853 6.32088 13.9128 6.16404 13.9482 6.15082C13.9474 6.14998 13.9467 6.14913 13.9459 6.14829C13.9287 5.91127 13.8795 5.8092 13.84 5.60143C13.8555 5.57192 13.8711 5.54252 13.8868 5.51303C13.9587 5.6644 13.9649 5.79748 14.0466 5.74504C14.0082 5.5888 13.9699 5.4325 13.9313 5.27627C14.0281 5.25473 14.1206 5.41623 14.1993 5.32737C14.194 5.38962 14.1884 5.45213 14.183 5.51444C14.4036 5.63582 14.3976 6.59111 14.4693 6.10469C14.4915 6.1844 14.5135 6.26495 14.5356 6.34467C14.4789 6.3741 14.4225 6.403 14.3666 6.43258C14.3841 6.54764 14.4014 6.66223 14.4191 6.77725C14.4765 6.73252 14.5342 6.68681 14.5923 6.64232C14.5581 6.72676 14.5241 6.81139 14.4907 6.89593C14.5724 6.93911 14.6542 6.9825 14.7359 7.02605C14.5918 6.61577 14.685 6.54817 14.6007 6.1327C14.724 6.3491 14.841 6.61606 14.9521 6.67906L14.8651 6.68406C14.8838 6.69953 14.9036 6.70787 14.9249 6.70742C14.9617 6.70664 15.0029 6.67937 15.0499 6.61691C15.0931 6.55918 15.0819 6.26265 15.1848 6.62676C15.1741 6.15521 15.3277 5.93986 15.326 5.49172C15.2847 5.51176 15.2421 5.52376 15.2016 5.54874C15.2409 5.70563 15.2322 6.13289 15.1597 6.25711C15.0673 6.41541 14.9496 6.11495 14.9382 6.58912C14.9352 6.58703 14.9322 6.58502 14.9292 6.58307C14.909 6.56997 14.8894 6.55968 14.8697 6.54904L14.932 6.54546C14.9209 6.54181 14.9098 6.53806 14.8984 6.53379C14.8954 6.44302 14.8923 6.35185 14.8892 6.2609C14.8838 6.23406 14.8879 6.20669 14.8921 6.17935C14.8886 6.18543 14.8852 6.19123 14.8818 6.19676C14.814 6.37099 14.7477 6.3148 14.6597 6.03832C14.7176 5.99052 14.7758 5.94305 14.8344 5.89575L14.8923 5.89242C14.913 5.88128 14.9338 5.87016 14.9545 5.85904C14.9855 5.84238 15.0164 5.82574 15.0473 5.8091C15.031 5.78834 15.0145 5.76742 14.9981 5.74735C15.0964 5.44764 15.0165 5.15756 15.182 5.09873C15.1759 5.23718 15.1701 5.37574 15.164 5.51489C15.2368 5.14668 15.3975 5.15478 15.3623 4.72684C15.406 4.85954 15.4125 4.94268 15.4488 4.71412C15.5619 5.04265 15.6328 5.4555 15.566 5.9422C15.6174 5.8655 15.6686 5.78871 15.7195 5.71206C15.6974 5.57731 15.675 5.44319 15.6525 5.30845C15.7362 5.32022 15.8198 5.33194 15.9019 5.34313C15.893 5.73868 15.7373 5.45628 15.7707 5.81163C15.7774 5.88295 15.8284 5.73292 15.8383 5.77337C15.9426 6.21075 15.7632 5.89032 15.7854 6.22299C15.9635 6.33311 15.7936 6.88151 16.0633 6.4263C16.0649 6.5407 16.0669 6.65742 16.0681 6.7711C16.1563 6.78197 16.1609 6.52394 16.2389 6.47876C16.2878 6.45068 16.3251 6.90597 16.3914 6.60034C16.4034 6.54399 16.3432 5.98667 16.5248 6.01996C16.6648 6.04584 16.5865 6.43372 16.6574 6.57613C16.7284 6.71852 16.9342 6.18613 16.952 6.80314C16.9166 6.71962 16.8678 6.67298 16.8265 6.60386C16.8019 6.72252 16.7779 6.83991 16.7537 6.9579C16.8645 6.80887 16.9592 6.99654 17.0426 6.71515C17.1518 7.1586 17.3314 6.76319 17.3181 6.26838C17.2685 6.33672 17.3055 6.55428 17.2503 6.41381C17.2505 6.29869 17.2502 6.18411 17.2503 6.06899C17.3578 6.08914 17.4316 6.09036 17.3623 6.43723C17.3784 6.44655 17.3942 6.45585 17.4102 6.46518C17.4283 6.21225 17.4461 5.95837 17.4642 5.70545C17.4858 5.67813 17.5074 5.65105 17.5288 5.62375C17.5474 5.68067 17.5659 5.73824 17.5845 5.79588C17.53 6.19454 17.48 6.20466 17.6313 6.43879C17.6405 6.30047 17.6498 6.16272 17.6589 6.0244C17.7913 6.20933 17.774 6.54464 17.9505 6.54384C17.7845 7.01509 17.7644 6.15902 17.7031 7.12249C17.6731 7.05705 17.6426 6.99075 17.612 6.92532C17.598 7.06472 17.5844 7.20436 17.5709 7.3438C17.7599 7.28148 18.1158 6.3826 18.1997 7.00078C18.2198 6.92751 18.2393 6.86396 18.26 6.78516C18.3527 7.16127 18.465 6.34002 18.5481 6.82414C18.5566 6.87497 18.4714 7.64783 18.6306 7.63229C18.6346 7.53128 18.6459 7.36162 18.6526 7.23433C18.6819 7.29879 18.7105 7.36611 18.7389 7.43195C18.7524 7.33943 18.7662 7.24697 18.7798 7.15376C18.7251 7.11303 18.67 7.07174 18.6141 7.03108C18.6653 7.00292 18.7166 6.97479 18.7673 6.94671C18.7166 6.78968 18.6877 6.78582 18.7452 6.54524C18.8016 6.53501 18.8577 6.52394 18.9132 6.5138C18.9239 6.45186 18.9346 6.38919 18.9454 6.32725C18.9342 6.13905 18.9222 5.95491 18.9106 5.76391C19.0411 5.92747 19.167 5.94644 19.2463 6.32179C19.2596 6.38519 19.1724 6.62162 19.3188 6.41436C19.3094 6.54283 19.3036 6.6473 19.2952 6.7661C19.4799 6.42036 19.5256 6.5327 19.6624 6.80748C19.5806 6.55545 19.6593 6.72178 19.6984 6.5947C19.7254 6.50714 19.6525 6.51345 19.6695 6.42066C19.6864 6.3285 19.8164 5.96243 19.7404 5.90956C19.4688 6.65974 19.5031 5.73525 19.2159 6.08288C19.2637 5.98703 19.3118 5.89101 19.3595 5.79524C19.3471 5.72637 19.336 5.6639 19.3222 5.59072C19.4509 5.75377 19.3903 5.64988 19.459 5.53646C19.5267 5.42292 19.6439 5.33206 19.7198 5.30636C19.7435 5.29828 19.7033 5.4685 19.7528 5.48941C19.7864 5.50379 19.9057 5.25733 19.8976 5.56082C19.8917 5.75833 19.6915 6.28395 19.8952 6.30282C19.9141 6.4989 19.8231 6.42951 19.8186 6.45248C19.7784 6.67948 19.8855 6.86377 19.9632 6.69533C19.9696 6.68076 19.941 6.49778 19.999 6.43307C20.137 6.27849 20.1843 6.49017 20.2294 6.77463C20.2708 6.45122 20.419 6.07563 20.5309 6.20976C20.5479 6.11781 20.5648 6.02501 20.582 5.93238C20.5568 5.97919 20.5316 6.02535 20.5064 6.07218C20.4916 6.01161 20.4735 5.96671 20.46 5.89581C20.5972 5.83057 20.6662 5.3864 20.7469 5.2303C21.0265 4.69797 20.7552 5.86193 20.694 6.06083C20.6771 5.97537 20.662 5.88044 20.6453 5.79084C20.6352 5.90397 20.625 6.01796 20.6145 6.13174C20.9254 6.16507 20.5746 6.86906 20.7058 7.09742C20.8139 6.54787 20.9343 6.50832 21.0355 6.87904C21.0521 6.8784 21.0685 6.87984 21.0852 6.87853C21.0985 6.79814 21.1148 6.67471 21.1263 6.62209C21.3166 6.5519 21.2262 7.40831 21.2315 7.49125C21.2545 7.85943 21.3805 7.37233 21.4028 7.37124C21.4955 7.36716 21.4852 7.59014 21.586 7.50897C21.6941 7.42128 21.6568 7.24318 21.7084 7.0968C21.7498 6.98062 21.8264 6.97082 21.8762 6.85167C21.848 6.95115 21.8189 7.04848 21.791 7.14841C21.8627 7.30154 21.92 7.44914 22.0207 7.50091C22.2683 6.78095 22.1535 8.04833 22.2918 7.02874C22.1975 6.9404 22.1645 6.816 22.1509 6.54801C22.2265 6.52691 22.297 6.50612 22.3753 6.48616C22.376 6.60089 22.371 6.7117 22.3742 6.82907C22.4695 6.6028 22.5661 6.72547 22.6288 6.66609C22.9125 6.38602 22.9291 5.9725 22.9921 6.6874C22.8321 6.72202 22.7666 7.04914 22.6355 6.97626C22.6203 7.21601 22.6992 7.18149 22.5982 7.45255C22.7427 7.40988 22.7524 7.15185 22.8517 6.9412C22.9384 6.75982 23.0337 6.76915 23.0821 6.52021C23.0622 6.65855 23.0407 6.79203 23.0203 6.9301C23.1086 6.94795 23.1999 6.9686 23.2858 6.98755C23.2155 7.12048 23.1458 7.25398 23.0768 7.38681C23.0922 7.44674 23.1071 7.50642 23.1213 7.56623C23.4437 7.17524 23.5826 8.07452 23.8322 6.9639C23.9484 6.95909 23.9191 7.09947 23.9152 7.32276C23.9461 7.24187 23.9728 7.17489 24.0068 7.08475C24.0484 7.1917 24.1925 6.89704 24.2301 6.99759C24.2654 7.09686 24.1822 7.39203 24.3531 6.90638C24.3451 7.05929 24.3441 7.18846 24.3368 7.33118C24.3978 7.22856 24.4589 7.12755 24.5208 7.0262C24.5357 7.09658 24.5519 7.16744 24.5662 7.2382C24.6713 7.01482 24.776 7.16843 24.9008 7.0417C24.8594 7.31135 24.5365 8.07917 24.714 7.99416C24.7951 7.80386 24.8756 7.61397 24.956 7.42336C24.9699 7.47678 24.9828 7.52987 24.9945 7.5829C24.9679 7.64498 24.941 7.70692 24.9143 7.76894C24.9084 7.74319 24.9025 7.71758 24.8963 7.69107C24.8621 7.80102 24.8271 7.91003 24.791 8.01921C24.9028 7.8845 25.0216 7.75366 25.1415 7.62413C25.1372 7.47904 25.1276 7.33264 25.1143 7.18594C25.261 7.08581 25.2551 7.25083 25.4017 7.13466C25.3942 7.16818 25.3861 7.19959 25.3774 7.22935L25.4056 7.24459C25.3234 7.44535 25.2364 7.57285 25.0981 7.77198C25.0943 7.78991 25.085 7.80529 25.0754 7.82113C25.0775 7.82026 25.0795 7.8194 25.0816 7.81855C25.1033 7.80299 25.1345 7.79331 25.1677 7.78371C25.0232 8.00937 24.9601 8.17431 24.8745 8.15531L24.9044 8.1715C24.8923 8.17007 24.8795 8.16427 24.8656 8.15362C24.8344 8.23677 24.8047 8.3161 24.7708 8.40188C24.7779 8.40073 24.7809 8.40645 24.7824 8.41444L24.7376 8.39016C24.7424 8.41034 24.7393 8.44258 24.7681 8.43164C24.8881 8.39268 25.1903 7.93776 25.2821 7.77045C25.328 7.68158 25.1775 7.8163 25.25 7.69486C25.4238 7.39714 25.4761 7.6047 25.4617 7.19851C25.6333 7.04392 25.5582 7.1914 25.6034 7.2893C25.6533 7.18564 25.7032 7.0828 25.7537 6.97946C25.7626 7.04502 25.7645 7.10641 25.7736 7.172C25.441 7.66219 25.5806 7.99299 25.1069 8.3204C25.165 8.38295 25.2093 8.43787 25.2662 8.50119C25.223 8.54651 25.1796 8.59109 25.1366 8.6365C25.1218 8.59171 25.1081 8.54809 25.0953 8.50516C25.0745 8.62025 25.0559 8.73573 25.0384 8.85258C25.187 8.77799 25.3189 8.60977 25.4842 8.40355C25.4792 8.18349 25.3864 8.42893 25.2881 8.4335C25.3707 8.29065 25.4406 8.15587 25.5313 8.00799C25.4004 8.32611 25.6519 8.18116 25.6854 8.18065C25.7968 8.18438 25.5655 8.44004 25.621 8.47895C25.6796 8.51946 25.8416 8.38091 25.7287 8.69918C25.8187 8.53573 25.909 8.36496 25.9883 8.21462C26.1116 8.21326 25.9854 8.39533 25.9807 8.42545C25.8999 8.91825 26.1751 8.61826 26.373 8.67534C26.3806 8.61318 26.3827 8.55437 26.3873 8.49455C26.7152 8.22506 26.5656 8.27949 26.5162 8.10113C26.6037 8.19624 26.8311 7.93736 26.9562 7.89329C27.0831 7.85036 27.1245 8.07411 27.1046 8.21864C26.8888 8.345 26.8425 8.15326 26.6947 8.13813C26.6141 8.31099 26.5475 8.45822 26.4579 8.64758C26.7272 8.34176 26.638 8.59817 26.6357 8.65787C26.6278 8.83232 26.7959 8.53395 26.654 8.87734C26.7156 8.76656 26.7676 8.67352 26.8249 8.56998C26.9449 8.70011 26.9834 8.98198 27.3153 8.63425C27.1695 8.90163 27.0272 9.15814 26.8793 9.4315C27.055 9.26907 26.9873 9.50161 27.0653 9.48563C27.1435 9.46975 27.2495 9.24657 27.3571 9.20043C27.377 9.19201 27.3207 9.3377 27.406 9.25644C27.491 9.17429 28.0322 8.50946 27.6606 9.15126C27.7094 9.18478 27.7433 9.23711 27.7866 9.27821C27.7163 9.28426 27.6469 9.28952 27.5775 9.29638C27.5255 9.47491 27.4731 9.6527 27.4204 9.83095C27.5089 9.69728 27.599 9.56118 27.6864 9.42925C27.9001 9.33117 27.8418 9.60291 27.986 9.61957C28.0101 9.62232 28.1335 9.32594 28.1738 9.44623C28.2138 9.56661 27.9589 10.1045 28.2193 9.9997C28.2325 9.99403 28.518 9.63914 28.3984 9.93491C28.3712 10.0019 28.267 10.0599 28.2423 10.1549C28.2177 10.25 28.2903 10.3884 28.1775 10.5803C28.2193 10.5136 28.2567 10.4406 28.2969 10.3713C28.3368 10.3524 28.377 10.3336 28.4169 10.3156C28.3428 10.4328 28.2688 10.5502 28.1951 10.6668C28.4814 10.4689 28.832 10.0697 28.9009 10.326C28.9671 10.1278 29.0325 9.92832 29.0965 9.7291C29.005 9.83805 28.9132 9.94792 28.8223 10.0573C28.7764 9.95911 28.7292 9.86114 28.6819 9.7631C28.5814 9.88966 28.4814 10.0161 28.3813 10.1429C28.3722 10.1121 28.3629 10.082 28.3537 10.0512C28.4219 9.95678 28.4898 9.8629 28.5582 9.76865C28.5017 9.76614 28.4449 9.76431 28.3888 9.76232C28.8428 9.23743 28.5893 9.96111 28.891 9.47227C28.861 9.55908 28.8305 9.64635 28.7998 9.73358C28.9603 9.50579 28.9545 9.59767 28.9966 9.67806C29.057 9.55353 29.1146 9.42938 29.1767 9.30427C29.1356 9.50894 29.2609 9.56971 29.2863 9.67668C29.2973 9.72357 29.1552 9.87133 29.1507 9.89687C29.1254 10.0293 29.4076 9.79518 29.4102 9.83075C29.4244 10.0415 29.1074 10.6344 29.4736 10.354C29.4188 10.1825 29.4563 10.265 29.5545 10.0353C29.5855 9.96343 29.5223 9.7246 29.6748 9.91743C29.6957 9.94161 29.7693 10.5627 29.4492 10.7681C29.5697 10.716 29.6891 10.6417 29.8102 10.5821C29.375 11.4196 29.8563 10.6866 30.108 10.273C30.1297 10.2865 30.1517 10.2968 30.1731 10.3129C29.8272 10.6861 30.0267 10.8757 30.2587 10.7335C30.3366 10.6865 30.3645 10.5026 30.4713 10.4888C30.4778 10.539 30.4813 10.6003 30.4859 10.6547C30.6421 10.3695 30.8039 10.3405 31.0071 10.0857C30.8816 10.3574 30.5337 10.8682 30.2942 11.1035C30.4223 11.0334 30.5513 10.9648 30.6815 10.8966C30.711 10.8205 30.7393 10.7444 30.7678 10.6677C30.778 10.9404 31.2712 10.7542 30.8423 11.29C30.8638 11.3027 30.8849 11.3162 30.9061 11.329C30.9897 11.2487 31.0734 11.1683 31.1574 11.0884C31.1724 11.2384 31.1857 11.3907 31.1917 11.5388C31.0719 11.5207 30.941 11.623 30.9599 11.4568C30.896 11.5793 30.8333 11.7044 30.7664 11.8249C31.1185 11.6696 31.3117 11.5268 31.3896 11.7702C31.3963 11.7838 31.2809 12.11 31.2585 12.1302C31.1706 12.2339 30.9975 12.3292 30.9521 12.3805C30.8308 12.5297 30.5374 12.93 30.4711 12.9624C29.754 13.4607 29.532 13.2271 29.3798 13.1518C28.0356 12.5483 26.7755 11.0595 25.1192 10.2458C25.1015 10.2378 25.0452 10.3553 25.0353 10.3561C24.9751 10.3597 25.0317 10.1592 25.0199 10.1431C24.9938 10.1087 24.9212 10.2825 24.8951 10.2682C24.6279 10.1162 24.4449 9.89097 24.1262 9.74927C24.1057 9.74013 24.1993 9.62101 24.1522 9.62479C24.1296 9.62511 24.0149 9.7258 23.9413 9.75583L24.0731 9.82725C24.0604 9.84013 24.0506 9.84769 24.0457 9.84612C23.9655 9.81972 23.9305 9.72276 23.836 9.68727C23.7863 9.6688 23.7147 9.61982 23.6512 9.6004C23.6229 9.59161 23.5604 9.68092 23.532 9.67473C23.4917 9.66591 23.5682 9.467 23.5663 9.45234C23.5568 9.38806 23.4793 9.60874 23.4557 9.59504C23.412 9.56894 23.4555 9.41883 23.3885 9.41165C23.3406 9.40673 23.198 9.49286 23.1295 9.51139C23.0391 9.29744 22.8324 9.31915 22.6786 9.34508C22.5883 9.36061 22.6276 9.14559 22.592 9.13833C22.4695 9.11548 22.314 9.36828 22.1993 9.3547C22.0404 9.33527 21.9348 9.12821 21.7806 9.08812C21.7558 9.08174 21.7278 9.28014 21.7023 9.28102C21.6068 9.28381 21.4839 9.3008 21.4058 9.25975C21.3182 9.21435 21.3255 8.92144 21.2265 8.96664C21.1971 8.9801 21.1525 9.23117 21.1029 9.25708C21.0237 9.29764 20.9748 9.06389 20.9286 9.03227C20.8641 8.98977 20.8895 9.25522 20.8008 9.2082C20.7971 9.2062 20.8075 9.0203 20.7859 9.02639C20.7237 9.04352 20.7078 9.18882 20.626 9.16434C20.6186 9.1614 20.5267 8.97163 20.5149 8.96952C20.4476 8.95835 20.3171 8.88052 20.274 8.91343C20.1157 9.02987 20.198 9.32028 20.1426 8.70416C20.0715 8.84546 19.9998 8.98884 19.9291 9.12622C19.9815 8.9966 19.8483 8.7873 19.8354 8.79863C19.7339 8.88967 19.7644 9.12982 19.6522 9.07921C19.8601 8.55274 19.5114 8.99438 19.4444 9.00222C19.1123 9.03827 18.8329 8.87785 18.5023 8.85551C18.3876 8.84798 18.2387 8.95231 18.1202 8.94102C18.0928 8.93889 18.1228 8.81179 18.0988 8.80729C18.0748 8.80366 18.0913 8.94992 18.0643 8.94032C17.894 8.87797 17.7855 8.59702 17.6043 8.92734C17.5998 8.8776 17.6025 8.8387 17.5932 8.78379C17.442 9.0804 17.2285 8.65557 17.1352 8.59373C16.9914 8.49758 16.9454 8.70207 16.8425 8.65463C16.7073 8.59139 16.5133 8.17722 16.5746 8.84777C16.4746 8.86354 16.3857 8.86488 16.2917 8.79827C16.2813 8.79073 16.2969 8.62187 16.2928 8.61818C16.2666 8.59257 16.2504 8.74365 16.2316 8.74973C16.1805 8.76605 16.2711 8.58854 16.197 8.63581C16.1577 8.66116 16.1303 8.79228 16.0239 8.7902C15.6491 8.7818 15.2544 8.75273 14.8546 8.72193C14.8348 8.72042 14.815 8.7189 14.7951 8.71739L15.2544 8.691C15.0099 8.71694 14.7735 8.74363 14.5378 8.77673C14.4951 8.78287 14.5502 8.93969 14.4956 8.93886C14.3079 8.93535 13.9279 8.72685 13.7783 8.79628C13.6277 8.86583 13.7082 9.09536 13.6301 9.21533C13.6151 9.23866 13.6041 9.10042 13.5867 9.10203C13.4695 9.11441 13.2927 8.93393 13.1917 8.92369C13.1256 8.91654 13.1748 9.12783 13.1357 9.15288C13.0775 9.18967 12.967 8.99043 12.9317 8.99156C12.7677 8.99888 12.6965 9.19928 12.5307 9.14849C12.5472 9.19383 12.5609 9.2362 12.5764 9.28107C12.4032 9.3178 12.2285 9.3568 12.0568 9.3971C12.0755 9.43766 12.094 9.47866 12.1129 9.51991C11.9093 9.55278 11.8122 9.08277 12.0806 10.0578C12.0752 10.0965 12.0705 10.141 12.0653 10.1769C11.9415 9.67028 11.7254 9.33558 11.5365 9.25298C11.5222 9.24663 11.5814 9.76217 11.4311 9.17757C11.4502 9.32592 11.4651 9.42775 11.483 9.558C11.4024 9.39172 11.3212 9.22768 11.2394 9.06216C11.229 9.09386 11.2182 9.12474 11.2079 9.15648C11.2374 9.2714 11.2727 9.38926 11.2986 9.50306C11.223 9.54571 11.0184 9.45767 10.9584 9.4934C10.8097 9.5822 10.7506 9.94523 10.524 9.65476C10.4759 9.70967 10.6055 9.91289 10.5098 9.91577C10.4635 9.80588 10.4192 9.7005 10.3711 9.58732C10.4638 10.1198 10.3502 9.81687 10.2172 9.74685C10.1271 9.6993 10.1255 9.83931 10.055 9.83878C10.037 9.83856 9.98829 9.68906 9.97904 9.69801C9.9474 9.72709 9.91552 9.97138 9.89252 9.98685C9.68193 10.1307 9.48024 10.1878 9.24369 10.2253C9.21847 10.2297 9.30532 10.3631 9.27916 10.3671C9.23722 10.3739 9.17167 10.1396 9.14499 10.1381C9.07087 10.1355 9.16405 10.3724 9.08356 10.4226C8.81894 10.5875 8.42282 10.5604 8.12451 10.6884C8.11545 10.6929 8.1792 10.83 8.17008 10.8362C8.10985 10.8745 7.95861 10.7216 7.90113 10.7531C7.80553 10.8049 7.8268 11.0338 7.73325 11.0822C7.55017 11.1778 7.33863 11.1676 7.14807 11.2666C6.99337 11.3468 6.87036 11.4403 6.7046 11.5363C6.27097 11.7874 5.93113 12.2035 5.55683 12.5517C5.30185 12.7899 4.99554 12.9435 4.58591 12.9719C4.55997 12.9736 4.49424 12.8672 4.49073 12.8738C4.45882 12.9397 4.55308 13.0775 4.3205 12.7964C4.27994 12.8794 4.40956 13.0991 4.29377 13.1074C4.23173 13.1116 4.0362 12.7819 4.06383 12.9697C4.08697 13.1362 4.31184 13.2885 3.91636 13.1594C3.90548 13.1554 3.7327 12.9797 3.71286 13.0369C3.69109 13.0917 3.85642 13.2116 3.74405 13.2644C3.47398 13.379 2.91281 13.2572 2.48509 13.275C2.46069 13.2779 2.22173 13.3179 2.18101 13.331C2.10535 13.3634 2.18798 13.4359 2.04187 13.4219C1.92633 13.4083 1.76797 13.324 1.6306 13.3101C1.61472 13.3085 1.63459 13.3607 1.51079 13.3259ZM17.4685 5.48513C17.5013 5.27549 17.5857 4.50155 17.6943 4.74534C17.7045 4.7683 17.609 5.29811 17.6711 5.38719C17.6018 5.43941 17.5363 5.45372 17.4685 5.48595C17.4685 5.48568 17.4685 5.4854 17.4685 5.48513ZM0.313797 12.7526C0.34183 12.6441 0.37465 12.5405 0.411771 12.4425C0.403228 12.5297 0.390473 12.6121 0.373333 12.6889C0.350028 12.7063 0.330191 12.7273 0.313797 12.7526ZM9.84933 5.97518C9.84924 5.9752 9.84915 5.97523 9.84906 5.97525C9.9169 5.84805 9.9858 5.72127 10.0556 5.59535C10.0662 5.67144 10.077 5.74786 10.0879 5.82396C10.0443 5.96032 10.0013 6.09699 9.95962 6.23414C9.92297 6.1478 9.88619 6.06151 9.84933 5.97518ZM9.33974 6.98009C9.25124 6.91232 9.21696 6.76059 9.1357 6.62822C9.13579 6.62849 9.13588 6.62876 9.13597 6.62903C9.11468 6.59461 9.06252 6.57534 9.04471 6.57495C9.08164 6.66502 9.11981 6.75335 9.15683 6.84257C9.09579 7.11103 8.53853 6.41282 8.79607 5.97483C8.82998 6.09274 8.86402 6.20997 8.8981 6.32788C9.06983 6.23645 9.34969 6.42652 9.33974 6.98009ZM18.962 5.25166C19.148 4.88242 19.2073 4.80623 19.3769 5.0846C19.3404 5.1904 19.304 5.29622 19.2676 5.40208C19.2455 5.289 19.2232 5.1767 19.2004 5.06363C19.2003 5.06362 19.2002 5.06361 19.2001 5.0636C19.1839 5.17897 19.1677 5.29454 19.1518 5.40994C19.088 5.35704 19.0259 5.30435 18.962 5.25166ZM3.7401 9.29499C3.2479 8.61174 3.52207 9.01624 3.52901 8.78705C3.53169 8.70739 3.41554 8.60684 3.42619 8.5711C3.48409 8.37636 3.79351 8.84757 3.92142 9.11316C3.86124 9.17437 3.79866 9.23558 3.74033 9.29484C3.74025 9.29489 3.74017 9.29494 3.7401 9.29499ZM1.01655 11.9586C1.01649 11.9587 1.01643 11.9588 1.01638 11.9589C0.954078 11.8903 0.969713 11.8187 0.875417 11.8077C0.902822 11.7631 0.930929 11.7191 0.960029 11.6742C0.95778 11.6948 0.954936 11.7152 0.952431 11.7355C0.982066 11.7505 1.01252 11.7666 1.04318 11.783C0.97831 11.6769 1.03111 11.7143 1.09031 11.7031C0.99661 11.6125 0.904794 11.5245 0.814954 11.4391C0.869145 11.4073 0.926544 11.3793 0.986478 11.3552C1.00972 11.3823 1.03304 11.4096 1.05633 11.4368C1.04024 11.3806 1.02286 11.3231 1.00511 11.2646C1.0366 11.2932 1.06794 11.322 1.09988 11.3513C1.09436 11.3003 1.08822 11.2484 1.08113 11.1953C1.15727 11.2758 1.15171 11.3662 1.19767 11.2503C1.2524 11.371 1.30434 11.4876 1.35344 11.6008C1.23865 11.7154 1.12425 11.8361 1.01655 11.9586ZM4.59676 8.47237C4.45386 8.59523 4.43176 8.45501 4.25958 8.07492C4.37227 8.20727 4.485 8.3395 4.59676 8.47237ZM13.5915 5.76744C13.5974 5.5032 13.6061 5.24139 13.6161 4.98622C13.6981 4.82592 13.8838 5.27352 13.8353 5.46907C13.7779 5.70378 13.6362 5.47591 13.5915 5.76744ZM16.1097 5.49947C15.9869 5.37403 16.1197 5.07257 16.1589 4.89517C16.1824 5.18421 16.2342 5.16116 16.3133 5.19836C16.2367 5.21343 16.1305 5.52077 16.1096 5.5003C16.1096 5.50002 16.1097 5.49975 16.1097 5.49947ZM11.4628 5.89769C11.4128 5.9173 11.379 6.00085 11.3116 5.9248C11.2652 5.67656 11.413 5.87781 11.2576 5.53019C11.2896 5.51626 11.3217 5.50256 11.3534 5.48808C11.3685 5.6433 11.424 5.74921 11.4624 5.8969C11.4626 5.89716 11.4627 5.89743 11.4628 5.89769ZM6.05065 7.35711C6.28513 7.59672 6.24264 7.46676 6.24736 7.22377C6.37044 7.45014 6.44036 7.89267 6.41222 8.01157C6.29223 7.79331 6.17171 7.57503 6.05065 7.35711ZM29.9286 9.21148C29.7352 9.44675 29.5612 9.37591 29.5351 9.25045C29.5692 9.21916 29.6038 9.18742 29.6385 9.15563C29.7348 9.17345 29.8316 9.19208 29.9286 9.21148ZM16.3506 5.22067C16.3376 5.21116 16.3251 5.20393 16.3133 5.19836C16.3269 5.19568 16.3396 5.20146 16.3506 5.22067ZM21.6042 7.00318C21.5213 7.28023 21.6267 7.39322 21.498 7.26064C21.498 7.26091 21.4979 7.26118 21.4979 7.26145C21.4116 7.17412 21.3924 7.15145 21.3028 7.1163C21.3871 6.75678 21.5968 6.65375 21.3446 6.54145C21.3412 6.54065 21.3178 6.7583 21.2814 6.72305C21.2702 6.71212 21.2545 6.52865 21.1988 6.46848C21.1809 6.44921 21.0354 6.37394 21.2438 6.39826C21.272 6.1434 21.3179 5.88779 21.3508 5.6413C21.4432 5.5809 21.4362 6.08668 21.526 6.08705C21.6577 6.08621 21.7975 5.59411 21.7227 6.25625C21.5938 6.40211 21.4085 6.37973 21.4381 5.97962C21.3355 5.96045 21.2621 6.28167 21.3222 6.45375C21.7101 6.30034 21.3521 6.94902 21.6984 6.73576C21.7161 6.64477 21.7442 6.54824 21.7554 6.46189C21.8023 6.79883 21.633 6.90389 21.6042 7.00318ZM20.9596 6.19962C21.0451 6.0131 21.1323 5.82537 21.2221 5.63905C21.1811 5.95545 21.1064 6.23426 20.988 6.40031C20.9788 6.33318 20.9692 6.26606 20.9596 6.19962ZM26.1021 7.62165C26.1942 7.47442 26.2927 7.34736 26.3889 7.21192C26.3325 7.34763 26.6561 7.68951 26.3884 7.70412C26.3476 7.70514 26.3247 7.34129 26.1021 7.62165ZM5.51592 7.93593C5.62354 8.02302 5.73025 8.11086 5.83605 8.19898C5.79896 8.30777 5.76372 8.41866 5.72919 8.52917C5.65745 8.33162 5.58617 8.13385 5.51592 7.93593ZM14.4927 5.92668C14.4696 5.92371 14.5057 5.6765 14.4246 5.72731C14.4655 5.56638 14.5067 5.42928 14.5491 5.2776C14.5856 5.38618 14.622 5.49431 14.6583 5.60294C14.6622 5.52905 14.6666 5.45554 14.6707 5.38164C14.6864 5.54554 14.7027 5.70548 14.7185 5.87219C14.5578 5.54015 14.594 5.93899 14.4927 5.92668ZM11.5027 7.18765C11.3949 6.83804 11.4941 6.59011 11.3309 6.57019C11.3008 6.33048 11.3165 6.1972 11.4004 6.15538C11.4364 6.24097 11.4722 6.32591 11.508 6.4115C11.452 6.17297 11.4532 6.07905 11.4628 5.89769C11.4629 5.89795 11.463 5.89821 11.4631 5.89847C11.5958 5.84974 11.6066 5.93122 11.7309 6.31494C11.5366 6.12692 11.6162 6.48565 11.5726 6.72133C11.5428 6.88344 11.4412 6.83833 11.5027 7.18765ZM25.6861 7.39595C25.9193 7.18038 25.9745 6.88937 25.9792 7.25815C25.9321 7.31966 25.8865 7.38129 25.8381 7.44207C25.7841 7.42572 25.7355 7.41139 25.6861 7.39595ZM10.6969 6.09846C10.8567 6.6443 11.0617 7.04685 10.8424 6.15006C10.701 5.99198 10.8815 6.4861 10.6969 6.09846ZM16.0271 6.36259C15.8524 6.32904 15.9118 5.7069 15.999 5.39834C16.0053 5.51226 16.0115 5.6264 16.0175 5.73962C16.0509 5.6895 16.0836 5.63926 16.1186 5.58993C16.0877 5.84723 16.0568 6.10523 16.0271 6.36259ZM7.82368 7.70636C7.79421 7.26422 7.59411 7.54634 7.585 7.26634C7.57908 7.04221 7.83582 7.39693 7.89893 7.65762C7.8768 7.67449 7.85105 7.69046 7.82393 7.70627C7.82385 7.7063 7.82377 7.70633 7.82368 7.70636ZM8.53174 7.3054C8.35514 6.89516 8.4312 7.00557 8.35492 7.11893C8.33342 7.15084 8.0363 7.08266 8.26849 7.39152C8.35229 7.35987 8.44299 7.33307 8.53174 7.3054ZM18.1348 5.86217C18.1238 6.04556 17.9098 6.43552 17.892 6.33329C17.892 6.33356 17.892 6.33383 17.892 6.33411C17.8446 6.05522 18.0466 6.02944 17.9852 5.647C18.1535 5.9912 18.2667 5.19383 18.1797 6.24906C18.0629 6.2875 18.1324 6.07356 18.1348 5.86217ZM31.307 11.4217C31.3071 11.4218 31.3072 11.4219 31.3072 11.4219C31.3052 11.4073 31.4149 11.1371 31.4891 11.0791C31.5327 11.2343 31.3831 11.3356 31.6847 11.2274C31.622 11.2977 31.5604 11.3652 31.4971 11.4359C31.422 11.4381 31.3218 11.4968 31.307 11.4217ZM26.344 8.18133C26.2788 8.19978 26.3022 7.98453 26.2516 7.96977C26.7715 7.38427 26.5983 8.10564 26.344 8.18133ZM2.21447 10.6434C2.21441 10.6431 2.21436 10.6428 2.2143 10.6425C2.21451 10.6428 2.2147 10.6432 2.21491 10.6435C2.21476 10.6435 2.21462 10.6434 2.21447 10.6434ZM23.1017 6.37902C23.0972 6.42883 23.0914 6.47171 23.0846 6.50897C23.0838 6.51245 23.083 6.51592 23.0823 6.5194C23.0889 6.47328 23.0955 6.42659 23.1017 6.37902ZM18.5348 5.83527C18.5936 6.09663 18.304 6.48366 18.2247 6.38071C18.239 6.26445 18.2474 6.15873 18.2709 6.0257C18.3188 6.33272 18.5249 5.79118 18.5348 5.83527ZM12.4541 6.16096C12.6605 6.1252 12.6062 7.18147 12.4258 6.38546C12.4228 6.36988 12.4489 6.1634 12.4541 6.16096ZM16.8862 5.83696C16.8168 6.14009 16.9195 6.22693 16.7514 6.16512C16.7455 6.08535 16.7397 6.0054 16.7337 5.92563C16.7848 5.89619 16.8356 5.86634 16.8862 5.83696ZM14.034 7.21724C14.2536 7.0043 14.454 6.66702 14.1473 5.86016C14.132 5.89021 14.1163 5.91943 14.1011 5.94949C14.166 6.35707 14.0567 6.14683 13.9489 6.15154C13.9615 6.3157 13.9099 6.36307 13.9229 6.50229C13.9482 6.77139 14.0461 6.94647 14.034 7.21724ZM3.80718 10.4758C3.76757 10.4097 3.72767 10.3433 3.68851 10.2778C3.67403 10.1827 3.66004 10.0875 3.646 9.99186C3.72273 10.1188 3.79951 10.2457 3.87637 10.3724C3.85338 10.407 3.83062 10.4415 3.80765 10.476C3.80749 10.476 3.80733 10.4759 3.80718 10.4758ZM20.6001 7.03174C20.7145 6.26558 20.6166 6.39725 20.4058 6.76731C20.472 6.85541 20.5364 6.94351 20.6001 7.03174ZM9.98206 7.88207C9.90784 7.66521 9.83378 7.44899 9.75902 7.23221C9.74575 7.48691 9.84308 7.73212 9.97462 8.00831C9.97713 7.96626 9.97937 7.92409 9.98206 7.88207ZM8.83369 8.39265C8.88422 8.42523 8.80127 8.25585 8.80609 8.25804C8.92622 8.31798 8.96707 8.39419 9.0237 8.22243C9.01976 8.17138 9.01484 8.11804 9.0106 8.06562C8.79563 7.62665 8.85039 7.88875 8.64589 7.65937C8.72313 7.80899 8.79994 7.9589 8.87657 8.10932C8.80688 8.09771 8.73744 8.0867 8.66742 8.07556C8.67883 8.12646 8.6901 8.1769 8.70161 8.2278C8.74541 8.28204 8.79256 8.34376 8.83369 8.39265ZM3.29151 10.5655C3.23088 10.5845 3.16961 10.6036 3.10911 10.6238C3.17645 10.7223 3.24431 10.8213 3.31161 10.9197C3.30535 10.8033 3.29863 10.6849 3.29151 10.5655ZM21.8762 6.85167C21.8872 6.81265 21.8982 6.77337 21.9088 6.73334C21.9005 6.78286 21.8891 6.82075 21.8762 6.85167ZM30.972 11.9705C30.9586 12.0717 31.0579 12.1034 31.0911 12.1679C31.3047 11.9782 31.1221 11.8913 31.2002 11.7245C31.1555 11.7518 30.9775 11.9277 30.972 11.9705ZM15.7832 6.32692C15.76 6.46815 15.7368 6.60871 15.7139 6.74996C15.6729 6.73291 15.6317 6.71502 15.59 6.69799C15.5841 6.81417 15.5781 6.93136 15.5721 7.04754C15.7635 6.90412 15.7067 7.23756 15.7829 7.5719C15.7832 7.15715 15.7835 6.74238 15.7832 6.32692ZM2.08301 12.1495C2.16785 12.0442 2.13342 11.9248 1.90733 11.7614C1.90694 11.8366 1.90464 11.9095 1.90063 11.9798C1.96086 12.0354 2.02178 12.092 2.08301 12.1495ZM24.1482 7.64484C24.2946 7.55693 24.1386 7.99855 24.3238 7.78756C24.3006 7.68704 24.2788 7.58667 24.2514 7.48597C24.2168 7.53864 24.1815 7.59159 24.1482 7.64484ZM18.7271 8.04958C18.7601 8.2157 18.9053 7.45042 18.9893 8.03133C19.0348 7.86397 19.0682 7.70327 19.1094 7.53906C19.1092 7.72154 19.1108 7.9065 19.1096 8.0875C19.1097 8.08751 19.1098 8.08751 19.1098 8.08752C19.2313 8.03669 19.1763 7.80294 19.1958 7.61095C19.2042 7.53138 19.2787 7.67227 19.2672 7.49647C19.2477 7.19461 19.0549 7.35036 19.085 6.98736C19.1383 7.11137 19.2683 7.02295 19.2537 6.77769C19.2374 6.50843 19.0829 6.94377 19.0265 6.71691C19.0832 7.30599 18.883 7.1087 18.8951 6.66111C18.7402 6.99312 18.8466 7.14212 18.975 7.13678C18.8689 7.47183 18.9983 7.29681 18.9949 7.58244C18.8986 7.74667 18.6357 7.58175 18.7271 8.04958ZM13.0195 7.55634C13.0994 7.51667 13.2692 7.68298 13.2716 7.3855C13.2735 7.21216 13.1135 7.11014 13.1554 6.83013C13.0759 6.87232 13.0773 6.97841 13.1369 7.20468C13.1234 7.23605 13.1096 7.26681 13.096 7.29753C13.0784 7.2546 13.0606 7.21232 13.0428 7.1694C13.0518 7.26575 13.0606 7.36137 13.07 7.45768C13.0463 7.44327 13.0224 7.42889 12.9986 7.41381C13.0059 7.46173 13.0103 7.50385 13.0195 7.55634ZM26.9395 9.07443C26.9168 9.06434 26.8943 9.05443 26.8714 9.0451C26.8453 9.09525 26.8184 9.14768 26.7919 9.19939C26.7707 9.24013 26.7495 9.28086 26.7283 9.3216C26.7982 9.17266 26.8365 8.87975 26.7044 9.00559C26.6389 9.06913 26.5314 9.36701 26.4135 9.36175C26.4874 9.38583 26.5695 9.3843 26.6455 9.39792C26.5932 9.47467 26.5406 9.55244 26.4884 9.62924C26.4884 9.62938 26.4884 9.62952 26.4883 9.62965C26.4986 9.65982 26.5087 9.69104 26.5191 9.72131C26.6592 9.50547 26.7991 9.29005 26.9395 9.07443ZM10.185 8.29236C10.2053 8.08666 10.2033 7.98471 10.0756 7.70444C10.0755 7.70433 10.0753 7.70422 10.0752 7.70411C10.086 7.84274 10.0973 7.98137 10.109 8.12017C10.1343 8.17752 10.1596 8.23508 10.185 8.29236ZM22.4037 7.92964C22.7886 6.86681 22.2698 7.46406 22.276 7.85269C22.2755 7.87023 22.4107 7.80531 22.4037 7.92964ZM16.0444 6.70712C15.9952 6.71398 15.9472 6.72004 15.898 6.72697C15.9032 6.86455 15.9087 7.00167 15.9138 7.13925C15.9573 6.99543 16.0002 6.85087 16.0444 6.70712ZM2.86488 12.2247C3.07494 12.4136 3.2668 12.4576 3.14064 12.1892C3.08782 12.1736 3.03515 12.1586 2.98275 12.1443C3.02065 12.0915 3.05444 12.0345 3.09149 11.98C2.85383 11.6599 2.92845 11.8784 2.76482 11.8449C2.7374 11.8361 2.35916 11.5256 2.5389 11.821C2.57508 11.8799 2.71009 11.8647 2.76408 12.0667C2.80672 12.0644 2.83257 12.0484 2.86885 12.0413C2.9263 12.1123 2.98387 12.1835 3.0417 12.2546C2.98254 12.2441 2.9236 12.2338 2.86488 12.2247ZM13.507 7.4231C13.6275 7.42378 13.6108 7.25265 13.5805 6.95021C13.5317 6.99422 13.4831 7.03783 13.4349 7.08207C13.459 7.19549 13.4828 7.309 13.507 7.4231ZM3.89449 11.8545C3.98176 11.8671 3.80798 11.6705 3.8024 11.6181C3.78121 11.4191 3.94617 11.5373 3.96178 11.3924C3.98535 11.4373 4.00745 11.4792 4.03034 11.5227C4.03042 11.5226 4.03049 11.5226 4.03056 11.5225C4.55142 11.4757 4.00311 11.0984 3.82294 11.3241C3.76151 11.2477 3.70024 11.1712 3.63928 11.0957C3.63209 11.3016 3.62621 11.4895 3.89449 11.8545ZM20.8911 7.72851C20.8889 7.78584 20.7976 8.13998 20.9033 7.9824C21.0389 7.46569 20.8956 7.71214 20.8936 7.50641C20.9233 7.45897 20.9533 7.41299 20.9828 7.36556C20.8624 7.19885 20.8309 7.32211 20.8295 7.71231C20.8294 7.73852 20.8927 7.6713 20.8911 7.72851ZM21.7276 8.11385C21.8714 7.34599 21.6472 7.6658 21.6162 7.90643C21.6378 7.91959 21.6763 7.79182 21.6915 7.85343C21.7069 7.91512 21.6844 8.0962 21.7276 8.11385ZM16.8342 7.45293C16.8392 7.45668 16.8725 7.78715 16.8813 7.53035C16.8511 6.91967 16.7006 7.30374 16.7123 7.51641C16.7555 7.50818 16.7887 7.41856 16.8341 7.45375C16.8342 7.45348 16.8342 7.45321 16.8342 7.45293ZM2.17119 12.607C2.1822 12.6163 2.37239 12.6525 2.33535 12.5808C2.28835 12.5009 2.2292 12.4167 2.17518 12.3332C2.16626 12.4347 1.98335 12.4316 2.17146 12.6069C2.17137 12.607 2.17128 12.607 2.17119 12.607Z" fill="#333333"/>
<path d="M29.3837 10.2954C29.1916 10.4697 29.2233 10.2046 28.9619 10.5055C28.923 10.4921 28.883 10.4791 28.8438 10.466C28.9651 10.393 29.0858 10.3197 29.207 10.2461C29.2663 10.262 29.3254 10.2782 29.3843 10.2951C29.3841 10.2952 29.3839 10.2953 29.3837 10.2954ZM30.9887 9.53779C30.6086 9.68004 30.4478 9.61605 30.1879 9.91291C30.3166 9.85943 30.4455 9.80663 30.5743 9.75401C30.5035 9.84831 30.4322 9.94139 30.3607 10.0324C30.4163 10.0249 30.4719 10.0176 30.5269 10.0108C30.3229 10.1362 30.1179 10.2603 29.9128 10.3832C29.935 10.351 29.9576 10.3184 29.9797 10.2861C29.7684 10.3045 29.6876 10.271 29.6027 10.1989C29.5567 10.2328 29.5112 10.2664 29.4651 10.3001C29.5248 10.2117 29.5844 10.1224 29.6429 10.0316C29.7509 10.0259 29.8709 10.0212 29.9711 10.0179C30.272 9.78429 30.0224 9.77139 29.9194 9.75488C29.779 9.73176 29.9479 9.66164 29.8473 9.64263C29.8315 9.63952 29.7068 9.70792 29.6939 9.69185C29.6298 9.61059 29.5851 9.40214 29.9379 9.33442C29.994 9.50316 30.3036 9.50242 30.3044 9.69927C30.618 9.48071 30.7781 9.49886 30.9887 9.53779ZM28.0382 7.52686C28.2297 7.4424 28.2385 7.5771 28.1778 7.71833C28.1778 7.7184 28.1779 7.71846 28.1779 7.71853C28.1646 7.74981 27.9801 7.9398 27.9543 7.89357C27.9129 7.81818 28.2125 7.52702 27.9607 7.66916C27.9887 7.62103 28.0114 7.57562 28.0382 7.52686ZM27.8942 7.40058C27.9386 7.29554 28.1999 7.11295 28.178 7.21841C28.1782 7.21825 28.1784 7.21809 28.1786 7.21793C28.1693 7.2619 27.9389 7.37726 28.2023 7.29406C28.0624 7.43346 27.936 7.5609 27.8006 7.69499C27.7821 7.67891 27.7635 7.66569 27.7447 7.64837C28.0081 7.45763 27.8502 7.50481 27.8942 7.40058ZM29.7461 9.34428C29.5062 9.47622 29.5265 9.50427 29.3939 9.64652C29.3724 9.59769 29.3511 9.54839 29.3289 9.49943C29.4681 9.44682 29.6068 9.39513 29.7461 9.34428ZM30.3605 10.4599C30.3606 10.4599 30.3606 10.46 30.3607 10.4601C30.4085 10.4577 30.4566 10.4556 30.5038 10.4538C30.4257 10.5 30.3482 10.5454 30.2709 10.5906C30.39 10.6045 30.5102 10.6194 30.6299 10.6369C30.3753 10.7341 30.3369 10.6329 30.1177 10.6644C30.1342 10.5618 30.2623 10.4559 30.4793 10.3503C30.4395 10.3871 30.3993 10.4236 30.3605 10.4599ZM29.8204 9.36888C29.8852 9.33282 29.9497 9.29636 30.0142 9.25999C30.0131 9.21556 30.007 9.17686 30.0092 9.12843C29.742 9.29842 29.9193 9.09403 29.8273 9.03464C29.5516 8.85728 29.2806 9.25316 29.5527 8.55176C29.698 8.7373 29.8592 8.43958 30.1338 8.35302C30.0239 8.51251 29.6242 8.72884 29.6323 8.85974C29.8918 8.82618 30.1356 8.7944 30.3585 8.81997C30.3769 8.79197 30.3955 8.76391 30.414 8.73593C30.3787 8.73209 30.3434 8.72841 30.308 8.72436C30.391 8.68006 30.4728 8.6356 30.5565 8.59039C30.3912 8.71233 30.5418 8.69703 30.3758 8.85882C30.3019 8.93087 30.1723 9.00613 30.086 9.06057C30.1007 9.14645 30.1199 9.23012 30.1381 9.31673C30.0557 9.35293 29.9724 9.38829 29.8905 9.42473C29.8669 9.40669 29.8439 9.38816 29.8202 9.36992C29.8203 9.36957 29.8203 9.36923 29.8204 9.36888ZM21.3942 16.1891C21.4879 15.9206 21.6506 15.8782 21.7321 16.1795C21.6194 16.1825 21.5076 16.186 21.3942 16.1891ZM30.658 10.2621C30.621 10.289 30.5844 10.3153 30.5476 10.3418C30.4486 10.3433 30.3503 10.3451 30.2526 10.3478C30.37 10.2847 30.4874 10.221 30.6042 10.1572C30.6215 10.1925 30.6391 10.2278 30.658 10.2621ZM29.1098 8.12545C29.1354 8.14471 29.1332 8.14963 29.1396 8.19165C29.1397 8.19154 29.1397 8.19144 29.1398 8.19133C29.1428 8.20786 29.1501 8.3557 29.0515 8.40705C29.0128 8.35901 28.9742 8.30562 28.9354 8.25546C28.9933 8.21188 29.0517 8.16981 29.1098 8.12545ZM29.4907 8.75134C29.4905 8.75154 29.4904 8.75174 29.4902 8.75194C29.4894 8.7793 29.4735 8.81482 29.4816 8.837C29.291 8.86165 29.5396 8.68441 29.423 8.66948C29.3058 8.65518 29.1379 8.71409 29.4493 8.42563C29.5159 8.40992 29.6061 8.38088 29.6818 8.36067C29.6053 8.54377 29.754 8.47979 29.9428 8.46385C29.7917 8.55983 29.6417 8.65524 29.4907 8.75134ZM29.2812 7.86163C29.1416 7.96536 29.2482 7.83167 29.248 7.82858C29.2482 7.82848 29.2484 7.82837 29.2486 7.82827C29.0042 7.80226 29.3342 7.78037 29.2347 7.63483C29.2838 7.6243 29.3347 7.612 29.3839 7.60067C29.3502 7.68618 29.3098 7.78061 29.2812 7.86163ZM25.9881 4.26172C25.9812 4.32585 25.9702 4.39017 25.9616 4.45418C26.2387 4.45688 26.7794 4.30961 27.0511 3.98919C27.3285 3.68626 27.3778 3.3728 27.2691 3.1962C27.2318 3.32433 27.1931 3.59371 26.8875 3.91504C26.5706 4.24133 26.1435 4.29011 25.9881 4.26096C25.9881 4.26122 25.9881 4.26147 25.9881 4.26172ZM29.1436 7.43687C29.3123 7.45896 29.4087 7.49989 29.3272 7.70134C29.3271 7.70156 29.3269 7.70177 29.3268 7.70199C29.3215 7.71396 29.1978 7.76497 29.1768 7.79098C29.2067 7.79808 29.2454 7.79978 29.2785 7.80508C29.1968 7.86827 29.115 7.93128 29.0338 7.994C29.0173 7.92503 29.0002 7.85569 28.9828 7.7861C28.94 7.82987 28.8979 7.87345 28.8551 7.91707C28.7953 7.89196 28.7357 7.86749 28.6755 7.84316C28.8242 7.75566 28.9729 7.66864 29.122 7.58167C29.1296 7.53345 29.1359 7.48581 29.1436 7.43687ZM26.6049 4.56719C26.6512 4.53302 26.7486 4.53795 26.7847 4.49664C26.8204 4.45588 26.7079 4.43566 26.8586 4.40239C26.8894 4.43253 26.9238 4.46307 26.9561 4.49254C27.0323 4.42481 27.0522 4.37643 27.0574 4.33714C27.0676 4.25922 27.0239 4.21851 27.2428 4.15442C27.2191 4.20498 27.215 4.2477 27.2263 4.2856C27.2445 4.34661 27.2996 4.39347 27.3761 4.43742C27.1173 4.52143 26.8579 4.4843 26.638 4.63313C26.6272 4.61143 26.6145 4.58894 26.6055 4.56727C26.6053 4.56724 26.6051 4.56722 26.6049 4.56719ZM33.5712 11.2115C33.5112 11.3197 33.435 11.5469 33.3075 11.683C33.2726 11.7182 33.0386 11.8489 33.0175 11.8513C32.9375 11.8616 32.9531 11.7524 32.8679 11.8811C32.877 11.8413 32.8833 11.8028 32.8913 11.763C32.8287 11.7812 32.7674 11.799 32.707 11.8162C32.7109 11.861 32.7137 11.9059 32.7157 11.9507C32.6977 11.9558 32.6798 11.9608 32.662 11.9658C32.6759 11.8022 32.5974 11.9103 32.5264 11.84C32.4926 11.9223 32.4652 12.0021 32.4426 12.079C32.4421 12.0366 32.4398 11.9866 32.4408 11.9485C32.3451 11.9595 32.3828 12.0424 32.3687 12.0597C32.2979 12.1559 32.2521 11.7267 32.0559 11.7343C32.065 11.8005 32.0777 11.8685 32.0907 11.9358C32.0643 11.9206 32.0367 11.9055 32.0081 11.8911C32.0411 11.73 32.0154 11.5579 32.0399 11.3633C32.0271 11.3496 32.0139 11.3359 32.001 11.3226C31.9304 11.3466 31.8605 11.37 31.7912 11.3933C31.7693 11.374 31.747 11.3551 31.7242 11.3367C32.0084 11.3317 31.948 11.2482 32.0696 11.0823C32.1854 11.1173 32.1525 11.2125 32.3143 11.1614C32.127 10.9763 32.2662 10.6418 32.0087 10.495C31.9422 10.4602 31.6478 10.5702 31.617 10.4482C31.6524 10.439 31.713 10.416 31.7581 10.4014C31.5205 10.2557 31.3549 10.1905 31.4172 9.91136C31.3033 9.97789 31.189 10.0438 31.0757 10.109C31.1579 10.1233 31.241 10.1383 31.322 10.1546C31.1436 10.2674 31.033 10.2646 31.1091 10.3815C31.1723 10.4774 31.2191 10.3853 31.2913 10.3889C31.3886 10.3951 31.2603 10.4872 31.3676 10.4929C31.449 10.4985 31.5803 10.4054 31.5861 10.5032C31.3775 10.5438 31.1562 10.5912 30.934 10.6422C30.9644 10.607 30.9964 10.571 31.0289 10.5343C31.0954 10.5308 31.1603 10.528 31.2254 10.5259C31.0869 10.4969 30.9519 10.4731 30.803 10.452C31.115 10.3466 30.9581 10.3234 30.8982 10.3008C30.8049 10.2655 31.0451 10.2247 30.9865 10.1999C30.9278 10.1741 30.6671 10.2402 30.6774 10.1452C30.8352 10.1205 30.9286 10.0099 31.0602 9.96111C31.1917 9.91244 31.2607 9.9826 31.3586 9.83905C31.1845 9.73837 30.8063 10.1011 30.6657 10.0683C30.661 10.0672 30.6565 10.0657 30.6523 10.0638C30.4993 9.99447 31.2637 9.57979 31.4501 9.53464C31.5605 9.50817 31.6014 9.56813 31.6772 9.58627C31.7021 9.5922 31.7307 9.5936 31.7669 9.58591C31.7766 9.56629 31.7836 9.54882 31.7883 9.53333C31.8547 9.30754 31.4374 9.50945 31.3373 9.52305C30.9471 9.57812 31.8745 9.20521 31.4834 9.23138C31.6505 9.14824 31.8007 9.07331 31.9611 8.99394C31.9186 8.98501 31.8703 8.98974 31.8314 8.97297C31.5522 9.22696 31.5304 9.14944 31.5116 9.1149C31.4817 9.06015 31.369 9.22819 31.3206 9.23471C31.1915 9.25289 31.2081 9.16646 31.0862 9.27896C31.1433 9.22733 31.1998 9.17384 31.2559 9.12134C31.1389 9.09872 30.3703 9.3385 30.5855 9.39457C30.3223 9.52136 30.4211 9.41291 30.4406 9.35819C30.4601 9.30359 30.2978 9.39495 30.3108 9.34955C30.3623 9.16759 30.6848 9.08353 30.914 8.98092C30.6714 8.90729 30.6632 9.11623 30.4287 8.95292C30.239 9.03662 30.1121 9.24566 29.9585 9.2241C30.2563 9.02863 30.4386 8.83547 30.463 8.65024C30.3852 8.68133 30.3067 8.71306 30.2289 8.74463C30.4689 8.50546 30.7839 8.3544 30.3543 8.44919C31.0403 8.11204 30.5997 8.32513 30.7882 8.04449C30.8259 7.98724 30.9935 7.9566 31.0402 7.88033C31.0611 7.84562 30.9377 7.87385 30.9917 7.78696C31.0188 7.7448 31.2114 7.49725 31.0565 7.51599C30.7742 7.76283 30.4402 7.83219 30.2443 8.09175C30.1964 7.88638 29.9671 7.86891 30.516 7.7713C30.5809 7.66575 30.6449 7.55945 30.7085 7.45233C30.6144 7.47218 30.5208 7.49204 30.4272 7.51275C30.6774 7.33306 30.752 7.28809 30.6255 7.19992C30.7208 7.20965 30.8168 7.21932 30.9125 7.23065C30.9649 7.19718 31.023 7.16801 31.0715 7.13206C30.9311 7.13315 30.7654 6.98073 30.6676 6.98528C30.5702 6.98993 30.6102 7.08678 30.5363 7.12066C29.9268 7.40203 30.3289 7.12791 30.1845 7.1213C30.0994 7.1187 30.1134 7.26225 30.0738 7.25643C29.9284 7.23543 30.1845 6.98842 30.1334 6.91079C29.9914 7.05679 29.8467 7.20366 29.7024 7.34831C29.6543 7.26655 29.5924 7.18198 29.4871 7.15182C29.446 7.13997 29.3422 7.25105 29.3308 7.25269C29.2727 7.2619 29.1383 7.22413 29.1305 7.2155C29.0741 7.14707 29.2377 7.01707 29.1922 6.94182C29.2276 6.95761 29.2603 6.973 29.2946 6.98881C29.5719 6.79334 29.8496 6.59891 30.1277 6.40462C30.0932 6.31811 30.0577 6.23177 30.022 6.14503C29.9731 6.26762 29.9244 6.3893 29.8745 6.51015C29.5963 6.59758 29.3179 6.68973 29.04 6.78629C29.14 6.64133 29.2397 6.49539 29.3389 6.34816C29.2145 6.26591 28.6977 6.72702 29.1237 6.29169C29.0576 6.29226 28.9915 6.29314 28.9259 6.29398C28.9964 6.24314 29.067 6.19221 29.1376 6.14151C29.0644 6.13689 28.9914 6.13247 28.9176 6.12917C28.7158 6.36699 28.5003 6.61233 28.3037 6.83999C28.1903 6.81153 28.3892 6.64318 28.4298 6.59059C28.5372 6.45114 28.3095 6.54433 28.4118 6.41854C28.447 6.37513 28.6406 6.33579 28.771 6.18326C28.7966 6.15463 29.2696 5.58276 29.0864 5.62775C28.9867 5.71531 28.8674 5.82603 28.76 5.92242C28.6266 5.89214 29.1136 5.39442 29.2704 5.27804C29.128 5.32096 29.0616 5.2617 28.8931 5.3932C28.8691 5.37353 28.8453 5.35396 28.8212 5.33436C29.2326 5.01437 29.0758 4.9787 28.7354 5.27099C28.7621 5.31772 28.7882 5.36501 28.8145 5.41178C28.3767 5.74434 28.2342 6.08147 28.3961 5.50096C28.5674 5.26354 28.4417 5.60995 28.5673 5.4294C28.6008 5.27963 28.467 5.28731 28.5578 5.08989C28.671 4.84313 28.9369 4.77744 28.5341 4.8078C28.3133 5.74932 28.0877 5.11496 27.732 5.10518C28.2613 4.51314 28.2917 4.17473 27.9119 4.12457C27.7752 4.30223 27.9228 4.28993 27.908 4.37974C27.8931 4.46926 27.7582 4.51885 27.7303 4.63864C27.7024 4.75833 27.6992 4.95722 27.632 5.11235C27.5022 5.15675 27.0951 5.16394 27.4797 5.04901C27.5421 4.79905 27.6586 4.59492 27.5665 4.44237C27.283 4.64817 27.1325 4.80244 27.008 4.69285C27.42 4.42311 27.5219 4.0511 27.9041 3.72862C27.9081 3.89775 27.5171 4.19067 27.4015 4.4028C27.39 4.42395 27.5544 4.41769 27.5665 4.44237C27.7972 4.05815 27.8832 3.91421 28.3008 3.60229C28.2114 3.57515 28.2213 3.49265 28.041 3.66163C28.105 3.57382 28.1688 3.48572 28.2328 3.39782C28.212 3.38048 28.188 3.37025 28.1693 3.34857C27.9336 3.64066 28.0422 3.42395 27.8853 3.50626C27.7283 3.58903 27.5719 3.84883 27.4657 3.74955C27.439 3.84604 27.4174 3.93023 27.3921 4.02157C27.259 4.02487 27.1244 4.0284 26.9915 4.03347C26.8787 4.24236 26.7401 4.58065 26.5262 4.7914C26.5761 4.68167 26.3348 4.72589 26.3182 4.72146C26.2538 4.70236 26.4093 4.58876 26.4093 4.5823C26.4059 4.45123 26.3045 4.44399 26.4774 4.21152C26.3359 4.25601 26.3481 4.16575 26.2882 4.11942C26.2868 4.11833 26.2852 4.11758 26.2834 4.11714C26.2481 4.11153 26.1213 4.25597 26.1342 4.21567C26.2235 3.93758 26.4767 3.7896 25.9638 4.04487C25.8953 4.17809 25.8209 4.31159 25.7446 4.44132C25.6922 4.47026 25.6412 4.50117 25.5925 4.53382C25.5989 4.50495 25.6055 4.47607 25.6117 4.44736C25.8015 4.19029 25.9919 3.93283 26.182 3.67597C26.1808 3.67166 26.1796 3.66737 26.1785 3.66309C26.1723 3.64057 26.166 3.6184 26.1595 3.5958C26.1832 3.59373 26.207 3.5919 26.2314 3.59065C26.2571 3.58952 26.2823 3.58835 26.3083 3.5881C26.3454 3.54569 26.3826 3.50329 26.4199 3.4611C26.4212 3.41761 26.4224 3.3743 26.422 3.33017C26.4218 3.26539 26.4199 3.19998 26.4148 3.13386C26.3523 3.22553 26.2895 3.31796 26.2273 3.40981C26.2077 3.21054 26.2123 3.11054 25.9995 3.34024C25.9706 3.32345 25.9029 3.42449 25.9219 3.56119C25.9321 3.69359 26.091 3.87252 26.3554 3.83326C26.4769 3.69806 26.5476 3.51463 26.5408 3.38853C26.6484 3.36664 26.7501 3.32805 26.8446 3.28921C26.7451 3.15185 26.6134 3.11448 26.493 3.10902C26.6263 3.0972 26.7124 3.08192 26.7809 3.08618C26.8444 3.10184 26.9183 3.07609 26.9352 3.31479C27.0979 3.26793 27.1519 3.07985 27.1348 3.02269C27.1349 3.08516 27.053 3.16992 26.9891 3.22045C26.9042 3.28807 26.6431 3.26525 26.6097 3.27665C26.5001 3.31696 26.596 3.39791 26.5783 3.4203C26.5071 3.51627 26.5233 3.57358 26.4749 3.66192C26.4648 3.67899 26.3147 3.75214 26.3107 3.75687C26.2876 3.79032 26.2245 3.8756 26.224 3.88403C26.1873 4.31428 26.7482 3.73712 26.7395 4.11858C26.8189 4.08647 26.8983 4.05562 26.9786 4.02423C26.9873 4.0496 26.9961 4.07512 27.0055 4.10008C26.9441 4.15161 26.8138 4.14479 26.9259 4.1842C26.8261 4.20738 26.7262 4.23039 26.6266 4.25288C26.6869 4.26801 26.7464 4.28149 26.8068 4.29581C26.6603 4.36021 26.5739 4.43538 26.4896 4.51048C26.384 4.60356 26.2799 4.69545 26.0583 4.75854C25.9224 4.79829 25.741 4.70266 25.6197 4.8207C25.6102 4.88995 25.7584 4.79859 25.7745 4.82021C25.8886 4.97437 25.6623 5.03926 25.7462 5.0901C25.8458 5.06795 25.9473 5.04531 26.0477 5.02225C26.0286 5.05762 26.0101 5.09403 25.9917 5.13072C26.058 5.11358 26.1243 5.09654 26.1905 5.0791C26.1859 5.05348 26.1803 5.0244 26.1768 5.00101C26.4358 4.94604 26.6489 5.17161 26.3997 5.14962C26.298 5.14004 26.3044 5.04563 26.0315 5.20576C26.1024 5.26723 26.1787 5.33641 26.2522 5.39747C26.1911 5.42531 26.1298 5.45309 26.0688 5.48105C26.1533 5.57166 26.3606 5.37104 26.4941 5.31759C26.5074 5.33928 26.5206 5.36167 26.5343 5.38372C26.4786 5.41901 26.42 5.45521 26.3666 5.49063C26.4623 5.45114 26.6887 5.36949 26.6369 5.47379C26.6035 5.54191 26.3331 5.57637 26.405 5.64861C26.5492 5.57554 26.7154 5.46636 26.8044 5.5365C26.6554 5.61576 26.5211 5.69331 26.3639 5.77516C26.5656 5.82463 26.3587 5.99526 26.5974 6.04944C26.7492 6.08517 27.1801 5.99293 26.6405 6.36384C26.661 6.43602 26.7914 6.33632 26.8336 6.33692C27.0322 6.3376 26.8019 6.55531 26.7962 6.58156C26.7575 6.74482 26.8778 6.73596 26.8064 6.89706C26.9058 6.82817 27.001 6.76491 27.0985 6.69879C26.8987 6.72025 26.8804 6.67479 26.8504 6.54792C26.8923 6.57128 26.9354 6.59481 26.9778 6.61786C27.0579 6.56108 27.1382 6.50452 27.2183 6.44857C26.6943 6.31988 27.27 6.09885 27.5373 6.28546C27.3959 6.402 27.2564 6.52041 27.1164 6.63955C27.4461 6.64791 27.2896 6.84508 27.3615 7.05106C27.3703 7.0754 27.5073 7.08873 27.5335 7.11646C27.5337 7.11554 27.5339 7.11462 27.5341 7.1137C27.6874 7.03329 27.7331 6.96151 27.856 6.86985C27.8831 6.8748 27.9104 6.88008 27.9377 6.88505C27.8692 6.98957 27.7823 7.03364 27.8577 7.0891C27.9442 7.01034 28.031 6.932 28.118 6.85387C28.1771 6.92725 28.1136 7.05308 28.211 7.08988C28.167 7.10503 28.123 7.12022 28.0789 7.13501C28.1094 7.35832 27.4733 7.65541 27.8365 7.56629C27.7957 7.61103 27.7544 7.65605 27.7139 7.70101C27.6623 7.65974 27.6109 7.61703 27.5601 7.57498C27.4923 7.62541 27.4247 7.6755 27.357 7.72609C27.4199 7.76664 27.4846 7.80701 27.548 7.84609C27.4717 7.8413 27.3949 7.83541 27.3181 7.82876C27.337 7.9193 27.3568 8.00969 27.3774 8.09981C27.5646 7.83659 27.665 7.90064 27.8909 7.69029C27.7781 7.95777 27.5963 8.26913 27.9058 8.29545C27.9675 8.30035 28.1124 8.13946 27.9996 8.40734C28.236 8.15759 28.4578 8.16384 28.6862 7.92992C28.6469 7.91003 28.611 7.88483 28.5699 7.86764C28.5156 7.97666 28.2897 8.19091 28.1726 8.19809C28.0223 8.20616 28.0992 7.96495 27.8406 8.1934C27.8287 8.1546 27.8136 8.12202 27.8008 8.08552C27.8758 8.04176 27.9509 7.99716 28.0254 7.95269C27.8579 7.96262 27.849 7.88302 27.986 7.71002C28.0995 7.77012 28.2138 7.82924 28.3275 7.88503C28.3273 7.86241 28.327 7.83955 28.3266 7.81729C28.551 7.73937 28.6495 7.53515 28.7906 7.62387C28.7143 7.68992 28.6381 7.75615 28.5614 7.8225C28.8033 7.68919 28.9084 7.80688 29.1045 7.56106C29.0656 7.65989 29.028 7.70811 29.1694 7.61457C29.079 7.86448 28.9218 8.13227 28.6295 8.34183C28.7053 8.33867 28.7808 8.33477 28.8558 8.33006C28.9067 8.24234 28.9577 8.15522 29.0094 8.06813C29.0626 8.13299 29.1155 8.19641 29.1706 8.26052C28.9694 8.46775 28.995 8.20558 28.8437 8.41988C28.8134 8.463 28.9248 8.41865 28.9122 8.44746C28.7761 8.75978 28.7984 8.45614 28.6514 8.65153C28.7327 8.8417 28.3364 9.01712 28.7671 8.96756C28.7132 9.03154 28.6586 9.09714 28.6048 9.16052C28.6676 9.23005 28.7949 9.09102 28.8772 9.12201C28.9284 9.14116 28.7438 9.4231 28.9402 9.29955C28.9758 9.27603 29.191 8.92231 29.3167 9.06729C29.4167 9.18129 29.1744 9.34556 29.1647 9.47581C29.1554 9.60661 29.5622 9.44272 29.2983 9.81136C29.3069 9.73819 29.2881 9.677 29.2859 9.60818C29.2121 9.65919 29.1394 9.70988 29.066 9.76044C29.2226 9.75213 29.2175 9.92883 29.4123 9.82394C29.3023 10.157 29.626 10.0498 29.8348 9.75154C29.7645 9.75813 29.6973 9.90975 29.7154 9.7907C29.7669 9.72378 29.8179 9.65694 29.8694 9.59007C29.9463 9.67357 30.0052 9.72339 29.7953 9.87974C29.8041 9.89595 29.8128 9.91201 29.8215 9.92816C29.9483 9.79232 30.0752 9.65571 30.2019 9.51982C30.2313 9.51805 30.2602 9.5161 30.2897 9.51454C30.2798 9.56052 30.2697 9.60686 30.2596 9.65334C30.0392 9.85066 29.9928 9.82199 30.0155 10.0636C30.0839 9.98831 30.1521 9.91352 30.2204 9.83827C30.2438 10.0329 30.0831 10.2195 30.2279 10.3377C29.8858 10.5046 30.2441 9.98533 29.7721 10.5131C29.7768 10.4548 29.7815 10.3957 29.7859 10.337C29.7132 10.4097 29.6405 10.4826 29.568 10.5554C29.7454 10.6428 30.4376 10.3564 30.2306 10.7751C30.2788 10.745 30.3222 10.7203 30.3734 10.6874C30.2795 10.9688 30.7371 10.5638 30.588 10.9046C30.5721 10.9404 30.1606 11.3368 30.2885 11.4317C30.3372 11.3755 30.4225 11.284 30.4852 11.2142C30.4786 11.2712 30.4696 11.3291 30.4604 11.3855C30.5128 11.3407 30.5654 11.2962 30.6182 11.2511C30.596 11.1917 30.5724 11.1311 30.5468 11.0697C30.5996 11.0876 30.652 11.1055 30.7034 11.1229C30.7361 10.9978 30.7144 10.9755 30.8683 10.8742C30.9178 10.9072 30.9638 10.9364 31.0143 10.9717C31.0512 10.9434 31.0885 10.9148 31.1255 10.8866C31.2028 10.7695 31.2753 10.6521 31.3534 10.5333C31.3889 10.726 31.4795 10.8289 31.3622 11.1018C31.3417 11.1473 31.1626 11.2156 31.3717 11.2072C31.3018 11.2715 31.2462 11.325 31.1817 11.3845C31.487 11.3312 31.4695 11.4341 31.4063 11.6761C31.4919 11.4875 31.4511 11.6302 31.5453 11.5977C31.6107 11.5757 31.5599 11.5203 31.6208 11.4866C31.6804 11.451 31.9723 11.3835 31.9451 11.2861C31.3518 11.4398 31.8505 10.9754 31.4526 10.9439C31.536 10.9258 31.62 10.9088 31.7042 10.893C31.7276 10.8445 31.7487 10.8004 31.7723 10.7478C31.7987 10.9441 31.7974 10.8344 31.911 10.8311C32.0257 10.8294 32.1643 10.8802 32.2441 10.9467C32.2683 10.9665 32.1472 11.0174 32.1769 11.0781C32.1956 11.1168 32.4265 11.12 32.2553 11.2686C32.1374 11.3553 31.7114 11.4281 31.8362 11.6288C31.734 11.7368 31.7181 11.6224 31.7015 11.6293C31.5509 11.708 31.5004 11.8691 31.6403 11.8621C31.6531 11.8625 31.748 11.7569 31.8195 11.7835C31.99 11.8491 31.8803 12.004 31.6954 12.1151C31.724 12.1091 31.7535 12.1042 31.7833 12.1008C32.0012 12.0831 32.2268 12.1091 32.1835 12.2383C32.2516 12.2253 32.3202 12.2116 32.3887 12.1981C32.3481 12.1897 32.3077 12.1801 32.2675 12.1724C32.3034 12.1407 32.3274 12.11 32.3717 12.0787C32.461 12.1776 32.7861 12.1005 32.9222 12.1322C33.4024 12.3055 32.5019 12.3485 32.3461 12.3536C32.3966 12.3071 32.4537 12.2588 32.5074 12.2134C32.4278 12.2403 32.3475 12.2674 32.2673 12.2942C32.3641 12.6326 31.7609 12.5006 31.6409 12.6687C32.0539 12.5874 32.1135 12.8447 31.8146 12.8393C31.8119 12.8498 31.8067 12.8602 31.8028 12.8713C31.853 12.9049 31.9312 12.9539 31.9621 12.9795C31.8849 13.2002 31.4262 12.7264 31.3856 12.6874C31.1826 12.5086 31.3771 12.8252 31.3612 12.8408C31.3019 12.8987 31.1912 12.7738 31.1631 12.8753C31.1269 12.9877 31.2452 13.0633 31.2803 13.1747C31.3091 13.2626 31.2493 13.3168 31.2686 13.4133C31.2408 13.3413 31.2157 13.2693 31.1879 13.1968C31.05 13.1571 30.9322 13.1068 30.8188 13.1394C30.8626 13.2911 30.851 13.3425 30.8208 13.3505C30.7392 13.3727 30.5411 13.0896 30.8263 13.5664C30.8662 13.5654 30.905 13.5692 30.9434 13.5806C31.0199 13.6031 31.0903 13.658 31.1902 13.7508C31.1549 13.7877 31.1254 13.8208 31.0905 13.8567C31.0696 13.8784 31.0477 13.9007 31.0285 13.9218C30.9707 13.8574 30.9193 13.792 30.8572 13.7277C30.889 13.913 30.7442 13.9026 30.7219 13.9742C30.6627 14.1857 30.7248 14.3672 30.6653 14.3736C30.6293 14.3781 30.5518 14.3291 30.3971 14.1858C30.4581 14.1295 30.4623 14.047 30.4656 13.9736C30.4709 13.891 30.4782 13.8183 30.5568 13.7999C30.4464 13.652 30.3933 13.7178 30.3401 13.5011C30.3003 13.5407 30.2916 13.5874 30.2988 13.6394C30.3151 13.7275 30.3731 13.8331 30.3893 13.9492C30.4111 14.108 30.3158 14.161 30.3987 14.3438C30.3455 14.2468 30.2959 14.1516 30.2449 14.0531C30.1601 14.0897 30.0643 14.1254 29.976 14.1563C29.976 14.0312 29.9756 13.9064 29.972 13.7845C29.9298 13.7518 29.8857 13.7192 29.8462 13.6844C29.8145 13.851 29.6862 13.8649 29.5864 13.8734C29.4351 13.8883 29.3149 13.9014 29.4784 14.4331C29.3734 14.4883 29.3318 14.3767 29.2343 14.2164C29.2424 14.2874 29.248 14.3467 29.2574 14.4256C29.172 14.3675 29.1687 14.6403 29.0899 14.5847C29.0115 14.5293 28.951 14.2838 29.0166 14.7028C28.952 14.5909 28.895 14.4983 28.8352 14.3937C28.8268 14.4929 28.8174 14.5909 28.8076 14.6895C28.7599 14.6461 28.7122 14.6027 28.6648 14.5589C28.674 14.7624 28.5084 14.6985 28.4569 14.8424C28.3617 14.6349 28.2743 13.9541 28.1454 14.0939C28.1697 14.2626 28.1939 14.4307 28.2184 14.5994C28.1796 14.5683 28.1408 14.5372 28.1019 14.5059C28.0934 14.4509 28.0852 14.3958 28.0768 14.3408C28.0963 14.3559 28.1156 14.3709 28.1352 14.3865C28.1089 14.2948 28.0833 14.2035 28.0577 14.1118C28.0225 14.2562 27.9835 14.4007 27.9465 14.5449C28.0282 14.6423 28.1142 14.7389 28.1989 14.8352C28.1226 14.9702 28.042 14.8535 27.979 15.0004C27.8857 14.7737 27.8979 14.6362 27.8983 14.3795C27.8758 14.4038 27.8528 14.4273 27.83 14.4515C27.8205 14.1958 27.7644 14.0489 27.9084 14.0545C27.8909 13.9831 27.8737 13.9152 27.8564 13.8409C27.8345 13.8547 27.8132 13.7951 27.7908 13.8256C27.7299 13.9091 27.7179 14.3606 27.7376 14.5167C27.7483 14.5984 27.8042 14.4347 27.8128 14.5508C27.8343 14.8339 27.6547 14.7237 27.9229 14.9835C27.8615 15.1714 27.8294 15.0376 27.7359 14.994C27.7517 15.0876 27.7673 15.1805 27.783 15.2741C27.7373 15.2346 27.6909 15.1952 27.6468 15.1554C27.6579 14.6666 27.3529 14.51 27.5754 14.0638C27.4977 14.0489 27.4196 14.0335 27.341 14.0168C27.3529 13.9658 27.3647 13.9152 27.3762 13.8642C27.4127 13.8877 27.4489 13.9107 27.4853 13.9335C27.4373 13.8461 27.3896 13.7591 27.3421 13.6715C27.2564 13.7918 27.2308 13.9679 27.2031 14.1851C27.3267 14.3329 27.2751 14.1223 27.3591 14.073C27.3669 14.2087 27.381 14.333 27.3846 14.476C27.316 14.1992 27.1836 14.4144 27.1498 14.4305C27.0474 14.4795 27.1109 14.1979 27.0405 14.1969C26.9704 14.1958 26.8958 14.3654 26.8233 14.095C26.8334 14.2484 26.8474 14.4069 26.8599 14.5463C26.753 14.6032 26.7644 14.4205 26.7518 14.3977C26.5491 14.0217 26.47 14.3525 26.2627 14.401C26.2912 14.4474 26.3198 14.4892 26.3485 14.5328C26.2045 14.8655 26.3066 14.7614 26.4491 14.8628C26.3191 14.8361 26.2558 15.1168 26.1668 15.203C26.0784 15.289 25.9154 15.1516 25.8545 15.0421C25.9808 14.8591 26.1239 14.9722 26.2688 14.9168C26.2457 14.761 26.2243 14.6293 26.2004 14.458C26.1254 14.7899 26.0665 14.5721 26.0362 14.5296C25.9474 14.4048 25.9593 14.6866 25.8982 14.385C25.9037 14.4892 25.908 14.5769 25.9133 14.6743C25.7347 14.6365 25.5442 14.4567 25.4375 14.8446C25.4214 14.5942 25.4083 14.3529 25.3909 14.0973C25.3216 14.2876 25.2547 14.0955 25.1937 14.1408C25.1327 14.186 25.1597 14.3882 25.0879 14.4674C25.0745 14.4819 25.0445 14.3556 25.0126 14.4495C24.9808 14.5441 24.8646 15.2446 24.8426 14.6341C24.7798 14.6319 24.7201 14.6102 24.6586 14.6004C24.7182 14.5655 24.7778 14.5315 24.8369 14.4965C24.7843 14.349 24.7324 14.202 24.6804 14.0544C24.6751 14.1864 24.6698 14.3208 24.6646 14.4511C24.5285 14.6129 24.4275 14.3977 24.2893 14.4492C24.2662 14.4579 24.3217 14.7187 24.2186 14.6525C24.1152 14.5861 24.0391 14.0993 23.8647 14.2871C23.856 14.2968 23.803 14.6697 23.741 14.4113C23.7269 14.3527 23.7872 14.2663 23.7547 14.1893C23.7222 14.1124 23.5767 14.0486 23.5664 13.8654C23.5676 13.9303 23.5763 13.9975 23.5804 14.0635C23.5554 14.0943 23.5302 14.1252 23.5049 14.1554C23.5032 14.0413 23.5013 13.9269 23.4996 13.8133C23.3556 14.0781 23.277 14.511 23.0663 14.3657C23.1244 14.5321 23.1828 14.699 23.2412 14.8653C23.2586 14.7489 23.2759 14.6318 23.2929 14.5155C23.3909 14.5626 23.4892 14.6094 23.587 14.6563C23.6038 14.5239 23.6202 14.3918 23.6368 14.2593C23.6627 14.2766 23.6884 14.2934 23.7143 14.3107C23.7075 14.4065 23.7006 14.5018 23.6934 14.5975C23.7451 14.5742 23.7969 14.5504 23.8483 14.5269C23.7421 15.0923 23.5566 14.4778 23.5681 14.9509C23.5452 14.8774 23.5224 14.8034 23.4996 14.7293C23.4882 14.9586 23.4414 14.8924 23.3581 14.8556C23.3765 14.9688 23.3969 15.0804 23.4138 15.1947C23.3333 15.0347 23.1895 15.0491 23.1064 14.987C23.07 14.9597 23.1081 14.7937 23.0974 14.7741C23.0427 14.6715 22.9318 14.9606 22.9097 14.9374C22.7764 14.7995 22.6972 14.2484 22.5458 14.6092C22.6961 14.7005 22.6142 14.6617 22.6659 14.8637C22.6819 14.9271 22.8754 15.061 22.6317 14.9997C22.6018 14.9922 22.1654 14.6064 22.3143 14.317C22.2412 14.409 22.1832 14.5157 22.1163 14.6135C21.9665 13.8438 22.0122 14.5656 22.0533 14.9633C22.027 14.9646 22.002 14.9683 21.9751 14.968C22.039 14.5517 21.744 14.5217 21.6426 14.7309C21.6085 14.8005 21.6994 14.9352 21.6219 14.9973C21.5859 14.9675 21.545 14.9291 21.5061 14.8959C21.5593 15.1605 21.4465 15.2607 21.4446 15.5292C21.377 15.289 21.33 14.7813 21.3723 14.507C21.3124 14.6175 21.2533 14.7279 21.1936 14.839C21.2202 14.903 21.246 14.9665 21.2722 15.0305C21.0825 14.8593 20.837 15.2404 20.8008 14.6761C20.7752 14.6798 20.7495 14.683 20.7241 14.6868C20.7154 14.782 20.7069 14.8773 20.6982 14.9725C20.5855 14.8888 20.4723 14.8047 20.3579 14.7215C20.4594 14.663 20.4884 14.5276 20.5919 14.6386C20.5523 14.5287 20.5113 14.4182 20.4708 14.3084C20.3049 14.6022 20.2882 14.7957 20.0429 14.7075C20.0316 14.7034 19.8515 14.4562 19.843 14.4322C19.8133 14.3222 19.8573 14.162 19.8441 14.1064C19.8068 13.9503 19.5859 13.5599 19.5898 13.5009C19.6343 12.7737 20.3899 12.7642 20.5883 12.7297C22.654 12.3629 24.603 12.9373 26.5172 12.753C26.5368 12.7507 26.5227 12.6442 26.5308 12.6392C26.5811 12.6096 26.6408 12.7734 26.6603 12.7792C26.7018 12.7911 26.6706 12.6384 26.7001 12.6366C27.0061 12.6204 27.2979 12.6897 27.5925 12.6345C27.6116 12.6309 27.604 12.7556 27.6358 12.7305C27.6524 12.7169 27.6874 12.5231 27.7252 12.5162C27.8604 12.492 27.9789 12.5392 28.1184 12.5178C28.1958 12.5059 28.3072 12.5062 28.3909 12.4901C28.4276 12.4831 28.4513 12.3916 28.4856 12.3829C28.534 12.3706 28.5537 12.5452 28.5632 12.5546C28.6052 12.5957 28.5751 12.4054 28.6082 12.4041C28.6686 12.4023 28.696 12.5282 28.767 12.5031C28.8167 12.4853 28.9137 12.3608 28.9649 12.3178C29.0359 12.3651 29.1093 12.3734 29.1709 12.3622C29.2551 12.347 29.3331 12.3033 29.3838 12.2725C29.4384 12.2409 29.5042 12.4061 29.5296 12.4033C29.5898 12.397 29.5946 12.2921 29.599 12.2376C29.6248 12.2031 29.6537 12.1755 29.6915 12.1632C29.8431 12.1142 30.0268 12.1624 30.1675 12.1246C30.187 12.1193 30.2056 12.1129 30.223 12.105C30.2466 12.0942 30.1695 11.9666 30.1904 11.951C30.2678 11.8937 30.3466 11.8185 30.4155 11.8023C30.4875 11.7866 30.627 11.9537 30.6438 11.8898C30.6477 11.8715 30.5431 11.7138 30.5351 11.6898C30.5221 11.6525 30.6046 11.7983 30.5834 11.8479C30.5411 11.9346 30.4672 11.7135 30.3612 11.8982C30.3556 11.9084 30.4495 12.014 30.416 12.0591C30.3191 12.2143 30.1966 12.1615 30.1363 12.5211C30.1338 12.5377 30.152 12.6684 30.1886 12.756C30.224 12.8459 30.2655 12.8876 30.2665 12.8952C30.2921 13.0192 30.3176 12.909 30.2737 12.8652C30.1285 12.7188 29.9706 12.9197 30.3539 12.6242C30.2655 12.5877 30.1761 12.5477 30.087 12.4968C30.0578 12.5184 30.0295 12.5407 30.0022 12.5635C30.0914 12.5179 30.2556 12.555 30.2443 12.5472C30.1826 12.5912 30.0247 12.6652 30.0566 12.6625C30.4107 12.4739 30.0996 12.6295 30.0723 12.6086C29.9661 12.5381 29.8636 12.275 29.6389 12.0617C29.5619 11.9884 29.3988 11.9508 29.3124 11.8679C29.2923 11.8491 29.3715 11.7934 29.355 11.7753C29.3379 11.7576 29.2862 11.8546 29.2694 11.8314C29.164 11.6839 29.1946 11.4412 28.8995 11.5113C28.9176 11.4789 28.937 11.4578 28.9535 11.4192C28.7024 11.4941 28.6992 11.0838 28.6501 10.9827C28.5708 10.8229 28.4404 10.9082 28.372 10.8031C28.2804 10.6626 28.3095 10.283 28.0537 10.7121C27.9628 10.647 27.8796 10.573 27.8305 10.4622C27.825 10.4497 27.9171 10.3666 27.9153 10.3613C27.9048 10.3263 27.8203 10.3986 27.8012 10.3871C27.7495 10.3556 27.9106 10.3277 27.8248 10.2955C27.7794 10.2787 27.6933 10.3298 27.6036 10.2432C27.0656 9.72207 26.5214 9.06615 26.0527 8.39495C26.0203 8.34877 25.9461 8.44924 25.9104 8.38677C25.7846 8.17019 25.707 7.69045 25.575 7.52295C25.4404 7.35321 25.317 7.48417 25.1851 7.40215C25.1597 7.38622 25.2563 7.35563 25.2458 7.33418C25.1736 7.19 25.218 6.94695 25.1809 6.82357C25.1561 6.74103 25.0205 6.81749 24.9836 6.76873C24.929 6.69557 25.0304 6.54309 25.0153 6.49925C24.9425 6.29221 24.7637 6.19882 24.7449 5.98143C24.7163 6.00183 24.6889 6.01877 24.6603 6.03793C24.572 5.80646 24.4906 5.56747 24.4193 5.32965C24.3932 5.35052 24.3667 5.37119 24.3402 5.39239C24.3108 5.28112 24.3444 5.20198 24.3562 5.16163C24.3747 5.09809 24.3388 5.12786 23.9246 5.27061C23.8937 5.25654 23.8581 5.24185 23.829 5.22832C24.185 5.12988 24.3883 4.88742 24.3936 4.65746C24.3957 4.64128 23.9882 4.62536 24.4203 4.53315C24.3042 4.53169 24.2244 4.53282 24.1211 4.53221C24.2308 4.45771 24.3407 4.38413 24.4546 4.31199C24.4245 4.29316 24.3947 4.27368 24.364 4.2545C24.2751 4.26951 24.1858 4.29142 24.0962 4.30186C24.0279 4.19378 24.0274 3.93956 23.9761 3.85489C23.8912 3.71672 23.7072 3.58483 23.6453 3.44635C23.6096 3.16807 23.4982 2.6756 24.0655 1.87783C24.4311 1.3201 24.489 1.29877 24.5116 1.19306C24.5338 1.14422 24.575 1.07546 24.7383 0.958872C24.8949 0.846827 25.2043 0.689141 25.5887 0.632828C25.7664 0.709384 25.9065 0.803267 26.013 0.911196C26.7695 0.4758 26.7975 0.83065 27.1066 1.04123C27.2905 1.18894 27.4464 1.13741 27.5753 1.23687C27.607 1.26234 27.523 1.37947 27.5475 1.38879C27.5966 1.40787 27.7269 1.40287 27.8301 1.40489C27.8999 1.40656 27.9582 1.40949 27.9772 1.42143C28.1739 1.54245 28.3292 1.66804 28.469 1.80589C28.5761 1.91414 28.6717 2.03466 28.7638 2.16618C28.7827 2.19248 28.8522 2.06163 28.8714 2.08929C28.9025 2.13369 28.7283 2.26755 28.7425 2.29689C28.7829 2.37779 28.9444 2.21444 29.037 2.29157C29.3424 2.54658 29.53 2.99915 29.7925 3.31797C29.8011 3.32762 29.8976 3.23633 29.9079 3.24601C29.9736 3.31076 29.9032 3.50239 29.9589 3.56359C30.051 3.6657 30.2559 3.6205 30.3436 3.72638C30.5153 3.93319 30.5955 4.18138 30.7623 4.40177C30.8984 4.5827 31.0314 4.72809 31.1795 4.92911C31.8236 5.79713 32.7622 6.54404 33.1127 7.69062C33.1214 7.71963 33.0239 7.76098 33.0319 7.76672C33.1101 7.82 33.238 7.75825 32.9908 7.93001C33.09 7.99732 33.3017 7.92215 33.3449 8.05028C33.3678 8.11853 33.0406 8.23163 33.2483 8.25623C33.4353 8.27957 33.5549 8.08555 33.5159 8.46925C33.5146 8.47965 33.3448 8.61004 33.42 8.64725C33.4848 8.68086 33.5704 8.58315 33.6602 8.64125C33.6744 8.65052 33.6886 8.66385 33.7022 8.68258C33.9397 9.00354 33.7813 9.62107 33.7085 10.1196C33.7083 10.1506 33.7005 10.4396 33.7073 10.4931C33.7289 10.5956 33.8335 10.5423 33.7876 10.6977C33.7489 10.8179 33.6097 10.9454 33.5657 11.0808C33.5607 11.0963 33.636 11.1029 33.5712 11.2115ZM30.3032 9.39393C30.4226 9.29315 30.8316 8.89468 30.8121 9.10974C30.8103 9.13006 30.499 9.37749 30.5105 9.47144C30.4311 9.45593 30.37 9.4191 30.3028 9.39437C30.3029 9.39423 30.3031 9.39408 30.3032 9.39393ZM31.9975 12.1205C31.9576 12.0353 31.9146 11.95 31.8712 11.8669C31.939 11.9167 32.0004 11.9704 32.0553 12.0253C32.0337 12.0579 32.0144 12.0894 31.9975 12.1205ZM26.8938 3.31631C26.8938 3.31622 26.8938 3.31614 26.8938 3.31606C26.9721 3.39372 27.0471 3.46819 27.1209 3.54372C27.0637 3.54545 27.006 3.54704 26.9482 3.54844C26.858 3.49272 26.766 3.43816 26.6702 3.38059C26.7443 3.35897 26.8188 3.33752 26.8938 3.31631ZM25.9751 3.40747C25.9741 3.50017 25.9065 3.62323 25.8574 3.75373C25.8575 3.7535 25.8576 3.75326 25.8577 3.75303C25.8447 3.78693 25.8449 3.82549 25.8493 3.83525C25.8905 3.7566 25.9294 3.67802 25.9681 3.59906C26.0611 3.53095 26.065 3.69975 25.9705 3.88308C25.8838 4.07014 25.6855 4.26419 25.5637 4.35493C25.6222 4.26006 25.6813 4.1661 25.7416 4.07216C25.6986 4.05824 25.7205 4.00148 25.7761 3.89447C25.8407 3.78994 25.8472 3.60688 25.9751 3.40747ZM31.6275 10.2715C31.9551 10.1998 32.0413 10.2001 32.0588 10.5054C31.9773 10.5347 31.8965 10.5649 31.8161 10.596C31.8505 10.5133 31.883 10.4298 31.9173 10.3478C31.9172 10.3477 31.9172 10.3476 31.9171 10.3476C31.8501 10.4015 31.7832 10.4557 31.7167 10.5102C31.689 10.4313 31.6579 10.3504 31.6275 10.2715ZM29.8305 7.90065C29.2989 8.32148 29.6155 8.08648 29.4174 8.07569C29.3486 8.07235 29.2759 8.1736 29.244 8.16409C29.071 8.11501 29.4353 7.83985 29.6481 7.72771C29.7102 7.78461 29.7711 7.84337 29.8303 7.90043C29.8304 7.9005 29.8304 7.90058 29.8305 7.90065ZM31.8335 11.0852C31.8336 11.0853 31.8336 11.0854 31.8337 11.0854C31.7375 11.1186 31.6774 11.0773 31.6205 11.1623C31.5919 11.1195 31.564 11.0783 31.5353 11.0363C31.5537 11.0453 31.5716 11.0549 31.5896 11.0642C31.6179 11.0419 31.6473 11.019 31.6769 10.9959C31.546 11.02 31.6064 10.9838 31.6213 10.924C31.494 10.9818 31.3691 11.0381 31.2469 11.0928C31.2438 11.0337 31.2437 10.9717 31.2475 10.9097C31.283 10.8964 31.3185 10.883 31.354 10.8697C31.2943 10.8674 31.2332 10.8664 31.1713 10.8658C31.2113 10.845 31.2513 10.8243 31.2918 10.8031C31.2417 10.7931 31.1908 10.7836 31.1385 10.7751C31.244 10.7267 31.327 10.7587 31.236 10.681C31.3703 10.6642 31.5009 10.65 31.6284 10.6386C31.6967 10.7866 31.7659 10.936 31.8335 11.0852ZM28.971 7.12571C29.1071 7.24765 28.988 7.27462 28.6904 7.45362C28.7842 7.34499 28.8776 7.23555 28.971 7.12571ZM27.6304 6.69851C27.8151 6.63713 27.997 6.5741 28.1743 6.51183C28.3159 6.53191 28.0977 6.81343 27.9435 6.82872C27.7576 6.84523 27.8496 6.66226 27.6304 6.69851ZM29.2488 8.49152C29.2183 8.33752 29.464 8.2663 29.5761 8.19336C29.453 8.3669 29.5018 8.3891 29.5428 8.46312C29.4787 8.41984 29.2538 8.51745 29.2484 8.49195C29.2485 8.4918 29.2487 8.49166 29.2488 8.49152ZM26.8899 4.79579C26.8674 4.75015 26.802 4.72158 26.8477 4.6588C27.0213 4.61375 26.8958 4.74825 27.1261 4.60304C27.1404 4.6304 27.1545 4.65704 27.1698 4.68445C27.0597 4.70325 26.9914 4.7559 26.8904 4.79546C26.8902 4.79557 26.8901 4.79568 26.8899 4.79579ZM27.6203 5.99462C27.7544 5.73567 27.6534 5.79936 27.442 5.85461C27.5973 5.69158 27.9594 5.52738 28.074 5.53024C27.9229 5.68525 27.7716 5.8401 27.6203 5.99462ZM22.8238 15.5988C22.8517 15.349 23.0426 15.3183 23.1352 15.393C23.1237 15.43 23.1122 15.4674 23.1007 15.505C23.009 15.5363 22.9156 15.5676 22.8238 15.5988ZM29.5599 8.50068C29.5547 8.48661 29.5489 8.4742 29.5428 8.46312C29.5541 8.4708 29.5608 8.48255 29.5599 8.50068ZM31.4102 13.1606C31.3288 12.9599 31.1902 12.9656 31.3553 12.9564C31.3552 12.9562 31.355 12.9561 31.3549 12.9559C31.4623 12.9486 31.488 12.948 31.5595 12.9107C31.7191 13.1331 31.6049 13.3505 31.867 13.2086C31.8697 13.2063 31.7569 13.0903 31.8031 13.0772C31.8164 13.0733 31.9421 13.1404 32.0242 13.0992C32.0474 13.0906 32.208 12.9336 32.0381 13.1706C32.1881 13.2878 32.3225 13.4264 32.4611 13.548C32.3822 13.7162 32.0606 13.4974 31.984 13.569C31.8661 13.6769 32.0036 14.0334 31.7092 13.6359C31.7487 13.4683 31.906 13.3445 32.1324 13.5376C32.2565 13.4299 32.0966 13.2379 31.9397 13.226C31.7074 13.6173 31.6393 13.0178 31.4763 13.3637C31.5097 13.424 31.537 13.4941 31.5731 13.5478C31.3568 13.3971 31.4421 13.2312 31.4102 13.1606ZM32.3305 12.7615C32.4733 12.8747 32.5777 13.0823 32.622 13.3003C32.413 13.186 32.2822 13.0038 32.1774 12.835C32.2298 12.8168 32.2814 12.7911 32.3305 12.7615ZM27.0901 15.0051C27.0901 15.1482 27.0732 15.2806 27.0631 15.4175C27.0322 15.2996 26.5507 15.2109 26.7863 15.0793C26.8197 15.0604 27.051 15.2995 27.0901 15.0051ZM28.2815 6.35703C28.3283 6.24698 28.375 6.1363 28.4213 6.02516C28.5281 6.04207 28.6361 6.05877 28.7437 6.07675C28.5895 6.16941 28.4355 6.26301 28.2815 6.35703ZM27.9673 7.5298C27.9569 7.50915 28.1392 7.45964 28.0624 7.40716C28.1905 7.39014 28.302 7.37858 28.4225 7.36085C28.371 7.42742 28.3201 7.49416 28.2694 7.56157C28.3197 7.5396 28.3698 7.51788 28.4198 7.49555C28.3223 7.56533 28.2274 7.63389 28.1276 7.70415C28.2548 7.45589 28.0154 7.62211 27.9673 7.5298ZM25.954 4.82954C26.1941 4.73169 26.3898 4.83482 26.3805 4.67311C26.5514 4.64928 26.6501 4.66528 26.693 4.7432C26.6361 4.77773 26.5799 4.81239 26.5233 4.84752C26.6882 4.79184 26.7565 4.79152 26.8899 4.79579C26.8897 4.79589 26.8896 4.796 26.8894 4.79611C26.9467 4.91602 26.8901 4.92786 26.6347 5.06127C26.7342 4.86898 26.4884 4.95602 26.3079 4.91183C26.1838 4.8811 26.2007 4.77835 25.954 4.82954ZM27.5966 14.9628C27.5097 15.2195 27.6263 15.4425 27.4097 15.1952C27.4173 15.1313 27.425 15.0679 27.4325 15.004C27.4875 14.9898 27.5422 14.9762 27.5966 14.9628ZM26.6768 4.08541C26.2798 4.19645 26.0017 4.37683 26.6403 4.21943C26.7521 4.09611 26.3973 4.23445 26.6768 4.08541ZM28.7699 8.90632C28.6491 8.75777 29.001 8.46573 29.2154 8.35888C29.1647 8.42536 29.114 8.49205 29.0637 8.55821C29.1132 8.55467 29.1627 8.55081 29.2116 8.54711C29.0649 8.66722 28.9174 8.78719 28.7699 8.90632ZM27.2602 4.31771C26.8923 4.48514 27.2205 4.57428 26.9832 4.6711C26.7942 4.74933 26.9889 4.40687 27.185 4.26482C27.2093 4.27946 27.2344 4.29777 27.26 4.31752C27.26 4.31758 27.2601 4.31765 27.2602 4.31771ZM26.5914 3.82089C26.3295 4.13137 26.3863 4.02225 26.5176 4.04616C26.5552 4.05288 26.6336 4.33861 26.7893 4.02292C26.7232 3.95943 26.6574 3.88868 26.5914 3.82089ZM30.6771 10.0582C30.5862 10.1579 30.2426 10.2468 30.2723 10.174C30.2722 10.1742 30.2721 10.1743 30.2719 10.1744C30.3553 9.97798 30.5315 10.0977 30.6488 9.8307C30.6342 10.1453 31.079 9.75254 30.5449 10.3178C30.4328 10.2621 30.5825 10.1815 30.6771 10.0582ZM20.3586 14.8568C20.3585 14.8568 20.3585 14.8568 20.3584 14.8568C20.3715 14.864 20.4808 15.0869 20.4668 15.1637C20.3344 15.0969 20.3584 14.9508 20.2361 15.1905C20.2299 15.1131 20.2245 15.038 20.2177 14.96C20.2658 14.9143 20.2929 14.8214 20.3586 14.8568ZM26.5605 14.7301C26.6077 14.6881 26.7059 14.8473 26.7613 14.8344C26.6157 15.4736 26.3725 14.8965 26.5605 14.7301ZM30.9895 9.53783C30.9893 9.53782 30.989 9.5378 30.9887 9.53779C30.9891 9.53767 30.9894 9.53756 30.9897 9.53743C30.9897 9.53756 30.9896 9.5377 30.9895 9.53783ZM30.4541 14.442C30.4322 14.409 30.4152 14.3792 30.4023 14.3522C30.4012 14.3496 30.4001 14.347 30.399 14.3444C30.4168 14.3767 30.435 14.4092 30.4541 14.442ZM31.0156 10.3126C30.9485 10.5075 30.5391 10.5359 30.5232 10.4253C30.5857 10.366 30.6389 10.3091 30.7163 10.246C30.6182 10.4575 31.0265 10.2793 31.0156 10.3126ZM26.9282 5.73789C27.0193 5.93161 26.2362 6.00502 26.7573 5.73698C26.7677 5.73276 26.925 5.73375 26.9282 5.73789ZM29.6834 9.20977C29.4903 9.33616 29.5308 9.4553 29.4278 9.30628C29.4599 9.25686 29.4921 9.20738 29.5243 9.15803C29.5774 9.17572 29.6299 9.19209 29.6834 9.20977ZM26.8423 7.47561C27.1122 7.64659 27.4479 7.72106 27.8302 7.21007C27.8023 7.20577 27.7748 7.20072 27.7468 7.19613C27.5045 7.372 27.5899 7.21321 27.5334 7.11725C27.4275 7.17356 27.3693 7.13873 27.2798 7.18691C27.1065 7.27962 27.037 7.41962 26.8423 7.47561ZM30.8537 7.95137C30.7997 7.98082 30.7454 8.01058 30.6919 8.0398C30.6101 8.04086 30.5285 8.04223 30.4465 8.04447C30.5492 7.98547 30.652 7.92664 30.7547 7.86794C30.7879 7.89555 30.8209 7.92307 30.8538 7.95094C30.8538 7.95108 30.8537 7.95122 30.8537 7.95137ZM31.6569 12.5696C32.2168 12.4423 32.0896 12.3825 31.762 12.2935C31.727 12.388 31.6952 12.4853 31.6569 12.5696ZM25.3797 2.832C25.571 2.89003 25.755 2.96814 25.927 3.069C25.7601 2.93172 25.8682 2.56456 25.4421 2.56011C25.391 2.65852 25.3745 2.75669 25.3797 2.832ZM27.3696 3.15113C27.3713 3.09172 27.2683 3.22938 27.2677 3.22403C27.2629 3.16293 27.2692 3.11585 27.2608 3.08353C27.2476 3.04201 27.2122 3.02056 27.1098 3.0232C27.0675 3.04557 27.0241 3.07032 26.9816 3.0946C26.7641 3.42641 26.8884 3.34178 26.8576 3.50991C26.8534 3.53114 26.8465 3.55638 26.8359 3.58697C26.888 3.51394 26.9401 3.44082 26.9923 3.36753C27.029 3.31516 27.0654 3.26249 27.1015 3.20949C27.1057 3.2193 27.1098 3.2291 27.1139 3.2389C27.1365 3.2985 27.159 3.35793 27.1814 3.41785C27.2195 3.38945 27.2573 3.36141 27.2954 3.33307C27.3199 3.27311 27.3488 3.20716 27.3696 3.15113ZM30.9727 8.47266C30.9924 8.53577 31.0113 8.5993 31.0301 8.6621C31.1154 8.61502 31.2012 8.56757 31.2865 8.52059C31.1822 8.50347 31.0775 8.48739 30.9727 8.47266ZM31.2686 13.4133C31.2794 13.4416 31.2903 13.4701 31.3019 13.4988C31.2836 13.4663 31.2737 13.4383 31.2686 13.4133ZM20.1931 14.3431C20.1187 14.2774 20.0129 14.3202 19.9341 14.3065C19.9399 14.541 20.1428 14.4763 20.2152 14.6189C20.2264 14.5769 20.2244 14.3707 20.1931 14.3431ZM28.5986 8.70592C28.5115 8.76493 28.4246 8.82332 28.3373 8.88192C28.3143 8.84184 28.2918 8.80108 28.2687 8.76044C28.2062 8.81774 28.1432 8.87554 28.0806 8.9328C28.2996 9.00363 28.09 9.13745 27.988 9.37931C28.1905 9.15395 28.3941 8.92987 28.5986 8.70592ZM32.4001 10.0879C32.3103 9.9632 32.1822 9.96202 31.9619 10.1406C32.0368 10.1645 32.1095 10.1903 32.1795 10.2176C32.2523 10.1749 32.3259 10.1316 32.4001 10.0879ZM28.8641 14.0897C28.7696 14.2151 28.7055 13.8347 28.6282 14.065C28.6993 14.1259 28.7708 14.1871 28.8421 14.247C28.8496 14.1947 28.8571 14.142 28.8641 14.0897ZM30.1679 11.7345C30.1116 11.8479 30.5825 11.5119 30.3572 11.8871C30.468 11.8215 30.568 11.7528 30.6755 11.6879C30.5868 11.7893 30.497 11.8923 30.4065 11.9906C30.4066 11.9907 30.4066 11.9907 30.4067 11.9908C30.5044 12.0331 30.5893 11.8754 30.6966 11.782C30.7417 11.7437 30.718 11.867 30.7992 11.7647C30.9395 11.5887 30.7298 11.547 30.9232 11.3617C30.9041 11.4689 31.0361 11.507 31.1467 11.3619C31.2666 11.2006 30.9406 11.3327 31.0091 11.1694C30.7721 11.5416 30.7211 11.2974 30.9324 11.0442C30.6592 11.1293 30.676 11.2897 30.7739 11.3739C30.5385 11.4937 30.7168 11.4817 30.5766 11.639C30.4359 11.6727 30.3161 11.4056 30.1679 11.7345ZM26.1153 6.48288C26.1763 6.56409 26.1312 6.77441 26.3474 6.72914C26.4726 6.70177 26.4786 6.5221 26.6972 6.51758C26.6345 6.44593 26.5587 6.46306 26.42 6.55978C26.3917 6.5505 26.3636 6.54056 26.3357 6.53067C26.3594 6.50582 26.3827 6.48101 26.4066 6.45631C26.3404 6.47948 26.2745 6.50207 26.2083 6.525C26.2089 6.49757 26.2093 6.46952 26.2108 6.44232C26.1788 6.45628 26.1499 6.46635 26.1153 6.48288ZM25.5333 14.3729C25.5591 14.37 25.5847 14.3671 25.6105 14.3636C25.6065 14.3171 25.6018 14.2688 25.5974 14.2211C25.5941 14.1834 25.5907 14.1456 25.5875 14.1079C25.6057 14.2425 25.735 14.4635 25.7826 14.3178C25.8066 14.2447 25.7398 13.9899 25.8485 13.9417C25.7689 13.9575 25.6969 13.9946 25.6201 14.0184C25.625 13.9419 25.6296 13.8647 25.6345 13.7882C25.6344 13.7881 25.6344 13.788 25.6343 13.7879C25.6083 13.7713 25.582 13.754 25.5561 13.7374C25.5486 13.9494 25.5411 14.161 25.5333 14.3729ZM24.9398 3.05498C25.0033 3.18648 25.068 3.23514 25.1285 3.26627C25.2166 3.28166 25.3062 3.27085 25.4536 3.22681C25.455 3.22623 25.4564 3.22564 25.4578 3.22506C25.4579 3.22489 25.458 3.22472 25.4581 3.22455C25.3365 3.18153 25.209 3.12553 25.1059 2.98252C25.0496 3.00299 24.9939 3.0274 24.9398 3.05498ZM30.2625 13.115C30.4784 13.9491 30.6229 13.3069 30.419 13.0894C30.4109 13.0789 30.3224 13.1913 30.2625 13.115ZM28.6174 9.10824C28.5756 9.07575 28.5341 9.04235 28.4919 9.0089C28.4292 9.08788 28.367 9.16695 28.3046 9.24619C28.4092 9.20105 28.5138 9.15484 28.6174 9.10824ZM32.5814 9.2933C32.6778 9.21847 32.7355 9.13855 32.7403 9.07963C32.7459 9.01051 32.6815 8.97017 32.5295 9.00035C32.5166 9.05027 32.5033 9.09976 32.4902 9.14969C32.4307 9.09602 32.3688 9.04674 32.31 8.99386C31.9878 9.15113 32.2102 9.13303 32.1744 9.29024C32.1722 9.29911 32.1257 9.34446 32.082 9.39337C32.0043 9.48036 31.9346 9.57742 32.1374 9.51323C32.2028 9.49288 32.193 9.35088 32.4089 9.35198C32.4077 9.31198 32.3936 9.28291 32.3848 9.24905C32.3838 9.24536 32.3829 9.24162 32.3821 9.2378C32.4576 9.19865 32.5331 9.15943 32.6085 9.1199C32.6074 9.12794 32.6063 9.13598 32.6052 9.14401C32.5983 9.19366 32.5902 9.24341 32.5814 9.2933ZM26.4282 6.98207C26.4864 7.10948 26.6008 7.05749 26.8002 6.9636C26.746 6.92451 26.6922 6.88432 26.6383 6.84345C26.5684 6.88962 26.4984 6.93552 26.4282 6.98207ZM32.107 8.13433C32.1074 8.04658 31.941 8.18062 31.8919 8.17436C31.7068 8.15144 31.7981 8.007 31.6607 7.95899C31.6993 7.94413 31.7354 7.93019 31.7729 7.91583C31.7729 7.91575 31.7728 7.91566 31.7728 7.91558C31.6553 7.36128 31.3897 7.8597 31.6142 8.08794C31.5505 8.13483 31.4865 8.18142 31.4233 8.22779C31.6113 8.27721 31.7876 8.32516 32.107 8.13433ZM31.2273 12.5913C31.1917 12.5691 30.9141 12.5287 31.0793 12.4685C31.4519 12.6051 31.237 12.5922 31.3748 12.6649C31.4151 12.6618 31.4535 12.6664 31.4887 12.6804C31.5817 12.7394 31.4925 12.7438 31.2145 12.6584C31.1956 12.6492 31.2644 12.6092 31.2273 12.5913ZM30.7508 12.6228C31.0219 13.1365 31.0415 12.8235 30.9402 12.6737C30.9181 12.6785 30.9529 12.772 30.9093 12.7471C30.8657 12.7222 30.7942 12.6071 30.7508 12.6228ZM28.9068 10.1021C28.9092 10.1078 28.7881 10.323 28.9114 10.181C29.1614 9.80627 28.8652 9.92131 28.7772 10.0509C28.8162 10.077 28.8841 10.0491 28.9064 10.1025C28.9065 10.1024 28.9067 10.1022 28.9068 10.1021ZM32.9028 10.1679C32.9165 10.1605 32.9961 9.96608 32.9106 9.97857C32.8152 9.99841 32.713 10.0299 32.613 10.0565C32.7182 10.1019 32.6694 10.2989 32.9028 10.1676C32.9028 10.1677 32.9028 10.1678 32.9028 10.1679Z" fill="#333333"/>
</g>
<defs>
<clipPath id="clip0_141_32596">
<rect width="35" height="17" fill="white"/>
</clipPath>
</defs>
</svg>
