<svg width="461" height="114" viewBox="0 0 461 114" fill="none" xmlns="http://www.w3.org/2000/svg">
<g clip-path="url(#clip0_2006_5212)">
<path d="M30.0044 33.2855C28.2791 32.1902 28.5274 32.4232 27.269 30.7774C26.852 30.2322 28.2859 29.3159 28.6794 28.9732C30.8601 27.0743 33.0104 25.1487 35.2278 23.2853C38.1525 20.8278 41.1784 18.4799 44.1099 16.0557C46.8097 16.8832 48.8561 18.5974 51.3344 19.9107C53.775 21.2041 56.2172 22.5003 58.6758 23.7621M30.0044 33.2855C33.5226 35.5191 39.137 39.0708 42.6963 41.2382C44.6501 42.4279 46.5613 43.6847 48.5153 44.8747C50.4703 46.0652 52.5103 47.1902 54.3934 48.4895C55.6627 49.3653 56.8391 50.3715 58.1032 51.2536C58.75 51.7049 59.1527 51.5984 59.8446 51.2939C62.4819 50.1328 65.2088 48.8501 67.5583 47.1699C70.8261 44.8329 73.9451 42.3067 77.155 39.898C78.0149 39.2528 78.8096 38.5341 79.6823 37.9034C79.8778 37.7621 80.5392 37.299 80.7703 37.2195M30.0044 33.2855C29.7263 33.8179 28.9869 34.657 28.6455 35.1646C27.4588 36.9294 26.0107 38.5461 24.7528 40.2671C20.0872 46.6505 16.0601 53.3871 12.1324 60.2406C9.53475 64.7734 6.92152 69.388 5.02168 74.2655C4.3143 76.0815 3.64388 77.8799 3.42339 79.8308C3.33487 80.6141 3.26974 81.6145 3.73931 82.3076C4.08333 82.8153 4.74282 82.9561 5.26293 83.2037C6.41049 83.7501 7.52026 84.385 8.6496 84.9679C11.9925 86.6933 15.2763 88.5153 18.6109 90.257C22.0696 92.0636 25.3298 94.1835 28.6979 96.1467C31.014 97.4968 33.4121 99.0702 35.5032 100.757C36.3705 101.457 36.5632 101.824 37.6785 101.85C39.5806 101.894 41.5491 102.031 43.4375 102.246C44.7367 102.393 46.117 102.481 47.426 102.428C47.8866 102.41 48.4535 102.41 48.8677 102.173C49.2823 101.937 49.5299 101.374 49.7635 100.989C50.5829 99.6365 51.2983 98.2009 52.0549 96.8123C56.6759 88.3313 60.8452 79.6068 65.1937 70.9816C68.7835 63.8612 72.2011 56.691 75.0843 49.2574C75.8422 47.3032 76.594 45.3517 77.4389 43.4327C78.1694 41.7737 79.1649 40.293 80.0016 38.6911C80.0668 38.5664 81.1826 37.0778 80.7703 37.2195M80.7703 37.2195C81.1252 37.4049 80.0848 36.4991 79.7611 36.2635C77.7298 34.7849 75.5996 33.4189 73.5233 32.0022C71.2532 30.4534 68.8486 29.0359 66.403 27.7132C65.4634 27.205 64.5177 26.7108 63.5713 26.2285" stroke="white" stroke-linecap="round"/>
<path d="M78.9047 39.4751C78.2595 40.7938 77.6969 42.1425 76.9227 43.3976C76.1062 44.7214 75.0235 45.8753 73.9356 46.9766C70.3563 50.5998 66.4453 53.8862 63.0099 57.6523C60.2271 60.7029 57.7114 63.9782 55.3357 67.3517C53.0767 70.5596 50.8032 73.7811 48.6891 77.0864C45.2151 82.5178 41.4985 88.0189 38.9956 93.9892C38.3169 95.6082 37.672 97.2474 37.1529 98.9253C36.9928 99.4429 36.793 99.9495 36.6427 100.469C36.5861 100.665 36.3189 101.857 36.33 101.232" stroke="white" stroke-linecap="round"/>
<path d="M74.5594 48.1225C72.514 50.22 70.6231 52.4868 68.7127 54.7071C66.2906 57.5222 64.82 60.7878 63.1987 64.1115" stroke="white" stroke-linecap="round"/>
<path d="M57.0774 74.8431C56.7591 76.0957 56.0138 77.3319 55.4753 78.4863C54.583 80.3991 53.7196 82.3262 52.8209 84.2356C52.023 85.9307 51.1725 87.6597 50.1308 89.2211C48.9974 90.92 47.7925 92.6188 46.8459 94.4309C46.6534 94.7996 46.4924 94.9917 46.154 95.2253C45.1258 95.9351 43.9271 96.4465 42.8635 97.1175C41.0386 98.2688 39.2044 99.4986 37.7632 101.121" stroke="white" stroke-linecap="round"/>
<path d="M48.8306 101.657C48.702 101.57 48.5846 101.331 48.5169 101.197C48.065 100.303 47.5841 99.3038 47.2871 98.3574" stroke="white" stroke-linecap="round"/>
<path d="M35.2278 23.2854C38.1524 20.8279 41.1783 18.48 44.1099 16.0558C46.8096 16.8833 48.856 18.5975 51.3343 19.9108C53.775 21.2042 56.2172 22.5004 58.6758 23.7622C59.6222 24.2445 65.4633 27.2051 66.4029 27.7133C68.8485 29.0361 71.2531 30.4536 73.5232 32.0024C75.5996 33.419 77.1313 34.2964 79.1625 35.775C79.4862 36.0106 80.8148 37.2428 80.8148 37.2428C81.2899 37.491 79.7907 38.2787 79.5952 38.42C78.7225 39.0507 78.0149 39.2529 77.1549 39.8982C73.945 42.3069 70.8261 44.833 67.5582 47.17C65.2088 48.8502 62.4819 50.1329 59.8445 51.294C59.1527 51.5986 58.7499 51.705 58.1032 51.2537C56.839 50.3716 55.6627 49.3654 54.3933 48.4896C52.5103 47.1903 50.4702 46.0653 48.5153 44.8748C46.5613 43.6848 44.6501 42.428 42.6963 41.2383C39.1369 39.0709 33.5225 35.5192 30.0043 33.2856C28.279 32.1903 28.5273 32.4233 27.2689 30.7775C26.8519 30.2323 28.2858 29.316 28.6794 28.9733C30.86 27.0744 33.0103 25.1488 35.2278 23.2854Z" stroke="white" stroke-linecap="round"/>
<path d="M60.334 27.9389C58.6031 30.9733 56.0754 34.2971 54.2015 37.2508C53.9533 37.7259 57.1226 36.2897 58.1015 35.5029C58.8333 34.9148 59.2277 33.9962 59.7361 33.233C60.1377 32.6302 59.9856 32.1209 59.9876 31.4348C59.9906 30.4263 60.287 30.4649 61.2036 30.3505C61.6074 30.3001 61.8634 29.6177 62.0171 29.3234L63.3715 26.7305C64.8077 23.9808 68.3134 19.079 70.1119 15.1447C69.7856 15.6948 69.203 16.1452 68.8089 16.6517C68.0069 17.6825 67.0982 18.6046 66.3616 19.6911L66.2733 19.8214C65.3701 21.1536 64.4654 22.488 63.543 23.8071C63.0492 24.5131 62.3787 25.1765 61.979 25.9419C61.7572 26.3665 61.7582 26.8983 61.5191 27.316C61.2746 27.7432 60.5705 27.5243 60.334 27.9389Z" stroke="white" stroke-linecap="round"/>
<path d="M61.0078 20.9256C62.7573 18.3793 64.7772 14.9837 66.4725 12.4022C66.6762 12.0919 67.808 13.0825 67.9582 13.179C68.3621 13.4384 70.4857 14.5154 70.1123 15.1448C69.7861 15.6948 69.2034 16.1452 68.8094 16.6517C68.0073 17.6825 67.0986 18.6047 66.3621 19.6912L66.2737 19.8214C65.3705 21.1537 64.4659 22.4881 63.5434 23.8071C63.0497 24.5132 62.3792 25.1765 61.9794 25.9419C61.7576 26.3665 61.7586 26.8983 61.5195 27.3161C61.2751 27.7432 60.5709 27.5244 60.3345 27.9389C58.6036 30.9734 56.6492 33.9457 54.7753 36.8994C54.5076 37.3213 54.5023 37.5223 54.0472 37.3788C53.4872 37.2023 52.9749 36.9006 52.4937 36.5674C52.1602 36.3364 50.8232 35.6141 51.1233 35.0396C51.7289 33.8802 52.5651 32.8193 53.2838 31.7262C53.9992 30.6383 54.6466 29.5187 55.417 28.4654C55.9631 27.7186 56.6086 26.97 57.0522 26.1576C57.3489 25.6143 58.1312 25.4669 58.6963 25.2778C59.1425 25.1285 58.7702 24.1854 58.949 23.8432C59.4864 22.8142 60.3488 21.8849 61.0078 20.9256Z" stroke="white" stroke-linecap="round"/>
<path d="M65.8165 24.0408C65.5222 23.2657 66.4437 21.1308 67.1571 22.224C67.9655 23.4626 65.5419 24.9291 64.7358 25.3964C63.7442 25.9713 62.8083 26.7918 61.7056 27.1379C61.2356 27.2854 60.179 26.7293 60.1873 26.2589" stroke="white" stroke-linecap="round"/>
<path d="M31.6775 55.8992C31.5852 55.8379 31.5867 55.6718 31.6122 55.5725C31.7621 54.9899 32.0151 54.3445 32.6121 54.1175C33.5179 53.7731 33.805 54.8013 33.4063 55.4812C33.2374 55.7693 33.0062 56.0474 32.7564 56.2663C32.6835 56.3301 33.2946 56.0344 33.414 56.0015C34.1188 55.8076 35.0904 56.0762 34.7755 57.0304C34.5894 57.5945 34.0109 58.1638 33.4145 58.1902C33.2461 58.1976 33.0108 58.1686 32.8574 58.0956C32.7413 58.0405 32.8749 58.0695 32.9352 58.1363C33.2759 58.5138 33.3426 59.1639 33.0778 59.6279C32.562 60.5319 31.5838 60.6468 30.8223 60.0905C30.4554 59.8225 29.8936 59.399 30.1512 58.8516C30.2083 58.7302 30.4996 58.4825 30.3738 58.5165C29.9174 58.6398 29.6576 58.6072 29.2364 58.3487C28.7858 58.0723 28.1519 57.2641 28.6835 56.7432C28.9374 56.4943 29.3209 56.3359 29.6555 56.4232C29.685 56.4309 30.0421 56.5783 29.9044 56.5992C29.195 56.7069 28.6809 55.9862 28.6131 55.3562C28.5247 54.5337 29.3612 54.0372 30.0612 54.2461C30.5995 54.4068 30.9065 54.812 31.1655 55.2932C31.2335 55.4197 31.6013 55.789 31.6775 55.8992Z" stroke="white" stroke-linecap="round"/>
<path d="M34.0845 63.0283C34.45 63.5239 34.4553 64.3628 34.4771 64.942C34.5005 65.5629 34.3411 66.1649 34.1533 66.7477C33.638 68.3478 33.0138 69.9102 32.6865 71.5661C32.1244 74.4088 32.2003 77.3647 32.3407 80.2601" stroke="white" stroke-linecap="round"/>
<path d="M36.734 57.9225C36.4642 57.0351 37.1063 55.5484 38.0194 55.6C38.8852 55.6489 39.2993 56.542 38.918 57.2719C38.8723 57.3594 39.066 57.134 39.0995 57.109C39.344 56.9268 39.5843 56.7806 39.8882 56.7377C40.7627 56.6142 41.7121 57.2176 41.6567 58.1748C41.6116 58.9541 40.9052 59.8314 40.087 59.8416C39.4852 59.8491 39.9695 59.709 40.284 59.8566C41.2589 60.3143 41.0976 61.598 40.4458 62.2623C39.8207 62.8992 38.5039 63.212 37.8397 62.49C37.3662 61.9752 37.3804 61.3234 37.6916 60.7275C37.8391 60.4452 37.9485 60.5758 37.6492 60.7933C37.1278 61.1723 36.4474 61.28 35.8918 60.9347C35.2821 60.5558 35.0198 59.7821 35.7199 59.3255C35.9796 59.1561 36.3174 59.0628 36.6206 59.1395C36.7503 59.1722 36.9857 59.2963 36.8486 59.4569C36.4077 59.9733 35.1158 59.4371 34.7419 59.0825C34.0106 58.3891 34.3245 57.1282 35.4195 57.0969C35.9944 57.0804 36.4718 57.4348 36.734 57.9225Z" stroke="white" stroke-linecap="round"/>
<path d="M34.252 62.674C33.9823 61.7865 34.6243 60.2998 35.5375 60.3515C36.4033 60.4004 36.8173 61.2935 36.4361 62.0233C36.3904 62.1109 36.5841 61.8855 36.6176 61.8605C36.862 61.6782 37.1024 61.532 37.4062 61.4891C38.2808 61.3656 39.2302 61.9691 39.1748 62.9262C39.1297 63.7055 38.4232 64.5829 37.605 64.5931C37.0032 64.6006 37.4876 64.4604 37.8021 64.6081C38.777 65.0658 38.6157 66.3495 37.9639 67.0137C37.3388 67.6507 36.0219 67.9635 35.3578 67.2415C34.8842 66.7267 34.8985 66.0748 35.2097 65.479C35.3571 65.1967 35.4665 65.3273 35.1673 65.5448C34.6458 65.9238 33.9655 66.0315 33.4099 65.6862C32.8002 65.3073 32.5379 64.5335 33.238 64.0769C33.4976 63.9076 33.8355 63.8143 34.1387 63.8909C34.2683 63.9237 34.5037 64.0478 34.3667 64.2084C33.9258 64.7248 32.6339 64.1885 32.26 63.834C31.5287 63.1406 31.8425 61.8797 32.9375 61.8483C33.5125 61.8319 33.9899 62.1863 34.252 62.674Z" stroke="white" stroke-linecap="round"/>
<path d="M25.2113 56.5114C25.2526 56.4324 25.2367 56.3727 25.1933 56.3024C24.8377 55.7266 24.018 55.5961 23.4362 55.9884C22.4765 56.6357 22.7589 58.0598 23.585 58.4914C23.8024 58.6049 23.9162 58.4349 23.7393 58.557C23.1467 58.966 23.0201 59.8678 23.1437 60.4865C23.3061 61.299 24.059 61.503 24.745 61.0734C24.9878 60.9214 25.1733 60.7185 25.2818 60.4405C25.3581 60.2449 25.3202 60.2185 25.3305 60.4311C25.3732 61.3067 25.9482 62.0788 26.7603 62.1609C27.5747 62.2434 28.4619 61.5968 28.4582 60.6401C28.4569 60.3058 28.278 59.4675 27.8433 59.483C27.6829 59.4888 27.7486 59.71 27.8155 59.7755C28.0089 59.9644 28.3448 60.0206 28.6101 60.0133C30.353 59.9656 31.0403 57.4629 29.3475 56.9054C29.0485 56.807 28.5912 56.7801 28.3355 57.0879C28.2663 57.1713 28.1099 57.4744 28.2842 57.5053C28.823 57.6007 28.6417 56.4794 28.5845 56.2923C28.3159 55.4138 27.5347 54.2417 26.4613 54.7018C26.1877 54.819 25.9002 55.2092 25.735 55.5087C25.6444 55.6822 25.1103 56.4994 25.2113 56.5114Z" stroke="white" stroke-linecap="round"/>
<path d="M25.6086 60.7306C25.1599 62.2598 26.4639 63.3513 26.9419 63.1906C26.4314 63.552 26.2683 64.4048 26.5142 64.792C26.987 65.5363 28.2534 66.208 29.0703 65.6311C29.2592 65.4977 29.4307 65.2315 28.9319 64.5388C28.7588 64.2985 29.2033 64.6806 29.2033 64.6806C29.3635 66.1751 31.3458 65.956 31.992 64.7188C32.3363 64.0596 32.2871 63.2287 31.7743 62.8175C31.6223 62.6956 31.0968 62.6896 31.4983 62.6048C32.1341 62.4705 32.747 61.9174 32.8952 61.2015C33.0708 60.3532 32.432 59.5683 31.6512 59.6579C31.1952 59.7102 30.7217 60.0484 30.3937 60.4195C30.2645 60.5657 30.4315 60.1441 30.4462 60.0778C30.601 59.3789 30.5205 58.5261 29.795 58.4247C29.0604 58.322 28.2323 58.752 27.7468 59.4377C27.5726 59.6836 27.523 59.9363 27.4668 60.2221L27.4663 60.2245C27.4586 60.264 27.4555 60.5576 27.3774 60.4681C26.9501 59.9781 26.0537 59.9912 25.6086 60.7306Z" stroke="white" stroke-linecap="round"/>
<path d="M29.4956 65.6064C29.4576 65.7254 29.4723 65.839 29.474 65.9672C29.489 67.1354 29.511 68.3058 29.5738 69.4725C29.6425 70.749 29.8037 72.0365 30.0393 73.2929C30.3856 75.1391 30.8116 77.0045 31.4751 78.764" stroke="white" stroke-linecap="round"/>
<path d="M30.938 66.0137C31.2035 67.772 31.3831 69.608 31.2226 71.3838C31.0829 72.9298 30.8288 74.4516 30.5563 75.9793C30.2942 77.4492 30.0507 78.9244 29.8135 80.3979" stroke="white" stroke-linecap="round"/>
<path d="M29.8821 46.3307C34.1167 48.5426 38.245 50.9428 42.4796 53.1546C45.0079 54.4753 47.6087 55.6175 50.1761 56.8565C51.1414 57.3223 52.1126 57.7865 53.0969 58.2128C53.2823 58.2931 54.2258 58.5627 54.1972 58.9196C54.1836 59.0899 53.9791 59.2978 53.8845 59.4132C53.2713 60.1609 52.6618 60.9049 52.0788 61.6838C50.2562 64.1186 48.5385 66.6411 46.8459 69.1842C44.4876 72.7272 42.2401 76.3124 40.0012 79.9403C38.9671 81.6159 38.078 83.4155 37.0176 85.0666C36.4663 85.925 35.3955 85.2773 34.8077 85.0976C31.8073 84.1802 29.0336 82.7738 26.3853 81.1385" stroke="white" stroke-linecap="round"/>
<path d="M14.9805 66.9277C14.9614 66.8551 14.9498 66.7784 14.9551 66.703C15.0134 65.8826 15.2104 65.0406 15.4114 64.2459C15.7864 62.7637 16.4168 61.3611 17.0627 59.9816C18.9714 55.9052 21.2744 51.727 24.274 48.3362C24.9287 47.596 25.6482 46.9144 26.3904 46.2625C26.7314 45.963 27.1364 45.6032 27.5538 45.4114C28.3821 45.0309 29.1725 45.7488 29.8321 46.1443" stroke="white" stroke-linecap="round"/>
<path d="M67.6649 21.654C68.7065 20.5252 69.9616 19.5966 70.9992 18.4617C71.5364 17.8742 71.8505 17.6131 72.5386 17.1963C72.8293 17.0202 73.0436 16.7362 73.0881 16.7594M73.0881 16.7594C73.035 16.246 71.2249 15.5179 70.4069 15.0906L62.0687 25.032L65.8697 27.0174C67.1107 24.6415 69.5084 22.5808 71.084 20.4117C71.7897 19.4402 72.5475 18.3565 72.9997 17.2379C73.0519 17.1088 73.0776 16.8549 73.0881 16.7594Z" stroke="white" stroke-linecap="round"/>
<path d="M107.626 48.9372C106.02 47.857 104.101 46.2708 102.307 45.5026C100.088 45.2758 92.969 63.1846 95.4024 71.726C96.5982 75.9235 98.5754 80.4509 101.331 83.8489C103.901 87.0182 106.958 90.1104 110.065 92.7541C115.883 97.7058 122.241 101.741 130.015 102.505C137.832 103.273 145.4 101.34 152.326 97.7197C155.726 95.9421 159.204 93.602 161.691 90.6505C161.928 90.3699 162.546 89.8284 162.35 89.3805C161.671 87.8322 159.177 86.254 157.917 85.2874C154.071 82.3373 150.121 79.4887 146.18 76.6661C140.943 72.9144 135.437 69.6804 130.352 65.7041C124.988 61.5106 119.705 57.1056 114.112 53.2239C111.984 51.7474 109.775 50.3826 107.626 48.9372Z" stroke="white" stroke-linecap="round"/>
<path d="M104.794 48.2568C103.106 52.1885 100.882 55.9082 100.038 60.1453C99.2684 64.0114 99.0258 67.5578 100.437 71.2896C101.538 74.1992 103.287 76.8929 105.411 79.1577C109.705 83.7345 113.965 88.0706 119.226 91.5464C124.647 95.1277 130.828 97.2774 137.257 98.1006" stroke="white" stroke-linecap="round"/>
<path d="M108.847 51.2398C107.404 52.5442 107.33 55.1137 107.142 56.9094C106.716 60.9941 110.455 62.5979 114.042 63.069C118.04 63.594 122.518 63.3517 126.534 62.9841" stroke="white" stroke-linecap="round"/>
<path d="M111.211 63.1086C109.998 63.718 109.147 65.1254 108.396 66.1881C107.013 68.1456 106.907 70.3627 107.92 72.5853C109.138 75.2573 112.892 79.8539 116.164 79.9203C120.745 80.0133 123.731 74.688 126.129 71.5155C126.395 71.1633 129.821 66.7797 129.867 66.831" stroke="white" stroke-linecap="round"/>
<path d="M119.143 79.9523C117.019 87.8818 128.19 94.1766 134.657 90.0704C138.108 87.8798 137.267 82.1435 136.353 78.832C135.738 76.6048 134.865 74.4852 134.039 72.3353C133.675 71.3868 133.105 70.2053 133.013 69.2052" stroke="white" stroke-linecap="round"/>
<path d="M136.611 86.3937C136.464 86.7705 136.629 87.2443 136.814 87.576C138.153 89.9715 140.077 91.4273 142.832 91.4678C144.738 91.4957 146.618 91.0476 148.436 90.5169C150.209 89.999 153.81 89.3569 155.073 87.7705C155.957 86.6611 155.348 85.3611 154.889 84.2409" stroke="white" stroke-linecap="round"/>
<path d="M121.612 66.7892C120.645 66.4863 119.481 66.7473 118.546 67.0344C116.635 67.6212 119.634 67.9356 120.235 68.0333" stroke="white" stroke-linecap="round"/>
<path d="M113.695 70.4428C112.46 71.5581 114.392 71.7006 115.246 71.685" stroke="white" stroke-linecap="round"/>
<path d="M130.65 73.628C129.746 74.7611 130.038 75.8572 130.787 76.8633" stroke="white" stroke-linecap="round"/>
<path d="M128.713 76.3083C128.358 77.0178 128.178 77.5771 128.253 78.4268C128.369 79.7497 129.036 79.5599 129.991 79.226" stroke="white" stroke-linecap="round"/>
<path d="M132.8 80.8313C131.797 81.777 133.543 83.4763 134.155 82.2513" stroke="white" stroke-linecap="round"/>
<path d="M142.357 78.2002C141.622 80.0821 143.13 82.3491 143.748 84.0892" stroke="white" stroke-linecap="round"/>
<path d="M145.129 83.4828C145.277 83.21 146.288 84.5927 146.416 84.7492" stroke="white" stroke-linecap="round"/>
<path d="M117.081 59.1645C117.254 59.2085 117.146 59.1064 116.995 59.0955C115.99 59.0236 116.325 59.6926 116.232 60.3603" stroke="white" stroke-linecap="round"/>
<path d="M299.181 64.5581C298.551 66.7394 297.874 70.0988 298.41 72.2429C298.681 72.9204 300.063 77.0417 300.825 77.1371C301.09 77.0672 302.162 66.3466 315.46 60.3834C319.478 58.928 324.061 60.0815 327.728 57.6521C329.408 56.5393 330.4 54.9215 331.451 53.249C332.507 51.5672 333.486 49.6156 333.73 47.6218C333.892 46.2903 334.378 44.3125 332.972 43.4334C331.393 42.4471 329.849 42.5829 328.057 42.7528C321.714 43.3543 315.237 46.2613 310.216 50.0883C305.522 53.666 300.86 58.749 299.181 64.5581Z" stroke="white" stroke-linecap="round"/>
<path d="M304.533 79.1699C304.571 79.6697 304.306 81.3558 304.775 81.2481C305.91 81.2481 307.08 81.577 308.242 81.577C311.545 81.577 314.679 81.1948 317.893 80.4442C321.167 79.6798 324.511 78.6563 327.375 76.845C329.612 75.431 331.566 73.5237 333.258 71.5102C334.96 69.4855 336.475 67.4288 337.209 64.8416C337.943 62.2568 338.655 59.6606 338.831 56.9763C338.982 54.6572 338.711 52.7226 338.278 50.4631C338.118 49.6248 337.465 46.6151 336.017 47.3389C335.206 47.7444 335.524 49.4562 335.423 50.1708C335.248 51.422 335.14 52.738 334.784 53.9572C334.235 55.8393 333.728 57.4112 332.363 58.9038C330.749 60.6682 328.021 61.8116 325.736 62.334C320.183 63.6032 313.928 63.8313 309.471 67.8013C307.493 69.5631 306.009 71.6449 305.269 74.2141C304.8 75.8397 304.842 77.0675 304.533 79.1699Z" stroke="white" stroke-linecap="round"/>
<path d="M281.949 71.9693C282.077 71.9899 282.565 71.9594 282.329 71.7073C276.132 67.1351 274.328 58.0925 275.719 50.8452C276.524 46.6481 279.86 43.3003 279.648 38.9066C279.551 36.8941 278.669 35.2134 277.769 33.4555C276.865 31.6878 275.689 29.8477 274.1 28.6183C273.04 27.7973 271.589 26.3682 270.114 27.127C268.459 27.9783 267.785 29.3749 267.015 31.0017C264.287 36.7594 263.471 43.8114 264.19 50.0836C264.863 55.9474 266.845 62.5532 270.978 66.968C272.529 68.6257 273.752 70.5012 276.431 71.1707C278.575 71.7068 280.355 71.7133 281.949 71.9693Z" stroke="white" stroke-linecap="round"/>
<path d="M286.271 69.8471C286.719 70.0704 288.033 71.1605 288.18 70.7023C288.761 69.7272 289.642 68.8906 290.236 67.8919C291.926 65.054 293.201 62.1656 294.201 59.0198C295.218 55.816 296.05 52.4189 295.959 49.0312C295.888 46.3864 295.249 43.7316 294.385 41.2471C293.516 38.7488 292.523 36.3956 290.676 34.4408C288.831 32.4878 286.964 30.5478 284.748 29.0238C282.833 27.707 281.032 26.9507 278.869 26.1665C278.066 25.8755 275.146 24.8967 275.028 26.5108C274.961 27.415 276.594 28.018 277.157 28.4698C278.142 29.2608 279.218 30.027 280.083 30.9563C281.42 32.3909 282.511 33.6303 283.095 35.567C283.786 37.8562 283.372 40.7853 282.652 43.0163C280.902 48.4366 277.898 53.9274 279.029 59.7886C279.53 62.3897 280.56 64.7295 282.389 66.6799C283.546 67.914 284.622 68.506 286.271 69.8471Z" stroke="white" stroke-linecap="round"/>
<path d="M305.305 94.8789C305.355 94.7587 305.76 93.945 305.486 94.2247C299.908 99.9124 290.02 99.0032 283.307 95.9393C279.419 94.1648 276.954 90.1323 272.635 89.2992C270.657 88.9176 268.815 89.3775 266.894 89.8363C264.963 90.2976 262.897 91.0051 261.327 92.258C260.279 93.0946 258.547 94.1667 258.936 95.7792C259.372 97.5883 260.57 98.5728 261.968 99.7063C266.918 103.718 273.577 106.177 279.842 106.961C285.698 107.694 292.586 107.329 297.852 104.357C299.829 103.241 302.308 101.405 303.212 99.237C303.832 97.7501 304.679 96.3669 305.305 94.8789Z" stroke="white" stroke-linecap="round"/>
<path d="M304.263 90.1798C304.586 89.7966 305.956 88.7781 305.546 88.5265C304.736 87.7319 304.131 86.6783 303.301 85.8644C300.943 83.5518 298.438 81.6302 295.617 79.9155C292.745 78.1691 289.641 76.5582 286.327 75.8458C283.741 75.2896 281.01 75.2832 278.392 75.5355C275.759 75.7892 273.238 76.1974 270.902 77.5301C268.568 78.8617 266.242 80.2166 264.237 82.0102C262.505 83.5599 261.344 85.1312 260.071 87.0474C259.599 87.7583 257.957 90.3642 259.498 90.861C260.361 91.1393 261.333 89.6949 261.904 89.2549C262.906 88.4846 263.905 87.6208 265.012 86.9993C266.722 86.0399 268.184 85.2724 270.204 85.1627C272.592 85.0329 275.34 86.1268 277.338 87.3541C282.191 90.3359 286.816 94.5524 292.778 94.8393C295.424 94.9665 297.941 94.5191 300.268 93.2031C301.741 92.3705 302.571 91.4644 304.263 90.1798Z" stroke="white" stroke-linecap="round"/>
<path d="M210.017 24.1795C209.968 24.2953 210.82 22.5306 211.179 21.6535C211.77 20.2082 212.632 18.849 213.555 17.596C215.119 15.4746 217.109 13.7864 219.62 12.9135C222.717 11.8371 225.789 10.7889 228.932 9.84615C231.836 8.97486 235.181 8.02782 237.769 6.39593C238.092 6.19216 238.4 5.98289 238.737 5.80182C238.758 5.79026 238.922 5.65232 238.922 5.70061C238.922 6.38779 238.425 7.28261 238.2 7.91421C237.057 11.1142 236.106 14.2919 234.692 17.4023C232.198 22.8901 228.097 27.238 223.07 30.4551C221.798 31.2688 220.545 31.9842 219.136 32.5323C218.394 32.8205 220.732 32.4747 221.521 32.5763C223.795 32.8691 225.893 33.6929 227.999 34.5566C230.203 35.4611 232.397 36.5991 234.068 38.3325C235.715 40.0417 237.333 41.7956 239.01 43.4727C240.286 44.7489 241.867 45.5903 243.243 46.716C243.866 47.2255 240.956 47.9335 240.638 48.0231C237.57 48.886 234.413 49.77 231.255 50.2235C225.765 51.0121 220.198 49.7186 215.439 46.9317C213.439 45.7606 211.798 44.4065 210.334 42.5925C209.913 42.0706 209.392 41.5521 209.163 40.9114C208.954 40.3259 209.499 41.4885 209.551 41.5847C210.259 42.9033 210.73 44.3332 211.368 45.6863C212.109 47.2555 212.973 48.7807 213.661 50.3731C214.94 53.3357 216.199 56.077 216.948 59.2363C218.307 64.964 216.413 70.0473 213.837 75.0792C213.559 75.6226 213.27 76.1901 212.93 76.6987C212.684 77.0685 211.234 75.7897 211.078 75.6601C209.729 74.5391 208.635 73.264 207.522 71.915C206.257 70.3822 204.764 68.9701 203.68 67.2986C199.789 61.2998 199.28 52.9914 201.145 46.21C201.383 45.3439 201.739 44.4943 201.858 43.6003C201.875 43.4699 201.937 43.3401 201.937 43.2086C201.937 42.401 201.26 44.6753 200.943 45.4178C198.465 51.2101 195.529 56.994 191.362 61.7976C188.998 64.523 186.115 67.2416 182.811 68.7773C181.338 69.4621 179.765 69.9891 178.243 70.5596C177.635 70.7879 176.7 71.3121 176.034 71.3121C175.595 71.3121 176.523 66.4624 176.593 66.0796C177.381 61.7459 179.196 57.6542 181.306 53.8145C182.443 51.7457 183.651 49.6536 185.073 47.7678C186.532 45.8349 188.456 44.2134 190.341 42.7113C192.022 41.3724 193.778 40.1402 195.565 38.9486C196.155 38.5551 196.515 38.1973 195.745 38.887C193.451 40.9425 191.013 42.7496 188.172 43.9831C184.73 45.4771 181.329 46.2437 177.667 46.9493C171.64 48.1105 165.138 45.8404 159.637 43.5079C158.854 43.1757 158.06 42.8711 157.296 42.4957C156.759 42.2323 157.037 41.9826 157.445 41.6727C160.073 39.6753 163.64 38.6263 166.696 37.4524C170.37 36.0405 173.926 34.5807 177.847 34.0021C181.185 33.5098 184.421 33.9323 187.762 34.0065C189.623 34.0479 191.657 34.2673 193.479 33.7469C193.912 33.6231 192.952 33.8429 192.872 33.8613C191.481 34.1791 189.986 33.8224 188.612 33.5621C185.552 32.9826 182.661 32.2843 179.924 30.7808C176.717 29.0184 174.901 26.4136 172.866 23.4842C171.334 21.2795 169.544 19.5572 167.51 17.8336C167.071 17.4621 163.231 15.0968 163.888 14.4538C164.649 13.7088 166.105 13.7102 167.074 13.644C169.406 13.4849 171.795 13.3959 174.129 13.534C178.102 13.7693 182.158 14.6075 185.69 16.4518C188.154 17.7388 190.677 18.9618 192.669 20.9318C193.813 22.0626 194.735 23.2841 195.635 24.6196C195.996 25.1548 196.338 25.6962 196.744 26.1995C196.842 26.3207 197.471 27.3132 197.343 26.8728C197.004 25.7069 196.825 24.4662 196.551 23.2818C196.195 21.7468 195.688 20.2532 195.283 18.7314C194.25 14.848 193.211 11.2249 193.659 7.16607C193.87 5.25808 194.143 3.37286 194.623 1.51104C195.188 -0.680787 196.402 -2.55296 197.589 -4.45204C198.482 -5.88098 199.614 -7.37178 200.195 -8.96726C200.296 -9.2462 200.638 -7.65475 200.67 -7.5238C201.072 -5.87335 201.884 -4.25339 202.58 -2.70933C204.068 0.593668 206.542 3.10244 208.415 6.13628C209.914 8.56397 210.81 11.26 211.439 14.0269C211.959 16.3163 212.004 18.7535 211.381 21.0374C211.092 22.0967 210.45 23.1697 210.017 24.1795Z" stroke="white" stroke-linecap="round"/>
<path d="M210.571 29.17C210.891 28.2753 211.51 27.4745 212.019 26.6879C212.98 25.2041 213.891 23.6443 214.941 22.2211C217.147 19.2334 219.653 16.707 223.114 15.237C225.718 14.1308 228.234 13.618 230.965 12.9706C231.582 12.8243 232.202 12.6888 232.817 12.5349C233.073 12.4711 232.631 12.8885 232.584 12.953C230.038 16.4536 227.534 19.987 224.434 23.0353C222.436 24.9994 219.72 26.3945 217.111 27.348C215.072 28.0933 212.729 28.8574 210.571 29.0115" stroke="white" stroke-linecap="round"/>
<path d="M204.313 28.2983C204.313 25.4669 201.836 23.0973 201.013 20.4649C199.938 17.0289 199.335 13.1557 199.604 9.54209C199.796 6.96565 200.455 4.63304 201.127 2.15756C201.234 1.76433 201.778 -0.208084 201.778 -0.10446C201.778 2.09266 201.87 4.25042 202.377 6.39992C203.09 9.42609 204.178 12.3258 204.828 15.3776C205.755 19.7307 205.668 23.9823 204.709 28.2983" stroke="white" stroke-linecap="round"/>
<path d="M209.938 37.4082C213.201 37.4082 216.295 38.8395 219.505 39.2125C222.484 39.5586 225.341 39.7773 228.236 40.5944C230.759 41.3064 232.553 42.7585 234.653 44.203C235.366 44.6936 236.162 44.9983 236.972 45.2856C237.229 45.3769 237.477 45.4093 237.135 45.6025C235.28 46.6496 233.096 46.5735 231.035 46.5003C227.937 46.3901 224.72 46.4718 221.732 45.5497C218.83 44.6541 215.963 43.5626 213.564 41.6506C212.119 40.4989 210.59 39.3783 209.7 37.7251" stroke="white" stroke-linecap="round"/>
<path d="M204.472 33.2099C204.221 31.833 201.124 33.5696 200.648 33.9097C199.042 35.0567 199.759 38.2495 201.523 38.8077C203.449 39.417 205.869 38.848 206.351 36.6778C206.715 35.0397 205.835 33.7514 204.472 32.9723" stroke="white" stroke-linecap="round"/>
<path d="M205.264 42.0823C205.264 45.514 205.306 48.8169 204.789 52.2174C204.346 55.1274 205.341 58.0492 206.298 60.7681C207.1 63.0463 208.314 65.1544 209.304 67.3517C209.69 68.2086 210.124 69.0082 210.395 69.913C210.564 70.4745 210.638 71.1429 210.888 71.6733C211.008 71.9281 211.084 71.1914 211.091 71.154C211.311 69.8513 211.488 68.5436 211.685 67.2373C212.186 63.9 212.741 60.4398 212.459 57.0539C211.955 51.0057 208.861 46.3515 205.502 41.5278" stroke="white" stroke-linecap="round"/>
<path d="M198.135 41.7657C196.201 43.4852 193.877 44.8095 192.018 46.6682C189.315 49.3714 187.093 52.8927 185.426 56.3059C184.417 58.3716 183.436 60.48 182.609 62.6255C182.442 63.0606 182.207 63.5191 182.152 63.9897C182.102 64.411 183.182 63.296 183.252 63.2284C187.439 59.1575 191.739 55.4635 194.808 50.4353C196.559 47.5675 197.331 44.5862 198.135 41.3696" stroke="white" stroke-linecap="round"/>
<path d="M194.729 36.537C192.392 36.537 190.068 36.1695 187.731 36.1762C184.417 36.1856 181.11 37.3845 177.97 38.359C175.551 39.1097 173.232 39.9815 170.683 40.2249C169.435 40.344 168.165 40.1892 166.929 40.3437C166.562 40.3895 167.098 40.6768 167.171 40.709C168.301 41.2074 169.561 41.3905 170.779 41.5187C174.518 41.9122 178.4 41.442 182.081 40.7706C185.153 40.2103 188.11 39.1355 190.961 37.8837C191.961 37.4449 192.936 36.9558 193.936 36.5194C194.281 36.3691 194.662 36.2032 194.887 35.9033" stroke="white" stroke-linecap="round"/>
<path d="M196.947 31.1502C196.894 30.6251 196.548 30.0188 196.331 29.5748C195.403 27.6831 194.398 25.7049 192.942 24.153C190.893 21.9695 187.092 21.21 184.308 20.3155C181.295 19.3476 178.256 18.4478 175.26 17.4285C174.355 17.1207 173.454 16.7504 172.584 16.3548C172.262 16.2084 173.254 17.1848 173.359 17.3053C174.9 19.0883 175.818 21.2995 177.284 23.132C179.003 25.2809 181.602 26.8478 184.132 27.8408C186.587 28.8045 189.526 29.8016 192.194 29.7068C193.277 29.6683 194.358 29.6105 195.442 29.6628C196.151 29.697 196.906 29.8188 197.581 29.566" stroke="white" stroke-linecap="round"/>
<path d="M201.461 29.8037C201.584 29.8037 201.664 29.8373 201.778 29.8829" stroke="white" stroke-linecap="round"/>
<path d="M206.214 31.1509C206.299 31.2355 206.403 31.2906 206.452 31.3885" stroke="white" stroke-linecap="round"/>
<path d="M207.719 33.1309V33.6061" stroke="white" stroke-linecap="round"/>
<path d="M207.244 36.7744C207.237 36.9805 207.223 37.1131 207.086 37.2497" stroke="white" stroke-linecap="round"/>
<path d="M205.818 39.7852C205.677 39.86 205.585 39.9436 205.422 39.9436" stroke="white" stroke-linecap="round"/>
<path d="M201.779 40.7356C201.567 40.7356 201.399 40.6939 201.224 40.5771" stroke="white" stroke-linecap="round"/>
<path d="M198.609 39.3884C198.434 39.2294 198.303 39.1374 198.213 38.9131" stroke="white" stroke-linecap="round"/>
<path d="M197.896 36.1411C197.954 35.7969 198.164 35.4325 198.293 35.1113" stroke="white" stroke-linecap="round"/>
<path d="M197.976 1.04883C197.924 1.21029 197.88 1.36716 197.817 1.52411" stroke="white" stroke-linecap="round"/>
<path d="M196.867 5.00977C196.819 5.25746 196.775 5.41293 196.867 5.64349" stroke="white" stroke-linecap="round"/>
<path d="M196.788 10C196.779 10.1641 196.741 10.3148 196.708 10.4753" stroke="white" stroke-linecap="round"/>
<path d="M197.026 14.1191C197.056 14.3606 197.129 14.5959 197.184 14.8321" stroke="white" stroke-linecap="round"/>
<path d="M234.811 13.1689C234.76 13.2258 234.754 13.26 234.731 13.3274" stroke="white" stroke-linecap="round"/>
<path d="M232.276 17.8423C232.16 18.107 232.016 18.3542 231.959 18.6344" stroke="white" stroke-linecap="round"/>
<path d="M230.216 21.1694C230.076 21.2692 229.962 21.3915 229.82 21.4863" stroke="white" stroke-linecap="round"/>
<path d="M227.682 23.9414C227.557 24.0607 227.428 24.1635 227.286 24.2583" stroke="white" stroke-linecap="round"/>
<path d="M224.354 27.2689L224.592 27.0312" stroke="white" stroke-linecap="round"/>
<path d="M223.166 35.3491H223.244" stroke="white" stroke-linecap="round"/>
<path d="M226.493 35.9824C226.628 36.0311 226.756 36.0963 226.889 36.1409" stroke="white" stroke-linecap="round"/>
<path d="M228.236 36.6958C228.357 36.7391 228.446 36.7901 228.553 36.8542" stroke="white" stroke-linecap="round"/>
<path d="M202.729 59.1119V59.0337" stroke="white" stroke-linecap="round"/>
<path d="M176.191 36.0615L176.113 36.1398" stroke="white" stroke-linecap="round"/>
<path d="M172.943 37.4082H172.865" stroke="white" stroke-linecap="round"/>
<path d="M168.586 15.2285C168.643 15.2791 168.677 15.2853 168.745 15.3077" stroke="white" stroke-linecap="round"/>
<path d="M175.32 15.4658C175.394 15.474 175.42 15.5057 175.479 15.545" stroke="white" stroke-linecap="round"/>
<path d="M374.276 84.2594C372.826 84.168 370.232 84.4559 368.81 84.5227C368.241 84.3828 367.98 83.152 367.762 82.6964C366.887 80.8665 366.194 78.9242 365.8 76.9304C365.146 73.6276 364.668 70.2726 364.816 66.898C364.941 64.0462 364.625 60.8711 365.36 58.0933C365.9 56.0483 367.494 54.2543 369.76 54.5037C370.213 54.5534 370.285 54.2843 370.504 53.8886C371.059 52.8849 371.537 51.8621 372.224 50.9361C372.538 50.5129 373.894 48.9839 374.255 50.181C374.347 50.4855 374.418 50.4632 374.631 50.2457C375.14 49.7289 375.712 49.2748 376.272 48.8157C376.584 48.5592 379.582 46.0406 379.974 46.8524C380.136 47.1869 379.792 47.7495 380.352 47.3615C382.001 46.2184 383.505 45.0357 385.448 44.4154C385.633 44.3564 386.873 43.9194 387.008 44.1737C387.109 44.3626 387.027 44.5884 387.172 44.7664C387.584 45.2728 389.31 43.3868 389.64 43.1452C389.991 42.8887 392.584 41.2039 392.829 41.838C392.954 42.1626 393.067 44.017 393.486 43.8302C393.695 43.7365 395.791 42.9155 395.8 43.0428C395.826 43.3956 395.812 43.7639 395.829 44.1188C395.882 45.2271 395.98 46.3328 396.028 47.4412C396.046 47.8489 395.857 49.1134 396.171 49.4556C396.367 49.6701 397.594 46.6738 397.869 48.1211C398.356 50.6931 397.417 53.5467 396.981 56.0599C396.927 56.3651 397.885 55.7252 397.955 55.6823C398.327 55.4538 398.849 54.9036 398.771 55.594C398.631 56.8355 398.542 58.0769 398.326 59.3085C398.15 60.3153 397.92 61.3547 397.875 62.3786C397.843 63.1122 400.362 62.0251 400.167 63.1148C399.807 65.1202 397.813 65.996 397.05 67.8642C397.031 67.9084 395.976 70.0646 396.486 70.0406C396.61 70.0347 397.074 69.855 397.087 70.0807C397.116 70.5957 396.656 71.3581 396.457 71.8133C396.131 72.5565 395.693 73.2411 395.329 73.965C395.267 74.0889 395.093 74.349 395.343 74.2722C395.705 74.1612 397.244 73.7608 396.972 74.3573C396.338 75.7471 395.133 76.9276 394.002 77.9234C392.172 79.534 390.224 80.7488 388.094 81.9431C385.861 83.1954 383.555 83.6029 381.091 84.1615C378.904 84.6571 376.489 84.3989 374.276 84.2594Z" stroke="white" stroke-linecap="round"/>
<path d="M394.002 77.9231C395.134 76.9273 396.339 75.7469 396.973 74.357C397.245 73.7606 395.705 74.1609 395.344 74.272C395.094 74.3487 395.267 74.0886 395.329 73.9648C395.693 73.2409 396.131 72.5562 396.457 71.813C396.657 71.3579 397.116 70.5955 397.087 70.0804C397.075 69.8548 396.611 70.0345 396.486 70.0403C395.976 70.0643 397.032 67.9081 397.05 67.8639C397.813 65.9958 399.807 65.1199 400.167 63.1146M400.167 63.1146C400.363 62.0248 397.844 63.112 397.876 62.3783C397.921 61.3544 398.151 60.3151 398.327 59.3083C398.543 58.0767 398.632 56.8352 398.772 55.5938C398.85 54.9034 398.328 55.4535 397.955 55.6821C397.885 55.725 396.928 56.3648 396.981 56.0597C397.418 53.5465 398.357 50.6929 397.869 48.1208C397.595 46.6736 396.368 49.6699 396.171 49.4554C395.858 49.1131 396.046 47.8486 396.029 47.4409C395.98 46.3325 395.882 45.2268 395.829 44.1185C395.813 43.7636 395.827 43.3954 395.801 43.0426C395.791 42.9152 393.696 43.7363 393.486 43.83M400.167 63.1146C401.577 60.7967 403.619 58.6816 405.917 57.4229C408.738 55.8783 411.53 54.1544 413.434 51.4964C413.962 50.76 414.487 49.958 414.857 49.1268C414.972 48.8685 415.06 48.6888 414.738 48.8701C414.587 48.9547 414.051 49.3273 413.865 49.2143C413.694 49.1103 414.451 46.8753 414.491 46.7133C414.851 45.2694 415.193 43.8083 415.403 42.3338C415.44 42.0682 415.609 41.5343 415.209 41.7259C415.141 41.7583 414.69 42.0266 414.668 41.878C414.504 40.736 414.882 39.4208 414.936 38.2729C414.944 38.0967 415.118 36.8358 414.838 36.7288C414.609 36.6412 414.197 37.0685 414.003 37.1642C413.717 37.3058 413.779 36.5696 413.775 36.4722C413.702 34.8911 413.328 32.6514 413.08 31.09C412.722 30.6999 412.18 31.6894 411.991 31.8897C411.65 32.2503 411.661 31.0188 411.631 30.8165C411.451 29.5924 411.268 28.359 410.888 27.1775C410.797 26.8961 410.538 25.5243 410.011 25.8921C409.699 26.1097 409.527 26.5435 409.179 26.7031C408.907 26.8282 408.728 25.7022 408.688 25.5725C408.135 23.795 407.494 21.8857 406.701 20.205C406.562 19.9099 405.23 21.5718 405.06 21.8107C404.682 22.3439 404.424 22.9504 404.232 23.5725C404.151 23.8351 404.125 24.2531 403.992 24.492C403.856 24.7372 402.7 23.7088 402.509 23.5867C401.812 23.1396 400.446 25.9014 400.274 26.2514C399.895 27.025 399.616 27.839 399.373 28.6646C399.244 29.1028 399.234 29.607 399.079 30.0296C398.934 30.4238 397.272 29.7463 396.859 29.898C395.905 30.2492 395.547 32.1561 395.417 33.0349C395.302 33.8078 394.454 33.4915 393.86 33.8865C392.729 34.6395 392.822 36.7152 392.88 37.8806C392.931 38.905 392.901 40.0602 393.147 41.0648C393.265 41.5479 393.508 43.3332 393.486 43.83M393.486 43.83C393.068 44.0168 392.955 42.1623 392.829 41.8378" stroke="white" stroke-linecap="round"/>
<path d="M403.089 53.9029C403.253 53.6457 403.305 53.459 403.388 53.134C403.808 51.5051 404.151 49.8407 404.421 48.1811C404.888 45.3222 404.611 42.5969 404.076 39.7715C403.626 37.3925 403.186 35.156 403.187 32.7125C403.187 30.5357 403.474 28.4658 403.923 26.3481" stroke="white" stroke-linecap="round"/>
<path d="M405.189 41.3457C405.527 40.9917 405.784 40.5395 406.062 40.1438C406.914 38.9263 407.846 37.8529 408.801 36.7295" stroke="white" stroke-linecap="round"/>
<path d="M405.476 47.5583C406.575 46.5164 407.467 45.2623 408.418 44.0909" stroke="white" stroke-linecap="round"/>
<path d="M403.201 49.939C402.623 49.3082 402.163 48.6132 401.721 47.8763C401.08 46.8097 400.28 45.3732 399.772 44.2431C397.396 38.9624 400.48 45.6369 398.861 41.4406" stroke="white" stroke-linecap="round"/>
<path d="M391.381 46.2604C391.253 46.3839 391.133 46.516 391.026 46.6583C389.825 48.2508 388.705 49.91 387.56 51.5426C384.819 55.4522 382.442 59.4668 380.296 63.7355C376.635 71.0177 372.911 78.3969 368.021 84.9476C366.147 87.4577 364.391 90.0187 362.342 92.3944C359.736 95.4168 357.179 98.418 354.244 101.13C352.457 102.782 350.603 104.32 348.696 105.831C347.263 106.965 345.82 108.082 344.594 109.44" stroke="white" stroke-linecap="round"/>
<path d="M372.596 80.2225C375.061 78.7305 377.977 77.9811 380.772 77.4044C382.301 77.0891 383.932 76.8733 385.358 76.2066C387.649 75.1349 389.538 73.4909 391.497 71.9352" stroke="white" stroke-linecap="round"/>
<path d="M376.235 73.5606C377.197 73.071 378.094 72.3687 379.005 71.8011C380.767 70.7039 382.457 69.9087 384.402 69.2265C386 68.6657 387.718 68.0641 389.028 66.9522C391.038 65.2458 392.502 63.0629 394.023 60.9464" stroke="white" stroke-linecap="round"/>
<path d="M391.964 57.0117C390.306 59.2941 387.943 61.4247 385.489 62.8047C383.665 63.8307 381.864 64.8427 380.101 65.979" stroke="white" stroke-linecap="round"/>
<path d="M374.939 69.1639C374.706 68.3156 374.774 67.4363 374.812 66.5611C374.939 63.6032 375.398 60.7706 375.806 57.8553" stroke="white" stroke-linecap="round"/>
<path d="M380.047 60.1494C379.867 57.9979 380.008 55.9254 380.078 53.7645" stroke="white" stroke-linecap="round"/>
<path d="M371.709 74.9756C371.186 72.4853 371.423 69.8582 371.361 67.334" stroke="white" stroke-linecap="round"/>
<path d="M360.269 99.7159C358.642 100.229 356.015 101.202 354.357 101.592C354.786 99.952 356.326 99.1604 357.111 98.2826C358.883 96.3009 360.863 94.7058 363.33 93.6806C365.831 92.6408 368.38 92.359 371.042 92.8917C372.35 93.1534 373.596 93.6261 374.787 94.2198C374.994 94.3232 376.274 95.0703 376.162 95.0654C375.189 95.0228 374.246 94.897 373.267 95.0214C372.729 95.0899 372.166 95.2438 371.911 95.7784C371.789 96.0347 371.932 96.7478 371.727 96.9105C371.452 97.1303 368.492 96.5138 369.394 97.6558C369.538 97.8377 370.171 98.5661 369.698 98.7438C368.67 99.1298 367.107 98.8846 366.049 98.9114C364.087 98.9612 362.151 99.122 360.269 99.7159Z" stroke="white" stroke-linecap="round"/>
<path d="M355.959 97.9092C355.81 98.2531 355.321 99.5053 355.305 99.8647C355.168 99.5014 355.19 99.1146 355.182 98.7295C355.164 97.8577 355.107 97.0004 354.871 96.1565C354.634 95.3076 354.179 94.4951 354.035 93.626C353.875 92.6635 354.009 91.669 353.956 90.6981C353.948 90.5437 353.672 88.9329 353.935 88.968C354.249 89.0098 354.598 89.1154 354.821 88.807C355.164 88.333 356.09 83.8156 356.621 83.9668C356.689 83.9862 356.772 84.1951 356.822 84.2443C357.014 84.4318 357.299 84.5193 357.56 84.5453C358.399 84.6289 359.237 84.175 359.933 83.7673C360.016 83.7188 361.247 82.948 361.232 83.273C361.197 84.0904 360.83 84.9179 360.739 85.7384C360.607 86.917 360.477 88.528 361.149 89.5868C361.504 90.1469 360.778 90.4278 360.385 90.8347C358.428 92.8591 357.069 95.3363 355.959 97.9092Z" stroke="white" stroke-linecap="round"/>
<path d="M408.231 62.1999C407.684 62.3312 407.134 62.4448 406.613 62.6596C406.16 62.6907 406.036 62.1758 406.085 61.9751C406.369 60.8068 406.972 59.7071 407.552 58.6636C408.855 56.3209 410.705 54.3923 412.548 52.4716L412.589 52.4288C413.893 51.0694 418.433 42.1424 420.617 44.8989C420.868 45.2157 420.813 46.1725 421.238 45.6701C422.537 44.1338 423.505 42.3477 425.084 41.0504C425.349 40.8331 427.737 39.0899 428.113 39.6811C428.286 39.9515 427.828 40.694 428.068 40.8847C428.175 40.9705 428.694 40.6823 428.774 40.647C429.461 40.3422 430.117 40.0279 430.858 39.8667C430.943 39.8481 432.927 39.5272 432.833 39.8257C432.661 40.3749 432.197 40.7994 432.157 41.4151C432.144 41.631 433.206 41.0469 433.298 41.0103C434.576 40.5001 435.965 39.9245 437.33 39.7159C437.874 39.6327 439.311 39.5799 439.469 40.3503C439.525 40.6242 439.26 41.0054 439.144 41.2316C438.741 42.0188 438.271 42.7618 437.902 43.5678C437.615 44.1931 436.344 46.209 437.171 46.8082C437.945 47.3686 438.274 47.2558 437.718 48.3271C436.625 50.4295 435 52.078 433.453 53.8379C433.062 54.2832 432.648 54.6586 433.091 55.1792C433.294 55.4168 433.772 55.7895 433.689 56.1561C433.497 57.0054 431.752 57.5389 431.076 57.7813C430.745 57.8999 428.002 58.5564 428.477 59.1556C428.802 59.5647 428.932 59.8206 428.285 59.9188C427.259 60.0748 426.15 59.9998 425.147 60.2499C424.92 60.3064 424.356 60.4289 424.259 60.6899C424.179 60.9065 424.555 60.9962 424.158 61.1126C423.024 61.4449 421.853 61.5705 420.673 61.5629C418.293 61.5476 415.979 61.0714 413.579 61.2077C411.768 61.3106 409.988 61.7789 408.231 62.1999Z" stroke="white" stroke-linecap="round"/>
<path d="M406.358 62.8359C404.98 63.3411 403.7 64.0448 402.399 64.7139C400.861 65.5048 399.257 66.2168 397.739 67.0354" stroke="white" stroke-linecap="round"/>
<path d="M408.043 61.1724C409.231 60.1335 410.928 59.3463 412.246 58.5525C414.983 56.9038 417.733 55.2767 420.444 53.5859C424.575 51.01 428.66 48.3631 432.774 45.7619" stroke="white" stroke-linecap="round"/>
<path d="M432.18 49.3945C431.784 49.6103 431.451 49.7315 430.996 49.8456C428.865 50.3795 426.689 50.7317 424.538 51.1682" stroke="white" stroke-linecap="round"/>
<path d="M427.417 54.8276C426.777 55.062 426.137 55.2017 425.459 55.3206C424.335 55.5178 422.875 55.7325 421.745 55.8126C416.403 56.1915 423.151 55.6455 418.82 55.7535" stroke="white" stroke-linecap="round"/>
<path d="M415.161 57.205C415.96 54.7779 417.23 52.5702 418.437 50.342" stroke="white" stroke-linecap="round"/>
<path d="M421.319 52.5161C422.346 50.579 423.834 48.8218 425.093 47.0389" stroke="white" stroke-linecap="round"/>
<path d="M409.791 76.4398C412.585 76.4069 417.161 75.4308 419.952 75.2723C421.686 75.1739 423.412 75.0609 425.15 75.1071C427.362 75.1659 429.565 75.3136 431.777 75.1973C434.36 75.0616 436.914 74.7816 439.502 74.75C442.307 74.7157 445.113 74.8146 447.895 74.3939C450.182 74.0481 452.533 73.5829 454.686 72.7138C455.676 72.3141 456.588 71.7796 457.493 71.2177C457.674 71.1051 458.185 70.8874 458.236 70.6267C458.305 70.2729 451.597 69.8462 450.859 69.801C449.963 69.7462 449.092 69.5474 448.201 69.4539M409.791 76.4398C409.953 76.4383 410.091 76.2513 410.18 76.1399C410.583 75.6339 410.765 74.9745 410.973 74.3765C411.379 73.2113 411.814 72.0536 412.201 70.8823C412.706 69.3552 413.745 66.6389 415.847 66.9841C416.678 67.1204 416.791 68.1078 417.234 68.6569C417.737 69.2792 418.922 68.3952 419.433 68.1744C420.244 67.8232 420.384 68.7928 420.937 69.2116C421.844 69.8982 422.994 69.6847 423.987 69.3313C424.624 69.105 425.164 68.7539 425.726 68.3885L425.727 68.3878C426.02 68.1972 426.374 67.93 426.747 67.9881C427.411 68.0914 427.831 68.8159 428.487 68.9082C428.91 68.9675 429.426 68.7233 429.81 68.5906C430.611 68.3142 431.393 67.9843 432.192 67.6993C432.907 67.4439 433.976 66.9223 434.753 67.2534C435.616 67.6207 436.212 68.1393 437.209 68.1118C438.442 68.0778 439.595 67.653 440.813 67.5461C441.365 67.4977 441.357 68.0151 441.488 68.4264C441.66 68.9689 442.05 68.8092 442.49 68.6666C443.043 68.4874 444.138 67.8478 444.731 68C444.96 68.0588 445.107 68.7585 445.351 68.9296C446.121 69.4683 447.306 69.3599 448.201 69.4539M409.791 76.4398C409.079 76.4461 408.378 76.5234 407.669 76.6087M448.201 69.4539C446.965 68.7669 445.199 67.1246 444.182 66.1527C443.725 65.7166 443.68 65.6171 443.039 65.7444C442.09 65.9329 441.488 65.7719 440.794 65.0985C440.145 64.4698 439.741 64.249 438.843 64.4827C437.758 64.7653 436.742 65.1205 435.611 64.913C434.758 64.7564 433.595 64.4405 433.143 63.6063C432.993 63.3298 432.895 63.1832 432.557 63.2913C431.412 63.6578 430.234 64.6692 429.016 64.714C428.252 64.7421 428.038 63.8297 427.367 63.6808C426.908 63.5789 426.321 63.8832 425.905 64.0267C425.001 64.3386 424.103 64.6676 423.161 64.8505C421.689 65.1363 420.86 64.5134 419.586 63.9018C418.321 63.295 416.729 63.6106 415.447 64.0169C410.499 65.586 408.472 72.3314 407.669 76.6087M407.669 76.6087C402.872 77.1857 398.079 77.777 393.278 78.3213" stroke="white" stroke-linecap="round"/>
<path d="M114.038 -1.58428C113.462 -0.249957 112.857 2.28874 112.44 3.64947C112.116 4.13782 110.869 3.96793 110.367 4.019C108.349 4.2241 106.286 4.22085 104.277 3.91835C100.947 3.41727 97.628 2.73406 94.5016 1.45507C91.8596 0.374239 88.7646 -0.401382 86.3982 -2.03105C84.6561 -3.23078 83.5061 -5.33709 84.5063 -7.38578C84.706 -7.79483 84.477 -7.95355 84.1785 -8.29324C83.4214 -9.15492 82.6203 -9.95063 81.9808 -10.9101C81.6885 -11.3486 80.7074 -13.1413 81.9562 -13.0767C82.2738 -13.0603 82.2765 -13.134 82.1441 -13.4088C81.8295 -14.062 81.5952 -14.7536 81.3522 -15.4357C81.2165 -15.8167 79.8586 -19.4889 80.7551 -19.584C81.1246 -19.6232 81.5379 -19.1091 81.3618 -19.7671C80.8429 -21.7052 80.2379 -23.5205 80.3104 -25.5588C80.3173 -25.7528 80.3252 -27.0682 80.6101 -27.1094C80.8218 -27.1399 81.0067 -26.9868 81.2232 -27.063C81.839 -27.2797 80.6469 -29.5412 80.5312 -29.934C80.4084 -30.3511 79.6983 -33.3601 80.3779 -33.3765C80.7257 -33.3848 82.5094 -32.8648 82.4749 -33.3217C82.4576 -33.5508 82.3927 -35.8006 82.5157 -35.7664C82.8566 -35.6716 83.1984 -35.5339 83.5381 -35.43C84.5992 -35.1054 85.6728 -34.8238 86.7325 -34.495C87.1222 -34.374 88.2486 -33.7692 88.6767 -33.9487C88.9449 -34.0612 86.5393 -36.2284 87.9942 -35.9978C90.5798 -35.5878 92.9484 -33.74 95.1663 -32.4799C95.4356 -32.3269 95.1567 -33.444 95.14 -33.5244C95.0508 -33.9523 94.7093 -34.6295 95.3328 -34.3229C96.4539 -33.7718 97.5923 -33.2685 98.6786 -32.6493C99.5666 -32.1432 100.467 -31.5755 101.416 -31.1875C102.095 -30.9094 101.923 -33.6478 102.883 -33.0955C104.649 -32.0792 104.799 -29.9067 106.3 -28.5573C106.335 -28.5254 108.008 -26.8031 108.158 -27.2915C108.195 -27.4108 108.182 -27.908 108.399 -27.8437C108.893 -27.6968 109.456 -27.0066 109.817 -26.665C110.406 -26.1074 110.902 -25.4639 111.461 -24.8769C111.556 -24.7765 111.743 -24.5252 111.755 -24.7864C111.772 -25.1645 111.916 -26.7485 112.385 -26.2909C113.479 -25.2248 114.183 -23.6917 114.738 -22.2906C115.636 -20.0243 116.121 -17.7803 116.526 -15.3723C116.95 -12.8472 116.555 -10.5396 116.248 -8.03105C115.976 -5.80548 114.917 -3.61948 114.038 -1.58428Z" stroke="white" stroke-linecap="round"/>
<path d="M84.0509 -30.5195C84.1239 -30.3572 84.2078 -30.2 84.3055 -30.051C85.3987 -28.3829 86.582 -26.768 87.732 -25.1392C90.4859 -21.2389 93.4614 -17.6451 96.7542 -14.1831C102.371 -8.27697 108.059 -2.27942 112.573 4.53582C114.302 7.1472 116.119 9.66576 117.663 12.3964C119.628 15.8703 121.588 19.2914 123.15 22.9696C124.101 25.2097 124.922 27.4744 125.7 29.7795C126.284 31.5115 126.847 33.2473 127.711 34.8597" stroke="white" stroke-linecap="round"/>
<path d="M123.854 16.8216C123.787 18.5263 123.815 21.3267 123.623 23.019C122.224 22.0613 121.999 20.3451 121.438 19.3097C120.172 16.9722 119.339 14.5692 119.207 11.9016C119.074 9.19597 119.669 6.70204 121.07 4.37596C121.758 3.23355 122.624 2.21995 123.585 1.30004C123.753 1.1399 124.888 0.187304 124.846 0.291233C124.477 1.19251 124.04 2.03812 123.826 3.00118C123.709 3.53134 123.664 4.11315 124.081 4.53306C124.281 4.73433 125 4.84143 125.084 5.08857C125.198 5.42244 123.618 8.00014 124.998 7.53675C125.217 7.46295 126.117 7.11313 126.124 7.6184C126.14 8.71593 125.382 10.1039 125.049 11.1088C124.433 12.9728 123.931 14.8493 123.854 16.8216Z" stroke="white" stroke-linecap="round"/>
<path d="M120.697 20.2674C120.971 20.5233 121.984 21.4072 122.317 21.5434C121.929 21.5499 121.572 21.3979 121.207 21.2753C120.381 20.9978 119.554 20.7619 118.68 20.6989C117.801 20.6356 116.883 20.7889 116.016 20.6315C115.056 20.4571 114.165 19.9948 113.234 19.7163C113.086 19.672 111.476 19.3873 111.598 19.1514C111.744 18.8702 111.961 18.578 111.746 18.2636C111.416 17.7804 107.477 15.3833 107.798 14.9346C107.84 14.877 108.064 14.8695 108.127 14.8388C108.369 14.7218 108.547 14.4828 108.66 14.246C109.022 13.484 108.878 12.5422 108.729 11.7498C108.712 11.6555 108.402 10.2365 108.703 10.3596C109.46 10.6694 110.115 11.2939 110.857 11.6571C111.922 12.1789 113.394 12.8459 114.618 12.571C115.265 12.4256 115.284 13.2042 115.534 13.7118C116.778 16.2371 118.651 18.3529 120.697 20.2674Z" stroke="white" stroke-linecap="round"/>
<path d="M289.338 -25.0668C286.613 -21.3702 283.749 -16.1815 280.904 -12.5583C274.305 -7.28853 287.383 0.719836 290.301 2.70907C299.78 9.17236 309.543 15.5192 319.874 20.554C321.933 21.5571 326.559 24.2256 329.053 23.369C330.089 23.0129 330.954 21.3613 331.592 20.5791C332.999 18.8566 334.274 17.057 335.451 15.1677C337.996 11.0789 340.91 6.63913 342.321 1.98881C343.119 -0.638065 344.509 -3.64935 344.061 -6.43772C343.646 -9.01973 339.165 -10.7033 337.24 -11.7749C332.357 -14.4936 327.497 -17.227 322.648 -20.015C317.723 -22.8468 312.486 -25.3086 307.274 -27.5549C303.913 -29.0039 299.207 -31.933 295.336 -31.1363C292.613 -30.5759 290.804 -27.0564 289.338 -25.0668Z" stroke="white" stroke-linecap="round"/>
<path d="M355.797 24.1019C358.224 25.5307 357.056 24.6865 359.451 26.1487C360.362 26.7051 360.626 27.1227 360.466 25.7035C360.227 23.5719 359.013 21.511 358.628 19.2814C357.937 15.2782 359.074 10.7611 361.01 7.23436C362.627 4.29002 361.125 3.85088 358.095 3.69807C352.537 3.4178 347.454 4.78827 341.897 4.16697L336.181 14.1759M355.797 24.1019C350.752 21.1323 341.8 15.9685 336.181 14.1759M355.797 24.1019C354.492 24.2143 353.166 25.8838 352.579 27.0049C351.865 28.3683 351.947 29.9389 352.153 31.4119C352.252 32.118 352.987 33.0103 352.826 33.723C352.461 35.3386 345.159 28.4706 344.793 28.013C341.476 23.8592 338.327 20.5526 332.754 19.9274L336.181 14.1759" stroke="white" stroke-linecap="round"/>
<path d="M284.911 -13.976C286.983 -11.5769 290.288 -9.84024 292.836 -8.0579C297.234 -4.98232 301.699 -1.95383 306.247 0.896818C312.774 4.98751 319.83 9.28309 327.148 11.7913" stroke="white" stroke-linecap="round"/>
</g>
<defs>
<clipPath id="clip0_2006_5212">
<rect width="461" height="114" fill="white"/>
</clipPath>
</defs>
</svg>
