<svg width="368" height="318" viewBox="0 0 368 318" fill="none" xmlns="http://www.w3.org/2000/svg">
<path d="M368.148 26.9497C367.047 24.8326 367.161 25.2134 366.854 22.814C366.753 22.019 368.738 21.9337 369.336 21.8181C372.651 21.1778 375.951 20.4927 379.282 19.9099C383.676 19.1413 388.107 18.5427 392.488 17.8119C394.73 20.2293 395.793 23.1594 397.526 25.9378C399.233 28.6739 400.941 31.4139 402.685 34.1287M368.148 26.9497C370.392 31.2667 373.982 38.1431 376.307 42.4174C377.583 44.7636 378.777 47.1526 380.054 49.4993C381.331 51.847 382.732 54.1784 383.873 56.5939C384.642 58.2221 385.24 59.9275 386 61.559C386.389 62.3937 386.858 62.5221 387.735 62.6199C391.079 62.9923 394.585 63.2944 397.942 62.9739C402.612 62.5281 407.242 61.804 411.895 61.2518C413.141 61.1039 414.365 60.8436 415.616 60.7179C415.896 60.6897 416.835 60.6095 417.115 60.6646M368.148 26.9497C367.555 27.3244 366.317 27.7387 365.674 28.0515C363.442 29.1386 361.032 29.923 358.754 30.9242C350.302 34.6379 342.288 39.0824 334.306 43.7033C329.026 46.7594 323.684 49.8891 318.907 53.7021C317.129 55.1219 315.398 56.5454 314.032 58.3867C313.484 59.1258 312.832 60.0981 312.901 61.0732C312.95 61.7876 313.534 62.3161 313.914 62.8709C314.753 64.095 315.502 65.3865 316.301 66.6368C318.667 70.3379 320.916 74.1019 323.263 77.8146C325.698 81.6656 327.749 85.7166 330 89.6727C331.549 92.3931 333.049 95.3871 334.173 98.3158C334.639 99.5305 334.618 100.015 335.729 100.694C337.624 101.853 339.532 103.145 341.314 104.468C342.539 105.378 343.882 106.275 345.235 106.989C345.711 107.24 346.284 107.572 346.841 107.576C347.398 107.58 347.978 107.157 348.439 106.904C350.059 106.019 351.623 104.988 353.2 104.029C362.836 98.1705 372.158 91.8015 381.604 85.6378C389.401 80.5495 397.053 75.31 404.32 69.4914C406.23 67.9618 408.133 66.4312 410.111 64.9881C411.82 63.7405 413.693 62.8282 415.477 61.7006C415.616 61.6128 417.615 60.763 417.115 60.6646M417.115 60.6646C417.365 61.0598 416.845 59.5354 416.656 59.1078C415.471 56.4244 414.12 53.7967 412.853 51.1496C411.467 48.2553 409.869 45.415 408.174 42.6462C407.523 41.5825 406.857 40.5293 406.184 39.4878" stroke="white" stroke-width="1.5" stroke-linecap="round"/>
<path d="M413.91 61.8498C412.486 62.8036 411.127 63.8361 409.61 64.6503C408.01 65.5089 406.24 66.0401 404.496 66.5149C398.759 68.0773 392.883 69.1052 387.207 70.8962C382.609 72.347 378.15 74.181 373.774 76.1964C369.613 78.1128 365.429 80.0345 361.358 82.1342C354.667 85.5846 347.691 88.9631 341.665 93.5267C340.031 94.7642 338.419 96.0419 336.912 97.4325C336.447 97.8614 335.948 98.256 335.492 98.6926C335.321 98.857 334.352 99.9048 334.729 99.2803" stroke="white" stroke-width="1.5" stroke-linecap="round"/>
<path d="M371.144 84.7833C370.089 85.8619 368.612 86.6739 367.392 87.5243C365.37 88.9334 363.369 90.3739 361.342 91.7759C359.544 93.0204 357.672 94.2684 355.705 95.2351C353.565 96.2869 351.352 97.2967 349.335 98.5724C348.924 98.8319 348.649 98.9317 348.171 98.9693C346.716 99.0838 345.206 98.898 343.739 98.9526C341.221 99.0462 338.648 99.2138 336.242 100.008" stroke="white" stroke-width="1.5" stroke-linecap="round"/>
<path d="M347.106 107.033C347.026 106.87 347.048 106.56 347.058 106.385C347.126 105.217 347.225 103.926 347.48 102.796" stroke="white" stroke-width="1.5" stroke-linecap="round"/>
<path d="M379.282 19.91C383.675 19.1413 388.107 18.5428 392.488 17.8119C394.73 20.2294 395.793 23.1595 397.526 25.9379C399.233 28.674 400.941 31.414 402.684 34.1287C403.358 35.1703 407.523 41.5826 408.174 42.6463C409.869 45.415 411.467 48.2554 412.852 51.1496C414.12 53.7968 415.152 55.5804 416.338 58.2637C416.527 58.6914 417.147 60.7142 417.147 60.7142C417.481 61.2432 415.505 61.1605 415.225 61.1886C413.974 61.3143 413.141 61.104 411.895 61.2519C407.241 61.8041 402.611 62.5282 397.942 62.9739C394.585 63.2944 391.079 62.9924 387.735 62.6199C386.858 62.5222 386.389 62.3938 386 61.559C385.24 59.9275 384.641 58.2221 383.873 56.5939C382.732 54.1785 381.331 51.8471 380.054 49.4993C378.777 47.1527 377.583 44.7637 376.307 42.4175C373.982 38.1432 370.392 31.2668 368.148 26.9498C367.047 24.8327 367.161 25.2135 366.854 22.8141C366.753 22.0191 368.738 21.9338 369.336 21.8182C372.651 21.1779 375.951 20.4928 379.282 19.91Z" stroke="white" stroke-width="1.5" stroke-linecap="round"/>
<path d="M356.589 50.7696C356.532 50.6536 356.63 50.4868 356.714 50.4015C357.207 49.9009 357.841 49.3972 358.577 49.5177C359.693 49.7005 359.381 50.9072 358.58 51.3603C358.24 51.5523 357.844 51.6978 357.463 51.7724C357.353 51.7942 358.143 51.8536 358.283 51.8903C359.108 52.1074 359.932 52.9478 359.055 53.7272C358.537 54.1879 357.619 54.4239 357.001 54.1011C356.827 54.01 356.606 53.8428 356.494 53.6792C356.409 53.5555 356.527 53.663 356.549 53.7659C356.671 54.3468 356.358 55.0424 355.819 55.356C354.768 55.9668 353.713 55.5097 353.27 54.5017C353.056 54.0162 352.737 53.2593 353.318 52.8573C353.446 52.7682 353.886 52.6886 353.739 52.6493C353.206 52.5064 352.962 52.3212 352.688 51.8135C352.395 51.2703 352.229 50.0827 353.071 49.868C353.473 49.7654 353.953 49.8301 354.24 50.1142C354.265 50.1393 354.539 50.4974 354.388 50.4379C353.608 50.131 353.511 49.102 353.812 48.4259C354.205 47.5434 355.34 47.532 355.925 48.1531C356.375 48.6308 356.447 49.2199 356.427 49.8576C356.421 50.0252 356.577 50.6137 356.589 50.7696Z" stroke="white" stroke-width="1.5" stroke-linecap="round"/>
<path d="M354.843 59.3799C354.922 60.0945 354.436 60.9449 354.119 61.5426C353.779 62.1835 353.265 62.6981 352.734 63.1767C351.276 64.4908 349.73 65.7031 348.429 67.1838C346.196 69.7256 344.541 72.7554 342.987 75.762" stroke="white" stroke-width="1.5" stroke-linecap="round"/>
<path d="M360.51 55.7757C360.758 54.7213 362.277 53.5959 363.169 54.1831C364.015 54.7397 363.91 55.8843 363.097 56.3981C363 56.4597 363.328 56.3455 363.376 56.3399C363.73 56.299 364.058 56.2922 364.39 56.4269C365.346 56.8145 365.951 57.9802 365.335 58.9144C364.832 59.6751 363.605 60.1473 362.773 59.6783C362.16 59.3333 362.732 59.4755 362.963 59.8089C363.679 60.8423 362.764 62.0443 361.717 62.3333C360.712 62.6104 359.199 62.1548 358.951 61.0366C358.775 60.2392 359.171 59.5891 359.834 59.1697C360.149 58.971 360.183 59.167 359.753 59.2113C359.004 59.2886 358.254 58.9988 357.895 58.3245C357.501 57.5846 357.69 56.6495 358.664 56.5985C359.026 56.5796 359.422 56.6833 359.683 56.9383C359.795 57.0474 359.96 57.3106 359.727 57.3925C358.979 57.6558 357.989 56.3573 357.819 55.7801C357.487 54.6514 358.542 53.5618 359.667 54.1716C360.257 54.4919 360.531 55.1295 360.51 55.7757Z" stroke="white" stroke-width="1.5" stroke-linecap="round"/>
<path d="M355.22 59.1204C355.468 58.066 356.987 56.9407 357.879 57.5278C358.725 58.0845 358.62 59.229 357.807 59.7428C357.71 59.8044 358.038 59.6902 358.086 59.6846C358.44 59.6438 358.768 59.6369 359.1 59.7716C360.056 60.1593 360.661 61.3249 360.044 62.2592C359.542 63.0198 358.315 63.492 357.483 63.023C356.87 62.678 357.442 62.8202 357.673 63.1536C358.389 64.1871 357.474 65.389 356.427 65.678C355.422 65.9552 353.909 65.4995 353.661 64.3813C353.485 63.5839 353.881 62.9339 354.544 62.5144C354.859 62.3157 354.893 62.5117 354.463 62.556C353.714 62.6333 352.964 62.3435 352.605 61.6693C352.211 60.9293 352.4 59.9942 353.374 59.9432C353.736 59.9243 354.132 60.028 354.393 60.2831C354.505 60.3921 354.67 60.6553 354.437 60.7372C353.689 61.0005 352.699 59.702 352.529 59.1248C352.197 57.9961 353.252 56.9065 354.376 57.5164C354.967 57.8366 355.241 58.4742 355.22 59.1204Z" stroke="white" stroke-width="1.5" stroke-linecap="round"/>
<path d="M349.699 47.5999C349.787 47.5443 349.806 47.4747 349.804 47.3783C349.782 46.5884 349.03 45.9764 348.213 46.0318C346.865 46.1233 346.315 47.727 346.897 48.6468C347.05 48.8889 347.265 48.7839 347.014 48.8035C346.176 48.8695 345.52 49.7061 345.282 50.4034C344.97 51.3192 345.611 51.9662 346.556 51.9343C346.89 51.923 347.196 51.8268 347.469 51.6095C347.66 51.4567 347.638 51.4078 347.523 51.6286C347.054 52.5379 347.182 53.6546 347.954 54.2133C348.728 54.7737 350.003 54.6405 350.56 53.672C350.754 53.3336 351.065 52.3821 350.617 52.1432C350.451 52.055 350.388 52.317 350.417 52.4222C350.502 52.7264 350.808 52.9799 351.08 53.128C352.869 54.1009 355.029 51.9759 353.646 50.4211C353.402 50.1465 352.956 49.8514 352.517 50.0126C352.398 50.0562 352.063 50.2707 352.221 50.404C352.709 50.816 353.183 49.5773 353.235 49.3548C353.478 48.3102 353.376 46.6688 352.022 46.5046C351.677 46.4627 351.158 46.6884 350.816 46.8941C350.623 47.0162 349.604 47.5286 349.699 47.5999Z" stroke="white" stroke-width="1.5" stroke-linecap="round"/>
<path d="M347.629 52.0937C346.28 53.3752 346.958 55.2416 347.535 55.3593C346.807 55.4252 346.143 56.191 346.165 56.7261C346.206 57.7549 347.091 59.1752 348.254 59.0711C348.523 59.0471 348.853 58.8787 348.755 57.8869C348.721 57.5427 348.946 58.189 348.946 58.189C348.232 59.7923 350.362 60.7323 351.74 59.8614C352.474 59.3973 352.911 58.5294 352.634 57.8136C352.552 57.6015 352.025 57.2874 352.48 57.4371C353.201 57.674 354.144 57.4744 354.713 56.8381C355.387 56.0843 355.202 54.9173 354.361 54.5504C353.869 54.336 353.193 54.4002 352.644 54.5828C352.428 54.6548 352.844 54.3269 352.898 54.2685C353.463 53.6533 353.882 52.7448 353.208 52.2174C352.527 51.6833 351.438 51.6324 350.546 52.0405C350.226 52.1869 350.028 52.413 349.804 52.6687L349.802 52.6709C349.771 52.7062 349.596 53.001 349.57 52.8647C349.425 52.1195 348.512 51.6077 347.629 52.0937Z" stroke="white" stroke-width="1.5" stroke-linecap="round"/>
<path d="M348.698 59.2954C348.59 59.3933 348.538 59.5166 348.465 59.6471C347.796 60.8357 347.132 62.0308 346.512 63.2458C345.834 64.5753 345.242 65.9701 344.744 67.3771C344.012 69.4446 343.35 71.5782 342.989 73.7439" stroke="white" stroke-width="1.5" stroke-linecap="round"/>
<path d="M349.916 60.5518C349.154 62.4831 348.26 64.4428 347.058 66.1423C346.011 67.6218 344.863 69.0099 343.692 70.3932C342.566 71.7243 341.456 73.0714 340.353 74.4207" stroke="white" stroke-width="1.5" stroke-linecap="round"/>
<path d="M360.381 40.0539C363.362 44.7687 366.126 49.6114 369.107 54.3262C370.886 57.1413 372.844 59.8186 374.711 62.5741C375.413 63.6101 376.122 64.6478 376.866 65.6551C377.007 65.8448 377.802 66.6699 377.564 67.0136C377.45 67.1776 377.122 67.2678 376.959 67.3289C375.901 67.7248 374.85 68.1192 373.805 68.5642C370.537 69.9556 367.325 71.4969 364.125 73.0737C359.668 75.2705 355.297 77.5748 350.911 79.9272C348.885 81.0137 346.932 82.3103 344.894 83.3567C343.834 83.9006 343.132 82.6191 342.644 82.0932C340.151 79.4089 338.174 76.3635 336.457 73.1603" stroke="white" stroke-width="1.5" stroke-linecap="round"/>
<path d="M333.264 52.1264C333.288 52.0418 333.321 51.9576 333.37 51.8846C333.91 51.0901 334.602 50.3551 335.271 49.6702C336.518 48.393 337.976 47.3457 339.437 46.3308C343.753 43.3319 348.526 40.4613 353.542 38.794C354.637 38.4301 355.763 38.1632 356.895 37.9396C357.415 37.8368 358.035 37.7107 358.569 37.7616C359.628 37.8625 360.006 39.0507 360.44 39.8366" stroke="white" stroke-width="1.5" stroke-linecap="round"/>
<path d="M35.0329 294.863C33.0184 293.584 33.3083 293.856 31.839 291.935C31.3522 291.298 33.0264 290.228 33.4859 289.828C36.0319 287.611 38.5427 285.363 41.1318 283.187C44.5466 280.318 48.0796 277.576 51.5025 274.746C54.6547 275.712 57.0441 277.713 59.9377 279.247C62.7874 280.757 65.6389 282.27 68.5096 283.744M35.0329 294.863C39.1407 297.471 45.6961 301.618 49.852 304.149C52.1332 305.538 54.3647 307.005 56.6462 308.395C58.9288 309.785 61.3108 311.098 63.5094 312.615C64.9915 313.638 66.365 314.813 67.841 315.843C68.5962 316.37 69.0664 316.245 69.8742 315.89C72.9536 314.534 76.1375 313.036 78.8807 311.075C82.6962 308.346 86.3379 305.396 90.0858 302.584C91.0899 301.831 92.0177 300.991 93.0367 300.255C93.265 300.09 94.0372 299.549 94.307 299.457M35.0329 294.863C34.7082 295.485 33.8449 296.465 33.4463 297.057C32.0606 299.118 30.3699 301.005 28.9012 303.015C23.4536 310.468 18.7516 318.334 14.1656 326.336C11.1326 331.628 8.08137 337.016 5.86311 342.711C5.03719 344.832 4.2544 346.932 3.99696 349.209C3.89361 350.124 3.81756 351.292 4.36582 352.101C4.7675 352.694 5.53752 352.859 6.1448 353.148C7.48469 353.786 8.78046 354.527 10.0991 355.208C14.0022 357.222 17.8364 359.349 21.7298 361.383C25.7683 363.492 29.5748 365.968 33.5074 368.26C36.2117 369.836 39.0117 371.673 41.4533 373.643C42.4659 374.46 42.6909 374.889 43.9932 374.919C46.2141 374.971 48.5125 375.13 50.7174 375.381C52.2343 375.554 53.8459 375.655 55.3743 375.594C55.9121 375.572 56.574 375.572 57.0577 375.297C57.5418 375.021 57.8308 374.364 58.1036 373.913C59.0603 372.334 59.8956 370.658 60.779 369.037C66.1745 359.135 71.0426 348.948 76.1199 338.877C80.3113 330.563 84.3016 322.191 87.6681 313.512C88.5531 311.23 89.4307 308.952 90.4173 306.711C91.2703 304.774 92.4326 303.045 93.4095 301.175C93.4856 301.029 94.7884 299.291 94.307 299.457M94.307 299.457C94.7214 299.673 93.5066 298.615 93.1286 298.34C90.757 296.614 88.2698 295.019 85.8454 293.365C83.1948 291.557 80.3873 289.901 77.5318 288.357C76.4347 287.764 75.3305 287.187 74.2255 286.624" stroke="white" stroke-width="1.5" stroke-linecap="round"/>
<path d="M92.1289 302.09C91.3756 303.63 90.7187 305.205 89.8148 306.67C88.8614 308.216 87.5973 309.563 86.327 310.849C82.1479 315.079 77.5814 318.917 73.5702 323.314C70.3211 326.876 67.3837 330.7 64.6098 334.639C61.9722 338.384 59.3177 342.146 56.8493 346.005C52.7931 352.347 48.4536 358.77 45.5312 365.741C44.7388 367.631 43.9857 369.545 43.3796 371.504C43.1927 372.109 42.9594 372.7 42.7839 373.307C42.7178 373.535 42.4059 374.927 42.4188 374.198" stroke="white" stroke-width="1.5" stroke-linecap="round"/>
<path d="M87.0552 312.187C84.6671 314.636 82.4593 317.283 80.2287 319.875C77.4007 323.162 75.6836 326.975 73.7906 330.856" stroke="white" stroke-width="1.5" stroke-linecap="round"/>
<path d="M41.1317 283.187C44.5465 280.318 48.0795 277.576 51.5024 274.746C54.6546 275.712 57.044 277.714 59.9377 279.247C62.7873 280.757 65.6388 282.271 68.5095 283.744C69.6145 284.307 76.4346 287.764 77.5317 288.357C80.3872 289.902 83.1948 291.557 85.8454 293.365C88.2697 295.019 90.0581 296.044 92.4298 297.77C92.8078 298.045 94.359 299.484 94.359 299.484C94.9138 299.774 93.1632 300.693 92.935 300.858C91.916 301.595 91.0898 301.831 90.0858 302.584C86.3379 305.397 82.6962 308.346 78.8806 311.075C76.1374 313.037 72.9535 314.534 69.8742 315.89C69.0663 316.246 68.5961 316.37 67.8409 315.843C66.3649 314.813 64.9914 313.638 63.5094 312.616C61.3107 311.098 58.9287 309.785 56.6461 308.395C54.3646 307.005 52.1331 305.538 49.8519 304.149C45.696 301.618 39.1406 297.471 35.0328 294.863C33.0183 293.584 33.3083 293.857 31.8389 291.935C31.3521 291.298 33.0263 290.228 33.4858 289.828C36.0319 287.611 38.5426 285.363 41.1317 283.187Z" stroke="white" stroke-width="1.5" stroke-linecap="round"/>
<path d="M70.4456 288.621C68.4246 292.164 65.4733 296.044 63.2853 299.493C62.9955 300.048 66.696 298.371 67.839 297.452C68.6934 296.766 69.1539 295.693 69.7475 294.802C70.2164 294.098 70.0388 293.503 70.0412 292.702C70.0447 291.525 70.3907 291.57 71.4609 291.436C71.9325 291.378 72.2313 290.581 72.4108 290.237L73.9921 287.21C75.6691 283.999 79.7623 278.276 81.8622 273.682C81.4813 274.324 80.801 274.85 80.3409 275.442C79.4045 276.645 78.3435 277.722 77.4834 278.99L77.3803 279.143C76.3257 280.698 75.2694 282.256 74.1924 283.796C73.6159 284.621 72.833 285.395 72.3662 286.289C72.1073 286.785 72.1085 287.406 71.8293 287.893C71.5439 288.392 70.7217 288.137 70.4456 288.621Z" stroke="white" stroke-width="1.5" stroke-linecap="round"/>
<path d="M71.2323 280.432C73.2749 277.459 75.6334 273.494 77.6129 270.48C77.8507 270.118 79.1722 271.274 79.3475 271.387C79.8191 271.69 82.2986 272.947 81.8627 273.682C81.4818 274.325 80.8015 274.85 80.3414 275.442C79.4049 276.645 78.3439 277.722 77.4839 278.991L77.3808 279.143C76.3262 280.698 75.2699 282.256 74.1929 283.796C73.6164 284.621 72.8335 285.395 72.3667 286.289C72.1077 286.785 72.1089 287.406 71.8298 287.893C71.5443 288.392 70.7222 288.137 70.4461 288.621C68.4251 292.164 66.1432 295.634 63.9552 299.083C63.6426 299.576 63.6365 299.81 63.1051 299.643C62.4512 299.437 61.8531 299.084 61.2912 298.695C60.9018 298.426 59.3407 297.582 59.6911 296.911C60.3982 295.558 61.3745 294.319 62.2138 293.043C63.049 291.773 63.8049 290.465 64.7044 289.235C65.3421 288.363 66.0957 287.489 66.6138 286.541C66.9602 285.907 67.8736 285.734 68.5334 285.514C69.0544 285.339 68.6196 284.238 68.8284 283.839C69.4559 282.637 70.4628 281.552 71.2323 280.432Z" stroke="white" stroke-width="1.5" stroke-linecap="round"/>
<path d="M76.8472 284.069C76.5037 283.164 77.5795 280.671 78.4126 281.948C79.3564 283.394 76.5266 285.106 75.5855 285.652C74.4276 286.323 73.3349 287.281 72.0473 287.685C71.4986 287.857 70.2649 287.208 70.2746 286.659" stroke="white" stroke-width="1.5" stroke-linecap="round"/>
<path d="M36.9863 321.267C36.8786 321.196 36.8803 321.002 36.9102 320.886C37.0851 320.206 37.3805 319.452 38.0776 319.187C39.1352 318.785 39.4704 319.985 39.0048 320.779C38.8076 321.116 38.5378 321.44 38.246 321.696C38.161 321.771 38.8744 321.425 39.0139 321.387C39.8368 321.16 40.9712 321.474 40.6036 322.588C40.3863 323.247 39.7108 323.912 39.0145 323.942C38.8178 323.951 38.5431 323.917 38.364 323.832C38.2285 323.768 38.3844 323.801 38.4549 323.879C38.8527 324.32 38.9305 325.079 38.6214 325.621C38.0191 326.677 36.877 326.811 35.9878 326.161C35.5595 325.848 34.9035 325.354 35.2042 324.715C35.2709 324.573 35.6111 324.284 35.4642 324.323C34.9313 324.467 34.6279 324.429 34.1361 324.127C33.61 323.805 32.8699 322.861 33.4906 322.253C33.7871 321.962 34.2348 321.777 34.6254 321.879C34.6599 321.888 35.0769 322.06 34.9161 322.085C34.0878 322.211 33.4875 321.369 33.4084 320.633C33.3051 319.673 34.2819 319.093 35.0991 319.337C35.7277 319.525 36.0862 319.998 36.3885 320.56C36.468 320.707 36.8974 321.139 36.9863 321.267Z" stroke="white" stroke-width="1.5" stroke-linecap="round"/>
<path d="M29.4365 321.982C29.4847 321.89 29.4662 321.82 29.4155 321.738C29.0003 321.066 28.0433 320.913 27.364 321.372C26.2434 322.127 26.5731 323.79 27.5377 324.294C27.7915 324.427 27.9244 324.228 27.7178 324.371C27.0259 324.848 26.8781 325.901 27.0225 326.624C27.2121 327.572 28.0911 327.81 28.8922 327.309C29.1756 327.131 29.3922 326.894 29.5188 326.57C29.6079 326.341 29.5637 326.311 29.5758 326.559C29.6256 327.581 30.297 328.483 31.2451 328.579C32.1961 328.675 33.232 327.92 33.2276 326.803C33.2261 326.413 33.0172 325.434 32.5096 325.452C32.3224 325.459 32.3991 325.717 32.4772 325.793C32.703 326.014 33.0952 326.08 33.405 326.071C35.44 326.015 36.2424 323.093 34.266 322.442C33.9169 322.327 33.3829 322.296 33.0844 322.655C33.0036 322.753 32.821 323.107 33.0245 323.143C33.6535 323.254 33.4419 321.945 33.3751 321.726C33.0615 320.701 32.1494 319.332 30.8961 319.869C30.5766 320.006 30.241 320.462 30.0481 320.811C29.9422 321.014 29.3186 321.968 29.4365 321.982Z" stroke="white" stroke-width="1.5" stroke-linecap="round"/>
<path d="M34.89 310.095C39.8343 312.678 44.6545 315.48 49.5988 318.063C52.5509 319.605 55.5875 320.938 58.5852 322.385C59.7123 322.929 60.8462 323.471 61.9956 323.969C62.212 324.062 63.3136 324.377 63.2803 324.794C63.2644 324.993 63.0256 325.236 62.9151 325.37C62.1992 326.243 61.4875 327.112 60.8068 328.021C58.6787 330.864 56.6732 333.81 54.6968 336.779C51.9433 340.916 49.3192 345.102 46.7051 349.338C45.4977 351.294 44.4595 353.395 43.2214 355.323C42.5777 356.325 41.3274 355.569 40.6411 355.359C37.1379 354.288 33.8993 352.646 30.8071 350.737" stroke="white" stroke-width="1.5" stroke-linecap="round"/>
<path d="M17.4912 334.144C17.469 334.059 17.4554 333.97 17.4616 333.882C17.5297 332.924 17.7596 331.941 17.9944 331.013C18.4323 329.282 19.1683 327.645 19.9225 326.034C22.151 321.274 24.84 316.396 28.3423 312.437C29.1067 311.573 29.9469 310.777 30.8134 310.016C31.2116 309.666 31.6844 309.246 32.1718 309.022C33.1389 308.578 34.0618 309.416 34.832 309.878" stroke="white" stroke-width="1.5" stroke-linecap="round"/>
<path d="M79.005 281.282C80.2213 279.964 81.6867 278.88 82.8982 277.555C83.5254 276.869 83.8922 276.564 84.6957 276.078C85.0351 275.872 85.2852 275.54 85.3372 275.567M85.3372 275.567C85.2752 274.968 83.1617 274.118 82.2066 273.619L72.471 285.227L76.909 287.545C78.358 284.771 81.1576 282.365 82.9972 279.832C83.8212 278.698 84.7061 277.432 85.234 276.126C85.2949 275.975 85.3249 275.679 85.3372 275.567Z" stroke="white" stroke-width="1.5" stroke-linecap="round"/>
<path d="M116.017 215.815C114.026 214.745 111.614 213.122 109.441 212.436C106.838 212.428 100.625 234.055 104.435 243.7C106.308 248.439 109.126 253.472 112.718 257.103C116.068 260.49 119.976 263.732 123.89 266.446C131.22 271.53 139.072 275.487 148.192 275.481C157.363 275.474 165.935 272.358 173.566 267.355C177.312 264.898 181.084 261.779 183.634 258.064C183.877 257.711 184.533 257.01 184.254 256.512C183.287 254.791 180.207 253.245 178.632 252.266C173.823 249.281 168.907 246.426 164.003 243.599C157.486 239.842 150.717 236.718 144.351 232.683C137.637 228.427 130.991 223.917 124.046 220.05C121.404 218.579 118.681 217.247 116.017 215.815Z" stroke="white" stroke-width="1.5" stroke-linecap="round"/>
<path d="M112.649 215.35C111.139 220.113 108.982 224.69 108.49 229.711C108.04 234.291 108.166 238.44 110.235 242.613C111.849 245.868 114.19 248.796 116.92 251.183C122.435 256.007 127.883 260.556 134.396 263.989C141.107 267.527 148.536 269.314 156.101 269.531" stroke="white" stroke-width="1.5" stroke-linecap="round"/>
<path d="M117.701 218.35C116.174 220.031 116.383 223.026 116.372 225.134C116.346 229.929 120.875 231.362 125.097 231.497C129.802 231.647 134.978 230.851 139.602 229.961" stroke="white" stroke-width="1.5" stroke-linecap="round"/>
<path d="M121.813 231.868C120.473 232.716 119.646 234.449 118.896 235.77C117.515 238.204 117.646 240.792 119.079 243.258C120.801 246.223 125.691 251.132 129.501 250.833C134.835 250.414 137.691 243.883 140.113 239.921C140.381 239.481 143.858 233.994 143.918 234.048" stroke="white" stroke-width="1.5" stroke-linecap="round"/>
<path d="M132.966 250.527C131.41 259.985 145.114 266.014 152.156 260.499C155.913 257.557 154.277 250.988 152.833 247.246C151.863 244.729 150.605 242.366 149.398 239.963C148.866 238.903 148.067 237.596 147.846 236.444" stroke="white" stroke-width="1.5" stroke-linecap="round"/>
<path d="M154.004 256.002C153.876 256.457 154.122 256.988 154.375 257.353C156.206 259.982 158.61 261.452 161.815 261.182C164.033 260.996 166.166 260.259 168.217 259.433C170.218 258.627 174.328 257.467 175.613 255.478C176.512 254.088 175.655 252.647 174.993 251.398" stroke="white" stroke-width="1.5" stroke-linecap="round"/>
<path d="M134.321 234.949C133.162 234.708 131.84 235.145 130.787 235.587C128.634 236.488 132.155 236.509 132.864 236.553" stroke="white" stroke-width="1.5" stroke-linecap="round"/>
<path d="M125.542 240.105C124.235 241.543 126.497 241.486 127.487 241.37" stroke="white" stroke-width="1.5" stroke-linecap="round"/>
<path d="M145.609 241.855C144.689 243.276 145.154 244.516 146.139 245.598" stroke="white" stroke-width="1.5" stroke-linecap="round"/>
<path d="M143.666 245.193C143.336 246.058 143.191 246.728 143.376 247.707C143.662 249.231 144.416 248.933 145.488 248.436" stroke="white" stroke-width="1.5" stroke-linecap="round"/>
<path d="M148.935 249.978C147.879 251.192 150.103 252.966 150.673 251.472" stroke="white" stroke-width="1.5" stroke-linecap="round"/>
<path d="M159.737 245.821C159.1 248.092 161.113 250.553 162.031 252.504" stroke="white" stroke-width="1.5" stroke-linecap="round"/>
<path d="M163.566 251.641C163.706 251.307 165.04 252.797 165.207 252.964" stroke="white" stroke-width="1.5" stroke-linecap="round"/>
<path d="M128.179 226.611C128.385 226.642 128.248 226.536 128.071 226.54C126.895 226.572 127.361 227.311 127.33 228.098" stroke="white" stroke-width="1.5" stroke-linecap="round"/>
<path d="M273.075 234.356C272.338 236.903 271.549 240.825 272.174 243.328C272.49 244.119 274.104 248.932 274.995 249.043C275.304 248.961 276.555 236.444 292.081 229.481C296.773 227.782 302.124 229.129 306.406 226.292C308.367 224.993 309.526 223.104 310.752 221.151C311.985 219.188 313.129 216.909 313.414 214.581C313.604 213.026 314.171 210.717 312.528 209.691C310.686 208.539 308.882 208.697 306.79 208.896C299.384 209.598 291.822 212.992 285.959 217.461C280.478 221.638 275.035 227.573 273.075 234.356Z" stroke="white" stroke-width="1.5" stroke-linecap="round"/>
<path d="M279.324 251.416C279.368 251.999 279.059 253.968 279.607 253.842C280.932 253.842 282.297 254.226 283.654 254.226C287.511 254.226 291.17 253.78 294.923 252.904C298.745 252.011 302.65 250.816 305.994 248.701C308.605 247.05 310.887 244.823 312.863 242.472C314.851 240.108 316.619 237.707 317.476 234.686C318.333 231.668 319.165 228.637 319.37 225.503C319.547 222.795 319.23 220.536 318.724 217.898C318.537 216.919 317.775 213.405 316.085 214.25C315.138 214.724 315.508 216.722 315.391 217.557C315.186 219.018 315.06 220.554 314.645 221.978C314.004 224.175 313.412 226.011 311.818 227.753C309.934 229.813 306.748 231.148 304.08 231.758C297.597 233.24 290.294 233.507 285.089 238.142C282.779 240.199 281.047 242.63 280.183 245.63C279.636 247.528 279.685 248.961 279.324 251.416Z" stroke="white" stroke-width="1.5" stroke-linecap="round"/>
<path d="M252.955 243.009C253.105 243.033 253.674 242.997 253.398 242.703C246.163 237.364 244.057 226.806 245.681 218.344C246.621 213.444 250.516 209.535 250.269 204.405C250.156 202.055 249.126 200.093 248.075 198.04C247.018 195.976 245.646 193.828 243.791 192.392C242.552 191.434 240.858 189.765 239.136 190.651C237.204 191.645 236.418 193.276 235.518 195.175C232.332 201.898 231.38 210.132 232.22 217.455C233.005 224.302 235.32 232.015 240.145 237.169C241.957 239.105 243.384 241.295 246.512 242.076C249.016 242.702 251.094 242.71 252.955 243.009Z" stroke="white" stroke-width="1.5" stroke-linecap="round"/>
<path d="M258.001 240.531C258.524 240.792 260.058 242.065 260.23 241.53C260.908 240.391 261.936 239.414 262.631 238.248C264.604 234.935 266.092 231.562 267.259 227.889C268.448 224.149 269.419 220.182 269.313 216.227C269.23 213.139 268.483 210.039 267.475 207.138C266.46 204.221 265.301 201.473 263.144 199.191C260.99 196.911 258.811 194.645 256.222 192.866C253.986 191.329 251.883 190.445 249.358 189.53C248.421 189.19 245.012 188.047 244.873 189.932C244.795 190.988 246.702 191.692 247.359 192.219C248.51 193.143 249.765 194.037 250.776 195.122C252.336 196.797 253.611 198.245 254.293 200.506C255.099 203.179 254.616 206.599 253.775 209.204C251.732 215.532 248.224 221.943 249.545 228.787C250.13 231.824 251.333 234.556 253.468 236.833C254.819 238.274 256.076 238.965 258.001 240.531Z" stroke="white" stroke-width="1.5" stroke-linecap="round"/>
<path d="M280.225 269.758C280.284 269.618 280.757 268.668 280.436 268.994C273.923 275.635 262.379 274.574 254.54 270.996C250.001 268.925 247.123 264.216 242.08 263.243C239.77 262.798 237.62 263.335 235.377 263.871C233.122 264.409 230.71 265.235 228.877 266.698C227.653 267.675 225.631 268.927 226.085 270.809C226.594 272.922 227.992 274.071 229.625 275.395C235.405 280.079 243.18 282.95 250.495 283.865C257.333 284.721 265.374 284.294 271.523 280.825C273.832 279.522 276.726 277.378 277.782 274.847C278.506 273.111 279.495 271.496 280.225 269.758Z" stroke="white" stroke-width="1.5" stroke-linecap="round"/>
<path d="M279.009 264.271C279.386 263.824 280.986 262.635 280.506 262.341C279.56 261.413 278.854 260.183 277.885 259.233C275.132 256.532 272.207 254.289 268.914 252.287C265.56 250.248 261.936 248.367 258.067 247.535C255.047 246.886 251.859 246.878 248.802 247.173C245.727 247.469 242.784 247.946 240.056 249.502C237.331 251.056 234.615 252.638 232.274 254.733C230.252 256.542 228.897 258.377 227.41 260.614C226.859 261.444 224.942 264.487 226.741 265.067C227.748 265.392 228.883 263.705 229.551 263.191C230.72 262.292 231.886 261.283 233.18 260.558C235.176 259.438 236.883 258.542 239.242 258.413C242.029 258.262 245.238 259.539 247.571 260.972C253.237 264.454 258.637 269.377 265.599 269.712C268.688 269.86 271.627 269.338 274.345 267.801C276.064 266.829 277.033 265.771 279.009 264.271Z" stroke="white" stroke-width="1.5" stroke-linecap="round"/>
<path d="M258.413 12.7404C258.355 12.8755 259.351 10.815 259.77 9.79096C260.46 8.10338 261.466 6.51642 262.545 5.05338C264.371 2.57654 266.693 0.605326 269.625 -0.413834C273.241 -1.67068 276.829 -2.89449 280.498 -3.99528C283.889 -5.01259 287.795 -6.11835 290.816 -8.02375C291.193 -8.26167 291.554 -8.50601 291.946 -8.71743C291.971 -8.73093 292.162 -8.89198 292.162 -8.83561C292.162 -8.03326 291.583 -6.98846 291.319 -6.25101C289.985 -2.51468 288.875 1.19554 287.224 4.8273C284.312 11.2348 279.523 16.3114 273.654 20.0677C272.169 21.0178 270.706 21.8531 269.06 22.493C268.195 22.8295 270.924 22.4258 271.845 22.5444C274.5 22.8863 276.95 23.8481 279.409 24.8566C281.983 25.9127 284.544 27.2415 286.495 29.2654C288.418 31.261 290.307 33.3088 292.265 35.267C293.755 36.7571 295.602 37.7395 297.208 39.0539C297.935 39.6487 294.538 40.4755 294.166 40.58C290.584 41.5875 286.898 42.6198 283.211 43.1492C276.8 44.0699 270.301 42.5597 264.744 39.3057C262.409 37.9384 260.493 36.3573 258.783 34.2393C258.292 33.6299 257.684 33.0245 257.417 32.2764C257.172 31.5928 257.808 32.9502 257.869 33.0626C258.696 34.6022 259.245 36.2717 259.991 37.8516C260.856 39.6838 261.865 41.4646 262.668 43.3239C264.162 46.7831 265.632 49.9837 266.506 53.6726C268.092 60.3602 265.882 66.2955 262.873 72.1707C262.549 72.8052 262.211 73.4677 261.815 74.0616C261.527 74.4933 259.834 73.0003 259.652 72.8489C258.077 71.5401 256.8 70.0513 255.5 68.4762C254.023 66.6865 252.28 65.0378 251.014 63.086C246.471 56.0819 245.877 46.381 248.054 38.463C248.333 37.4518 248.748 36.4598 248.887 35.416C248.907 35.2637 248.979 35.1121 248.979 34.9587C248.979 34.0157 248.189 36.6712 247.818 37.5381C244.925 44.3012 241.497 51.0544 236.632 56.6631C233.872 59.8453 230.505 63.0195 226.648 64.8126C224.928 65.6122 223.091 66.2275 221.314 66.8936C220.604 67.1601 219.512 67.7723 218.735 67.7723C218.222 67.7723 219.306 62.1097 219.387 61.6627C220.307 56.6027 222.427 51.8253 224.891 47.3421C226.218 44.9266 227.628 42.4838 229.289 40.282C230.992 38.0251 233.239 36.1318 235.44 34.378C237.402 32.8147 239.452 31.3759 241.539 29.9847C242.228 29.5253 242.649 29.1074 241.75 29.9128C239.071 32.3128 236.224 34.4227 232.907 35.863C228.889 37.6073 224.918 38.5024 220.641 39.3263C213.604 40.6821 206.013 38.0316 199.589 35.3081C198.675 34.9203 197.749 34.5645 196.856 34.1262C196.229 33.8188 196.554 33.5272 197.03 33.1654C200.099 30.8332 204.264 29.6083 207.831 28.2377C212.122 26.5892 216.273 24.8848 220.852 24.2092C224.749 23.6343 228.527 24.1276 232.429 24.2143C234.601 24.2626 236.977 24.5188 239.103 23.9112C239.609 23.7666 238.488 24.0232 238.394 24.0448C236.771 24.4159 235.025 23.9993 233.42 23.6954C229.848 23.0188 226.472 22.2034 223.277 20.4479C219.532 18.3901 217.412 15.3488 215.035 11.9285C213.247 9.35427 211.157 7.3433 208.782 5.33085C208.27 4.89703 203.786 2.13538 204.553 1.38459C205.441 0.514762 207.142 0.516385 208.273 0.439131C210.995 0.253277 213.785 0.149346 216.51 0.310674C221.149 0.585347 225.885 1.56407 230.008 3.71741C232.886 5.2202 235.831 6.64817 238.158 8.94827C239.493 10.2686 240.57 11.6949 241.621 13.2542C242.043 13.879 242.442 14.5112 242.916 15.0989C243.03 15.2404 243.764 16.3992 243.615 15.885C243.219 14.5237 243.01 13.0751 242.69 11.6921C242.275 9.89993 241.683 8.15597 241.21 6.37909C240.004 1.84492 238.791 -2.38549 239.314 -7.12454C239.56 -9.3523 239.879 -11.5535 240.439 -13.7273C241.099 -16.2865 242.517 -18.4725 243.903 -20.6898C244.945 -22.3582 246.267 -24.0989 246.945 -25.9618C247.063 -26.2875 247.462 -24.4293 247.499 -24.2764C247.969 -22.3493 248.917 -20.4579 249.73 -18.655C251.467 -14.7985 254.356 -11.8692 256.543 -8.32692C258.293 -5.49235 259.339 -2.34442 260.073 0.886166C260.681 3.5593 260.734 6.4049 260.006 9.07158C259.669 10.3084 258.919 11.5613 258.413 12.7404Z" stroke="white" stroke-width="1.5" stroke-linecap="round"/>
<path d="M259.06 18.567C259.433 17.5223 260.156 16.5873 260.751 15.669C261.873 13.9365 262.936 12.1152 264.162 10.4535C266.737 6.96502 269.664 4.01521 273.704 2.29894C276.745 1.00732 279.683 0.408543 282.871 -0.347323C283.592 -0.518241 284.316 -0.676386 285.034 -0.85603C285.333 -0.930627 284.817 -0.44328 284.762 -0.367876C281.79 3.71936 278.866 7.84493 275.246 11.4041C272.913 13.6974 269.742 15.3263 266.696 16.4397C264.315 17.3098 261.58 18.202 259.06 18.382" stroke="white" stroke-width="1.5" stroke-linecap="round"/>
<path d="M251.754 17.5494C251.754 14.2435 248.861 11.4768 247.9 8.40315C246.645 4.39133 245.941 -0.130999 246.255 -4.35027C246.48 -7.35852 247.248 -10.0821 248.033 -12.9724C248.158 -13.4316 248.794 -15.7346 248.794 -15.6136C248.794 -13.0482 248.901 -10.5288 249.493 -8.01907C250.326 -4.48572 251.596 -1.10002 252.355 2.4632C253.437 7.54597 253.336 12.5101 252.216 17.5494" stroke="white" stroke-width="1.5" stroke-linecap="round"/>
<path d="M258.321 28.1865C262.131 28.1865 265.743 29.8578 269.491 30.2933C272.969 30.6973 276.305 30.9526 279.686 31.9067C282.632 32.738 284.726 34.4335 287.178 36.1202C288.01 36.693 288.94 37.0486 289.886 37.3842C290.186 37.4908 290.475 37.5286 290.076 37.7542C287.91 38.9768 285.361 38.8879 282.954 38.8024C279.336 38.6738 275.58 38.7692 272.092 37.6925C268.703 36.6468 265.355 35.3724 262.555 33.1399C260.868 31.7952 259.083 30.4868 258.043 28.5565" stroke="white" stroke-width="1.5" stroke-linecap="round"/>
<path d="M251.939 23.2845C251.646 21.6768 248.029 23.7044 247.474 24.1015C245.599 25.4407 246.436 29.1686 248.496 29.8205C250.745 30.5318 253.57 29.8675 254.133 27.3335C254.558 25.4209 253.531 23.9167 251.939 23.007" stroke="white" stroke-width="1.5" stroke-linecap="round"/>
<path d="M252.863 33.6435C252.863 37.6503 252.913 41.5068 252.308 45.4772C251.791 48.8749 252.954 52.2865 254.071 55.461C255.007 58.121 256.424 60.5824 257.58 63.148C258.031 64.1485 258.538 65.0822 258.855 66.1385C259.051 66.7942 259.138 67.5746 259.43 68.1939C259.571 68.4913 259.659 67.6312 259.667 67.5876C259.924 66.0665 260.131 64.5396 260.36 63.0144C260.946 59.1177 261.594 55.0776 261.265 51.1242C260.676 44.0624 257.063 38.6282 253.141 32.9961" stroke="white" stroke-width="1.5" stroke-linecap="round"/>
<path d="M244.54 33.2735C242.281 35.2811 239.568 36.8274 237.398 38.9976C234.241 42.1539 231.647 46.2654 229.7 50.2506C228.522 52.6625 227.377 55.1242 226.412 57.6293C226.216 58.1373 225.942 58.6727 225.877 59.2222C225.82 59.7141 227.081 58.4122 227.162 58.3333C232.051 53.5801 237.072 49.267 240.655 43.396C242.699 40.0476 243.601 36.5667 244.54 32.811" stroke="white" stroke-width="1.5" stroke-linecap="round"/>
<path d="M240.562 27.1691C237.834 27.1691 235.121 26.74 232.392 26.7478C228.522 26.7588 224.661 28.1586 220.995 29.2964C218.171 30.173 215.463 31.1908 212.486 31.4751C211.029 31.6142 209.547 31.4333 208.103 31.6138C207.675 31.6673 208.301 32.0027 208.386 32.0403C209.705 32.6223 211.176 32.836 212.599 32.9857C216.964 33.4452 221.497 32.8961 225.794 32.1122C229.381 31.458 232.834 30.2031 236.164 28.7415C237.331 28.2291 238.47 27.658 239.637 27.1486C240.039 26.9731 240.484 26.7794 240.747 26.4292" stroke="white" stroke-width="1.5" stroke-linecap="round"/>
<path d="M243.153 20.879C243.091 20.2659 242.687 19.558 242.433 19.0395C241.35 16.8307 240.177 14.521 238.477 12.709C236.085 10.1596 231.646 9.27284 228.395 8.22835C224.878 7.09824 221.329 6.04764 217.831 4.8576C216.774 4.4981 215.723 4.0658 214.707 3.60383C214.331 3.43297 215.489 4.57295 215.611 4.71373C217.411 6.79549 218.483 9.37732 220.194 11.5169C222.202 14.026 225.236 15.8555 228.19 17.015C231.056 18.1401 234.488 19.3044 237.603 19.1936C238.868 19.1487 240.129 19.0812 241.395 19.1422C242.223 19.1822 243.105 19.3245 243.892 19.0292" stroke="white" stroke-width="1.5" stroke-linecap="round"/>
<path d="M248.424 19.3071C248.568 19.3071 248.661 19.3464 248.794 19.3996" stroke="white" stroke-width="1.5" stroke-linecap="round"/>
<path d="M253.973 20.8799C254.071 20.9787 254.193 21.043 254.25 21.1574" stroke="white" stroke-width="1.5" stroke-linecap="round"/>
<path d="M255.73 23.1924V23.7473" stroke="white" stroke-width="1.5" stroke-linecap="round"/>
<path d="M255.176 27.4463C255.167 27.687 255.15 27.8418 254.991 28.0012" stroke="white" stroke-width="1.5" stroke-linecap="round"/>
<path d="M253.511 30.9609C253.346 31.0483 253.238 31.1459 253.048 31.1459" stroke="white" stroke-width="1.5" stroke-linecap="round"/>
<path d="M248.794 32.0707C248.547 32.0707 248.351 32.022 248.146 31.8857" stroke="white" stroke-width="1.5" stroke-linecap="round"/>
<path d="M245.093 30.4983C244.889 30.3127 244.736 30.2052 244.631 29.9434" stroke="white" stroke-width="1.5" stroke-linecap="round"/>
<path d="M244.261 26.7063C244.328 26.3044 244.574 25.8789 244.724 25.5039" stroke="white" stroke-width="1.5" stroke-linecap="round"/>
<path d="M243.245 0.994141C243.28 1.27603 243.365 1.55075 243.43 1.82656" stroke="white" stroke-width="1.5" stroke-linecap="round"/>
<path d="M287.362 -0.115723C287.303 -0.0493231 287.296 -0.00942753 287.27 0.0692528" stroke="white" stroke-width="1.5" stroke-linecap="round"/>
<path d="M284.403 5.34131C284.267 5.65037 284.098 5.93905 284.033 6.2662" stroke="white" stroke-width="1.5" stroke-linecap="round"/>
<path d="M281.998 9.22559C281.833 9.34207 281.701 9.48489 281.535 9.59555" stroke="white" stroke-width="1.5" stroke-linecap="round"/>
<path d="M279.039 12.4624C278.894 12.6017 278.742 12.7218 278.576 12.8324" stroke="white" stroke-width="1.5" stroke-linecap="round"/>
<path d="M275.153 16.3473L275.431 16.0698" stroke="white" stroke-width="1.5" stroke-linecap="round"/>
<path d="M273.766 25.7817H273.857" stroke="white" stroke-width="1.5" stroke-linecap="round"/>
<path d="M277.651 26.5215C277.809 26.5783 277.957 26.6545 278.113 26.7065" stroke="white" stroke-width="1.5" stroke-linecap="round"/>
<path d="M279.686 27.354C279.826 27.4046 279.931 27.4642 280.056 27.539" stroke="white" stroke-width="1.5" stroke-linecap="round"/>
<path d="M249.904 53.5269V53.4355" stroke="white" stroke-width="1.5" stroke-linecap="round"/>
<path d="M218.918 26.6138L218.827 26.7051" stroke="white" stroke-width="1.5" stroke-linecap="round"/>
<path d="M215.126 28.186H215.035" stroke="white" stroke-width="1.5" stroke-linecap="round"/>
<path d="M210.039 2.28906C210.105 2.34808 210.145 2.35532 210.224 2.38155" stroke="white" stroke-width="1.5" stroke-linecap="round"/>
<path d="M217.901 2.56641C217.988 2.576 218.017 2.61294 218.086 2.65888" stroke="white" stroke-width="1.5" stroke-linecap="round"/>
<path d="M325.806 347.904C324.226 348.525 321.625 350.112 320.154 350.885C319.483 351.018 318.598 349.846 318.143 349.471C316.313 347.968 314.619 346.257 313.216 344.343C310.893 341.172 308.728 337.859 307.216 334.217C305.938 331.139 304.035 327.936 303.438 324.635C302.999 322.204 303.798 319.519 306.319 318.662C306.822 318.491 306.765 318.171 306.801 317.644C306.892 316.308 306.892 314.989 307.161 313.67C307.284 313.067 307.962 310.78 308.936 311.868C309.184 312.144 309.247 312.086 309.366 311.75C309.648 310.952 310.029 310.189 310.394 309.426C310.598 309.001 312.524 304.855 313.34 305.519C313.676 305.793 313.59 306.558 313.991 305.871C315.17 303.847 316.176 301.852 317.925 300.236C318.091 300.082 319.187 299.006 319.456 299.208C319.655 299.359 319.681 299.638 319.922 299.754C320.608 300.086 321.501 297.238 321.731 296.819C321.976 296.374 323.885 293.311 324.458 293.86C324.751 294.142 325.787 296.047 326.137 295.643C326.313 295.44 328.124 293.535 328.197 293.666C328.398 294.026 328.565 294.422 328.759 294.789C329.363 295.936 330.013 297.057 330.612 298.205C330.832 298.628 331.258 300.059 331.759 300.266C332.073 300.395 331.889 296.619 332.895 298.015C334.682 300.494 335.1 303.977 335.88 306.851C335.975 307.2 336.671 306.05 336.724 305.97C337.005 305.544 337.285 304.704 337.544 305.473C338.01 306.855 338.529 308.213 338.91 309.622C339.221 310.774 339.492 311.987 339.951 313.093C340.279 313.884 342.407 311.489 342.738 312.738C343.349 315.038 341.673 316.95 341.789 319.303C341.792 319.359 341.741 322.162 342.269 321.884C342.398 321.816 342.8 321.397 342.925 321.629C343.21 322.16 343.1 323.194 343.114 323.774C343.137 324.721 343.012 325.661 342.985 326.607C342.981 326.769 342.926 327.13 343.152 326.925C343.48 326.629 344.91 325.444 344.917 326.21C344.934 327.993 344.243 329.838 343.538 331.45C342.399 334.059 340.939 336.307 339.277 338.623C337.534 341.052 335.296 342.622 332.965 344.432C330.897 346.037 328.215 346.958 325.806 347.904Z" stroke="white" stroke-width="1.5" stroke-linecap="round"/>
<path d="M343.539 331.45C344.243 329.837 344.935 327.993 344.918 326.209C344.911 325.444 343.481 326.628 343.153 326.925C342.926 327.129 342.981 326.768 342.986 326.607C343.013 325.661 343.138 324.72 343.115 323.773C343.101 323.193 343.21 322.159 342.925 321.629C342.8 321.396 342.398 321.816 342.27 321.884C341.742 322.161 341.793 319.358 341.79 319.303C341.674 316.949 343.349 315.037 342.739 312.738M342.739 312.738C342.407 311.489 340.28 313.884 339.951 313.092C339.492 311.987 339.222 310.774 338.911 309.622C338.53 308.212 338.011 306.855 337.545 305.473C337.286 304.704 337.006 305.544 336.725 305.97C336.672 306.05 335.976 307.2 335.881 306.851C335.1 303.976 334.683 300.494 332.896 298.014C331.89 296.619 332.073 300.395 331.759 300.265C331.258 300.058 330.833 298.627 330.613 298.205C330.013 297.056 329.363 295.935 328.759 294.789C328.566 294.422 328.399 294.025 328.197 293.665C328.124 293.535 326.314 295.44 326.138 295.642M342.739 312.738C343.085 309.589 344.198 306.343 346.007 303.875C348.227 300.847 350.329 297.642 351.029 293.89C351.223 292.85 351.382 291.742 351.362 290.68C351.356 290.35 351.36 290.116 351.109 290.467C350.992 290.631 350.608 291.29 350.356 291.263C350.124 291.237 349.819 288.499 349.782 288.308C349.449 286.602 349.088 284.888 348.581 283.225C348.49 282.925 348.404 282.277 348.075 282.677C348.02 282.745 347.675 283.252 347.579 283.106C346.841 281.979 346.59 280.401 346.08 279.16C346.002 278.969 345.561 277.55 345.213 277.575C344.928 277.595 344.702 278.251 344.545 278.448C344.312 278.74 344.014 277.93 343.961 277.829C343.102 276.193 341.599 274.009 340.565 272.48C339.994 272.244 339.909 273.559 339.808 273.864C339.627 274.414 339.029 273.106 338.898 272.907C338.102 271.701 337.299 270.487 336.312 269.425C336.077 269.172 335.125 267.849 334.749 268.499C334.527 268.883 334.559 269.427 334.271 269.768C334.045 270.034 333.299 268.932 333.192 268.815C331.728 267.208 330.106 265.505 328.437 264.119C328.144 263.876 327.556 266.293 327.495 266.629C327.359 267.38 327.385 268.149 327.49 268.902C327.534 269.22 327.713 269.675 327.691 269.993C327.668 270.32 325.936 269.804 325.675 269.769C324.715 269.641 324.636 273.237 324.628 273.692C324.609 274.698 324.716 275.697 324.867 276.691C324.948 277.218 325.186 277.756 325.231 278.28C325.273 278.768 323.179 278.874 322.819 279.238C321.983 280.081 322.547 282.275 322.843 283.269C323.104 284.144 322.051 284.228 321.618 284.939C320.793 286.295 321.918 288.445 322.555 289.649C323.116 290.707 323.655 291.944 324.412 292.885C324.776 293.338 325.915 295.106 326.138 295.642M326.138 295.642C325.788 296.047 324.751 294.141 324.458 293.86" stroke="white" stroke-width="1.5" stroke-linecap="round"/>
<path d="M341.276 301.549C341.322 301.197 341.284 300.974 341.212 300.588C340.851 298.658 340.39 296.728 339.856 294.839C338.936 291.584 337.296 288.838 335.333 286.114C333.681 283.82 332.11 281.672 330.902 279.087C329.827 276.784 329.107 274.453 328.535 271.991" stroke="white" stroke-width="1.5" stroke-linecap="round"/>
<path d="M337.289 287.229C337.472 286.687 337.52 286.082 337.618 285.526C337.918 283.817 338.373 282.221 338.828 280.56" stroke="white" stroke-width="1.5" stroke-linecap="round"/>
<path d="M340.664 293.658C341.312 292.013 341.635 290.246 342.062 288.536" stroke="white" stroke-width="1.5" stroke-linecap="round"/>
<path d="M339.434 297.301C338.511 296.92 337.681 296.412 336.849 295.851C335.644 295.04 334.087 293.916 332.991 292.972C327.867 288.561 334.429 294.096 330.642 290.458" stroke="white" stroke-width="1.5" stroke-linecap="round"/>
<path d="M325.112 299.254C325.038 299.448 324.977 299.647 324.934 299.85C324.451 302.128 324.086 304.437 323.683 306.73C322.717 312.22 322.187 317.642 322.027 323.218C321.754 332.731 321.463 342.378 319.53 351.724C318.789 355.306 318.197 358.883 317.204 362.409C315.942 366.894 314.72 371.333 312.957 375.653C311.884 378.284 310.683 380.827 309.412 383.368C308.458 385.276 307.483 387.171 306.858 389.214" stroke="white" stroke-width="1.5" stroke-linecap="round"/>
<path d="M322.588 335.619C323.364 334.625 323.966 333.439 324.649 332.388C325.971 330.356 327.365 328.68 329.085 326.997C330.498 325.613 332.018 324.128 332.853 322.304C334.136 319.506 334.605 316.473 335.169 313.482" stroke="white" stroke-width="1.5" stroke-linecap="round"/>
<path d="M331.044 310.338C330.42 313.572 328.973 316.994 327.06 319.666C325.637 321.654 324.232 323.615 322.929 325.688" stroke="white" stroke-width="1.5" stroke-linecap="round"/>
<path d="M319.99 319.548C318.737 317.361 317.861 315.099 316.867 312.779" stroke="white" stroke-width="1.5" stroke-linecap="round"/>
<path d="M350.816 307.784C350.302 308.193 349.776 308.585 349.331 309.07C348.868 309.327 348.482 308.844 348.434 308.607C348.158 307.23 348.252 305.769 348.35 304.379C348.569 301.257 349.573 298.302 350.573 295.359L350.595 295.294C351.303 293.211 351.691 281.524 355.364 283.36C355.787 283.571 356.201 284.61 356.402 283.869C357.017 281.602 357.158 279.234 358.187 277.081C358.36 276.72 360.024 273.695 360.714 274.135C361.03 274.335 360.913 275.347 361.261 275.43C361.417 275.468 361.823 274.907 361.89 274.83C362.467 274.168 363.005 273.511 363.709 272.974C363.79 272.912 365.73 271.592 365.778 271.954C365.867 272.62 365.586 273.299 365.849 273.969C365.941 274.205 366.777 273.061 366.855 272.977C367.955 271.806 369.14 270.51 370.48 269.615C371.014 269.258 372.509 268.491 373.056 269.229C373.251 269.491 373.159 270.025 373.149 270.321C373.112 271.353 372.982 272.371 372.99 273.407C372.995 274.21 372.647 276.971 373.818 277.196C374.914 277.406 375.207 277.124 375.148 278.532C375.032 281.296 374.127 283.843 373.361 286.469C373.167 287.134 372.915 287.735 373.642 288.067C373.973 288.218 374.664 288.376 374.757 288.805C374.974 289.798 373.391 291.225 372.796 291.816C372.505 292.105 369.928 294.155 370.727 294.554C371.272 294.827 371.536 295.033 370.901 295.456C369.892 296.129 368.682 296.598 367.745 297.358C367.533 297.53 366.997 297.939 367.024 298.262C367.046 298.531 367.488 298.44 367.126 298.76C366.091 299.672 364.914 300.384 363.662 300.959C361.137 302.119 358.454 302.76 355.983 304.09C354.118 305.094 352.466 306.47 350.816 307.784Z" stroke="white" stroke-width="1.5" stroke-linecap="round"/>
<path d="M349.149 309.383C347.942 310.598 346.936 311.975 345.89 313.326C344.654 314.923 343.309 316.47 342.109 318.086" stroke="white" stroke-width="1.5" stroke-linecap="round"/>
<path d="M350.109 306.79C350.853 305.104 352.259 303.432 353.26 301.941C355.34 298.844 357.445 295.763 359.477 292.634C362.572 287.867 365.585 283.048 368.651 278.262" stroke="white" stroke-width="1.5" stroke-linecap="round"/>
<path d="M369.818 282.398C369.506 282.822 369.214 283.115 368.789 283.461C366.799 285.079 364.671 286.527 362.612 288.052" stroke="white" stroke-width="1.5" stroke-linecap="round"/>
<path d="M367.466 290.501C366.905 291.065 366.298 291.529 365.639 291.99C364.548 292.754 363.109 293.704 361.954 294.347C356.49 297.389 363.358 293.475 358.83 295.73" stroke="white" stroke-width="1.5" stroke-linecap="round"/>
<path d="M355.677 299.075C355.323 296.112 355.574 293.149 355.75 290.195" stroke="white" stroke-width="1.5" stroke-linecap="round"/>
<path d="M359.872 291.07C360.001 288.513 360.707 285.919 361.157 283.411" stroke="white" stroke-width="1.5" stroke-linecap="round"/>
<path d="M359.507 322.075C362.445 320.659 366.803 317.365 369.678 315.817C371.463 314.855 373.233 313.883 375.094 313.072C377.463 312.041 379.866 311.108 382.149 309.891C384.813 308.471 387.376 306.912 390.099 305.599C393.049 304.176 396.065 302.894 398.801 301.073C401.049 299.577 403.305 297.923 405.153 295.939C406.003 295.027 406.704 294.01 407.383 292.969C407.519 292.76 407.951 292.277 407.876 291.976C407.774 291.568 400.468 294.433 399.665 294.75C398.69 295.135 397.67 295.355 396.682 295.697M359.507 322.075C359.677 321.994 359.731 321.728 359.77 321.566C359.946 320.832 359.813 320.044 359.737 319.308C359.591 317.875 359.478 316.436 359.308 315.005C359.087 313.14 358.843 309.754 361.238 309.079C362.184 308.813 362.792 309.801 363.532 310.163C364.371 310.573 365.188 309.052 365.619 308.566C366.304 307.793 366.931 308.749 367.723 308.919C369.022 309.197 370.132 308.403 371.009 307.538C371.57 306.984 371.968 306.345 372.382 305.681L372.382 305.68C372.598 305.333 372.84 304.876 373.263 304.753C374.017 304.534 374.819 305.093 375.56 304.866C376.036 304.72 376.461 304.206 376.802 303.876C377.512 303.187 378.177 302.452 378.88 301.756C379.511 301.132 380.383 300.052 381.369 300.017C382.463 299.979 383.35 300.233 384.392 299.711C385.678 299.066 386.689 298.046 387.924 297.331C388.483 297.007 388.731 297.558 389.073 297.929C389.523 298.418 389.857 298.056 390.252 297.687C390.748 297.225 391.59 296.007 392.292 295.875C392.564 295.823 393.065 296.491 393.408 296.551C394.489 296.74 395.689 296.04 396.682 295.697M359.507 322.075C358.757 322.434 358.053 322.863 357.345 323.303M396.682 295.697C395.035 295.581 392.355 294.717 390.798 294.192C390.1 293.956 390.003 293.874 389.387 294.325C388.477 294.994 387.761 295.121 386.693 294.752C385.697 294.407 385.159 294.374 384.326 295.065C383.318 295.9 382.418 296.778 381.119 297.118C380.139 297.374 378.754 297.615 377.863 296.956C377.568 296.737 377.392 296.631 377.088 296.912C376.058 297.866 375.311 299.518 374.045 300.168C373.251 300.575 372.573 299.716 371.79 299.89C371.254 300.009 370.783 300.621 370.414 300.979C369.612 301.756 368.825 302.548 367.92 303.207C366.504 304.237 365.319 303.988 363.669 303.971C362.031 303.954 360.503 305.075 359.348 306.138C354.89 310.245 356.08 318.382 357.345 323.303M357.345 323.303C352.557 326.285 347.779 329.28 342.97 332.229" stroke="white" stroke-width="1.5" stroke-linecap="round"/>
<path d="M332.107 160.625C328.925 164.941 325.582 171 322.259 175.23C314.554 181.383 329.825 190.734 333.231 193.056C344.299 200.603 355.699 208.013 367.761 213.892C370.164 215.063 375.566 218.179 378.478 217.179C379.688 216.763 380.698 214.834 381.443 213.921C383.086 211.91 384.575 209.809 385.948 207.603C388.92 202.829 392.322 197.645 393.97 192.215C394.901 189.148 396.525 185.632 396.002 182.376C395.517 179.362 390.285 177.396 388.037 176.145C382.336 172.97 376.661 169.779 371 166.524C365.249 163.217 359.134 160.343 353.05 157.72C349.124 156.028 343.63 152.608 339.11 153.538C335.931 154.193 333.819 158.302 332.107 160.625Z" stroke="white" stroke-width="1.5" stroke-linecap="round"/>
<path d="M327.648 165.644C323.734 166.479 308.475 156.56 310.192 153.405C310.76 152.361 315.147 146.787 315.163 146.803C316.311 147.938 317.5 149.13 318.668 150.3C322.108 153.746 326.403 158.353 330.749 160.608L327.648 165.644ZM327.648 165.644L324.587 171.131C322.957 172.433 316.475 171.343 314.791 170.79C311.245 169.625 307.436 166.679 305.284 163.674C303.36 160.986 301.987 157.025 301.944 153.678C301.934 152.913 305.327 152.364 305.959 152.091C307.896 151.255 311.699 150.413 313.366 149.082" stroke="white" stroke-width="1.5" stroke-linecap="round"/>
<path d="M326.939 173.575C329.358 176.376 333.216 178.404 336.192 180.485C341.326 184.076 346.54 187.612 351.851 190.94C359.471 195.717 367.71 200.732 376.254 203.661" stroke="white" stroke-width="1.5" stroke-linecap="round"/>
<path d="M198.049 324.8C197.964 324.92 199.366 323.112 199.989 322.197C201.015 320.69 202.328 319.347 203.687 318.14C205.989 316.097 208.67 314.651 211.75 314.264C215.548 313.786 219.312 313.335 223.13 313.021C226.658 312.731 230.709 312.461 234.06 311.225C234.478 311.071 234.881 310.907 235.309 310.781C235.337 310.773 235.557 310.656 235.545 310.711C235.378 311.496 234.594 312.397 234.184 313.064C232.102 316.441 230.245 319.839 227.875 323.049C223.694 328.711 217.955 332.681 211.433 335.135C209.783 335.756 208.178 336.269 206.435 336.553C205.519 336.702 208.273 336.875 209.149 337.182C211.675 338.068 213.872 339.518 216.067 341.016C218.365 342.584 220.594 344.416 222.081 346.801C223.548 349.153 224.97 351.549 226.478 353.871C227.626 355.639 229.228 356.983 230.526 358.603C231.113 359.336 227.619 359.439 227.233 359.464C223.52 359.704 219.7 359.948 215.984 359.699C209.521 359.267 203.478 356.439 198.719 352.101C196.719 350.278 195.173 348.333 193.941 345.906C193.587 345.208 193.118 344.49 193.013 343.702C192.916 342.983 193.256 344.443 193.291 344.565C193.781 346.243 193.971 347.99 194.372 349.691C194.837 351.663 195.454 353.614 195.853 355.6C196.595 359.294 197.367 362.73 197.456 366.52C197.617 373.392 194.221 378.738 190.058 383.859C189.608 384.413 189.14 384.99 188.629 385.489C188.258 385.851 186.912 384.039 186.765 383.853C185.497 382.246 184.557 380.524 183.613 378.713C182.54 376.655 181.178 374.68 180.346 372.508C177.358 364.713 178.793 355.1 182.569 347.808C183.051 346.876 183.663 345.992 184.017 345C184.068 344.855 184.17 344.722 184.202 344.572C184.398 343.65 183.073 346.083 182.53 346.854C178.294 352.868 173.537 358.761 167.613 363.236C164.251 365.775 160.298 368.18 156.153 369.132C154.304 369.556 152.379 369.776 150.503 370.059C149.752 370.172 148.558 370.544 147.797 370.382C147.295 370.275 149.533 364.962 149.706 364.542C151.657 359.783 154.724 355.551 158.065 351.678C159.866 349.591 161.753 347.495 163.835 345.686C165.97 343.832 168.561 342.448 171.079 341.19C173.323 340.068 175.628 339.087 177.958 338.16C178.728 337.854 179.226 337.533 178.179 338.134C175.06 339.924 171.837 341.396 168.292 342.116C164 342.987 159.929 343.037 155.575 342.954C148.41 342.817 141.535 338.646 135.818 334.647C135.004 334.078 134.172 333.537 133.39 332.923C132.841 332.492 133.22 332.274 133.761 332.019C137.247 330.376 141.576 330.044 145.35 329.444C149.889 328.724 154.304 327.92 158.924 328.211C162.855 328.458 166.448 329.726 170.246 330.622C172.361 331.121 174.632 331.865 176.838 331.713C177.363 331.677 176.214 331.695 176.117 331.696C174.452 331.722 172.831 330.952 171.324 330.321C167.971 328.916 164.838 327.417 162.078 325.036C158.842 322.244 157.4 318.829 155.787 314.989C154.572 312.099 152.946 309.698 151.041 307.236C150.631 306.705 146.819 303.072 147.725 302.496C148.775 301.83 150.438 302.185 151.561 302.345C154.262 302.729 157.013 303.207 159.644 303.932C164.125 305.164 168.554 307.106 172.14 310.07C174.642 312.138 177.226 314.147 179.024 316.88C180.056 318.449 180.812 320.068 181.516 321.812C181.799 322.511 182.058 323.212 182.4 323.886C182.482 324.048 182.959 325.334 182.92 324.8C182.815 323.386 182.912 321.926 182.887 320.506C182.853 318.667 182.636 316.838 182.543 315.002C182.306 310.316 181.999 305.926 183.496 301.399C184.2 299.271 184.969 297.184 185.969 295.174C187.146 292.808 188.987 290.965 190.804 289.084C192.171 287.669 193.825 286.241 194.875 284.559C195.059 284.265 195.063 286.166 195.068 286.323C195.126 288.306 195.661 290.353 196.081 292.285C196.978 296.419 199.195 299.885 200.598 303.804C201.721 306.941 202.089 310.237 202.136 313.55C202.175 316.291 201.635 319.085 200.369 321.543C199.782 322.682 198.788 323.752 198.049 324.8Z" stroke="white" stroke-width="1.5" stroke-linecap="round"/>
<path d="M197.47 330.634C198.052 329.69 198.953 328.926 199.726 328.151C201.184 326.69 202.602 325.129 204.147 323.759C207.391 320.882 210.867 318.605 215.176 317.766C218.419 317.134 221.417 317.159 224.693 317.083C225.433 317.065 226.174 317.061 226.914 317.035C227.222 317.024 226.616 317.393 226.547 317.456C222.789 320.836 219.072 324.263 214.791 326.992C212.033 328.751 208.592 329.685 205.381 330.141C202.871 330.497 200.011 330.801 197.508 330.453" stroke="white" stroke-width="1.5" stroke-linecap="round"/>
<path d="M190.534 328.12C191.222 324.886 188.968 321.579 188.666 318.372C188.272 314.187 188.524 309.618 189.709 305.556C190.553 302.66 191.871 300.156 193.24 297.492C193.457 297.068 194.558 294.948 194.533 295.066C194 297.576 193.581 300.062 193.638 302.64C193.718 306.269 194.257 309.845 194.258 313.488C194.261 318.685 193.13 323.52 190.987 328.216" stroke="white" stroke-width="1.5" stroke-linecap="round"/>
<path d="M181.429 329.589C181.497 328.977 181.249 328.2 181.108 327.64C180.508 325.255 179.84 322.751 178.554 320.626C176.744 317.635 172.587 315.845 169.624 314.147C166.418 312.31 163.165 310.545 159.991 308.654C159.032 308.083 158.094 307.441 157.195 306.778C156.863 306.533 157.76 307.889 157.849 308.052C159.177 310.462 159.689 313.21 160.918 315.659C162.36 318.531 164.948 320.951 167.596 322.699C170.166 324.395 173.281 326.248 176.351 326.787C177.597 327.006 178.846 327.202 180.071 327.525C180.873 327.736 181.706 328.059 182.537 327.933" stroke="white" stroke-width="1.5" stroke-linecap="round"/>
<path d="M192.59 291.302L192.513 291.664" stroke="white" stroke-width="1.5" stroke-linecap="round"/>
<path d="M189.91 295.46C189.812 295.632 189.723 295.801 189.614 295.965" stroke="white" stroke-width="1.5" stroke-linecap="round"/>
<path d="M187.682 299.715C187.567 299.986 187.479 300.153 187.529 300.439" stroke="white" stroke-width="1.5" stroke-linecap="round"/>
<path d="M186.381 305.395C186.332 305.58 186.251 305.743 186.175 305.918" stroke="white" stroke-width="1.5" stroke-linecap="round"/>
<path d="M185.653 310.157C185.629 310.44 185.655 310.727 185.661 311.01" stroke="white" stroke-width="1.5" stroke-linecap="round"/>
<path d="M229.037 318.242C228.966 318.295 228.95 318.333 228.908 318.404" stroke="white" stroke-width="1.5" stroke-linecap="round"/>
<path d="M152.904 304.521C152.956 304.593 152.994 304.608 153.065 304.65" stroke="white" stroke-width="1.5" stroke-linecap="round"/>
<path d="M160.536 306.427C160.619 306.455 160.64 306.497 160.698 306.556" stroke="white" stroke-width="1.5" stroke-linecap="round"/>
</svg>
