<svg width="310" height="252" viewBox="0 0 310 252" fill="none" xmlns="http://www.w3.org/2000/svg">
<path d="M300.301 16.3485C299.358 14.5353 299.456 14.8615 299.193 12.8065C299.106 12.1256 300.806 12.0525 301.319 11.9535C304.158 11.4051 306.984 10.8184 309.837 10.3192C313.6 9.66091 317.395 9.14831 321.148 8.52234C323.068 10.5928 323.978 13.1023 325.462 15.4819C326.925 17.8253 328.387 20.1719 329.88 22.497M300.301 16.3485C302.223 20.0459 305.298 25.9352 307.289 29.596C308.382 31.6054 309.405 33.6515 310.498 35.6613C311.592 37.672 312.792 39.6688 313.769 41.7375C314.427 43.132 314.94 44.5926 315.591 45.9899C315.924 46.7048 316.326 46.8149 317.077 46.8986C319.941 47.2176 322.943 47.4763 325.818 47.2018C329.818 46.82 333.783 46.1998 337.768 45.7269C338.836 45.6002 339.884 45.3772 340.955 45.2696C341.195 45.2455 342 45.1767 342.24 45.224M300.301 16.3485C299.793 16.6695 298.733 17.0243 298.183 17.2921C296.271 18.2232 294.207 18.895 292.255 19.7526C285.016 22.9332 278.153 26.7397 271.316 30.6973C266.795 33.3147 262.219 35.9952 258.128 39.2609C256.605 40.4768 255.123 41.696 253.953 43.273C253.484 43.9061 252.926 44.7388 252.984 45.5739C253.027 46.1857 253.527 46.6384 253.852 47.1136C254.571 48.162 255.212 49.2681 255.897 50.3389C257.922 53.5087 259.849 56.7324 261.859 59.9123C263.945 63.2104 265.701 66.68 267.629 70.0682C268.955 72.3981 270.24 74.9624 271.203 77.4707C271.602 78.511 271.584 78.9259 272.536 79.5079C274.159 80.5005 275.793 81.6063 277.319 82.7396C278.369 83.5194 279.519 84.2873 280.677 84.8986C281.085 85.1138 281.575 85.3982 282.052 85.4017C282.53 85.4053 283.026 85.0428 283.422 84.8265C284.809 84.0679 286.148 83.1851 287.499 82.3636C295.752 77.3462 303.736 71.8915 311.825 66.6125C318.503 62.2546 325.057 57.7672 331.281 52.7837C332.917 51.4737 334.547 50.1628 336.24 48.9269C337.705 47.8583 339.309 47.077 340.836 46.1112C340.955 46.036 342.667 45.3083 342.24 45.224M342.24 45.224C342.454 45.5624 342.008 44.2569 341.846 43.8906C340.831 41.5924 339.674 39.3419 338.589 37.0747C337.402 34.5959 336.034 32.1633 334.582 29.792C334.024 28.8809 333.454 27.9789 332.877 27.0869" stroke="white" stroke-linecap="round"/>
<path d="M339.494 46.2392C338.275 47.0561 337.111 47.9404 335.812 48.6377C334.441 49.3731 332.926 49.828 331.432 50.2347C326.518 51.5728 321.486 52.4532 316.625 53.9871C312.687 55.2296 308.867 56.8004 305.12 58.5265C301.556 60.1678 297.973 61.8137 294.486 63.612C288.755 66.5671 282.78 69.4607 277.62 73.3692C276.22 74.4291 274.84 75.5233 273.549 76.7143C273.151 77.0817 272.724 77.4197 272.333 77.7936C272.186 77.9343 271.356 78.8318 271.679 78.2969" stroke="white" stroke-linecap="round"/>
<path d="M302.867 65.8804C301.963 66.8043 300.698 67.4996 299.653 68.228C297.922 69.4349 296.208 70.6686 294.472 71.8693C292.932 72.9352 291.328 74.004 289.644 74.832C287.811 75.7328 285.916 76.5977 284.188 77.6903C283.837 77.9125 283.601 77.998 283.191 78.0302C281.946 78.1283 280.652 77.9691 279.395 78.0159C277.239 78.0961 275.036 78.2396 272.975 78.9199" stroke="white" stroke-linecap="round"/>
<path d="M282.279 84.9366C282.211 84.7973 282.23 84.5311 282.239 84.3813C282.296 83.381 282.382 82.2757 282.6 81.3081" stroke="white" stroke-linecap="round"/>
<path d="M309.837 10.3193C313.6 9.66098 317.395 9.14838 321.147 8.52241C323.068 10.5928 323.978 13.1024 325.462 15.4819C326.925 17.8253 328.387 20.172 329.88 22.4971C330.457 23.3891 334.024 28.881 334.582 29.792C336.033 32.1633 337.402 34.596 338.589 37.0748C339.674 39.342 340.559 40.8696 341.574 43.1677C341.736 43.534 342.267 45.2665 342.267 45.2665C342.553 45.7195 340.861 45.6486 340.621 45.6728C339.55 45.7804 338.836 45.6003 337.768 45.727C333.783 46.1999 329.818 46.82 325.818 47.2018C322.943 47.4763 319.941 47.2176 317.077 46.8986C316.325 46.8149 315.924 46.7049 315.591 45.99C314.94 44.5927 314.427 43.1321 313.769 41.7376C312.792 39.6689 311.591 37.6721 310.498 35.6614C309.405 33.6516 308.382 31.6054 307.289 29.596C305.298 25.9353 302.223 20.046 300.301 16.3486C299.358 14.5354 299.456 14.8615 299.193 12.8065C299.106 12.1257 300.806 12.0526 301.318 11.9536C304.158 11.4052 306.984 10.8185 309.837 10.3193Z" stroke="white" stroke-linecap="round"/>
<path d="M290.401 36.7494C290.352 36.65 290.437 36.5071 290.509 36.434C290.931 36.0053 291.473 35.5739 292.104 35.6771C293.06 35.8337 292.792 36.8672 292.106 37.2553C291.816 37.4197 291.476 37.5443 291.15 37.6082C291.055 37.6269 291.732 37.6777 291.852 37.7092C292.559 37.8951 293.264 38.6149 292.513 39.2824C292.069 39.6769 291.283 39.8791 290.754 39.6027C290.605 39.5246 290.416 39.3814 290.32 39.2413C290.247 39.1354 290.348 39.2275 290.367 39.3155C290.472 39.813 290.203 40.4088 289.741 40.6774C288.842 41.2005 287.938 40.809 287.558 39.9457C287.375 39.5299 287.102 38.8817 287.599 38.5374C287.71 38.461 288.086 38.3929 287.96 38.3592C287.503 38.2368 287.295 38.0783 287.06 37.6434C286.809 37.1781 286.667 36.161 287.388 35.9771C287.732 35.8893 288.143 35.9447 288.389 36.188C288.411 36.2095 288.646 36.5162 288.516 36.4652C287.848 36.2024 287.765 35.3211 288.023 34.7421C288.359 33.9862 289.332 33.9765 289.832 34.5084C290.218 34.9175 290.28 35.4221 290.262 35.9682C290.258 36.1118 290.391 36.6158 290.401 36.7494Z" stroke="white" stroke-linecap="round"/>
<path d="M288.906 44.1235C288.974 44.7356 288.557 45.4639 288.286 45.9758C287.994 46.5247 287.554 46.9654 287.1 47.3754C285.851 48.5009 284.527 49.5391 283.413 50.8073C281.5 52.9842 280.083 55.5791 278.752 58.1542" stroke="white" stroke-linecap="round"/>
<path d="M293.76 41.0366C293.972 40.1336 295.273 39.1697 296.037 39.6726C296.762 40.1494 296.672 41.1296 295.976 41.5697C295.892 41.6224 296.173 41.5246 296.214 41.5198C296.517 41.4848 296.798 41.479 297.083 41.5943C297.901 41.9263 298.42 42.9247 297.892 43.7248C297.461 44.3763 296.41 44.7807 295.697 44.379C295.173 44.0836 295.662 44.2053 295.86 44.4909C296.474 45.376 295.69 46.4054 294.793 46.6529C293.933 46.8903 292.637 46.5001 292.425 45.5423C292.273 44.8594 292.613 44.3027 293.181 43.9434C293.45 43.7732 293.479 43.9411 293.111 43.9791C292.47 44.0452 291.827 43.7971 291.52 43.2196C291.183 42.5859 291.344 41.785 292.179 41.7413C292.488 41.7251 292.827 41.8139 293.051 42.0324C293.147 42.1257 293.288 42.3512 293.089 42.4213C292.449 42.6468 291.6 41.5347 291.455 41.0404C291.17 40.0737 292.074 39.1405 293.037 39.6628C293.543 39.9371 293.778 40.4832 293.76 41.0366Z" stroke="white" stroke-linecap="round"/>
<path d="M289.229 43.9013C289.441 42.9983 290.742 42.0345 291.506 42.5373C292.231 43.0141 292.141 43.9944 291.445 44.4344C291.361 44.4872 291.642 44.3894 291.684 44.3846C291.986 44.3496 292.268 44.3437 292.552 44.4591C293.37 44.7911 293.889 45.7894 293.361 46.5896C292.931 47.241 291.879 47.6455 291.167 47.2438C290.642 46.9483 291.132 47.0701 291.329 47.3556C291.943 48.2407 291.159 49.2702 290.262 49.5177C289.402 49.755 288.106 49.3648 287.894 48.4071C287.742 47.7242 288.082 47.1674 288.65 46.8082C288.919 46.638 288.948 46.8058 288.58 46.8438C287.939 46.91 287.297 46.6618 286.989 46.0843C286.652 45.4506 286.813 44.6497 287.648 44.606C287.958 44.5898 288.297 44.6787 288.52 44.8971C288.616 44.9905 288.758 45.216 288.558 45.2861C287.918 45.5116 287.069 44.3995 286.924 43.9052C286.639 42.9385 287.543 42.0052 288.506 42.5275C289.012 42.8018 289.247 43.3479 289.229 43.9013Z" stroke="white" stroke-linecap="round"/>
<path d="M284.501 34.0346C284.576 33.9869 284.592 33.9273 284.59 33.8447C284.571 33.1683 283.928 32.6441 283.228 32.6915C282.073 32.7699 281.602 34.1434 282.1 34.9312C282.231 35.1385 282.415 35.0486 282.201 35.0654C281.483 35.1219 280.921 35.8384 280.718 36.4356C280.45 37.22 280.999 37.7741 281.808 37.7468C282.095 37.7371 282.357 37.6547 282.59 37.4686C282.754 37.3377 282.735 37.2959 282.637 37.485C282.235 38.2638 282.345 39.2201 283.006 39.6987C283.669 40.1786 284.761 40.0645 285.238 39.2351C285.404 38.9452 285.67 38.1303 285.286 37.9257C285.145 37.8502 285.09 38.0745 285.116 38.1647C285.188 38.4252 285.45 38.6423 285.684 38.7692C287.215 39.6024 289.065 37.7824 287.881 36.4508C287.672 36.2156 287.289 35.9629 286.914 36.1009C286.812 36.1383 286.525 36.322 286.66 36.4362C287.078 36.789 287.484 35.7281 287.528 35.5376C287.737 34.6429 287.649 33.2371 286.49 33.0965C286.194 33.0606 285.75 33.2539 285.457 33.43C285.291 33.5347 284.419 33.9735 284.501 34.0346Z" stroke="white" stroke-linecap="round"/>
<path d="M282.728 37.883C281.572 38.9805 282.153 40.579 282.647 40.6798C282.024 40.7363 281.455 41.3921 281.473 41.8504C281.509 42.7316 282.267 43.948 283.263 43.8589C283.494 43.8383 283.776 43.6941 283.692 42.8446C283.662 42.5499 283.855 43.1034 283.855 43.1034C283.244 44.4766 285.068 45.2816 286.248 44.5357C286.877 44.1382 287.251 43.3949 287.014 42.7818C286.944 42.6002 286.492 42.3312 286.882 42.4594C287.499 42.6623 288.307 42.4914 288.794 41.9464C289.372 41.3008 289.213 40.3013 288.493 39.987C288.072 39.8035 287.493 39.8585 287.023 40.0149C286.838 40.0765 287.194 39.7956 287.24 39.7456C287.724 39.2187 288.083 38.4406 287.506 37.9889C286.922 37.5315 285.99 37.488 285.226 37.8374C284.952 37.9628 284.782 38.1565 284.59 38.3755L284.589 38.3773C284.562 38.4076 284.412 38.66 284.389 38.5434C284.266 37.9051 283.484 37.4667 282.728 37.883Z" stroke="white" stroke-linecap="round"/>
<path d="M283.643 44.0513C283.55 44.1351 283.506 44.2407 283.443 44.3525C282.87 45.3705 282.302 46.394 281.771 47.4347C281.19 48.5733 280.683 49.7679 280.257 50.9729C279.63 52.7436 279.062 54.571 278.753 56.4258" stroke="white" stroke-linecap="round"/>
<path d="M284.686 45.127C284.034 46.7811 283.268 48.4594 282.238 49.915C281.341 51.1821 280.358 52.371 279.356 53.5558C278.391 54.6958 277.441 55.8496 276.496 57.0052" stroke="white" stroke-linecap="round"/>
<path d="M293.649 27.5716C296.202 31.6096 298.569 35.7571 301.122 39.7952C302.646 42.2062 304.323 44.4992 305.922 46.8592C306.523 47.7465 307.13 48.6353 307.768 49.498C307.888 49.6604 308.569 50.3671 308.365 50.6614C308.268 50.8019 307.987 50.8791 307.847 50.9315C306.941 51.2706 306.041 51.6083 305.146 51.9895C302.347 53.1811 299.596 54.5012 296.856 55.8517C293.038 57.7331 289.295 59.7066 285.538 61.7214C283.803 62.6519 282.131 63.7625 280.385 64.6586C279.477 65.1245 278.876 64.0269 278.458 63.5765C276.323 61.2775 274.629 58.6692 273.159 55.9258" stroke="white" stroke-linecap="round"/>
<path d="M270.425 37.9111C270.445 37.8387 270.473 37.7666 270.516 37.704C270.978 37.0235 271.57 36.3941 272.143 35.8075C273.211 34.7136 274.46 33.8166 275.711 32.9475C279.408 30.379 283.496 27.9205 287.792 26.4925C288.73 26.1808 289.694 25.9522 290.663 25.7607C291.109 25.6727 291.64 25.5647 292.097 25.6082C293.004 25.6947 293.328 26.7123 293.7 27.3854" stroke="white" stroke-linecap="round"/>
<path d="M30.0044 211.285C28.2791 210.19 28.5274 210.423 27.269 208.777C26.852 208.232 28.2859 207.315 28.6794 206.973C30.8601 205.074 33.0104 203.148 35.2278 201.285C38.1525 198.827 41.1784 196.479 44.1099 194.055C46.8097 194.883 48.8561 196.597 51.3344 197.91C53.775 199.204 56.2172 200.5 58.6758 201.762M30.0044 211.285C33.5226 213.519 39.137 217.07 42.6963 219.238C44.6501 220.427 46.5613 221.684 48.5153 222.874C50.4703 224.065 52.5103 225.19 54.3934 226.489C55.6627 227.365 56.8391 228.371 58.1032 229.253C58.75 229.704 59.1527 229.598 59.8446 229.293C62.4819 228.132 65.2088 226.85 67.5583 225.169C70.8261 222.832 73.9451 220.306 77.155 217.898C78.0149 217.252 78.8096 216.534 79.6823 215.903C79.8778 215.762 80.5392 215.298 80.7703 215.219M30.0044 211.285C29.7263 211.817 28.9869 212.657 28.6455 213.164C27.4588 214.929 26.0107 216.546 24.7528 218.267C20.0872 224.65 16.0601 231.387 12.1324 238.24C9.53475 242.773 6.92152 247.388 5.02168 252.265C4.3143 254.081 3.64388 255.879 3.42339 257.83C3.33487 258.614 3.26974 259.614 3.73931 260.307C4.08333 260.815 4.74282 260.956 5.26293 261.203C6.41049 261.75 7.52026 262.385 8.6496 262.967C11.9925 264.693 15.2763 266.515 18.6109 268.257C22.0696 270.063 25.3298 272.183 28.6979 274.146C31.014 275.496 33.4121 277.07 35.5032 278.756C36.3705 279.456 36.5632 279.824 37.6785 279.85C39.5806 279.894 41.5491 280.03 43.4375 280.245C44.7367 280.393 46.117 280.48 47.426 280.428C47.8866 280.409 48.4535 280.409 48.8677 280.173C49.2823 279.937 49.5299 279.374 49.7635 278.988C50.5829 277.636 51.2983 276.2 52.0549 274.812C56.6759 266.331 60.8452 257.606 65.1937 248.981C68.7835 241.861 72.2011 234.691 75.0843 227.257C75.8422 225.303 76.594 223.351 77.4389 221.432C78.1694 219.773 79.1649 218.293 80.0016 216.691C80.0668 216.566 81.1826 215.077 80.7703 215.219M80.7703 215.219C81.1252 215.404 80.0848 214.499 79.7611 214.263C77.7298 212.784 75.5996 211.418 73.5233 210.002C71.2532 208.453 68.8486 207.035 66.403 205.713C65.4634 205.205 64.5177 204.71 63.5713 204.228" stroke="white" stroke-linecap="round"/>
<path d="M78.9047 217.475C78.2595 218.793 77.6969 220.142 76.9227 221.397C76.1062 222.721 75.0235 223.875 73.9356 224.976C70.3563 228.599 66.4453 231.886 63.0099 235.652C60.2271 238.702 57.7114 241.978 55.3357 245.351C53.0767 248.559 50.8032 251.781 48.6891 255.086C45.2151 260.517 41.4985 266.018 38.9956 271.989C38.3169 273.608 37.672 275.247 37.1529 276.925C36.9928 277.442 36.793 277.949 36.6427 278.469C36.5861 278.664 36.3189 279.857 36.33 279.232" stroke="white" stroke-linecap="round"/>
<path d="M74.5594 226.122C72.514 228.219 70.6231 230.486 68.7127 232.707C66.2906 235.522 64.82 238.787 63.1987 242.111" stroke="white" stroke-linecap="round"/>
<path d="M57.0776 252.843C56.7594 254.095 56.014 255.331 55.4755 256.486C54.5833 258.399 53.7199 260.326 52.8211 262.235C52.0233 263.93 51.1727 265.659 50.131 267.221C48.9976 268.92 47.7927 270.618 46.8462 272.43C46.6536 272.799 46.4927 272.991 46.1542 273.225C45.126 273.935 43.9273 274.446 42.8637 275.117C41.0388 276.268 39.2047 277.498 37.7635 279.121" stroke="white" stroke-linecap="round"/>
<path d="M35.2278 201.285C38.1524 198.827 41.1783 196.48 44.1099 194.055C46.8096 194.883 48.856 196.597 51.3343 197.91C53.775 199.204 56.2172 200.5 58.6758 201.762C59.6222 202.244 65.4633 205.205 66.4029 205.713C68.8485 207.036 71.2531 208.453 73.5232 210.002C75.5996 211.418 77.1313 212.296 79.1625 213.774C79.4862 214.01 80.8148 215.242 80.8148 215.242C81.2899 215.49 79.7907 216.278 79.5952 216.42C78.7225 217.05 78.0149 217.252 77.1549 217.898C73.945 220.306 70.8261 222.833 67.5582 225.17C65.2088 226.85 62.4819 228.132 59.8445 229.293C59.1527 229.598 58.7499 229.704 58.1032 229.253C56.839 228.371 55.6627 227.365 54.3933 226.489C52.5103 225.19 50.4702 224.065 48.5153 222.874C46.5613 221.684 44.6501 220.427 42.6963 219.238C39.1369 217.07 33.5225 213.519 30.0043 211.285C28.279 210.19 28.5273 210.423 27.2689 208.777C26.8519 208.232 28.2858 207.316 28.6794 206.973C30.86 205.074 33.0103 203.148 35.2278 201.285Z" stroke="white" stroke-linecap="round"/>
<path d="M60.3338 205.938C58.6029 208.973 56.0752 212.297 54.2012 215.25C53.953 215.725 57.1224 214.289 58.1013 213.502C58.833 212.914 59.2275 211.996 59.7359 211.233C60.1375 210.63 59.9853 210.12 59.9874 209.434C59.9904 208.426 60.2867 208.464 61.2033 208.35C61.6072 208.3 61.8631 207.617 62.0168 207.323L63.3712 204.73C64.8075 201.98 68.3131 197.079 70.1116 193.144C69.7854 193.694 69.2027 194.145 68.8087 194.651C68.0067 195.682 67.0979 196.604 66.3614 197.691L66.273 197.821C65.3698 199.153 64.4652 200.488 63.5428 201.807C63.049 202.513 62.3785 203.176 61.9787 203.941C61.7569 204.366 61.7579 204.898 61.5188 205.316C61.2744 205.743 60.5702 205.524 60.3338 205.938Z" stroke="white" stroke-linecap="round"/>
<path d="M61.0076 198.925C62.757 196.379 64.777 192.983 66.4723 190.402C66.676 190.091 67.8078 191.082 67.9579 191.178C68.3618 191.438 70.4854 192.515 70.1121 193.144C69.7858 193.694 69.2032 194.145 68.8091 194.651C68.0071 195.682 67.0984 196.604 66.3618 197.691L66.2735 197.821C65.3703 199.153 64.4656 200.488 63.5432 201.807C63.0494 202.513 62.3789 203.176 61.9792 203.941C61.7574 204.366 61.7584 204.898 61.5193 205.316C61.2748 205.743 60.5707 205.524 60.3342 205.938C58.6033 208.973 56.649 211.945 54.775 214.899C54.5073 215.321 54.5021 215.522 54.047 215.378C53.4869 215.202 52.9747 214.9 52.4934 214.567C52.1599 214.336 50.8229 213.614 51.123 213.039C51.7286 211.88 52.5648 210.819 53.2836 209.726C53.9989 208.638 54.6463 207.518 55.4167 206.465C55.9629 205.718 56.6083 204.97 57.052 204.157C57.3487 203.614 58.131 203.466 58.6961 203.277C59.1423 203.128 58.7699 202.185 58.9487 201.843C59.4862 200.814 60.3485 199.884 61.0076 198.925Z" stroke="white" stroke-linecap="round"/>
<path d="M65.8165 202.04C65.5222 201.265 66.4437 199.13 67.1571 200.223C67.9655 201.462 65.5419 202.929 64.7358 203.396C63.7442 203.971 62.8083 204.791 61.7056 205.137C61.2356 205.285 60.179 204.729 60.1873 204.258" stroke="white" stroke-linecap="round"/>
<path d="M31.6775 233.899C31.5852 233.837 31.5867 233.671 31.6122 233.572C31.7621 232.989 32.0151 232.344 32.6121 232.117C33.5179 231.773 33.805 232.801 33.4063 233.481C33.2374 233.769 33.0062 234.047 32.7564 234.266C32.6835 234.33 33.2946 234.034 33.414 234.001C34.1188 233.807 35.0904 234.076 34.7755 235.03C34.5894 235.594 34.0109 236.163 33.4145 236.19C33.2461 236.197 33.0108 236.168 32.8574 236.095C32.7413 236.04 32.8749 236.069 32.9352 236.136C33.2759 236.513 33.3426 237.163 33.0778 237.627C32.562 238.531 31.5838 238.646 30.8223 238.09C30.4554 237.822 29.8936 237.399 30.1512 236.851C30.2083 236.73 30.4996 236.482 30.3738 236.516C29.9174 236.639 29.6576 236.607 29.2364 236.348C28.7858 236.072 28.1519 235.264 28.6835 234.743C28.9374 234.494 29.3209 234.335 29.6555 234.423C29.685 234.43 30.0421 234.578 29.9044 234.599C29.195 234.706 28.6809 233.986 28.6131 233.356C28.5247 232.533 29.3612 232.037 30.0612 232.246C30.5995 232.406 30.9065 232.812 31.1655 233.293C31.2335 233.419 31.6013 233.788 31.6775 233.899Z" stroke="white" stroke-linecap="round"/>
<path d="M34.0845 241.028C34.45 241.523 34.4553 242.362 34.4771 242.941C34.5005 243.562 34.3411 244.164 34.1533 244.747C33.638 246.347 33.0138 247.91 32.6865 249.566C32.1244 252.408 32.2003 255.364 32.3407 258.26" stroke="white" stroke-linecap="round"/>
<path d="M36.734 235.922C36.4642 235.035 37.1063 233.548 38.0194 233.6C38.8852 233.648 39.2993 234.542 38.918 235.271C38.8723 235.359 39.066 235.134 39.0995 235.109C39.344 234.926 39.5843 234.78 39.8882 234.737C40.7627 234.614 41.7121 235.217 41.6567 236.174C41.6116 236.954 40.9052 237.831 40.087 237.841C39.4852 237.849 39.9695 237.708 40.284 237.856C41.2589 238.314 41.0976 239.598 40.4458 240.262C39.8207 240.899 38.5039 241.211 37.8397 240.49C37.3662 239.975 37.3804 239.323 37.6916 238.727C37.8391 238.445 37.9485 238.575 37.6492 238.793C37.1278 239.172 36.4474 239.28 35.8918 238.934C35.2821 238.555 35.0198 237.782 35.7199 237.325C35.9796 237.156 36.3174 237.062 36.6206 237.139C36.7503 237.172 36.9857 237.296 36.8486 237.456C36.4077 237.973 35.1158 237.437 34.7419 237.082C34.0106 236.389 34.3245 235.128 35.4195 235.096C35.9944 235.08 36.4718 235.434 36.734 235.922Z" stroke="white" stroke-linecap="round"/>
<path d="M34.2523 240.674C33.9825 239.786 34.6246 238.299 35.5377 238.351C36.4036 238.4 36.8176 239.293 36.4363 240.023C36.3906 240.11 36.5843 239.885 36.6178 239.86C36.8623 239.678 37.1026 239.532 37.4065 239.489C38.281 239.365 39.2305 239.969 39.175 240.926C39.1299 241.705 38.4235 242.582 37.6053 242.593C37.0035 242.6 37.4878 242.46 37.8023 242.608C38.7772 243.065 38.6159 244.349 37.9641 245.013C37.339 245.65 36.0222 245.963 35.3581 245.241C34.8845 244.726 34.8987 244.074 35.2099 243.479C35.3574 243.196 35.4668 243.327 35.1675 243.544C34.6461 243.923 33.9658 244.031 33.4101 243.686C32.8004 243.307 32.5382 242.533 33.2382 242.076C33.4979 241.907 33.8357 241.814 34.1389 241.89C34.2686 241.923 34.504 242.047 34.3669 242.208C33.926 242.724 32.6341 242.188 32.2602 241.833C31.5289 241.14 31.8428 239.879 32.9378 239.848C33.5128 239.831 33.9901 240.186 34.2523 240.674Z" stroke="white" stroke-linecap="round"/>
<path d="M25.2113 234.511C25.2526 234.432 25.2367 234.372 25.1933 234.302C24.8377 233.726 24.018 233.596 23.4362 233.988C22.4765 234.635 22.7589 236.059 23.585 236.491C23.8024 236.604 23.9162 236.434 23.7393 236.557C23.1467 236.966 23.0201 237.867 23.1437 238.486C23.3061 239.299 24.059 239.502 24.745 239.073C24.9878 238.921 25.1733 238.718 25.2818 238.44C25.3581 238.244 25.3202 238.218 25.3305 238.431C25.3732 239.306 25.9482 240.078 26.7603 240.16C27.5747 240.243 28.4619 239.596 28.4582 238.64C28.4569 238.305 28.278 237.467 27.8433 237.483C27.6829 237.488 27.7486 237.71 27.8155 237.775C28.0089 237.964 28.3448 238.02 28.6101 238.013C30.353 237.965 31.0403 235.462 29.3475 234.905C29.0485 234.806 28.5912 234.78 28.3355 235.087C28.2663 235.171 28.1099 235.474 28.2842 235.505C28.823 235.6 28.6417 234.479 28.5845 234.292C28.3159 233.413 27.5347 232.241 26.4613 232.701C26.1877 232.819 25.9002 233.209 25.735 233.508C25.6444 233.682 25.1103 234.499 25.2113 234.511Z" stroke="white" stroke-linecap="round"/>
<path d="M25.6088 238.73C25.1601 240.259 26.4642 241.351 26.9421 241.19C26.4317 241.551 26.2685 242.404 26.5144 242.791C26.9873 243.536 28.2536 244.208 29.0705 243.631C29.2595 243.497 29.431 243.231 28.9322 242.538C28.7591 242.298 29.2035 242.68 29.2035 242.68C29.3637 244.175 31.346 243.955 31.9922 242.718C32.3366 242.059 32.2874 241.228 31.7745 240.817C31.6226 240.695 31.097 240.689 31.4986 240.604C32.1343 240.47 32.7472 239.917 32.8955 239.201C33.0711 238.353 32.4322 237.568 31.6515 237.657C31.1954 237.71 30.722 238.048 30.394 238.419C30.2647 238.565 30.4317 238.144 30.4464 238.077C30.6013 237.378 30.5207 236.526 29.7953 236.424C29.0607 236.322 28.2326 236.751 27.747 237.437C27.5729 237.683 27.5232 237.936 27.467 238.222L27.4666 238.224C27.4588 238.264 27.4557 238.557 27.3776 238.468C26.9503 237.978 26.0539 237.991 25.6088 238.73Z" stroke="white" stroke-linecap="round"/>
<path d="M29.4956 243.606C29.4576 243.725 29.4723 243.838 29.474 243.967C29.489 245.135 29.511 246.305 29.5738 247.472C29.6425 248.749 29.8037 250.036 30.0393 251.292C30.3856 253.139 30.8116 255.004 31.4751 256.763" stroke="white" stroke-linecap="round"/>
<path d="M30.9377 244.013C31.2032 245.771 31.3829 247.608 31.2224 249.383C31.0827 250.929 30.8285 252.451 30.5561 253.979C30.294 255.449 30.0505 256.924 29.8132 258.397" stroke="white" stroke-linecap="round"/>
<path d="M29.8819 224.33C34.1165 226.542 38.2447 228.942 42.4793 231.154C45.0077 232.475 47.6084 233.617 50.1759 234.856C51.1411 235.322 52.1123 235.786 53.0967 236.212C53.282 236.293 54.2255 236.562 54.197 236.919C54.1834 237.089 53.9789 237.297 53.8842 237.413C53.2711 238.16 52.6616 238.904 52.0786 239.683C50.2559 242.118 48.5383 244.641 46.8456 247.184C44.4874 250.727 42.2398 254.312 40.001 257.94C38.9669 259.615 38.0778 261.415 37.0174 263.066C36.4661 263.925 35.3953 263.277 34.8075 263.097C31.8071 262.18 29.0334 260.773 26.385 259.138" stroke="white" stroke-linecap="round"/>
<path d="M14.9807 244.927C14.9617 244.855 14.95 244.778 14.9554 244.703C15.0136 243.882 15.2106 243.04 15.4117 242.245C15.7867 240.763 16.417 239.361 17.063 237.981C18.9716 233.905 21.2747 229.726 24.2742 226.336C24.9289 225.596 25.6485 224.914 26.3906 224.262C26.7317 223.962 27.1366 223.603 27.554 223.411C28.3823 223.03 29.1727 223.748 29.8324 224.144" stroke="white" stroke-linecap="round"/>
<path d="M67.6646 199.653C68.7063 198.525 69.9613 197.596 70.999 196.461C71.5361 195.874 71.8503 195.613 72.5384 195.196C72.8291 195.02 73.0433 194.736 73.0878 194.759M73.0878 194.759C73.0348 194.246 71.2246 193.517 70.4066 193.09L62.0685 203.032L65.8694 205.017C67.1104 202.641 69.5082 200.58 71.0837 198.411C71.7894 197.44 72.5473 196.356 72.9994 195.237C73.0516 195.108 73.0773 194.854 73.0878 194.759Z" stroke="white" stroke-linecap="round"/>
<path d="M122.626 205.937C121.019 204.857 119.1 203.271 117.306 202.503C115.088 202.276 107.969 220.185 110.402 228.726C111.598 232.924 113.575 237.451 116.33 240.849C118.9 244.018 121.957 247.11 125.064 249.754C130.883 254.706 137.241 258.741 145.015 259.505C152.831 260.273 160.399 258.34 167.326 254.72C170.726 252.942 174.203 250.602 176.691 247.651C176.927 247.37 177.546 246.828 177.35 246.38C176.671 244.832 174.177 243.254 172.916 242.287C169.07 239.337 165.12 236.489 161.18 233.666C155.942 229.914 150.437 226.68 145.351 222.704C139.988 218.511 134.705 214.106 129.111 210.224C126.984 208.747 124.775 207.383 122.626 205.937Z" stroke="white" stroke-linecap="round"/>
<path d="M119.794 205.257C118.105 209.189 115.881 212.908 115.037 217.145C114.268 221.011 114.025 224.558 115.437 228.29C116.537 231.199 118.286 233.893 120.411 236.158C124.705 240.735 128.964 245.071 134.225 248.546C139.646 252.128 145.828 254.277 152.256 255.101" stroke="white" stroke-linecap="round"/>
<path d="M123.847 208.24C122.403 209.544 122.329 212.114 122.141 213.909C121.715 217.994 125.454 219.598 129.041 220.069C133.039 220.594 137.517 220.352 141.534 219.984" stroke="white" stroke-linecap="round"/>
<path d="M126.211 220.109C124.997 220.718 124.147 222.125 123.396 223.188C122.013 225.146 121.907 227.363 122.92 229.585C124.137 232.257 127.891 236.854 131.163 236.92C135.745 237.013 138.73 231.688 141.128 228.516C141.394 228.163 144.821 223.78 144.867 223.831" stroke="white" stroke-linecap="round"/>
<path d="M134.142 236.952C132.018 244.882 143.19 251.177 149.657 247.07C153.107 244.88 152.266 239.144 151.352 235.832C150.737 233.605 149.864 231.485 149.039 229.335C148.675 228.387 148.104 227.205 148.013 226.205" stroke="white" stroke-linecap="round"/>
<path d="M151.611 243.394C151.464 243.771 151.628 244.244 151.814 244.576C153.152 246.972 155.077 248.427 157.831 248.468C159.737 248.496 161.618 248.048 163.435 247.517C165.209 246.999 168.81 246.357 170.073 244.771C170.956 243.661 170.347 242.361 169.889 241.241" stroke="white" stroke-linecap="round"/>
<path d="M136.611 223.789C135.644 223.486 134.481 223.747 133.546 224.034C131.634 224.621 134.634 224.936 135.234 225.033" stroke="white" stroke-linecap="round"/>
<path d="M128.694 227.443C127.459 228.558 129.392 228.701 130.245 228.685" stroke="white" stroke-linecap="round"/>
<path d="M145.65 230.628C144.746 231.761 145.037 232.857 145.786 233.863" stroke="white" stroke-linecap="round"/>
<path d="M143.712 233.308C143.358 234.018 143.178 234.577 143.253 235.427C143.368 236.75 144.036 236.56 144.991 236.226" stroke="white" stroke-linecap="round"/>
<path d="M147.799 237.831C146.796 238.777 148.543 240.476 149.154 239.251" stroke="white" stroke-linecap="round"/>
<path d="M157.356 235.2C156.621 237.082 158.129 239.349 158.747 241.089" stroke="white" stroke-linecap="round"/>
<path d="M160.129 240.483C160.276 240.21 161.288 241.593 161.416 241.749" stroke="white" stroke-linecap="round"/>
<path d="M132.08 216.165C132.253 216.208 132.145 216.106 131.994 216.096C130.989 216.024 131.324 216.693 131.231 217.36" stroke="white" stroke-linecap="round"/>
<path d="M215.18 175.558C214.55 177.739 213.873 181.099 214.409 183.243C214.68 183.92 216.062 188.042 216.825 188.137C217.09 188.067 218.162 177.347 231.459 171.383C235.477 169.928 240.06 171.082 243.727 168.652C245.407 167.539 246.4 165.921 247.45 164.249C248.506 162.567 249.485 160.616 249.729 158.622C249.892 157.29 250.377 155.312 248.971 154.433C247.393 153.447 245.848 153.583 244.056 153.753C237.713 154.354 231.237 157.261 226.215 161.088C221.521 164.666 216.86 169.749 215.18 175.558Z" stroke="white" stroke-linecap="round"/>
<path d="M220.533 190.17C220.571 190.67 220.306 192.356 220.775 192.248C221.91 192.248 223.079 192.577 224.242 192.577C227.544 192.577 230.679 192.195 233.893 191.444C237.166 190.68 240.511 189.656 243.375 187.845C245.611 186.431 247.565 184.524 249.258 182.51C250.96 180.486 252.474 178.429 253.209 175.842C253.943 173.257 254.655 170.661 254.83 167.976C254.982 165.657 254.71 163.723 254.278 161.463C254.117 160.625 253.464 157.615 252.017 158.339C251.206 158.744 251.523 160.456 251.423 161.171C251.247 162.422 251.139 163.738 250.783 164.957C250.235 166.839 249.728 168.411 248.363 169.904C246.749 171.668 244.021 172.812 241.735 173.334C236.183 174.603 229.928 174.831 225.47 178.801C223.492 180.563 222.008 182.645 221.268 185.214C220.8 186.84 220.842 188.067 220.533 190.17Z" stroke="white" stroke-linecap="round"/>
<path d="M197.948 182.969C198.077 182.99 198.565 182.959 198.328 182.707C192.132 178.135 190.328 169.092 191.718 161.845C192.524 157.648 195.859 154.3 195.648 149.907C195.551 147.894 194.669 146.213 193.769 144.455C192.864 142.688 191.689 140.848 190.1 139.618C189.039 138.797 187.588 137.368 186.114 138.127C184.459 138.978 183.785 140.375 183.014 142.002C180.286 147.759 179.471 154.811 180.19 161.084C180.863 166.947 182.845 173.553 186.977 177.968C188.529 179.626 189.752 181.501 192.431 182.171C194.575 182.707 196.355 182.713 197.948 182.969Z" stroke="white" stroke-linecap="round"/>
<path d="M202.27 180.847C202.719 181.07 204.032 182.16 204.179 181.702C204.76 180.727 205.641 179.891 206.236 178.892C207.925 176.054 209.2 173.166 210.2 170.02C211.218 166.816 212.049 163.419 211.958 160.031C211.887 157.386 211.248 154.732 210.384 152.247C209.515 149.749 208.523 147.396 206.676 145.441C204.83 143.488 202.964 141.548 200.747 140.024C198.832 138.707 197.031 137.951 194.868 137.166C194.066 136.876 191.146 135.897 191.027 137.511C190.96 138.415 192.594 139.018 193.156 139.47C194.142 140.261 195.217 141.027 196.083 141.956C197.419 143.391 198.51 144.63 199.094 146.567C199.785 148.856 199.372 151.785 198.651 154.016C196.901 159.437 193.897 164.927 195.028 170.789C195.53 173.39 196.559 175.729 198.388 177.68C199.545 178.914 200.622 179.506 202.27 180.847Z" stroke="white" stroke-linecap="round"/>
<path d="M221.304 205.879C221.355 205.759 221.76 204.945 221.485 205.225C215.907 210.912 206.02 210.003 199.306 206.939C195.418 205.165 192.954 201.132 188.635 200.299C186.657 199.918 184.815 200.378 182.894 200.836C180.963 201.298 178.897 202.005 177.327 203.258C176.278 204.095 174.547 205.167 174.935 206.779C175.372 208.588 176.569 209.573 177.968 210.706C182.917 214.718 189.577 217.177 195.841 217.961C201.698 218.694 208.585 218.329 213.852 215.357C215.829 214.241 218.308 212.405 219.212 210.237C219.832 208.75 220.679 207.367 221.304 205.879Z" stroke="white" stroke-linecap="round"/>
<path d="M220.263 201.18C220.586 200.797 221.956 199.778 221.545 199.527C220.735 198.732 220.13 197.678 219.3 196.864C216.942 194.552 214.437 192.63 211.617 190.915C208.744 189.169 205.64 187.558 202.327 186.846C199.74 186.29 197.01 186.283 194.391 186.535C191.758 186.789 189.237 187.197 186.901 188.53C184.567 189.862 182.241 191.217 180.236 193.01C178.504 194.56 177.344 196.131 176.07 198.047C175.598 198.758 173.957 201.364 175.497 201.861C176.36 202.139 177.332 200.695 177.904 200.255C178.905 199.485 179.904 198.621 181.012 197.999C182.721 197.04 184.184 196.272 186.204 196.163C188.591 196.033 191.34 197.127 193.337 198.354C198.19 201.336 202.815 205.552 208.778 205.839C211.424 205.967 213.941 205.519 216.268 204.203C217.741 203.37 218.57 202.464 220.263 201.18Z" stroke="white" stroke-linecap="round"/>
<path d="M206.328 4.17857C206.278 4.2943 207.131 2.5296 207.49 1.65252C208.081 0.207184 208.942 -1.15199 209.866 -2.40502C211.43 -4.52633 213.419 -6.2146 215.93 -7.08747C219.027 -8.1639 222.1 -9.21205 225.242 -10.1548C228.147 -11.0261 231.492 -11.9732 234.079 -13.605C234.402 -13.8088 234.711 -14.0181 235.047 -14.1992C235.069 -14.2107 235.232 -14.3487 235.232 -14.3004C235.232 -13.6132 234.736 -12.7184 234.51 -12.0868C233.368 -8.88675 232.417 -5.7091 231.003 -2.59865C228.509 2.8891 224.407 7.23706 219.38 10.4541C218.109 11.2678 216.855 11.9833 215.446 12.5313C214.705 12.8195 217.043 12.4737 217.831 12.5753C220.105 12.8681 222.204 13.6919 224.309 14.5557C226.514 15.4602 228.708 16.5982 230.378 18.3315C232.025 20.0407 233.643 21.7946 235.32 23.4717C236.596 24.7479 238.178 25.5893 239.554 26.7151C240.176 27.2245 237.267 27.9325 236.948 28.0221C233.88 28.885 230.723 29.7691 227.566 30.2225C222.075 31.0111 216.509 29.7176 211.749 26.9307C209.75 25.7596 208.109 24.4055 206.645 22.5915C206.223 22.0696 205.703 21.5511 205.474 20.9104C205.265 20.325 205.809 21.4875 205.861 21.5837C206.57 22.9023 207.04 24.3322 207.679 25.6853C208.419 27.2545 209.284 28.7797 209.972 30.3721C211.251 33.3347 212.51 36.076 213.259 39.2354C214.617 44.963 212.724 50.0463 210.148 55.0782C209.869 55.6217 209.58 56.1891 209.241 56.6977C208.994 57.0675 207.544 55.7888 207.388 55.6591C206.04 54.5382 204.946 53.263 203.832 51.914C202.568 50.3813 201.075 48.9692 199.991 47.2976C196.1 41.2989 195.591 32.9904 197.456 26.209C197.694 25.3429 198.049 24.4933 198.169 23.5993C198.186 23.4689 198.248 23.3391 198.248 23.2076C198.248 22.4 197.571 24.6743 197.253 25.4168C194.775 31.2091 191.839 36.993 187.673 41.7966C185.309 44.522 182.425 47.2406 179.122 48.7763C177.649 49.4611 176.075 49.9881 174.554 50.5586C173.945 50.7869 173.011 51.3111 172.345 51.3111C171.905 51.3111 172.834 46.4614 172.904 46.0786C173.692 41.7449 175.507 37.6532 177.617 33.8136C178.754 31.7448 179.961 29.6526 181.384 27.7669C182.842 25.8339 184.767 24.2124 186.652 22.7103C188.332 21.3714 190.088 20.1392 191.875 18.9477C192.466 18.5542 192.826 18.1963 192.056 18.886C189.761 20.9415 187.323 22.7486 184.482 23.9822C181.041 25.4761 177.64 26.2427 173.977 26.9483C167.95 28.1095 161.449 25.8394 155.947 23.5069C155.164 23.1748 154.371 22.8701 153.606 22.4947C153.07 22.2314 153.348 21.9817 153.756 21.6717C156.384 19.6743 159.951 18.6253 163.006 17.4514C166.681 16.0396 170.236 14.5797 174.158 14.0012C177.495 13.5088 180.731 13.9313 184.073 14.0056C185.933 14.0469 187.968 14.2663 189.789 13.7459C190.223 13.6221 189.263 13.8419 189.182 13.8603C187.792 14.1782 186.297 13.8214 184.922 13.5611C181.863 12.9816 178.971 12.2833 176.235 10.7798C173.027 9.01738 171.211 6.4126 169.176 3.48325C167.644 1.27852 165.854 -0.443798 163.82 -2.16738C163.382 -2.53892 159.542 -4.90416 160.199 -5.54719C160.959 -6.29216 162.416 -6.29077 163.385 -6.35694C165.716 -6.51611 168.106 -6.60513 170.439 -6.46695C174.412 -6.23171 178.469 -5.39347 182 -3.54923C184.465 -2.26215 186.987 -1.03915 188.98 0.930791C190.124 2.06158 191.045 3.28315 191.946 4.61866C192.307 5.1538 192.649 5.69522 193.055 6.19854C193.153 6.31973 193.781 7.31221 193.653 6.87186C193.314 5.70593 193.136 4.46523 192.861 3.28081C192.506 1.74585 191.999 0.252221 191.594 -1.2696C190.561 -5.15293 189.522 -8.77611 189.97 -12.8349C190.181 -14.7429 190.454 -16.6281 190.934 -18.4899C191.499 -20.6818 192.713 -22.5539 193.9 -24.453C194.793 -25.882 195.925 -27.3728 196.505 -28.9682C196.607 -29.2472 196.949 -27.6557 196.98 -27.5248C197.382 -25.8743 198.195 -24.2544 198.89 -22.7103C200.378 -19.4073 202.852 -16.8985 204.726 -13.8647C206.225 -11.437 207.12 -8.74093 207.749 -5.97407C208.269 -3.68464 208.315 -1.2475 207.692 1.0364C207.403 2.09569 206.76 3.16874 206.328 4.17857Z" stroke="white" stroke-linecap="round"/>
<path d="M206.882 9.16901C207.201 8.27428 207.82 7.47351 208.329 6.68696C209.29 5.20316 210.201 3.64331 211.252 2.22013C213.457 -0.767618 215.963 -3.29401 219.424 -4.76393C222.028 -5.87014 224.545 -6.38297 227.275 -7.03034C227.892 -7.17673 228.512 -7.31217 229.128 -7.46603C229.383 -7.52992 228.941 -7.11252 228.894 -7.04794C226.348 -3.5474 223.845 -0.0140108 220.744 3.03428C218.746 4.9984 216.03 6.3935 213.421 7.34707C211.382 8.0923 209.04 8.85641 206.882 9.01057" stroke="white" stroke-linecap="round"/>
<path d="M200.624 8.29731C200.624 5.46592 198.147 3.09632 197.323 0.4639C196.248 -2.97205 195.646 -6.84525 195.915 -10.4589C196.107 -13.0353 196.765 -15.3679 197.438 -17.8434C197.544 -18.2366 198.089 -20.2091 198.089 -20.1054C198.089 -17.9083 198.181 -15.7506 198.687 -13.6011C199.401 -10.5749 200.489 -7.67518 201.139 -4.62343C202.066 -0.270237 201.979 3.9813 201.02 8.29731" stroke="white" stroke-linecap="round"/>
<path d="M206.248 17.4072C209.511 17.4072 212.605 18.8386 215.815 19.2116C218.794 19.5576 221.651 19.7763 224.547 20.5934C227.069 21.3054 228.863 22.7576 230.963 24.2021C231.676 24.6927 232.472 24.9973 233.282 25.2847C233.539 25.3759 233.787 25.4083 233.445 25.6015C231.59 26.6487 229.407 26.5726 227.346 26.4993C224.247 26.3891 221.03 26.4708 218.042 25.5487C215.14 24.6531 212.273 23.5616 209.874 21.6496C208.43 20.4979 206.901 19.3773 206.01 17.7241" stroke="white" stroke-linecap="round"/>
<path d="M200.782 13.2089C200.532 11.832 197.434 13.5686 196.958 13.9087C195.352 15.0557 196.069 18.2485 197.834 18.8068C199.76 19.416 202.179 18.847 202.662 16.6768C203.026 15.0388 202.146 13.7504 200.782 12.9713" stroke="white" stroke-linecap="round"/>
<path d="M201.574 22.0814C201.574 25.513 201.617 28.8159 201.099 32.2164C200.656 35.1264 201.652 38.0483 202.609 40.7672C203.41 43.0454 204.624 45.1534 205.614 47.3507C206 48.2076 206.434 49.0073 206.706 49.912C206.874 50.4735 206.948 51.142 207.199 51.6723C207.319 51.9271 207.395 51.1904 207.401 51.153C207.622 49.8503 207.799 48.5426 207.995 47.2363C208.497 43.899 209.052 40.4388 208.77 37.0529C208.266 31.0047 205.171 26.3505 201.812 21.5269" stroke="white" stroke-linecap="round"/>
<path d="M194.446 21.7647C192.511 23.4842 190.187 24.8085 188.328 26.6672C185.625 29.3704 183.403 32.8918 181.736 36.305C180.727 38.3706 179.747 40.479 178.92 42.6245C178.752 43.0596 178.517 43.5181 178.462 43.9887C178.412 44.4101 179.492 43.2951 179.562 43.2274C183.749 39.1565 188.049 35.4626 191.119 30.4343C192.869 27.5665 193.641 24.5853 194.446 21.3687" stroke="white" stroke-linecap="round"/>
<path d="M191.039 16.536C188.702 16.536 186.379 16.1685 184.042 16.1752C180.727 16.1846 177.421 17.3835 174.281 18.358C171.861 19.1088 169.543 19.9805 166.993 20.2239C165.745 20.3431 164.476 20.1882 163.239 20.3427C162.873 20.3885 163.408 20.6758 163.481 20.708C164.611 21.2065 165.871 21.3895 167.09 21.5178C170.828 21.9113 174.71 21.441 178.391 20.7696C181.463 20.2093 184.42 19.1345 187.272 17.8827C188.271 17.4439 189.247 16.9548 190.247 16.5184C190.591 16.3681 190.972 16.2023 191.197 15.9023" stroke="white" stroke-linecap="round"/>
<path d="M193.257 11.1493C193.205 10.6241 192.859 10.0179 192.641 9.57378C191.714 7.68209 190.709 5.70388 189.253 4.15199C187.204 1.96852 183.403 1.20905 180.618 0.314491C177.606 -0.653408 174.566 -1.5532 171.57 -2.57243C170.665 -2.88032 169.765 -3.25057 168.895 -3.64623C168.573 -3.79256 169.565 -2.81621 169.669 -2.69564C171.211 -0.912699 172.129 1.29853 173.595 3.13101C175.314 5.27992 177.912 6.84679 180.442 7.83987C182.897 8.80352 185.836 9.80063 188.505 9.70581C189.588 9.66732 190.668 9.60953 191.752 9.66179C192.462 9.69599 193.217 9.81786 193.891 9.56497" stroke="white" stroke-linecap="round"/>
<path d="M197.772 9.80273C197.895 9.80273 197.975 9.83636 198.089 9.88194" stroke="white" stroke-linecap="round"/>
<path d="M202.524 11.1499C202.609 11.2345 202.713 11.2896 202.762 11.3875" stroke="white" stroke-linecap="round"/>
<path d="M204.03 13.1299V13.6052" stroke="white" stroke-linecap="round"/>
<path d="M203.555 16.7734C203.547 16.9796 203.533 17.1122 203.396 17.2487" stroke="white" stroke-linecap="round"/>
<path d="M202.129 19.7842C201.987 19.859 201.895 19.9426 201.733 19.9426" stroke="white" stroke-linecap="round"/>
<path d="M198.089 20.7346C197.877 20.7346 197.71 20.6929 197.534 20.5762" stroke="white" stroke-linecap="round"/>
<path d="M194.92 19.3874C194.745 19.2284 194.613 19.1364 194.523 18.9121" stroke="white" stroke-linecap="round"/>
<path d="M194.207 16.1401C194.265 15.796 194.475 15.4315 194.603 15.1104" stroke="white" stroke-linecap="round"/>
<path d="M226.527 1.16846C226.386 1.26822 226.273 1.39054 226.131 1.48531" stroke="white" stroke-linecap="round"/>
<path d="M223.993 3.94043C223.868 4.05974 223.738 4.16257 223.596 4.25729" stroke="white" stroke-linecap="round"/>
<path d="M220.665 7.26792L220.902 7.03027" stroke="white" stroke-linecap="round"/>
<path d="M219.476 15.3481H219.555" stroke="white" stroke-linecap="round"/>
<path d="M222.804 15.9814C222.939 16.0301 223.066 16.0953 223.2 16.1399" stroke="white" stroke-linecap="round"/>
<path d="M224.547 16.6948C224.667 16.7382 224.757 16.7892 224.863 16.8532" stroke="white" stroke-linecap="round"/>
<path d="M199.04 39.111V39.0327" stroke="white" stroke-linecap="round"/>
<path d="M172.502 16.0605L172.423 16.1388" stroke="white" stroke-linecap="round"/>
<path d="M169.254 17.4072H169.176" stroke="white" stroke-linecap="round"/>
<path d="M264.204 263.985C262.852 264.516 260.624 265.875 259.364 266.538C258.789 266.652 258.031 265.648 257.641 265.327C256.074 264.04 254.623 262.574 253.422 260.934C251.432 258.219 249.578 255.382 248.283 252.262C247.188 249.626 245.558 246.883 245.047 244.055C244.671 241.974 245.356 239.674 247.514 238.94C247.945 238.794 247.897 238.519 247.927 238.068C248.005 236.924 248.006 235.795 248.236 234.665C248.341 234.148 248.922 232.189 249.756 233.121C249.968 233.358 250.022 233.308 250.124 233.02C250.366 232.337 250.692 231.683 251.005 231.03C251.179 230.666 252.829 227.115 253.528 227.684C253.816 227.918 253.742 228.574 254.085 227.985C255.095 226.252 255.957 224.543 257.454 223.159C257.597 223.027 258.536 222.106 258.766 222.279C258.937 222.407 258.958 222.647 259.165 222.747C259.753 223.031 260.518 220.591 260.715 220.233C260.924 219.852 262.559 217.228 263.05 217.698C263.301 217.939 264.188 219.571 264.488 219.225C264.639 219.051 266.189 217.42 266.252 217.532C266.425 217.84 266.568 218.18 266.733 218.494C267.251 219.476 267.807 220.436 268.321 221.42C268.509 221.782 268.874 223.007 269.303 223.184C269.572 223.296 269.415 220.061 270.276 221.256C271.807 223.38 272.164 226.363 272.833 228.825C272.914 229.123 273.51 228.139 273.555 228.07C273.796 227.705 274.036 226.986 274.258 227.644C274.657 228.828 275.102 229.991 275.428 231.198C275.694 232.185 275.926 233.223 276.319 234.17C276.6 234.848 278.422 232.797 278.706 233.867C279.229 235.836 277.794 237.474 277.893 239.489C277.896 239.537 277.852 241.937 278.304 241.7C278.415 241.642 278.759 241.282 278.866 241.481C279.11 241.936 279.016 242.821 279.028 243.318C279.048 244.129 278.941 244.935 278.918 245.745C278.914 245.883 278.867 246.192 279.061 246.017C279.342 245.763 280.566 244.749 280.573 245.404C280.587 246.932 279.995 248.512 279.392 249.893C278.416 252.127 277.165 254.052 275.742 256.036C274.249 258.116 272.333 259.461 270.336 261.011C268.565 262.386 266.268 263.174 264.204 263.985Z" stroke="white" stroke-linecap="round"/>
<path d="M279.392 249.893C279.995 248.511 280.587 246.932 280.573 245.404C280.567 244.749 279.342 245.763 279.061 246.017C278.867 246.192 278.915 245.883 278.918 245.745C278.942 244.935 279.048 244.129 279.029 243.318C279.017 242.821 279.111 241.936 278.866 241.481C278.759 241.282 278.415 241.641 278.305 241.7C277.853 241.937 277.896 239.537 277.894 239.489C277.794 237.474 279.23 235.836 278.707 233.867M278.707 233.867C278.423 232.797 276.601 234.848 276.319 234.17C275.926 233.223 275.695 232.184 275.428 231.198C275.102 229.99 274.657 228.828 274.259 227.644C274.037 226.986 273.797 227.705 273.556 228.07C273.511 228.138 272.914 229.123 272.833 228.824C272.165 226.363 271.807 223.38 270.277 221.256C269.415 220.061 269.572 223.295 269.303 223.184C268.874 223.007 268.51 221.782 268.321 221.42C267.808 220.436 267.251 219.476 266.734 218.494C266.568 218.18 266.425 217.84 266.252 217.532C266.19 217.42 264.639 219.051 264.489 219.225M278.707 233.867C279.003 231.17 279.957 228.389 281.506 226.276C283.407 223.682 285.207 220.938 285.807 217.724C285.973 216.833 286.109 215.884 286.093 214.975C286.087 214.692 286.091 214.492 285.876 214.793C285.775 214.933 285.447 215.498 285.231 215.474C285.032 215.452 284.771 213.107 284.739 212.943C284.454 211.483 284.145 210.014 283.71 208.59C283.632 208.333 283.559 207.778 283.277 208.121C283.23 208.179 282.934 208.613 282.852 208.488C282.22 207.523 282.005 206.171 281.568 205.108C281.501 204.945 281.124 203.729 280.826 203.751C280.581 203.768 280.388 204.33 280.253 204.499C280.054 204.749 279.799 204.055 279.754 203.969C279.018 202.567 277.731 200.697 276.845 199.387C276.356 199.185 276.283 200.311 276.197 200.573C276.042 201.043 275.53 199.923 275.417 199.753C274.735 198.72 274.048 197.68 273.203 196.771C273.002 196.554 272.186 195.421 271.864 195.978C271.673 196.307 271.701 196.773 271.454 197.064C271.261 197.293 270.622 196.349 270.53 196.248C269.276 194.872 267.888 193.414 266.458 192.227C266.207 192.018 265.703 194.088 265.651 194.376C265.534 195.019 265.557 195.678 265.647 196.323C265.685 196.595 265.838 196.985 265.819 197.258C265.799 197.537 264.316 197.095 264.092 197.065C263.271 196.956 263.203 200.036 263.195 200.426C263.179 201.287 263.271 202.143 263.401 202.994C263.469 203.445 263.674 203.906 263.712 204.355C263.748 204.773 261.955 204.863 261.646 205.175C260.93 205.897 261.413 207.776 261.667 208.628C261.89 209.377 260.988 209.449 260.618 210.058C259.911 211.22 260.874 213.061 261.42 214.092C261.9 214.998 262.362 216.058 263.011 216.864C263.322 217.251 264.298 218.766 264.489 219.225M264.489 219.225C264.189 219.571 263.301 217.939 263.05 217.698" stroke="white" stroke-linecap="round"/>
<path d="M277.454 224.284C277.493 223.982 277.461 223.791 277.399 223.461C277.09 221.807 276.695 220.155 276.238 218.536C275.45 215.749 274.045 213.397 272.365 211.064C270.949 209.099 269.604 207.26 268.569 205.046C267.648 203.074 267.032 201.077 266.542 198.968" stroke="white" stroke-linecap="round"/>
<path d="M274.039 212.019C274.196 211.555 274.237 211.037 274.321 210.561C274.578 209.097 274.967 207.73 275.357 206.308" stroke="white" stroke-linecap="round"/>
<path d="M276.93 217.525C277.484 216.116 277.761 214.602 278.127 213.138" stroke="white" stroke-linecap="round"/>
<path d="M275.876 220.646C275.086 220.319 274.375 219.884 273.662 219.404C272.63 218.709 271.297 217.746 270.358 216.938C265.97 213.159 271.59 217.9 268.346 214.784" stroke="white" stroke-linecap="round"/>
<path d="M263.61 222.318C263.547 222.484 263.494 222.654 263.457 222.828C263.044 224.779 262.731 226.757 262.386 228.721C261.558 233.423 261.105 238.067 260.968 242.842C260.734 250.99 260.485 259.252 258.829 267.257C258.194 270.324 257.687 273.388 256.838 276.407C255.756 280.249 254.71 284.051 253.2 287.75C252.28 290.004 251.252 292.182 250.164 294.358C249.346 295.993 248.511 297.615 247.976 299.365" stroke="white" stroke-linecap="round"/>
<path d="M260.973 261.04C262.574 258.644 264.899 256.73 267.187 255.024C268.439 254.092 269.825 253.205 270.834 251.998C272.456 250.057 273.471 247.768 274.587 245.529" stroke="white" stroke-linecap="round"/>
<path d="M261.449 253.463C262.113 252.612 262.628 251.596 263.214 250.696C264.345 248.956 265.54 247.52 267.013 246.079C268.223 244.894 269.525 243.621 270.24 242.06C271.339 239.663 271.741 237.065 272.223 234.503" stroke="white" stroke-linecap="round"/>
<path d="M268.691 231.811C268.156 234.58 266.917 237.511 265.278 239.8C264.06 241.502 262.857 243.182 261.741 244.958" stroke="white" stroke-linecap="round"/>
<path d="M258.413 250.029C257.843 249.359 257.533 248.533 257.196 247.725C256.058 244.991 255.275 242.231 254.41 239.417" stroke="white" stroke-linecap="round"/>
<path d="M259.224 239.699C258.15 237.826 257.4 235.889 256.549 233.902" stroke="white" stroke-linecap="round"/>
<path d="M257.948 256.661C256.419 254.626 255.522 252.146 254.397 249.886" stroke="white" stroke-linecap="round"/>
<path d="M285.625 229.623C285.184 229.974 284.734 230.31 284.353 230.725C283.956 230.945 283.625 230.531 283.585 230.328C283.348 229.149 283.429 227.898 283.512 226.707C283.7 224.033 284.56 221.503 285.416 218.982L285.435 218.926C286.041 217.142 286.374 207.133 289.52 208.705C289.882 208.886 290.237 209.776 290.409 209.141C290.935 207.199 291.056 205.171 291.938 203.327C292.085 203.018 293.511 200.428 294.102 200.804C294.372 200.976 294.272 201.843 294.57 201.914C294.704 201.946 295.052 201.465 295.109 201.399C295.603 200.832 296.064 200.27 296.667 199.81C296.736 199.757 298.397 198.627 298.439 198.937C298.515 199.507 298.275 200.088 298.5 200.663C298.578 200.864 299.294 199.885 299.362 199.813C300.303 198.81 301.318 197.7 302.466 196.933C302.923 196.628 304.204 195.971 304.672 196.602C304.839 196.827 304.761 197.284 304.752 197.538C304.72 198.422 304.609 199.294 304.615 200.181C304.62 200.869 304.322 203.233 305.325 203.426C306.263 203.606 306.514 203.364 306.464 204.57C306.364 206.937 305.59 209.119 304.934 211.368C304.768 211.937 304.552 212.453 305.174 212.737C305.458 212.866 306.049 213.001 306.129 213.368C306.314 214.219 304.959 215.442 304.45 215.947C304.2 216.195 301.993 217.951 302.677 218.293C303.144 218.526 303.371 218.703 302.827 219.065C301.962 219.641 300.926 220.043 300.123 220.694C299.942 220.841 299.483 221.191 299.506 221.469C299.525 221.699 299.904 221.621 299.593 221.894C298.707 222.676 297.699 223.285 296.627 223.778C294.464 224.772 292.166 225.32 290.049 226.46C288.452 227.32 287.038 228.498 285.625 229.623Z" stroke="white" stroke-linecap="round"/>
<path d="M284.197 230.993C283.163 232.034 282.302 233.213 281.406 234.37C280.348 235.738 279.196 237.063 278.168 238.447" stroke="white" stroke-linecap="round"/>
<path d="M285.019 228.772C285.656 227.328 286.86 225.896 287.718 224.619C289.499 221.967 291.302 219.328 293.042 216.648C295.693 212.566 298.274 208.438 300.899 204.34" stroke="white" stroke-linecap="round"/>
<path d="M301.899 207.882C301.632 208.245 301.382 208.496 301.018 208.792C299.313 210.178 297.491 211.418 295.727 212.725" stroke="white" stroke-linecap="round"/>
<path d="M299.885 214.821C299.404 215.305 298.884 215.702 298.32 216.097C297.385 216.751 296.153 217.564 295.164 218.115C290.484 220.72 296.366 217.368 292.489 219.3" stroke="white" stroke-linecap="round"/>
<path d="M289.788 222.164C289.484 219.627 289.7 217.09 289.85 214.56" stroke="white" stroke-linecap="round"/>
<path d="M293.381 215.309C293.491 213.119 294.095 210.897 294.481 208.749" stroke="white" stroke-linecap="round"/>
<path d="M293.068 241.863C295.584 240.651 299.317 237.829 301.778 236.503C303.308 235.68 304.823 234.847 306.418 234.153C308.446 233.27 310.505 232.471 312.46 231.428C314.741 230.212 316.937 228.877 319.269 227.752C321.795 226.534 324.379 225.435 326.721 223.876C328.647 222.594 330.579 221.178 332.162 219.479C332.889 218.697 333.49 217.827 334.071 216.935C334.188 216.756 334.558 216.343 334.494 216.085C334.406 215.735 328.149 218.189 327.461 218.46C326.627 218.79 325.753 218.979 324.907 219.271M293.068 241.863C293.213 241.794 293.259 241.566 293.293 241.427C293.443 240.798 293.33 240.124 293.265 239.494C293.139 238.266 293.043 237.033 292.898 235.808C292.709 234.211 292.499 231.31 294.55 230.733C295.36 230.505 295.881 231.351 296.515 231.661C297.234 232.012 297.933 230.709 298.302 230.293C298.889 229.631 299.426 230.45 300.105 230.596C301.217 230.834 302.168 230.154 302.919 229.413C303.399 228.938 303.74 228.391 304.094 227.822L304.095 227.821C304.28 227.525 304.487 227.133 304.85 227.027C305.495 226.84 306.182 227.318 306.816 227.124C307.224 226.999 307.588 226.559 307.88 226.276C308.489 225.687 309.058 225.057 309.66 224.46C310.2 223.926 310.947 223.001 311.792 222.972C312.729 222.939 313.489 223.157 314.381 222.709C315.482 222.157 316.348 221.284 317.406 220.671C317.885 220.394 318.097 220.866 318.39 221.183C318.775 221.602 319.061 221.292 319.399 220.976C319.824 220.58 320.545 219.537 321.147 219.424C321.38 219.38 321.809 219.951 322.103 220.003C323.028 220.165 324.056 219.565 324.907 219.271M293.068 241.863C292.425 242.171 291.822 242.538 291.216 242.915M324.907 219.271C323.496 219.172 321.201 218.432 319.868 217.982C319.269 217.781 319.186 217.71 318.659 218.096C317.879 218.669 317.266 218.778 316.352 218.462C315.498 218.167 315.038 218.138 314.324 218.73C313.461 219.445 312.69 220.198 311.578 220.488C310.739 220.708 309.552 220.914 308.789 220.35C308.536 220.162 308.385 220.071 308.125 220.312C307.243 221.129 306.604 222.544 305.519 223.1C304.839 223.45 304.259 222.714 303.587 222.863C303.129 222.965 302.726 223.489 302.41 223.795C301.723 224.461 301.048 225.139 300.273 225.703C299.06 226.585 298.046 226.372 296.632 226.357C295.23 226.343 293.921 227.303 292.932 228.214C289.113 231.731 290.133 238.7 291.216 242.915M291.216 242.915C287.115 245.469 283.024 248.034 278.904 250.56" stroke="white" stroke-linecap="round"/>
<path d="M275.346 116.933C272.621 120.629 269.757 125.818 266.912 129.441C260.313 134.711 273.391 142.719 276.309 144.709C285.788 151.172 295.552 157.519 305.882 162.554C307.941 163.557 312.567 166.225 315.061 165.368C316.098 165.012 316.962 163.361 317.601 162.579C319.007 160.856 320.283 159.057 321.459 157.167C324.004 153.078 326.918 148.639 328.33 143.988C329.127 141.361 330.518 138.35 330.069 135.562C329.654 132.98 325.173 131.296 323.248 130.225C318.365 127.506 313.505 124.773 308.656 121.985C303.731 119.153 298.494 116.691 293.283 114.445C289.921 112.996 285.215 110.066 281.344 110.863C278.622 111.424 276.813 114.943 275.346 116.933Z" stroke="white" stroke-linecap="round"/>
<path d="M271.528 121.231C268.175 121.946 255.107 113.45 256.577 110.749C257.064 109.854 260.821 105.08 260.835 105.094C261.818 106.066 262.836 107.088 263.836 108.09C266.782 111.041 270.461 114.986 274.183 116.918L271.528 121.231ZM271.528 121.231L268.906 125.93C267.509 127.045 261.958 126.112 260.516 125.638C257.479 124.641 254.217 122.118 252.374 119.543C250.726 117.242 249.55 113.849 249.513 110.983C249.505 110.327 252.41 109.857 252.951 109.623C254.61 108.907 257.868 108.186 259.296 107.046" stroke="white" stroke-linecap="round"/>
<path d="M270.92 128.024C272.992 130.423 276.296 132.159 278.845 133.942C283.243 137.017 287.708 140.046 292.256 142.896C298.783 146.987 305.839 151.283 313.157 153.791" stroke="white" stroke-linecap="round"/>
</svg>
