<svg width="382" height="378" viewBox="0 0 382 378" fill="none" xmlns="http://www.w3.org/2000/svg">
<path d="M308.584 63.2C302.509 77.7374 291.208 104.717 290.715 105.641C290.079 106.83 283.971 108.445 271.735 103.106C270.289 102.474 268.966 101.851 267.757 101.238M273.784 47.757C272.3 49.5558 267.966 54.3491 265.326 54.4606C262.136 54.5953 235.655 36.34 231.334 33.9764C227.012 31.6128 221.106 31.8601 218.285 33.5981C215.463 35.3361 213.936 38.3337 213.757 38.7677C213.814 39.2061 214.242 39.8411 214.944 40.6128" stroke="white" stroke-linecap="round"/>
<path d="M323.238 40.9229C321.392 44.4735 315.865 53.0308 314.506 55.5201C313.219 57.8786 309.283 57.7102 307.477 57.3312C304.986 57.1102 294.365 53.9071 288.652 51.0327C282.94 48.1582 275.539 42.6899 275.619 40.8257C275.698 38.9614 279.176 32.2049 280.483 29.0366C281.791 25.8683 279.602 22.894 278.225 21.9163C275.003 19.6293 257.338 13.2974 253.094 10.1548C251.925 9.28933 249.727 7.23377 251.404 4.99859" stroke="white"/>
<path d="M281.508 40.3599C280.623 40.0051 279.895 39.2699 279.581 38.593C279.138 37.6371 279.429 35.7603 279.898 34.8585C280.367 33.9568 281.715 32.484 282.938 32.4088C283.666 32.3641 284.408 32.6999 284.7 32.8803" stroke="white"/>
<path d="M281.881 36.5157C282.534 34.9337 283.76 33.2186 284.65 32.8596C286.272 33.5292 286.768 36.3501 285.942 38.3516C285.116 40.3532 282.83 41.1459 281.548 40.3771C281.43 40.4797 281.531 37.3644 281.881 36.5157Z" stroke="white" stroke-linecap="round"/>
<path d="M316.541 41.5243C320.44 42.2195 322.537 42.364 323.82 40.169C324.632 38.7805 324.494 36.9647 322.592 34.7426C320.214 31.965 315.009 29.9625 313.484 29.4715C311.959 28.9805 294.447 25.0434 290.274 23.3217C285.827 21.4865 272.784 13.6141 269.448 11.5083C266.597 9.70904 258.467 4.82829 256.986 4.21729C253.726 2.87215 251.917 3.80019 251.443 4.9489C250.554 7.10334 255.735 9.52478 258.497 10.6645L268.515 14.7986C271.806 16.1565 275.99 18.5025 281.116 21.3768L281.447 21.5623C286.059 24.1482 294.626 30.7701 298.68 34.1541C302.734 37.5381 312.691 40.8378 316.541 41.5243Z" stroke="white" stroke-linecap="round"/>
<path d="M278.112 21.8316C283.452 24.9896 293.557 32.9984 296.62 36.2262C300.238 40.0393 300.144 43.1967 298.813 47.9532" stroke="white" stroke-linecap="round"/>
<path d="M309.268 63.0457C310.046 62.4163 311.309 59.269 310.662 57.5726C304.486 57.4185 290.572 52.1821 286.484 50.1325C283.214 48.4927 278.787 44.7555 276.982 43.0918C275.222 43.4438 273.536 45.8403 273.64 47.2763C273.77 49.0713 280.841 54.8417 291.249 58.6289C301.658 62.4162 308.582 63.6005 309.268 63.0457Z" stroke="white" stroke-linecap="round"/>
<path d="M274.224 84.2895C274.333 85.7971 271.858 91.5675 270.607 94.2642L267.739 101.213C262.455 98.7523 255.605 94.1194 255.658 92.5095C255.723 90.497 258.349 76.4115 256.819 74.2505C255.288 72.0894 246.721 65.6276 241.136 61.3584C239.722 60.2768 230.215 53.5314 227.431 51.6115C226.569 52.5149 225.324 55.4924 224.421 55.7708C223.062 56.1898 211.25 47.4484 211.282 46.121C211.313 44.858 214.128 41.8374 214.927 40.6631L226.318 49.1481C230.394 52.1595 250.245 63.2593 262.246 72.0341C274.248 80.809 274.088 82.405 274.224 84.2895Z" stroke="white" stroke-linecap="round" stroke-linejoin="round"/>
<path d="M289.833 60.7178C287.794 62.3964 282.859 65.7729 279.431 65.8494C275.145 65.9451 260.872 59.1234 252.134 53.4463C243.395 47.7692 231.029 40.5949 229.712 39.0161C228.396 37.4374 228.219 37.3643 228.319 36.3698" stroke="white" stroke-linecap="round"/>
<path d="M228.098 50.6133L226.834 52.5271" stroke="white" stroke-linecap="round"/>
<path d="M226.118 53.2086C222.367 50.5028 214.607 44.8315 213.575 43.7933" stroke="white" stroke-linecap="round"/>
<path d="M309.583 414.202C303.509 428.739 292.208 455.719 291.714 456.643C291.079 457.832 284.97 459.447 272.735 454.108C271.288 453.476 269.965 452.852 268.757 452.24M274.784 398.759C273.299 400.558 268.965 405.351 266.325 405.463C263.135 405.597 236.654 387.342 232.333 384.978C228.012 382.615 222.105 382.862 219.284 384.6C216.463 386.338 214.936 389.336 214.756 389.77C214.813 390.208 215.242 390.843 215.944 391.615" stroke="white" stroke-linecap="round"/>
<path d="M324.238 391.925C322.391 395.475 316.864 404.033 315.506 406.522C314.218 408.881 310.283 408.712 308.476 408.333C305.986 408.112 295.364 404.909 289.652 402.035C283.94 399.16 276.539 393.692 276.618 391.828C276.698 389.963 280.176 383.207 281.483 380.039C282.79 376.87 280.602 373.896 279.224 372.918C276.003 370.631 258.337 364.299 254.094 361.157C252.925 360.291 250.727 358.236 252.403 356.001" stroke="white"/>
<path d="M317.541 392.526C321.44 393.221 323.537 393.366 324.82 391.171C325.632 389.782 325.494 387.967 323.592 385.745C321.214 382.967 316.009 380.964 314.484 380.473C312.959 379.982 295.446 376.045 291.274 374.324C286.826 372.488 273.784 364.616 270.447 362.51C267.596 360.711 259.467 355.83 257.986 355.219C254.726 353.874 252.916 354.802 252.442 355.951C251.553 358.105 256.734 360.527 259.496 361.666L269.515 365.801C272.805 367.158 276.989 369.504 282.115 372.379L282.446 372.564C287.058 375.15 295.626 381.772 299.68 385.156C303.734 388.54 313.691 391.84 317.541 392.526Z" stroke="white" stroke-linecap="round"/>
<path d="M279.111 372.834C284.451 375.992 294.556 384 297.619 387.228C301.238 391.041 301.144 394.199 299.812 398.955" stroke="white" stroke-linecap="round"/>
<path d="M352.196 60.1499C352.154 60.3036 352.094 60.5078 352.026 60.7152C351.885 61.1503 351.712 61.5989 351.605 61.6226C351.447 61.6576 351.421 62.1466 351.427 62.3867L350.658 63.1474L350.836 63.8596C350.681 64.0325 350.362 64.4206 350.323 64.5904C350.283 64.7601 350.214 65.0572 350.185 65.1846L349.751 65.8442C349.853 66.4345 350.871 67.956 354.125 69.3198C358.193 71.0244 359.841 70.5125 360.088 70.2566C360.285 70.0519 360.183 69.399 360.107 69.0981C360.176 69.1589 360.336 69.1871 360.423 68.8136C360.509 68.4401 360.452 67.9705 360.412 67.7824L361.162 67.1067L360.728 66.4243L361.557 66.3484L361.063 64.9813L361.327 64.5635" stroke="white" stroke-linecap="round" stroke-linejoin="round"/>
<path d="M351.776 62.0762C352.471 62.6601 354.335 64.0221 356.222 64.7982C358.11 65.5742 359.911 66.0335 360.575 66.1661" stroke="white" stroke-linecap="round" stroke-linejoin="round"/>
<path d="M351.16 63.6543C351.855 64.2383 353.719 65.6002 355.606 66.3763C357.494 67.1524 359.295 67.6116 359.96 67.7442" stroke="white" stroke-linecap="round" stroke-linejoin="round"/>
<path d="M350.759 65.3809C351.455 65.9648 353.318 67.3268 355.206 68.1029C357.093 68.8789 358.894 69.3381 359.559 69.4707" stroke="white" stroke-linecap="round" stroke-linejoin="round"/>
<path d="M441.464 -19.89C443.563 -26.8056 438.21 -32.9893 436.465 -34.5048C434.719 -36.0204 429.281 -38.64 419.245 -37.392C409.208 -36.1439 398.689 -28.8213 392.578 -19.0872C387.583 -11.132 388.265 -9.17373 386.946 -6.14871C385.627 -3.12369 372.435 13.308 366.026 23.9113C360.898 32.3939 352.989 50.6606 349.675 58.7336C352.562 62.2417 365.168 66.4016 365.72 64.5557C366.272 62.7097 371.478 49.8528 378.968 32.4679C384.848 18.8215 391.233 10.4186 397.395 5.52057" stroke="white" stroke-linecap="round" stroke-linejoin="round"/>
<path d="M387.871 2.64619C384.22 7.46279 375.769 19.4265 371.174 28.7487C366.578 38.071 360.173 53.9175 357.545 60.6755" stroke="white" stroke-linecap="round" stroke-linejoin="round"/>
<path d="M353.197 335.151C353.155 335.305 353.094 335.509 353.027 335.716C352.886 336.151 352.712 336.6 352.605 336.624C352.447 336.659 352.421 337.148 352.428 337.388L351.658 338.148L351.836 338.861C351.682 339.033 351.363 339.422 351.323 339.591C351.284 339.761 351.215 340.058 351.186 340.186L350.751 340.845C350.854 341.435 351.872 342.957 355.126 344.321C359.193 346.025 360.842 345.513 361.088 345.258C361.286 345.053 361.183 344.4 361.108 344.099C361.177 344.16 361.337 344.188 361.423 343.815C361.51 343.441 361.453 342.972 361.413 342.783L362.163 342.108L361.728 341.425L362.557 341.349L362.063 339.982L362.327 339.564" stroke="white" stroke-linecap="round" stroke-linejoin="round"/>
<path d="M352.776 337.077C353.472 337.661 355.336 339.023 357.223 339.799C359.111 340.575 360.912 341.034 361.576 341.167" stroke="white" stroke-linecap="round" stroke-linejoin="round"/>
<path d="M352.16 338.655C352.856 339.239 354.72 340.601 356.607 341.377C358.495 342.153 360.296 342.613 360.96 342.745" stroke="white" stroke-linecap="round" stroke-linejoin="round"/>
<path d="M351.76 340.382C352.455 340.966 354.319 342.328 356.206 343.104C358.094 343.88 359.895 344.339 360.559 344.472" stroke="white" stroke-linecap="round" stroke-linejoin="round"/>
<path d="M442.465 255.111C444.564 248.195 439.211 242.012 437.465 240.496C435.72 238.981 430.282 236.361 420.245 237.609C410.209 238.857 399.69 246.18 393.578 255.914C388.584 263.869 389.266 265.827 387.946 268.852C386.627 271.877 373.436 288.309 367.026 298.912C361.899 307.395 353.99 325.662 350.676 333.735C353.563 337.243 366.169 341.403 366.721 339.557C367.273 337.711 372.478 324.854 379.969 307.469C385.848 293.823 392.234 285.42 398.396 280.522" stroke="white" stroke-linecap="round" stroke-linejoin="round"/>
<path d="M388.872 277.647C385.221 282.464 376.77 294.428 372.175 303.75C367.579 313.072 361.174 328.918 358.546 335.676" stroke="white" stroke-linecap="round" stroke-linejoin="round"/>
<path d="M159.224 339.893L159.292 339.397H159.292L159.224 339.893ZM150.532 336.24L150.147 336.558V336.558L150.532 336.24ZM163.664 340.974L163.905 340.536V340.536L163.664 340.974ZM168.772 345.404L168.394 345.731V345.731L168.772 345.404ZM177.331 349.996L177.298 350.495V350.495L177.331 349.996ZM187.204 346.501L187.513 346.894V346.894L187.204 346.501ZM191.981 343.743L191.852 343.26V343.26L191.981 343.743ZM197.357 343.267L197.361 342.767V342.767L197.357 343.267ZM206.363 340.974L206.073 340.567V340.567L206.363 340.974ZM210.982 330.271L211.478 330.339V330.339L210.982 330.271ZM211.99 325.877L211.555 325.632V325.632L211.99 325.877ZM214.671 322.92L214.332 322.553V322.553L214.671 322.92ZM220.119 314.801L219.631 314.691V314.691L220.119 314.801ZM215.872 302.249L215.447 302.512V302.512L215.872 302.249ZM213.956 298.722L213.475 298.858V298.858L213.956 298.722ZM213.674 295.521L213.174 295.53V295.53L213.674 295.521ZM211.097 285.144L210.675 285.412V285.412L211.097 285.144ZM200.317 279.697L200.402 279.205V279.205L200.317 279.697ZM196.447 278.801L196.266 279.267V279.267L196.447 278.801ZM193.271 276.062L193.653 275.74V275.74L193.271 276.062ZM183.763 271.03L183.732 271.529L183.763 271.03ZM173.715 274.427L173.44 274.009L173.44 274.009L173.715 274.427ZM168.845 276.925L168.724 276.44L168.845 276.925ZM165.467 277.318L165.43 276.819V276.819L165.467 277.318ZM154.106 280.856L153.748 280.506V280.506L154.106 280.856ZM150.135 290.233L150.626 290.327V290.327L150.135 290.233ZM149.193 294.076L148.724 293.901V293.901L149.193 294.076ZM146.177 298.474L146.563 298.792V298.792L146.177 298.474ZM141.51 307.297L142.01 307.322V307.322L141.51 307.297ZM145.291 317.518L145.73 317.28L145.725 317.27L145.718 317.26L145.291 317.518ZM145.291 317.518L144.851 317.757L144.857 317.767L144.863 317.777L145.291 317.518ZM147.317 321.322L146.845 321.487H146.845L147.317 321.322ZM147.628 325.46L147.128 325.447V325.447L147.628 325.46ZM170.523 306.061L170.053 305.89V305.89L170.523 306.061ZM170.227 313.478L170.715 313.372V313.372L170.227 313.478ZM170.437 303.529L170.011 303.79V303.79L170.437 303.529ZM160.791 296.81L160.662 296.327V296.327L160.791 296.81ZM160.791 321.698L160.738 321.201H160.738L160.791 321.698ZM169.693 315.696L170.06 316.036V316.036L169.693 315.696ZM184.323 320.662L184.217 320.174V320.174L184.323 320.662ZM176.906 320.366L177.077 319.896V319.896L176.906 320.366ZM186.542 321.196L186.202 321.563V321.563L186.542 321.196ZM192.544 330.098L192.047 330.151V330.151L192.544 330.098ZM167.655 330.098L167.173 330.227V330.227L167.655 330.098ZM174.375 320.452L174.636 320.878V320.878L174.375 320.452ZM178.083 298.934L177.973 298.446V298.446L178.083 298.934ZM185.479 299.572L185.645 299.101V299.101L185.479 299.572ZM175.583 298.53L175.27 298.92V298.92L175.583 298.53ZM170.13 288.116L169.667 287.927V287.927L170.13 288.116ZM184.905 283.968L184.968 283.472V283.472L184.905 283.968ZM194.821 291.245L194.334 291.13V291.13L194.821 291.245ZM187.747 299.322L188.038 299.729L188.038 299.729L187.747 299.322ZM192.311 314.394L191.841 314.224V314.224L192.311 314.394ZM193.011 307.004L193.5 306.898V306.898L193.011 307.004ZM192.543 316.664L192.952 316.377V316.377L192.543 316.664ZM200.561 323.804L200.681 323.319V323.319L200.561 323.804ZM203.894 299.14L203.701 299.601V299.601L203.894 299.14ZM193.435 304.507L193.823 304.823V304.823L193.435 304.507ZM159.224 339.893L159.292 339.397C156.271 338.982 153.062 338.52 150.918 335.921L150.532 336.24L150.147 336.558C152.576 339.503 156.2 339.981 159.155 340.388L159.224 339.893ZM163.664 340.974L163.905 340.536C162.667 339.854 160.981 339.63 159.292 339.397L159.224 339.893L159.155 340.388C160.91 340.629 162.383 340.839 163.423 341.412L163.664 340.974ZM168.772 345.404L169.15 345.077C167.862 343.589 166.423 341.923 163.905 340.536L163.664 340.974L163.423 341.412C165.772 342.706 167.111 344.25 168.394 345.731L168.772 345.404ZM177.331 349.996L177.364 349.497C175.001 349.34 173.438 348.78 172.235 348.01C171.02 347.232 170.141 346.222 169.15 345.077L168.772 345.404L168.394 345.731C169.372 346.861 170.34 347.984 171.696 348.853C173.064 349.729 174.796 350.328 177.298 350.495L177.331 349.996ZM187.204 346.501L186.896 346.107C185.701 347.042 184.524 347.96 183.041 348.614C181.57 349.262 179.778 349.658 177.364 349.497L177.331 349.996L177.298 350.495C179.865 350.666 181.82 350.245 183.445 349.529C185.058 348.817 186.327 347.822 187.513 346.894L187.204 346.501ZM191.981 343.743L191.852 343.26C189.836 343.8 188.348 344.971 186.896 346.107L187.204 346.501L187.513 346.894C188.984 345.743 190.32 344.706 192.11 344.226L191.981 343.743ZM197.357 343.267L197.361 342.767C195.629 342.753 193.808 342.736 191.852 343.26L191.981 343.743L192.11 344.226C193.918 343.742 195.608 343.753 197.353 343.767L197.357 343.267ZM206.363 340.974L206.073 340.567C202.925 342.807 200.234 342.791 197.361 342.767L197.357 343.267L197.353 343.767C200.246 343.791 203.225 343.821 206.653 341.381L206.363 340.974ZM210.982 330.271L210.487 330.204C210.238 332.028 209.963 334.032 209.326 335.888C208.692 337.737 207.71 339.401 206.073 340.567L206.363 340.974L206.653 341.381C208.515 340.055 209.596 338.184 210.272 336.213C210.946 334.249 211.231 332.147 211.478 330.339L210.982 330.271ZM211.99 325.877L211.555 325.632C211.246 326.181 211.044 326.882 210.888 327.645C210.731 328.413 210.611 329.289 210.487 330.204L210.982 330.271L211.478 330.339C211.603 329.415 211.718 328.575 211.868 327.845C212.018 327.111 212.195 326.534 212.426 326.122L211.99 325.877ZM214.671 322.92L214.332 322.553C213.232 323.569 212.164 324.549 211.555 325.632L211.99 325.877L212.426 326.122C212.942 325.206 213.872 324.339 215.011 323.288L214.671 322.92ZM220.119 314.801L219.631 314.691C218.798 318.415 216.418 320.626 214.332 322.553L214.671 322.92L215.011 323.288C217.087 321.37 219.698 318.97 220.607 314.91L220.119 314.801ZM215.872 302.249L215.447 302.512C216.53 304.258 217.805 306.313 218.697 308.448C219.59 310.589 220.068 312.741 219.631 314.691L220.119 314.801L220.607 314.91C221.11 312.663 220.545 310.28 219.619 308.063C218.692 305.842 217.373 303.719 216.296 301.985L215.872 302.249ZM213.956 298.722L213.475 298.858C213.608 299.327 213.883 299.881 214.22 300.48C214.561 301.086 214.988 301.774 215.447 302.512L215.872 302.249L216.296 301.985C215.834 301.241 215.42 300.573 215.091 299.99C214.759 299.4 214.535 298.932 214.437 298.585L213.956 298.722ZM213.674 295.521L213.174 295.53C213.197 296.78 213.214 297.944 213.475 298.858L213.956 298.722L214.437 298.585C214.22 297.824 214.198 296.81 214.174 295.512L213.674 295.521ZM211.097 285.144L210.675 285.412C213.052 289.155 213.123 292.729 213.174 295.53L213.674 295.521L214.174 295.512C214.122 292.702 214.058 288.874 211.519 284.876L211.097 285.144ZM200.317 279.697L200.232 280.19C203.976 280.838 208.256 281.602 210.675 285.412L211.097 285.144L211.519 284.876C208.828 280.638 204.071 279.839 200.402 279.205L200.317 279.697ZM196.447 278.801L196.266 279.267C197.366 279.697 198.771 279.937 200.232 280.19L200.317 279.697L200.402 279.205C198.908 278.946 197.616 278.721 196.629 278.335L196.447 278.801ZM193.271 276.062L192.888 276.384C193.86 277.539 194.828 278.706 196.266 279.267L196.447 278.801L196.629 278.335C195.471 277.884 194.661 276.938 193.653 275.74L193.271 276.062ZM183.763 271.03L183.732 271.529C186.436 271.696 188.277 272.394 189.654 273.29C191.04 274.191 191.983 275.308 192.888 276.384L193.271 276.062L193.653 275.74C192.754 274.671 191.725 273.444 190.199 272.451C188.664 271.453 186.653 270.707 183.794 270.531L183.763 271.03ZM173.715 274.427L173.99 274.845C176.661 273.086 179.445 271.264 183.732 271.529L183.763 271.03L183.794 270.531C179.145 270.243 176.112 272.25 173.44 274.009L173.715 274.427ZM168.845 276.925L168.966 277.41C170.794 276.954 172.392 275.896 173.99 274.845L173.715 274.427L173.44 274.009C171.812 275.081 170.357 276.033 168.724 276.44L168.845 276.925ZM165.467 277.318L165.503 277.816C166.851 277.718 168.088 277.63 168.966 277.41L168.845 276.925L168.724 276.44C167.949 276.633 166.816 276.718 165.43 276.819L165.467 277.318ZM154.106 280.856L154.463 281.205C155.797 279.841 157.63 279.054 159.615 278.578C161.601 278.102 163.688 277.949 165.503 277.816L165.467 277.318L165.43 276.819C163.627 276.95 161.46 277.107 159.382 277.605C157.305 278.103 155.267 278.953 153.748 280.506L154.106 280.856ZM150.135 290.233L150.626 290.327C151.223 287.217 151.882 283.846 154.463 281.205L154.106 280.856L153.748 280.506C150.927 283.391 150.234 287.064 149.644 290.139L150.135 290.233ZM149.193 294.076L149.661 294.252C150.098 293.087 150.358 291.723 150.626 290.327L150.135 290.233L149.644 290.139C149.371 291.558 149.126 292.831 148.724 293.901L149.193 294.076ZM146.177 298.474L146.563 298.792C147.846 297.237 149.114 295.711 149.661 294.252L149.193 294.076L148.724 293.901C148.249 295.168 147.116 296.551 145.791 298.155L146.177 298.474ZM141.51 307.297L142.01 307.322C142.087 305.748 142.684 304.264 143.541 302.84C144.401 301.413 145.501 300.078 146.563 298.792L146.177 298.474L145.791 298.155C144.739 299.431 143.589 300.823 142.685 302.324C141.779 303.829 141.099 305.476 141.011 307.273L141.51 307.297ZM145.291 317.518L145.718 317.26C144.82 315.774 143.848 314.165 143.12 312.475C142.393 310.787 141.925 309.052 142.01 307.322L141.51 307.297L141.011 307.273C140.916 309.212 141.442 311.107 142.202 312.871C142.962 314.634 143.97 316.301 144.863 317.777L145.291 317.518ZM145.291 317.518L145.73 317.28L145.73 317.28L145.291 317.518L144.851 317.756L144.851 317.757L145.291 317.518ZM147.317 321.322L147.788 321.156C147.388 320.017 146.576 318.678 145.718 317.26L145.291 317.518L144.863 317.777C145.741 319.23 146.487 320.468 146.845 321.487L147.317 321.322ZM147.628 325.46L148.128 325.473C148.17 323.899 148.217 322.377 147.788 321.156L147.317 321.322L146.845 321.487C147.2 322.497 147.172 323.809 147.128 325.447L147.628 325.46ZM150.532 336.24L150.918 335.921C147.956 332.331 148.044 328.626 148.128 325.473L147.628 325.46L147.128 325.447C147.045 328.6 146.927 332.654 150.147 336.558L150.532 336.24ZM170.523 306.061L170.053 305.89C169.449 307.556 169.013 310.24 169.738 313.584L170.227 313.478L170.715 313.372C170.031 310.219 170.45 307.727 170.993 306.231L170.523 306.061ZM170.437 303.529L170.011 303.79C170.359 304.359 170.329 305.128 170.053 305.89L170.523 306.061L170.993 306.231C171.319 305.332 171.438 304.206 170.864 303.268L170.437 303.529ZM160.791 296.81L160.921 297.293C162.599 296.843 164.346 297.588 165.986 298.954C167.614 300.31 169.035 302.197 170.011 303.79L170.437 303.529L170.864 303.268C169.856 301.622 168.368 299.636 166.626 298.186C164.896 296.745 162.812 295.75 160.662 296.327L160.791 296.81ZM154.818 310.947H155.318C155.318 308.902 155.451 305.789 156.244 303.021C157.043 300.233 158.462 297.953 160.921 297.293L160.791 296.81L160.662 296.327C157.678 297.128 156.11 299.858 155.283 302.745C154.45 305.651 154.318 308.877 154.318 310.947H154.818ZM160.791 321.698L160.738 321.201C158.933 321.396 157.583 320.033 156.647 317.843C155.725 315.688 155.318 312.954 155.318 310.947H154.818H154.318C154.318 313.055 154.74 315.929 155.727 318.236C156.699 320.51 158.335 322.466 160.845 322.195L160.791 321.698ZM169.693 315.696L169.326 315.357C168.274 316.493 166.821 317.89 165.268 319.039C163.7 320.198 162.097 321.055 160.738 321.201L160.791 321.698L160.845 322.195C162.479 322.019 164.261 321.027 165.862 319.843C167.479 318.647 168.98 317.204 170.06 316.036L169.693 315.696ZM170.227 313.478L169.738 313.584C169.882 314.247 169.742 314.908 169.326 315.357L169.693 315.696L170.06 316.036C170.741 315.301 170.914 314.285 170.715 313.372L170.227 313.478ZM184.323 320.662L184.217 320.174C181.065 320.858 178.572 320.439 177.077 319.896L176.906 320.366L176.736 320.836C178.402 321.44 181.086 321.876 184.429 321.151L184.323 320.662ZM186.542 321.196L186.881 320.829C186.146 320.148 185.131 319.975 184.217 320.174L184.323 320.662L184.429 321.151C185.092 321.007 185.753 321.147 186.202 321.563L186.542 321.196ZM192.544 330.098L193.041 330.044C192.865 328.41 191.872 326.628 190.688 325.027C189.492 323.41 188.049 321.909 186.881 320.829L186.542 321.196L186.202 321.563C187.339 322.615 188.736 324.068 189.884 325.621C191.044 327.189 191.9 328.792 192.047 330.151L192.544 330.098ZM181.792 336.071V336.571C183.9 336.571 186.774 336.149 189.082 335.162C191.355 334.19 193.311 332.554 193.041 330.044L192.544 330.098L192.047 330.151C192.241 331.956 190.878 333.306 188.689 334.242C186.533 335.164 183.799 335.571 181.792 335.571V336.071ZM167.655 330.098L167.173 330.227C167.973 333.211 170.704 334.779 173.59 335.606C176.496 336.439 179.722 336.571 181.792 336.571V336.071V335.571C179.747 335.571 176.635 335.438 173.866 334.645C171.078 333.846 168.798 332.427 168.138 329.968L167.655 330.098ZM174.375 320.452L174.113 320.025C172.468 321.033 170.482 322.521 169.031 324.263C167.59 325.993 166.596 328.077 167.173 330.227L167.655 330.098L168.138 329.968C167.688 328.29 168.434 326.543 169.8 324.903C171.155 323.275 173.043 321.854 174.636 320.878L174.375 320.452ZM176.906 320.366L177.077 319.896C176.178 319.57 175.052 319.451 174.113 320.025L174.375 320.452L174.636 320.878C175.204 320.53 175.974 320.56 176.736 320.836L176.906 320.366ZM178.083 298.934L178.194 299.422C179.745 299.071 182.271 298.969 185.312 300.044L185.479 299.572L185.645 299.101C182.42 297.961 179.702 298.056 177.973 298.446L178.083 298.934ZM175.583 298.53L175.27 298.92C176.129 299.608 177.261 299.632 178.194 299.422L178.083 298.934L177.973 298.446C177.183 298.625 176.416 298.557 175.895 298.14L175.583 298.53ZM170.13 288.116L169.667 287.927C168.824 289.987 169.549 292.18 170.761 294.078C171.981 295.988 173.764 297.714 175.27 298.92L175.583 298.53L175.895 298.14C174.437 296.972 172.744 295.325 171.604 293.539C170.455 291.74 169.935 289.913 170.592 288.305L170.13 288.116ZM184.905 283.968L184.968 283.472C182.914 283.211 179.698 282.937 176.71 283.398C173.742 283.856 170.836 285.068 169.667 287.927L170.13 288.116L170.592 288.305C171.556 285.949 173.997 284.828 176.863 284.386C179.709 283.947 182.813 284.207 184.842 284.464L184.905 283.968ZM194.821 291.245L195.307 291.361C195.891 288.905 194.156 287.036 192.023 285.786C189.857 284.517 187.059 283.737 184.968 283.472L184.905 283.968L184.842 284.464C186.833 284.716 189.494 285.464 191.517 286.649C193.572 287.853 194.754 289.364 194.334 291.13L194.821 291.245ZM187.747 299.322L188.038 299.729C189.332 298.804 190.952 297.497 192.342 296.043C193.718 294.603 194.927 292.96 195.307 291.361L194.821 291.245L194.334 291.13C194.018 292.46 192.967 293.942 191.619 295.352C190.284 296.748 188.716 298.015 187.456 298.915L187.747 299.322ZM185.479 299.572L185.312 300.044C186.194 300.356 187.223 300.312 188.038 299.729L187.747 299.322L187.456 298.915C186.959 299.271 186.285 299.327 185.645 299.101L185.479 299.572ZM192.311 314.394L192.781 314.565C193.948 311.349 193.876 308.63 193.5 306.898L193.011 307.004L192.522 307.11C192.86 308.665 192.942 311.191 191.841 314.224L192.311 314.394ZM192.543 316.664L192.952 316.377C192.601 315.876 192.55 315.202 192.781 314.565L192.311 314.394L191.841 314.224C191.522 315.103 191.558 316.132 192.134 316.952L192.543 316.664ZM200.561 323.804L200.681 323.319C199.354 322.992 197.88 321.928 196.481 320.569C195.096 319.223 193.842 317.644 192.952 316.377L192.543 316.664L192.134 316.952C193.048 318.254 194.342 319.884 195.784 321.286C197.213 322.674 198.846 323.896 200.442 324.29L200.561 323.804ZM207.921 313.949L207.425 313.882C207.156 315.871 206.387 318.526 205.185 320.539C203.964 322.583 202.443 323.753 200.681 323.319L200.561 323.804L200.442 324.29C202.893 324.894 204.776 323.174 206.044 321.051C207.33 318.897 208.134 316.105 208.416 314.016L207.921 313.949ZM203.894 299.14L203.701 299.601C206.049 300.584 207.15 303.034 207.568 305.903C207.984 308.753 207.699 311.856 207.425 313.882L207.921 313.949L208.416 314.016C208.693 311.965 208.994 308.75 208.558 305.759C208.125 302.787 206.936 299.871 204.087 298.679L203.894 299.14ZM193.435 304.507L193.823 304.823C195.003 303.375 196.664 301.695 198.459 300.569C200.267 299.435 202.098 298.93 203.701 299.601L203.894 299.14L204.087 298.679C202.034 297.819 199.835 298.526 197.927 299.722C196.007 300.926 194.266 302.695 193.048 304.191L193.435 304.507ZM193.011 307.004L193.5 306.898C193.328 306.106 193.402 305.34 193.823 304.823L193.435 304.507L193.048 304.191C192.353 305.044 192.319 306.176 192.522 307.11L193.011 307.004Z" fill="white"/>
<path d="M150.387 313.441C150.956 318.066 153.905 326.496 159.917 332.27C165.22 337.364 169.173 340.155 181.408 340.155C193.201 340.155 201.986 332.304 205.129 327.588" stroke="white" stroke-linecap="round"/>
<path d="M162.142 286.446C165.103 283.849 172.267 278.834 181.731 278.834C191.195 278.834 197.338 283.986 200.619 287.266" stroke="white" stroke-linecap="round"/>
<path d="M210.255 300.046C210.756 303.19 211.429 309.3 210.828 313.51C210.227 317.72 208.263 323.327 207.534 324.626" stroke="white" stroke-linecap="round"/>
<path d="M177.495 304.803C177.308 304.874 175.69 307.808 174.843 309.326C174.728 309.533 174.634 309.755 174.634 309.991C174.627 312.004 177.473 315.978 178.122 315.978C178.813 315.978 184.181 316.26 184.997 315.57C185.813 314.879 187.162 309.826 187.037 309.449C186.911 309.072 184.432 304.803 183.71 304.615C182.988 304.427 177.746 304.709 177.495 304.803Z" stroke="white"/>
<path d="M180.194 307.064C179.139 307.039 178.353 308.058 178.091 308.571C177.875 308.993 177.634 309.638 178.091 311.243C178.562 312.898 179.472 312.996 181.763 313.122C184.055 313.248 184.193 309.366 183.553 308.163C182.968 307.064 181.512 307.095 180.194 307.064Z" stroke="white"/>
<path d="M381.027 191.224C381.195 192.384 382.581 194.245 383.651 194.79C384.794 195.372 388.471 195.828 389.674 191.858C390.636 188.681 388.756 186.397 387.695 185.652C386.635 184.908 385.89 184.858 383.901 185.18" stroke="white"/>
<path d="M334.984 101.587C335.02 100.987 334.897 99.6912 334.115 99.3154C333.137 98.8456 331.264 98.6228 331.039 98.8896" stroke="white" stroke-linecap="round"/>
<path d="M302.152 170.082C302.307 169.997 303.817 170.185 304.467 170.211C305.116 170.237 305.18 171.201 305.642 172.736C305.921 173.664 305.39 174.521 304.866 175.056" stroke="white"/>
<path d="M308.512 178.806C318.396 188.179 348.81 216.642 350.378 217.796C352.244 219.168 355.828 220.339 358.752 218.116C361.675 215.893 389.534 159.579 389.894 157.763C390.253 155.946 392.143 149.603 390.297 145.944C388.451 142.284 386.862 139.625 383.71 137.846C381.14 136.395 344.699 113.975 331.062 105.536M306.111 176.518C305.751 176.17 305.547 175.967 305.521 175.929C305.12 175.359 303.225 173.771 303.572 173.569C303.919 173.366 303.847 172.97 303.854 171.85C303.861 170.731 302.789 170.383 302.49 170.245C302.191 170.108 298.663 169.9 297.744 170.166C296.825 170.432 295.89 172.263 296.064 173.248C296.087 173.376 296.891 174.245 298.281 175.667M300.399 177.809C312.048 189.49 343.333 219.655 346.083 222.052C349.463 224.996 353.187 225.524 357.7 225.093C362.213 224.661 365.928 219.757 367.381 217.502C368.835 215.248 389.448 173.57 391.253 169.945C393.058 166.32 397.077 161.208 397.724 151.623C398.37 142.038 392.151 136.188 390.059 134.531C388.286 133.126 346.397 108.035 332.516 100.285M327.937 103.598C326.726 102.846 326.023 102.404 325.965 102.359C325.436 101.951 324.752 100.92 325.437 99.4294C325.706 98.8862 326.624 97.8447 328.142 98.0245C328.336 98.0475 329.118 98.4312 330.368 99.1033" stroke="white"/>
<path d="M301.556 172.14C301.272 171.993 300.699 171.659 300.684 171.499C300.664 171.298 301.483 171.29 301.58 171.287" stroke="white" stroke-linecap="round"/>
<path d="M384.565 187.374C384.625 187.291 387.23 185.946 388.028 188.676C388.664 190.854 387.669 193.087 386.299 193.303C385.395 193.446 384.4 192.672 384.32 192.525" stroke="white" stroke-linecap="round"/>
<path d="M382.327 188.23C382.472 188.297 384.725 188.621 386.159 188.751C386.93 189.568 386.157 191.455 385.989 191.533C385.854 191.595 382.79 190.94 381.066 190.707C381.369 190.03 382.181 188.163 382.327 188.23Z" stroke="white" stroke-linejoin="round"/>
<path d="M302.329 172.511C302.64 172.641 303.151 173.31 303.367 173.628C303.288 173.591 302.259 173.742 301.474 173.989C300.689 174.236 300.279 175.199 299.885 176.057C299.49 176.915 300.313 177.421 300.428 177.554C300.543 177.687 300.527 177.999 300.3 178.007C300.072 178.014 298.827 176.898 298.475 176.48C298.123 176.063 298.322 175.387 298.585 174.292C298.848 173.198 300.482 172.494 301.268 172.28C302.055 172.065 301.94 172.349 302.329 172.511Z" stroke="white"/>
<path d="M334.592 117.509C334.586 115.612 336.173 111.963 337.314 109.479L334.49 107.703C332.999 109.864 331.737 112.972 331.068 115.714C329.955 120.274 331.781 122.754 333.801 124.555C335.758 126.299 359.006 142.057 361.053 143.394C363.099 144.732 375.615 152.61 377.893 155.093C380.17 157.575 379.762 162.223 378.037 166.17C376.312 170.117 372.747 170.154 371.356 169.706C369.965 169.259 329.725 138.225 328.535 137.63C327.345 137.035 325.261 137.131 322.928 139.218C320.594 141.305 319.633 144.071 318.984 147.028C318.334 149.985 318.73 153.758 320.801 155.715C322.873 157.672 359.63 188.738 360.743 189.744C361.857 190.75 362.39 193.629 362.637 195.746C362.885 197.863 361.593 200.453 360.3 202.494C359.006 204.534 356.302 204.389 354.885 203.82C353.469 203.252 317.451 169.046 315.698 168.24C313.945 167.434 312.792 167.525 311.769 167.949C310.745 168.373 309.69 169.593 309.201 170.555L306.616 175.632C306.258 176.334 304.947 179.236 305.517 178.986C308.461 177.695 309.302 179.617 309.419 179.363C309.536 179.109 311.386 174.429 312.61 172.789C313.835 171.149 314.936 171.711 315.938 172.652C317.009 173.658 348.618 202.732 350.642 204.74C352.666 206.747 354.649 208.017 358.33 207.554C362.012 207.091 364.679 201.494 365.725 197.46C366.771 193.426 364.032 188.217 362.716 187.048C361.4 185.879 323.23 154.078 322.617 153.099C322.003 152.121 321.133 149.487 322.149 145.594C323.164 141.701 326.089 140.385 327.4 140.586C328.712 140.786 366.271 170.654 367.048 171.254C367.824 171.854 375.105 177.836 380.529 168.323C385.952 158.811 380.56 152.804 379.395 151.823C378.23 150.842 336.66 122.535 335.995 121.764C335.331 120.993 334.599 119.88 334.592 117.509Z" stroke="white"/>
<path d="M329.982 101.861C330.213 100.749 331.901 100.328 332.715 100.257C332.494 99.62 331.309 98.973 330.868 99.0377C330.427 99.1024 329.066 99.691 328.501 100.337C327.937 100.983 327.827 102.476 327.943 103.702C328.059 104.928 328.893 105.126 329.483 105.5C330.072 105.874 330.981 105.777 331.135 105.621C331.289 105.466 331.012 105.441 330.642 105.395C330.273 105.349 329.693 103.251 329.982 101.861Z" stroke="white" stroke-linecap="round"/>
<path d="M294.973 265.212C295.361 266.249 294.657 267.951 294.786 268.334C294.923 268.741 296.731 272.594 297.821 273.133C298.91 273.673 303.444 272.27 305.073 271.856C306.702 271.442 311.05 271.155 313.497 271.417C315.944 271.68 317.447 273.849 317.99 273.711C318.533 273.573 324.671 272.382 325.352 272.651C326.032 272.92 332.637 280.343 333.485 281.753C334.333 283.164 335.432 286.421 336.347 291.337C337.262 296.254 336.114 301.667 335.899 302.456C335.685 303.245 333.639 308.77 332.988 309.098C332.467 309.361 327.178 310.805 324.598 311.494C324.057 312.221 322.634 313.942 321.268 315.012C319.561 316.351 311.602 317.712 305.734 318.494C299.866 319.277 299.015 317.051 298.065 317.327C297.115 317.602 288.775 318.747 287.472 319.133C286.168 319.518 284.207 318.329 283.881 318.358C283.555 318.386 271.742 321.148 270.435 320.582C269.129 320.016 261.411 312.95 261.108 311.946C260.805 310.941 257.85 298.205 257.954 296.927C258.037 295.905 260.914 288.807 262.342 285.386L274.007 282.714C273.843 282.298 273.546 281.067 273.63 280.371C273.714 279.675 274.241 279.064 274.494 278.846L273.528 276.932" stroke="white" stroke-width="0.664923" stroke-linecap="round" stroke-linejoin="round"/>
<path d="M282.535 252.804C283.185 252.613 283.664 252.502 283.895 252.501C285.493 252.495 287.117 253.153 287.412 253.127C287.707 253.102 297.614 239.544 298.595 239.172C299.577 238.8 302.133 238.495 303.344 240.285C304.555 242.075 312.3 255.715 312.65 257.14C312.999 258.564 310.867 260.318 310.082 260.714C309.296 261.11 296.939 263.344 296.277 263.862C295.616 264.381 292.994 267.367 293.17 267.709C293.954 269.222 295.522 272.469 295.526 273.354C295.53 274.46 281.058 283.637 279.249 281.568C277.294 279.333 277.023 277.738 276.284 277.249C275.545 276.76 271.9 277.016 270.084 276.788C267.162 276.42 263.77 273.974 263.78 270.964C259.267 271.702 250.77 273.734 249.235 273.378C248.235 273.145 240.938 256.691 241.326 255.018C241.713 253.345 243.992 251.518 245.614 251.438C247.13 251.363 265.279 257.194 268.056 257.858" stroke="white" stroke-width="0.664923" stroke-linecap="round" stroke-linejoin="round"/>
<path d="M273.301 247.879C273.903 247.673 274.042 247.721 274.726 247.571C276.991 247.071 279.401 246.985 279.931 248.034C280.62 249.4 282.909 253.244 283.109 254.332C283.308 255.421 279.469 259.246 273.361 260.999C272.352 261.217 270.214 261.539 269.732 261.083C269.129 260.513 267.326 255.968 267.128 255.438C266.931 254.909 266.408 253.319 267.186 252.297C267.616 251.733 268.483 250.787 269.61 249.904C270.112 249.511 270.249 249.327 270.839 248.997" stroke="white" stroke-width="0.664923" stroke-linecap="round" stroke-linejoin="round"/>
<path d="M267.69 255.944C268.466 256.119 270.3 256.353 271.427 255.894C272.835 255.321 279.639 252.347 280.602 250.255" stroke="white" stroke-width="0.664923" stroke-linecap="round" stroke-linejoin="round"/>
<path d="M269.077 259.602C268.775 258.7 268.583 256.769 270.237 256.264C272.305 255.634 275.165 256.21 275.976 257.635C276.625 258.776 276.849 259.305 276.88 259.427C276.312 257.634 275.68 253.793 277.698 252.775C280.222 251.501 281.949 252.924 282.594 254.021" stroke="white" stroke-width="0.664923" stroke-linecap="round" stroke-linejoin="round"/>
<path d="M265.092 274.142C265.838 274.736 266.76 275.856 273.933 274.559C282.298 273.047 288.047 269.292 291.922 264.37" stroke="white" stroke-width="0.664923" stroke-linecap="round" stroke-linejoin="round"/>
<path d="M268.374 258.921C266.86 260.269 264.167 263.048 265.51 263.378C267.19 263.792 271.077 263.861 275.684 261.887C279.369 260.307 282.02 258.806 282.885 258.253" stroke="white" stroke-width="0.664923" stroke-linecap="round" stroke-linejoin="round"/>
<path d="M287.739 252.747L282.908 258.238C284.982 259.619 289.044 263.381 289.784 263.736C290.087 264.005 291.807 264.361 296.26 263.629" stroke="white" stroke-width="0.664923" stroke-linecap="round" stroke-linejoin="round"/>
<path d="M263.801 271.019C263.925 269.416 264.313 265.406 265.153 262.853" stroke="white" stroke-width="0.664923" stroke-linecap="round" stroke-linejoin="round"/>
<path d="M303.162 288.591L312.792 287.071" stroke="white" stroke-width="0.664923" stroke-linecap="round" stroke-linejoin="round"/>
<path d="M306.719 304.629L315.615 302.156" stroke="white" stroke-width="0.664923" stroke-linecap="round" stroke-linejoin="round"/>
<path d="M307.445 276.474L316.646 274.855" stroke="white" stroke-width="0.664923" stroke-linecap="round" stroke-linejoin="round"/>
<path d="M315.467 289.25C315.258 292.733 317.354 298.526 318.429 300.988C321.318 306.713 325.525 308.182 326.883 308.252C328.242 308.323 331.057 307.407 333.734 303.472C336.398 299.556 335.165 292.615 334.444 288.559L334.433 288.5C333.714 284.453 328.911 278.181 327.471 276.702C326.032 275.223 321.075 274.889 318.644 277.565C316.214 280.24 315.728 284.896 315.467 289.25Z" stroke="white" stroke-width="0.664923" stroke-linecap="round" stroke-linejoin="round"/>
<path d="M321.982 302.811C322.981 300.921 325.207 296.374 323.438 291.47C321.669 286.565 319.949 284.556 318.198 283.632" stroke="white" stroke-width="0.664923" stroke-linecap="round" stroke-linejoin="round"/>
<path d="M317.832 289.162C318.472 289.973 319.811 292.309 320.043 295.166C320.275 298.023 319.965 299.091 319.781 299.268" stroke="white" stroke-width="0.664923" stroke-linecap="round" stroke-linejoin="round"/>
<path d="M328.526 305.851C330.475 304.469 332.582 297.829 331.67 293.06C330.005 284.363 326.537 279.626 323.306 277.361" stroke="white" stroke-width="0.664923" stroke-linecap="round" stroke-linejoin="round"/>
<path d="M325.019 304.288C327.642 299.881 328.035 296.751 327.553 293.179C326.63 286.336 321.291 279.591 319.704 278.817" stroke="white" stroke-width="0.664923" stroke-linecap="round" stroke-linejoin="round"/>
<path d="M274.996 284.72C273.98 286.745 271.957 291.71 271.991 295.373C272.033 299.952 273.894 306.637 275.49 309.675C277.087 312.713 282.564 317.7 283.522 318.224" stroke="white" stroke-width="0.664923" stroke-linecap="round" stroke-linejoin="round"/>
<path d="M298.135 317.213C294.804 314.484 290.107 309.545 287.79 302.207C285.937 296.337 286.413 290.321 286.882 288.046C287.545 284.838 291.474 278.779 298.2 273.396" stroke="white" stroke-width="0.664923" stroke-linecap="round" stroke-linejoin="round"/>
<path d="M314.462 316.852C312.205 316.668 306.811 314.777 303.287 308.692C298.881 301.085 297.418 293.191 297.956 288.887C298.493 284.583 298.744 277.714 305.566 272.003" stroke="white" stroke-width="0.664923" stroke-linecap="round" stroke-linejoin="round"/>
<path d="M273.88 282.305C274.424 284.185 275.675 285.362 276.115 285.403C276.665 285.453 279.574 284.822 280.302 284.602" stroke="white" stroke-width="0.664923" stroke-linecap="round" stroke-linejoin="round"/>
<path d="M280.17 284.638C280.966 284.477 281.808 284.265 284.442 284.066" stroke="white" stroke-width="0.664923" stroke-linecap="round" stroke-linejoin="round"/>
<path d="M258.167 297.149L271.856 295.03" stroke="white" stroke-width="0.664923" stroke-linecap="round" stroke-linejoin="round"/>
<path d="M261.339 312.144L275.053 309.814" stroke="white" stroke-width="0.664923" stroke-linecap="round" stroke-linejoin="round"/>
<path d="M310.721 271.354C308.904 271.915 304.949 273.751 303.671 276.614C302.074 280.192 299.264 289.108 301.964 297.954C304.663 306.8 307.931 312.901 313.75 314.817C318.405 316.349 320.872 315.486 321.524 314.863" stroke="white" stroke-width="0.664923" stroke-linecap="round" stroke-linejoin="round"/>
<path d="M317.548 273.644C316.894 273.848 307.744 275.693 307.292 276.172C306.841 276.652 302.933 287.887 302.912 288.969C302.891 290.051 306.339 304.127 306.617 304.553C306.84 304.895 312.265 310.21 314.95 312.825C317.984 312.386 324.138 311.477 324.48 311.355" stroke="white" stroke-width="0.664923" stroke-linecap="round" stroke-linejoin="round"/>
<path d="M321.973 272.923C320.457 273.373 317.309 274.395 316.848 274.88C316.272 275.485 312.937 285.36 312.865 286.467C312.808 287.353 314.691 297.161 315.64 301.954C318.368 304.862 323.954 310.764 324.479 311.104" stroke="white" stroke-width="0.664923" stroke-linecap="round" stroke-linejoin="round"/>
<path d="M241.351 255.51C241.368 253.925 243.387 254.35 245.173 254.983C246.621 255.496 258.938 260.875 264.991 263.112" stroke="white" stroke-width="0.664923" stroke-linecap="round" stroke-linejoin="round"/>
<path d="M296.246 241.778C298.106 239.904 300.812 242.285 301.845 244.187C302.878 246.088 307.966 256.139 310.119 260.466" stroke="white" stroke-width="0.664923" stroke-linecap="round" stroke-linejoin="round"/>
<path d="M269.481 250.651C269.255 251.401 269.348 252.357 269.45 252.881C269.688 254.118 276.794 249.959 277.16 249.402C277.526 248.845 276.514 248.048 276.121 247.848C275.541 247.553 273.351 247.718 272.171 248.215C270.991 248.713 269.759 249.726 269.481 250.651Z" stroke="white" stroke-width="0.664923" stroke-linecap="round" stroke-linejoin="round"/>
<path d="M266.948 253.383C267.366 254.181 269.259 255.235 273.486 253.065C278.77 250.353 280.157 248.828 279.64 247.895" stroke="white" stroke-width="0.664923" stroke-linecap="round" stroke-linejoin="round"/>
<path d="M271.828 249.727C271.809 249.884 272.548 249.824 273.313 249.084" stroke="white" stroke-width="0.664923" stroke-linecap="round" stroke-linejoin="round"/>
<path d="M24.1032 308.9C24.1032 310.237 22.6619 312.814 21.2301 314.627C20.0847 316.078 18.3511 316.8 16.938 317.242C12.2397 314.009 9.78517 315.009 9.02154 315.2C8.25791 315.391 2.1489 319.4 1.38526 320.546C0.774349 321.462 0.249256 324.463 0.627751 326.472C1.07529 328.847 1.36258 331.103 4.46725 336.162C7.57191 341.222 14.273 343.896 16.2161 343.41C17.2372 343.155 24.9169 339.003 25.6068 337.048C26.1588 335.484 26.1652 333.85 26.0994 333.228L39.458 328.281C47.6524 331.095 56.8866 328.281 60.963 326.747C63.0835 325.95 66.0305 323.481 69.0847 320.352C70.6138 318.786 72.907 313.734 75.0283 308.67M78.2131 300.89C78.2935 300.694 78.3722 300.502 78.4492 300.315C78.973 299.53 80.1384 297.906 80.6098 297.697C81.199 297.435 81.9257 297.816 83.3661 298.143C84.8064 298.47 91.9489 293.35 92.1453 292.368C92.3417 291.386 93.7788 286.551 89.9735 279.577C85.7983 271.926 78.6529 271.545 77.6241 271.926C77.4776 271.98 76.2887 272.741 74.357 274.01" stroke="white" stroke-linecap="round"/>
<path d="M73.5161 272.798C73.8513 273.28 74.1379 273.737 74.3641 274.158C75.7898 276.811 76.409 280.715 76.409 281.612C76.409 282.509 76.6333 287.995 76.409 291.284C76.1847 294.574 75.4108 296.288 75.4108 296.811C75.4108 297.334 75.9342 298.456 77.1304 298.456C78.3266 298.456 78.7752 305.184 78.7004 305.558C78.6256 305.932 66.5887 315.128 65.4673 315.053C64.3458 314.978 61.43 313.109 60.6076 313.109C53.9786 313.932 39.1967 315.411 30.2606 311.987C17.7726 307.202 18.0672 299.428 17.9924 298.456C17.9177 297.484 17.2465 291.03 17.7166 288.68C18.1504 286.511 19.4708 284.727 20.098 284.451C20.098 281.673 19.3635 276.012 20.2353 274.158C20.3654 273.881 20.7746 273.23 21.4421 272.363" stroke="white" stroke-linecap="round"/>
<path d="M24.4113 264.525C20.98 268.18 21.6373 271.93 21.4316 275.205C21.4316 279.315 22.462 284.146 27.7513 288.019C34.5796 293.018 42.5961 295.314 55.9787 293.445C69.3614 291.576 72.7909 279.446 72.9437 278.868C73.3 277.52 73.6921 272.739 73.41 271.194C72.9437 268.641 71.5931 264.039 66.514 261.224C60.7691 258.04 54.094 257 45.1968 257C34.8763 257 28.703 259.954 24.4113 264.525Z" stroke="white" stroke-linecap="round"/>
<path d="M34.2803 275.627C34.4722 275.665 34.8791 275.569 34.9713 274.878C35.0864 274.014 35.2016 274.245 36.5836 273.899C37.6892 273.623 38.4646 272.978 38.7141 272.69C39.5587 271.98 41.3975 270.502 41.9964 270.271C42.7449 269.983 44.1269 268.717 44.5876 268.659" stroke="white" stroke-linecap="round" stroke-linejoin="round"/>
<path d="M35.7915 277.618C35.9835 277.656 36.3904 277.56 36.4825 276.869C36.5977 276.006 36.7128 276.236 38.0948 275.89C39.2004 275.614 39.9759 274.969 40.2254 274.681C41.0699 273.971 42.9087 272.493 43.5076 272.263C44.2562 271.975 45.6382 270.708 46.0988 270.65" stroke="white" stroke-linecap="round" stroke-linejoin="round"/>
<path d="M30.5374 275.742C30.8445 275.55 31.4587 275.097 31.4587 274.821C31.4587 274.475 31.4587 273.209 32.0921 273.151C32.5988 273.105 34.0691 271.98 34.7409 271.424C35.2016 269.754 35.0288 269.926 35.7774 269.984C36.526 270.042 38.2534 270.56 37.9655 269.178C37.6776 267.796 39.2323 267.738 39.6354 267.911C40.0385 268.084 41.5357 267.508 41.5357 266.932C41.5357 266.356 43.0904 266.586 44.0693 266.529C44.8524 266.483 46.2766 265.972 46.8908 265.723" stroke="white" stroke-linecap="round" stroke-linejoin="round"/>
<path d="M38.7139 278.8L40.6723 277.625L44.0995 280.171" stroke="white" stroke-linecap="round" stroke-linejoin="round"/>
<path d="M33.6143 281.869L35.5727 280.693L38.9999 283.239" stroke="white" stroke-linecap="round" stroke-linejoin="round"/>
<path d="M43.2766 275.81L45.235 274.635L48.6622 277.181" stroke="white" stroke-linecap="round" stroke-linejoin="round"/>
<path d="M48.3379 272.665L50.2963 271.49L53.7235 274.036" stroke="white" stroke-linecap="round" stroke-linejoin="round"/>
<path d="M53.0242 269.905L54.9826 268.729L58.4098 271.275" stroke="white" stroke-linecap="round" stroke-linejoin="round"/>
<path d="M39.6262 279.342C38.7449 280.027 40.2718 281.424 42.3869 280.875C42.6425 280.479 42.7013 279.618 40.8915 279.342" stroke="white" stroke-linecap="round" stroke-linejoin="round"/>
<path d="M34.5264 282.41C33.6451 283.095 35.1719 284.492 37.287 283.944C37.5427 283.548 37.6015 282.686 35.7917 282.41" stroke="white" stroke-linecap="round" stroke-linejoin="round"/>
<path d="M44.189 276.352C43.3077 277.037 44.8345 278.433 46.9496 277.885C47.2053 277.489 47.2641 276.628 45.4543 276.352" stroke="white" stroke-linecap="round" stroke-linejoin="round"/>
<path d="M49.2502 273.207C48.3689 273.892 49.8958 275.289 52.0109 274.741C52.2665 274.344 52.3253 273.483 50.5156 273.207" stroke="white" stroke-linecap="round" stroke-linejoin="round"/>
<path d="M53.9365 270.447C53.0552 271.133 54.5821 272.529 56.6972 271.981C56.9528 271.585 57.0116 270.723 55.2018 270.447" stroke="white" stroke-linecap="round" stroke-linejoin="round"/>
<path d="M21.5898 272.4C20.9234 275.095 26.8633 287.904 44.82 289.101C63.7036 290.361 74.5611 278.2 73.3315 272.549" stroke="white" stroke-linecap="round"/>
<path d="M19.8841 275.492C19.257 287.413 28.3437 294.489 41.0518 296.142C58.8677 298.46 67.6284 292.317 70.9627 288.056C73.6542 284.617 75.8116 278.638 75.3098 276.371" stroke="white" stroke-linecap="round"/>
<path d="M76.4925 289.284C76.4925 294.482 67.1513 301.856 61.1624 303.686C54.3277 305.774 43.4422 304.891 38.1904 303.686C34.33 302.8 26.5345 299.741 24.7109 297.8C22.6169 295.571 20.6527 291.405 20.4074 290.662C20.1621 289.918 20.0811 283.45 20.0811 283.45" stroke="white" stroke-linecap="round" stroke-linejoin="round"/>
<path d="M17.576 291.922C18.5568 296.205 19.1028 299.672 25.8428 303.017C38.2217 309.16 48.9453 309.807 59.8844 307.597C61.8316 307.204 64.0469 308.325 64.8693 308.4C65.5272 308.46 73.5668 302.294 77.5043 299.204" stroke="white" stroke-linecap="round"/>
<path d="M76.4729 283.013C78.9568 285.444 83.6247 292.464 80.5325 297.713" stroke="white" stroke-linecap="round"/>
<path d="M76.0469 274.663C80.6837 276.012 83.1375 278.45 85.6157 283.178C87.6308 287.022 88.0184 292.157 87.3018 294.644" stroke="white" stroke-linecap="round"/>
<path d="M78.2954 273.455C81.8448 274.187 85.4975 277.169 87.7886 281.089C90.1267 285.089 90.2957 289.343 90.1267 292.075" stroke="white" stroke-linecap="round"/>
<path d="M23.1667 320.554C25.0087 320.048 29.2589 318.758 31.5244 317.653" stroke="white" stroke-linecap="round"/>
<path d="M39.343 328.304C41.293 327.657 46.8666 325.374 50.3416 322.79" stroke="white" stroke-linecap="round"/>
<path d="M16.8977 317.205C18.6725 318.875 21.2326 321.403 23.1761 324.879C24.4114 327.089 25.9817 331.222 26.1 333.272" stroke="white" stroke-linecap="round"/>
<path d="M7.08351 318.378C9.62082 318.956 12.8864 321.237 15.6146 324.437C20.0269 329.612 21.1214 335.439 21.1609 338.949" stroke="white" stroke-linecap="round"/>
<path d="M9.07837 316.652C11.6157 317.231 16.2705 319.758 18.6276 323.24C22.0984 328.367 23.4002 334.026 23.4396 337.536" stroke="white" stroke-linecap="round"/>
<path d="M1.38135 320.512C2.6755 318.318 8.78757 320.824 12.8427 325.826C18.4358 332.725 20.4902 340.317 17.8871 342.644" stroke="white" stroke-linecap="round"/>
<path d="M83.4065 298.142C84.8928 295.71 86.5897 289.899 83.4065 284.806C81.0574 281.048 77.3641 277.874 75.5586 276.879" stroke="white" stroke-linecap="round"/>
<path d="M4.82254 322.366C3.21885 322.219 2.40495 324.102 2.46142 325.039C2.365 326.89 2.90868 330.284 5.60245 334.689C6.25734 335.76 12.2324 342.721 15.3897 340.135C18.9525 337.217 12.7079 328.672 11.7903 327.349C10.4259 325.383 6.82716 322.549 4.82254 322.366Z" stroke="white" stroke-linecap="round"/>
<path d="M41.8354 286.644C42.4113 286.529 43.563 286.195 43.5629 285.78C43.5629 285.262 44.6736 284.283 45.1343 284.283C45.5028 284.283 46.5238 284.283 47.1193 283.763C47.5659 282.771 47.3979 281.911 48.4575 281.865C49.7819 281.807 50.0698 280.252 50.9335 280.195C51.7973 280.137 54.6764 280.771 54.734 279.561C54.7916 278.352 57.0949 277.776 57.4979 277.143C57.901 276.509 59.2254 275.473 59.974 275.243C60.7226 275.012 62.4501 274.955 62.4501 274.379" stroke="white" stroke-linecap="round" stroke-linejoin="round"/>
<path d="M73.533 272.955C71.7029 269.472 63.2384 265.982 60.9994 265.179C52.5301 262.141 43.8218 262.425 40.2671 262.93C34.9567 263.684 24.7117 265.34 21.6116 272.34" stroke="white" stroke-linecap="round" stroke-linejoin="round"/>
<path d="M65.0125 308.453L65.4861 314.848" stroke="white" stroke-linecap="round" stroke-linejoin="round"/>
<path d="M111.458 369.107C113.557 362.192 108.204 356.008 106.458 354.492C104.713 352.977 99.2751 350.357 89.2384 351.605C79.2017 352.853 68.683 360.176 62.5713 369.91C57.5765 377.865 58.2585 379.823 56.9393 382.848C55.6202 385.873 42.4288 402.305 36.0192 412.908C30.8914 421.391 22.9824 439.658 19.6689 447.731C22.5559 451.239 35.162 455.399 35.7139 453.553C36.2658 451.707 41.4713 438.85 48.9617 421.465C54.8414 407.819 61.2271 399.416 67.3891 394.518" stroke="white" stroke-linecap="round" stroke-linejoin="round"/>
<path d="M62.609 383.712C61.578 388.153 64.1734 393 67.2905 394.315C77.1887 398.491 83.0341 395.988 91.7974 391.758C99.1335 388.217 106.248 380.654 108.993 375.186C111.738 369.719 112.297 366.557 111.57 364.085C110.956 362.002 107.791 357.553 101.895 356.653C95.9994 355.754 89.5439 356.831 78.8727 363.209C68.2016 369.587 63.8082 378.546 62.609 383.712Z" stroke="white" stroke-linecap="round" stroke-linejoin="round"/>
<path d="M65.0548 384.178C63.8787 388.138 66.0172 392.824 68.9973 394.092L70.5485 395.125C69.7825 395.853 68.0397 397.515 67.1963 398.339C66.1421 399.37 65.4967 400.883 67.1147 402.202C68.7327 403.52 71.7849 403.175 72.8071 401.638C73.6248 400.408 74.9041 397.541 75.4415 396.261C80.3081 397.08 88.8256 393.437 92.476 391.512C99.5148 388.04 106.356 380.654 109.005 375.324C111.655 369.994 111.194 367.49 110.507 365.089C109.927 363.063 107.597 359.567 101.954 358.714C96.3113 357.861 90.1845 359.386 79.9413 365.631C69.698 371.877 66.525 379.228 65.0548 384.178Z" stroke="white" stroke-linecap="round" stroke-linejoin="round"/>
<path d="M89.6522 379.433C91.0712 378.397 92.5015 378.119 93.5345 378.861C94.6599 379.926 94.1894 381.014 93.7415 381.619C93.1074 382.476 92.3932 382.813 90.7175 383.83C89.0419 384.847 87.4859 384.05 86.9737 383.228C86.4615 382.406 87.8784 380.729 89.6522 379.433Z" stroke="white" stroke-linecap="round" stroke-linejoin="round"/>
<path d="M77.9858 371.465C77.5702 370.829 78.3238 370.365 78.8072 370.064C80.5318 369.493 80.2382 371.203 79.9082 371.912C79.5782 372.621 78.3518 372.026 77.9858 371.465Z" stroke="white" stroke-linecap="round" stroke-linejoin="round"/>
<path d="M81.017 372.169C80.6015 371.532 81.3551 371.069 81.8385 370.767C83.563 370.196 83.2695 371.906 82.9395 372.615C82.6095 373.324 81.3831 372.729 81.017 372.169Z" stroke="white" stroke-linecap="round" stroke-linejoin="round"/>
<path d="M72.717 376.978C72.3014 376.342 73.055 375.878 73.5384 375.577C75.263 375.006 74.9694 376.715 74.6394 377.424C74.3094 378.133 73.083 377.539 72.717 376.978Z" stroke="white" stroke-linecap="round" stroke-linejoin="round"/>
<path d="M76.0583 376.505C75.6427 375.868 76.3963 375.405 76.8797 375.103C78.6043 374.532 78.3107 376.242 77.9807 376.951C77.6507 377.66 76.4243 377.065 76.0583 376.505Z" stroke="white" stroke-linecap="round" stroke-linejoin="round"/>
<path d="M79.3065 371.486C79.3587 371.637 79.4725 371.885 79.5097 371.672C79.5468 371.459 79.593 371.291 79.6114 371.234" stroke="white" stroke-linecap="round" stroke-linejoin="round"/>
<path d="M82.338 372.19C82.3902 372.34 82.504 372.589 82.5412 372.375C82.5783 372.162 82.6245 371.994 82.6429 371.937" stroke="white" stroke-linecap="round" stroke-linejoin="round"/>
<path d="M84.0285 372.958C83.6129 372.321 84.3665 371.858 84.85 371.556C86.5745 370.985 86.2809 372.695 85.9509 373.404C85.6209 374.113 84.3946 373.518 84.0285 372.958Z" stroke="white" stroke-linecap="round" stroke-linejoin="round"/>
<path d="M85.3492 372.98C85.4014 373.13 85.5152 373.379 85.5524 373.165C85.5895 372.952 85.6357 372.784 85.6541 372.727" stroke="white" stroke-linecap="round" stroke-linejoin="round"/>
<path d="M88.9216 370.496C88.506 369.859 89.2596 369.396 89.743 369.094C91.4676 368.523 91.174 370.233 90.844 370.942C90.514 371.651 89.2876 371.056 88.9216 370.496Z" stroke="white" stroke-linecap="round" stroke-linejoin="round"/>
<path d="M90.2423 370.518C90.2945 370.668 90.4083 370.917 90.4455 370.704C90.4826 370.49 90.5288 370.322 90.5472 370.265" stroke="white" stroke-linecap="round" stroke-linejoin="round"/>
<path d="M86.8259 368.631C86.4103 367.995 87.1639 367.532 87.6473 367.23C89.3719 366.659 89.0783 368.369 88.7483 369.078C88.4183 369.787 87.1919 369.192 86.8259 368.631Z" stroke="white" stroke-linecap="round" stroke-linejoin="round"/>
<path d="M88.1466 368.653C88.1988 368.804 88.3126 369.052 88.3497 368.839C88.3869 368.626 88.4331 368.458 88.4515 368.401" stroke="white" stroke-linecap="round" stroke-linejoin="round"/>
<path d="M84.2695 366.86C83.8539 366.224 84.6075 365.76 85.0909 365.459C86.8155 364.887 86.5219 366.597 86.1919 367.306C85.8619 368.015 84.6355 367.42 84.2695 366.86Z" stroke="white" stroke-linecap="round" stroke-linejoin="round"/>
<path d="M85.5902 366.882C85.6424 367.033 85.7562 367.281 85.7934 367.068C85.8305 366.855 85.8767 366.687 85.8951 366.629" stroke="white" stroke-linecap="round" stroke-linejoin="round"/>
<path d="M91.1044 363.968C90.6889 363.332 91.4425 362.868 91.9259 362.567C93.6504 361.996 93.3569 363.706 93.0269 364.415C92.6969 365.124 91.4705 364.529 91.1044 363.968Z" stroke="white" stroke-linecap="round" stroke-linejoin="round"/>
<path d="M92.4251 363.989C92.4774 364.14 92.5912 364.388 92.6283 364.175C92.6655 363.962 92.7116 363.794 92.7301 363.737" stroke="white" stroke-linecap="round" stroke-linejoin="round"/>
<path d="M97.4772 363.092C97.0617 362.456 97.8153 361.992 98.2987 361.691C100.023 361.12 99.7297 362.83 99.3997 363.539C99.0697 364.248 97.8433 363.653 97.4772 363.092Z" stroke="white" stroke-linecap="round" stroke-linejoin="round"/>
<path d="M98.7979 363.114C98.8502 363.265 98.964 363.513 99.0011 363.3C99.0383 363.087 99.0844 362.919 99.1029 362.862" stroke="white" stroke-linecap="round" stroke-linejoin="round"/>
<path d="M92.6161 366.443C92.2006 365.807 92.9542 365.343 93.4376 365.042C95.1621 364.47 94.8686 366.18 94.5386 366.889C94.2086 367.598 92.9822 367.003 92.6161 366.443Z" stroke="white" stroke-linecap="round" stroke-linejoin="round"/>
<path d="M93.9368 366.465C93.9891 366.616 94.1029 366.864 94.14 366.651C94.1772 366.438 94.2234 366.27 94.2418 366.212" stroke="white" stroke-linecap="round" stroke-linejoin="round"/>
<path d="M98.1142 365.964C97.6986 365.327 98.4522 364.864 98.9357 364.562C100.66 363.991 100.367 365.701 100.037 366.41C99.7066 367.119 98.4803 366.524 98.1142 365.964Z" stroke="white" stroke-linecap="round" stroke-linejoin="round"/>
<path d="M99.4349 365.985C99.4871 366.136 99.6009 366.384 99.6381 366.171C99.6752 365.958 99.7214 365.79 99.7398 365.733" stroke="white" stroke-linecap="round" stroke-linejoin="round"/>
<path d="M74.0377 376.999C74.0899 377.15 74.2037 377.398 74.2409 377.185C74.278 376.972 74.3242 376.804 74.3426 376.747" stroke="white" stroke-linecap="round" stroke-linejoin="round"/>
<path d="M77.379 376.526C77.4312 376.677 77.545 376.925 77.5822 376.712C77.6193 376.499 77.6655 376.331 77.6839 376.274" stroke="white" stroke-linecap="round" stroke-linejoin="round"/>
<path d="M79.4623 376.667C79.0468 376.03 79.8004 375.567 80.2838 375.265C82.0083 374.694 81.7148 376.404 81.3848 377.113C81.0548 377.822 79.8284 377.227 79.4623 376.667Z" stroke="white" stroke-linecap="round" stroke-linejoin="round"/>
<path d="M80.783 376.689C80.8353 376.839 80.9491 377.088 80.9862 376.874C81.0234 376.661 81.0695 376.493 81.088 376.436" stroke="white" stroke-linecap="round" stroke-linejoin="round"/>
<path d="M94.1104 368.889C93.7512 368.339 94.4025 367.939 94.8204 367.678C96.3109 367.184 96.0571 368.662 95.7719 369.275C95.4867 369.888 94.4268 369.374 94.1104 368.889Z" stroke="white" stroke-linecap="round" stroke-linejoin="round"/>
<path d="M95.2519 368.908C95.2971 369.038 95.3954 369.253 95.4275 369.068C95.4597 368.884 95.4996 368.739 95.5155 368.689" stroke="white" stroke-linecap="round" stroke-linejoin="round"/>
<path d="M98.0999 368.799C97.7407 368.25 98.392 367.849 98.8099 367.588C100.3 367.095 100.047 368.572 99.7614 369.185C99.4762 369.798 98.4163 369.284 98.0999 368.799Z" stroke="white" stroke-linecap="round" stroke-linejoin="round"/>
<path d="M99.2414 368.818C99.2866 368.948 99.3849 369.163 99.417 368.978C99.4492 368.794 99.4891 368.649 99.505 368.6" stroke="white" stroke-linecap="round" stroke-linejoin="round"/>
<path d="M101.422 370.128C101.063 369.578 101.714 369.177 102.132 368.916C103.622 368.423 103.369 369.9 103.083 370.513C102.798 371.126 101.738 370.612 101.422 370.128Z" stroke="white" stroke-linecap="round" stroke-linejoin="round"/>
<path d="M102.563 370.147C102.609 370.277 102.707 370.492 102.739 370.308C102.771 370.123 102.811 369.978 102.827 369.929" stroke="white" stroke-linecap="round" stroke-linejoin="round"/>
<path d="M102.433 367.239C102.074 366.689 102.726 366.288 103.143 366.028C104.634 365.534 104.38 367.012 104.095 367.625C103.81 368.237 102.75 367.723 102.433 367.239Z" stroke="white" stroke-linecap="round" stroke-linejoin="round"/>
<path d="M103.575 367.257C103.62 367.388 103.718 367.602 103.751 367.418C103.783 367.234 103.823 367.089 103.838 367.039" stroke="white" stroke-linecap="round" stroke-linejoin="round"/>
<path d="M103.121 364.275C102.762 363.725 103.414 363.324 103.831 363.064C105.322 362.57 105.068 364.048 104.783 364.661C104.498 365.274 103.438 364.759 103.121 364.275Z" stroke="white" stroke-linecap="round" stroke-linejoin="round"/>
<path d="M104.263 364.293C104.308 364.424 104.406 364.638 104.439 364.454C104.471 364.27 104.511 364.125 104.526 364.075" stroke="white" stroke-linecap="round" stroke-linejoin="round"/>
<path d="M106.105 367.351C105.746 366.801 106.397 366.401 106.815 366.14C108.306 365.646 108.052 367.124 107.767 367.737C107.481 368.35 106.421 367.836 106.105 367.351Z" stroke="white" stroke-linecap="round" stroke-linejoin="round"/>
<path d="M107.247 367.37C107.292 367.5 107.39 367.714 107.422 367.53C107.454 367.346 107.494 367.201 107.51 367.151" stroke="white" stroke-linecap="round" stroke-linejoin="round"/>
<path d="M104.872 370.3C104.513 369.751 105.164 369.35 105.582 369.089C107.073 368.596 106.819 370.073 106.534 370.686C106.249 371.299 105.189 370.785 104.872 370.3Z" stroke="white" stroke-linecap="round" stroke-linejoin="round"/>
<path d="M106.014 370.319C106.059 370.449 106.157 370.664 106.19 370.479C106.222 370.295 106.262 370.15 106.277 370.101" stroke="white" stroke-linecap="round" stroke-linejoin="round"/>
<path d="M104.802 370.602C104.443 370.052 105.094 369.651 105.512 369.391C107.003 368.897 106.749 370.375 106.464 370.988C106.179 371.601 105.119 371.087 104.802 370.602Z" stroke="white" stroke-linecap="round" stroke-linejoin="round"/>
<path d="M105.944 370.622C105.989 370.752 106.087 370.966 106.119 370.782C106.152 370.598 106.191 370.453 106.207 370.403" stroke="white" stroke-linecap="round" stroke-linejoin="round"/>
<path d="M102.959 372.926C102.6 372.376 103.251 371.976 103.669 371.715C105.159 371.222 104.906 372.699 104.62 373.312C104.335 373.925 103.275 373.411 102.959 372.926Z" stroke="white" stroke-linecap="round" stroke-linejoin="round"/>
<path d="M104.1 372.945C104.145 373.075 104.244 373.29 104.276 373.105C104.308 372.921 104.348 372.776 104.364 372.727" stroke="white" stroke-linecap="round" stroke-linejoin="round"/>
<path d="M107.542 371.359C107.288 370.97 107.748 370.687 108.044 370.503C109.098 370.154 108.918 371.198 108.717 371.632C108.515 372.065 107.766 371.701 107.542 371.359Z" stroke="white" stroke-linecap="round" stroke-linejoin="round"/>
<path d="M108.349 371.372C108.381 371.464 108.45 371.616 108.473 371.486C108.496 371.355 108.524 371.253 108.535 371.218" stroke="white" stroke-linecap="round" stroke-linejoin="round"/>
<path d="M105.501 374C105.247 373.611 105.708 373.328 106.003 373.143C107.057 372.794 106.878 373.839 106.676 374.272C106.474 374.706 105.725 374.342 105.501 374Z" stroke="white" stroke-linecap="round" stroke-linejoin="round"/>
<path d="M106.308 374.013C106.34 374.105 106.41 374.256 106.432 374.126C106.455 373.996 106.483 373.893 106.495 373.858" stroke="white" stroke-linecap="round" stroke-linejoin="round"/>
<path d="M103.287 376.218C103.033 375.83 103.494 375.546 103.789 375.362C104.843 375.013 104.663 376.058 104.462 376.491C104.26 376.924 103.511 376.561 103.287 376.218Z" stroke="white" stroke-linecap="round" stroke-linejoin="round"/>
<path d="M104.094 376.231C104.126 376.323 104.195 376.475 104.218 376.345C104.241 376.215 104.269 376.112 104.28 376.077" stroke="white" stroke-linecap="round" stroke-linejoin="round"/>
<path d="M103.685 378.357C103.432 377.968 103.892 377.685 104.187 377.501C105.241 377.152 105.062 378.196 104.86 378.63C104.658 379.063 103.909 378.699 103.685 378.357Z" stroke="white" stroke-linecap="round" stroke-linejoin="round"/>
<path d="M104.492 378.37C104.524 378.462 104.594 378.614 104.617 378.484C104.639 378.353 104.667 378.251 104.679 378.216" stroke="white" stroke-linecap="round" stroke-linejoin="round"/>
<path d="M87.3564 378.554C87.4164 378.727 87.5472 379.012 87.5899 378.767C87.6326 378.522 87.6856 378.329 87.7068 378.264" stroke="white" stroke-linecap="round" stroke-linejoin="round"/>
<path d="M92.5485 376.02C92.6086 376.194 92.7393 376.479 92.782 376.234C92.8247 375.989 92.8777 375.796 92.8989 375.73" stroke="white" stroke-linecap="round" stroke-linejoin="round"/>
<path d="M94.4294 376.138C94.4894 376.311 94.6202 376.596 94.6629 376.351C94.7056 376.106 94.7586 375.913 94.7798 375.847" stroke="white" stroke-linecap="round" stroke-linejoin="round"/>
<path d="M96.227 378.921C96.287 379.094 96.4178 379.379 96.4605 379.134C96.5032 378.889 96.5562 378.697 96.5774 378.631" stroke="white" stroke-linecap="round" stroke-linejoin="round"/>
<path d="M83.417 377.958C83.477 378.131 83.6077 378.416 83.6504 378.171C83.6931 377.927 83.7461 377.734 83.7673 377.668" stroke="white" stroke-linecap="round" stroke-linejoin="round"/>
<path d="M83.0331 377.587C82.5434 377.849 82.6372 378.523 82.7452 378.827C82.7989 379.022 83.3613 379.101 83.9141 378.915C84.4668 378.73 84.7687 377.767 84.7233 377.456C84.6779 377.145 83.6453 377.258 83.0331 377.587Z" stroke="white" stroke-linecap="round" stroke-linejoin="round"/>
<path d="M89.4506 373.8C89.5107 373.973 89.6414 374.258 89.6841 374.013C89.7268 373.768 89.7798 373.575 89.801 373.51" stroke="white" stroke-linecap="round" stroke-linejoin="round"/>
<path d="M89.0666 373.428C88.5769 373.691 88.6706 374.365 88.7787 374.669C88.8323 374.864 89.3948 374.942 89.9475 374.757C90.5003 374.572 90.8022 373.609 90.7568 373.298C90.7114 372.987 89.6787 373.1 89.0666 373.428Z" stroke="white" stroke-linecap="round" stroke-linejoin="round"/>
<path d="M95.4316 372.38C95.4916 372.553 95.6224 372.838 95.6651 372.593C95.7078 372.348 95.7608 372.156 95.782 372.09" stroke="white" stroke-linecap="round" stroke-linejoin="round"/>
<path d="M95.0475 372.008C94.5578 372.271 94.6516 372.945 94.7596 373.249C94.8133 373.444 95.3757 373.522 95.9285 373.337C96.4813 373.152 96.7831 372.189 96.7377 371.878C96.6923 371.567 95.6597 371.68 95.0475 372.008Z" stroke="white" stroke-linecap="round" stroke-linejoin="round"/>
<path d="M99.4504 374.075C99.5104 374.248 99.6412 374.533 99.6839 374.289C99.7266 374.044 99.7796 373.851 99.8008 373.785" stroke="white" stroke-linecap="round" stroke-linejoin="round"/>
<path d="M99.0663 373.704C98.5766 373.967 98.6704 374.64 98.7784 374.944C98.8321 375.139 99.3945 375.218 99.9473 375.032C100.5 374.847 100.802 373.884 100.757 373.573C100.711 373.262 99.6785 373.375 99.0663 373.704Z" stroke="white" stroke-linecap="round" stroke-linejoin="round"/>
<path d="M99.9247 378.208C99.9746 378.341 100.082 378.559 100.114 378.373C100.146 378.187 100.187 378.041 100.203 377.991" stroke="white" stroke-linecap="round" stroke-linejoin="round"/>
<path d="M99.6126 377.922C99.2222 378.117 99.3042 378.631 99.3939 378.863C99.439 379.013 99.8912 379.078 100.333 378.943C100.775 378.807 101.007 378.077 100.968 377.839C100.928 377.602 100.101 377.678 99.6126 377.922Z" stroke="white" stroke-linecap="round" stroke-linejoin="round"/>
</svg>
