<svg width="414" height="147" viewBox="0 0 414 147" fill="none" xmlns="http://www.w3.org/2000/svg">
<g clip-path="url(#clip0_2004_4859)">
<path d="M280.415 101.53C280.394 101.204 280.397 100.619 280.538 100.298C281.468 98.178 282.497 96.0406 283.686 94.0517C284.502 92.6865 285.581 91.3503 286.698 90.2109C288.332 88.5446 289.955 87.2482 292.059 86.2072C297.792 83.3714 304.473 81.9896 310.753 83.6307C317.152 85.3029 322.908 90.146 324.622 96.714C325.131 98.6667 325.208 100.901 325.157 102.912C325.094 105.379 324.498 107.445 323.846 109.797C323.181 112.193 321.711 114.293 321.062 116.677C320.913 117.224 320.639 117.762 320.43 118.291C321.029 119.672 320.049 122.682 319.542 123.963L319.535 123.98C319.126 125.014 318.496 126.607 317.537 127.255C316.64 127.861 315.585 127.958 314.537 127.988C312.665 128.041 310.664 127.467 308.827 127.148C306.358 126.719 303.866 126.271 301.455 125.575C298.954 124.853 296.439 123.766 294.016 122.808C291.403 121.775 288.809 120.621 286.344 119.266C283.973 117.962 281.42 116.922 279.156 115.438C277.965 114.657 276.211 113.835 275.949 112.25C275.848 111.638 276.127 110.741 276.225 110.125C276.407 108.979 276.539 107.826 276.902 106.716C277.368 105.291 277.761 103.583 278.554 102.3C279.068 101.467 279.576 101.355 280.415 101.53Z" fill="#333333"/>
<path d="M280.415 101.53C280.394 101.204 280.397 100.619 280.538 100.298C281.468 98.178 282.497 96.0406 283.686 94.0517C284.502 92.6865 285.581 91.3503 286.698 90.2109C288.332 88.5446 289.955 87.2482 292.059 86.2072C297.792 83.3714 304.473 81.9896 310.753 83.6307C317.152 85.3029 322.908 90.146 324.622 96.714C325.131 98.6667 325.208 100.901 325.157 102.912C325.094 105.379 324.498 107.445 323.846 109.797C323.181 112.193 321.711 114.293 321.062 116.677C320.913 117.224 320.639 117.762 320.43 118.291M280.415 101.53C283.074 102.083 285.598 102.991 288.046 104.159C290.581 105.367 293.448 105.827 296.074 106.801C299.233 107.971 302.251 109.437 305.331 110.794C308.768 112.309 312.174 114.02 315.422 115.914C316.787 116.711 318.421 117.212 319.719 118.091C320.077 118.333 320.281 118.667 320.43 118.291M280.415 101.53C279.576 101.355 279.068 101.467 278.554 102.3C277.761 103.583 277.368 105.291 276.902 106.716C276.539 107.826 276.407 108.979 276.225 110.125C276.127 110.741 275.848 111.638 275.949 112.25C276.211 113.835 277.965 114.657 279.156 115.438C281.42 116.922 283.973 117.962 286.344 119.266C288.809 120.621 291.403 121.775 294.016 122.808C296.439 123.766 298.954 124.853 301.455 125.575C303.866 126.271 306.358 126.719 308.827 127.148C310.664 127.467 312.665 128.041 314.537 127.988C315.585 127.958 316.64 127.861 317.537 127.255C318.502 126.603 319.133 124.997 319.542 123.963C320.049 122.682 321.029 119.672 320.43 118.291" stroke="white" stroke-linecap="round"/>
<path d="M308.168 79.8387C308.547 81.2234 309.536 82.6358 310.842 83.3283L317.204 85.8971C317.23 86.1908 318.328 85.9636 318.539 85.8855C319.377 85.5754 320.032 85.3155 320.377 84.4416C321.883 80.6348 320.065 76.7955 316.292 75.2587C313.723 74.2129 310.413 74.9713 308.845 77.3961C308.332 78.1899 307.904 78.8749 308.168 79.8387Z" fill="#333333" stroke="white" stroke-linecap="round"/>
<path d="M320.592 84.754C321.219 84.9384 322.037 84.7222 322.659 84.6679" stroke="white" stroke-linecap="round"/>
<path d="M320.721 81.863C320.991 81.6495 321.314 81.4915 321.61 81.3168" stroke="white" stroke-linecap="round"/>
<path d="M313.784 74.2633C313.6 73.803 313.714 73.6173 313.974 73.2158" stroke="white" stroke-linecap="round"/>
<path d="M310.594 76.6216C309.874 76.5069 309.176 76.4093 308.447 76.3374" stroke="white" stroke-linecap="round"/>
<path d="M313.864 80.6258C313.402 80.3813 313.289 80.6599 313.11 81.1133" stroke="white" stroke-linecap="round"/>
<path d="M319.784 77.0896C319.501 76.8726 320.85 76.7535 320.926 76.7556" stroke="white" stroke-linecap="round"/>
<path d="M66.155 -12.3791C66.1419 -12.6906 66.1134 -13.0094 66.1551 -13.3203C66.3235 -13.789 67.2861 -13.1505 67.4073 -13.1062C67.9535 -12.9064 68.643 -12.9614 69.2101 -12.968C70.9526 -12.9883 72.6869 -13.3078 74.4004 -13.609C76.9279 -14.0533 79.4346 -14.7913 81.8287 -15.7081C84.3042 -16.656 86.7294 -17.8762 89.1527 -18.9482C91.5759 -20.0203 93.5148 -21.3236 95.6682 -22.7773C97.4741 -23.9963 99.4799 -25.0771 100.621 -26.8642C101.023 -27.4749 101.901 -28.0795 102.086 -27.8288C102.25 -27.6065 102.558 -27.4221 102.755 -27.2026C103.372 -26.5174 103.93 -25.7574 104.459 -25.0029C105.537 -23.4629 106.673 -21.9461 107.852 -20.4812C109.632 -18.2684 111.526 -16.1589 113.386 -14.0126C115.357 -11.7366 117.609 -9.7037 119.469 -7.33546C121.256 -5.05985 123.071 -2.84121 125.025 -0.706403C126.153 0.526545 127.148 1.86693 128.261 3.11142C128.446 3.31827 128.604 3.498 128.365 3.72533C128.084 3.99188 127.728 4.15695 127.441 4.41258C127.258 4.57555 127.551 4.98668 127.647 5.15977C127.855 5.53248 128.281 6.03048 128.153 6.4936C128.101 6.6835 127.666 6.88701 127.521 6.99526C126.952 7.41758 126.341 7.7655 125.722 8.10743C124.106 8.99946 122.565 10.0186 121.002 10.9986C119.894 11.6939 118.699 12.2685 117.635 13.0345C117.421 13.189 117.297 12.9913 117.14 12.8506C116.89 12.6256 116.919 12.4158 116.577 12.5671C115.848 12.8894 115.275 13.4551 114.688 13.9762C114.468 14.1712 114.255 14.4394 113.972 14.547C113.894 14.5767 113.81 14.482 113.737 14.4562C113.628 14.4179 113.955 14.8554 113.976 14.886C114.143 15.1322 114.276 15.1745 114.038 15.3695C113.762 15.5965 113.334 15.6968 113.015 15.8495C112.482 16.1046 111.957 16.3667 111.415 16.6034C110.713 16.9094 109.982 17.1451 109.28 17.4505C108.535 17.7745 107.813 18.1437 107.072 18.4758C105.644 19.1161 104.208 19.7481 102.735 20.2755L102.653 20.3051C102.161 20.4809 101.673 20.656 101.176 20.8165C101.031 20.8635 100.759 21.0424 100.603 21.0187C100.392 20.9869 100.21 20.412 100.139 20.2528C100.008 19.9567 99.9128 19.5837 99.537 19.6674C99.0014 19.7867 98.493 20.0806 97.9923 20.3021C97.5644 20.4914 98.5001 21.2052 97.9624 21.3349C97.4789 21.4515 97.0167 21.656 96.5355 21.7958C95.6123 22.064 94.688 22.279 93.784 22.6128C92.6612 23.0273 91.5574 23.5113 90.4553 23.9772C89.4856 24.3872 88.4676 24.7219 87.4769 25.0758C86.4893 25.4287 85.5162 25.8215 84.5234 26.1634C84.2327 26.2635 83.9412 26.3236 83.6595 26.4482C83.5889 26.4795 83.5038 26.5391 83.4261 26.5136C82.9366 26.3534 83.2338 25.1252 82.647 25.1193C82.1749 25.1146 81.7628 25.5276 81.279 25.4811C81.0291 25.4571 81.0995 25.5454 81.1492 25.7684C81.2225 26.0976 81.444 26.9761 81.0479 27.1655C80.7521 27.3069 80.3852 27.3387 80.0743 27.4529C78.4562 28.0474 76.6206 27.8714 74.9257 27.9375C74.4778 27.955 74.0299 27.9218 73.5843 27.8765C73.4798 27.8659 73.0986 27.8512 73.0281 27.744C72.8508 27.4744 72.8078 27.2022 72.6973 26.8923C72.621 26.6785 72.6091 26.3715 72.3092 26.5042C71.9557 26.6606 71.5298 26.753 71.1443 26.7383C70.7411 26.7229 70.1202 26.6962 69.9795 26.2205C69.7973 25.6045 69.6512 24.9826 69.5116 24.3558C69.2237 23.063 69.1433 21.7341 68.9384 20.4256C68.6497 18.5814 68.5211 16.7074 68.3566 14.8494C67.9659 10.4383 67.5488 6.02736 67.2348 1.60956C67.052 -0.962057 66.6137 -3.50942 66.5327 -6.09055C66.4938 -7.33186 66.4436 -8.557 66.3198 -9.79346C66.2337 -10.6534 66.1913 -11.5157 66.155 -12.3791Z" fill="#333333" stroke="white" stroke-linecap="round"/>
<path d="M104.376 -4.7207C105.21 -2.90168 106.066 -1.08514 107.001 0.684917C107.684 1.97935 108.227 3.34347 108.867 4.6596C109.83 6.63867 110.801 8.61345 111.789 10.5798C112.544 12.082 113.341 13.6068 114.31 14.9817" stroke="white" stroke-linecap="round"/>
<path d="M109.32 1.17578C110.675 3.35094 112.057 5.51331 113.474 7.64901C114.193 8.73342 114.981 9.77001 115.696 10.8576C116.204 11.6302 116.746 12.412 117.368 13.0957" stroke="white" stroke-linecap="round"/>
<path d="M95.2417 9.73633C96.0336 11.2094 96.6747 12.7695 97.3564 14.2963C97.8857 15.4817 98.5428 16.6017 99.089 17.7786C99.56 18.7934 100.031 19.8467 100.661 20.7749" stroke="white" stroke-linecap="round"/>
<path d="M93.3378 7.85353C93.5653 8.76029 93.8933 9.6484 94.1835 10.5355C94.5552 11.6715 94.9287 12.7997 95.3731 13.909C95.843 15.0818 96.2607 16.2753 96.7535 17.4389C97.2287 18.5606 97.6956 19.6844 98.1885 20.7986" stroke="white" stroke-linecap="round"/>
<path d="M79.8298 9.01092C80.4216 11.6514 80.8723 14.3291 81.4116 16.9817C81.6837 18.32 81.981 19.6497 82.2659 20.9851C82.4507 21.8512 82.5686 22.7274 82.7318 23.597C82.8753 24.3619 83.1858 25.1249 83.259 25.8952" stroke="white" stroke-linecap="round"/>
<path d="M79.5208 14.3607C80.1113 18.4601 80.7362 22.5596 81.1723 26.6766" stroke="white" stroke-linecap="round"/>
<path d="M69.7648 10.2503C69.8834 11.1542 70.0889 12.058 70.2496 12.9539C70.4851 14.2675 70.7 15.5843 70.9317 16.8982C71.1857 18.3387 71.4981 19.7891 71.8221 21.2155C72.0589 22.2585 72.3414 23.2912 72.5774 24.335C72.8083 25.3559 72.9273 26.4102 73.2206 27.4149" stroke="white" stroke-linecap="round"/>
<path d="M118.306 -6.79297C118.573 -6.3044 118.968 -5.85311 119.295 -5.41312C120.153 -4.26157 121.002 -3.10358 121.888 -1.97334C122.622 -1.03611 123.356 -0.099906 124.101 0.828441C125.197 2.19244 126.183 3.98345 127.72 4.91234" stroke="white" stroke-linecap="round"/>
<path d="M120.132 6.209C120.238 6.10606 120.337 5.9943 120.435 5.88929C120.812 5.48728 121.275 5.07135 121.565 4.59718C121.666 4.43067 121.578 4.6263 121.437 4.89291C121.478 4.8494 121.521 4.80748 121.564 4.76769C121.672 4.67013 121.416 5.01724 121.332 5.13544C121.297 5.18555 121.259 5.23469 121.22 5.28288C121.148 5.40337 121.08 5.51089 121.026 5.5794C120.655 6.0494 120.187 6.4227 119.639 6.64864C119.505 6.76969 119.339 6.92185 119.597 6.67136C119.6 6.6683 119.603 6.66523 119.606 6.66216C119.555 6.68231 119.504 6.70121 119.453 6.71883C119.343 6.75613 119.233 6.76347 119.123 6.76719C119.036 6.80075 118.947 6.82583 118.858 6.83584C118.85 6.83675 118.838 6.83595 118.825 6.83397C118.78 6.82711 118.725 6.80601 118.798 6.79204C118.866 6.77902 118.933 6.77398 119 6.77118C120.04 6.35638 120.852 5.27516 121.514 4.46526C121.744 4.18369 121.276 4.86439 121.229 4.92131C120.831 5.40951 120.395 5.87557 119.948 6.324C120.01 6.28676 120.071 6.24843 120.132 6.209Z" fill="#333333"/>
<path d="M119.794 6.47029C120.047 6.33005 120.241 6.09655 120.435 5.88929C120.812 5.48728 121.275 5.07135 121.565 4.59718C121.759 4.27852 121.257 5.28618 121.026 5.5794C120.613 6.10195 120.081 6.50496 119.453 6.71883C119.236 6.79241 119.02 6.74941 118.798 6.79204C118.704 6.81005 118.822 6.83989 118.858 6.83584C119.115 6.80707 119.366 6.65376 119.586 6.53247C120.213 6.18769 120.911 5.72881 121.332 5.13544C121.416 5.01724 121.672 4.67013 121.564 4.76769C121.239 5.06342 120.991 5.47712 120.666 5.78722C120.359 6.07944 120.007 6.32108 119.691 6.60272C119.557 6.72171 119.305 6.9554 119.597 6.67136C120.165 6.11719 120.727 5.53684 121.229 4.92131C121.276 4.86439 121.744 4.18369 121.514 4.46526C120.705 5.45557 119.67 6.85155 118.271 6.9388C118.236 6.94098 117.8 6.91422 117.932 6.99146C118.236 7.16968 118.775 6.88364 119.061 6.7945" stroke="white" stroke-linecap="round"/>
<path d="M225.534 3.34619C227.267 3.6655 231.38 5.70911 231.368 5.11128C231.875 4.02324 231.966 2.79527 232.317 1.65937C233.814 -3.18195 234.506 -8.35649 234.828 -13.3956C234.999 -16.0658 234.961 -19.0062 234.424 -21.6396C234.292 -22.2892 234.102 -22.9851 233.369 -23.118C232.289 -23.3137 231.2 -23.2023 230.109 -23.2345C228.522 -23.2814 226.962 -23.5495 225.37 -23.5434C223.744 -23.5372 222.154 -23.2291 220.538 -23.1935C220.064 -23.1831 219.817 -23.2705 219.793 -22.7763C219.728 -21.4344 219.758 -19.9976 219.763 -18.6419C219.767 -17.5533 219.881 -16.4993 219.936 -15.4153C219.962 -14.9184 220.419 -13.0529 219.742 -13.3704C218.162 -14.1113 216.904 -15.7166 215.507 -16.7474C210.201 -20.6613 205.416 -25.4288 201.899 -31.032C200.922 -32.5888 200.227 -34.2342 199.404 -35.8658C199.042 -36.5832 199.081 -36.4236 198.472 -36.2858C196.426 -35.823 194.549 -34.6669 192.903 -33.4102C190.087 -31.2602 187.129 -29.2558 184.623 -26.7307C183.13 -25.2257 181.564 -23.7832 180.156 -22.1927C178.626 -20.4636 177.293 -18.594 175.953 -16.7163L175.914 -16.6611C174.585 -14.7974 173.169 -12.998 171.856 -11.1211C171.164 -10.1307 170.365 -9.08797 169.879 -7.9737C169.665 -7.48083 169.692 -7.42051 170.25 -7.42265C171.004 -7.42553 171.949 -6.98302 172.614 -6.64438C178.127 -3.84007 183.407 -0.474537 187.829 3.91424C190.085 6.15272 192.212 8.4792 193.856 11.2161C194.089 11.6051 195.092 12.9549 194.923 13.4311C194.874 13.5699 194.161 13.6399 194.012 13.6831C193.09 13.9505 192.177 14.2069 191.249 14.5085C190.108 14.8791 189.028 15.5253 187.832 15.7139C187.246 15.8065 186.718 15.8513 186.214 16.1805C185.959 16.3464 186.258 17.1034 186.296 17.3357C186.645 19.4478 187.155 21.5582 187.338 23.6989C187.546 26.1333 187.597 28.653 187.67 31.0915C187.685 31.5927 187.686 32.4549 188.306 32.5301C188.92 32.6045 189.564 32.5199 190.18 32.5736C192.467 32.7727 194.886 32.7155 197.093 32.004C200.047 31.0518 203.174 31.2946 205.998 29.7971C208.355 28.547 210.674 26.8037 213.22 25.976C213.444 25.9034 214.654 25.5625 214.414 25.1888C214.122 24.7336 213.631 24.3647 213.309 23.9177C211.857 21.9002 211.24 19.7019 211.41 17.2171C211.774 11.8872 214.765 5.66655 220.134 3.9432C221.697 3.44183 223.937 3.05215 225.534 3.34619Z" fill="#333333" stroke="white" stroke-linecap="round"/>
<path d="M250.056 18.8056C250.21 18.4755 250.411 17.9997 250.74 17.7985C250.574 17.5938 253.327 17.6575 254.793 17.6386C256.346 17.6186 257.913 17.4605 259.461 17.3453C261.191 17.2167 262.923 17.1829 264.657 17.1558C266.903 17.1207 269.145 16.9922 271.393 16.9988C273.697 17.0055 276.006 17.1403 278.306 17.2654C281.495 17.4388 284.744 17.7109 287.841 18.548C288.816 18.8113 289.786 19.239 290.421 20.0498C290.866 20.6176 291.041 21.2691 291.115 21.9811C291.19 22.7184 291.396 23.4788 291.289 24.2234C291.26 24.4261 291.05 25.0051 291.129 25.1802C291.28 25.511 291.567 25.788 291.772 26.0925C292.112 26.5978 292.469 27.091 292.809 27.5973C293.284 28.3049 293.778 29.0288 294.142 29.8011C294.637 30.8539 295.014 31.9833 295.381 33.0874L295.419 33.1986C295.904 34.6557 296.421 36.0611 296.677 37.5855C296.9 38.9102 296.942 40.2358 296.834 41.5726C296.776 42.3009 296.701 42.9886 296.926 43.6994C297.181 44.5019 297.44 45.3001 297.649 46.1165C298.334 48.7857 298.838 51.5884 298.941 54.3452C298.994 55.7957 298.926 57.199 298.846 58.6462C298.771 59.9938 298.654 61.3954 298.265 62.6925C298.035 63.4619 297.835 64.2428 297.596 65.0089C297.487 65.3579 297.368 65.7344 297.098 65.9953C296.369 66.6988 295.267 66.9787 294.311 67.2009C293.374 67.4186 292.454 67.673 291.5 67.8081C290.734 67.9166 289.958 67.9528 289.189 68.0362C287.317 68.239 285.401 68.241 283.52 68.3324C281.537 68.4287 279.578 68.5874 277.59 68.5545C276.163 68.531 274.73 68.4285 273.307 68.3267L273.137 68.3146C271.947 68.2296 270.873 68.2 269.787 67.657C269.322 67.4246 269.05 66.9794 268.759 66.564C268.751 66.5527 268.401 63.193 268.389 63.279C268.16 64.8492 268.078 66.4565 267.749 68.0095C267.603 68.6946 267.29 68.8979 266.629 69.0373C265.452 69.2858 264.232 69.4068 263.027 69.3454C261.443 69.2647 259.851 69.1779 258.282 68.9425C256.709 68.7066 255.082 68.4495 253.613 67.811C252.073 67.1412 250.626 66.2951 249.141 65.5154C247.848 64.837 246.65 63.9624 245.462 63.119C244.481 62.4233 243.58 61.4865 242.879 60.5094C242.365 59.7937 242.184 58.9674 242.076 58.1071C241.98 57.3384 241.984 56.5446 242.037 55.7729C242.115 54.6515 242.023 53.5144 242.156 52.3961C242.346 50.7984 242.561 49.2205 242.846 47.636C243.051 46.4984 243.179 45.2831 243.551 44.1851C243.898 43.162 244.182 42.1553 244.182 41.0749C244.182 39.9272 244.129 38.7818 244.129 37.6329C244.129 36.3099 244.194 35.0322 244.395 33.7229C244.519 32.9185 244.65 32.0057 245.077 31.2999C245.362 30.828 245.878 30.4985 246.288 30.1417C246.851 29.6516 247.443 29.1839 248.018 28.705C248.519 28.2879 248.982 27.8474 249.517 27.4728C249.848 27.2407 250.154 27.1356 250.154 26.7263C250.154 26.1963 249.865 25.6322 249.792 25.1031C249.694 24.3847 249.545 23.682 249.472 22.9585C249.397 22.2041 249.409 21.388 249.502 20.6362C249.577 20.0307 249.799 19.3563 250.056 18.8056Z" fill="#333333"/>
<path d="M250.74 17.7985C250.411 17.9997 250.21 18.4755 250.056 18.8056C249.799 19.3563 249.577 20.0307 249.502 20.6362C249.409 21.388 249.397 22.2041 249.472 22.9585C249.545 23.682 249.694 24.3847 249.792 25.1031C249.865 25.6322 250.154 26.1963 250.154 26.7263M250.74 17.7985C250.574 17.5938 253.327 17.6575 254.793 17.6386C256.346 17.6186 257.913 17.4605 259.461 17.3453C261.191 17.2167 262.923 17.1829 264.657 17.1558C266.903 17.1207 269.145 16.9922 271.393 16.9988C273.697 17.0055 276.006 17.1403 278.306 17.2654C281.495 17.4388 284.744 17.7109 287.841 18.548C288.816 18.8113 289.786 19.239 290.421 20.0498M250.74 17.7985C250.74 18.9854 251.969 19.9901 252.968 20.3341C254.989 21.0302 257.374 21.0631 259.49 21.1161C262.399 21.189 265.303 21.0283 268.211 20.9562C270.962 20.8879 273.648 21.2436 276.397 21.1161C278.314 21.0272 280.003 20.9171 281.917 20.7813C283.588 20.6627 288.773 20.3659 290.421 20.0498M250.154 26.7263C250.154 27.1356 249.848 27.2407 249.517 27.4728C248.982 27.8474 248.519 28.2879 248.018 28.705C247.443 29.1839 246.851 29.6516 246.288 30.1417C245.878 30.4985 245.362 30.828 245.077 31.2999C244.65 32.0057 244.519 32.9185 244.395 33.7229C244.194 35.0322 244.129 36.3099 244.129 37.6329C244.129 38.7818 244.182 39.9272 244.182 41.0749C244.182 42.1553 243.898 43.162 243.551 44.1851C243.179 45.2831 243.051 46.4984 242.846 47.636C242.561 49.2205 242.346 50.7984 242.156 52.3961C242.023 53.5144 242.115 54.6515 242.037 55.7729C241.984 56.5446 241.98 57.3384 242.076 58.1071C242.184 58.9674 242.365 59.7937 242.879 60.5094C243.58 61.4865 244.481 62.4233 245.462 63.119C246.65 63.9624 247.848 64.837 249.141 65.5154C250.626 66.2951 252.073 67.1412 253.613 67.811C255.082 68.4495 256.709 68.7066 258.282 68.9425C259.851 69.1779 261.443 69.2647 263.027 69.3454C264.232 69.4068 265.452 69.2858 266.629 69.0373C267.29 68.8979 267.603 68.6946 267.749 68.0095C268.078 66.4565 268.16 64.8492 268.389 63.279M250.154 26.7263C251.122 27.0405 255.126 28.0112 256.12 28.2193C258.389 28.6942 260.7 29.0291 263.001 29.3123C265.041 29.5634 267.124 29.5765 269.177 29.6352C271.49 29.7013 273.8 29.846 276.114 29.8899C280.318 29.9697 284.671 29.5064 288.73 28.3881C289.581 28.1537 290.948 27.1561 291.772 26.0925M268.389 63.279C268.585 61.9305 268.778 60.5869 268.868 59.2268C268.942 58.1245 269.188 57.0245 269.188 55.921C269.188 55.7059 269.42 55.6932 269.585 55.6426C269.898 55.5469 270.21 55.3092 270.495 55.1509C270.919 54.9152 271.362 54.7112 271.774 54.4548C272.159 54.2159 272.57 53.9637 272.974 53.7617C273.076 53.7105 273.58 53.3576 273.507 53.575M268.389 63.279C268.401 63.193 268.751 66.5527 268.759 66.564C269.05 66.9794 269.322 67.4246 269.787 67.657C270.873 68.2 271.947 68.2296 273.137 68.3146L273.307 68.3267C274.73 68.4285 276.163 68.531 277.59 68.5545C279.578 68.5874 281.537 68.4287 283.52 68.3324C285.401 68.241 287.317 68.239 289.189 68.0362C289.958 67.9528 290.734 67.9166 291.5 67.8081C292.454 67.6729 293.374 67.4186 294.311 67.2009C295.267 66.9787 296.369 66.6988 297.098 65.9953C297.368 65.7344 297.487 65.3579 297.596 65.0089C297.835 64.2428 298.035 63.4619 298.265 62.6925C298.654 61.3954 298.771 59.9938 298.846 58.6462C298.926 57.199 298.994 55.7957 298.941 54.3452C298.838 51.5884 298.334 48.7857 297.649 46.1165C297.44 45.3001 297.181 44.5019 296.926 43.6994C296.701 42.9886 296.776 42.3009 296.834 41.5726C296.942 40.2358 296.9 38.9102 296.677 37.5855C296.421 36.0611 295.904 34.6557 295.419 33.1986L295.381 33.0874C295.014 31.9833 294.637 30.8539 294.142 29.8011C293.778 29.0288 293.284 28.3049 292.809 27.5973C292.469 27.091 292.112 26.5978 291.772 26.0925M291.772 26.0925C291.567 25.788 291.28 25.511 291.129 25.1802C291.05 25.0051 291.26 24.4261 291.289 24.2234C291.396 23.4788 291.19 22.7184 291.115 21.9811C291.041 21.2691 290.866 20.6176 290.421 20.0498" stroke="white" stroke-linecap="round"/>
<path d="M268.586 26.0996C268.501 26.1094 268.426 26.0835 268.363 26.034C268.324 26.0366 268.287 26.0367 268.253 26.0348C268.03 26.0219 268.055 25.712 268.147 25.5815C268.148 25.5809 268.148 25.5804 268.149 25.5799C268.288 25.3844 268.583 25.3156 268.81 25.3489C269.497 25.4499 269.06 26.0454 268.586 26.0996Z" fill="#333333"/>
<path d="M268.495 24.9985C267.946 24.9985 268.088 26.1566 268.586 26.0996C269.06 26.0454 269.497 25.4499 268.81 25.3489C268.583 25.3155 268.286 25.3848 268.147 25.5815C268.055 25.712 268.03 26.0219 268.253 26.0348C268.43 26.045 268.73 25.9976 268.801 25.8052C268.858 25.6505 268.66 25.7168 268.601 25.7404" stroke="white" stroke-linecap="round"/>
<path d="M268.123 25.0532C268.746 26.6265 268.92 28.4304 268.731 30.1036C268.534 31.8471 267.783 33.3037 267.104 34.8875C265.574 38.4577 265.529 42.8143 267.057 46.3805" stroke="white" stroke-linecap="round"/>
<path d="M274.421 25.6753C274.403 25.6782 274.386 25.6804 274.369 25.6818C274.281 25.809 274.133 25.8705 273.994 25.7312C273.898 25.6354 273.901 25.5017 273.959 25.37C274.075 25.1057 274.417 24.8495 274.642 24.9245C275.073 25.0683 274.736 25.6227 274.421 25.6753Z" fill="#333333"/>
<path d="M274.091 24.6802C273.859 25.0289 273.846 25.771 274.421 25.6753C274.736 25.6227 275.073 25.0683 274.642 24.9245C274.304 24.8121 273.706 25.4432 273.994 25.7312C274.263 26.0004 274.563 25.5198 274.409 25.2631" stroke="white" stroke-linecap="round"/>
<path d="M274.147 25.321C274.125 25.301 274.034 25.2294 274.053 25.3151C274.249 26.2491 274.513 27.158 274.633 28.1113C274.739 28.951 274.747 29.8081 274.787 30.6528C274.837 31.7129 274.823 32.752 274.503 33.7749C274.178 34.8149 273.72 35.8157 273.35 36.8407C272.903 38.0819 272.465 39.3363 272.103 40.6055C271.418 43.0111 271.46 45.431 271.855 47.8746" stroke="white" stroke-linecap="round"/>
<path d="M369.955 -50.3199C370.109 -50.65 370.31 -51.1258 370.639 -51.327C370.473 -51.5316 373.226 -51.468 374.692 -51.4869C376.245 -51.5069 377.812 -51.665 379.36 -51.7801C381.09 -51.9088 382.822 -51.9426 384.556 -51.9697C386.802 -52.0048 389.044 -52.1333 391.292 -52.1267C393.596 -52.12 395.905 -51.9852 398.205 -51.8601C401.394 -51.6867 404.643 -51.4146 407.74 -50.5775C408.715 -50.3142 409.685 -49.8865 410.32 -49.0757C410.765 -48.5079 410.94 -47.8564 411.014 -47.1444C411.089 -46.4071 411.295 -45.6467 411.188 -44.9021C411.159 -44.6994 410.949 -44.1204 411.028 -43.9453C411.179 -43.6145 411.466 -43.3375 411.671 -43.033C412.011 -42.5276 412.368 -42.0345 412.708 -41.5282C413.183 -40.8206 413.677 -40.0967 414.041 -39.3244C414.536 -38.2716 414.913 -37.1422 415.28 -36.0381L415.317 -35.9269C415.803 -34.4698 416.32 -33.0644 416.576 -31.5399C416.799 -30.2152 416.841 -28.8897 416.733 -27.5529C416.675 -26.8246 416.6 -26.1369 416.825 -25.4261C417.08 -24.6236 417.338 -23.8254 417.548 -23.009C418.233 -20.3398 418.737 -17.5371 418.839 -14.7802C418.893 -13.3298 418.825 -11.9265 418.745 -10.4792C418.67 -9.13168 418.553 -7.73007 418.164 -6.43299C417.934 -5.66364 417.734 -4.88265 417.495 -4.1166C417.386 -3.76758 417.267 -3.39105 416.997 -3.13021C416.268 -2.42664 415.166 -2.14683 414.21 -1.92463C413.272 -1.70691 412.353 -1.45254 411.399 -1.31739C410.632 -1.20892 409.857 -1.17264 409.088 -1.08931C407.216 -0.886471 405.3 -0.884514 403.419 -0.793102C401.436 -0.696781 399.477 -0.538082 397.488 -0.570942C396.062 -0.594517 394.629 -0.696991 393.206 -0.798767L393.036 -0.810867C391.846 -0.895908 390.772 -0.925507 389.686 -1.46846C389.221 -1.70087 388.949 -2.14606 388.658 -2.56149C388.65 -2.57283 388.3 -5.93251 388.287 -5.84653C388.058 -4.27627 387.977 -2.66896 387.648 -1.11602C387.502 -0.430866 387.188 -0.227596 386.528 -0.0881577C385.351 0.160347 384.131 0.281292 382.926 0.219906C381.342 0.139183 379.75 0.0524025 378.181 -0.182949C376.608 -0.418873 374.981 -0.675949 373.512 -1.31448C371.972 -1.98431 370.525 -2.83043 369.04 -3.61013C367.747 -4.28852 366.549 -5.16313 365.361 -6.00648C364.38 -6.70223 363.479 -7.63894 362.778 -8.61612C362.264 -9.33176 362.082 -10.1581 361.975 -11.0184C361.879 -11.7871 361.883 -12.5809 361.936 -13.3526C362.014 -14.474 361.922 -15.611 362.055 -16.7294C362.245 -18.3271 362.46 -19.905 362.745 -21.4895C362.95 -22.6271 363.078 -23.8424 363.45 -24.9404C363.797 -25.9634 364.081 -26.9702 364.081 -28.0506C364.081 -29.1983 364.028 -30.3437 364.028 -31.4926C364.028 -32.8156 364.093 -34.0933 364.294 -35.4026C364.418 -36.207 364.549 -37.1198 364.976 -37.8256C365.261 -38.2975 365.777 -38.6269 366.187 -38.9838C366.75 -39.4739 367.342 -39.9416 367.917 -40.4204C368.417 -40.8375 368.881 -41.278 369.416 -41.6527C369.747 -41.8848 370.053 -41.9899 370.053 -42.3991C370.053 -42.9292 369.764 -43.4933 369.691 -44.0224C369.593 -44.7408 369.444 -45.4435 369.371 -46.167C369.296 -46.9214 369.308 -47.7375 369.401 -48.4893C369.476 -49.0948 369.698 -49.7692 369.955 -50.3199Z" fill="#333333"/>
<path d="M370.639 -51.327C370.31 -51.1258 370.109 -50.65 369.955 -50.3199C369.698 -49.7692 369.476 -49.0948 369.401 -48.4893C369.308 -47.7375 369.296 -46.9214 369.371 -46.167C369.444 -45.4435 369.593 -44.7408 369.691 -44.0224C369.764 -43.4933 370.053 -42.9292 370.053 -42.3991M370.639 -51.327C370.473 -51.5316 373.226 -51.468 374.692 -51.4869C376.245 -51.5069 377.812 -51.665 379.36 -51.7801C381.09 -51.9088 382.822 -51.9426 384.556 -51.9697C386.802 -52.0048 389.044 -52.1333 391.292 -52.1267C393.596 -52.12 395.905 -51.9852 398.205 -51.8601C401.394 -51.6867 404.643 -51.4146 407.74 -50.5775C408.715 -50.3142 409.685 -49.8865 410.32 -49.0757M370.639 -51.327C370.639 -50.1401 371.868 -49.1354 372.867 -48.7914C374.888 -48.0953 377.273 -48.0624 379.389 -48.0094C382.298 -47.9365 385.202 -48.0972 388.11 -48.1693C390.861 -48.2376 393.547 -47.8819 396.296 -48.0094C398.213 -48.0983 399.902 -48.2084 401.816 -48.3442C403.487 -48.4628 408.672 -48.7596 410.32 -49.0757M370.053 -42.3991C370.053 -41.9899 369.747 -41.8848 369.416 -41.6527C368.881 -41.278 368.417 -40.8375 367.917 -40.4204C367.342 -39.9416 366.75 -39.4739 366.187 -38.9838C365.777 -38.6269 365.261 -38.2975 364.976 -37.8256C364.549 -37.1198 364.418 -36.207 364.294 -35.4026C364.093 -34.0933 364.028 -32.8156 364.028 -31.4926C364.028 -30.3437 364.081 -29.1983 364.081 -28.0506C364.081 -26.9702 363.797 -25.9634 363.45 -24.9404C363.078 -23.8424 362.95 -22.6271 362.745 -21.4895C362.46 -19.905 362.245 -18.3271 362.055 -16.7294C361.922 -15.611 362.014 -14.474 361.936 -13.3525C361.883 -12.5809 361.879 -11.7871 361.975 -11.0184C362.082 -10.1581 362.264 -9.33176 362.778 -8.61611C363.479 -7.63894 364.38 -6.70223 365.361 -6.00649C366.549 -5.16313 367.747 -4.28852 369.04 -3.61013C370.525 -2.83043 371.972 -1.98431 373.512 -1.31448C374.981 -0.675948 376.608 -0.418873 378.181 -0.182947C379.75 0.0524032 381.342 0.139182 382.926 0.219906C384.131 0.281293 385.351 0.160347 386.528 -0.0881595C387.188 -0.227595 387.502 -0.430866 387.648 -1.11602C387.977 -2.66896 388.058 -4.27627 388.287 -5.84653M370.053 -42.3991C371.021 -42.085 375.025 -41.1143 376.019 -40.9062C378.288 -40.4313 380.599 -40.0964 382.9 -39.8132C384.94 -39.5621 387.023 -39.549 389.076 -39.4903C391.389 -39.4242 393.699 -39.2795 396.013 -39.2356C400.217 -39.1558 404.57 -39.6191 408.629 -40.7374C409.48 -40.9718 410.847 -41.9694 411.671 -43.033M388.287 -5.84653C388.484 -7.19501 388.677 -8.53859 388.767 -9.89872C388.841 -11.001 389.087 -12.101 389.087 -13.2044C389.087 -13.4196 389.319 -13.4323 389.484 -13.4829C389.797 -13.5786 390.109 -13.8163 390.394 -13.9746C390.818 -14.2103 391.261 -14.4143 391.673 -14.6707C392.057 -14.9096 392.469 -15.1618 392.873 -15.3638C392.975 -15.415 393.478 -15.7679 393.406 -15.5504M388.287 -5.84653C388.3 -5.93252 388.65 -2.57283 388.658 -2.56148C388.949 -2.14606 389.221 -1.70087 389.686 -1.46846C390.772 -0.925508 391.846 -0.895909 393.036 -0.810869L393.206 -0.798767C394.629 -0.696991 396.062 -0.594515 397.488 -0.570943C399.477 -0.538081 401.436 -0.696781 403.419 -0.793101C405.3 -0.884512 407.216 -0.88647 409.088 -1.08931C409.857 -1.17264 410.632 -1.20892 411.399 -1.31739C412.353 -1.45254 413.272 -1.70691 414.21 -1.92463C415.166 -2.14683 416.268 -2.42664 416.997 -3.13021C417.267 -3.39105 417.386 -3.76758 417.495 -4.1166C417.734 -4.88265 417.934 -5.66363 418.164 -6.43299C418.553 -7.73007 418.67 -9.13168 418.745 -10.4792C418.825 -11.9265 418.893 -13.3298 418.839 -14.7802C418.737 -17.5371 418.233 -20.3398 417.548 -23.009C417.338 -23.8254 417.08 -24.6236 416.825 -25.4261C416.6 -26.1369 416.675 -26.8246 416.733 -27.5529C416.841 -28.8897 416.799 -30.2152 416.576 -31.5399C416.32 -33.0644 415.803 -34.4698 415.317 -35.9269L415.28 -36.0381C414.913 -37.1422 414.536 -38.2716 414.041 -39.3244C413.677 -40.0967 413.183 -40.8206 412.708 -41.5282C412.368 -42.0345 412.011 -42.5276 411.671 -43.033M411.671 -43.033C411.466 -43.3375 411.179 -43.6145 411.028 -43.9453C410.949 -44.1204 411.159 -44.6994 411.188 -44.9021C411.295 -45.6467 411.089 -46.4071 411.014 -47.1444C410.94 -47.8564 410.765 -48.5079 410.32 -49.0757" stroke="white" stroke-linecap="round"/>
<path d="M83.5852 57.6371C83.6498 57.3538 83.7264 56.9491 83.9492 56.7368C83.7856 56.6051 85.9419 56.1916 87.082 55.9301C88.2891 55.6532 89.4843 55.2662 90.6722 54.9158C91.9993 54.5244 93.3435 54.2067 94.6909 53.8937C96.4361 53.4883 98.1627 53.0108 99.9159 52.6377C101.714 52.2551 103.536 51.9717 105.351 51.6821C107.866 51.2807 110.445 50.946 113 51.0774C113.804 51.1188 114.633 51.2888 115.265 51.8141C115.707 52.1819 115.953 52.6604 116.13 53.2031C116.313 53.7652 116.601 54.3235 116.644 54.9219C116.655 55.0848 116.588 55.5717 116.68 55.6947C116.853 55.9274 117.124 56.0949 117.335 56.2978C117.685 56.6346 118.046 56.959 118.396 57.2965C118.885 57.7684 119.393 58.2494 119.806 58.7904C120.37 59.5278 120.853 60.345 121.326 61.1438L121.326 61.1439L121.373 61.2243C121.997 62.2786 122.637 63.2873 123.093 64.4326C123.49 65.4279 123.746 66.4543 123.886 67.5146C123.963 68.0923 124.021 68.6411 124.316 69.1573C124.649 69.7401 124.985 70.3189 125.286 70.9201C126.269 72.8858 127.134 74.986 127.678 77.1181C127.964 78.2399 128.147 79.3454 128.328 80.4872C128.496 81.5504 128.641 82.6629 128.556 83.7395C128.506 84.3781 128.481 85.0206 128.424 85.6581C128.398 85.9485 128.369 86.262 128.202 86.5108C127.752 87.182 126.94 87.5856 126.232 87.9198C125.538 88.2473 124.864 88.6003 124.142 88.8663C123.563 89.0798 122.965 89.2386 122.379 89.433C120.954 89.9062 119.461 90.2301 118.009 90.618C116.48 91.0268 114.979 91.4802 113.423 91.7892C112.307 92.0108 111.173 92.1721 110.046 92.3323L110.046 92.3323L109.912 92.3514C108.969 92.4854 108.127 92.643 107.189 92.4025C106.788 92.2995 106.501 91.9982 106.204 91.7233C106.196 91.7158 105.357 89.1555 105.362 89.2246C105.448 90.4874 105.655 91.7542 105.659 93.0203C105.661 93.5789 105.451 93.7902 104.959 94.0101C104.083 94.4019 103.153 94.7016 102.203 94.8564C100.955 95.06 99.6986 95.2604 98.4357 95.3409C97.1698 95.4217 95.8582 95.495 94.6058 95.2444C93.2919 94.9814 92.0214 94.5653 90.7323 94.2073C89.6107 93.8959 88.5292 93.4157 87.4608 92.9582C86.5794 92.5808 85.7189 92.0022 85.0079 91.3583C84.4872 90.8868 84.2064 90.2732 83.9778 89.6205C83.7735 89.0374 83.6433 88.4178 83.555 87.8073C83.4265 86.9199 83.1636 86.0489 83.0791 85.1547C82.9583 83.8771 82.8606 82.6106 82.8161 81.3274C82.7841 80.406 82.6796 79.437 82.785 78.5183C82.8832 77.6624 82.9352 76.8296 82.7534 75.9873C82.5603 75.0926 82.326 74.2085 82.1326 73.3128C81.91 72.2814 81.7458 71.2743 81.6825 70.2196C81.6436 69.5717 81.5919 68.838 81.8058 68.2159C81.9489 67.8 82.2961 67.4563 82.5555 67.1091C82.9117 66.6323 83.295 66.1679 83.6624 65.6979C83.9824 65.2885 84.2693 64.8672 84.6235 64.485C84.8429 64.2483 85.0633 64.1149 84.9944 63.7959C84.9052 63.3827 84.585 62.9914 84.4395 62.5912C84.2419 62.0477 84.0073 61.5249 83.8292 60.973C83.6434 60.3976 83.5156 59.7592 83.4615 59.1575C83.4178 58.6729 83.4776 58.1097 83.5852 57.6371Z" fill="#333333"/>
<path d="M83.9492 56.7368C83.7264 56.9491 83.6498 57.3538 83.5852 57.6371C83.4776 58.1097 83.4178 58.6729 83.4615 59.1575C83.5156 59.7592 83.6434 60.3976 83.8292 60.973C84.0073 61.5249 84.2419 62.0477 84.4395 62.5912C84.585 62.9914 84.9052 63.3827 84.9944 63.7959M83.9492 56.7368C83.7856 56.6051 85.9419 56.1916 87.082 55.9301C88.2891 55.6532 89.4843 55.2662 90.6722 54.9158C91.9993 54.5244 93.3435 54.2067 94.6909 53.8937C96.4361 53.4883 98.1627 53.0108 99.9159 52.6377C101.714 52.2551 103.536 51.9717 105.351 51.6821C107.866 51.2807 110.445 50.946 113 51.0774C113.804 51.1188 114.633 51.2888 115.265 51.8141M83.9492 56.7368C84.1489 57.6621 85.2758 58.2387 86.1127 58.3387C87.8059 58.5412 89.6704 58.1656 91.3295 57.8507C93.6094 57.4181 95.8466 56.804 98.1013 56.2585C100.234 55.7423 102.389 55.5676 104.51 55.0056C105.99 54.6136 107.288 54.2435 108.758 53.8155C110.04 53.442 114.033 52.338 115.265 51.8141M84.9944 63.7959C85.0633 64.1149 84.8429 64.2483 84.6235 64.485C84.2693 64.8672 83.9824 65.2885 83.6624 65.6979C83.295 66.1679 82.9117 66.6323 82.5555 67.1091C82.2961 67.4563 81.9489 67.8 81.8058 68.2159C81.5919 68.838 81.6436 69.5717 81.6825 70.2196C81.7458 71.2743 81.91 72.2814 82.1326 73.3128C82.326 74.2085 82.5603 75.0926 82.7534 75.9873C82.9352 76.8296 82.8832 77.6624 82.785 78.5183C82.6796 79.437 82.7841 80.406 82.8161 81.3274C82.8606 82.6106 82.9583 83.8771 83.0791 85.1547C83.1636 86.0489 83.4265 86.9199 83.555 87.8073C83.6433 88.4178 83.7735 89.0374 83.9778 89.6205C84.2064 90.2732 84.4872 90.8868 85.0079 91.3583C85.7189 92.0022 86.5794 92.5808 87.4608 92.9582C88.5292 93.4157 89.6107 93.8959 90.7323 94.2073C92.0214 94.5653 93.2919 94.9814 94.6058 95.2444C95.8582 95.495 97.1698 95.4217 98.4357 95.3409C99.6986 95.2604 100.955 95.06 102.203 94.8564C103.153 94.7016 104.083 94.4019 104.959 94.0101C105.451 93.7902 105.661 93.5789 105.659 93.0203C105.655 91.7542 105.448 90.4874 105.362 89.2246M84.9944 63.7959C85.8019 63.8779 89.0869 63.9609 89.8971 63.9558C91.7461 63.9442 93.6042 63.8164 95.4457 63.6499C97.0782 63.5024 98.7048 63.162 100.315 62.8623C102.129 62.5246 103.955 62.2486 105.766 61.8934C109.057 61.2482 112.373 60.1544 115.349 58.5995C115.973 58.2735 116.871 57.2657 117.335 56.2978M105.362 89.2246C105.289 88.1402 105.213 87.0603 105.054 85.9846C104.926 85.1129 104.933 84.2138 104.747 83.3536C104.711 83.1858 104.89 83.137 105.01 83.0697C105.238 82.9424 105.441 82.7047 105.636 82.5333C105.927 82.2782 106.238 82.0445 106.517 81.7753C106.776 81.5244 107.054 81.2585 107.335 81.033C107.406 80.9759 107.74 80.6161 107.72 80.7978M105.362 89.2246C105.357 89.1555 106.196 91.7158 106.204 91.7233C106.501 91.9982 106.788 92.2995 107.189 92.4025C108.127 92.643 108.969 92.4854 109.912 92.3513L110.046 92.3323C111.173 92.1721 112.307 92.0108 113.423 91.7892C114.979 91.4802 116.48 91.0268 118.009 90.618C119.461 90.2301 120.954 89.9062 122.379 89.433C122.965 89.2386 123.563 89.0798 124.142 88.8663C124.864 88.6003 125.538 88.2473 126.232 87.9198C126.94 87.5856 127.752 87.182 128.202 86.5108C128.369 86.262 128.398 85.9485 128.424 85.6581C128.481 85.0206 128.506 84.3781 128.556 83.7395C128.641 82.6629 128.496 81.5504 128.328 80.4872C128.147 79.3454 127.964 78.2399 127.678 77.1181C127.134 74.986 126.269 72.8858 125.286 70.9201C124.985 70.3189 124.649 69.7401 124.316 69.1573C124.021 68.6411 123.963 68.0923 123.886 67.5146C123.746 66.4543 123.49 65.4279 123.093 64.4326C122.637 63.2873 121.997 62.2786 121.373 61.2243L121.326 61.1439C120.853 60.345 120.37 59.5278 119.806 58.7904C119.393 58.2494 118.885 57.7684 118.396 57.2965C118.046 56.959 117.685 56.6346 117.335 56.2978M117.335 56.2978C117.124 56.0949 116.853 55.9274 116.68 55.6947C116.588 55.5717 116.655 55.0848 116.644 54.9219C116.601 54.3235 116.313 53.7652 116.13 53.2031C115.953 52.6604 115.707 52.1819 115.265 51.8141" stroke="white" stroke-linecap="round"/>
<path d="M99.2595 60.2073C99.1946 60.2293 99.1319 60.2218 99.0746 60.1937C99.0444 60.2024 99.0154 60.2088 98.9893 60.2128C98.8127 60.2404 98.7805 59.9945 98.8303 59.8772C98.8305 59.8767 98.8307 59.8763 98.8309 59.8758C98.9066 59.7 99.1254 59.5966 99.3076 59.5844C99.8602 59.5476 99.6201 60.0853 99.2595 60.2073Z" fill="#333333"/>
<path d="M99.0031 59.3643C98.5748 59.4567 98.8805 60.3357 99.2595 60.2073C99.6201 60.0853 99.8602 59.5476 99.3076 59.5844C99.1249 59.5966 98.9055 59.7005 98.8303 59.8772C98.7805 59.9945 98.8127 60.2404 98.9893 60.2128C99.1288 60.191 99.3544 60.1036 99.3775 59.9417C99.3962 59.8114 99.2527 59.8965 99.2106 59.9248" stroke="white" stroke-linecap="round"/>
<path d="M98.7239 59.4689C99.4742 60.5906 99.9132 61.9678 100.047 63.3041C100.187 64.6965 99.8471 65.9584 99.5844 67.3074C98.9924 70.3483 99.6899 73.7525 101.482 76.2757" stroke="white" stroke-linecap="round"/>
<path d="M103.738 58.8904C103.725 58.8957 103.712 58.9002 103.699 58.9041C103.652 59.0183 103.547 59.091 103.415 59.0058C103.324 58.9473 103.303 58.8426 103.326 58.7302C103.373 58.5045 103.596 58.2473 103.784 58.2679C104.145 58.3074 103.975 58.7963 103.738 58.8904Z" fill="#333333"/>
<path d="M103.314 58.1701C103.191 58.4811 103.306 59.0618 103.738 58.8904C103.975 58.7963 104.145 58.3074 103.784 58.2679C103.502 58.237 103.142 58.8298 103.415 59.0058C103.67 59.1704 103.823 58.7452 103.66 58.571" stroke="white" stroke-linecap="round"/>
<path d="M103.465 58.6616C103.444 58.6498 103.361 58.6092 103.39 58.6729C103.7 59.368 104.059 60.0322 104.313 60.7553C104.537 61.3922 104.688 62.059 104.861 62.7108C105.078 63.5288 105.242 64.3414 105.165 65.1927C105.086 66.0582 104.898 66.9155 104.782 67.7768C104.642 68.8198 104.512 69.8714 104.444 70.9218C104.314 72.9127 104.754 74.7921 105.473 76.6308" stroke="white" stroke-linecap="round"/>
<path d="M366.006 115.97C365.243 116.979 364.431 118.383 363.657 119.382C363.574 119.879 363.002 120.516 362.489 120.577C362.031 120.632 361.551 120.574 361.09 120.593C360.539 120.615 360.011 120.612 359.47 120.487C358.883 120.351 358.604 119.676 358.322 119.197C358.259 119.09 358.084 118.823 358.226 118.71C358.409 118.563 358.583 118.258 358.702 118.059C359.07 117.437 359.512 116.807 359.958 116.239C360.315 115.783 360.743 115.384 361.129 114.954C361.666 114.356 362.151 113.711 362.66 113.09C363.228 112.398 363.84 111.785 364.488 111.17C365.236 110.46 365.927 109.69 366.66 108.964C367.407 108.226 368.271 107.641 369.082 106.979C369.876 106.331 370.68 105.665 371.566 105.143C372.398 104.654 373.254 104.212 374.141 103.83C374.832 103.533 375.618 103.227 376.37 103.142C377.105 103.059 378.457 102.89 378.898 103.708C379.109 104.1 378.271 104.419 378.015 104.56C376.954 105.142 375.808 105.532 374.733 106.081C374.093 106.408 373.491 106.861 372.926 107.302C372.241 107.837 371.521 108.393 370.923 109.027C370.363 109.622 369.953 110.349 369.471 111.005C368.968 111.688 368.455 112.371 367.969 113.067C367.298 114.027 366.712 115.034 366.006 115.97Z" fill="#333333" stroke="white" stroke-linecap="round"/>
<path d="M402.135 119.07C402.42 119.697 402.539 120.369 402.788 121.012C403.596 121.214 404.392 121.408 405.223 121.486C405.734 121.533 406.252 121.473 406.76 121.419C407.564 121.334 408.431 121.221 409.027 120.611C409.683 119.938 409.182 118.895 408.834 118.217C408.059 116.706 406.876 115.588 405.752 114.345C405.12 113.647 404.441 112.989 403.824 112.279C403.249 111.617 402.675 110.953 402.078 110.311C400.902 109.045 399.523 107.988 398.247 106.828C397.628 106.265 396.949 105.792 396.29 105.279C395.695 104.817 395.088 104.387 394.428 104.02C393.354 103.421 392.083 102.764 390.825 103.082C390.155 103.251 389.421 103.813 389.489 104.582C389.541 105.173 389.912 105.453 390.44 105.621C391.154 105.849 391.899 105.892 392.585 106.229C393.437 106.648 394.173 107.296 394.8 108C396.593 110.013 398.329 112.118 399.765 114.408C400.402 115.424 400.96 116.498 401.477 117.58C401.711 118.07 401.911 118.575 402.135 119.07Z" fill="#333333" stroke="white" stroke-linecap="round"/>
<path d="M384.932 122.263C384.198 122.332 382.036 122.212 381.298 122.212C380.356 122.105 379.408 122.057 378.465 121.962C377.337 121.849 376.226 121.664 375.104 121.504C372.643 121.155 370.202 120.681 367.761 120.223C365.433 119.786 363.075 119.256 360.7 119.177C359.683 119.143 358.666 119.134 357.648 119.134C356.893 119.134 356.131 119.135 355.393 119.313C354.572 119.51 353.506 119.706 353.204 120.612C352.823 121.755 353.042 122.973 353.361 124.099C353.737 125.426 354.213 126.726 354.76 127.991C355.428 129.534 356.067 131.074 357.162 132.376C358.163 133.564 359.626 134.485 361.011 135.157C362.965 136.106 364.917 136.893 367.01 137.461C368.721 137.925 370.589 138.108 372.36 138.054C373.879 138.008 375.484 137.808 376.865 137.142C378.128 136.534 379.011 135.275 379.645 134.064C380.272 132.866 380.821 131.587 381.339 130.338C381.699 129.468 381.988 128.435 383.08 128.341C383.974 128.263 384.644 128.933 385.091 129.64C385.749 130.679 385.782 131.89 386.07 133.054C386.368 134.26 387.204 135.418 388.132 136.234C389.239 137.209 390.705 137.431 392.106 137.644L392.169 137.653C393.682 137.883 395.186 138.043 396.72 137.991C398.467 137.933 400.196 137.488 401.826 136.877C403.589 136.216 405.143 135.21 406.75 134.249C408.331 133.303 409.68 131.808 410.874 130.428C411.573 129.619 412.108 128.695 412.678 127.796C413.183 126.999 413.637 126.135 413.822 125.202C414.065 123.977 413.956 122.654 413.165 121.644C411.513 119.534 408.645 119.552 406.215 119.7C403.82 119.846 401.476 120.208 399.112 120.602C396.789 120.989 394.457 121.315 392.128 121.662C391.108 121.813 390.076 121.893 389.052 122.019C388.3 122.112 387.552 122.184 386.795 122.22C386.177 122.249 385.548 122.205 384.932 122.263Z" fill="#333333" stroke="white" stroke-linecap="round"/>
<path d="M392.588 124.65C391.047 125.031 389.526 125.545 388.105 126.284C387.746 127.002 387.727 127.573 387.857 128.344C387.975 129.04 388.203 129.757 388.39 130.439C388.603 131.216 388.976 131.939 389.552 132.511C390.224 133.178 391.166 133.511 392.048 133.784C392.924 134.057 393.814 134.391 394.729 134.492C395.657 134.595 396.635 134.627 397.561 134.492C399.574 134.199 401.618 133.691 403.334 132.546C404.951 131.468 406.316 129.919 407.167 128.175C407.77 126.939 408.209 125.011 406.75 124.212C406.242 123.934 405.637 123.828 405.068 123.764C404.371 123.685 403.685 123.637 402.984 123.628C401.186 123.606 399.412 123.579 397.618 123.756C395.915 123.925 394.25 124.24 392.588 124.65Z" fill="#333333" stroke="white" stroke-linecap="round"/>
<path d="M375.738 124.65C377.279 125.031 378.8 125.545 380.221 126.284C380.58 127.002 380.6 127.573 380.469 128.344C380.351 129.04 380.123 129.757 379.936 130.439C379.723 131.216 379.351 131.939 378.775 132.511C378.102 133.178 377.16 133.511 376.278 133.784C375.402 134.057 374.513 134.391 373.597 134.492C372.669 134.595 371.691 134.627 370.765 134.492C368.752 134.199 366.709 133.691 364.992 132.546C363.375 131.468 362.01 129.919 361.159 128.175C360.556 126.939 360.117 125.011 361.576 124.212C362.084 123.934 362.69 123.828 363.258 123.764C363.955 123.685 364.641 123.637 365.342 123.628C367.14 123.606 368.915 123.579 370.708 123.756C372.412 123.925 374.076 124.24 375.738 124.65Z" fill="#333333" stroke="white" stroke-linecap="round"/>
<path d="M7.33909 71.6602C7.51141 72.9131 7.92752 74.4807 8.08451 75.7351C8.37663 76.1455 8.42149 77 8.10131 77.4058C7.81532 77.7683 7.43457 78.066 7.12124 78.4049C6.74729 78.8094 6.37049 79.1801 5.89924 79.4732C5.38792 79.7912 4.71357 79.5112 4.17596 79.3704C4.05587 79.3389 3.74328 79.2736 3.76361 79.0931C3.78988 78.86 3.69821 78.521 3.64118 78.2965C3.46313 77.5959 3.33168 76.8375 3.24576 76.1208C3.17684 75.5458 3.19812 74.9609 3.16792 74.3833C3.12596 73.5809 3.01463 72.782 2.93686 71.9826C2.8502 71.0919 2.85118 70.2257 2.87576 69.332C2.90411 68.3013 2.84979 67.2679 2.85707 66.2368C2.86449 65.1864 3.0635 64.1621 3.17058 63.1212C3.27552 62.1012 3.37514 61.062 3.63411 60.067C3.87716 59.1332 4.17195 58.2152 4.53079 57.3193C4.81048 56.621 5.15076 55.8499 5.62373 55.2584C6.08543 54.6811 6.92403 53.6064 7.81359 53.8748C8.23981 54.0034 7.87167 54.8203 7.7894 55.1007C7.44858 56.2623 6.91264 57.3473 6.53867 58.4955C6.31611 59.1788 6.20977 59.9244 6.12107 60.6352C6.01344 61.4979 5.89653 62.4008 5.9209 63.2715C5.94375 64.0879 6.16726 64.8927 6.28813 65.6974C6.41422 66.537 6.53345 67.3819 6.68022 68.2179C6.88279 69.3716 7.17931 70.4987 7.33909 71.6602Z" fill="#333333" stroke="white" stroke-linecap="round"/>
<path d="M35.1102 48.3467C35.7544 48.59 36.3129 48.982 36.9434 49.2613C37.6584 48.8339 38.359 48.409 39.0026 47.8775C39.398 47.551 39.7222 47.1418 40.044 46.7451C40.5532 46.1173 41.0879 45.4253 41.0787 44.573C41.0686 43.6324 39.9772 43.2482 39.2522 43.0134C37.6368 42.4904 36.0096 42.5334 34.3357 42.4468C33.3957 42.3982 32.4496 42.4122 31.5116 42.345C30.6375 42.2824 29.7624 42.2174 28.8864 42.1838C27.1589 42.1176 25.4368 42.3423 23.7144 42.4216C22.8785 42.46 22.0632 42.6044 21.2344 42.7067C20.4862 42.799 19.7531 42.9233 19.0266 43.1285C17.8434 43.4626 16.4791 43.8952 15.813 45.008C15.4578 45.6015 15.3343 46.5178 15.9252 47.0138C16.3797 47.3953 16.8401 47.3323 17.333 47.0786C17.9988 46.7358 18.5567 46.2401 19.2805 45.9948C20.18 45.69 21.1594 45.6291 22.0997 45.6852C24.791 45.8456 27.5067 46.1103 30.1398 46.7182C31.3088 46.988 32.4623 47.3546 33.592 47.7563C34.1039 47.9384 34.6022 48.1548 35.1102 48.3467Z" fill="#333333" stroke="white" stroke-linecap="round"/>
<path d="M25.1844 62.7539C24.7131 63.3207 23.0972 64.7622 22.5743 65.2834C21.8316 65.8724 21.127 66.5077 20.3921 67.1062C19.5127 67.8225 18.5955 68.4756 17.6883 69.1548C15.6986 70.6445 13.6355 72.0324 11.5828 73.4314C9.62541 74.7654 7.58121 76.0548 5.84418 77.6752C5.09949 78.3699 4.37294 79.0807 3.65175 79.7996C3.11736 80.3323 2.57833 80.8712 2.18131 81.518C1.73952 82.2377 1.12205 83.1291 1.54776 83.984C2.08475 85.0622 3.09972 85.7703 4.12082 86.3425C5.32417 87.0169 6.57904 87.6014 7.85953 88.1108C9.42178 88.7323 10.9621 89.3724 12.6565 89.5209C14.2038 89.6564 15.8902 89.2752 17.3457 88.7736C19.3996 88.0658 21.3375 87.2454 23.2207 86.17C24.76 85.291 26.2126 84.1016 27.429 82.8133C28.4724 81.7082 29.4677 80.433 29.9758 78.9868C30.4406 77.6639 30.1767 76.1497 29.7711 74.8447C29.3697 73.5529 28.8554 72.2595 28.3401 71.0092C27.9815 70.1388 27.4567 69.2037 28.1636 68.3654C28.7415 67.6801 29.6893 67.6815 30.505 67.866C31.7044 68.1372 32.5834 68.972 33.6086 69.593C34.671 70.2364 36.0805 70.4665 37.3141 70.3897C38.7864 70.2981 39.9816 69.4207 41.1238 68.5823L41.1753 68.5445C42.4091 67.6392 43.5871 66.6906 44.6367 65.5716C45.833 64.2962 46.7436 62.7609 47.4665 61.1771C48.2485 59.464 48.639 57.6548 49.0984 55.8399C49.5505 54.0537 49.4501 52.0429 49.3214 50.2224C49.246 49.1559 48.9721 48.1242 48.7412 47.0845C48.5367 46.1633 48.2476 45.2309 47.7197 44.4393C47.027 43.4006 46.0162 42.5399 44.7431 42.3832C42.0837 42.0558 40.0648 44.0927 38.4484 45.9131C36.8553 47.7071 35.4505 49.6189 34.0543 51.5671C32.6825 53.4811 31.261 55.3575 29.8562 57.2477C29.2408 58.0757 28.5665 58.8608 27.9301 59.6727C27.4627 60.269 26.9838 60.848 26.4735 61.4077C26.0565 61.8653 25.5798 62.2783 25.1844 62.7539Z" fill="#333333" stroke="white" stroke-linecap="round"/>
<path d="M32.2904 59.0417C31.4677 60.3993 30.7531 61.8368 30.2682 63.3637C30.521 64.1261 30.9102 64.5437 31.5471 64.9975C32.1218 65.407 32.79 65.7544 33.4035 66.1054C34.1032 66.5056 34.8775 66.7545 35.6888 66.7525C36.6362 66.7503 37.538 66.3208 38.356 65.8923C39.1686 65.4666 40.0347 65.0753 40.7543 64.5007C41.4841 63.918 42.2 63.2503 42.7603 62.5011C43.9788 60.872 45.0673 59.0698 45.4751 57.0474C45.8592 55.1427 45.7324 53.0817 45.1035 51.2455C44.6579 49.9444 43.6079 48.2686 42.0109 48.7332C41.4544 48.8951 40.9513 49.2476 40.5029 49.6037C39.9536 50.0398 39.4342 50.4895 38.9315 50.9785C37.6426 52.2324 36.3663 53.4656 35.2214 54.8573C34.1337 56.1793 33.1773 57.5781 32.2904 59.0417Z" fill="#333333" stroke="white" stroke-linecap="round"/>
<path d="M20.3552 70.9357C21.7154 70.1174 23.1552 69.4073 24.6836 68.9273C25.4452 69.1825 25.8615 69.573 26.3133 70.2114C26.721 70.7874 27.0663 71.4567 27.4153 72.0714C27.8132 72.7723 28.0597 73.5474 28.0551 74.3587C28.0499 75.306 27.6175 76.2065 27.1864 77.0231C26.7581 77.8344 26.364 78.6992 25.7871 79.417C25.2022 80.1449 24.5321 80.8587 23.7812 81.4166C22.1482 82.6299 20.3425 83.7126 18.3188 84.114C16.4129 84.492 14.3524 84.3587 12.5181 83.7239C11.2185 83.2742 9.54601 82.2188 10.0158 80.6233C10.1794 80.0674 10.5335 79.5653 10.891 79.1181C11.3289 78.5702 11.7803 78.0522 12.2709 77.5511C13.5289 76.2661 14.7661 74.9938 16.1614 73.8533C17.4869 72.7699 18.8887 71.8179 20.3552 70.9357Z" fill="#333333" stroke="white" stroke-linecap="round"/>
<path d="M320.557 20.5944C321.448 19.9673 322.115 19.1387 322.858 18.3528C323.642 18.003 325.51 18.3638 326.277 18.6208C327.824 19.1387 329.202 19.8767 330.585 20.7348C334.339 23.0654 337.675 26.0466 340.637 29.3159C342.393 31.2531 344.128 33.237 345.721 35.3104C347.527 37.6608 349.265 40.0602 351.098 42.3912C352.992 44.7996 355.056 47.0566 357.05 49.3804C358.669 51.2671 360.268 53.1577 361.994 54.9501C363.861 56.8899 365.782 58.7932 367.755 60.6252C369.233 61.9973 370.732 63.3458 372.185 64.7446C373.092 65.6178 374.143 66.5743 374.706 67.7252C374.962 68.2479 375.045 68.8804 374.734 69.3996C374.412 69.9357 373.789 70.295 373.273 70.6125C372.582 71.0371 371.87 71.4285 371.169 71.8352C369.763 72.6508 368.118 73.2465 366.465 73.1145C365.272 73.0192 364.157 72.4888 363.196 71.7966C361.77 70.7702 360.553 69.4586 359.334 68.2035C357.989 66.8194 356.719 65.3781 355.467 63.9106C354.037 62.2344 352.554 60.6097 351.069 58.9831L350.936 58.838C347.621 55.2064 344.306 51.5776 340.923 48.008C337.649 44.5534 334.137 41.3316 330.789 37.9496C327.904 35.0356 325.164 31.9782 322.347 28.9995C321.29 27.8818 320.213 26.7797 319.174 25.6452C318.604 25.0236 317.902 24.3464 317.629 23.525C317.498 23.1306 317.569 22.7152 317.804 22.3739C317.998 22.0922 318.242 21.9674 318.544 21.8171C319.247 21.4676 319.915 21.0457 320.557 20.5944Z" fill="#333333" stroke="white" stroke-linecap="round"/>
<path d="M345.405 1.19034C345.811 1.11381 347.005 0.856857 346.816 1.14267C346.711 1.30102 346.609 1.22514 346.573 1.40819C346.48 1.87675 346.37 2.34682 346.31 2.82055C346.215 3.57638 346.153 4.33319 346.082 5.09136C346.003 5.92788 345.913 6.79932 345.974 7.6391C346.05 8.68544 346.365 9.72285 346.609 10.7391C346.864 11.8033 347.176 12.8075 347.683 13.7809C348.489 15.3303 349.619 16.564 350.967 17.6545C351.373 17.9829 351.807 18.4422 352.328 18.5803C352.91 18.7347 353.529 18.5933 354.077 18.3814C355.839 17.6989 357.379 16.5572 358.978 15.5687C359.908 14.9937 360.867 14.4336 361.858 13.9693C362.566 13.6372 363.409 13.247 364.208 13.4556C365.861 13.8866 365.672 15.9573 365.235 17.2171C364.943 18.058 364.671 18.9052 364.407 19.7556C364.061 20.8749 363.935 22.0137 363.762 23.1682C363.526 24.7395 363.549 26.3024 363.495 27.8834C363.445 29.3311 363.541 30.7541 363.705 32.1918C363.884 33.7653 364.072 35.3006 364.461 36.8391C364.819 38.2527 365.351 39.6277 365.863 40.9911C367.182 44.5024 369.134 47.6855 370.832 51.0133C371.747 52.8065 372.712 54.5756 373.615 56.3741C374.029 57.1966 374.411 58.0341 374.864 58.8357C375.274 59.5591 375.673 60.2837 376.047 61.0266C376.396 61.7229 376.814 62.3995 377.115 63.118C377.362 63.7087 377.543 64.3405 377.689 64.9634C377.891 65.8263 377.969 66.7212 377.672 67.5715C377.172 68.9983 375.38 69.3191 374.056 69.3015C373.062 69.2882 372.075 69.2715 371.106 69.0172C369.809 68.6773 368.536 68.0293 367.403 67.3247C364.302 65.3961 361.417 63.2233 359.031 60.4354C357.977 59.2044 357.105 57.8947 356.241 56.5284C355.398 55.1951 354.508 53.9032 353.57 52.6344C352.507 51.1971 351.38 49.8075 350.311 48.3748C349.351 47.0881 348.4 45.7869 347.408 44.5244L347.399 44.5125C346.533 43.4106 345.671 42.3125 344.681 41.317C343.751 40.3807 342.795 39.4778 341.81 38.5993C339.805 36.8111 337.863 34.9522 335.892 33.1273C334.89 32.1994 333.818 31.3601 332.791 30.4612C331.784 29.5791 330.789 28.691 329.817 27.7691C328.266 26.296 326.72 24.8198 325.386 23.1431C324.577 22.1257 323.578 21.0691 323.067 19.8565C322.723 19.0397 323.063 18.1897 323.504 17.4898C323.946 16.7905 324.388 16.0967 324.841 15.4054C325.392 14.5654 325.959 13.7446 326.605 12.9749C326.989 12.5181 327.402 12.0848 327.795 11.636C328.221 11.1508 328.634 10.6395 329.101 10.1933C330.293 9.05412 331.626 8.03534 332.977 7.0929C334.393 6.10546 335.852 5.14741 337.382 4.34512C338.694 3.65769 340.027 2.97209 341.412 2.44438C342.214 2.1388 343.018 1.84724 343.843 1.61005C344.363 1.4607 344.873 1.29086 345.405 1.19034Z" fill="#333333" stroke="white" stroke-linecap="round"/>
<path d="M333.555 7.10635C335.024 8.55735 336.18 10.2927 337.179 12.0893C338.111 13.7661 338.985 15.5342 339.293 17.4445C339.554 19.0577 339.715 20.7946 339.482 22.4186C339.305 23.6562 338.965 24.9038 338.615 26.1023C338.353 26.9963 338.018 27.877 337.641 28.7289C337.455 29.15 337.259 29.5552 336.967 29.9145C336.686 30.2609 336.321 30.5282 336.018 30.8545C335.787 31.1022 335.371 31.4574 335.307 31.7971" stroke="white" stroke-linecap="round"/>
<path d="M363.714 35.2867C363.508 35.3625 363.338 35.3719 363.098 35.4014C361.138 35.6425 359.172 35.8287 357.209 36.0409" stroke="white" stroke-linecap="round"/>
<path d="M366.438 44.2418C366.309 44.326 366.136 44.3082 365.985 44.34C364.624 44.6258 363.267 44.9294 361.907 45.2242" stroke="white" stroke-linecap="round"/>
<path d="M179.151 74.7654C178.463 75.1883 177.904 75.7897 177.336 76.3572C176.709 77.1933 176.681 77.9767 176.143 78.8693C175.836 79.38 175.614 79.7806 175.073 80.0761C174.46 80.4104 173.816 80.3942 173.143 80.3203C171.431 80.1324 169.895 79.2708 168.297 78.6956C166.591 78.0814 165.308 76.6722 164.447 75.1223C164.131 74.5532 163.732 74.0501 163.54 73.4201C163.462 73.1628 163.674 72.8023 163.78 72.5773C164.054 71.9974 164.335 71.4211 164.552 70.8164C164.892 69.8717 165.018 68.8364 165.09 67.8394C165.158 66.8983 165.229 65.933 165.421 65.008C165.62 64.0481 165.9 63.1203 166.212 62.1907C166.527 61.2527 166.829 60.3165 167.154 59.3827C167.612 58.066 168.362 56.8176 169.189 55.7014C170.016 54.5855 170.976 53.4962 172.039 52.6023C173.263 51.5738 174.657 50.8651 176.153 50.325C177.339 49.8966 178.772 49.9652 180.01 50.0949C181.286 50.2286 182.698 50.5843 183.783 51.2876C184.712 51.8895 185.309 52.8584 185.746 53.8537C186.275 55.0602 186.36 56.2855 186.211 57.5843C185.911 60.1965 184.247 62.5618 182.553 64.4868C182.202 64.8849 181.796 65.239 181.421 65.6137C181.278 65.7567 181.346 65.7323 181.485 65.6583C182.389 65.1761 183.345 65.0386 184.375 65.0315C185.235 65.0255 186.083 65.0926 186.934 65.2193C187.548 65.3107 187.97 65.6882 188.23 66.2336C188.863 67.5651 188.099 68.8622 187.206 69.8398C186.651 70.4475 186.056 70.9414 185.372 71.401C185.129 71.5645 184.884 71.7241 184.624 71.8588C182.795 72.8051 180.906 73.6859 179.151 74.7654Z" fill="#333333" stroke="white" stroke-linecap="round"/>
<path d="M163.518 72.9766C163.412 73.0615 163.161 73.0327 163.039 73.0564C162.546 73.1516 162.057 73.2942 161.593 73.4884C161.244 73.6342 160.789 73.8317 160.654 74.2115C160.528 74.5633 160.327 74.6712 160.031 74.8994C159.669 75.1789 159.394 75.2773 159.63 75.7235C159.831 76.1042 159.275 76.3903 159.109 76.6931C159.04 76.8182 159.111 76.9692 159.12 77.0993C159.141 77.403 159.034 77.6967 159.005 77.9961C158.947 78.6041 159.381 79.2387 159.698 79.7194C160.226 80.52 160.992 81.2084 161.679 81.87C163.274 83.4044 165.092 84.7057 167.147 85.5442C167.659 85.753 168.197 85.881 168.737 85.9927C169.316 86.1125 169.868 86.283 170.463 86.3214C171.48 86.387 172.557 86.4697 173.559 86.2439C174.346 86.0667 175.329 85.8197 175.891 85.1897C176.404 84.6141 176.449 83.8608 176.449 83.126C176.449 82.3993 176.339 81.6135 176.088 80.9308C175.964 80.5948 175.824 80.2864 175.585 80.0152" stroke="white" stroke-linecap="round"/>
<path d="M190.888 73.7961C191.335 74.1547 192.189 74.8531 192.593 75.2565C192.718 75.3821 192.285 74.6755 192.172 74.3714C191.993 73.8854 191.813 73.3924 191.67 72.8946C191.354 71.7977 191.198 70.6405 191.113 69.5044C190.942 67.1954 191.367 64.6269 192.902 62.8226C193.933 61.6119 195.312 60.8122 196.88 60.5453C198.253 60.3113 199.599 60.4861 200.941 60.8035C203.851 61.4917 205.9 63.6699 207.041 66.3607C207.674 67.8557 208.178 69.4723 208.581 71.0445C208.917 72.3545 209.142 73.6921 209.243 75.0405C209.405 77.1929 209.669 79.3397 209.75 81.4969C209.782 82.348 209.785 83.1928 209.708 84.0419C209.653 84.65 209.725 85.3933 209.393 85.9389C208.888 86.7688 207.821 87.3393 206.989 87.7701C205.92 88.324 204.797 88.798 203.622 89.0755C201.728 89.5233 199.878 89.8567 197.924 89.7916C197.544 89.7789 197.194 89.7522 196.819 89.7939C196.723 89.8045 196.731 89.7654 196.682 89.6672C196.503 89.3075 196.464 88.8909 196.288 88.5238C196.035 87.9974 195.673 87.5121 195.297 87.0682C194.793 86.4728 194.269 85.8871 193.715 85.3378C193.292 84.9186 192.775 84.5835 192.381 84.1405C191.352 82.9828 190.313 81.8463 189.268 80.7033C188.362 79.7127 187.531 78.7431 187.024 77.4869C186.656 76.5787 186.325 75.4345 186.549 74.4535C186.861 73.0867 188.339 72.9238 189.472 73.2726C189.943 73.4173 190.492 73.4778 190.888 73.7961Z" fill="#333333" stroke="white" stroke-linecap="round"/>
<path d="M196.565 90.1353C196.063 90.1353 195.499 90.3877 195.051 90.5907C194.743 90.7299 194.463 90.9463 194.325 91.2599C194.217 91.5068 194.133 91.7836 194.133 92.0558C194.133 92.3916 194.306 92.674 194.349 92.9996C194.429 93.6067 193.747 94.7606 194.346 95.2041C194.744 95.4986 194.702 96.0087 194.79 96.4649C194.914 97.1069 195.101 97.747 195.598 98.2023C196.335 98.878 197.445 98.9339 198.387 98.9254C201.957 98.8932 205.509 97.6151 208.534 95.7934C209.397 95.2739 210.118 94.6127 210.802 93.88C211.473 93.1609 212.107 92.1442 212.412 91.2012C212.612 90.5862 212.678 89.9509 212.772 89.3135C212.862 88.6998 212.933 87.9885 212.29 87.6936C211.94 87.5328 212.422 87.2666 212.117 87.1137C211.822 86.9666 211.591 86.7445 211.304 86.5854C210.9 86.3606 210.359 86.3516 209.919 86.2051" stroke="white" stroke-linecap="round"/>
</g>
<defs>
<clipPath id="clip0_2004_4859">
<rect width="414" height="147" fill="white"/>
</clipPath>
</defs>
</svg>
