<svg width="362" height="348" viewBox="0 0 362 348" fill="none" xmlns="http://www.w3.org/2000/svg">
<path d="M132.121 241.13C132.106 240.766 132.073 240.394 132.121 240.031C132.318 239.484 133.442 240.229 133.583 240.281C134.221 240.514 135.026 240.45 135.688 240.442C137.723 240.419 139.748 240.046 141.749 239.694C144.7 239.175 147.626 238.314 150.422 237.243C153.312 236.136 156.144 234.712 158.973 233.46C161.803 232.208 164.066 230.686 166.581 228.989C168.689 227.566 171.031 226.304 172.364 224.217C172.833 223.504 173.858 222.798 174.074 223.091C174.266 223.35 174.625 223.566 174.856 223.822C175.575 224.622 176.228 225.509 176.844 226.39C178.103 228.189 179.43 229.96 180.806 231.67C182.885 234.254 185.097 236.717 187.268 239.223C189.57 241.88 192.198 244.254 194.37 247.019C196.457 249.676 198.576 252.266 200.857 254.759C202.175 256.199 203.337 257.764 204.636 259.217C204.852 259.458 205.037 259.668 204.757 259.933C204.429 260.245 204.014 260.437 203.678 260.736C203.465 260.926 203.807 261.406 203.919 261.608C204.162 262.043 204.66 262.625 204.51 263.166C204.449 263.387 203.942 263.625 203.772 263.751C203.107 264.245 202.394 264.651 201.671 265.05C199.785 266.092 197.985 267.281 196.161 268.426C194.866 269.238 193.472 269.908 192.23 270.803C191.979 270.983 191.835 270.752 191.651 270.588C191.359 270.325 191.393 270.08 190.993 270.257C190.143 270.633 189.474 271.294 188.788 271.902C188.531 272.13 188.282 272.443 187.952 272.569C187.861 272.603 187.763 272.493 187.678 272.463C187.551 272.418 187.933 272.929 187.957 272.965C188.152 273.252 188.307 273.302 188.03 273.529C187.707 273.794 187.207 273.911 186.835 274.09C186.212 274.387 185.6 274.693 184.966 274.97C184.147 275.327 183.293 275.602 182.473 275.959C181.604 276.337 180.761 276.768 179.896 277.156C178.229 277.904 176.552 278.642 174.832 279.257L174.735 279.292C174.162 279.497 173.591 279.702 173.011 279.889C172.842 279.944 172.524 280.153 172.342 280.125C172.097 280.088 171.884 279.417 171.801 279.231C171.648 278.885 171.537 278.45 171.098 278.547C170.473 278.687 169.879 279.03 169.294 279.288C168.795 279.509 169.887 280.343 169.259 280.494C168.695 280.631 168.155 280.869 167.593 281.032C166.515 281.346 165.436 281.597 164.381 281.986C163.07 282.47 161.781 283.035 160.494 283.58C159.362 284.058 158.173 284.449 157.017 284.862C155.863 285.274 154.727 285.733 153.568 286.132C153.229 286.249 152.888 286.319 152.559 286.465C152.477 286.501 152.378 286.571 152.287 286.541C151.715 286.354 152.062 284.92 151.377 284.913C150.826 284.907 150.345 285.39 149.78 285.335C149.488 285.307 149.57 285.41 149.628 285.671C149.714 286.055 149.973 287.081 149.51 287.302C149.165 287.467 148.736 287.504 148.373 287.638C146.484 288.332 144.341 288.126 142.362 288.204C141.839 288.224 141.316 288.185 140.796 288.132C140.674 288.12 140.229 288.103 140.146 287.978C139.939 287.663 139.889 287.345 139.76 286.983C139.671 286.734 139.657 286.375 139.307 286.53C138.894 286.713 138.397 286.821 137.947 286.803C137.476 286.785 136.751 286.754 136.587 286.199C136.374 285.48 136.203 284.753 136.04 284.022C135.704 282.512 135.61 280.96 135.371 279.433C135.034 277.279 134.884 275.091 134.692 272.922C134.236 267.771 133.749 262.621 133.382 257.463C133.169 254.46 132.657 251.486 132.562 248.472C132.517 247.023 132.458 245.593 132.314 244.149C132.213 243.145 132.164 242.138 132.121 241.13Z" fill="#333333" stroke="white" stroke-linecap="round"/>
<path d="M132.788 239.276C132.626 239.455 131.582 240.373 132.595 240.334C132.922 240.409 133.315 240.352 133.651 240.346C134.199 240.338 134.733 240.39 135.28 240.425C136.639 240.512 138.057 240.459 139.412 240.33C143.935 239.9 148.243 238.231 152.418 236.522C157.904 234.275 163.206 231.539 168.113 228.201C169.69 227.128 171.157 225.966 172.42 224.533C172.801 224.102 173.293 223.704 173.605 223.214C173.633 223.169 173.851 222.877 173.772 222.856C173.615 222.814 173.534 222.69 173.35 222.673C172.444 222.591 171.393 222.948 170.54 223.18C168.039 223.86 165.59 224.732 163.161 225.63C155.648 228.409 147.953 230.851 140.808 234.512C139.047 235.414 137.302 236.351 135.558 237.286C134.578 237.811 133.542 238.444 132.788 239.276Z" fill="#333333" stroke="white" stroke-linecap="round"/>
<path d="M176.748 250.071C177.722 252.195 178.721 254.316 179.812 256.383C180.61 257.894 181.244 259.487 181.992 261.024C183.116 263.334 184.249 265.64 185.403 267.936C186.285 269.69 187.215 271.47 188.347 273.076" stroke="white" stroke-linecap="round"/>
<path d="M182.521 256.958C184.103 259.497 185.716 262.022 187.371 264.516C188.211 265.782 189.131 266.992 189.966 268.262C190.559 269.164 191.192 270.077 191.918 270.875" stroke="white" stroke-linecap="round"/>
<path d="M166.084 266.953C167.009 268.673 167.757 270.494 168.553 272.277C169.171 273.661 169.938 274.969 170.576 276.343C171.126 277.528 171.675 278.757 172.411 279.841" stroke="white" stroke-linecap="round"/>
<path d="M163.86 264.754C164.126 265.813 164.509 266.849 164.848 267.885C165.282 269.212 165.718 270.529 166.236 271.824C166.785 273.193 167.273 274.587 167.848 275.946C168.403 277.255 168.948 278.567 169.524 279.868" stroke="white" stroke-linecap="round"/>
<path d="M148.088 266.105C148.779 269.188 149.305 272.315 149.935 275.412C150.253 276.974 150.6 278.527 150.933 280.086C151.148 281.097 151.286 282.12 151.477 283.136C151.644 284.029 152.007 284.92 152.092 285.819" stroke="white" stroke-linecap="round"/>
<path d="M147.726 272.35C148.415 277.137 149.145 281.923 149.654 286.73" stroke="white" stroke-linecap="round"/>
<path d="M136.337 267.551C136.475 268.606 136.715 269.662 136.903 270.708C137.178 272.241 137.429 273.779 137.699 275.313C137.996 276.995 138.361 278.688 138.739 280.354C139.015 281.572 139.345 282.777 139.621 283.996C139.89 285.188 140.029 286.419 140.372 287.592" stroke="white" stroke-linecap="round"/>
<path d="M193.012 247.652C193.324 248.223 193.785 248.75 194.167 249.263C195.168 250.608 196.161 251.96 197.195 253.28C198.052 254.374 198.908 255.467 199.779 256.551C201.058 258.144 202.209 260.235 204.004 261.319" stroke="white" stroke-linecap="round"/>
<path d="M195.143 262.833C195.267 262.713 195.382 262.583 195.497 262.46C195.937 261.991 196.477 261.505 196.816 260.951C196.935 260.757 196.831 260.985 196.667 261.297C196.715 261.246 196.764 261.197 196.815 261.15C196.941 261.036 196.642 261.442 196.544 261.58C196.503 261.638 196.459 261.696 196.413 261.752C196.33 261.893 196.249 262.018 196.186 262.098C195.753 262.647 195.207 263.083 194.568 263.347C194.411 263.488 194.218 263.666 194.518 263.373C194.522 263.369 194.525 263.366 194.529 263.362C194.47 263.386 194.41 263.408 194.35 263.428C194.222 263.472 194.094 263.481 193.965 263.485C193.863 263.524 193.76 263.553 193.655 263.565C193.646 263.566 193.632 263.565 193.617 263.563C193.564 263.555 193.501 263.53 193.585 263.514C193.665 263.499 193.743 263.493 193.821 263.49C195.035 263.005 195.984 261.743 196.757 260.797C197.026 260.468 196.478 261.263 196.424 261.33C195.959 261.9 195.45 262.444 194.928 262.967C195 262.924 195.072 262.879 195.143 262.833Z" fill="#333333"/>
<path d="M194.749 263.138C195.043 262.975 195.27 262.702 195.497 262.46C195.937 261.991 196.477 261.505 196.816 260.951C197.043 260.579 196.456 261.756 196.186 262.098C195.705 262.708 195.084 263.179 194.35 263.428C194.097 263.514 193.845 263.464 193.585 263.514C193.476 263.535 193.613 263.57 193.655 263.565C193.955 263.532 194.249 263.353 194.506 263.211C195.238 262.808 196.052 262.273 196.544 261.58C196.642 261.442 196.941 261.036 196.815 261.15C196.436 261.496 196.146 261.979 195.766 262.341C195.408 262.682 194.998 262.964 194.628 263.293C194.471 263.432 194.177 263.705 194.518 263.373C195.182 262.726 195.838 262.048 196.424 261.33C196.478 261.263 197.026 260.468 196.757 260.797C195.812 261.954 194.604 263.583 192.97 263.685C192.929 263.688 192.42 263.657 192.574 263.747C192.929 263.955 193.559 263.621 193.893 263.517" stroke="white" stroke-linecap="round"/>
<path d="M263.931 231.993C262.263 230.787 258.952 226.569 258.665 227.206C257.584 228.099 256.873 229.348 255.933 230.369C251.926 234.723 248.6 239.832 245.733 244.984C244.214 247.713 242.779 250.833 242.025 253.879C241.839 254.63 241.689 255.459 242.396 255.967C243.436 256.715 244.641 257.144 245.775 257.725C247.425 258.57 248.935 259.635 250.616 260.427C252.334 261.236 254.165 261.709 255.887 262.482C256.392 262.708 256.608 262.924 256.881 262.415C257.623 261.033 258.312 259.503 258.987 258.071C259.528 256.921 259.937 255.753 260.422 254.582C260.645 254.045 261.099 251.849 261.653 252.524C262.947 254.097 263.468 256.421 264.425 258.208C268.056 264.996 270.71 272.423 271.608 280.095C271.858 282.227 271.765 284.31 271.815 286.443C271.837 287.381 271.875 287.193 272.586 287.353C274.976 287.892 277.535 287.614 279.9 287.114C283.948 286.26 288.072 285.63 291.981 284.224C294.311 283.387 296.685 282.651 298.967 281.68C301.448 280.625 303.791 279.322 306.145 278.014L306.214 277.975C308.55 276.677 310.946 275.49 313.271 274.169C314.498 273.472 315.864 272.774 316.934 271.842C317.408 271.43 317.41 271.353 316.82 271.075C316.024 270.7 315.249 269.76 314.717 269.069C310.311 263.347 306.432 257.15 303.971 250.305C302.715 246.813 301.639 243.294 301.279 239.583C301.227 239.056 300.847 237.13 301.264 236.713C301.386 236.591 302.172 236.874 302.351 236.904C303.457 237.084 304.549 237.272 305.679 237.419C307.067 237.601 308.53 237.461 309.885 237.862C310.55 238.059 311.129 238.276 311.826 238.182C312.177 238.134 312.242 237.186 312.318 236.922C313.01 234.52 313.531 232.039 314.412 229.691C315.413 227.019 316.624 224.337 317.769 221.729C318.005 221.193 318.436 220.284 317.82 219.894C317.21 219.507 316.489 219.274 315.866 218.908C313.555 217.551 310.975 216.398 308.292 216.041C304.7 215.564 301.524 213.739 297.796 213.902C294.683 214.038 291.364 214.713 288.264 214.308C287.992 214.273 286.544 214.025 286.61 214.539C286.69 215.166 287.022 215.801 287.138 216.434C287.657 219.29 287.205 221.917 285.779 224.451C282.722 229.889 276.449 234.947 269.923 234.072C268.024 233.817 265.466 233.104 263.931 231.993Z" fill="#333333" stroke="white" stroke-linecap="round"/>
<path d="M306.34 269.029C305.654 270.388 305.057 271.778 304.584 273.223C304.413 273.749 305.83 273.426 306.009 273.365C307.156 272.976 307.504 272.51 307.477 271.383" stroke="white" stroke-linecap="round"/>
<path d="M354.404 278.11C354.584 277.725 354.819 277.169 355.203 276.935C355.01 276.696 358.223 276.77 359.935 276.748C361.748 276.724 363.578 276.54 365.386 276.405C367.406 276.255 369.427 276.216 371.452 276.184C374.075 276.143 376.693 275.993 379.317 276.001C382.008 276.009 384.703 276.166 387.389 276.312C391.112 276.515 394.906 276.832 398.522 277.81C399.66 278.117 400.793 278.616 401.535 279.563C402.054 280.226 402.259 280.987 402.344 281.818C402.433 282.679 402.672 283.567 402.548 284.436C402.514 284.673 402.269 285.349 402.361 285.553C402.537 285.94 402.873 286.263 403.112 286.619C403.509 287.209 403.926 287.784 404.322 288.376C404.877 289.202 405.454 290.047 405.879 290.949C406.457 292.178 406.897 293.497 407.326 294.786L407.326 294.786L407.369 294.916C407.937 296.617 408.54 298.258 408.839 300.038C409.099 301.585 409.149 303.132 409.023 304.693C408.954 305.543 408.867 306.346 409.13 307.176C409.427 308.113 409.729 309.045 409.974 309.999C410.774 313.115 411.362 316.388 411.482 319.606C411.544 321.3 411.465 322.939 411.371 324.628C411.284 326.202 411.147 327.838 410.693 329.353C410.424 330.251 410.191 331.163 409.911 332.057C409.784 332.465 409.646 332.904 409.33 333.209C408.48 334.03 407.193 334.357 406.076 334.617C404.982 334.871 403.908 335.168 402.794 335.326C401.899 335.452 400.994 335.495 400.096 335.592C397.91 335.829 395.674 335.831 393.476 335.938C391.161 336.05 388.874 336.236 386.552 336.197C384.887 336.17 383.214 336.05 381.552 335.931L381.552 335.931L381.354 335.917C379.964 335.818 378.71 335.783 377.442 335.149C376.9 334.878 376.582 334.358 376.242 333.873C376.233 333.86 375.824 329.937 375.809 330.037C375.542 331.871 375.447 333.748 375.062 335.561C374.892 336.361 374.526 336.598 373.755 336.761C372.38 337.051 370.956 337.192 369.549 337.121C367.7 337.026 365.841 336.925 364.009 336.65C362.172 336.375 360.273 336.075 358.558 335.329C356.759 334.547 355.07 333.559 353.335 332.649C351.827 331.857 350.427 330.835 349.04 329.851C347.895 329.038 346.843 327.945 346.024 326.804C345.425 325.968 345.212 325.003 345.087 323.999C344.975 323.101 344.98 322.174 345.042 321.273C345.132 319.964 345.025 318.636 345.18 317.331C345.402 315.465 345.653 313.623 345.986 311.773C346.225 310.444 346.375 309.025 346.809 307.743C347.214 306.549 347.546 305.373 347.546 304.112C347.546 302.772 347.484 301.435 347.484 300.093C347.484 298.548 347.56 297.057 347.795 295.528C347.939 294.589 348.092 293.523 348.59 292.699C348.923 292.148 349.526 291.763 350.005 291.346C350.662 290.774 351.354 290.228 352.025 289.669C352.609 289.182 353.15 288.668 353.775 288.23C354.162 287.959 354.518 287.836 354.518 287.359C354.518 286.74 354.181 286.081 354.096 285.463C353.981 284.625 353.807 283.804 353.723 282.959C353.635 282.079 353.649 281.126 353.757 280.248C353.845 279.541 354.104 278.753 354.404 278.11Z" fill="#333333"/>
<path d="M355.203 276.935C354.819 277.169 354.584 277.725 354.404 278.11C354.104 278.753 353.845 279.541 353.757 280.248C353.649 281.126 353.635 282.079 353.723 282.959C353.807 283.804 353.981 284.625 354.096 285.463C354.181 286.081 354.518 286.74 354.518 287.359M355.203 276.935C355.01 276.696 358.223 276.77 359.935 276.748C361.748 276.724 363.578 276.54 365.386 276.405C367.406 276.255 369.427 276.216 371.452 276.184C374.075 276.143 376.693 275.993 379.317 276.001C382.008 276.009 384.703 276.166 387.389 276.312C391.112 276.515 394.906 276.832 398.522 277.81C399.66 278.117 400.793 278.616 401.535 279.563M355.203 276.935C355.203 278.32 356.638 279.493 357.804 279.895C360.164 280.708 362.949 280.746 365.42 280.808C368.816 280.893 372.207 280.706 375.602 280.621C378.814 280.542 381.95 280.957 385.16 280.808C387.398 280.704 389.371 280.576 391.606 280.417C393.556 280.279 399.61 279.932 401.535 279.563M354.518 287.359C354.518 287.836 354.162 287.959 353.775 288.23C353.15 288.668 352.609 289.182 352.025 289.669C351.354 290.228 350.662 290.774 350.005 291.346C349.526 291.763 348.923 292.148 348.59 292.699C348.092 293.523 347.939 294.589 347.795 295.528C347.56 297.057 347.484 298.548 347.484 300.093C347.484 301.435 347.546 302.772 347.546 304.112C347.546 305.373 347.214 306.549 346.809 307.743C346.375 309.025 346.225 310.444 345.986 311.773C345.653 313.623 345.402 315.465 345.18 317.331C345.025 318.636 345.132 319.964 345.042 321.273C344.98 322.174 344.975 323.101 345.087 323.999C345.212 325.003 345.425 325.968 346.024 326.804C346.843 327.945 347.895 329.038 349.04 329.851C350.427 330.835 351.827 331.857 353.335 332.649C355.07 333.559 356.759 334.547 358.558 335.329C360.273 336.075 362.172 336.375 364.009 336.65C365.841 336.925 367.7 337.026 369.549 337.121C370.956 337.192 372.38 337.051 373.755 336.761C374.526 336.598 374.892 336.361 375.062 335.561C375.447 333.748 375.542 331.871 375.809 330.037M354.518 287.359C355.648 287.726 360.324 288.859 361.484 289.102C364.134 289.656 366.832 290.047 369.519 290.378C371.9 290.671 374.333 290.687 376.73 290.755C379.431 290.832 382.128 291.001 384.83 291.052C389.738 291.146 394.821 290.605 399.56 289.299C400.553 289.025 402.15 287.86 403.112 286.619M375.809 330.037C376.039 328.463 376.264 326.894 376.37 325.306C376.455 324.019 376.743 322.735 376.743 321.446C376.743 321.195 377.013 321.18 377.206 321.121C377.572 321.009 377.936 320.732 378.268 320.547C378.764 320.272 379.281 320.034 379.762 319.734C380.211 319.455 380.691 319.161 381.163 318.925C381.283 318.865 381.87 318.453 381.786 318.707M375.809 330.037C375.824 329.937 376.233 333.86 376.242 333.873C376.582 334.358 376.9 334.878 377.442 335.149C378.71 335.783 379.964 335.818 381.354 335.917L381.552 335.931C383.214 336.05 384.887 336.17 386.552 336.197C388.874 336.236 391.161 336.05 393.476 335.938C395.674 335.831 397.91 335.829 400.096 335.592C400.994 335.495 401.899 335.452 402.794 335.326C403.908 335.168 404.982 334.871 406.076 334.617C407.193 334.357 408.48 334.03 409.33 333.209C409.646 332.904 409.784 332.465 409.911 332.057C410.191 331.163 410.424 330.251 410.693 329.353C411.147 327.838 411.284 326.202 411.371 324.628C411.465 322.939 411.544 321.3 411.482 319.606C411.362 316.388 410.774 313.115 409.974 309.999C409.729 309.045 409.427 308.113 409.13 307.176C408.867 306.346 408.954 305.543 409.023 304.693C409.149 303.132 409.099 301.585 408.839 300.038C408.54 298.258 407.937 296.617 407.369 294.916L407.326 294.786C406.897 293.497 406.457 292.178 405.879 290.949C405.454 290.047 404.877 289.202 404.322 288.376C403.926 287.784 403.509 287.209 403.112 286.619M403.112 286.619C402.873 286.263 402.537 285.94 402.361 285.553C402.269 285.349 402.514 284.673 402.548 284.436C402.672 283.567 402.433 282.679 402.344 281.818C402.259 280.987 402.054 280.226 401.535 279.563" stroke="white" stroke-linecap="round"/>
<path d="M174.537 307.968C174.681 307.66 174.868 307.217 175.174 307.03C175.02 306.839 177.583 306.898 178.949 306.881C180.394 306.862 181.854 306.715 183.296 306.608C184.907 306.488 186.519 306.456 188.134 306.431C190.226 306.398 192.314 306.279 194.407 306.285C196.553 306.291 198.703 306.417 200.845 306.533C203.815 306.695 206.841 306.948 209.725 307.728C210.632 307.973 211.536 308.371 212.128 309.126C212.542 309.655 212.705 310.262 212.773 310.925C212.844 311.611 213.035 312.319 212.936 313.013C212.909 313.202 212.713 313.741 212.787 313.904C212.927 314.212 213.195 314.47 213.386 314.753C213.702 315.224 214.035 315.683 214.351 316.155C214.793 316.814 215.254 317.488 215.592 318.207C216.054 319.188 216.404 320.239 216.747 321.267L216.747 321.268L216.781 321.371C217.234 322.728 217.715 324.037 217.954 325.456C218.161 326.69 218.2 327.924 218.1 329.169C218.045 329.848 217.975 330.488 218.185 331.15C218.422 331.897 218.663 332.641 218.858 333.401C219.496 335.887 219.966 338.497 220.061 341.064C220.111 342.415 220.048 343.722 219.973 345.069C219.903 346.324 219.794 347.63 219.432 348.837C219.218 349.554 219.031 350.281 218.809 350.995C218.707 351.32 218.597 351.67 218.345 351.913C217.667 352.568 216.64 352.829 215.75 353.036C214.877 353.239 214.021 353.476 213.132 353.601C212.418 353.702 211.696 353.736 210.98 353.814C209.237 354.003 207.453 354.005 205.7 354.09C203.854 354.179 202.03 354.327 200.178 354.297C198.85 354.275 197.515 354.179 196.19 354.084L196.19 354.084L196.032 354.073C194.923 353.994 193.923 353.966 192.912 353.461C192.479 353.244 192.226 352.83 191.955 352.443C191.947 352.432 191.621 349.304 191.609 349.384C191.396 350.846 191.32 352.343 191.014 353.789C190.878 354.427 190.586 354.616 189.971 354.746C188.875 354.978 187.738 355.09 186.617 355.033C185.142 354.958 183.659 354.877 182.197 354.658C180.733 354.438 179.218 354.199 177.85 353.604C176.415 352.98 175.068 352.192 173.685 351.466C172.481 350.835 171.365 350.02 170.259 349.235C169.346 348.587 168.506 347.714 167.853 346.804C167.375 346.138 167.206 345.368 167.106 344.567C167.016 343.851 167.02 343.112 167.07 342.394C167.142 341.349 167.056 340.29 167.18 339.249C167.357 337.761 167.558 336.292 167.823 334.816C168.013 333.757 168.133 332.625 168.479 331.602C168.802 330.65 169.067 329.712 169.067 328.706C169.067 327.637 169.017 326.57 169.017 325.501C169.017 324.268 169.078 323.079 169.266 321.859C169.381 321.11 169.503 320.26 169.9 319.603C170.166 319.163 170.647 318.857 171.028 318.524C171.552 318.068 172.104 317.632 172.639 317.186C173.105 316.798 173.537 316.388 174.035 316.039C174.344 315.823 174.628 315.725 174.628 315.344C174.628 314.85 174.359 314.325 174.292 313.832C174.2 313.163 174.061 312.509 173.994 311.835C173.923 311.132 173.935 310.372 174.021 309.672C174.091 309.108 174.298 308.48 174.537 307.968Z" fill="#333333"/>
<path d="M175.174 307.03C174.868 307.217 174.681 307.66 174.537 307.968C174.298 308.48 174.091 309.108 174.021 309.672C173.935 310.372 173.923 311.132 173.994 311.835C174.061 312.509 174.2 313.163 174.292 313.832C174.359 314.325 174.628 314.85 174.628 315.344M175.174 307.03C175.02 306.839 177.583 306.898 178.949 306.881C180.394 306.862 181.854 306.715 183.296 306.608C184.907 306.488 186.519 306.456 188.134 306.431C190.226 306.398 192.314 306.279 194.407 306.285C196.553 306.291 198.703 306.417 200.845 306.533C203.815 306.695 206.841 306.948 209.725 307.728C210.632 307.973 211.536 308.371 212.128 309.126M175.174 307.03C175.174 308.135 176.318 309.071 177.249 309.391C179.131 310.039 181.352 310.07 183.323 310.119C186.032 310.187 188.736 310.037 191.444 309.97C194.006 309.907 196.507 310.238 199.067 310.119C200.853 310.036 202.426 309.934 204.208 309.807C205.764 309.697 210.593 309.421 212.128 309.126M174.628 315.344C174.628 315.725 174.344 315.823 174.035 316.039C173.537 316.388 173.105 316.798 172.639 317.186C172.104 317.632 171.552 318.068 171.028 318.524C170.647 318.857 170.166 319.163 169.9 319.603C169.503 320.26 169.381 321.11 169.266 321.859C169.078 323.079 169.017 324.268 169.017 325.501C169.017 326.57 169.067 327.637 169.067 328.706C169.067 329.712 168.802 330.65 168.479 331.602C168.133 332.625 168.013 333.757 167.823 334.816C167.558 336.292 167.357 337.761 167.18 339.249C167.056 340.29 167.142 341.349 167.07 342.394C167.02 343.112 167.016 343.851 167.106 344.567C167.206 345.368 167.375 346.138 167.853 346.804C168.506 347.714 169.346 348.587 170.259 349.235C171.365 350.02 172.481 350.835 173.685 351.466C175.068 352.192 176.415 352.98 177.85 353.604C179.218 354.199 180.733 354.438 182.197 354.658C183.659 354.877 185.142 354.958 186.617 355.033C187.738 355.09 188.875 354.978 189.971 354.746C190.586 354.616 190.878 354.427 191.014 353.789C191.32 352.343 191.396 350.846 191.609 349.384M174.628 315.344C175.529 315.636 179.258 316.54 180.184 316.734C182.297 317.176 184.449 317.488 186.592 317.752C188.492 317.986 190.432 317.998 192.344 318.053C194.498 318.114 196.649 318.249 198.804 318.29C202.719 318.364 206.773 317.933 210.552 316.891C211.345 316.673 212.619 315.744 213.386 314.753M191.609 349.384C191.793 348.128 191.972 346.877 192.056 345.61C192.125 344.583 192.354 343.559 192.354 342.532C192.354 342.331 192.57 342.319 192.724 342.272C193.016 342.183 193.305 341.962 193.571 341.814C193.966 341.595 194.378 341.405 194.762 341.166C195.12 340.944 195.503 340.709 195.88 340.521C195.975 340.473 196.444 340.144 196.376 340.347M191.609 349.384C191.621 349.304 191.947 352.432 191.955 352.443C192.226 352.83 192.479 353.244 192.912 353.461C193.923 353.966 194.923 353.994 196.032 354.073L196.19 354.084C197.515 354.179 198.85 354.275 200.178 354.297C202.03 354.327 203.854 354.179 205.7 354.09C207.453 354.005 209.237 354.003 210.98 353.814C211.696 353.736 212.418 353.702 213.132 353.601C214.021 353.476 214.877 353.239 215.75 353.036C216.64 352.829 217.667 352.568 218.345 351.913C218.597 351.67 218.707 351.32 218.809 350.995C219.031 350.281 219.218 349.554 219.432 348.837C219.794 347.63 219.903 346.324 219.973 345.069C220.048 343.722 220.111 342.415 220.061 341.064C219.966 338.497 219.496 335.887 218.858 333.401C218.663 332.641 218.422 331.897 218.185 331.15C217.975 330.488 218.045 329.848 218.1 329.169C218.2 327.924 218.161 326.69 217.954 325.456C217.715 324.037 217.234 322.728 216.781 321.371L216.747 321.268C216.404 320.239 216.054 319.188 215.592 318.207C215.254 317.488 214.793 316.814 214.351 316.155C214.035 315.683 213.702 315.224 213.386 314.753M213.386 314.753C213.195 314.47 212.927 314.212 212.787 313.904C212.713 313.741 212.909 313.202 212.936 313.013C213.035 312.319 212.844 311.611 212.773 310.925C212.705 310.262 212.542 309.655 212.128 309.126" stroke="white" stroke-linecap="round"/>
<path d="M191.794 314.764C191.714 314.773 191.644 314.749 191.586 314.703C191.549 314.705 191.515 314.705 191.484 314.703C191.275 314.691 191.299 314.403 191.385 314.281C191.385 314.281 191.386 314.28 191.386 314.28C191.516 314.098 191.791 314.034 192.002 314.065C192.642 314.159 192.235 314.713 191.794 314.764Z" fill="#333333"/>
<path d="M191.709 313.738C191.197 313.738 191.329 314.817 191.794 314.764C192.235 314.713 192.642 314.159 192.002 314.065C191.79 314.033 191.514 314.098 191.385 314.281C191.299 314.403 191.275 314.691 191.484 314.703C191.648 314.713 191.927 314.669 191.994 314.489C192.047 314.345 191.862 314.407 191.807 314.429" stroke="white" stroke-linecap="round"/>
<path d="M191.363 313.788C191.943 315.253 192.104 316.933 191.928 318.491C191.744 320.115 191.046 321.471 190.414 322.946C188.989 326.271 188.946 330.328 190.37 333.649" stroke="white" stroke-linecap="round"/>
<path d="M197.229 314.364C197.212 314.366 197.196 314.368 197.181 314.37C197.098 314.488 196.961 314.545 196.831 314.416C196.742 314.327 196.744 314.202 196.798 314.079C196.907 313.833 197.225 313.595 197.435 313.665C197.836 313.798 197.523 314.315 197.229 314.364Z" fill="#333333"/>
<path d="M196.922 313.437C196.705 313.762 196.694 314.453 197.229 314.364C197.523 314.315 197.836 313.798 197.435 313.665C197.12 313.56 196.563 314.148 196.831 314.416C197.082 314.666 197.361 314.219 197.218 313.98" stroke="white" stroke-linecap="round"/>
<path d="M196.972 314.034C196.951 314.015 196.867 313.948 196.884 314.028C197.067 314.898 197.313 315.744 197.424 316.632C197.523 317.414 197.531 318.212 197.568 318.999C197.615 319.986 197.601 320.954 197.303 321.906C197 322.875 196.574 323.807 196.23 324.761C195.814 325.917 195.406 327.085 195.069 328.267C194.43 330.508 194.47 332.761 194.837 335.037" stroke="white" stroke-linecap="round"/>
<path d="M359.455 200.176C358.038 200.59 356.299 201.34 354.877 201.738C354.454 202.145 353.475 202.344 352.951 202.044C352.483 201.776 352.074 201.388 351.628 201.084C351.097 200.722 350.604 200.351 350.185 199.857C349.729 199.321 349.937 198.494 350.007 197.849C350.023 197.705 350.044 197.333 350.256 197.325C350.53 197.315 350.906 197.151 351.155 197.047C351.933 196.721 352.787 196.438 353.6 196.216C354.252 196.037 354.931 195.961 355.593 195.827C356.512 195.641 357.416 195.375 358.325 195.147C359.339 194.894 360.34 194.746 361.376 194.621C362.571 194.476 363.755 194.236 364.947 194.067C366.162 193.894 367.379 193.948 368.599 193.893C369.795 193.838 371.013 193.775 372.206 193.903C373.326 194.023 374.437 194.205 375.534 194.465C376.388 194.668 377.337 194.929 378.102 195.373C378.848 195.807 380.233 196.591 380.076 197.664C380.001 198.178 378.994 197.894 378.656 197.847C377.256 197.653 375.911 197.221 374.521 196.987C373.693 196.847 372.814 196.853 371.978 196.872C370.963 196.897 369.9 196.917 368.899 197.095C367.96 197.262 367.069 197.658 366.16 197.936C365.213 198.226 364.257 198.509 363.317 198.823C362.02 199.255 360.769 199.791 359.455 200.176Z" fill="#333333" stroke="white" stroke-linecap="round"/>
<path d="M372.81 219.254C372.074 218.807 370.132 217.189 369.44 216.675C368.632 215.918 367.777 215.214 366.959 214.468C365.981 213.576 365.069 212.629 364.128 211.698C362.066 209.657 360.108 207.513 358.139 205.383C356.262 203.352 354.421 201.213 352.251 199.486C351.321 198.745 350.375 198.028 349.421 197.319C348.713 196.794 347.998 196.264 347.183 195.917C346.276 195.53 345.14 194.971 344.226 195.609C343.073 196.415 342.43 197.709 341.945 198.986C341.373 200.492 340.914 202.042 340.546 203.608C340.097 205.519 339.623 207.408 339.743 209.391C339.853 211.201 340.583 213.083 341.413 214.678C342.583 216.928 343.864 219.025 345.43 221.014C346.71 222.641 348.333 224.114 350.031 225.297C351.486 226.312 353.13 227.242 354.888 227.58C356.495 227.889 358.199 227.324 359.636 226.631C361.059 225.945 362.464 225.129 363.819 224.319C364.763 223.755 365.752 222.988 366.842 223.66C367.733 224.209 367.894 225.304 367.822 226.278C367.715 227.71 366.902 228.868 366.361 230.159C365.801 231.497 365.778 233.164 366.078 234.576C366.438 236.26 367.656 237.49 368.821 238.664L368.874 238.717C370.131 239.986 371.43 241.184 372.902 242.203C374.581 243.365 376.511 244.153 378.464 244.715C380.577 245.324 382.734 245.463 384.909 245.682C387.049 245.897 389.354 245.435 391.434 244.973C392.653 244.702 393.797 244.209 394.958 243.763C395.987 243.369 397.014 242.874 397.837 242.129C398.918 241.15 399.738 239.834 399.7 238.337C399.621 235.21 396.921 233.229 394.541 231.675C392.195 230.144 389.745 228.85 387.255 227.573C384.809 226.318 382.397 224.999 379.973 223.702C378.911 223.134 377.888 222.49 376.841 221.895C376.072 221.458 375.321 221.004 374.586 220.511C373.986 220.108 373.427 219.629 372.81 219.254Z" fill="#333333" stroke="white" stroke-linecap="round"/>
<path d="M362.531 215.085C363.71 216.515 364.778 218.056 365.595 219.738C365.431 220.661 365.052 221.209 364.392 221.841C363.797 222.411 363.084 222.925 362.434 223.434C361.693 224.014 360.84 224.432 359.902 224.566C358.808 224.723 357.693 224.379 356.676 224.021C355.665 223.666 354.599 223.36 353.671 222.817C352.73 222.267 351.79 221.616 351.016 220.844C349.334 219.167 347.773 217.268 346.962 215C346.197 212.864 345.997 210.462 346.414 208.234C346.71 206.656 347.641 204.543 349.565 204.811C350.235 204.904 350.875 205.227 351.453 205.563C352.161 205.974 352.837 206.406 353.5 206.887C355.201 208.118 356.883 209.328 358.44 210.744C359.919 212.088 361.26 213.543 362.531 215.085Z" fill="#333333" stroke="white" stroke-linecap="round"/>
<path d="M63.445 339.239C63.6462 340.702 64.132 342.532 64.3153 343.997C64.6564 344.476 64.7088 345.474 64.3349 345.948C64.001 346.371 63.5565 346.719 63.1906 347.114C62.754 347.587 62.314 348.019 61.7638 348.362C61.1668 348.733 60.3794 348.406 59.7517 348.242C59.6115 348.205 59.2465 348.129 59.2703 347.918C59.3009 347.646 59.1939 347.25 59.1273 346.988C58.9194 346.17 58.7659 345.284 58.6656 344.447C58.5851 343.776 58.61 343.093 58.5747 342.419C58.5257 341.482 58.3957 340.549 58.3049 339.616C58.2038 338.576 58.2049 337.564 58.2336 336.521C58.2667 335.317 58.2033 334.111 58.2118 332.907C58.2204 331.68 58.4528 330.484 58.5778 329.269C58.7004 328.078 58.8167 326.865 59.1191 325.703C59.4028 324.613 59.747 323.541 60.166 322.495C60.4926 321.679 60.8899 320.779 61.4421 320.089C61.9812 319.414 62.9604 318.16 63.999 318.473C64.4967 318.623 64.0668 319.577 63.9708 319.904C63.5728 321.261 62.9471 322.527 62.5104 323.868C62.2505 324.666 62.1264 325.536 62.0228 326.366C61.8972 327.374 61.7606 328.428 61.7891 329.445C61.8158 330.398 62.0767 331.337 62.2179 332.277C62.3651 333.257 62.5043 334.244 62.6757 335.22C62.9122 336.567 63.2584 337.883 63.445 339.239Z" fill="#333333" stroke="white" stroke-linecap="round"/>
<path d="M95.8732 312.019C96.6254 312.303 97.2775 312.761 98.0136 313.087C98.8485 312.588 99.6666 312.092 100.418 311.471C100.88 311.09 101.258 310.612 101.634 310.149C102.228 309.416 102.853 308.608 102.842 307.613C102.83 306.515 101.556 306.066 100.709 305.792C98.8233 305.181 96.9233 305.232 94.9689 305.13C93.8713 305.074 92.7667 305.09 91.6716 305.012C90.6509 304.939 89.6291 304.863 88.6064 304.823C86.5893 304.746 84.5786 305.008 82.5675 305.101C81.5915 305.146 80.6396 305.314 79.6718 305.434C78.7983 305.542 77.9423 305.687 77.094 305.926C75.7126 306.316 74.1196 306.822 73.3418 308.121C72.9271 308.814 72.7829 309.884 73.4728 310.463C74.0035 310.908 74.5411 310.835 75.1166 310.538C75.894 310.138 76.5454 309.559 77.3905 309.273C78.4407 308.917 79.5843 308.846 80.6822 308.912C83.8245 309.099 86.9954 309.408 90.0698 310.118C91.4347 310.433 92.7816 310.861 94.1006 311.33C94.6982 311.542 95.2801 311.795 95.8732 312.019Z" fill="#333333" stroke="white" stroke-linecap="round"/>
<path d="M84.2831 328.84C83.7328 329.502 81.8462 331.185 81.2357 331.794C80.3685 332.482 79.5458 333.223 78.6877 333.922C77.6609 334.759 76.59 335.521 75.5308 336.314C73.2076 338.054 70.7987 339.674 68.4019 341.308C66.1165 342.865 63.7297 344.371 61.7016 346.263C60.8321 347.074 59.9838 347.904 59.1417 348.743C58.5177 349.365 57.8884 349.994 57.4248 350.749C56.909 351.59 56.188 352.631 56.6851 353.629C57.3121 354.888 58.4971 355.714 59.6894 356.383C61.0944 357.17 62.5596 357.852 64.0547 358.447C65.8788 359.173 67.6772 359.92 69.6556 360.094C71.4622 360.252 73.4313 359.807 75.1308 359.221C77.5289 358.395 79.7915 357.437 81.9903 356.181C83.7877 355.155 85.4837 353.766 86.904 352.262C88.1222 350.972 89.2843 349.483 89.8776 347.794C90.4203 346.249 90.1121 344.481 89.6386 342.958C89.1699 341.449 88.5694 339.939 87.9678 338.479C87.549 337.463 86.9362 336.371 87.7617 335.392C88.4365 334.592 89.543 334.594 90.4955 334.809C91.896 335.126 92.9222 336.101 94.1192 336.826C95.3597 337.577 97.0054 337.846 98.4458 337.756C100.165 337.649 101.56 336.625 102.894 335.646L102.954 335.602C104.395 334.545 105.77 333.437 106.996 332.13C108.392 330.641 109.456 328.849 110.3 327C111.213 324.999 111.669 322.887 112.205 320.768C112.733 318.682 112.616 316.334 112.465 314.209C112.377 312.963 112.058 311.759 111.788 310.545C111.549 309.469 111.212 308.381 110.595 307.456C109.787 306.244 108.606 305.239 107.12 305.056C104.015 304.673 101.657 307.052 99.7701 309.177C97.9101 311.272 96.2699 313.504 94.6396 315.779C93.0379 318.014 91.3782 320.204 89.7379 322.412C89.0194 323.378 88.2321 324.295 87.4891 325.243C86.9434 325.939 86.3842 326.615 85.7884 327.269C85.3014 327.803 84.7448 328.285 84.2831 328.84Z" fill="#333333" stroke="white" stroke-linecap="round"/>
<path d="M92.5788 324.506C91.6183 326.091 90.7838 327.77 90.2177 329.552C90.5128 330.443 90.9673 330.93 91.7109 331.46C92.3819 331.938 93.1622 332.344 93.8785 332.754C94.6954 333.221 95.5995 333.511 96.5468 333.509C97.6529 333.507 98.7059 333.005 99.661 332.505C100.61 332.008 101.621 331.551 102.461 330.88C103.313 330.2 104.149 329.42 104.803 328.545C106.226 326.643 107.497 324.539 107.973 322.177C108.422 319.954 108.274 317.547 107.539 315.403C107.019 313.884 105.793 311.927 103.928 312.47C103.279 312.659 102.691 313.071 102.168 313.486C101.526 313.995 100.92 314.521 100.333 315.091C98.828 316.556 97.3378 317.995 96.001 319.62C94.731 321.164 93.6143 322.797 92.5788 324.506Z" fill="#333333" stroke="white" stroke-linecap="round"/>
<path d="M78.6452 338.394C80.2334 337.438 81.9145 336.609 83.6991 336.049C84.5883 336.347 85.0744 336.803 85.6019 337.548C86.0779 338.22 86.4811 339.002 86.8886 339.72C87.3532 340.538 87.641 341.443 87.6357 342.39C87.6295 343.496 87.1247 344.548 86.6213 345.501C86.1212 346.448 85.6611 347.458 84.9876 348.296C84.3046 349.146 83.5222 349.98 82.6454 350.631C80.7388 352.048 78.6304 353.312 76.2676 353.781C74.0422 354.222 71.6363 354.066 69.4947 353.325C67.9772 352.8 66.0244 351.568 66.5729 349.705C66.764 349.056 67.1775 348.47 67.5948 347.947C68.1061 347.308 68.6332 346.703 69.206 346.118C70.6748 344.617 72.1195 343.132 73.7486 341.8C75.2963 340.535 76.933 339.424 78.6452 338.394Z" fill="#333333" stroke="white" stroke-linecap="round"/>
<path d="M193.79 25.76C193.523 27.2122 193.412 29.1026 193.127 30.5511C193.301 31.1129 193.038 32.0768 192.535 32.4097C192.085 32.7071 191.554 32.8981 191.083 33.1593C190.52 33.4711 189.967 33.7444 189.337 33.8971C188.654 34.0628 188.008 33.5057 187.464 33.153C187.342 33.0742 187.019 32.8875 187.108 32.6948C187.222 32.4458 187.245 32.0364 187.263 31.7667C187.322 30.9247 187.454 30.0357 187.62 29.2095C187.754 28.5468 187.992 27.9059 188.169 27.2544C188.416 26.3493 188.585 25.4227 188.791 24.5079C189.02 23.4885 189.338 22.5283 189.692 21.5464C190.101 20.4138 190.418 19.2479 190.803 18.1073C191.196 16.9452 191.791 15.8822 192.29 14.7671C192.779 13.6745 193.27 12.5585 193.921 11.5499C194.532 10.6033 195.194 9.69307 195.92 8.83084C196.485 8.15879 197.144 7.42815 197.885 6.94526C198.608 6.47388 199.931 5.58881 200.819 6.21171C201.245 6.51015 200.538 7.28129 200.344 7.56215C199.542 8.72566 198.551 9.73282 197.716 10.8693C197.22 11.5456 196.829 12.3335 196.471 13.0893C196.036 14.0065 195.576 14.9649 195.285 15.9394C195.012 16.853 194.965 17.8272 194.805 18.7637C194.638 19.7407 194.461 20.7213 194.318 21.7019C194.121 23.0553 194.038 24.4135 193.79 25.76Z" fill="#333333" stroke="white" stroke-linecap="round"/>
<path d="M233.112 10.0641C233.738 10.5695 234.214 11.2085 234.811 11.7487C235.76 11.5361 236.692 11.3212 237.6 10.9671C238.158 10.7496 238.667 10.4144 239.169 10.0921C239.963 9.58218 240.809 9.01032 241.111 8.06186C241.443 7.01517 240.373 6.19007 239.655 5.66465C238.055 4.49404 236.235 3.94677 234.411 3.23879C233.386 2.84119 232.332 2.51078 231.316 2.09336C230.37 1.70434 229.423 1.31219 228.464 0.954707C226.573 0.24966 224.581 -0.130846 222.642 -0.672714C221.701 -0.935683 220.744 -1.07364 219.788 -1.26329C218.925 -1.43448 218.066 -1.56467 217.186 -1.60282C215.752 -1.66496 214.08 -1.68405 212.935 -0.693635C212.324 -0.165442 211.852 0.805488 212.326 1.57151C212.69 2.1608 213.224 2.25922 213.863 2.1581C214.727 2.0215 215.527 1.67575 216.419 1.66841C217.528 1.65929 218.636 1.9499 219.658 2.35585C222.584 3.51778 225.499 4.80423 228.196 6.44102C229.394 7.16767 230.539 7.99591 231.645 8.85444C232.146 9.24346 232.619 9.66564 233.112 10.0641Z" fill="#333333" stroke="white" stroke-linecap="round"/>
<path d="M216.836 22.409C216.106 22.8652 213.788 23.8729 213.017 24.2597C211.978 24.6412 210.965 25.088 209.931 25.483C208.694 25.9558 207.438 26.3445 206.184 26.766C203.433 27.6904 200.637 28.4751 197.85 29.2759C195.192 30.0394 192.453 30.7218 189.935 31.8835C188.855 32.3816 187.789 32.9041 186.727 33.4376C185.939 33.8329 185.145 34.2333 184.468 34.8054C183.715 35.4419 182.704 36.2047 182.864 37.3082C183.065 38.7002 183.932 39.8564 184.855 40.8643C185.942 42.0521 187.12 43.1591 188.354 44.1921C189.859 45.4525 191.333 46.7254 193.158 47.5096C194.824 48.2257 196.833 48.4196 198.631 48.3956C201.167 48.3616 203.616 48.1605 206.097 47.6566C208.125 47.2447 210.171 46.4568 211.991 45.473C213.552 44.6292 215.122 43.579 216.214 42.1612C217.213 40.8642 217.474 39.0886 217.502 37.4932C217.529 35.914 217.431 34.2918 217.317 32.7169C217.238 31.6206 216.998 30.3919 218.088 29.7207C218.979 29.1721 220.03 29.5202 220.867 30.023C222.098 30.7624 222.767 32.0094 223.677 33.0728C224.62 34.1747 226.099 34.9452 227.495 35.3111C229.161 35.7479 230.807 35.212 232.38 34.7L232.451 34.6769C234.15 34.1241 235.803 33.5029 237.376 32.6458C239.169 31.6689 240.74 30.2995 242.121 28.8076C243.614 27.1939 244.709 25.3305 245.882 23.4859C247.036 21.6706 247.66 19.4041 248.183 17.3384C248.489 16.1282 248.563 14.884 248.687 13.6468C248.797 12.5504 248.817 11.4108 248.521 10.3401C248.133 8.93496 247.327 7.611 245.973 6.97173C243.143 5.6363 240.16 7.1569 237.702 8.58444C235.279 9.99131 233.023 11.5976 230.762 13.2473C228.541 14.8682 226.279 16.4291 224.03 18.0115C223.045 18.7047 222.01 19.3287 221.007 19.9963C220.271 20.4866 219.528 20.9535 218.758 21.3877C218.128 21.7425 217.449 22.0263 216.836 22.409Z" fill="#333333" stroke="white" stroke-linecap="round"/>
<path d="M226.075 20.8887C224.666 22.0934 223.348 23.4261 222.252 24.9419C222.254 25.8797 222.533 26.485 223.073 27.2211C223.56 27.8853 224.174 28.515 224.726 29.1284C225.356 29.828 226.124 30.3871 227.024 30.6816C228.075 31.0255 229.232 30.879 230.296 30.7029C231.353 30.528 232.456 30.4107 233.464 30.0367C234.486 29.6574 235.524 29.1787 236.42 28.5529C238.366 27.192 240.232 25.5915 241.424 23.498C242.546 21.5264 243.159 19.1947 243.133 16.9286C243.115 15.3229 242.563 13.0807 240.623 13.012C239.946 12.9881 239.26 13.195 238.632 13.4259C237.864 13.7086 237.123 14.0174 236.387 14.3759C234.499 15.295 232.633 16.1958 230.855 17.3204C229.165 18.3887 227.593 19.59 226.075 20.8887Z" fill="#333333" stroke="white" stroke-linecap="round"/>
<path d="M208.491 29.7159C210.299 29.3058 212.155 29.0449 214.025 29.0715C214.776 29.6329 215.095 30.2182 215.363 31.0912C215.604 31.879 215.742 32.7474 215.905 33.5566C216.09 34.4793 216.079 35.4289 215.778 36.327C215.426 37.3755 214.617 38.2159 213.84 38.9638C213.069 39.7067 212.316 40.5217 211.413 41.1067C210.499 41.6999 209.495 42.2464 208.458 42.5906C206.204 43.3388 203.805 43.8793 201.415 43.5844C199.163 43.3067 196.927 42.4055 195.125 41.031C193.848 40.0571 192.38 38.2753 193.484 36.6778C193.869 36.1212 194.445 35.694 195.005 35.3287C195.691 34.8813 196.381 34.472 197.108 34.0957C198.973 33.1308 200.81 32.1723 202.774 31.4178C204.64 30.701 206.542 30.158 208.491 29.7159Z" fill="#333333" stroke="white" stroke-linecap="round"/>
<path d="M335.475 -43.2065C335.772 -43.3796 336.387 -43.8695 336.762 -43.672C338.524 -42.7561 341.689 -41.1532 343.444 -40.2106C344.778 -39.4938 345.962 -38.114 347.26 -37.333C348.446 -36.6197 349.591 -35.8414 350.764 -35.1077C353.23 -33.5646 355.437 -31.7166 357.601 -29.7866C362.42 -25.49 366.7 -20.6818 370.789 -15.6968C372.109 -14.0865 373.524 -12.5573 374.818 -10.9239C376.056 -9.35957 377.329 -7.82656 378.605 -6.29291C381.281 -3.07735 384.038 0.0748757 386.864 3.15901C389.984 6.56309 393.3 9.85927 396.183 13.4685C398.711 16.6347 400.916 20.0415 403.388 23.2501C404.198 24.3004 405.132 25.2537 405.923 26.3161C406.308 26.8327 406.47 27.3113 406.117 27.8912C405.573 28.7816 404.786 29.5964 404.058 30.335C403.338 31.0654 402.63 31.8186 401.861 32.4989C401.408 32.9006 400.966 33.3243 400.471 33.675C400.37 33.746 400.227 33.8208 400.1 33.7817C399.733 33.6689 399.392 33.2848 399.066 33.0863C397.807 32.3214 396.605 31.3677 395.431 30.4804C394.407 29.7063 393.306 29.0336 392.249 28.3059C391.118 27.5269 390.037 26.6749 388.969 25.8121C383.444 21.3515 378.365 16.3964 373.087 11.6556C367.595 6.72218 361.938 1.99451 356.163 -2.60138C354.425 -3.98382 352.586 -5.45685 351.141 -7.1554C351.021 -7.29625 350.72 -7.93721 350.51 -7.96C350.477 -7.96356 350.418 -7.76395 350.402 -7.7385C349.992 -7.09062 349.655 -6.38279 348.897 -6.06308C347.633 -5.52949 346.496 -5.89455 345.254 -6.2404C344.893 -6.341 344.491 -6.59236 344.113 -6.59139C344.008 -6.59113 344.273 -6.44916 344.371 -6.41263C344.614 -6.3224 344.872 -6.08294 345.102 -5.94996L345.141 -5.92752C345.507 -5.71654 345.875 -5.50395 346.201 -5.23506C349.666 -2.37737 352.808 0.788833 355.993 3.95722C360.725 8.66491 365.077 13.7638 369.389 18.8527C373.928 24.2097 378.206 29.777 381.949 35.7217C383.345 37.9384 384.906 39.8749 386.66 41.8104L386.735 41.8923C387.413 42.6402 388.123 43.4242 388.682 44.2632C388.931 44.6362 389.068 45.018 388.924 45.4547C388.775 45.9043 388.323 46.2823 388.02 46.6345C387.578 47.1488 387.13 47.6587 386.687 48.1718C385.706 49.3063 384.741 50.3736 383.635 51.3925C383.165 51.8251 383.033 51.8735 382.549 51.6018C381.892 51.2327 381.301 50.4048 380.772 49.8784C377.624 46.7462 374.54 43.4856 371.098 40.6661C368.118 38.2252 365.055 35.8912 362.18 33.325C359.999 31.378 357.796 29.4549 355.661 27.4573C353.321 25.2684 350.859 23.2007 348.334 21.228C346.001 19.4042 343.56 17.7214 341.234 15.8854C332.705 9.15297 324.168 2.04443 318.129 -7.09887L318.125 -7.10561C317.437 -8.14751 316.739 -9.204 315.99 -10.2028C315.256 -11.1825 314.713 -12.277 314.057 -13.3072C313.195 -14.6618 312.146 -15.9151 311.363 -17.3167C311.149 -17.6997 311.142 -17.8639 311.444 -18.1674C311.755 -18.4802 312.013 -18.8279 312.326 -19.1431C315.212 -22.0438 317.92 -25.1282 320.764 -28.0731C323.227 -30.6238 325.362 -33.4579 327.754 -36.0703C329.629 -38.1191 331.59 -40.1905 333.741 -41.9558C334.289 -42.4055 334.861 -42.8489 335.475 -43.2065Z" fill="#333333"/>
<path d="M311.444 -18.1674C311.301 -18.0021 311.321 -17.6441 311.705 -17.9862C312.48 -18.1963 313.245 -18.528 313.977 -18.8549C314.942 -19.2863 315.801 -19.8794 316.644 -20.5112C317.46 -21.1224 318.334 -21.6553 319.137 -22.2826C320.144 -23.069 321.1 -23.9174 322.061 -24.7581C325.808 -28.0377 328.855 -32.082 331.868 -36.0171C332.811 -37.2481 333.714 -38.4928 334.629 -39.7434C335.303 -40.6648 336.077 -41.5179 336.596 -42.5433C336.733 -42.8147 337.18 -43.4522 336.762 -43.672M311.444 -18.1674C311.755 -18.4802 312.013 -18.8279 312.326 -19.1431C315.212 -22.0438 317.92 -25.1282 320.764 -28.0731C323.227 -30.6238 325.362 -33.4579 327.754 -36.0703C329.629 -38.1191 331.59 -40.1905 333.741 -41.9558C334.289 -42.4055 334.861 -42.8489 335.475 -43.2065C335.772 -43.3796 336.387 -43.8695 336.762 -43.672M311.444 -18.1674C311.142 -17.8639 311.149 -17.6997 311.363 -17.3167C312.146 -15.9151 313.195 -14.6618 314.057 -13.3072C314.713 -12.277 315.256 -11.1825 315.99 -10.2028C316.741 -9.20184 317.44 -8.14295 318.129 -7.09887C324.168 2.04443 332.705 9.15297 341.234 15.8854C343.56 17.7214 346.001 19.4042 348.334 21.228C350.859 23.2007 353.321 25.2684 355.661 27.4573C357.796 29.4549 359.999 31.378 362.18 33.325C365.055 35.8912 368.118 38.2252 371.098 40.6661C374.54 43.4856 377.624 46.7462 380.772 49.8784C381.301 50.4048 381.892 51.2327 382.549 51.6018C383.033 51.8735 383.165 51.8251 383.635 51.3925C384.741 50.3736 385.706 49.3063 386.687 48.1718C387.13 47.6587 387.578 47.1488 388.02 46.6345C388.323 46.2823 388.775 45.9043 388.924 45.4547C389.068 45.018 388.931 44.6362 388.682 44.2632C388.103 43.3935 387.36 42.5829 386.66 41.8104C384.906 39.8749 383.345 37.9384 381.949 35.7217C378.206 29.777 373.928 24.2097 369.389 18.8527C365.077 13.7638 360.725 8.66491 355.993 3.95722C352.808 0.788832 349.666 -2.37737 346.201 -5.23506C345.863 -5.51348 345.48 -5.73153 345.102 -5.94996C344.872 -6.08294 344.614 -6.3224 344.371 -6.41263C344.273 -6.44916 344.008 -6.59113 344.113 -6.59139C344.491 -6.59236 344.893 -6.341 345.254 -6.2404C346.496 -5.89455 347.633 -5.52949 348.897 -6.06308C349.655 -6.38279 349.992 -7.09062 350.402 -7.7385C350.418 -7.76395 350.477 -7.96356 350.51 -7.96C350.72 -7.93721 351.021 -7.29625 351.141 -7.1554C352.586 -5.45685 354.425 -3.98382 356.163 -2.60138C361.938 1.99451 367.595 6.72218 373.087 11.6556C378.365 16.3964 383.444 21.3515 388.969 25.8121C390.037 26.6749 391.118 27.5269 392.249 28.3059C393.306 29.0336 394.407 29.7063 395.431 30.4804C396.605 31.3677 397.807 32.3214 399.066 33.0863C399.392 33.2848 399.733 33.6689 400.1 33.7817C400.227 33.8208 400.37 33.746 400.471 33.675C400.966 33.3243 401.408 32.9006 401.861 32.4989C402.63 31.8186 403.338 31.0654 404.058 30.335C404.786 29.5964 405.573 28.7816 406.117 27.8912C406.47 27.3113 406.308 26.8327 405.923 26.3161C405.132 25.2537 404.198 24.3004 403.388 23.2501C400.916 20.0415 398.711 16.6347 396.183 13.4685C393.3 9.85927 389.984 6.56309 386.864 3.15901C384.038 0.0748756 381.281 -3.07735 378.605 -6.29291C377.329 -7.82656 376.056 -9.35957 374.818 -10.9239C373.524 -12.5573 372.109 -14.0865 370.789 -15.6968C366.7 -20.6818 362.42 -25.49 357.601 -29.7866C355.437 -31.7166 353.23 -33.5646 350.764 -35.1077C349.591 -35.8414 348.446 -36.6197 347.26 -37.333C345.962 -38.114 344.778 -39.4938 343.444 -40.2106C341.689 -41.1532 338.524 -42.7561 336.762 -43.672" stroke="white" stroke-linecap="round"/>
<path d="M296.182 54.3417C296.451 54.4951 296.699 54.5974 297.258 54.7252C298.346 54.9743 298.54 55.0628 299.153 55.3437L299.162 55.3479C299.844 55.6604 300.537 55.9138 301.251 56.1473C303.293 56.8147 305.306 57.618 307.376 58.1873C309.927 58.8886 312.459 59.6107 315.037 60.2141C317.954 60.897 320.903 61.4406 323.843 62.0113C326.255 62.4795 328.693 62.7991 331.104 63.2622C331.853 63.4059 332.63 63.7113 333.399 63.5695C333.75 63.5049 333.851 62.7519 333.938 62.4567C334.304 61.2043 334.263 59.7527 334.369 58.4565C334.473 57.2037 334.425 55.9405 334.541 54.6877L334.549 54.5944C334.664 53.3608 334.785 52.0584 334.704 50.8243C334.617 49.4793 334.499 48.2112 334.21 46.8908C333.945 45.681 333.605 44.4937 333.264 43.3066L333.233 43.1968C332.678 41.2595 331.474 39.4095 330.086 37.9484C329.329 37.1513 328.601 36.3222 327.777 35.592C326.526 34.4836 325.07 33.6159 323.615 32.8034C321.637 31.698 319.726 30.5239 317.618 29.6711C315.384 28.7671 313.213 27.843 310.813 27.4771C309.472 27.2725 308.143 27.0823 306.789 26.993C305.568 26.9126 304.335 26.9836 303.115 27.0399C301.954 27.0936 300.811 27.3672 299.667 27.5543C298.398 27.7616 297.132 28.0004 295.911 28.4084C293.622 29.1733 291.202 30.1757 289.176 31.4964C287.341 32.6928 285.763 34.0388 284.291 35.653C283.44 36.5854 282.56 37.478 281.802 38.4909C281.159 39.3509 280.654 40.277 280.178 41.237C279.737 42.1254 279.258 43.0014 278.886 43.9215C278.575 44.6896 278.391 45.4869 278.193 46.2892C277.753 48.0677 277.154 50.7629 279.481 51.4037C280.587 51.7081 281.728 51.6905 282.868 51.7766C284.571 51.9053 286.268 52.049 287.962 52.275C289.744 52.5127 291.501 52.8911 293.251 53.2964C294.272 53.5331 295.265 53.8199 296.182 54.3417Z" fill="#333333" stroke="white" stroke-linecap="round"/>
<path d="M309.865 27.4189C309.917 27.4013 309.792 27.5033 309.751 27.5394C309.344 27.89 308.95 28.3449 308.587 28.7195C307.551 29.7875 306.5 30.844 305.495 31.9411C304.887 32.6049 304.391 33.3453 303.89 34.0902C303.326 34.928 302.729 35.7536 302.212 36.6217C300.624 39.2876 299.161 42.0932 297.997 44.9726C297.207 46.9254 296.485 49.0129 296.067 51.0835C295.926 51.7834 295.908 52.4856 295.82 53.1901C295.789 53.4301 295.686 53.9787 295.861 54.178" stroke="white" stroke-linecap="round"/>
<path d="M317.879 30.0122C318.035 30.0856 318.094 30.1373 318.212 30.2808C318.652 30.8154 319.068 31.3711 319.496 31.9151C320.156 32.754 320.757 33.6169 321.299 34.5374C322.319 36.2709 323.079 38.2532 323.609 40.1895C324.651 44.0017 324.018 47.9924 323.33 51.8131C323.109 53.0369 322.759 54.2289 322.522 55.4489C322.382 56.1747 322.28 56.9157 322.067 57.625C321.859 58.3159 321.139 60.3554 321.409 59.6867" stroke="white" stroke-linecap="round"/>
<path d="M308.694 26.1154C308.583 26.276 308.779 26.5485 308.961 26.6854C308.822 26.721 308.721 26.7742 308.69 26.8526C308.619 27.0264 311.153 27.4792 311.377 27.5148C312.32 27.6648 313.267 27.7633 314.216 27.8592C314.604 27.8984 315.031 27.9078 314.71 27.4379C314.082 26.5168 312.906 26.2246 311.881 26.012C311.14 25.8583 310.437 25.7694 309.68 25.8114C309.39 25.8275 308.88 25.8451 308.694 26.1154Z" fill="#333333"/>
<path d="M309.2 26.7387C309.109 26.9019 308.519 26.3691 308.694 26.1154C308.88 25.8451 309.39 25.8275 309.68 25.8114C310.437 25.7694 311.14 25.8583 311.881 26.012C312.906 26.2246 314.082 26.5168 314.71 27.4379C315.031 27.9078 314.604 27.8984 314.216 27.8592C313.267 27.7633 312.32 27.6648 311.377 27.5148C311.153 27.4792 308.619 27.0264 308.69 26.8526C308.822 26.5248 310.164 26.6359 310.42 26.6472C311.396 26.6902 312.441 26.7648 313.384 27.032C313.555 27.0805 314.073 27.2106 313.899 27.1719C313.768 27.1427 313.66 27.1307 313.534 27.0799" stroke="white" stroke-linecap="round"/>
<path d="M297.225 54.6978C296.955 54.6401 296.367 54.2276 296.083 54.2355C295.93 54.3036 297.029 56.4862 297.08 56.6654C297.578 58.4018 298.629 60.9742 299.162 62.7015C300.599 67.3616 303.231 72.6729 307.982 74.4456C310.572 75.412 313.403 75.8467 316.149 76.1119C319.457 76.4314 322.768 76.1087 326.085 76.0049C329.533 75.897 332.978 76.196 336.366 76.7264C337.122 76.8447 337.88 76.9476 338.634 77.0764C339.325 77.1945 339.98 77.4302 340.664 77.577C341.55 77.7671 342.441 77.9198 343.345 77.9829C343.879 78.0201 344.187 78.0188 344.151 77.4714C344.099 76.6621 343.661 75.9788 343.231 75.3363C341.936 73.4025 340.595 71.4358 339.06 69.6978C338.189 68.711 337.273 67.7787 336.422 66.7729C335.879 66.1318 335.394 65.4438 334.848 64.8056C333.404 63.1181 331.01 62.2904 328.964 61.6957C325.609 60.7204 322.112 60.1914 318.682 59.5353C314.558 58.7466 310.65 57.695 306.532 56.8769C304.656 56.5041 301.881 55.6593 300.008 55.2699C299.081 55.077 298.152 54.8956 297.225 54.6978Z" fill="#333333" stroke="white" stroke-linecap="round"/>
<path d="M23.8167 255.423C24.0863 255.576 24.3341 255.679 24.8925 255.806C25.9812 256.055 26.1743 256.144 26.7875 256.425L26.7966 256.429C27.4789 256.742 28.1715 256.995 28.8859 257.228C30.9277 257.896 32.9404 258.699 35.011 259.268C37.562 259.97 40.094 260.692 42.6715 261.295C45.5885 261.978 48.5374 262.522 51.4775 263.092C53.8894 263.561 56.3282 263.88 58.7392 264.343C59.4875 264.487 60.2651 264.792 61.0341 264.651C61.3844 264.586 61.4861 263.833 61.5725 263.538C61.9391 262.285 61.8974 260.834 62.0041 259.538C62.1073 258.285 62.0593 257.022 62.1754 255.769L62.1841 255.675C62.2985 254.442 62.4193 253.139 62.3392 251.905C62.2518 250.56 62.1339 249.292 61.8447 247.972C61.5797 246.762 61.2394 245.575 60.8991 244.388L60.8676 244.278C60.3124 242.341 59.1088 240.491 57.7209 239.029C56.9637 238.232 56.2358 237.403 55.4115 236.673C54.1603 235.565 52.7043 234.697 51.2501 233.884C49.2717 232.779 47.3611 231.605 45.253 230.752C43.0187 229.848 40.8476 228.924 38.4481 228.558C37.107 228.354 35.7782 228.163 34.4233 228.074C33.2031 227.994 31.9695 228.065 30.7493 228.121C29.5884 228.175 28.4456 228.448 27.3014 228.635C26.033 228.843 24.7671 229.081 23.546 229.489C21.2571 230.254 18.837 231.257 16.811 232.577C14.9756 233.774 13.3977 235.12 11.9255 236.734C11.0752 237.666 10.1947 238.559 9.43701 239.572C8.79369 240.432 8.28905 241.358 7.81273 242.318C7.37197 243.206 6.89299 244.082 6.52074 245.003C6.20997 245.771 6.02616 246.568 5.82767 247.37C5.38764 249.149 4.78868 251.844 7.11603 252.485C8.22147 252.789 9.36238 252.772 10.5025 252.858C12.206 252.986 13.9032 253.13 15.597 253.356C17.3791 253.594 19.1356 253.972 20.8854 254.377C21.9072 254.614 22.9 254.901 23.8167 255.423Z" fill="#333333" stroke="white" stroke-linecap="round"/>
<path d="M37.4995 228.499C37.5519 228.482 37.4272 228.584 37.3853 228.62C36.9786 228.971 36.5845 229.426 36.2214 229.8C35.1858 230.868 34.1348 231.925 33.1298 233.022C32.5216 233.686 32.0262 234.426 31.5247 235.171C30.9607 236.009 30.3639 236.834 29.8467 237.702C28.2583 240.368 26.7962 243.174 25.6313 246.053C24.8413 248.006 24.1195 250.093 23.7018 252.164C23.5606 252.864 23.5429 253.566 23.4543 254.271C23.4241 254.511 23.3203 255.059 23.496 255.259" stroke="white" stroke-linecap="round"/>
<path d="M45.5139 231.093C45.6693 231.166 45.7285 231.218 45.8466 231.361C46.2864 231.896 46.7027 232.452 47.1306 232.996C47.7904 233.835 48.3917 234.697 48.9336 235.618C49.9541 237.351 50.7142 239.334 51.2435 241.27C52.2858 245.082 51.6529 249.073 50.9643 252.894C50.7437 254.118 50.3935 255.309 50.1571 256.529C50.0165 257.255 49.9146 257.996 49.7017 258.706C49.4943 259.396 48.7736 261.436 49.0441 260.767" stroke="white" stroke-linecap="round"/>
<path d="M36.3287 227.196C36.2181 227.357 36.414 227.629 36.5958 227.766C36.4572 227.802 36.3564 227.855 36.3247 227.933C36.2544 228.107 38.7881 228.56 39.0122 228.595C39.9552 228.745 40.902 228.844 41.8512 228.94C42.2394 228.979 42.6656 228.988 42.3452 228.518C41.7174 227.597 40.5405 227.305 39.5156 227.093C38.7752 226.939 38.0722 226.85 37.3148 226.892C37.0246 226.908 36.5149 226.926 36.3287 227.196Z" fill="#333333"/>
<path d="M36.835 227.819C36.744 227.982 36.154 227.45 36.3287 227.196C36.5149 226.926 37.0246 226.908 37.3148 226.892C38.0722 226.85 38.7752 226.939 39.5156 227.093C40.5405 227.305 41.7174 227.597 42.3452 228.518C42.6656 228.988 42.2394 228.979 41.8512 228.94C40.902 228.844 39.9552 228.745 39.0122 228.595C38.7881 228.56 36.2544 228.107 36.3247 227.933C36.4573 227.605 37.7987 227.716 38.0555 227.728C39.0309 227.771 40.0757 227.845 41.0187 228.113C41.19 228.161 41.708 228.291 41.5342 228.252C41.4032 228.223 41.2949 228.211 41.1693 228.16" stroke="white" stroke-linecap="round"/>
<path d="M24.8605 255.778C24.59 255.721 24.0025 255.308 23.7176 255.316C23.5646 255.384 24.6641 257.567 24.7155 257.746C25.2134 259.482 26.2644 262.055 26.7969 263.782C28.2338 268.442 30.8661 273.753 35.6169 275.526C38.2066 276.493 41.0381 276.927 43.7841 277.192C47.0918 277.512 50.4028 277.189 53.7202 277.085C57.168 276.978 60.6135 277.277 64.0014 277.807C64.757 277.925 65.5149 278.028 66.2687 278.157C66.9602 278.275 67.6155 278.511 68.2993 278.658C69.1846 278.848 70.0758 279 70.9803 279.063C71.5145 279.101 71.8216 279.099 71.7861 278.552C71.7338 277.743 71.2962 277.059 70.866 276.417C69.5712 274.483 68.2298 272.516 66.6952 270.778C65.824 269.792 64.9077 268.859 64.0568 267.854C63.5143 267.212 63.029 266.524 62.4829 265.886C61.0387 264.199 58.6446 263.371 56.599 262.776C53.2436 261.801 49.7474 261.272 46.3171 260.616C42.1934 259.827 38.2848 258.776 34.1673 257.957C32.2913 257.585 29.5156 256.74 27.6434 256.35C26.7162 256.158 25.7867 255.976 24.8605 255.778Z" fill="#333333" stroke="white" stroke-linecap="round"/>
<path d="M374.933 105.375C375.107 104.916 375.51 103.539 376.027 103.454C379.663 103.454 382.905 104.222 386.413 105.212C387.963 105.649 393.346 106.749 392.73 109.301C392.094 111.937 391.668 114.684 390.788 117.254C389.931 119.757 389.566 122.453 388.723 124.982C387.828 127.667 386.825 130.335 385.861 132.996C383.405 139.775 381.33 146.691 378.981 153.503C377.686 157.258 375.482 163.58 370.68 163.981C366.576 164.323 362.474 163.335 358.475 162.437C355.739 161.823 353.228 160.698 350.593 159.759C348.38 158.97 346.095 158.394 343.928 157.469C341.974 156.635 340.007 155.243 338.306 153.973C337.202 153.149 335.52 151.615 335.219 150.19C334.628 147.397 337.354 145.422 339.778 144.589C343.493 143.312 347.092 143.198 350.992 143.198C352.996 143.198 354.908 143.476 356.89 143.709C358.017 143.842 359.126 143.865 360.202 144.261C361.466 144.727 362.439 141.163 362.635 140.581C363.975 136.614 365.478 132.644 367.051 128.764C368.139 126.083 368.847 123.217 369.73 120.464C371.356 115.388 373.042 110.361 374.933 105.375Z" fill="#333333" stroke="white" stroke-linecap="round"/>
<path d="M377.867 154.611C372.513 154.611 367.055 156.256 362.881 159.671C362.382 160.079 361.781 160.426 361.347 160.908C361.176 161.099 360.179 162.191 360.57 161.603" stroke="white" stroke-linecap="round"/>
<path d="M382.669 100.736C382.843 100.277 383.247 98.899 383.763 98.814C387.399 98.814 390.641 99.5827 394.149 100.572C395.699 101.009 401.082 102.109 400.466 104.661C399.83 107.298 399.404 110.044 398.524 112.614C397.667 115.117 397.302 117.814 396.459 120.342C395.564 123.028 394.561 125.695 393.597 128.357C391.141 135.135 389.066 142.051 386.717 148.863C385.422 152.619 383.218 158.941 378.417 159.341C374.312 159.683 370.211 158.695 366.211 157.797C363.476 157.183 360.964 156.058 358.33 155.119C356.116 154.33 353.831 153.754 351.665 152.829C349.71 151.995 347.744 150.603 346.042 149.333C344.939 148.509 343.256 146.975 342.955 145.551C342.364 142.758 345.09 140.782 347.514 139.949C351.229 138.672 354.828 138.559 358.728 138.559C360.732 138.559 362.644 138.837 364.627 139.07C365.753 139.202 366.863 139.225 367.939 139.622C369.202 140.087 370.175 136.524 370.372 135.942C371.711 131.974 373.214 128.004 374.788 124.125C375.875 121.444 376.583 118.578 377.466 115.824C379.093 110.748 380.778 105.721 382.669 100.736Z" fill="#333333" stroke="white" stroke-linecap="round"/>
<path d="M287.526 340.921C286.723 341.415 286.069 342.117 285.407 342.78C284.675 343.756 284.642 344.671 284.014 345.713C283.655 346.309 283.397 346.777 282.764 347.122C282.049 347.512 281.297 347.493 280.511 347.407C278.513 347.188 276.719 346.182 274.853 345.51C272.861 344.793 271.363 343.147 270.357 341.338C269.988 340.673 269.523 340.086 269.299 339.35C269.208 339.05 269.455 338.629 269.579 338.366C269.899 337.689 270.227 337.016 270.481 336.31C270.877 335.207 271.025 333.998 271.108 332.834C271.188 331.735 271.27 330.608 271.495 329.528C271.728 328.408 272.054 327.324 272.419 326.239C272.786 325.144 273.139 324.051 273.518 322.96C274.053 321.423 274.929 319.965 275.895 318.662C276.86 317.359 277.981 316.087 279.223 315.044C280.651 313.843 282.279 313.015 284.025 312.384C285.41 311.884 287.084 311.964 288.529 312.116C290.019 312.272 291.667 312.687 292.934 313.508C294.019 314.211 294.717 315.343 295.226 316.505C295.844 317.913 295.943 319.344 295.769 320.86C295.419 323.91 293.476 326.672 291.498 328.92C291.089 329.385 290.614 329.798 290.177 330.236C290.01 330.403 290.089 330.374 290.251 330.288C291.306 329.725 292.423 329.564 293.625 329.556C294.63 329.549 295.62 329.627 296.613 329.775C297.33 329.882 297.824 330.323 298.126 330.959C298.865 332.514 297.973 334.029 296.931 335.17C296.283 335.88 295.588 336.456 294.79 336.993C294.506 337.184 294.22 337.37 293.916 337.527C291.78 338.632 289.575 339.661 287.526 340.921Z" fill="#333333" stroke="white" stroke-linecap="round"/>
<path d="M269.272 338.832C269.148 338.931 268.856 338.897 268.713 338.925C268.137 339.036 267.566 339.202 267.024 339.429C266.617 339.599 266.086 339.83 265.928 340.273C265.781 340.684 265.547 340.81 265.201 341.077C264.778 341.403 264.458 341.518 264.733 342.039C264.967 342.483 264.318 342.817 264.124 343.171C264.044 343.317 264.127 343.493 264.138 343.645C264.162 344 264.037 344.343 264.003 344.692C263.935 345.402 264.442 346.143 264.812 346.704C265.429 347.639 266.323 348.443 267.126 349.215C268.987 351.007 271.11 352.526 273.51 353.506C274.108 353.749 274.735 353.899 275.366 354.029C276.042 354.169 276.687 354.368 277.381 354.413C278.568 354.49 279.827 354.586 280.996 354.322C281.915 354.116 283.063 353.827 283.719 353.092C284.318 352.42 284.371 351.54 284.371 350.682C284.371 349.834 284.242 348.916 283.949 348.119C283.805 347.727 283.64 347.367 283.362 347.05" stroke="white" stroke-linecap="round"/>
<path d="M301.23 339.789C301.751 340.208 302.749 341.024 303.22 341.494C303.367 341.641 302.86 340.816 302.729 340.461C302.519 339.894 302.31 339.318 302.142 338.737C301.773 337.456 301.591 336.105 301.493 334.778C301.292 332.082 301.789 329.083 303.582 326.977C304.785 325.563 306.396 324.629 308.225 324.318C309.829 324.045 311.401 324.249 312.968 324.619C316.366 325.423 318.758 327.966 320.09 331.108C320.829 332.853 321.417 334.741 321.888 336.577C322.28 338.106 322.543 339.668 322.661 341.242C322.85 343.755 323.159 346.262 323.253 348.781C323.29 349.775 323.293 350.761 323.204 351.752C323.139 352.462 323.224 353.33 322.836 353.967C322.246 354.936 321.001 355.602 320.029 356.105C318.78 356.752 317.469 357.306 316.098 357.63C313.886 358.152 311.727 358.542 309.445 358.466C309.001 358.451 308.593 358.42 308.154 358.468C308.043 358.481 308.052 358.435 307.995 358.32C307.785 357.9 307.741 357.414 307.535 356.985C307.239 356.371 306.817 355.804 306.378 355.286C305.789 354.591 305.178 353.907 304.53 353.265C304.036 352.776 303.433 352.385 302.973 351.867C301.772 350.516 300.559 349.189 299.338 347.854C298.28 346.698 297.311 345.566 296.718 344.099C296.289 343.038 295.902 341.702 296.164 340.557C296.528 338.961 298.253 338.771 299.577 339.178C300.126 339.347 300.767 339.418 301.23 339.789Z" fill="#333333" stroke="white" stroke-linecap="round"/>
</svg>
