<svg width="311" height="276" viewBox="0 0 311 276" fill="none" xmlns="http://www.w3.org/2000/svg">
<path d="M113.157 198.625C113.144 198.313 113.116 197.995 113.157 197.684C113.326 197.215 114.288 197.853 114.41 197.898C114.956 198.098 115.645 198.043 116.212 198.036C117.955 198.016 119.689 197.696 121.403 197.395C123.93 196.951 126.437 196.213 128.831 195.296C131.306 194.348 133.732 193.128 136.155 192.056C138.578 190.984 140.517 189.68 142.67 188.227C144.476 187.008 146.482 185.927 147.623 184.14C148.025 183.529 148.903 182.924 149.088 183.175C149.252 183.397 149.56 183.582 149.757 183.801C150.374 184.487 150.933 185.246 151.461 186.001C152.539 187.541 153.675 189.058 154.854 190.523C156.635 192.736 158.528 194.845 160.388 196.991C162.36 199.267 164.611 201.3 166.471 203.668C168.258 205.944 170.073 208.163 172.027 210.298C173.156 211.53 174.151 212.871 175.263 214.115C175.448 214.322 175.606 214.502 175.367 214.729C175.086 214.996 174.73 215.161 174.443 215.416C174.26 215.579 174.553 215.991 174.649 216.164C174.857 216.536 175.283 217.034 175.155 217.498C175.103 217.687 174.669 217.891 174.523 217.999C173.954 218.421 173.343 218.769 172.724 219.111C171.109 220.003 169.567 221.022 168.005 222.002C166.896 222.698 165.702 223.272 164.638 224.038C164.423 224.193 164.299 223.995 164.142 223.854C163.892 223.629 163.921 223.42 163.579 223.571C162.85 223.893 162.277 224.459 161.69 224.98C161.47 225.175 161.257 225.443 160.974 225.551C160.896 225.581 160.812 225.486 160.739 225.46C160.63 225.422 160.957 225.859 160.978 225.89C161.145 226.136 161.278 226.178 161.041 226.373C160.764 226.6 160.336 226.701 160.017 226.853C159.484 227.108 158.959 227.371 158.417 227.607C157.715 227.913 156.984 228.149 156.282 228.454C155.537 228.778 154.815 229.148 154.074 229.48C152.646 230.12 151.211 230.752 149.737 231.279L149.655 231.309C149.164 231.485 148.675 231.66 148.178 231.82C148.033 231.867 147.761 232.046 147.605 232.023C147.395 231.991 147.212 231.416 147.142 231.257C147.011 230.961 146.915 230.588 146.539 230.671C146.004 230.791 145.495 231.084 144.994 231.306C144.567 231.495 145.502 232.209 144.965 232.339C144.481 232.455 144.019 232.66 143.538 232.8C142.614 233.068 141.69 233.283 140.786 233.617C139.663 234.031 138.56 234.515 137.458 234.981C136.488 235.391 135.47 235.726 134.479 236.08C133.491 236.433 132.518 236.825 131.526 237.167C131.235 237.267 130.943 237.328 130.662 237.452C130.591 237.483 130.506 237.543 130.428 237.518C129.939 237.357 130.236 236.129 129.649 236.123C129.177 236.118 128.765 236.532 128.281 236.485C128.031 236.461 128.102 236.549 128.151 236.772C128.225 237.102 128.446 237.98 128.05 238.169C127.754 238.311 127.387 238.343 127.076 238.457C125.458 239.051 123.623 238.875 121.928 238.941C121.48 238.959 121.032 238.926 120.587 238.88C120.482 238.87 120.101 238.855 120.03 238.748C119.853 238.478 119.81 238.206 119.699 237.896C119.623 237.682 119.611 237.375 119.311 237.508C118.958 237.664 118.532 237.757 118.147 237.742C117.743 237.727 117.122 237.7 116.982 237.224C116.8 236.608 116.653 235.987 116.514 235.36C116.226 234.067 116.146 232.738 115.941 231.429C115.652 229.585 115.523 227.711 115.359 225.853C114.968 221.442 114.551 217.031 114.237 212.613C114.054 210.042 113.616 207.494 113.535 204.913C113.496 203.672 113.446 202.447 113.322 201.21C113.236 200.351 113.193 199.488 113.157 198.625Z" fill="#333333" stroke="white" stroke-linecap="round"/>
<path d="M113.727 197.036C113.588 197.19 112.694 197.976 113.562 197.942C113.842 198.007 114.179 197.958 114.466 197.953C114.936 197.946 115.393 197.99 115.861 198.02C117.026 198.095 118.24 198.049 119.401 197.939C123.274 197.571 126.964 196.141 130.539 194.677C135.238 192.753 139.779 190.41 143.981 187.551C145.332 186.633 146.589 185.637 147.671 184.41C147.997 184.04 148.418 183.7 148.685 183.28C148.709 183.242 148.896 182.991 148.828 182.973C148.694 182.938 148.625 182.831 148.467 182.817C147.691 182.746 146.791 183.052 146.06 183.251C143.918 183.833 141.821 184.58 139.74 185.349C133.306 187.729 126.716 189.821 120.596 192.956C119.088 193.729 117.594 194.531 116.1 195.332C115.261 195.782 114.373 196.324 113.727 197.036Z" fill="#333333" stroke="white" stroke-linecap="round"/>
<path d="M151.379 206.283C152.213 208.102 153.068 209.919 154.003 211.689C154.686 212.983 155.229 214.347 155.869 215.664C156.832 217.643 157.803 219.617 158.791 221.584C159.546 223.086 160.343 224.611 161.312 225.986" stroke="white" stroke-linecap="round"/>
<path d="M156.322 212.18C157.677 214.355 159.059 216.517 160.476 218.653C161.195 219.737 161.983 220.774 162.699 221.862C163.207 222.634 163.748 223.416 164.37 224.1" stroke="white" stroke-linecap="round"/>
<path d="M142.244 220.74C143.036 222.213 143.677 223.773 144.359 225.3C144.888 226.486 145.545 227.606 146.091 228.782C146.562 229.797 147.033 230.851 147.663 231.779" stroke="white" stroke-linecap="round"/>
<path d="M140.34 218.857C140.567 219.764 140.895 220.652 141.186 221.539C141.557 222.675 141.931 223.804 142.375 224.913C142.845 226.086 143.263 227.279 143.756 228.443C144.231 229.565 144.698 230.688 145.191 231.803" stroke="white" stroke-linecap="round"/>
<path d="M126.832 220.015C127.424 222.655 127.874 225.333 128.414 227.986C128.686 229.324 128.983 230.654 129.268 231.989C129.453 232.855 129.571 233.731 129.734 234.601C129.877 235.366 130.188 236.129 130.261 236.899" stroke="white" stroke-linecap="round"/>
<path d="M126.523 225.365C127.113 229.464 127.738 233.563 128.174 237.68" stroke="white" stroke-linecap="round"/>
<path d="M116.767 221.254C116.886 222.158 117.091 223.062 117.252 223.958C117.487 225.271 117.702 226.588 117.934 227.902C118.188 229.343 118.5 230.793 118.824 232.219C119.061 233.262 119.344 234.295 119.58 235.339C119.81 236.36 119.93 237.414 120.223 238.419" stroke="white" stroke-linecap="round"/>
<path d="M165.308 204.211C165.575 204.7 165.97 205.151 166.297 205.591C167.155 206.742 168.005 207.9 168.89 209.031C169.624 209.968 170.358 210.904 171.103 211.832C172.199 213.196 173.185 214.987 174.722 215.916" stroke="white" stroke-linecap="round"/>
<path d="M167.134 217.213C167.24 217.11 167.339 216.998 167.437 216.893C167.814 216.491 168.277 216.075 168.567 215.601C168.669 215.435 168.58 215.63 168.439 215.897C168.48 215.853 168.523 215.811 168.567 215.772C168.674 215.674 168.418 216.021 168.334 216.139C168.299 216.189 168.261 216.239 168.222 216.287C168.151 216.407 168.082 216.515 168.028 216.583C167.657 217.053 167.189 217.427 166.641 217.653C166.507 217.774 166.342 217.926 166.599 217.675C166.602 217.672 166.605 217.669 166.608 217.666C166.558 217.686 166.507 217.705 166.455 217.723C166.345 217.76 166.235 217.767 166.125 217.771C166.038 217.805 165.95 217.83 165.86 217.84C165.852 217.841 165.84 217.84 165.827 217.838C165.782 217.831 165.727 217.81 165.8 217.796C165.868 217.783 165.935 217.778 166.002 217.775C167.042 217.36 167.855 216.279 168.517 215.469C168.747 215.188 168.278 215.868 168.232 215.925C167.833 216.413 167.397 216.879 166.95 217.328C167.012 217.291 167.073 217.252 167.134 217.213Z" fill="#333333"/>
<path d="M166.796 217.474C167.049 217.334 167.243 217.1 167.437 216.893C167.814 216.491 168.277 216.075 168.567 215.601C168.762 215.282 168.259 216.29 168.028 216.583C167.616 217.106 167.084 217.509 166.455 217.723C166.238 217.796 166.022 217.753 165.8 217.796C165.706 217.814 165.824 217.844 165.86 217.84C166.117 217.811 166.368 217.658 166.589 217.536C167.216 217.192 167.913 216.733 168.334 216.139C168.418 216.021 168.674 215.674 168.567 215.772C168.241 216.067 167.994 216.481 167.668 216.791C167.361 217.083 167.01 217.325 166.693 217.607C166.559 217.726 166.307 217.959 166.599 217.675C167.168 217.121 167.729 216.541 168.232 215.925C168.278 215.868 168.747 215.188 168.517 215.469C167.707 216.459 166.672 217.855 165.273 217.943C165.238 217.945 164.802 217.918 164.934 217.995C165.238 218.174 165.777 217.888 166.064 217.798" stroke="white" stroke-linecap="round"/>
<path d="M226.047 190.803C224.618 189.77 221.782 186.158 221.536 186.703C220.611 187.468 220.002 188.538 219.196 189.413C215.765 193.141 212.917 197.517 210.461 201.929C209.16 204.267 207.931 206.939 207.285 209.547C207.126 210.191 206.998 210.901 207.603 211.336C208.494 211.976 209.526 212.344 210.497 212.841C211.91 213.565 213.204 214.478 214.643 215.156C216.114 215.849 217.683 216.253 219.158 216.916C219.59 217.11 219.775 217.295 220.009 216.859C220.645 215.675 221.235 214.365 221.812 213.138C222.276 212.153 222.626 211.153 223.042 210.15C223.232 209.69 223.621 207.809 224.096 208.387C225.204 209.734 225.65 211.724 226.469 213.255C229.58 219.069 231.853 225.43 232.622 232.001C232.836 233.826 232.756 235.61 232.799 237.438C232.818 238.241 232.85 238.08 233.46 238.217C235.506 238.678 237.698 238.44 239.724 238.012C243.19 237.28 246.723 236.741 250.07 235.537C252.066 234.82 254.099 234.19 256.053 233.358C258.178 232.454 260.185 231.339 262.201 230.218L262.26 230.185C264.261 229.073 266.313 228.057 268.305 226.925C269.355 226.329 270.525 225.73 271.442 224.932C271.847 224.58 271.849 224.513 271.344 224.276C270.662 223.954 269.999 223.149 269.543 222.557C265.77 217.657 262.447 212.35 260.339 206.487C259.264 203.496 258.342 200.482 258.033 197.304C257.99 196.852 257.664 195.203 258.021 194.845C258.125 194.741 258.798 194.984 258.952 195.009C259.9 195.164 260.834 195.324 261.802 195.451C262.991 195.606 264.244 195.486 265.405 195.83C265.974 195.998 266.47 196.184 267.067 196.104C267.368 196.063 267.423 195.251 267.489 195.025C268.081 192.968 268.527 190.843 269.281 188.831C270.139 186.543 271.176 184.246 272.157 182.013C272.359 181.554 272.728 180.775 272.2 180.44C271.678 180.109 271.061 179.91 270.527 179.596C268.548 178.434 266.338 177.447 264.04 177.141C260.963 176.732 258.244 175.17 255.05 175.309C252.385 175.425 249.542 176.004 246.887 175.657C246.654 175.626 245.414 175.414 245.47 175.855C245.539 176.391 245.824 176.936 245.922 177.477C246.367 179.923 245.98 182.173 244.759 184.344C242.141 189.001 236.768 193.334 231.179 192.583C229.553 192.365 227.362 191.754 226.047 190.803Z" fill="#333333" stroke="white" stroke-linecap="round"/>
<path d="M262.368 222.521C261.781 223.685 261.269 224.875 260.865 226.113C260.718 226.563 261.931 226.286 262.085 226.234C263.068 225.901 263.365 225.502 263.342 224.537" stroke="white" stroke-linecap="round"/>
<path d="M303.535 230.302C303.689 229.972 303.89 229.496 304.219 229.295C304.053 229.09 306.806 229.154 308.272 229.135C309.825 229.115 311.392 228.957 312.94 228.841C314.67 228.713 316.402 228.679 318.136 228.652C320.382 228.617 322.624 228.488 324.872 228.495C327.176 228.502 329.485 228.636 331.785 228.761C334.974 228.935 338.223 229.207 341.32 230.044C342.295 230.307 343.265 230.735 343.9 231.546C344.345 232.114 344.52 232.765 344.594 233.477C344.669 234.214 344.875 234.975 344.768 235.719C344.739 235.922 344.529 236.501 344.608 236.676C344.759 237.007 345.046 237.284 345.251 237.589C345.591 238.094 345.948 238.587 346.288 239.093C346.763 239.801 347.257 240.525 347.621 241.297C348.116 242.35 348.493 243.479 348.861 244.584L348.898 244.695C349.383 246.152 349.9 247.557 350.156 249.082C350.379 250.406 350.421 251.732 350.313 253.069C350.255 253.797 350.18 254.485 350.405 255.195C350.66 255.998 350.919 256.796 351.128 257.613C351.813 260.282 352.317 263.085 352.42 265.841C352.473 267.292 352.405 268.695 352.325 270.142C352.25 271.49 352.133 272.892 351.744 274.189C351.514 274.958 351.314 275.739 351.075 276.505C350.966 276.854 350.847 277.231 350.577 277.491C349.848 278.195 348.746 278.475 347.79 278.697C346.853 278.915 345.933 279.169 344.979 279.304C344.213 279.413 343.437 279.449 342.668 279.532C340.796 279.735 338.88 279.737 336.999 279.828C335.016 279.925 333.057 280.083 331.069 280.051C329.642 280.027 328.209 279.925 326.786 279.823L326.616 279.811C325.426 279.726 324.352 279.696 323.266 279.153C322.801 278.921 322.529 278.476 322.238 278.06C322.231 278.049 321.88 274.689 321.868 274.775C321.639 276.345 321.557 277.953 321.228 279.506C321.082 280.191 320.769 280.394 320.108 280.533C318.931 280.782 317.711 280.903 316.506 280.841C314.922 280.761 313.33 280.674 311.761 280.439C310.188 280.203 308.561 279.946 307.092 279.307C305.552 278.637 304.105 277.791 302.62 277.011C301.327 276.333 300.129 275.458 298.941 274.615C297.96 273.919 297.059 272.983 296.358 272.005C295.844 271.29 295.663 270.463 295.555 269.603C295.459 268.835 295.463 268.041 295.516 267.269C295.594 266.148 295.502 265.011 295.635 263.892C295.825 262.295 296.04 260.717 296.325 259.132C296.53 257.994 296.658 256.779 297.03 255.681C297.377 254.658 297.661 253.651 297.661 252.571C297.661 251.423 297.608 250.278 297.608 249.129C297.608 247.806 297.673 246.528 297.874 245.219C297.998 244.415 298.129 243.502 298.556 242.796C298.841 242.324 299.357 241.995 299.767 241.638C300.33 241.148 300.922 240.68 301.497 240.201C301.998 239.784 302.461 239.344 302.996 238.969C303.327 238.737 303.633 238.632 303.633 238.222C303.633 237.692 303.344 237.128 303.271 236.599C303.173 235.881 303.024 235.178 302.951 234.455C302.876 233.7 302.888 232.884 302.981 232.132C303.056 231.527 303.278 230.852 303.535 230.302Z" fill="#333333"/>
<path d="M304.219 229.295C303.89 229.496 303.689 229.972 303.535 230.302C303.278 230.852 303.056 231.527 302.981 232.132C302.888 232.884 302.876 233.7 302.951 234.455C303.024 235.178 303.173 235.881 303.271 236.599C303.344 237.128 303.633 237.692 303.633 238.222M304.219 229.295C304.053 229.09 306.806 229.154 308.272 229.135C309.825 229.115 311.392 228.957 312.94 228.841C314.67 228.713 316.402 228.679 318.136 228.652C320.382 228.617 322.624 228.488 324.872 228.495C327.176 228.502 329.485 228.636 331.785 228.761C334.974 228.935 338.223 229.207 341.32 230.044C342.295 230.307 343.265 230.735 343.9 231.546M304.219 229.295C304.219 230.481 305.448 231.486 306.447 231.83C308.468 232.526 310.853 232.559 312.969 232.612C315.878 232.685 318.782 232.524 321.69 232.452C324.441 232.384 327.127 232.74 329.876 232.612C331.793 232.523 333.482 232.413 335.396 232.277C337.067 232.159 342.252 231.862 343.9 231.546M303.633 238.222C303.633 238.632 303.327 238.737 302.996 238.969C302.461 239.344 301.998 239.784 301.497 240.201C300.922 240.68 300.33 241.148 299.767 241.638C299.357 241.995 298.841 242.324 298.556 242.796C298.129 243.502 297.998 244.415 297.874 245.219C297.673 246.528 297.608 247.806 297.608 249.129C297.608 250.278 297.661 251.423 297.661 252.571C297.661 253.651 297.377 254.658 297.03 255.681C296.658 256.779 296.53 257.994 296.325 259.132C296.04 260.717 295.825 262.295 295.635 263.892C295.502 265.011 295.594 266.148 295.516 267.269C295.463 268.041 295.459 268.835 295.555 269.603C295.663 270.463 295.844 271.29 296.358 272.005C297.059 272.983 297.96 273.919 298.941 274.615C300.129 275.458 301.327 276.333 302.62 277.011C304.105 277.791 305.552 278.637 307.092 279.307C308.561 279.946 310.188 280.203 311.761 280.439C313.33 280.674 314.922 280.761 316.506 280.841C317.711 280.903 318.931 280.782 320.108 280.533C320.769 280.394 321.082 280.191 321.228 279.506C321.557 277.953 321.639 276.345 321.868 274.775M303.633 238.222C304.601 238.537 308.605 239.507 309.599 239.715C311.868 240.19 314.179 240.525 316.48 240.808C318.52 241.059 320.603 241.073 322.656 241.131C324.969 241.197 327.279 241.342 329.593 241.386C333.797 241.466 338.15 241.002 342.209 239.884C343.06 239.65 344.427 238.652 345.251 237.589M321.868 274.775C322.064 273.427 322.257 272.083 322.347 270.723C322.421 269.621 322.667 268.521 322.667 267.417C322.667 267.202 322.899 267.189 323.064 267.139C323.377 267.043 323.689 266.805 323.974 266.647C324.398 266.411 324.841 266.207 325.253 265.951C325.638 265.712 326.049 265.46 326.453 265.258C326.555 265.207 327.059 264.854 326.986 265.071M321.868 274.775C321.88 274.689 322.231 278.049 322.238 278.06C322.529 278.476 322.801 278.921 323.266 279.153C324.352 279.696 325.426 279.726 326.616 279.811L326.786 279.823C328.209 279.925 329.642 280.027 331.069 280.051C333.057 280.084 335.016 279.925 336.999 279.828C338.88 279.737 340.796 279.735 342.668 279.532C343.437 279.449 344.213 279.413 344.979 279.304C345.933 279.169 346.853 278.915 347.79 278.697C348.746 278.475 349.848 278.195 350.577 277.491C350.847 277.231 350.966 276.854 351.075 276.505C351.314 275.739 351.514 274.958 351.744 274.189C352.133 272.892 352.25 271.49 352.325 270.142C352.405 268.695 352.473 267.292 352.42 265.841C352.317 263.085 351.813 260.282 351.128 257.613C350.919 256.796 350.66 255.998 350.405 255.195C350.18 254.485 350.255 253.797 350.313 253.069C350.421 251.732 350.379 250.406 350.156 249.082C349.9 247.557 349.383 246.152 348.898 244.695L348.861 244.584C348.493 243.479 348.116 242.35 347.621 241.297C347.257 240.525 346.763 239.801 346.288 239.093C345.948 238.587 345.591 238.094 345.251 237.589M345.251 237.589C345.046 237.284 344.759 237.007 344.608 236.676C344.529 236.501 344.739 235.922 344.768 235.719C344.875 234.975 344.669 234.214 344.594 233.477C344.52 232.765 344.345 232.114 343.9 231.546" stroke="white" stroke-linecap="round"/>
<path d="M149.484 255.873C149.607 255.61 149.767 255.231 150.029 255.07C149.897 254.907 152.092 254.958 153.262 254.943C154.5 254.927 155.75 254.801 156.985 254.709C158.365 254.606 159.746 254.579 161.129 254.558C162.921 254.53 164.709 254.427 166.502 254.432C168.34 254.438 170.181 254.545 172.016 254.645C174.559 254.783 177.151 255 179.621 255.668C180.398 255.878 181.172 256.219 181.679 256.866C182.033 257.319 182.173 257.838 182.231 258.406C182.292 258.994 182.456 259.601 182.371 260.195C182.348 260.356 182.18 260.818 182.243 260.958C182.363 261.222 182.592 261.442 182.756 261.685C183.027 262.088 183.312 262.482 183.583 262.885C183.961 263.45 184.356 264.027 184.646 264.643C185.041 265.483 185.341 266.384 185.635 267.264L185.635 267.264L185.664 267.353C186.051 268.515 186.464 269.636 186.668 270.852C186.846 271.909 186.879 272.966 186.793 274.032C186.747 274.613 186.687 275.161 186.867 275.728C187.07 276.368 187.276 277.005 187.443 277.656C187.99 279.785 188.392 282.02 188.473 284.219C188.516 285.376 188.462 286.495 188.398 287.65C188.338 288.724 188.244 289.842 187.935 290.877C187.751 291.491 187.591 292.113 187.401 292.724C187.314 293.003 187.219 293.303 187.004 293.511C186.422 294.072 185.543 294.295 184.781 294.473C184.033 294.646 183.3 294.849 182.538 294.957C181.927 295.044 181.309 295.072 180.696 295.139C179.202 295.301 177.675 295.302 176.174 295.375C174.592 295.452 173.03 295.579 171.444 295.552C170.306 295.534 169.163 295.452 168.028 295.371L168.028 295.371L167.893 295.361C166.943 295.293 166.087 295.27 165.221 294.837C164.85 294.651 164.633 294.296 164.401 293.965C164.395 293.956 164.115 291.276 164.105 291.345C163.923 292.597 163.858 293.879 163.595 295.118C163.479 295.664 163.229 295.826 162.702 295.937C161.763 296.136 160.79 296.232 159.829 296.183C158.566 296.119 157.296 296.05 156.044 295.862C154.79 295.674 153.492 295.469 152.321 294.959C151.092 294.425 149.938 293.75 148.754 293.128C147.723 292.587 146.767 291.89 145.819 291.217C145.037 290.662 144.318 289.915 143.759 289.136C143.35 288.565 143.205 287.906 143.119 287.22C143.042 286.607 143.046 285.973 143.088 285.358C143.15 284.463 143.077 283.557 143.183 282.665C143.334 281.39 143.506 280.132 143.733 278.868C143.896 277.961 143.999 276.991 144.296 276.116C144.572 275.3 144.799 274.497 144.799 273.635C144.799 272.72 144.756 271.806 144.756 270.89C144.756 269.835 144.808 268.815 144.969 267.771C145.068 267.13 145.172 266.402 145.512 265.839C145.74 265.462 146.152 265.2 146.478 264.915C146.927 264.524 147.4 264.151 147.858 263.769C148.257 263.436 148.627 263.085 149.054 262.786C149.318 262.601 149.562 262.517 149.562 262.191C149.562 261.768 149.331 261.318 149.273 260.896C149.195 260.323 149.076 259.763 149.018 259.186C148.958 258.584 148.968 257.933 149.042 257.333C149.101 256.851 149.279 256.313 149.484 255.873Z" fill="#333333"/>
<path d="M150.029 255.07C149.767 255.231 149.607 255.61 149.484 255.873C149.279 256.313 149.101 256.851 149.042 257.333C148.968 257.933 148.958 258.584 149.018 259.186C149.076 259.763 149.195 260.323 149.273 260.896C149.331 261.318 149.562 261.768 149.562 262.191M150.029 255.07C149.897 254.907 152.092 254.958 153.262 254.943C154.5 254.927 155.75 254.801 156.985 254.709C158.365 254.606 159.746 254.579 161.129 254.558C162.921 254.53 164.709 254.427 166.502 254.432C168.34 254.438 170.181 254.545 172.016 254.645C174.559 254.783 177.151 255 179.621 255.668C180.398 255.878 181.172 256.219 181.679 256.866M150.029 255.07C150.029 256.017 151.009 256.818 151.806 257.093C153.419 257.648 155.32 257.674 157.008 257.716C159.328 257.774 161.645 257.646 163.964 257.589C166.158 257.534 168.3 257.818 170.493 257.716C172.022 257.645 173.369 257.558 174.896 257.449C176.228 257.355 180.364 257.118 181.679 256.866M149.562 262.191C149.562 262.517 149.318 262.601 149.054 262.786C148.627 263.085 148.257 263.436 147.858 263.769C147.4 264.151 146.927 264.524 146.478 264.915C146.152 265.2 145.74 265.462 145.512 265.839C145.172 266.402 145.068 267.13 144.969 267.771C144.808 268.815 144.756 269.835 144.756 270.89C144.756 271.806 144.799 272.72 144.799 273.635C144.799 274.497 144.572 275.3 144.296 276.116C143.999 276.991 143.896 277.961 143.733 278.868C143.506 280.132 143.334 281.39 143.183 282.665C143.077 283.557 143.15 284.463 143.088 285.358C143.046 285.973 143.042 286.607 143.119 287.22C143.205 287.906 143.35 288.565 143.759 289.136C144.318 289.915 145.037 290.662 145.819 291.217C146.767 291.89 147.723 292.587 148.754 293.128C149.938 293.75 151.092 294.425 152.321 294.959C153.492 295.469 154.79 295.674 156.044 295.862C157.296 296.05 158.566 296.119 159.829 296.183C160.79 296.232 161.763 296.136 162.702 295.937C163.229 295.826 163.479 295.664 163.595 295.118C163.858 293.879 163.923 292.597 164.105 291.345M149.562 262.191C150.334 262.441 153.527 263.216 154.32 263.382C156.13 263.76 157.973 264.028 159.808 264.253C161.435 264.454 163.097 264.464 164.734 264.511C166.579 264.564 168.422 264.679 170.267 264.714C173.62 264.778 177.092 264.408 180.329 263.516C181.008 263.329 182.099 262.534 182.756 261.685M164.105 291.345C164.262 290.269 164.416 289.197 164.488 288.113C164.547 287.233 164.743 286.356 164.743 285.476C164.743 285.304 164.928 285.294 165.06 285.254C165.31 285.178 165.558 284.988 165.785 284.862C166.124 284.674 166.477 284.511 166.806 284.307C167.112 284.116 167.44 283.915 167.763 283.754C167.844 283.713 168.246 283.432 168.188 283.605M164.105 291.345C164.115 291.276 164.395 293.956 164.401 293.965C164.633 294.296 164.85 294.651 165.221 294.837C166.087 295.27 166.943 295.293 167.893 295.361L168.028 295.371C169.163 295.452 170.306 295.534 171.444 295.552C173.03 295.579 174.592 295.452 176.174 295.375C177.675 295.302 179.202 295.301 180.696 295.139C181.309 295.072 181.927 295.044 182.538 294.957C183.3 294.849 184.033 294.646 184.781 294.473C185.543 294.295 186.422 294.072 187.004 293.511C187.219 293.303 187.314 293.003 187.401 292.724C187.591 292.113 187.751 291.491 187.935 290.877C188.244 289.842 188.338 288.724 188.398 287.65C188.462 286.495 188.516 285.376 188.473 284.219C188.392 282.02 187.99 279.785 187.443 277.656C187.276 277.005 187.07 276.368 186.867 275.728C186.687 275.161 186.747 274.613 186.793 274.032C186.879 272.966 186.846 271.909 186.668 270.852C186.464 269.636 186.051 268.515 185.664 267.353L185.635 267.264C185.341 266.384 185.041 265.483 184.646 264.643C184.356 264.027 183.961 263.45 183.583 262.885C183.312 262.482 183.027 262.088 182.756 261.685M182.756 261.685C182.592 261.442 182.363 261.222 182.243 260.958C182.18 260.818 182.348 260.356 182.371 260.195C182.456 259.601 182.292 258.994 182.231 258.406C182.173 257.838 182.033 257.319 181.679 256.866" stroke="white" stroke-linecap="round"/>
<path d="M164.263 261.693C164.195 261.701 164.135 261.68 164.085 261.641C164.054 261.643 164.024 261.643 163.997 261.641C163.819 261.631 163.839 261.384 163.913 261.28C163.913 261.279 163.913 261.279 163.914 261.279C164.025 261.123 164.26 261.068 164.441 261.094C164.989 261.175 164.641 261.65 164.263 261.693Z" fill="#333333"/>
<path d="M164.19 260.815C163.752 260.815 163.865 261.739 164.263 261.693C164.641 261.65 164.989 261.175 164.441 261.094C164.26 261.068 164.024 261.123 163.913 261.28C163.839 261.384 163.819 261.631 163.997 261.641C164.138 261.65 164.377 261.612 164.434 261.458C164.48 261.335 164.322 261.388 164.275 261.407" stroke="white" stroke-linecap="round"/>
<path d="M163.895 260.858C164.392 262.113 164.53 263.551 164.379 264.886C164.222 266.277 163.623 267.438 163.082 268.702C161.862 271.549 161.825 275.024 163.044 277.868" stroke="white" stroke-linecap="round"/>
<path d="M168.919 261.351C168.904 261.353 168.891 261.355 168.877 261.356C168.807 261.457 168.689 261.506 168.578 261.395C168.502 261.319 168.503 261.212 168.55 261.107C168.643 260.897 168.915 260.692 169.095 260.752C169.439 260.867 169.17 261.309 168.919 261.351Z" fill="#333333"/>
<path d="M168.656 260.557C168.47 260.835 168.46 261.427 168.919 261.351C169.17 261.309 169.439 260.867 169.095 260.752C168.826 260.662 168.348 261.166 168.578 261.395C168.793 261.61 169.032 261.227 168.909 261.022" stroke="white" stroke-linecap="round"/>
<path d="M168.7 261.069C168.682 261.053 168.61 260.996 168.624 261.065C168.781 261.81 168.992 262.534 169.087 263.295C169.171 263.965 169.178 264.648 169.21 265.322C169.25 266.167 169.238 266.996 168.983 267.812C168.724 268.641 168.359 269.44 168.064 270.257C167.707 271.247 167.358 272.248 167.069 273.26C166.522 275.179 166.557 277.109 166.871 279.058" stroke="white" stroke-linecap="round"/>
<path d="M307.861 163.552C306.647 163.907 305.158 164.55 303.94 164.89C303.577 165.239 302.739 165.41 302.29 165.153C301.889 164.923 301.539 164.59 301.157 164.33C300.702 164.02 300.28 163.702 299.921 163.279C299.531 162.82 299.708 162.112 299.769 161.56C299.782 161.436 299.801 161.117 299.982 161.111C300.217 161.103 300.538 160.962 300.752 160.872C301.419 160.593 302.149 160.351 302.846 160.161C303.404 160.008 303.986 159.943 304.553 159.828C305.34 159.668 306.114 159.44 306.893 159.246C307.761 159.029 308.618 158.902 309.506 158.795C310.529 158.671 311.544 158.465 312.565 158.32C313.605 158.173 314.647 158.219 315.692 158.171C316.717 158.125 317.759 158.07 318.781 158.18C319.741 158.282 320.692 158.439 321.631 158.662C322.363 158.835 323.176 159.058 323.831 159.439C324.47 159.811 325.656 160.482 325.522 161.401C325.457 161.842 324.595 161.598 324.306 161.558C323.107 161.392 321.955 161.022 320.764 160.821C320.055 160.701 319.302 160.706 318.586 160.723C317.717 160.744 316.807 160.761 315.949 160.914C315.145 161.056 314.382 161.396 313.604 161.634C312.792 161.883 311.974 162.125 311.168 162.393C310.057 162.764 308.986 163.223 307.861 163.552Z" fill="#333333" stroke="white" stroke-linecap="round"/>
<path d="M319.299 179.891C318.669 179.509 317.005 178.123 316.412 177.683C315.72 177.035 314.988 176.431 314.288 175.793C313.45 175.028 312.669 174.218 311.863 173.42C310.097 171.672 308.42 169.836 306.734 168.011C305.126 166.272 303.549 164.44 301.691 162.961C300.894 162.327 300.084 161.713 299.267 161.105C298.661 160.655 298.049 160.201 297.35 159.904C296.573 159.573 295.601 159.094 294.818 159.641C293.831 160.331 293.28 161.439 292.864 162.533C292.374 163.823 291.981 165.15 291.666 166.492C291.281 168.128 290.875 169.746 290.978 171.444C291.072 172.994 291.697 174.606 292.408 175.972C293.411 177.899 294.508 179.695 295.849 181.399C296.945 182.792 298.336 184.054 299.789 185.067C301.036 185.936 302.444 186.733 303.949 187.022C305.326 187.287 306.785 186.803 308.016 186.21C309.234 185.622 310.438 184.923 311.599 184.229C312.407 183.746 313.254 183.089 314.187 183.665C314.95 184.136 315.089 185.073 315.026 185.907C314.935 187.134 314.239 188.126 313.775 189.231C313.296 190.377 313.276 191.805 313.533 193.014C313.841 194.457 314.885 195.509 315.882 196.516L315.927 196.561C317.005 197.648 318.116 198.673 319.378 199.547C320.816 200.542 322.468 201.216 324.141 201.698C325.951 202.219 327.798 202.339 329.661 202.526C331.494 202.71 333.468 202.314 335.25 201.919C336.293 201.687 337.274 201.264 338.268 200.883C339.149 200.545 340.029 200.121 340.734 199.483C341.659 198.644 342.361 197.518 342.329 196.236C342.261 193.557 339.949 191.86 337.91 190.53C335.901 189.218 333.803 188.11 331.67 187.016C329.575 185.942 327.51 184.812 325.433 183.701C324.524 183.214 323.648 182.663 322.751 182.153C322.092 181.779 321.449 181.39 320.82 180.968C320.306 180.623 319.827 180.213 319.299 179.891Z" fill="#333333" stroke="white" stroke-linecap="round"/>
<path d="M310.493 176.323C311.503 177.547 312.418 178.867 313.117 180.308C312.977 181.099 312.652 181.568 312.088 182.109C311.578 182.597 310.967 183.037 310.41 183.473C309.776 183.97 309.045 184.328 308.242 184.443C307.304 184.577 306.35 184.282 305.479 183.976C304.613 183.672 303.7 183.41 302.905 182.945C302.099 182.473 301.294 181.916 300.631 181.255C299.191 179.819 297.854 178.192 297.159 176.25C296.504 174.421 296.332 172.363 296.69 170.455C296.943 169.103 297.741 167.294 299.388 167.523C299.962 167.603 300.511 167.88 301.006 168.167C301.612 168.52 302.191 168.89 302.759 169.301C304.215 170.356 305.656 171.392 306.99 172.604C308.257 173.756 309.405 175.002 310.493 176.323Z" fill="#333333" stroke="white" stroke-linecap="round"/>
<path d="M54.3391 282.657C54.5114 283.91 54.9275 285.477 55.0845 286.732C55.3766 287.142 55.4215 287.997 55.1013 288.402C54.8153 288.765 54.4346 289.063 54.1212 289.402C53.7473 289.806 53.3705 290.177 52.8992 290.47C52.3879 290.788 51.7136 290.508 51.176 290.367C51.0559 290.335 50.7433 290.27 50.7636 290.09C50.7899 289.857 50.6982 289.518 50.6412 289.293C50.4631 288.592 50.3317 287.834 50.2458 287.117C50.1768 286.542 50.1981 285.957 50.1679 285.38C50.126 284.578 50.0146 283.779 49.9369 282.979C49.8502 282.089 49.8512 281.222 49.8758 280.329C49.9041 279.298 49.8498 278.264 49.8571 277.233C49.8645 276.183 50.0635 275.159 50.1706 274.118C50.2755 273.098 50.3751 272.059 50.6341 271.064C50.8772 270.13 51.1719 269.212 51.5308 268.316C51.8105 267.618 52.1508 266.846 52.6237 266.255C53.0854 265.678 53.924 264.603 54.8136 264.871C55.2398 265 54.8717 265.817 54.7894 266.097C54.4486 267.259 53.9126 268.344 53.5387 269.492C53.3161 270.175 53.2098 270.921 53.1211 271.632C53.0134 272.494 52.8965 273.397 52.9209 274.268C52.9437 275.084 53.1673 275.889 53.2881 276.694C53.4142 277.534 53.5335 278.379 53.6802 279.214C53.8828 280.368 54.1793 281.495 54.3391 282.657Z" fill="#333333" stroke="white" stroke-linecap="round"/>
<path d="M82.1102 259.343C82.7544 259.587 83.3129 259.979 83.9434 260.258C84.6584 259.83 85.359 259.406 86.0026 258.874C86.398 258.548 86.7222 258.138 87.044 257.742C87.5532 257.114 88.0879 256.422 88.0787 255.57C88.0686 254.629 86.9772 254.245 86.2522 254.01C84.6368 253.487 83.0096 253.53 81.3357 253.443C80.3957 253.395 79.4496 253.409 78.5116 253.342C77.6375 253.279 76.7624 253.214 75.8864 253.18C74.1589 253.114 72.4368 253.339 70.7144 253.418C69.8785 253.457 69.0632 253.601 68.2344 253.703C67.4862 253.796 66.7531 253.92 66.0266 254.125C64.8434 254.459 63.4791 254.892 62.813 256.005C62.4578 256.598 62.3343 257.514 62.9252 258.01C63.3797 258.392 63.8401 258.329 64.333 258.075C64.9988 257.732 65.5567 257.237 66.2805 256.991C67.18 256.687 68.1594 256.626 69.0997 256.682C71.791 256.842 74.5067 257.107 77.1398 257.715C78.3088 257.985 79.4623 258.351 80.592 258.753C81.1039 258.935 81.6022 259.151 82.1102 259.343Z" fill="#333333" stroke="white" stroke-linecap="round"/>
<path d="M72.1844 273.75C71.7131 274.317 70.0972 275.759 69.5743 276.28C68.8316 276.869 68.127 277.504 67.3921 278.103C66.5127 278.819 65.5955 279.472 64.6883 280.151C62.6986 281.641 60.6355 283.029 58.5828 284.428C56.6254 285.762 54.5812 287.051 52.8442 288.672C52.0995 289.367 51.3729 290.077 50.6518 290.796C50.1174 291.329 49.5783 291.868 49.1813 292.515C48.7395 293.234 48.122 294.126 48.5478 294.981C49.0848 296.059 50.0997 296.767 51.1208 297.339C52.3242 298.013 53.579 298.598 54.8595 299.107C56.4218 299.729 57.9621 300.369 59.6565 300.517C61.2038 300.653 62.8902 300.272 64.3457 299.77C66.3996 299.062 68.3375 298.242 70.2207 297.167C71.76 296.288 73.2126 295.098 74.429 293.81C75.4724 292.705 76.4677 291.43 76.9758 289.983C77.4406 288.66 77.1767 287.146 76.7711 285.841C76.3697 284.549 75.8554 283.256 75.3401 282.006C74.9815 281.135 74.4567 280.2 75.1636 279.362C75.7415 278.677 76.6893 278.678 77.505 278.863C78.7044 279.134 79.5834 279.969 80.6086 280.59C81.671 281.233 83.0805 281.463 84.3141 281.386C85.7864 281.295 86.9816 280.417 88.1238 279.579L88.1753 279.541C89.4091 278.636 90.5871 277.687 91.6367 276.568C92.833 275.293 93.7436 273.758 94.4665 272.174C95.2485 270.461 95.639 268.651 96.0984 266.836C96.5505 265.05 96.4501 263.039 96.3214 261.219C96.246 260.152 95.9721 259.121 95.7412 258.081C95.5367 257.16 95.2476 256.227 94.7197 255.436C94.027 254.397 93.0162 253.536 91.7431 253.38C89.0837 253.052 87.0648 255.089 85.4484 256.91C83.8553 258.704 82.4505 260.615 81.0543 262.564C79.6825 264.478 78.261 266.354 76.8562 268.244C76.2408 269.072 75.5665 269.857 74.9301 270.669C74.4627 271.266 73.9838 271.845 73.4735 272.404C73.0565 272.862 72.5798 273.275 72.1844 273.75Z" fill="#333333" stroke="white" stroke-linecap="round"/>
<path d="M79.2904 270.038C78.4677 271.396 77.7531 272.833 77.2682 274.36C77.521 275.123 77.9102 275.54 78.5471 275.994C79.1218 276.404 79.79 276.751 80.4035 277.102C81.1032 277.502 81.8775 277.751 82.6888 277.749C83.6362 277.747 84.538 277.317 85.356 276.889C86.1686 276.463 87.0347 276.072 87.7543 275.497C88.4841 274.915 89.2 274.247 89.7603 273.498C90.9788 271.869 92.0673 270.066 92.4751 268.044C92.8592 266.139 92.7324 264.078 92.1035 262.242C91.6579 260.941 90.6079 259.265 89.0109 259.73C88.4544 259.892 87.9513 260.244 87.5029 260.6C86.9536 261.036 86.4342 261.486 85.9315 261.975C84.6426 263.229 83.3663 264.462 82.2214 265.854C81.1337 267.176 80.1773 268.575 79.2904 270.038Z" fill="#333333" stroke="white" stroke-linecap="round"/>
<path d="M166.474 13.2191C166.246 14.4629 166.15 16.0819 165.906 17.3225C166.055 17.8037 165.83 18.6292 165.399 18.9143C165.014 19.169 164.559 19.3326 164.156 19.5563C163.674 19.8234 163.2 20.0574 162.66 20.1882C162.075 20.3301 161.522 19.853 161.056 19.5509C160.952 19.4834 160.675 19.3235 160.751 19.1585C160.849 18.9453 160.868 18.5946 160.884 18.3636C160.935 17.6424 161.047 16.8811 161.19 16.1734C161.305 15.6059 161.508 15.057 161.66 14.499C161.872 13.7238 162.016 12.9302 162.193 12.1467C162.389 11.2737 162.662 10.4513 162.965 9.61031C163.314 8.64028 163.586 7.6418 163.916 6.66486C164.252 5.66962 164.762 4.75916 165.19 3.80415C165.609 2.86835 166.029 1.91255 166.586 1.04872C167.109 0.238004 167.677 -0.541561 168.298 -1.28002C168.783 -1.85561 169.347 -2.48137 169.982 -2.89495C170.601 -3.29866 171.734 -4.05669 172.495 -3.52321C172.859 -3.2676 172.254 -2.60715 172.088 -2.36661C171.4 -1.3701 170.552 -0.507513 169.837 0.465828C169.411 1.04508 169.077 1.71984 168.77 2.36718C168.398 3.15271 168.004 3.97357 167.755 4.80816C167.521 5.59061 167.481 6.42496 167.344 7.22706C167.2 8.06386 167.049 8.90366 166.927 9.74353C166.758 10.9027 166.686 12.0659 166.474 13.2191Z" fill="#333333" stroke="white" stroke-linecap="round"/>
<path d="M200.151 -0.224134C200.687 0.208717 201.095 0.75592 201.606 1.21859C202.419 1.03654 203.217 0.852455 203.995 0.549224C204.473 0.362891 204.909 0.0758233 205.339 -0.200175C206.019 -0.636915 206.743 -1.12669 207.001 -1.939C207.286 -2.83545 206.37 -3.54212 205.755 -3.99212C204.385 -4.9947 202.826 -5.46341 201.263 -6.06977C200.386 -6.4103 199.483 -6.69329 198.613 -7.05078C197.803 -7.38397 196.992 -7.71982 196.17 -8.026C194.551 -8.62984 192.845 -8.95573 191.184 -9.41982C190.378 -9.64504 189.559 -9.76319 188.74 -9.92562C188 -10.0722 187.265 -10.1837 186.511 -10.2164C185.282 -10.2696 183.851 -10.286 182.87 -9.43773C182.347 -8.98536 181.943 -8.1538 182.349 -7.49773C182.661 -6.99303 183.118 -6.90873 183.665 -6.99534C184.405 -7.11233 185.09 -7.40845 185.854 -7.41473C186.804 -7.42255 187.753 -7.17365 188.629 -6.82597C191.134 -5.83082 193.631 -4.72904 195.941 -3.32719C196.967 -2.70485 197.947 -1.99549 198.894 -1.2602C199.323 -0.927017 199.729 -0.565437 200.151 -0.224134Z" fill="#333333" stroke="white" stroke-linecap="round"/>
<path d="M186.213 10.3487C185.588 10.7395 183.602 11.6025 182.942 11.9338C182.052 12.2606 181.184 12.6432 180.299 12.9815C179.239 13.3864 178.163 13.7194 177.089 14.0803C174.733 14.8721 172.339 15.5441 169.952 16.2299C167.675 16.8839 165.33 17.4683 163.173 18.4633C162.248 18.8899 161.335 19.3374 160.425 19.7943C159.751 20.1329 159.07 20.4758 158.491 20.9657C157.846 21.5109 156.98 22.1642 157.117 23.1093C157.289 24.3015 158.031 25.2918 158.822 26.155C159.753 27.1723 160.762 28.1204 161.819 29.0051C163.108 30.0846 164.37 31.1748 165.933 31.8464C167.36 32.4597 169.081 32.6258 170.62 32.6052C172.793 32.5761 174.89 32.4039 177.015 31.9723C178.752 31.6195 180.504 30.9447 182.063 30.1021C183.4 29.3794 184.744 28.48 185.68 27.2657C186.536 26.1549 186.759 24.6341 186.783 23.2678C186.806 21.9153 186.722 20.5259 186.625 19.177C186.557 18.2381 186.351 17.1858 187.285 16.6109C188.048 16.1411 188.948 16.4392 189.665 16.8698C190.719 17.5031 191.292 18.5711 192.072 19.4819C192.879 20.4256 194.146 21.0855 195.341 21.3989C196.768 21.7729 198.178 21.314 199.525 20.8755L199.586 20.8557C201.041 20.3822 202.457 19.8502 203.804 19.1162C205.34 18.2795 206.685 17.1067 207.868 15.8289C209.147 14.4468 210.084 12.8509 211.089 11.2711C212.078 9.71634 212.612 7.77522 213.06 6.00596C213.322 4.96948 213.385 3.90393 213.492 2.84425C213.586 1.90528 213.603 0.929255 213.35 0.0122446C213.017 -1.19122 212.327 -2.32513 211.167 -2.87264C208.744 -4.01638 206.188 -2.71405 204.083 -1.49142C202.008 -0.286493 200.076 1.08922 198.14 2.50216C196.237 3.89039 194.3 5.22724 192.374 6.58247C191.53 7.17614 190.644 7.71058 189.785 8.28239C189.155 8.70232 188.518 9.10218 187.859 9.47403C187.319 9.77795 186.737 10.021 186.213 10.3487Z" fill="#333333" stroke="white" stroke-linecap="round"/>
<path d="M194.125 9.04718C192.919 10.0789 191.79 11.2204 190.851 12.5186C190.853 13.3218 191.091 13.8402 191.554 14.4706C191.972 15.0395 192.498 15.5788 192.97 16.1042C193.509 16.7033 194.167 17.1822 194.938 17.4344C195.838 17.7289 196.829 17.6035 197.74 17.4527C198.645 17.3028 199.591 17.2024 200.454 16.8821C201.329 16.5573 202.218 16.1473 202.985 15.6112C204.652 14.4457 206.251 13.0749 207.271 11.2819C208.232 9.59331 208.757 7.59632 208.735 5.65549C208.719 4.28032 208.247 2.35996 206.585 2.30114C206.006 2.28065 205.417 2.45787 204.88 2.65557C204.222 2.89775 203.588 3.16222 202.957 3.46921C201.34 4.25642 199.742 5.02794 198.219 5.99106C196.772 6.90601 195.426 7.93492 194.125 9.04718Z" fill="#333333" stroke="white" stroke-linecap="round"/>
<path d="M179.064 16.6073C180.612 16.2561 182.202 16.0326 183.804 16.0553C184.447 16.5362 184.72 17.0374 184.949 17.7851C185.156 18.4598 185.274 19.2037 185.413 19.8967C185.572 20.6869 185.563 21.5003 185.305 22.2694C185.003 23.1674 184.31 23.8871 183.645 24.5277C182.984 25.164 182.339 25.862 181.567 26.363C180.783 26.8711 179.923 27.3391 179.035 27.6339C177.105 28.2747 175.051 28.7376 173.003 28.4851C171.075 28.2472 169.16 27.4754 167.616 26.2981C166.523 25.464 165.265 23.938 166.211 22.5699C166.54 22.0931 167.034 21.7272 167.513 21.4144C168.101 21.0312 168.692 20.6806 169.315 20.3584C170.912 19.532 172.485 18.7111 174.167 18.0649C175.766 17.451 177.395 16.9859 179.064 16.6073Z" fill="#333333" stroke="white" stroke-linecap="round"/>
<path d="M287.322 -44.8923C287.576 -45.0405 288.103 -45.4601 288.424 -45.291C289.933 -44.5066 292.643 -43.1337 294.146 -42.3264C295.289 -41.7125 296.303 -40.5307 297.415 -39.8618C298.431 -39.2509 299.411 -38.5844 300.416 -37.956C302.528 -36.6344 304.418 -35.0516 306.272 -33.3987C310.399 -29.7188 314.065 -25.6008 317.566 -21.3313C318.697 -19.9522 319.909 -18.6425 321.017 -17.2435C322.078 -15.9038 323.168 -14.5908 324.261 -13.2773C326.553 -10.5233 328.914 -7.82354 331.335 -5.18211C334.007 -2.26665 336.847 0.556391 339.315 3.64755C341.481 6.35927 343.369 9.27706 345.487 12.0251C346.18 12.9246 346.98 13.7411 347.658 14.651C347.987 15.0934 348.126 15.5033 347.823 16C347.358 16.7626 346.684 17.4605 346.06 18.093C345.444 18.7186 344.837 19.3637 344.179 19.9463C343.79 20.2903 343.412 20.6533 342.988 20.9536C342.902 21.0144 342.779 21.0785 342.67 21.045C342.356 20.9484 342.064 20.6194 341.784 20.4494C340.706 19.7943 339.677 18.9775 338.671 18.2175C337.794 17.5545 336.852 16.9784 335.946 16.3552C334.977 15.688 334.052 14.9583 333.137 14.2193C328.405 10.399 324.055 6.15516 319.535 2.09489C314.831 -2.1304 309.986 -6.17945 305.04 -10.1156C303.552 -11.2996 301.977 -12.5612 300.739 -14.016C300.637 -14.1366 300.378 -14.6856 300.198 -14.7051C300.17 -14.7081 300.12 -14.5372 300.106 -14.5154C299.755 -13.9605 299.466 -13.3543 298.817 -13.0805C297.734 -12.6235 296.761 -12.9361 295.697 -13.2323C295.388 -13.3185 295.043 -13.5338 294.719 -13.5329C294.63 -13.5327 294.857 -13.4111 294.941 -13.3798C295.149 -13.3026 295.37 -13.0975 295.567 -12.9836L295.6 -12.9643C295.913 -12.7836 296.228 -12.6016 296.508 -12.3713C299.476 -9.9238 302.167 -7.21207 304.894 -4.49847C308.947 -0.466523 312.674 3.90047 316.368 8.25888C320.255 12.8469 323.919 17.6151 327.125 22.7065C328.321 24.605 329.658 26.2636 331.16 27.9212L331.223 27.9914C331.804 28.6319 332.413 29.3034 332.891 30.0219C333.104 30.3414 333.222 30.6684 333.098 31.0424C332.971 31.4275 332.583 31.7513 332.324 32.0529C331.945 32.4934 331.562 32.9301 331.182 33.3695C330.342 34.3412 329.516 35.2553 328.568 36.1279C328.166 36.4984 328.053 36.5399 327.638 36.3072C327.076 35.9911 326.57 35.282 326.117 34.8311C323.42 32.1486 320.779 29.356 317.831 26.9412C315.279 24.8507 312.656 22.8517 310.194 20.6538C308.325 18.9863 306.439 17.3392 304.61 15.6284C302.606 13.7537 300.497 11.9828 298.335 10.2932C296.336 8.73127 294.246 7.28998 292.254 5.71753C284.95 -0.048521 277.638 -6.1367 272.466 -13.9676L272.462 -13.9733C271.873 -14.8657 271.275 -15.7705 270.634 -16.6259C270.004 -17.465 269.54 -18.4025 268.978 -19.2847C268.24 -20.4449 267.341 -21.5183 266.67 -22.7187C266.487 -23.0467 266.482 -23.1874 266.74 -23.4473C267.007 -23.7152 267.227 -24.013 267.496 -24.2829C269.967 -26.7673 272.287 -29.4089 274.722 -31.9312C276.831 -34.1157 278.66 -36.543 280.708 -38.7804C282.315 -40.5351 283.994 -42.3092 285.836 -43.8211C286.306 -44.2063 286.796 -44.586 287.322 -44.8923Z" fill="#333333"/>
<path d="M266.74 -23.4473C266.618 -23.3057 266.635 -22.9991 266.964 -23.2921C267.627 -23.472 268.283 -23.7562 268.909 -24.0361C269.736 -24.4056 270.472 -24.9136 271.194 -25.4547C271.893 -25.9781 272.641 -26.4345 273.329 -26.9718C274.191 -27.6453 275.01 -28.372 275.833 -29.092C279.043 -31.9008 281.652 -35.3646 284.233 -38.7349C285.04 -39.7891 285.814 -40.8552 286.597 -41.9262C287.174 -42.7154 287.837 -43.4461 288.281 -44.3243C288.399 -44.5567 288.782 -45.1027 288.424 -45.291M266.74 -23.4473C267.007 -23.7152 267.227 -24.013 267.496 -24.2829C269.967 -26.7673 272.287 -29.4089 274.722 -31.9312C276.831 -34.1157 278.66 -36.543 280.708 -38.7804C282.315 -40.5351 283.994 -42.3092 285.836 -43.8211C286.306 -44.2063 286.796 -44.586 287.322 -44.8923C287.576 -45.0405 288.103 -45.4601 288.424 -45.291M266.74 -23.4473C266.482 -23.1874 266.487 -23.0467 266.67 -22.7187C267.341 -21.5183 268.24 -20.4449 268.978 -19.2847C269.54 -18.4025 270.004 -17.465 270.634 -16.6259C271.276 -15.7687 271.875 -14.8618 272.466 -13.9676C277.638 -6.1367 284.95 -0.0485206 292.254 5.71753C294.246 7.28998 296.336 8.73127 298.335 10.2932C300.497 11.9828 302.606 13.7537 304.61 15.6284C306.439 17.3392 308.325 18.9863 310.194 20.6538C312.656 22.8517 315.279 24.8507 317.831 26.9412C320.779 29.356 323.42 32.1485 326.117 34.8311C326.57 35.282 327.076 35.9911 327.638 36.3072C328.053 36.5399 328.166 36.4984 328.568 36.1279C329.516 35.2553 330.342 34.3412 331.182 33.3695C331.562 32.9301 331.945 32.4934 332.324 32.0529C332.583 31.7513 332.971 31.4275 333.098 31.0424C333.222 30.6684 333.104 30.3414 332.891 30.022C332.395 29.2771 331.759 28.5829 331.16 27.9212C329.658 26.2636 328.321 24.605 327.125 22.7065C323.919 17.6151 320.255 12.8469 316.368 8.25888C312.674 3.90047 308.947 -0.466524 304.894 -4.49847C302.167 -7.21207 299.476 -9.92379 296.508 -12.3713C296.219 -12.6097 295.891 -12.7965 295.567 -12.9836C295.37 -13.0975 295.149 -13.3025 294.941 -13.3798C294.857 -13.4111 294.63 -13.5327 294.719 -13.5329C295.043 -13.5338 295.388 -13.3185 295.697 -13.2323C296.761 -12.9361 297.734 -12.6235 298.817 -13.0805C299.466 -13.3543 299.755 -13.9605 300.106 -14.5154C300.12 -14.5372 300.17 -14.7081 300.198 -14.7051C300.378 -14.6856 300.637 -14.1366 300.739 -14.016C301.977 -12.5612 303.552 -11.2996 305.04 -10.1156C309.986 -6.17945 314.831 -2.1304 319.535 2.09489C324.055 6.15516 328.405 10.399 333.137 14.2193C334.052 14.9583 334.977 15.688 335.946 16.3552C336.852 16.9784 337.794 17.5545 338.671 18.2175C339.677 18.9775 340.706 19.7943 341.784 20.4494C342.064 20.6194 342.356 20.9484 342.67 21.045C342.779 21.0785 342.902 21.0144 342.988 20.9536C343.412 20.6533 343.79 20.2903 344.179 19.9463C344.837 19.3637 345.444 18.7186 346.06 18.093C346.684 17.4605 347.358 16.7626 347.823 16C348.126 15.5033 347.987 15.0934 347.658 14.651C346.98 13.7411 346.18 12.9246 345.487 12.0251C343.369 9.27706 341.481 6.35927 339.315 3.64755C336.847 0.556392 334.007 -2.26665 331.335 -5.18211C328.914 -7.82354 326.553 -10.5233 324.261 -13.2773C323.168 -14.5908 322.078 -15.9038 321.017 -17.2435C319.909 -18.6425 318.697 -19.9522 317.566 -21.3313C314.065 -25.6008 310.399 -29.7188 306.272 -33.3986C304.418 -35.0516 302.528 -36.6344 300.416 -37.956C299.411 -38.5844 298.431 -39.2509 297.415 -39.8618C296.303 -40.5308 295.289 -41.7125 294.146 -42.3264C292.643 -43.1337 289.933 -44.5066 288.424 -45.291" stroke="white" stroke-linecap="round"/>
<path d="M253.668 38.6513C253.898 38.7827 254.111 38.8703 254.589 38.9797C255.521 39.193 255.687 39.2688 256.212 39.5094L256.22 39.513C256.804 39.7807 257.397 39.9977 258.009 40.1977C259.758 40.7693 261.482 41.4573 263.255 41.9448C265.44 42.5455 267.608 43.164 269.816 43.6807C272.314 44.2656 274.84 44.7312 277.358 45.22C279.424 45.621 281.512 45.8947 283.577 46.2913C284.218 46.4144 284.884 46.6759 285.543 46.5545C285.843 46.4992 285.93 45.8543 286.004 45.6015C286.318 44.5288 286.282 43.2856 286.374 42.1754C286.462 41.1024 286.421 40.0206 286.52 38.9476L286.528 38.8678C286.626 37.8112 286.729 36.6957 286.66 35.6388C286.586 34.4868 286.485 33.4008 286.237 32.2699C286.01 31.2337 285.719 30.2169 285.427 29.2001L285.4 29.1062C284.925 27.4469 283.894 25.8625 282.705 24.6111C282.057 23.9284 281.433 23.2183 280.727 22.5929C279.656 21.6436 278.409 20.9005 277.163 20.2046C275.469 19.2579 273.832 18.2523 272.027 17.5219C270.113 16.7477 268.254 15.9562 266.199 15.6428C265.05 15.4676 263.912 15.3047 262.752 15.2283C261.707 15.1594 260.65 15.2202 259.605 15.2684C258.611 15.3144 257.632 15.5487 256.652 15.7089C255.566 15.8865 254.482 16.0911 253.436 16.4405C251.475 17.0955 249.403 17.9541 247.667 19.0852C246.095 20.1099 244.744 21.2627 243.483 22.6452C242.755 23.4437 242.001 24.2082 241.352 25.0757C240.801 25.8122 240.369 26.6054 239.961 27.4277C239.583 28.1885 239.173 28.9387 238.854 29.7268C238.588 30.3847 238.431 31.0675 238.261 31.7546C237.884 33.2779 237.371 35.5862 239.364 36.135C240.311 36.3957 241.288 36.3806 242.264 36.4544C243.723 36.5646 245.177 36.6877 246.628 36.8812C248.154 37.0848 249.658 37.4089 251.157 37.756C252.032 37.9587 252.882 38.2044 253.668 38.6513Z" fill="#333333" stroke="white" stroke-linecap="round"/>
<path d="M265.387 15.5919C265.432 15.5768 265.325 15.6642 265.289 15.6951C264.941 15.9954 264.603 16.385 264.292 16.7058C263.405 17.6205 262.505 18.5253 261.644 19.4649C261.124 20.0335 260.699 20.6676 260.27 21.3056C259.787 22.0231 259.276 22.7302 258.833 23.4737C257.472 25.757 256.22 28.1599 255.222 30.6259C254.546 32.2984 253.928 34.0862 253.57 35.8596C253.449 36.459 253.434 37.0605 253.358 37.6639C253.332 37.8694 253.243 38.3393 253.394 38.5099" stroke="white" stroke-linecap="round"/>
<path d="M272.252 17.8125C272.385 17.8754 272.435 17.9196 272.537 18.0426C272.913 18.5004 273.27 18.9763 273.636 19.4423C274.201 20.1607 274.716 20.8998 275.181 21.6882C276.055 23.1728 276.706 24.8706 277.159 26.5289C278.052 29.794 277.51 33.2118 276.92 36.4841C276.731 37.5322 276.431 38.5531 276.228 39.598C276.108 40.2196 276.021 40.8543 275.838 41.4617C275.661 42.0534 275.044 43.8002 275.275 43.2275" stroke="white" stroke-linecap="round"/>
<path d="M264.385 14.476C264.29 14.6136 264.458 14.847 264.613 14.9642C264.495 14.9947 264.408 15.0403 264.381 15.1074C264.321 15.2563 266.491 15.6441 266.683 15.6746C267.49 15.803 268.301 15.8874 269.114 15.9695C269.447 16.0031 269.812 16.0112 269.537 15.6087C269 14.8199 267.992 14.5696 267.114 14.3875C266.48 14.2559 265.878 14.1797 265.229 14.2157C264.98 14.2295 264.544 14.2445 264.385 14.476Z" fill="#333333"/>
<path d="M264.818 15.0099C264.74 15.1497 264.235 14.6933 264.385 14.476C264.544 14.2445 264.98 14.2295 265.229 14.2157C265.878 14.1797 266.48 14.2559 267.114 14.3875C267.992 14.5696 269 14.8199 269.537 15.6087C269.812 16.0112 269.447 16.0031 269.114 15.9695C268.301 15.8874 267.49 15.803 266.683 15.6746C266.491 15.6441 264.321 15.2563 264.381 15.1074C264.495 14.8267 265.643 14.9218 265.863 14.9315C266.699 14.9684 267.594 15.0322 268.401 15.2611C268.548 15.3027 268.992 15.4141 268.843 15.3809C268.731 15.3559 268.638 15.3456 268.53 15.3021" stroke="white" stroke-linecap="round"/>
<path d="M254.562 38.9559C254.33 38.9064 253.827 38.5532 253.583 38.5599C253.452 38.6183 254.394 40.4876 254.438 40.6411C254.864 42.1282 255.764 44.3314 256.221 45.8107C257.451 49.8019 259.706 54.3508 263.774 55.8691C265.992 56.6967 268.418 57.069 270.769 57.2962C273.602 57.5698 276.438 57.2935 279.279 57.2045C282.232 57.1121 285.183 57.3682 288.085 57.8225C288.732 57.9238 289.381 58.0119 290.027 58.1222C290.619 58.2234 291.18 58.4253 291.766 58.551C292.524 58.7138 293.287 58.8446 294.062 58.8986C294.519 58.9305 294.782 58.9293 294.752 58.4605C294.707 57.7674 294.332 57.1821 293.964 56.6319C292.855 54.9757 291.706 53.2913 290.392 51.8027C289.646 50.9576 288.861 50.1591 288.132 49.2978C287.667 48.7486 287.252 48.1594 286.784 47.6128C285.547 46.1675 283.497 45.4586 281.745 44.9493C278.871 44.114 275.877 43.6609 272.939 43.099C269.407 42.4235 266.059 41.5229 262.533 40.8222C260.926 40.5029 258.549 39.7794 256.946 39.4458C256.151 39.2807 255.355 39.1253 254.562 38.9559Z" fill="#333333" stroke="white" stroke-linecap="round"/>
<path d="M20.3983 210.868C20.6291 210.999 20.8413 211.087 21.3196 211.197C22.252 211.41 22.4175 211.486 22.9426 211.726L22.9504 211.73C23.5348 211.998 24.1279 212.215 24.7398 212.415C26.4885 212.986 28.2123 213.674 29.9857 214.162C32.1706 214.762 34.3391 215.381 36.5466 215.898C39.0449 216.482 41.5705 216.948 44.0886 217.437C46.1543 217.838 48.243 218.112 50.3079 218.508C50.9488 218.631 51.6148 218.893 52.2734 218.771C52.5734 218.716 52.6606 218.071 52.7346 217.818C53.0485 216.746 53.0128 215.502 53.1042 214.392C53.1926 213.319 53.1515 212.237 53.2509 211.164L53.2583 211.085C53.3563 210.028 53.4598 208.913 53.3911 207.856C53.3164 206.704 53.2154 205.618 52.9677 204.487C52.7407 203.451 52.4492 202.434 52.1578 201.417L52.1308 201.323C51.6553 199.664 50.6245 198.079 49.4358 196.828C48.7873 196.145 48.1639 195.435 47.4579 194.81C46.3863 193.86 45.1393 193.117 43.8938 192.421C42.1994 191.475 40.5631 190.469 38.7576 189.739C36.8439 188.964 34.9845 188.173 32.9294 187.86C31.7808 187.684 30.6428 187.521 29.4824 187.445C28.4373 187.376 27.3807 187.437 26.3358 187.485C25.3414 187.531 24.3627 187.766 23.3828 187.926C22.2964 188.103 21.2122 188.308 20.1664 188.657C18.2061 189.312 16.1333 190.171 14.3981 191.302C12.8262 192.327 11.4748 193.479 10.2139 194.862C9.48563 195.66 8.73155 196.425 8.08261 197.293C7.53164 198.029 7.09943 198.822 6.69148 199.644C6.31399 200.405 5.90376 201.156 5.58494 201.944C5.31879 202.601 5.16136 203.284 4.99136 203.971C4.61449 205.495 4.10151 207.803 6.09479 208.352C7.04156 208.612 8.01869 208.597 8.99515 208.671C10.4542 208.781 11.9077 208.905 13.3584 209.098C14.8847 209.302 16.3891 209.626 17.8877 209.973C18.7628 210.176 19.6131 210.421 20.3983 210.868Z" fill="#333333" stroke="white" stroke-linecap="round"/>
<path d="M32.1176 187.809C32.1626 187.794 32.0558 187.881 32.0199 187.912C31.6715 188.212 31.334 188.602 31.023 188.923C30.1361 189.837 29.236 190.742 28.3752 191.682C27.8543 192.25 27.43 192.884 27.0005 193.522C26.5175 194.24 26.0063 194.947 25.5633 195.691C24.2029 197.974 22.9507 200.377 21.9531 202.843C21.2764 204.515 20.6583 206.303 20.3005 208.076C20.1795 208.676 20.1644 209.277 20.0885 209.881C20.0627 210.086 19.9737 210.556 20.1242 210.727" stroke="white" stroke-linecap="round"/>
<path d="M38.9824 190.029C39.1155 190.092 39.1662 190.136 39.2673 190.259C39.644 190.717 40.0006 191.193 40.3671 191.659C40.9321 192.378 41.4471 193.117 41.9112 193.905C42.7853 195.39 43.4362 197.087 43.8896 198.746C44.7823 202.011 44.2402 205.429 43.6505 208.701C43.4616 209.749 43.1616 210.77 42.9591 211.815C42.8387 212.436 42.7515 213.071 42.5691 213.679C42.3914 214.27 41.7742 216.017 42.0059 215.444" stroke="white" stroke-linecap="round"/>
<path d="M31.1152 186.693C31.0205 186.83 31.1883 187.064 31.3439 187.181C31.2253 187.211 31.1389 187.257 31.1118 187.324C31.0515 187.473 33.2216 187.861 33.4135 187.891C34.2212 188.02 35.032 188.104 35.845 188.186C36.1775 188.22 36.5425 188.228 36.2681 187.826C35.7304 187.037 34.7224 186.786 33.8446 186.604C33.2105 186.473 32.6084 186.397 31.9597 186.432C31.7112 186.446 31.2747 186.461 31.1152 186.693Z" fill="#333333"/>
<path d="M31.5488 187.227C31.4709 187.366 30.9656 186.91 31.1152 186.693C31.2747 186.461 31.7112 186.446 31.9597 186.432C32.6084 186.397 33.2105 186.473 33.8446 186.604C34.7224 186.786 35.7304 187.037 36.2681 187.826C36.5425 188.228 36.1775 188.22 35.845 188.186C35.032 188.104 34.2212 188.02 33.4135 187.891C33.2216 187.861 31.0515 187.473 31.1118 187.324C31.2253 187.044 32.3742 187.139 32.5941 187.148C33.4295 187.185 34.3244 187.249 35.132 187.478C35.2787 187.519 35.7223 187.631 35.5735 187.598C35.4613 187.573 35.3686 187.562 35.261 187.519" stroke="white" stroke-linecap="round"/>
<path d="M21.2927 211.173C21.0611 211.123 20.5579 210.77 20.3139 210.777C20.1829 210.835 21.1246 212.704 21.1686 212.858C21.595 214.345 22.4951 216.548 22.9512 218.027C24.1818 222.019 26.4363 226.568 30.5052 228.086C32.7232 228.914 35.1482 229.286 37.5001 229.513C40.333 229.787 43.1687 229.51 46.0099 229.421C48.9628 229.329 51.9137 229.585 54.8154 230.039C55.4625 230.141 56.1116 230.229 56.7572 230.339C57.3495 230.44 57.9106 230.642 58.4963 230.768C59.2545 230.931 60.0179 231.061 60.7925 231.115C61.25 231.147 61.513 231.146 61.4827 230.677C61.4378 229.984 61.0631 229.399 60.6946 228.849C59.5857 227.192 58.4368 225.508 57.1225 224.02C56.3764 223.174 55.5916 222.376 54.8628 221.515C54.3982 220.965 53.9826 220.376 53.5148 219.83C52.2779 218.384 50.2275 217.675 48.4755 217.166C45.6018 216.331 42.6074 215.878 39.6695 215.316C36.1377 214.64 32.7902 213.74 29.2637 213.039C27.657 212.72 25.2797 211.996 23.6762 211.663C22.8821 211.497 22.086 211.342 21.2927 211.173Z" fill="#333333" stroke="white" stroke-linecap="round"/>
<path d="M278.081 86.6205C278.23 86.2273 278.576 85.0474 279.018 84.9746C282.132 84.9746 284.909 85.633 287.913 86.4804C289.241 86.8549 293.851 87.7968 293.324 89.9824C292.779 92.2405 292.414 94.5929 291.66 96.7939C290.926 98.9377 290.614 101.247 289.892 103.413C289.125 105.713 288.266 107.997 287.44 110.277C285.337 116.082 283.56 122.006 281.548 127.839C280.439 131.056 278.551 136.471 274.439 136.813C270.924 137.106 267.411 136.26 263.985 135.491C261.643 134.965 259.492 134.002 257.235 133.198C255.34 132.522 253.383 132.029 251.527 131.236C249.853 130.522 248.169 129.33 246.712 128.242C245.767 127.537 244.326 126.223 244.068 125.003C243.561 122.61 245.896 120.919 247.972 120.205C251.154 119.111 254.236 119.014 257.577 119.014C259.293 119.014 260.93 119.252 262.628 119.452C263.593 119.566 264.544 119.585 265.465 119.925C266.547 120.324 267.38 117.272 267.549 116.773C268.696 113.375 269.983 109.975 271.331 106.652C272.262 104.356 272.869 101.901 273.625 99.543C275.018 95.196 276.461 90.8904 278.081 86.6205Z" fill="#333333" stroke="white" stroke-linecap="round"/>
<path d="M280.596 128.789C276.011 128.789 271.336 130.198 267.761 133.123C267.334 133.472 266.819 133.769 266.447 134.182C266.301 134.345 265.446 135.281 265.782 134.778" stroke="white" stroke-linecap="round"/>
<path d="M282.8 95.3789C282.89 96.1899 285.438 95.7064 285.795 95.6941" stroke="white" stroke-linecap="round"/>
<path d="M284.708 82.6459C284.857 82.2527 285.203 81.0728 285.645 81C288.759 81 291.536 81.6584 294.54 82.5058C295.868 82.8803 300.478 83.8222 299.951 86.0078C299.406 88.2659 299.041 90.6183 298.287 92.8193C297.553 94.9631 297.241 97.2725 296.519 99.4381C295.752 101.738 294.893 104.023 294.067 106.302C291.964 112.107 290.187 118.031 288.175 123.865C287.066 127.082 285.178 132.496 281.066 132.839C277.551 133.132 274.038 132.286 270.612 131.517C268.27 130.991 266.119 130.027 263.862 129.223C261.967 128.547 260.01 128.054 258.154 127.262C256.48 126.547 254.796 125.355 253.339 124.268C252.394 123.562 250.953 122.248 250.695 121.028C250.188 118.636 252.523 116.944 254.599 116.23C257.781 115.137 260.863 115.04 264.204 115.04C265.92 115.04 267.557 115.278 269.255 115.477C270.22 115.591 271.171 115.611 272.092 115.95C273.174 116.349 274.007 113.297 274.176 112.798C275.323 109.4 276.61 106 277.958 102.678C278.889 100.381 279.496 97.9269 280.252 95.5684C281.645 91.2214 283.088 86.9157 284.708 82.6459Z" fill="#333333" stroke="white" stroke-linecap="round"/>
<path d="M287.221 124.809C282.636 124.809 277.961 126.217 274.386 129.142C273.959 129.492 273.444 129.789 273.072 130.202C272.926 130.365 272.071 131.3 272.407 130.797" stroke="white" stroke-linecap="round"/>
<path d="M289.425 91.4004C289.515 92.2114 292.063 91.7278 292.42 91.7155" stroke="white" stroke-linecap="round"/>
<path d="M246.254 284.096C245.567 284.519 245.007 285.12 244.439 285.688C243.812 286.524 243.785 287.307 243.247 288.2C242.939 288.711 242.718 289.111 242.176 289.407C241.563 289.741 240.919 289.725 240.246 289.651C238.535 289.463 236.998 288.601 235.4 288.026C233.694 287.412 232.411 286.003 231.55 284.453C231.234 283.884 230.835 283.381 230.644 282.751C230.565 282.493 230.777 282.133 230.883 281.908C231.157 281.328 231.438 280.752 231.656 280.147C231.995 279.202 232.121 278.167 232.193 277.17C232.261 276.229 232.332 275.264 232.524 274.339C232.724 273.379 233.003 272.451 233.315 271.521C233.63 270.583 233.932 269.647 234.257 268.713C234.715 267.397 235.465 266.148 236.292 265.032C237.119 263.916 238.079 262.827 239.143 261.933C240.366 260.904 241.76 260.196 243.256 259.656C244.442 259.227 245.875 259.296 247.113 259.425C248.389 259.559 249.801 259.915 250.886 260.618C251.815 261.22 252.413 262.189 252.849 263.184C253.378 264.391 253.463 265.616 253.314 266.915C253.014 269.527 251.35 271.892 249.656 273.817C249.306 274.215 248.899 274.57 248.524 274.944C248.381 275.087 248.449 275.063 248.588 274.989C249.492 274.507 250.449 274.369 251.478 274.362C252.338 274.356 253.186 274.423 254.037 274.55C254.651 274.641 255.074 275.019 255.333 275.564C255.966 276.896 255.202 278.193 254.309 279.17C253.754 279.778 253.159 280.272 252.476 280.732C252.233 280.895 251.987 281.055 251.727 281.189C249.898 282.136 248.009 283.016 246.254 284.096Z" fill="#333333" stroke="white" stroke-linecap="round"/>
<path d="M257.991 283.127C258.438 283.485 259.292 284.184 259.696 284.587C259.821 284.713 259.388 284.006 259.276 283.702C259.096 283.216 258.917 282.723 258.773 282.225C258.457 281.128 258.301 279.971 258.217 278.835C258.045 276.526 258.47 273.957 260.006 272.153C261.036 270.943 262.416 270.143 263.983 269.876C265.356 269.642 266.702 269.817 268.044 270.134C270.955 270.822 273.004 273.001 274.144 275.691C274.778 277.186 275.281 278.803 275.684 280.375C276.02 281.685 276.245 283.023 276.346 284.371C276.508 286.523 276.773 288.67 276.853 290.827C276.885 291.679 276.888 292.523 276.811 293.372C276.756 293.981 276.829 294.724 276.497 295.269C275.991 296.099 274.924 296.67 274.092 297.101C273.023 297.655 271.9 298.129 270.726 298.406C268.831 298.854 266.982 299.187 265.028 299.122C264.647 299.109 264.298 299.083 263.922 299.125C263.827 299.135 263.835 299.096 263.786 298.998C263.606 298.638 263.568 298.222 263.391 297.854C263.138 297.328 262.777 296.843 262.4 296.399C261.896 295.803 261.372 295.218 260.818 294.668C260.395 294.249 259.878 293.914 259.484 293.471C258.455 292.313 257.417 291.177 256.371 290.034C255.465 289.043 254.635 288.074 254.127 286.817C253.76 285.909 253.429 284.765 253.653 283.784C253.964 282.417 255.442 282.254 256.576 282.603C257.046 282.748 257.595 282.808 257.991 283.127Z" fill="#333333" stroke="white" stroke-linecap="round"/>
</svg>
