<svg width="436" height="120" viewBox="0 0 436 120" fill="none" xmlns="http://www.w3.org/2000/svg">
<g clip-path="url(#clip0_2006_5916)">
<path d="M176.371 35.5729C185.143 45.8268 201.413 64.8769 201.929 65.6108C202.593 66.5554 201.471 71.8491 192.668 79.1448C191.627 80.0075 190.64 80.7784 189.705 81.4663M151.137 56.2237C151.94 58.0528 153.932 63.2163 152.999 65.2778C151.871 67.7691 127.696 80.9742 124.222 83.3664C120.747 85.7587 118.657 90.3704 118.898 93.1982C119.138 96.0261 120.841 98.3503 121.104 98.6547C121.461 98.7803 122.112 98.6977 122.973 98.4589" stroke="white" stroke-linecap="round"/>
<path d="M164.991 15.7728C166.994 18.5546 171.405 26.0821 172.784 28.0815C174.091 29.9758 172.443 32.9199 171.457 34.1551C170.327 35.9742 163.78 42.8601 159.378 46.1188C154.976 49.3774 147.939 52.9267 146.545 52.1467C145.15 51.3668 141.325 46.1007 139.407 43.8786C137.489 41.6566 134.37 42.1827 133.091 42.8586C130.1 44.4397 118.442 55.5043 114.402 57.5366C113.289 58.0964 110.87 58.9841 109.807 56.8397" stroke="white"/>
<path d="M148.46 47.4642C147.848 48.004 147.004 48.2771 146.366 48.2558C145.464 48.2258 144.141 47.2789 143.633 46.5726C143.124 45.8663 142.518 44.2669 142.932 43.3029C143.179 42.7293 143.722 42.291 143.973 42.1375" stroke="white"/>
<path d="M145.666 45.6956C144.708 44.5861 143.87 42.9867 143.938 42.1681C145.076 41.1857 147.424 41.8952 148.636 43.299C149.848 44.7027 149.572 46.7569 148.49 47.4404C148.523 47.5702 146.18 46.2908 145.666 45.6956Z" stroke="white" stroke-linecap="round"/>
<path d="M162.868 21.1258C164.903 18.4128 165.823 16.8652 164.64 15.0371C163.891 13.8806 162.449 13.2856 160.016 13.8827C156.975 14.6291 153.436 17.8367 152.472 18.8132C151.508 19.7897 141.741 31.6617 138.815 34.1877C135.696 36.8803 124.644 43.8158 121.747 45.5546C119.271 47.0404 112.402 51.3736 111.364 52.2701C109.078 54.2438 109.089 55.9855 109.785 56.7911C111.089 58.3021 114.939 55.2749 116.876 53.6027L123.903 47.5372C126.211 45.5449 129.619 43.2508 133.794 40.4401L134.064 40.2587C137.82 37.7299 146.189 33.7336 150.341 31.9394C154.493 30.1452 160.857 23.8051 162.868 21.1258Z" stroke="white" stroke-linecap="round"/>
<path d="M132.983 42.913C137.458 40.0482 147.48 35.4115 151.13 34.3146C155.442 33.0189 157.82 34.3092 160.943 37.1621" stroke="white" stroke-linecap="round"/>
<path d="M176.517 34.9907C176.336 34.1529 174.417 31.9731 172.87 31.8128C170.37 36.4759 160.997 45.0949 157.853 47.4299C155.337 49.2979 150.772 51.2409 148.803 51.9789C148.393 53.4611 149.575 55.6745 150.714 56.149C152.136 56.7421 159.276 53.562 166.188 47.0642C173.1 40.5664 176.677 35.7293 176.517 34.9907Z" stroke="white" stroke-linecap="round"/>
<path d="M179.241 69.983C180.436 70.4812 183.893 74.6002 185.472 76.5974L189.679 81.4711C185.759 84.5621 179.574 88.0123 178.363 87.3511C176.849 86.5245 167.092 79.0825 164.849 79.4187C162.606 79.755 154.36 83.8132 148.941 86.4359C147.568 87.1003 138.742 91.7673 136.201 93.1548C136.559 94.1628 138.355 96.2638 138.219 97.0616C138.015 98.2624 126.774 103.921 125.772 103.384C124.818 102.874 123.594 99.5564 123.005 98.4921L133.888 93.0555C137.763 91.1009 153.909 80.2049 165.249 74.4135C176.589 68.6222 177.747 69.3603 179.241 69.983Z" stroke="white" stroke-linecap="round" stroke-linejoin="round"/>
<path d="M167.239 48.9531C167.736 51.1599 168.414 56.2361 167.15 58.8871C165.569 62.2009 154.847 70.4825 147.134 74.974C139.422 79.4654 129.165 86.1535 127.45 86.5508C125.735 86.9481 125.611 87.0553 124.889 86.5954" stroke="white" stroke-linecap="round"/>
<path d="M135.694 92.2598L136.67 93.9641" stroke="white" stroke-linecap="round"/>
<path d="M136.915 94.7751C133.399 96.5993 126.068 100.345 124.876 100.733" stroke="white" stroke-linecap="round"/>
<path d="M253.18 99.0012L253.112 99.4965V99.4965L253.18 99.0012ZM245.736 95.8725L245.35 96.1907V96.1907L245.736 95.8725ZM256.983 99.9272L257.224 99.4893V99.4893L256.983 99.9272ZM261.357 103.721L260.979 104.049V104.049L261.357 103.721ZM268.688 107.654L268.721 107.155V107.155L268.688 107.654ZM277.144 104.661L277.452 105.055V105.055L277.144 104.661ZM281.235 102.299L281.106 101.816V101.816L281.235 102.299ZM285.84 101.892L285.836 102.392V102.392L285.84 101.892ZM293.553 99.9272L293.842 100.335V100.335L293.553 99.9272ZM297.509 90.7608L297.013 90.6932V90.6932L297.509 90.7608ZM298.372 86.9977L298.808 87.2428V87.2428L298.372 86.9977ZM300.669 84.4653L301.008 84.8325L301.015 84.8258L301.022 84.8188L300.669 84.4653ZM300.669 84.4652L300.329 84.098L300.322 84.1047L300.315 84.1117L300.669 84.4652ZM305.334 77.511L304.847 77.4017V77.4017L305.334 77.511ZM301.696 66.7607L302.121 66.497V66.497L301.696 66.7607ZM300.056 63.7398L299.575 63.8768V63.8768L300.056 63.7398ZM299.814 60.9989L300.314 60.9898V60.9898L299.814 60.9989ZM297.607 52.1109L297.185 52.3789V52.3789L297.607 52.1109ZM288.375 47.4464L288.289 47.939V47.939L288.375 47.4464ZM285.06 46.679L285.242 46.2132V46.2132L285.06 46.679ZM282.34 44.3327L281.957 44.6546L281.957 44.6546L282.34 44.3327ZM274.196 40.0229L274.227 39.5238V39.5238L274.196 40.0229ZM265.591 42.9326L265.866 43.3502H265.866L265.591 42.9326ZM261.42 45.0723L261.299 44.5872V44.5872L261.42 45.0723ZM258.527 45.4082L258.49 44.9095V44.9095L258.527 45.4082ZM248.796 48.4387L249.154 48.7882V48.7882L248.796 48.4387ZM245.396 56.47L245.887 56.5642V56.5642L245.396 56.47ZM244.589 59.7615L244.12 59.5859V59.5859L244.589 59.7615ZM242.006 63.5276L241.62 63.2094H241.62L242.006 63.5276ZM238.009 71.0845L238.508 71.1091V71.1091L238.009 71.0845ZM241.247 79.8386L240.819 80.0972V80.0972L241.247 79.8386ZM242.982 83.0959L242.51 83.2617L242.51 83.2617L242.982 83.0959ZM243.249 86.6402L242.749 86.6269V86.6269L243.249 86.6402ZM262.857 70.0256L263.327 70.1962V70.1962L262.857 70.0256ZM262.604 76.3779L262.115 76.4839V76.4839L262.604 76.3779ZM262.784 67.8574L263.21 67.5963V67.5963L262.784 67.8574ZM254.522 62.1028L254.393 61.6198V61.6198L254.522 62.1028ZM254.522 83.4186L254.576 83.9157V83.9157L254.522 83.4186ZM262.147 78.2781L261.78 77.9385V77.9385L262.147 78.2781ZM274.676 82.5311L274.782 83.0197H274.782L274.676 82.5311ZM268.324 82.2774L268.154 82.7474V82.7474L268.324 82.2774ZM276.577 82.988L276.237 83.355V83.355L276.577 82.988ZM281.717 90.6124L282.214 90.5589V90.5589L281.717 90.6124ZM260.401 90.6124L259.918 90.742V90.742L260.401 90.6124ZM266.156 82.351L266.417 82.7774V82.7774L266.156 82.351ZM269.332 63.9217L269.222 63.434V63.434L269.332 63.9217ZM275.666 64.4687L275.5 64.9401V64.9401L275.666 64.4687ZM267.191 63.5761L266.878 63.9663V63.9663L267.191 63.5761ZM262.52 54.6567L262.983 54.846V54.846L262.52 54.6567ZM275.175 51.1037L275.112 51.5997V51.5997L275.175 51.1037ZM283.667 57.3366L284.154 57.4523V57.4523L283.667 57.3366ZM277.609 64.2543L277.9 64.661L277.9 64.661L277.609 64.2543ZM281.518 77.1628L281.048 76.9922V76.9922L281.518 77.1628ZM282.117 70.8338L281.629 70.9398V70.9398L282.117 70.8338ZM281.716 79.107L282.126 78.8196V78.8196L281.716 79.107ZM288.584 85.2221L288.704 84.7367V84.7367L288.584 85.2221ZM294.887 76.7816L294.391 76.7147V76.7147L294.887 76.7816ZM291.438 64.0983L291.631 63.637V63.637L291.438 64.0983ZM282.481 68.6949L282.868 69.0107V69.0107L282.481 68.6949ZM253.18 99.0012L253.248 98.5058C250.656 98.1493 247.938 97.7554 246.122 95.5543L245.736 95.8725L245.35 96.1907C247.452 98.7377 250.585 99.1489 253.112 99.4965L253.18 99.0012ZM256.983 99.9272L257.224 99.4893C256.15 98.8977 254.69 98.7043 253.248 98.5058L253.18 99.0012L253.112 99.4965C254.619 99.7038 255.865 99.8826 256.741 100.365L256.983 99.9272ZM261.357 103.721L261.735 103.394C260.632 102.119 259.393 100.684 257.224 99.4893L256.983 99.9272L256.741 100.365C258.741 101.467 259.882 102.78 260.979 104.049L261.357 103.721ZM268.688 107.654L268.721 107.155C266.707 107.021 265.38 106.545 264.362 105.893C263.332 105.233 262.585 104.376 261.735 103.394L261.357 103.721L260.979 104.049C261.816 105.016 262.652 105.986 263.823 106.736C265.007 107.494 266.503 108.01 268.655 108.153L268.688 107.654ZM277.144 104.661L276.836 104.267C275.812 105.068 274.81 105.849 273.55 106.405C272.301 106.955 270.777 107.293 268.721 107.155L268.688 107.654L268.655 108.153C270.865 108.301 272.55 107.938 273.953 107.32C275.344 106.706 276.438 105.848 277.452 105.055L277.144 104.661ZM281.235 102.299L281.106 101.816C279.363 102.283 278.078 103.295 276.836 104.267L277.144 104.661L277.452 105.055C278.714 104.068 279.847 103.188 281.364 102.782L281.235 102.299ZM285.84 101.892L285.844 101.392C284.361 101.379 282.792 101.364 281.106 101.816L281.235 102.299L281.364 102.782C282.902 102.37 284.34 102.379 285.836 102.392L285.84 101.892ZM293.553 99.9272L293.263 99.5199C290.587 101.425 288.303 101.412 285.844 101.392L285.84 101.892L285.836 102.392C288.314 102.412 290.887 102.438 293.842 100.335L293.553 99.9272ZM297.509 90.7608L297.013 90.6932C296.8 92.2566 296.566 93.9661 296.023 95.5482C295.482 97.1232 294.649 98.5332 293.263 99.5199L293.553 99.9272L293.842 100.335C295.454 99.1875 296.386 97.5699 296.969 95.8728C297.548 94.183 297.793 92.3761 298.004 90.8283L297.509 90.7608ZM298.372 86.9977L297.937 86.7526C297.667 87.2327 297.492 87.8412 297.358 88.4971C297.223 89.1579 297.12 89.9107 297.013 90.6932L297.509 90.7608L298.004 90.8283C298.112 90.0368 298.21 89.3193 298.337 88.6977C298.466 88.0712 298.616 87.5852 298.808 87.2428L298.372 86.9977ZM300.669 84.4653L300.329 84.098C299.39 84.9658 298.465 85.813 297.937 86.7526L298.372 86.9977L298.808 87.2428C299.243 86.47 300.03 85.7358 301.008 84.8325L300.669 84.4653ZM300.669 84.4652L300.315 84.1117L300.315 84.1117L300.669 84.4653L301.022 84.8188L301.022 84.8188L300.669 84.4652ZM305.334 77.511L304.847 77.4017C304.138 80.5665 302.116 82.4471 300.329 84.098L300.669 84.4652L301.008 84.8325C302.786 83.1903 305.038 81.1219 305.822 77.6202L305.334 77.511ZM301.696 66.7607L301.272 67.0245C302.2 68.52 303.289 70.2754 304.05 72.0981C304.813 73.9257 305.216 75.7526 304.847 77.4017L305.334 77.511L305.822 77.6202C306.258 75.6747 305.767 73.6166 304.973 71.7129C304.176 69.8041 303.043 67.9818 302.121 66.497L301.696 66.7607ZM300.056 63.7398L299.575 63.8768C299.691 64.2866 299.93 64.7678 300.219 65.2815C300.513 65.802 300.879 66.3924 301.272 67.0245L301.696 66.7607L302.121 66.497C301.725 65.8594 301.371 65.2887 301.091 64.7908C300.806 64.2861 300.619 63.8917 300.536 63.6029L300.056 63.7398ZM299.814 60.9989L299.314 61.0081C299.334 62.0744 299.349 63.0829 299.575 63.8768L300.056 63.7398L300.536 63.6029C300.354 62.9626 300.335 62.1051 300.314 60.9898L299.814 60.9989ZM297.607 52.1109L297.185 52.3789C299.209 55.5663 299.27 58.6092 299.314 61.0081L299.814 60.9989L300.314 60.9898C300.27 58.5821 300.215 55.2859 298.029 51.8429L297.607 52.1109ZM288.375 47.4464L288.289 47.939C291.502 48.4946 295.133 49.1468 297.185 52.3789L297.607 52.1109L298.029 51.8429C295.705 48.1825 291.597 47.4962 288.46 46.9537L288.375 47.4464ZM285.06 46.679L284.879 47.1447C285.83 47.5159 287.041 47.7231 288.289 47.939L288.375 47.4464L288.46 46.9537C287.178 46.7319 286.079 46.5397 285.242 46.2132L285.06 46.679ZM282.34 44.3327L281.957 44.6546C282.787 45.6412 283.628 46.6565 284.879 47.1447L285.06 46.679L285.242 46.2132C284.27 45.8339 283.588 45.0398 282.722 44.0108L282.34 44.3327ZM274.196 40.0229L274.166 40.5219C276.471 40.6644 278.035 41.2592 279.203 42.0187C280.38 42.7843 281.182 43.733 281.957 44.6546L282.34 44.3327L282.722 44.0108C281.953 43.0958 281.065 42.037 279.748 41.1804C278.422 40.3177 276.687 39.6759 274.227 39.5238L274.196 40.0229ZM265.591 42.9326L265.866 43.3502C268.153 41.8441 270.52 40.2966 274.166 40.5219L274.196 40.0229L274.227 39.5238C270.22 39.2761 267.604 41.0083 265.316 42.5149L265.591 42.9326ZM261.42 45.0723L261.541 45.5574C263.121 45.1633 264.5 44.2495 265.866 43.3502L265.591 42.9326L265.316 42.5149C263.92 43.4342 262.684 44.2417 261.299 44.5872L261.42 45.0723ZM258.527 45.4082L258.563 45.9069C259.714 45.8229 260.781 45.7469 261.541 45.5574L261.42 45.0723L261.299 44.5872C260.643 44.7508 259.679 44.8228 258.49 44.9095L258.527 45.4082ZM248.796 48.4387L249.154 48.7882C250.283 47.6331 251.838 46.9632 253.532 46.5572C255.226 46.1513 257.007 46.0203 258.563 45.9069L258.527 45.4082L258.49 44.9095C256.947 45.0221 255.085 45.1568 253.299 45.5848C251.513 46.0128 249.753 46.7451 248.439 48.0891L248.796 48.4387ZM245.396 56.47L245.887 56.5642C246.398 53.8981 246.96 51.0319 249.154 48.7882L248.796 48.4387L248.439 48.0891C246.006 50.5776 245.41 53.7445 244.904 56.3757L245.396 56.47ZM244.589 59.7615L245.057 59.9371C245.433 58.9324 245.657 57.7582 245.887 56.5642L245.396 56.47L244.904 56.3757C244.671 57.5924 244.461 58.6765 244.12 59.5859L244.589 59.7615ZM242.006 63.5276L242.392 63.8459C243.488 62.5176 244.583 61.2006 245.057 59.9371L244.589 59.7615L244.12 59.5859C243.719 60.6574 242.758 61.8313 241.62 63.2094L242.006 63.5276ZM238.009 71.0845L238.508 71.1091C238.574 69.7777 239.079 68.5181 239.81 67.3042C240.543 66.0872 241.482 64.9479 242.392 63.8459L242.006 63.5276L241.62 63.2094C240.719 64.3011 239.731 65.497 238.953 66.7884C238.174 68.0829 237.586 69.5049 237.51 71.06L238.009 71.0845ZM241.247 79.8386L241.675 79.5799C240.905 78.3068 240.075 76.9329 239.454 75.4911C238.833 74.0506 238.436 72.5759 238.508 71.1091L238.009 71.0845L237.51 71.06C237.427 72.7364 237.882 74.3703 238.536 75.8868C239.188 77.4019 240.055 78.8334 240.819 80.0972L241.247 79.8386ZM242.982 83.0959L243.454 82.9302C243.108 81.946 242.407 80.7921 241.675 79.5799L241.247 79.8386L240.819 80.0972C241.573 81.3444 242.207 82.3975 242.51 83.2617L242.982 83.0959ZM243.249 86.6402L243.749 86.6534C243.784 85.3101 243.826 83.9911 243.454 82.9302L242.982 83.0959L242.51 83.2617C242.809 84.1111 242.786 85.2197 242.749 86.6269L243.249 86.6402ZM245.736 95.8725L246.122 95.5543C243.603 92.5014 243.677 89.3538 243.749 86.6534L243.249 86.6402L242.749 86.6269C242.677 89.3272 242.574 92.8251 245.35 96.1907L245.736 95.8725ZM262.857 70.0256L262.387 69.8551C261.865 71.2942 261.491 73.6068 262.115 76.4839L262.604 76.3779L263.092 76.2718C262.509 73.5856 262.867 71.4647 263.327 70.1962L262.857 70.0256ZM262.784 67.8574L262.357 68.1185C262.639 68.5789 262.62 69.2125 262.387 69.8551L262.857 70.0256L263.327 70.1962C263.61 69.4163 263.718 68.4264 263.21 67.5963L262.784 67.8574ZM254.522 62.1028L254.652 62.5857C256.055 62.2092 257.527 62.8298 258.926 63.9942C260.312 65.1486 261.524 66.7578 262.357 68.1185L262.784 67.8574L263.21 67.5963C262.345 66.183 261.066 64.4751 259.565 63.2258C258.077 61.9865 256.268 61.1167 254.393 61.6198L254.522 62.1028ZM249.406 74.2101H249.906C249.906 72.4605 250.02 69.8028 250.697 67.4416C251.379 65.0612 252.583 63.1406 254.652 62.5857L254.522 62.1028L254.393 61.6198C251.8 62.3154 250.446 64.6864 249.736 67.1661C249.02 69.6648 248.906 72.4355 248.906 74.2101H249.406ZM254.522 83.4186L254.469 82.9215C252.974 83.0824 251.838 81.9579 251.039 80.0886C250.254 78.2534 249.906 75.9217 249.906 74.2101H249.406H248.906C248.906 76.0228 249.269 78.4943 250.119 80.4817C250.954 82.435 252.376 84.1526 254.576 83.9157L254.522 83.4186ZM262.147 78.2781L261.78 77.9385C260.881 78.9097 259.639 80.1027 258.314 81.0829C256.973 82.0745 255.613 82.7982 254.469 82.9215L254.522 83.4186L254.576 83.9157C255.995 83.7628 257.534 82.9031 258.908 81.8869C260.298 80.8592 261.586 79.62 262.514 78.6177L262.147 78.2781ZM262.604 76.3779L262.115 76.4839C262.234 77.0336 262.116 77.5746 261.78 77.9385L262.147 78.2781L262.514 78.6177C263.116 77.9673 263.266 77.0725 263.092 76.2718L262.604 76.3779ZM274.676 82.5311L274.57 82.0425C271.884 82.6255 269.763 82.2677 268.495 81.8074L268.324 82.2774L268.154 82.7474C269.593 83.2696 271.905 83.6442 274.782 83.0197L274.676 82.5311ZM276.577 82.988L276.916 82.621C276.266 82.0192 275.371 81.8687 274.57 82.0425L274.676 82.5311L274.782 83.0197C275.332 82.9004 275.873 83.0183 276.237 83.355L276.577 82.988ZM281.717 90.6124L282.214 90.5589C282.061 89.1394 281.202 87.6003 280.185 86.2263C279.158 84.837 277.919 83.5487 276.916 82.621L276.577 82.988L276.237 83.355C277.208 84.2538 278.401 85.4958 279.381 86.821C280.373 88.1617 281.097 89.5215 281.22 90.666L281.717 90.6124ZM272.509 95.7282V96.2282C274.321 96.2282 276.793 95.8652 278.78 95.0156C280.734 94.1805 282.451 92.759 282.214 90.5589L281.717 90.6124L281.22 90.666C281.381 92.1606 280.256 93.297 278.387 94.0961C276.552 94.8807 274.22 95.2282 272.509 95.2282V95.7282ZM260.401 90.6124L259.918 90.742C260.614 93.3346 262.985 94.6883 265.465 95.3989C267.963 96.1149 270.734 96.2282 272.509 96.2282V95.7282V95.2282C270.759 95.2282 268.101 95.1142 265.74 94.4376C263.36 93.7555 261.439 92.5513 260.884 90.4829L260.401 90.6124ZM266.156 82.351L265.895 81.9246C264.482 82.7899 262.774 84.069 261.524 85.5692C260.285 87.0574 259.415 88.8668 259.918 90.742L260.401 90.6124L260.884 90.4829C260.508 89.0796 261.128 87.6074 262.293 86.2092C263.447 84.8229 265.056 83.6106 266.417 82.7774L266.156 82.351ZM268.324 82.2774L268.495 81.8074C267.715 81.5244 266.725 81.4163 265.895 81.9246L266.156 82.351L266.417 82.7774C266.877 82.4955 267.511 82.5143 268.154 82.7474L268.324 82.2774ZM269.332 63.9217L269.443 64.4094C270.759 64.1123 272.908 64.024 275.5 64.9401L275.666 64.4687L275.833 63.9972C273.057 63.016 270.716 63.0968 269.222 63.434L269.332 63.9217ZM267.191 63.5761L266.878 63.9663C267.638 64.5749 268.633 64.5921 269.443 64.4094L269.332 63.9217L269.222 63.434C268.556 63.5845 267.925 63.5234 267.503 63.1859L267.191 63.5761ZM262.52 54.6567L262.058 54.4675C261.323 56.2645 261.958 58.1689 263 59.8011C264.051 61.4465 265.585 62.9301 266.878 63.9663L267.191 63.5761L267.503 63.1859C266.258 62.1883 264.814 60.7832 263.843 59.2628C262.864 57.7293 262.433 56.1908 262.983 54.846L262.52 54.6567ZM275.175 51.1037L275.238 50.6077C273.477 50.3846 270.714 50.1486 268.145 50.5448C265.596 50.938 263.074 51.9829 262.058 54.4675L262.52 54.6567L262.983 54.846C263.794 52.8637 265.851 51.9105 268.298 51.5331C270.725 51.1588 273.376 51.3798 275.112 51.5997L275.175 51.1037ZM283.667 57.3366L284.154 57.4523C284.665 55.2994 283.14 53.6732 281.307 52.5992C279.442 51.5064 277.036 50.8356 275.238 50.6077L275.175 51.1037L275.112 51.5997C276.81 51.8149 279.079 52.4529 280.801 53.4619C282.556 54.4898 283.528 55.7585 283.181 57.221L283.667 57.3366ZM277.609 64.2543L277.9 64.661C279.011 63.8668 280.402 62.7445 281.596 61.4954C282.777 60.2601 283.823 58.8413 284.154 57.4523L283.667 57.3366L283.181 57.221C282.914 58.3409 282.026 59.599 280.873 60.8043C279.734 61.9958 278.395 63.0779 277.318 63.8475L277.609 64.2543ZM275.666 64.4687L275.5 64.9401C276.272 65.2131 277.179 65.1764 277.9 64.661L277.609 64.2543L277.318 63.8475C276.915 64.1358 276.363 64.1847 275.833 63.9972L275.666 64.4687ZM281.518 77.1628L281.988 77.3333C282.992 74.5656 282.931 72.2238 282.606 70.7277L282.117 70.8338L281.629 70.9398C281.915 72.2586 281.986 74.4083 281.048 76.9922L281.518 77.1628ZM281.716 79.107L282.126 78.8196C281.841 78.414 281.796 77.8621 281.988 77.3333L281.518 77.1628L281.048 76.9922C280.769 77.7624 280.798 78.6694 281.307 79.3945L281.716 79.107ZM288.584 85.2221L288.704 84.7367C287.586 84.4613 286.335 83.562 285.139 82.3998C283.957 81.251 282.886 79.9025 282.126 78.8196L281.716 79.107L281.307 79.3945C282.092 80.512 283.203 81.9125 284.442 83.1169C285.668 84.308 287.078 85.3661 288.464 85.7076L288.584 85.2221ZM294.887 76.7816L294.391 76.7147C294.162 78.4109 293.505 80.675 292.482 82.3886C291.44 84.1341 290.163 85.0963 288.704 84.7367L288.584 85.2221L288.464 85.7076C290.613 86.237 292.252 84.7252 293.341 82.9013C294.449 81.0455 295.139 78.6449 295.382 76.8486L294.887 76.7816ZM291.438 64.0983L291.245 64.5595C293.221 65.3864 294.157 67.4509 294.514 69.9012C294.868 72.3318 294.625 74.9808 294.391 76.7147L294.887 76.7816L295.382 76.8486C295.62 75.0899 295.878 72.329 295.503 69.7569C295.131 67.2044 294.107 64.6735 291.631 63.637L291.438 64.0983ZM282.481 68.6949L282.868 69.0107C283.876 67.7738 285.293 66.3415 286.821 65.3831C288.363 64.4164 289.905 63.9985 291.245 64.5595L291.438 64.0983L291.631 63.637C289.84 62.8874 287.931 63.507 286.29 64.5359C284.636 65.5731 283.14 67.0944 282.093 68.379L282.481 68.6949ZM282.117 70.8338L282.606 70.7277C282.461 70.0597 282.527 69.4292 282.868 69.0107L282.481 68.6949L282.093 68.379C281.478 69.1336 281.453 70.1291 281.629 70.9398L282.117 70.8338Z" fill="white"/>
<path d="M245.611 76.3467C246.099 80.3074 248.624 87.5271 253.773 92.4727C258.315 96.8353 261.701 99.2258 272.18 99.2258C282.28 99.2258 289.804 92.5017 292.496 88.4629" stroke="white" stroke-linecap="round"/>
<path d="M255.679 53.2266C258.216 51.0024 264.351 46.7069 272.456 46.707C280.562 46.7071 285.824 51.1195 288.633 53.929" stroke="white" stroke-linecap="round"/>
<path d="M296.886 64.874C297.315 67.5665 297.892 72.7996 297.377 76.4052C296.862 80.0108 295.181 84.8134 294.556 85.9256" stroke="white" stroke-linecap="round"/>
<path d="M268.828 68.9489C268.668 69.009 267.283 71.5222 266.558 72.8226C266.459 72.9997 266.379 73.1895 266.378 73.3923C266.373 75.1157 268.81 78.5194 269.366 78.5194C269.957 78.5194 274.555 78.7613 275.253 78.1699C275.952 77.5785 277.108 73.2502 277.001 72.9276C276.893 72.605 274.77 68.9489 274.151 68.7876C273.533 68.6264 269.043 68.8683 268.828 68.9489Z" stroke="white"/>
<path d="M271.14 70.8852C270.237 70.8636 269.563 71.7365 269.339 72.1756C269.154 72.5374 268.948 73.09 269.339 74.4643C269.742 75.8819 270.522 75.9661 272.484 76.0736C274.447 76.1811 274.565 72.8564 274.017 71.826C273.516 70.8852 272.269 70.9121 271.14 70.8852Z" stroke="white"/>
<path d="M357.018 105.336C356.981 105.468 356.93 105.643 356.872 105.82C356.751 106.193 356.603 106.577 356.511 106.597C356.376 106.627 356.353 107.046 356.359 107.252L355.7 107.903L355.852 108.513C355.72 108.661 355.447 108.994 355.413 109.139C355.379 109.285 355.32 109.539 355.295 109.648L354.923 110.213C355.011 110.719 355.883 112.022 358.67 113.19C362.153 114.65 363.565 114.211 363.776 113.992C363.945 113.817 363.858 113.258 363.793 113C363.852 113.052 363.989 113.076 364.063 112.756C364.137 112.436 364.088 112.034 364.054 111.873L364.696 111.294L364.324 110.71L365.034 110.645L364.611 109.474L364.837 109.116" stroke="white" stroke-linecap="round" stroke-linejoin="round"/>
<path d="M356.657 106.986C357.253 107.486 358.849 108.653 360.466 109.318C362.082 109.982 363.625 110.376 364.194 110.489" stroke="white" stroke-linecap="round" stroke-linejoin="round"/>
<path d="M356.13 108.338C356.726 108.838 358.322 110.005 359.938 110.669C361.555 111.334 363.097 111.727 363.667 111.841" stroke="white" stroke-linecap="round" stroke-linejoin="round"/>
<path d="M355.787 109.817C356.383 110.318 357.978 111.484 359.595 112.149C361.212 112.813 362.754 113.207 363.323 113.32" stroke="white" stroke-linecap="round" stroke-linejoin="round"/>
<path d="M433.472 36.7855C435.27 30.8626 430.685 25.5665 429.19 24.2685C427.695 22.9704 423.038 20.7268 414.442 21.7957C405.846 22.8646 396.837 29.1362 391.603 37.4731C387.325 44.2863 387.909 45.9635 386.779 48.5543C385.649 51.1451 374.351 65.2182 368.862 74.2995C364.47 81.5645 357.696 97.2092 354.858 104.123C357.331 107.128 368.128 110.691 368.6 109.11C369.073 107.529 373.531 96.5174 379.947 81.6279C384.982 69.9403 390.451 62.7436 395.729 58.5486" stroke="white" stroke-linecap="round" stroke-linejoin="round"/>
<path d="M391.635 49.2943C390.752 53.0984 392.975 57.2489 395.644 58.3753C404.122 61.9521 409.128 59.8082 416.633 56.1855C422.917 53.1528 429.009 46.6751 431.36 41.9925C433.712 37.3099 434.19 34.6016 433.568 32.4851C433.042 30.7004 430.332 26.89 425.282 26.12C420.232 25.3499 414.703 26.2723 405.564 31.7347C396.425 37.1971 392.662 44.8699 391.635 49.2943Z" stroke="white" stroke-linecap="round" stroke-linejoin="round"/>
<path d="M393.73 49.6934C392.722 53.0853 394.554 57.0985 397.106 58.1844L398.435 59.0692C397.779 59.6925 396.286 61.1158 395.564 61.8219C394.661 62.7045 394.108 64.0009 395.494 65.1299C396.88 66.2589 399.494 65.9634 400.369 64.647C401.07 63.5939 402.165 61.1382 402.625 60.042C406.794 60.7437 414.088 57.623 417.215 55.9749C423.243 53.0006 429.102 46.6752 431.372 42.1104C433.641 37.5456 433.246 35.401 432.658 33.3441C432.161 31.6096 430.165 28.6146 425.333 27.8844C420.5 27.1541 415.252 28.4599 406.479 33.8089C397.706 39.158 394.989 45.4535 393.73 49.6934Z" stroke="white" stroke-linecap="round" stroke-linejoin="round"/>
<path d="M414.796 45.629C416.012 44.7413 417.237 44.5037 418.121 45.1392C419.085 46.051 418.682 46.9829 418.299 47.5012C417.756 48.2353 417.144 48.5234 415.709 49.3945C414.274 50.2656 412.941 49.5834 412.502 48.8794C412.064 48.1754 413.277 46.7385 414.796 45.629Z" stroke="white" stroke-linecap="round" stroke-linejoin="round"/>
<path d="M404.804 38.8056C404.448 38.2607 405.094 37.8636 405.508 37.6055C406.985 37.1162 406.733 38.5806 406.451 39.1879C406.168 39.7951 405.118 39.2857 404.804 38.8056Z" stroke="white" stroke-linecap="round" stroke-linejoin="round"/>
<path d="M407.401 39.4082C407.045 38.8633 407.69 38.4661 408.104 38.2081C409.581 37.7187 409.33 39.1831 409.047 39.7904C408.764 40.3977 407.714 39.8882 407.401 39.4082Z" stroke="white" stroke-linecap="round" stroke-linejoin="round"/>
<path d="M400.292 43.5263C399.936 42.9814 400.581 42.5843 400.995 42.3262C402.472 41.8369 402.221 43.3013 401.938 43.9086C401.656 44.5158 400.605 44.0064 400.292 43.5263Z" stroke="white" stroke-linecap="round" stroke-linejoin="round"/>
<path d="M403.153 43.1211C402.798 42.5761 403.443 42.179 403.857 41.921C405.334 41.4316 405.083 42.896 404.8 43.5033C404.517 44.1106 403.467 43.6011 403.153 43.1211Z" stroke="white" stroke-linecap="round" stroke-linejoin="round"/>
<path d="M402.522 60.2815C403.164 58.8188 403.267 57.7183 403.41 56.739" stroke="white" stroke-linecap="round" stroke-linejoin="round"/>
<path d="M387.572 56.0869C384.445 60.2121 377.207 70.4586 373.271 78.4427C369.335 86.4268 363.85 99.9987 361.599 105.787" stroke="white" stroke-linecap="round" stroke-linejoin="round"/>
<path d="M405.936 38.8233C405.98 38.9524 406.078 39.1649 406.11 38.9824C406.141 38.7999 406.181 38.6561 406.197 38.607" stroke="white" stroke-linecap="round" stroke-linejoin="round"/>
<path d="M408.532 39.4258C408.577 39.5549 408.674 39.7675 408.706 39.585C408.738 39.4024 408.777 39.2586 408.793 39.2096" stroke="white" stroke-linecap="round" stroke-linejoin="round"/>
<path d="M409.98 40.083C409.624 39.5381 410.269 39.1409 410.683 38.8829C412.16 38.3935 411.909 39.8579 411.626 40.4652C411.344 41.0725 410.293 40.563 409.98 40.083Z" stroke="white" stroke-linecap="round" stroke-linejoin="round"/>
<path d="M411.111 40.1016C411.156 40.2307 411.253 40.4433 411.285 40.2607C411.317 40.0782 411.356 39.9344 411.372 39.8853" stroke="white" stroke-linecap="round" stroke-linejoin="round"/>
<path d="M414.171 37.9756C413.815 37.4306 414.46 37.0335 414.874 36.7755C416.351 36.2861 416.1 37.7505 415.817 38.3578C415.534 38.965 414.484 38.4556 414.171 37.9756Z" stroke="white" stroke-linecap="round" stroke-linejoin="round"/>
<path d="M415.302 37.9942C415.347 38.1233 415.444 38.3358 415.476 38.1533C415.508 37.9708 415.547 37.827 415.563 37.7779" stroke="white" stroke-linecap="round" stroke-linejoin="round"/>
<path d="M412.376 36.3779C412.02 35.833 412.665 35.4358 413.079 35.1778C414.556 34.6885 414.305 36.1529 414.022 36.7601C413.74 37.3674 412.689 36.8579 412.376 36.3779Z" stroke="white" stroke-linecap="round" stroke-linejoin="round"/>
<path d="M413.507 36.3965C413.552 36.5256 413.649 36.7382 413.681 36.5557C413.713 36.3731 413.752 36.2293 413.768 36.1803" stroke="white" stroke-linecap="round" stroke-linejoin="round"/>
<path d="M410.186 34.8603C409.83 34.3154 410.476 33.9183 410.89 33.6602C412.367 33.1709 412.115 34.6353 411.833 35.2425C411.55 35.8498 410.5 35.3404 410.186 34.8603Z" stroke="white" stroke-linecap="round" stroke-linejoin="round"/>
<path d="M411.317 34.8789C411.362 35.008 411.46 35.2206 411.491 35.0381C411.523 34.8555 411.563 34.7118 411.579 34.6627" stroke="white" stroke-linecap="round" stroke-linejoin="round"/>
<path d="M416.04 32.3838C415.684 31.8388 416.33 31.4417 416.744 31.1837C418.221 30.6943 417.969 32.1587 417.687 32.766C417.404 33.3733 416.354 32.8638 416.04 32.3838Z" stroke="white" stroke-linecap="round" stroke-linejoin="round"/>
<path d="M417.171 32.4024C417.216 32.5315 417.314 32.744 417.345 32.5615C417.377 32.379 417.417 32.2352 417.433 32.1861" stroke="white" stroke-linecap="round" stroke-linejoin="round"/>
<path d="M421.498 31.6347C421.142 31.0898 421.788 30.6927 422.202 30.4346C423.679 29.9453 423.427 31.4097 423.145 32.017C422.862 32.6242 421.812 32.1148 421.498 31.6347Z" stroke="white" stroke-linecap="round" stroke-linejoin="round"/>
<path d="M422.629 31.6534C422.674 31.7825 422.772 31.995 422.803 31.8125C422.835 31.63 422.875 31.4862 422.891 31.4371" stroke="white" stroke-linecap="round" stroke-linejoin="round"/>
<path d="M417.335 34.5039C416.979 33.959 417.624 33.5618 418.038 33.3038C419.515 32.8144 419.264 34.2788 418.981 34.8861C418.698 35.4934 417.648 34.9839 417.335 34.5039Z" stroke="white" stroke-linecap="round" stroke-linejoin="round"/>
<path d="M418.466 34.5225C418.511 34.6516 418.608 34.8642 418.64 34.6816C418.672 34.4991 418.711 34.3553 418.727 34.3062" stroke="white" stroke-linecap="round" stroke-linejoin="round"/>
<path d="M422.044 34.0927C421.688 33.5478 422.333 33.1507 422.747 32.8926C424.224 32.4033 423.973 33.8677 423.69 34.475C423.407 35.0822 422.357 34.5728 422.044 34.0927Z" stroke="white" stroke-linecap="round" stroke-linejoin="round"/>
<path d="M423.175 34.1114C423.22 34.2405 423.317 34.453 423.349 34.2705C423.381 34.088 423.42 33.9442 423.436 33.8951" stroke="white" stroke-linecap="round" stroke-linejoin="round"/>
<path d="M401.423 43.545C401.468 43.6741 401.566 43.8866 401.597 43.7041C401.629 43.5216 401.669 43.3778 401.685 43.3287" stroke="white" stroke-linecap="round" stroke-linejoin="round"/>
<path d="M404.285 43.1397C404.329 43.2688 404.427 43.4814 404.459 43.2988C404.491 43.1163 404.53 42.9725 404.546 42.9234" stroke="white" stroke-linecap="round" stroke-linejoin="round"/>
<path d="M406.069 43.2597C405.713 42.7148 406.359 42.3177 406.773 42.0596C408.25 41.5703 407.998 43.0347 407.715 43.642C407.433 44.2492 406.383 43.7398 406.069 43.2597Z" stroke="white" stroke-linecap="round" stroke-linejoin="round"/>
<path d="M407.2 43.2784C407.245 43.4075 407.342 43.62 407.374 43.4375C407.406 43.255 407.446 43.1112 407.461 43.0621" stroke="white" stroke-linecap="round" stroke-linejoin="round"/>
<path d="M403.158 46.6787C402.802 46.1338 403.447 45.7366 403.861 45.4786C405.338 44.9892 405.087 46.4536 404.804 47.0609C404.522 47.6682 403.471 47.1587 403.158 46.6787Z" stroke="white" stroke-linecap="round" stroke-linejoin="round"/>
<path d="M404.289 46.6973C404.334 46.8264 404.431 47.039 404.463 46.8564C404.495 46.6739 404.534 46.5301 404.55 46.481" stroke="white" stroke-linecap="round" stroke-linejoin="round"/>
<path d="M400.374 47.4248C400.018 46.8799 400.663 46.4827 401.077 46.2247C402.554 45.7353 402.303 47.1997 402.02 47.807C401.738 48.4143 400.687 47.9048 400.374 47.4248Z" stroke="white" stroke-linecap="round" stroke-linejoin="round"/>
<path d="M401.505 47.4434C401.55 47.5725 401.647 47.7851 401.679 47.6025C401.711 47.42 401.75 47.2762 401.766 47.2271" stroke="white" stroke-linecap="round" stroke-linejoin="round"/>
<path d="M397.351 48.1748C396.995 47.6299 397.641 47.2327 398.055 46.9747C399.532 46.4853 399.28 47.9497 398.998 48.557C398.715 49.1643 397.665 48.6548 397.351 48.1748Z" stroke="white" stroke-linecap="round" stroke-linejoin="round"/>
<path d="M398.482 48.1934C398.527 48.3225 398.625 48.5351 398.656 48.3525C398.688 48.17 398.728 48.0262 398.744 47.9771" stroke="white" stroke-linecap="round" stroke-linejoin="round"/>
<path d="M396.673 52.5517C396.317 52.0068 396.962 51.6097 397.376 51.3516C398.853 50.8623 398.602 52.3267 398.319 52.934C398.036 53.5412 396.986 53.0318 396.673 52.5517Z" stroke="white" stroke-linecap="round" stroke-linejoin="round"/>
<path d="M397.804 52.5704C397.849 52.6995 397.946 52.912 397.978 52.7295C398.01 52.547 398.049 52.4032 398.065 52.3541" stroke="white" stroke-linecap="round" stroke-linejoin="round"/>
<path d="M399.058 51.207C398.702 50.6621 399.348 50.2649 399.762 50.0069C401.239 49.5176 400.987 50.982 400.705 51.5892C400.422 52.1965 399.372 51.687 399.058 51.207Z" stroke="white" stroke-linecap="round" stroke-linejoin="round"/>
<path d="M400.189 51.2256C400.234 51.3547 400.332 51.5673 400.364 51.3848C400.395 51.2022 400.435 51.0584 400.451 51.0094" stroke="white" stroke-linecap="round" stroke-linejoin="round"/>
<path d="M401.805 50.2729C401.497 49.8019 402.055 49.4587 402.413 49.2356C403.69 48.8127 403.472 50.0784 403.228 50.6033C402.984 51.1281 402.076 50.6878 401.805 50.2729Z" stroke="white" stroke-linecap="round" stroke-linejoin="round"/>
<path d="M402.783 50.2886C402.821 50.4002 402.906 50.5839 402.933 50.4261C402.961 50.2684 402.995 50.1441 403.008 50.1017" stroke="white" stroke-linecap="round" stroke-linejoin="round"/>
<path d="M418.615 36.5991C418.307 36.1281 418.865 35.7848 419.223 35.5618C420.499 35.1389 420.282 36.4046 420.038 36.9294C419.793 37.4543 418.886 37.014 418.615 36.5991Z" stroke="white" stroke-linecap="round" stroke-linejoin="round"/>
<path d="M419.592 36.6148C419.631 36.7264 419.715 36.9101 419.743 36.7523C419.77 36.5946 419.804 36.4703 419.818 36.4279" stroke="white" stroke-linecap="round" stroke-linejoin="round"/>
<path d="M422.031 36.5219C421.724 36.0509 422.281 35.7077 422.639 35.4847C423.916 35.0617 423.699 36.3274 423.454 36.8523C423.21 37.3771 422.302 36.9368 422.031 36.5219Z" stroke="white" stroke-linecap="round" stroke-linejoin="round"/>
<path d="M423.009 36.5376C423.047 36.6492 423.132 36.8329 423.159 36.6752C423.187 36.5174 423.221 36.3931 423.235 36.3507" stroke="white" stroke-linecap="round" stroke-linejoin="round"/>
<path d="M424.876 37.6596C424.569 37.1886 425.127 36.8454 425.484 36.6224C426.761 36.1994 426.544 37.4651 426.299 37.99C426.055 38.5148 425.147 38.0745 424.876 37.6596Z" stroke="white" stroke-linecap="round" stroke-linejoin="round"/>
<path d="M425.854 37.6763C425.893 37.7879 425.977 37.9716 426.004 37.8138C426.032 37.6561 426.066 37.5318 426.08 37.4894" stroke="white" stroke-linecap="round" stroke-linejoin="round"/>
<path d="M425.743 35.185C425.435 34.714 425.993 34.3708 426.351 34.1478C427.627 33.7248 427.41 34.9905 427.166 35.5154C426.921 36.0402 426.014 35.5999 425.743 35.185Z" stroke="white" stroke-linecap="round" stroke-linejoin="round"/>
<path d="M426.72 35.2007C426.759 35.3123 426.843 35.496 426.871 35.3383C426.898 35.1805 426.932 35.0562 426.946 35.0138" stroke="white" stroke-linecap="round" stroke-linejoin="round"/>
<path d="M426.332 32.6469C426.024 32.1759 426.582 31.8327 426.94 31.6097C428.217 31.1867 427.999 32.4524 427.755 32.9773C427.511 33.5021 426.603 33.0618 426.332 32.6469Z" stroke="white" stroke-linecap="round" stroke-linejoin="round"/>
<path d="M427.31 32.6626C427.348 32.7742 427.432 32.9579 427.46 32.8002C427.488 32.6424 427.522 32.5181 427.535 32.4757" stroke="white" stroke-linecap="round" stroke-linejoin="round"/>
<path d="M428.888 35.2817C428.58 34.8107 429.138 34.4675 429.496 34.2444C430.772 33.8215 430.555 35.0872 430.311 35.612C430.066 36.1369 429.159 35.6966 428.888 35.2817Z" stroke="white" stroke-linecap="round" stroke-linejoin="round"/>
<path d="M429.865 35.2974C429.904 35.409 429.988 35.5927 430.016 35.4349C430.043 35.2772 430.077 35.1529 430.091 35.1105" stroke="white" stroke-linecap="round" stroke-linejoin="round"/>
<path d="M427.832 37.8071C427.524 37.3361 428.082 36.9928 428.44 36.7698C429.717 36.3469 429.499 37.6126 429.255 38.1374C429.011 38.6623 428.103 38.222 427.832 37.8071Z" stroke="white" stroke-linecap="round" stroke-linejoin="round"/>
<path d="M428.81 37.8228C428.848 37.9344 428.932 38.1181 428.96 37.9603C428.988 37.8026 429.022 37.6783 429.035 37.6359" stroke="white" stroke-linecap="round" stroke-linejoin="round"/>
<path d="M427.772 38.0659C427.464 37.5949 428.022 37.2516 428.38 37.0286C429.657 36.6057 429.439 37.8714 429.195 38.3962C428.951 38.9211 428.043 38.4808 427.772 38.0659Z" stroke="white" stroke-linecap="round" stroke-linejoin="round"/>
<path d="M428.75 38.0826C428.788 38.1941 428.872 38.3779 428.9 38.2201C428.927 38.0623 428.962 37.9381 428.975 37.8956" stroke="white" stroke-linecap="round" stroke-linejoin="round"/>
<path d="M426.193 40.0571C425.885 39.5861 426.443 39.2428 426.801 39.0198C428.077 38.5969 427.86 39.8626 427.616 40.3874C427.372 40.9123 426.464 40.472 426.193 40.0571Z" stroke="white" stroke-linecap="round" stroke-linejoin="round"/>
<path d="M427.17 40.0728C427.209 40.1844 427.293 40.3681 427.321 40.2103C427.348 40.0526 427.383 39.9283 427.396 39.8859" stroke="white" stroke-linecap="round" stroke-linejoin="round"/>
<path d="M430.118 38.7143C429.9 38.3813 430.295 38.1387 430.548 37.981C431.45 37.682 431.297 38.5768 431.124 38.9478C430.951 39.3189 430.309 39.0076 430.118 38.7143Z" stroke="white" stroke-linecap="round" stroke-linejoin="round"/>
<path d="M430.809 38.726C430.836 38.8048 430.896 38.9347 430.915 38.8232C430.935 38.7117 430.959 38.6238 430.969 38.5938" stroke="white" stroke-linecap="round" stroke-linejoin="round"/>
<path d="M428.37 40.976C428.153 40.6431 428.547 40.4004 428.8 40.2427C429.703 39.9437 429.549 40.8385 429.376 41.2096C429.204 41.5806 428.562 41.2693 428.37 40.976Z" stroke="white" stroke-linecap="round" stroke-linejoin="round"/>
<path d="M429.061 40.9877C429.089 41.0666 429.148 41.1964 429.168 41.0849C429.187 40.9734 429.211 40.8855 429.221 40.8555" stroke="white" stroke-linecap="round" stroke-linejoin="round"/>
<path d="M426.474 42.8764C426.256 42.5434 426.651 42.3008 426.904 42.1431C427.806 41.8441 427.653 42.7389 427.48 43.1099C427.307 43.481 426.665 43.1697 426.474 42.8764Z" stroke="white" stroke-linecap="round" stroke-linejoin="round"/>
<path d="M427.165 42.8881C427.192 42.967 427.252 43.0968 427.271 42.9853C427.291 42.8738 427.315 42.7859 427.324 42.7559" stroke="white" stroke-linecap="round" stroke-linejoin="round"/>
<path d="M426.815 44.7075C426.598 44.3745 426.992 44.1318 427.245 43.9742C428.147 43.6752 427.994 44.57 427.821 44.941C427.648 45.312 427.007 45.0008 426.815 44.7075Z" stroke="white" stroke-linecap="round" stroke-linejoin="round"/>
<path d="M427.506 44.7182C427.534 44.797 427.593 44.9269 427.613 44.8154C427.632 44.7039 427.656 44.616 427.666 44.586" stroke="white" stroke-linecap="round" stroke-linejoin="round"/>
<path d="M425.065 46.351C424.847 46.0181 425.242 45.7754 425.495 45.6177C426.397 45.3187 426.243 46.2135 426.071 46.5846C425.898 46.9556 425.256 46.6443 425.065 46.351Z" stroke="white" stroke-linecap="round" stroke-linejoin="round"/>
<path d="M425.756 46.3627C425.783 46.4416 425.843 46.5714 425.862 46.4599C425.881 46.3484 425.906 46.2605 425.915 46.2305" stroke="white" stroke-linecap="round" stroke-linejoin="round"/>
<path d="M423.974 48.4526C423.756 48.1196 424.151 47.877 424.404 47.7193C425.306 47.4203 425.153 48.3151 424.98 48.6861C424.807 49.0572 424.165 48.7459 423.974 48.4526Z" stroke="white" stroke-linecap="round" stroke-linejoin="round"/>
<path d="M424.665 48.4642C424.692 48.5431 424.752 48.673 424.771 48.5615C424.791 48.4499 424.815 48.3621 424.824 48.3321" stroke="white" stroke-linecap="round" stroke-linejoin="round"/>
<path d="M422.138 49.8295C421.921 49.4966 422.315 49.2539 422.568 49.0962C423.471 48.7973 423.317 49.692 423.144 50.0631C422.972 50.4341 422.33 50.1228 422.138 49.8295Z" stroke="white" stroke-linecap="round" stroke-linejoin="round"/>
<path d="M422.829 49.8412C422.857 49.9201 422.916 50.05 422.936 49.9384C422.955 49.8269 422.979 49.739 422.989 49.7091" stroke="white" stroke-linecap="round" stroke-linejoin="round"/>
<path d="M419.002 52.353C418.784 52.02 419.179 51.7773 419.432 51.6197C420.334 51.3207 420.18 52.2155 420.008 52.5865C419.835 52.9576 419.193 52.6463 419.002 52.353Z" stroke="white" stroke-linecap="round" stroke-linejoin="round"/>
<path d="M419.693 52.3646C419.72 52.4435 419.78 52.5734 419.799 52.4619C419.818 52.3503 419.843 52.2625 419.852 52.2325" stroke="white" stroke-linecap="round" stroke-linejoin="round"/>
<path d="M414.543 54.6967C414.326 54.3638 414.72 54.1211 414.973 53.9634C415.876 53.6644 415.722 54.5592 415.549 54.9303C415.377 55.3013 414.735 54.99 414.543 54.6967Z" stroke="white" stroke-linecap="round" stroke-linejoin="round"/>
<path d="M415.234 54.7084C415.262 54.7873 415.321 54.9171 415.341 54.8056C415.36 54.6941 415.384 54.6062 415.394 54.5762" stroke="white" stroke-linecap="round" stroke-linejoin="round"/>
<path d="M416.065 55.2426C415.848 54.9097 416.242 54.667 416.495 54.5093C417.397 54.2103 417.244 55.1051 417.071 55.4762C416.898 55.8472 416.257 55.5359 416.065 55.2426Z" stroke="white" stroke-linecap="round" stroke-linejoin="round"/>
<path d="M416.756 55.2543C416.784 55.3332 416.843 55.463 416.863 55.3515C416.882 55.24 416.906 55.1521 416.916 55.1221" stroke="white" stroke-linecap="round" stroke-linejoin="round"/>
<path d="M410.58 56.1108C410.363 55.7778 410.757 55.5352 411.01 55.3775C411.913 55.0785 411.759 55.9733 411.586 56.3443C411.414 56.7154 410.772 56.4041 410.58 56.1108Z" stroke="white" stroke-linecap="round" stroke-linejoin="round"/>
<path d="M411.271 56.1224C411.299 56.2013 411.358 56.3312 411.378 56.2197C411.397 56.1081 411.421 56.0203 411.431 55.9903" stroke="white" stroke-linecap="round" stroke-linejoin="round"/>
<path d="M411.199 57.4868C410.981 57.1538 411.376 56.9111 411.629 56.7535C412.531 56.4545 412.378 57.3493 412.205 57.7203C412.032 58.0913 411.391 57.7801 411.199 57.4868Z" stroke="white" stroke-linecap="round" stroke-linejoin="round"/>
<path d="M411.89 57.4984C411.917 57.5773 411.977 57.7072 411.996 57.5957C412.016 57.4841 412.04 57.3963 412.05 57.3663" stroke="white" stroke-linecap="round" stroke-linejoin="round"/>
<path d="M402.019 53.0239C401.712 52.5529 402.27 52.2096 402.628 51.9866C403.904 51.5637 403.687 52.8294 403.443 53.3542C403.198 53.8791 402.29 53.4388 402.019 53.0239Z" stroke="white" stroke-linecap="round" stroke-linejoin="round"/>
<path d="M402.997 53.0406C403.036 53.1521 403.12 53.3359 403.147 53.1781C403.175 53.0203 403.209 52.8961 403.223 52.8536" stroke="white" stroke-linecap="round" stroke-linejoin="round"/>
<path d="M399.989 54.4262C399.681 53.9552 400.239 53.612 400.597 53.389C401.873 52.966 401.656 54.2317 401.412 54.7566C401.167 55.2814 400.26 54.8411 399.989 54.4262Z" stroke="white" stroke-linecap="round" stroke-linejoin="round"/>
<path d="M400.966 54.4419C401.005 54.5535 401.089 54.7372 401.117 54.5795C401.144 54.4217 401.178 54.2974 401.192 54.255" stroke="white" stroke-linecap="round" stroke-linejoin="round"/>
<path d="M403.528 55.2485C403.221 54.7775 403.778 54.4343 404.136 54.2112C405.413 53.7883 405.196 55.054 404.951 55.5788C404.707 56.1037 403.799 55.6634 403.528 55.2485Z" stroke="white" stroke-linecap="round" stroke-linejoin="round"/>
<path d="M404.506 55.2642C404.545 55.3758 404.629 55.5595 404.656 55.4017C404.684 55.244 404.718 55.1197 404.732 55.0773" stroke="white" stroke-linecap="round" stroke-linejoin="round"/>
<path d="M406.574 56.0291C406.331 55.6562 406.772 55.3845 407.056 55.208C408.066 54.8731 407.894 55.8751 407.701 56.2906C407.508 56.7061 406.789 56.3575 406.574 56.0291Z" stroke="white" stroke-linecap="round" stroke-linejoin="round"/>
<path d="M407.348 56.0421C407.379 56.1304 407.446 56.2758 407.467 56.151C407.489 56.0261 407.516 55.9277 407.527 55.8941" stroke="white" stroke-linecap="round" stroke-linejoin="round"/>
<path d="M405.854 57.533C405.61 57.1601 406.052 56.8884 406.335 56.7119C407.346 56.377 407.174 57.379 406.98 57.7945C406.787 58.21 406.068 57.8614 405.854 57.533Z" stroke="white" stroke-linecap="round" stroke-linejoin="round"/>
<path d="M406.628 57.546C406.658 57.6343 406.725 57.7798 406.747 57.6549C406.769 57.53 406.796 57.4316 406.806 57.398" stroke="white" stroke-linecap="round" stroke-linejoin="round"/>
<path d="M398.059 55.976C397.752 55.505 398.31 55.1618 398.668 54.9388C399.944 54.5158 399.727 55.7815 399.483 56.3064C399.238 56.8312 398.33 56.3909 398.059 55.976Z" stroke="white" stroke-linecap="round" stroke-linejoin="round"/>
<path d="M399.037 55.9927C399.076 56.1043 399.16 56.288 399.188 56.1302C399.215 55.9725 399.249 55.8482 399.263 55.8058" stroke="white" stroke-linecap="round" stroke-linejoin="round"/>
<path d="M412.83 44.8761C412.881 45.0244 412.993 45.2686 413.03 45.0589C413.066 44.8492 413.112 44.684 413.13 44.6276" stroke="white" stroke-linecap="round" stroke-linejoin="round"/>
<path d="M411.37 46.3458C411.422 46.4941 411.534 46.7384 411.57 46.5287C411.607 46.3189 411.652 46.1537 411.67 46.0973" stroke="white" stroke-linecap="round" stroke-linejoin="round"/>
<path d="M410.3 49.9103C410.351 50.0586 410.463 50.3028 410.5 50.0931C410.537 49.8834 410.582 49.7182 410.6 49.6618" stroke="white" stroke-linecap="round" stroke-linejoin="round"/>
<path d="M411.203 50.837C411.254 50.9854 411.366 51.2296 411.403 51.0199C411.439 50.8101 411.485 50.6449 411.503 50.5885" stroke="white" stroke-linecap="round" stroke-linejoin="round"/>
<path d="M417.277 42.7062C417.328 42.8545 417.44 43.0987 417.477 42.889C417.513 42.6793 417.559 42.5141 417.577 42.4577" stroke="white" stroke-linecap="round" stroke-linejoin="round"/>
<path d="M418.888 42.8068C418.939 42.9551 419.051 43.1993 419.088 42.9896C419.124 42.7799 419.17 42.6147 419.188 42.5583" stroke="white" stroke-linecap="round" stroke-linejoin="round"/>
<path d="M420.427 45.1905C420.479 45.3389 420.591 45.5831 420.627 45.3734C420.664 45.1637 420.709 44.9985 420.728 44.9421" stroke="white" stroke-linecap="round" stroke-linejoin="round"/>
<path d="M419.878 46.5118C419.929 46.6602 420.041 46.9044 420.078 46.6947C420.114 46.4849 420.16 46.3197 420.178 46.2634" stroke="white" stroke-linecap="round" stroke-linejoin="round"/>
<path d="M416.566 50.1583C416.617 50.3066 416.729 50.5509 416.766 50.3412C416.802 50.1314 416.848 49.9662 416.866 49.9098" stroke="white" stroke-linecap="round" stroke-linejoin="round"/>
<path d="M415.163 50.7667C415.214 50.915 415.326 51.1593 415.363 50.9496C415.399 50.7398 415.445 50.5746 415.463 50.5182" stroke="white" stroke-linecap="round" stroke-linejoin="round"/>
<path d="M409.456 44.3663C409.508 44.5147 409.62 44.7589 409.656 44.5492C409.693 44.3394 409.738 44.1742 409.756 44.1178" stroke="white" stroke-linecap="round" stroke-linejoin="round"/>
<path d="M409.127 44.0484C408.708 44.2734 408.788 44.8503 408.881 45.1106C408.927 45.2779 409.408 45.345 409.882 45.1862C410.355 45.0275 410.614 44.2031 410.575 43.9366C410.536 43.6701 409.652 43.767 409.127 44.0484Z" stroke="white" stroke-linecap="round" stroke-linejoin="round"/>
<path d="M414.624 40.8048C414.675 40.9531 414.787 41.1974 414.824 40.9876C414.86 40.7779 414.906 40.6127 414.924 40.5563" stroke="white" stroke-linecap="round" stroke-linejoin="round"/>
<path d="M414.295 40.4868C413.875 40.7119 413.956 41.2887 414.048 41.549C414.094 41.7164 414.576 41.7835 415.049 41.6247C415.523 41.466 415.781 40.6416 415.742 40.3751C415.704 40.1086 414.819 40.2055 414.295 40.4868Z" stroke="white" stroke-linecap="round" stroke-linejoin="round"/>
<path d="M419.746 39.589C419.797 39.7373 419.909 39.9815 419.946 39.7718C419.982 39.5621 420.028 39.3969 420.046 39.3405" stroke="white" stroke-linecap="round" stroke-linejoin="round"/>
<path d="M419.417 39.271C418.998 39.4961 419.078 40.0729 419.17 40.3332C419.216 40.5006 419.698 40.5677 420.171 40.4089C420.645 40.2501 420.903 39.4257 420.865 39.1593C420.826 38.8928 419.941 38.9897 419.417 39.271Z" stroke="white" stroke-linecap="round" stroke-linejoin="round"/>
<path d="M423.188 41.0402C423.24 41.1885 423.352 41.4327 423.388 41.223C423.425 41.0133 423.47 40.8481 423.488 40.7917" stroke="white" stroke-linecap="round" stroke-linejoin="round"/>
<path d="M422.859 40.7222C422.44 40.9472 422.52 41.5241 422.613 41.7844C422.659 41.9518 423.14 42.0188 423.614 41.8601C424.087 41.7013 424.346 40.8769 424.307 40.6104C424.268 40.3439 423.384 40.4409 422.859 40.7222Z" stroke="white" stroke-linecap="round" stroke-linejoin="round"/>
<path d="M406.74 48.8907C406.792 49.0391 406.904 49.2833 406.94 49.0736C406.977 48.8639 407.022 48.6986 407.041 48.6423" stroke="white" stroke-linecap="round" stroke-linejoin="round"/>
<path d="M406.412 48.5728C405.992 48.7978 406.072 49.3747 406.165 49.635C406.211 49.8023 406.693 49.8694 407.166 49.7107C407.639 49.5519 407.898 48.7275 407.859 48.461C407.82 48.1945 406.936 48.2914 406.412 48.5728Z" stroke="white" stroke-linecap="round" stroke-linejoin="round"/>
<path d="M407.041 52.2384C407.093 52.3867 407.205 52.631 407.241 52.4212C407.278 52.2115 407.323 52.0463 407.341 51.9899" stroke="white" stroke-linecap="round" stroke-linejoin="round"/>
<path d="M406.712 51.9204C406.293 52.1455 406.373 52.7223 406.466 52.9826C406.512 53.15 406.993 53.2171 407.467 53.0583C407.94 52.8996 408.199 52.0752 408.16 51.8087C408.121 51.5422 407.237 51.6391 406.712 51.9204Z" stroke="white" stroke-linecap="round" stroke-linejoin="round"/>
<path d="M410.709 53.5577C410.76 53.7061 410.872 53.9503 410.909 53.7406C410.945 53.5308 410.991 53.3656 411.009 53.3093" stroke="white" stroke-linecap="round" stroke-linejoin="round"/>
<path d="M410.38 53.2398C409.96 53.4648 410.041 54.0417 410.133 54.302C410.179 54.4693 410.661 54.5364 411.134 54.3777C411.608 54.2189 411.866 53.3945 411.827 53.128C411.789 52.8615 410.904 52.9584 410.38 53.2398Z" stroke="white" stroke-linecap="round" stroke-linejoin="round"/>
<path d="M415.786 52.2741C415.829 52.3876 415.921 52.5748 415.948 52.4154C415.976 52.256 416.01 52.1307 416.024 52.0879" stroke="white" stroke-linecap="round" stroke-linejoin="round"/>
<path d="M415.519 52.0279C415.185 52.1951 415.255 52.6352 415.332 52.8344C415.37 52.9623 415.758 53.0183 416.136 52.9021C416.514 52.786 416.714 52.1607 416.68 51.9573C416.646 51.754 415.937 51.8189 415.519 52.0279Z" stroke="white" stroke-linecap="round" stroke-linejoin="round"/>
<path d="M420.557 48.9226C420.6 49.0361 420.692 49.2232 420.719 49.0638C420.747 48.9045 420.781 48.7791 420.795 48.7363" stroke="white" stroke-linecap="round" stroke-linejoin="round"/>
<path d="M420.29 48.6773C419.956 48.8445 420.026 49.2846 420.103 49.4838C420.141 49.6118 420.529 49.6677 420.907 49.5515C421.285 49.4354 421.485 48.8101 421.451 48.6067C421.417 48.4034 420.708 48.4683 420.29 48.6773Z" stroke="white" stroke-linecap="round" stroke-linejoin="round"/>
<path d="M423.594 44.5798C423.637 44.6933 423.729 44.8804 423.757 44.7211C423.784 44.5617 423.819 44.4363 423.833 44.3936" stroke="white" stroke-linecap="round" stroke-linejoin="round"/>
<path d="M423.327 44.3345C422.993 44.5017 423.063 44.9419 423.14 45.141C423.178 45.269 423.566 45.3249 423.944 45.2088C424.323 45.0926 424.522 44.4673 424.488 44.264C424.454 44.0606 423.745 44.1255 423.327 44.3345Z" stroke="white" stroke-linecap="round" stroke-linejoin="round"/>
<path d="M107.4 27.6339C107.528 27.681 107.698 27.7469 107.87 27.8192C108.231 27.9708 108.602 28.1504 108.615 28.2434C108.633 28.3807 109.049 28.4377 109.254 28.449L109.849 29.1598L110.469 29.0585C110.606 29.2027 110.915 29.5025 111.057 29.5481C111.199 29.5938 111.448 29.6738 111.554 29.708L112.086 30.1253C112.597 30.0799 113.968 29.319 115.363 26.6384C117.107 23.2876 116.787 21.8445 116.586 21.6158C116.425 21.4328 115.861 21.4738 115.599 21.5172C115.655 21.4625 115.691 21.328 115.378 21.2275C115.065 21.127 114.661 21.1427 114.497 21.1631L113.974 20.4751L113.36 20.7976L113.354 20.0846L112.153 20.4093L111.815 20.1542" stroke="white" stroke-linecap="round" stroke-linejoin="round"/>
<path d="M109.014 28.1299C109.561 27.5775 110.856 26.0836 111.652 24.5276C112.449 22.9716 112.969 21.4671 113.129 20.9093" stroke="white" stroke-linecap="round" stroke-linejoin="round"/>
<path d="M110.317 28.7676C110.865 28.2152 112.16 26.7213 112.956 25.1653C113.753 23.6093 114.272 22.1048 114.433 21.547" stroke="white" stroke-linecap="round" stroke-linejoin="round"/>
<path d="M111.763 29.2314C112.311 28.679 113.606 27.1852 114.402 25.6292C115.198 24.0732 115.718 22.5686 115.878 22.0109" stroke="white" stroke-linecap="round" stroke-linejoin="round"/>
<path d="M45.419 -54.2374C39.6654 -56.5196 34.0077 -52.3895 32.5902 -51.0071C31.1728 -49.6247 28.5511 -45.1696 28.9041 -36.5146C29.2571 -27.8595 34.7607 -18.3621 42.6353 -12.4549C49.0707 -7.62726 50.7905 -8.07043 53.2788 -6.72987C55.7671 -5.38931 68.8557 7.03572 77.451 13.2588C84.3271 18.2373 99.3568 26.284 106.012 29.685C109.211 27.4698 113.656 17.0055 112.12 16.4035C110.584 15.8015 99.9794 10.4462 85.6725 2.81932C74.4424 -3.16736 67.7235 -9.21394 63.9802 -14.8208" stroke="white" stroke-linecap="round" stroke-linejoin="round"/>
<path d="M60.8514 -6.89527C64.7034 -3.43737 74.315 4.62439 81.9455 9.20827C89.5761 13.7922 102.647 20.3833 108.228 23.1058" stroke="white" stroke-linecap="round" stroke-linejoin="round"/>
<path d="M371.81 29.2674C371.954 30.2608 373.142 31.8553 374.058 32.3216C375.037 32.8201 378.186 33.2112 379.216 29.8103C380.04 27.0897 378.43 25.1337 377.521 24.4958C376.613 23.8579 375.976 23.8153 374.272 24.0909" stroke="white"/>
<path d="M304.257 11.1601C304.39 11.0879 305.683 11.2487 306.24 11.271C306.796 11.2934 306.851 12.1184 307.246 13.4338C307.485 14.2281 307.03 14.9618 306.582 15.4207" stroke="white"/>
<path d="M309.704 18.632C318.17 26.6596 344.218 51.037 345.561 52.0248C347.159 53.2004 350.228 54.2034 352.733 52.2993C355.237 50.3953 379.097 2.16468 379.405 0.608927C379.712 -0.946826 381.331 -6.37946 379.75 -9.51354C378.169 -12.6476 376.808 -14.9252 374.109 -16.4487C371.908 -17.6912 340.697 -36.8932 329.018 -44.1213M307.648 16.6723C307.34 16.3741 307.165 16.1999 307.143 16.1681C306.8 15.6797 305.176 14.3199 305.473 14.1461C305.77 13.9723 305.709 13.6337 305.715 12.6747C305.721 11.7156 304.803 11.4178 304.547 11.3001C304.291 11.1823 301.27 11.0042 300.482 11.232C299.695 11.4598 298.895 13.0283 299.044 13.8715C299.063 13.9811 299.752 14.7255 300.942 15.9434M302.756 17.7779C312.733 27.7823 339.528 53.6175 341.883 55.6699C344.777 58.1918 347.967 58.6442 351.832 58.2747C355.697 57.9051 358.879 53.7049 360.124 51.7737C361.369 49.8425 379.023 14.147 380.569 11.0427C382.115 7.93845 385.557 3.56004 386.111 -4.64912C386.665 -12.8583 381.338 -17.8689 379.546 -19.2882C378.028 -20.4912 342.151 -41.9804 330.263 -48.6184M326.341 -45.7806C325.304 -46.4253 324.702 -46.8033 324.652 -46.8417C324.199 -47.1915 323.614 -48.0747 324.2 -49.351C324.431 -49.8163 325.217 -50.7082 326.517 -50.5543C326.683 -50.5346 327.353 -50.206 328.423 -49.6304" stroke="white"/>
<path d="M303.747 12.9221C303.504 12.7965 303.013 12.5108 303 12.3732C302.983 12.2011 303.684 12.1948 303.768 12.192" stroke="white" stroke-linecap="round"/>
<path d="M374.841 25.9696C374.892 25.8988 377.123 24.7466 377.807 27.085C378.352 28.9498 377.5 30.8626 376.326 31.0478C375.552 31.17 374.699 30.5075 374.631 30.3817" stroke="white" stroke-linecap="round"/>
<path d="M372.924 26.7029C373.048 26.7603 374.978 27.0376 376.206 27.1483C376.867 27.8489 376.204 29.465 376.06 29.5312C375.945 29.5842 373.321 29.0236 371.844 28.8238C372.104 28.244 372.799 26.6455 372.924 26.7029Z" stroke="white" stroke-linejoin="round"/>
<path d="M304.409 13.2402C304.676 13.3517 305.113 13.9242 305.298 14.1965C305.231 14.1653 304.35 14.2945 303.677 14.506C303.005 14.7174 302.653 15.5419 302.316 16.2769C301.978 17.0118 302.683 17.4452 302.781 17.5589C302.879 17.6726 302.866 17.9403 302.671 17.9467C302.477 17.9531 301.409 16.9971 301.108 16.6396C300.807 16.282 300.977 15.7029 301.202 14.7656C301.428 13.8283 302.828 13.2255 303.501 13.0418C304.174 12.8582 304.076 13.1009 304.409 13.2402Z" stroke="white"/>
<path d="M332.041 -33.8666C332.036 -35.4912 333.395 -38.6159 334.372 -40.7433L331.954 -42.265C330.676 -40.4143 329.596 -37.7523 329.023 -35.4035C328.07 -31.4982 329.633 -29.3737 331.364 -27.8315C333.04 -26.3379 352.951 -12.8416 354.704 -11.6964C356.456 -10.5513 367.176 -3.80391 369.126 -1.67743C371.077 0.449054 370.727 4.42943 369.25 7.80972C367.773 11.19 364.719 11.2221 363.528 10.8387C362.337 10.4554 327.873 -16.124 326.854 -16.6334C325.835 -17.1428 324.05 -17.0609 322.051 -15.2733C320.052 -13.4857 319.229 -11.1167 318.673 -8.58408C318.117 -6.0515 318.456 -2.82083 320.23 -1.14444C322.004 0.531952 353.485 27.1388 354.439 28.0003C355.393 28.8618 355.849 31.3278 356.061 33.1409C356.273 34.9541 355.167 37.1723 354.059 38.9196C352.951 40.6668 350.635 40.5428 349.422 40.0558C348.208 39.5688 317.36 10.2727 315.859 9.58279C314.358 8.89288 313.371 8.97044 312.494 9.33372C311.617 9.69699 310.714 10.7417 310.295 11.5655L308.081 15.9137C307.775 16.5149 306.651 19.0007 307.14 18.7863C309.661 17.6805 310.382 19.3267 310.481 19.1093C310.581 18.8918 312.166 14.8833 313.215 13.4786C314.263 12.074 315.207 12.5557 316.065 13.3616C316.982 14.2234 344.054 39.124 345.788 40.8432C347.521 42.5624 349.219 43.6502 352.372 43.2539C355.525 42.8575 357.81 38.0635 358.705 34.6085C359.601 31.1536 357.256 26.6925 356.128 25.6913C355.001 24.69 322.31 -2.54639 321.785 -3.38462C321.26 -4.22286 320.514 -6.47802 321.384 -9.81261C322.254 -13.1472 324.759 -14.2738 325.882 -14.102C327.005 -13.9302 359.173 11.65 359.838 12.1639C360.503 12.6778 366.739 17.8014 371.384 9.65418C376.029 1.50699 371.41 -3.63713 370.413 -4.47752C369.416 -5.31792 333.812 -29.562 333.243 -30.222C332.674 -30.882 332.047 -31.8358 332.041 -33.8666Z" stroke="white"/>
<path d="M39.3508 52.01C39.0183 52.8985 39.6216 54.3565 39.5111 54.6839C39.3934 55.0326 37.8449 58.3325 36.912 58.7946C35.9792 59.2567 32.0961 58.0552 30.7007 57.7009C29.3053 57.3465 25.5817 57.1 23.4858 57.3251C21.3899 57.5501 20.1027 59.4076 19.6376 59.2895C19.1724 59.1714 13.9153 58.151 13.3325 58.3817C12.7497 58.6123 7.0928 64.9697 6.36672 66.1775C5.64063 67.3853 4.69919 70.1753 3.91546 74.3858C3.13174 78.5963 4.1156 83.2323 4.29933 83.9081C4.48306 84.5838 6.23477 89.3158 6.79241 89.5972C7.23852 89.8224 11.7686 91.0589 13.9779 91.649C14.4412 92.2715 15.6602 93.7456 16.83 94.6624C18.2923 95.8085 25.1086 96.9743 30.1343 97.6446C35.16 98.315 35.8886 96.4088 36.7025 96.6446C37.5164 96.8804 44.6593 97.8612 45.7754 98.1912C46.8916 98.5212 48.5714 97.5032 48.8506 97.5275C49.1299 97.5518 59.2473 99.917 60.3664 99.4322C61.4856 98.9475 68.0957 92.8962 68.355 92.0359C68.6142 91.1755 71.1452 80.2673 71.0561 79.173C70.9848 78.2975 68.5212 72.2188 67.2983 69.2888L57.307 67C57.448 66.6436 57.7025 65.5896 57.6302 64.9934C57.5579 64.3972 57.1067 63.8741 56.8901 63.6871L57.7174 62.0478" stroke="white" stroke-linecap="round" stroke-linejoin="round"/>
<path d="M50.0032 41.3829C49.4462 41.2201 49.0367 41.1247 48.8388 41.124C47.4702 41.1189 46.0785 41.6823 45.826 41.6603C45.5734 41.6383 37.0891 30.0269 36.2481 29.708C35.4071 29.3891 33.2184 29.1283 32.181 30.6615C31.1437 32.1947 24.5104 43.8766 24.2112 45.0966C23.9119 46.3167 25.7381 47.8183 26.4106 48.1577C27.0831 48.497 37.6666 50.41 38.2334 50.8542C38.8002 51.2984 41.0455 53.8556 40.8952 54.1485C40.2237 55.4444 38.88 58.2255 38.8772 58.9836C38.8737 59.9311 51.2684 67.7904 52.8179 66.0184C54.4919 64.1041 54.7238 62.7378 55.357 62.3191C55.9902 61.9003 59.1114 62.1199 60.6669 61.9243C63.1696 61.6096 66.0746 59.5148 66.0664 56.9363C69.931 57.5682 77.209 59.3087 78.523 59.0037C79.3798 58.8049 85.6291 44.7127 85.2975 43.2798C84.9659 41.8469 83.0137 40.2815 81.6243 40.2132C80.3262 40.1494 64.7827 45.1429 62.4041 45.7118" stroke="white" stroke-linecap="round" stroke-linejoin="round"/>
<path d="M57.9121 37.1657C57.3966 36.989 57.2775 37.0307 56.6914 36.9015C54.7518 36.474 52.6875 36.4002 52.2343 37.2983C51.6441 38.4679 49.683 41.7607 49.5122 42.6927C49.3414 43.6247 52.6294 46.9007 57.8608 48.4028C58.725 48.5894 60.5565 48.8648 60.9692 48.4742C61.4852 47.9858 63.03 44.0937 63.1991 43.6399C63.3681 43.1862 63.8155 41.8249 63.1492 40.9496C62.7811 40.4661 62.0385 39.6566 61.0731 38.9004C60.6431 38.5636 60.5258 38.4056 60.0209 38.1235" stroke="white" stroke-linecap="round" stroke-linejoin="round"/>
<path d="M62.7178 44.0732C62.053 44.2225 60.4823 44.4229 59.5174 44.0302C58.3112 43.5393 52.4844 40.9919 51.6595 39.2003" stroke="white" stroke-linecap="round" stroke-linejoin="round"/>
<path d="M61.5297 47.2063C61.7887 46.4333 61.9527 44.7794 60.5361 44.3474C58.7653 43.8074 56.316 44.3004 55.6212 45.5216C55.0653 46.4985 54.8733 46.9517 54.8468 47.0562C55.3336 45.5205 55.8749 42.231 54.1461 41.3586C51.9851 40.2681 50.5059 41.4864 49.9533 42.4257" stroke="white" stroke-linecap="round" stroke-linejoin="round"/>
<path d="M64.9424 59.6582C64.3037 60.1675 63.5143 61.1268 57.3704 60.016C50.2066 58.7207 45.2823 55.5048 41.9639 51.289" stroke="white" stroke-linecap="round" stroke-linejoin="round"/>
<path d="M62.1318 46.6231C63.4288 47.7775 65.7351 50.1572 64.5845 50.4403C63.1462 50.7942 59.8169 50.8538 55.8714 49.1627C52.715 47.8099 50.4445 46.5242 49.7038 46.0504" stroke="white" stroke-linecap="round" stroke-linejoin="round"/>
<path d="M45.5467 41.3346L49.6842 46.0371C47.9075 47.2201 44.4285 50.442 43.7951 50.7462C43.5354 50.9767 42.0626 51.281 38.2485 50.6544" stroke="white" stroke-linecap="round" stroke-linejoin="round"/>
<path d="M66.0486 56.9845C65.9419 55.6109 65.6101 52.1773 64.89 49.9904" stroke="white" stroke-linecap="round" stroke-linejoin="round"/>
<path d="M32.3374 72.0332L24.0897 70.7314" stroke="white" stroke-linecap="round" stroke-linejoin="round"/>
<path d="M29.2915 85.7695L21.6718 83.6512" stroke="white" stroke-linecap="round" stroke-linejoin="round"/>
<path d="M28.6694 61.6562L20.7884 60.2697" stroke="white" stroke-linecap="round" stroke-linejoin="round"/>
<path d="M21.7988 72.598C21.9774 75.5808 20.1822 80.5429 19.2623 82.651C16.7878 87.5546 13.1849 88.8125 12.0211 88.8729C10.8573 88.9332 8.44697 88.1487 6.15388 84.7789C3.87178 81.4252 4.92843 75.4803 5.54591 72.0062L5.5548 71.9562C6.17091 68.4894 10.2846 63.1179 11.5175 61.8512C12.7503 60.5845 16.9961 60.2985 19.0777 62.5902C21.1593 64.8818 21.5755 68.8696 21.7988 72.598Z" stroke="white" stroke-linecap="round" stroke-linejoin="round"/>
<path d="M16.219 84.213C15.3631 82.5939 13.4565 78.7 14.9717 74.4996C16.4869 70.2992 17.9599 68.578 19.4597 67.7869" stroke="white" stroke-linecap="round" stroke-linejoin="round"/>
<path d="M19.7731 72.5221C19.2247 73.2169 18.0781 75.2181 17.8795 77.665C17.6809 80.1119 17.9462 81.0265 18.1036 81.1779" stroke="white" stroke-linecap="round" stroke-linejoin="round"/>
<path d="M10.614 86.8159C8.94489 85.6318 7.14006 79.9454 7.92175 75.8606C9.34719 68.4118 12.3175 64.355 15.0849 62.4152" stroke="white" stroke-linecap="round" stroke-linejoin="round"/>
<path d="M13.6178 85.4784C11.3715 81.7039 11.0349 79.0228 11.4476 75.9638C12.2383 70.1027 16.8104 64.3261 18.1703 63.6631" stroke="white" stroke-linecap="round" stroke-linejoin="round"/>
<path d="M56.4603 68.7186C57.3302 70.4526 59.0628 74.705 59.0339 77.8422C58.9978 81.7637 57.4038 87.4893 56.0367 90.0915C54.6696 92.6936 49.9782 96.9641 49.1577 97.4136" stroke="white" stroke-linecap="round" stroke-linejoin="round"/>
<path d="M36.6425 96.5476C39.4953 94.2095 43.5187 89.9796 45.5026 83.6953C47.0897 78.6679 46.6822 73.515 46.28 71.567C45.7128 68.8192 42.3479 63.6297 36.5869 59.02" stroke="white" stroke-linecap="round" stroke-linejoin="round"/>
<path d="M22.6593 96.2386C24.5918 96.0807 29.2116 94.4618 32.2303 89.2498C36.0035 82.7349 37.2567 75.9738 36.7962 72.2876C36.3358 68.6013 36.1205 62.7181 30.2778 57.827" stroke="white" stroke-linecap="round" stroke-linejoin="round"/>
<path d="M57.4165 66.6498C56.95 68.2601 55.8791 69.2686 55.5021 69.3032C55.0308 69.3463 52.5398 68.8058 51.9158 68.6171" stroke="white" stroke-linecap="round" stroke-linejoin="round"/>
<path d="M52.0288 68.6475C51.3472 68.5098 50.6262 68.3283 48.3702 68.1578" stroke="white" stroke-linecap="round" stroke-linejoin="round"/>
<path d="M70.874 79.3633L59.15 77.5482" stroke="white" stroke-linecap="round" stroke-linejoin="round"/>
<path d="M68.1572 92.2061L56.4116 90.2112" stroke="white" stroke-linecap="round" stroke-linejoin="round"/>
<path d="M25.8631 57.2713C27.4198 57.7511 30.8069 59.3238 31.901 61.7755C33.2688 64.8401 35.6754 72.4766 33.3635 80.0526C31.0515 87.6286 28.2527 92.8542 23.2693 94.4949C19.2825 95.8075 17.1694 95.0685 16.6111 94.535" stroke="white" stroke-linecap="round" stroke-linejoin="round"/>
<path d="M20.0163 59.2321C20.5759 59.4066 28.4132 60.9867 28.7995 61.3975C29.1859 61.8084 32.5332 71.4307 32.5513 72.3573C32.5695 73.2839 29.6161 85.3393 29.3778 85.7047C29.1871 85.997 24.5406 90.5493 22.2411 92.7888C19.6425 92.4129 14.3721 91.635 14.0795 91.5305" stroke="white" stroke-linecap="round" stroke-linejoin="round"/>
<path d="M16.2263 58.615C17.5249 59.0005 20.2208 59.8753 20.6157 60.2905C21.1094 60.8094 23.9654 69.2664 24.0266 70.2145C24.0756 70.9731 22.463 79.3734 21.6506 83.4787C19.3143 85.9696 14.5295 91.0241 14.0802 91.3155" stroke="white" stroke-linecap="round" stroke-linejoin="round"/>
<path d="M85.2755 43.7015C85.2611 42.3438 83.5318 42.7078 82.002 43.2503C80.7625 43.6898 70.2135 48.2963 65.0292 50.2121" stroke="white" stroke-linecap="round" stroke-linejoin="round"/>
<path d="M38.261 31.941C36.6679 30.3361 34.3499 32.3754 33.4653 34.0037C32.5807 35.6321 28.2231 44.2401 26.3791 47.9462" stroke="white" stroke-linecap="round" stroke-linejoin="round"/>
<path d="M61.1841 39.5398C61.3773 40.1821 61.2973 41.001 61.2107 41.4497C61.0065 42.5087 54.9204 38.9469 54.6072 38.4699C54.2939 37.9929 55.1604 37.3106 55.4966 37.1395C55.9935 36.8866 57.8693 37.0279 58.8797 37.4538C59.8901 37.8797 60.9459 38.7479 61.1841 39.5398Z" stroke="white" stroke-linecap="round" stroke-linejoin="round"/>
<path d="M63.3535 41.8789C62.9954 42.5626 61.3741 43.4654 57.7537 41.6071C53.2282 39.2843 52.0407 37.9777 52.4829 37.1792" stroke="white" stroke-linecap="round" stroke-linejoin="round"/>
<path d="M59.1734 38.7481C59.1897 38.8824 58.5572 38.8309 57.9019 38.1977" stroke="white" stroke-linecap="round" stroke-linejoin="round"/>
<path d="M232.073 -14.7346C231.21 -14.3407 230.607 -12.8824 230.298 -12.7287C229.968 -12.565 226.541 -11.3231 225.554 -11.655C224.568 -11.9868 222.668 -15.5802 221.93 -16.8167C221.193 -18.0532 218.731 -20.858 217.089 -22.1792C215.446 -23.5004 213.223 -23.0948 212.977 -23.507C212.731 -23.9191 209.731 -28.3549 209.156 -28.6034C208.58 -28.8518 200.085 -28.3477 198.718 -28.0057C197.351 -27.6636 194.714 -26.3538 191.185 -23.9271C187.656 -21.5004 185.078 -17.5238 184.73 -16.9157C184.383 -16.3076 182.28 -11.7208 182.476 -11.1277C182.633 -10.6532 184.966 -6.57802 186.113 -4.59973C186.001 -3.83188 185.823 -1.92735 186.003 -0.452026C186.229 1.39213 190.23 7.0322 193.314 11.0567C196.398 15.0813 198.26 14.2467 198.67 14.9885C199.079 15.7303 203.442 21.4701 203.999 22.4922C204.556 23.5142 206.464 23.9802 206.645 24.1946C206.825 24.4091 212.316 33.23 213.451 33.6774C214.585 34.1249 223.538 34.5108 224.33 34.085C225.121 33.6591 234.618 27.7257 235.328 26.8882C235.896 26.2181 238.446 20.1752 239.65 17.2374L234.194 8.55964C234.546 8.40694 235.471 7.8407 235.841 7.36763C236.211 6.89456 236.261 6.20555 236.24 5.92018L237.983 5.34417" stroke="white" stroke-linecap="round" stroke-linejoin="round"/>
<path d="M247.12 -14.7321C246.841 -15.2409 246.618 -15.5976 246.478 -15.738C245.513 -16.7082 244.13 -17.2925 243.967 -17.4865C243.804 -17.6805 246 -31.8925 245.63 -32.7124C245.26 -33.5322 243.895 -35.2628 242.078 -34.9103C240.261 -34.5579 227.314 -30.9746 226.24 -30.3224C225.166 -29.6702 225.398 -27.3173 225.635 -26.602C225.871 -25.8868 232.011 -17.0568 232.098 -16.342C232.186 -15.6271 231.969 -12.2311 231.655 -12.1299C230.265 -11.687 227.349 -10.6675 226.812 -10.133C226.14 -9.46476 229.362 4.85365 231.71 4.69394C234.247 4.52141 235.377 3.71814 236.121 3.86899C236.865 4.01984 238.919 6.38001 240.158 7.34037C242.152 8.88541 245.688 9.45472 247.503 7.62376C249.792 10.801 253.715 17.1739 254.86 17.8863C255.607 18.3507 269.985 12.7902 270.762 11.5417C271.54 10.2932 271.264 7.80614 270.329 6.77639C269.455 5.81424 254.925 -1.63077 252.84 -2.90832" stroke="white" stroke-linecap="round" stroke-linejoin="round"/>
<path d="M244.785 8.75586C243.973 8.66517 242.736 8.78665 239.172 3.66044C235.016 -2.31674 233.803 -8.07152 234.432 -13.3996" stroke="white" stroke-linecap="round" stroke-linejoin="round"/>
<path d="M252.003 -2.45603C252.106 -0.722719 252.058 2.59081 251.043 1.97844C249.775 1.21298 247.376 -1.09658 245.778 -5.08058C244.5 -8.26779 243.801 -10.7817 243.611 -11.6402" stroke="white" stroke-linecap="round" stroke-linejoin="round"/>
<path d="M247.457 7.64465C248.352 6.59702 250.542 3.93215 251.577 1.87562" stroke="white" stroke-linecap="round" stroke-linejoin="round"/>
<path d="M201.105 2.05566L197.208 -4.82615" stroke="white" stroke-linecap="round" stroke-linejoin="round"/>
<path d="M232.381 9.17787C231.772 11.0198 229.995 15.2536 227.758 17.4539C224.963 20.2042 219.79 23.1309 216.984 24.0071C214.178 24.8834 207.841 24.5922 206.943 24.3308" stroke="white" stroke-linecap="round" stroke-linejoin="round"/>
<path d="M198.695 14.8771C202.366 15.2373 208.202 15.0852 214.045 12.0384C218.72 9.60092 222.071 5.66569 223.163 4.00276C224.702 1.65706 225.986 -4.39313 225.165 -11.7254" stroke="white" stroke-linecap="round" stroke-linejoin="round"/>
<path d="M189.016 4.78107C190.495 6.03439 194.909 8.15179 200.727 6.59491C208 4.6488 213.663 0.748231 215.941 -2.18624C218.219 -5.12072 222.222 -9.43712 221.542 -17.0264" stroke="white" stroke-linecap="round" stroke-linejoin="round"/>
<path d="M234.519 8.3886C233.051 9.19891 231.581 9.15624 231.29 8.91441C230.925 8.61211 229.544 6.4699 229.236 5.89555" stroke="white" stroke-linecap="round" stroke-linejoin="round"/>
<path d="M229.294 5.99707C228.909 5.41816 228.527 4.78038 227.051 3.06614" stroke="white" stroke-linecap="round" stroke-linejoin="round"/>
<path d="M235.064 26.8936L228.047 17.3272" stroke="white" stroke-linecap="round" stroke-linejoin="round"/>
<path d="M224.069 34.0654L217.165 24.3565" stroke="white" stroke-linecap="round" stroke-linejoin="round"/>
<path d="M218.809 -20.5382C219.572 -19.0988 220.859 -15.5931 219.901 -13.0848C218.705 -9.94944 215.014 -2.84408 208.026 0.885362C201.038 4.6148 195.366 6.3366 190.679 3.97779C186.93 2.09074 185.956 0.0749778 185.938 -0.697021" stroke="white" stroke-linecap="round" stroke-linejoin="round"/>
<path d="M213.285 -23.28C213.558 -22.7613 217.99 -16.1067 217.973 -15.543C217.956 -14.9793 213.528 -5.80375 212.887 -5.13508C212.245 -4.4664 201.639 1.98064 201.212 2.07093C200.871 2.14316 194.366 2.08316 191.157 2.04414C189.583 -0.0575381 186.402 -4.33107 186.268 -4.61176" stroke="white" stroke-linecap="round" stroke-linejoin="round"/>
<path d="M270.449 11.8249C271.398 10.8537 269.917 9.8899 268.451 9.19322C267.263 8.62875 256.542 4.43777 251.519 2.1318" stroke="white" stroke-linecap="round" stroke-linejoin="round"/>
</g>
<defs>
<clipPath id="clip0_2006_5916">
<rect width="436" height="120" fill="white"/>
</clipPath>
</defs>
</svg>
