<svg width="303" height="276" viewBox="0 0 303 276" fill="none" xmlns="http://www.w3.org/2000/svg">
<path d="M246.924 24.2649C241.722 36.7156 232.043 59.8228 231.62 60.6138C231.076 61.6318 225.844 63.0152 215.365 58.4425C214.126 57.9018 212.993 57.3675 211.958 56.8433M217.12 11.0386C215.849 12.5792 212.136 16.6844 209.876 16.7799C207.143 16.8953 184.464 1.26036 180.763 -0.76395C177.062 -2.78826 172.003 -2.57647 169.587 -1.08792C167.17 0.400626 165.862 2.96795 165.709 3.33965C165.758 3.71507 166.125 4.25893 166.726 4.91989" stroke="white" stroke-linecap="round"/>
<path d="M259.475 5.18556C257.894 8.22649 253.16 15.5554 251.996 17.6875C250.894 19.7074 247.523 19.5632 245.976 19.2386C243.843 19.0493 234.746 16.306 229.854 13.8441C224.962 11.3823 218.623 6.6989 218.691 5.10227C218.759 3.50563 221.738 -2.28103 222.857 -4.99455C223.977 -7.70807 222.103 -10.2555 220.923 -11.0928C218.164 -13.0516 203.034 -18.4746 199.4 -21.1661C198.399 -21.9073 196.516 -23.6678 197.952 -25.5822" stroke="white"/>
<path d="M223.735 4.70308C222.977 4.39927 222.353 3.76953 222.084 3.18982C221.705 2.37116 221.954 0.76373 222.356 -0.00856817C222.757 -0.780866 223.912 -2.04223 224.96 -2.10664C225.583 -2.14496 226.219 -1.85739 226.469 -1.70284" stroke="white"/>
<path d="M224.055 1.4112C224.614 0.0563027 225.664 -1.41256 226.426 -1.72004C227.816 -1.14656 228.24 1.26942 227.532 2.98364C226.825 4.69787 224.867 5.37683 223.769 4.71833C223.668 4.8062 223.755 2.13808 224.055 1.4112Z" stroke="white" stroke-linecap="round"/>
<path d="M253.74 5.70068C257.079 6.29603 258.875 6.41981 259.974 4.53991C260.669 3.3507 260.551 1.7955 258.922 -0.107629C256.885 -2.48653 252.427 -4.20159 251.121 -4.62211C249.815 -5.04262 234.816 -8.41461 231.243 -9.88914C227.434 -11.4609 216.264 -18.2033 213.406 -20.0068C210.964 -21.5478 204.001 -25.728 202.733 -26.2513C199.941 -27.4034 198.391 -26.6085 197.985 -25.6247C197.224 -23.7795 201.661 -21.7057 204.027 -20.7296L212.607 -17.1889C215.425 -16.0259 219.009 -14.0166 223.399 -11.5549L223.683 -11.396C227.633 -9.18131 234.97 -3.50992 238.442 -0.611643C241.914 2.28663 250.442 5.11272 253.74 5.70068Z" stroke="white" stroke-linecap="round"/>
<path d="M220.826 -11.1655C225.4 -8.46069 234.054 -1.60151 236.678 1.16298C239.777 4.42871 239.696 7.13294 238.556 11.2066" stroke="white" stroke-linecap="round"/>
<path d="M247.51 24.1327C248.177 23.5937 249.258 20.8982 248.705 19.4453C243.415 19.3133 231.498 14.8285 227.997 13.0731C225.196 11.6687 221.405 8.46794 219.859 7.04309C218.351 7.34448 216.908 9.39705 216.997 10.6269C217.108 12.1642 223.164 17.1063 232.078 20.35C240.993 23.5936 246.923 24.6079 247.51 24.1327Z" stroke="white" stroke-linecap="round"/>
<path d="M217.497 42.3277C217.59 43.6189 215.47 48.561 214.399 50.8707L211.943 56.8223C207.417 54.7145 201.55 50.7466 201.595 49.3678C201.651 47.6442 203.9 35.5806 202.59 33.7297C201.279 31.8788 193.941 26.3445 189.158 22.6881C187.947 21.7618 179.804 15.9846 177.421 14.3403C176.682 15.114 175.615 17.6641 174.842 17.9026C173.678 18.2615 163.562 10.7748 163.59 9.6379C163.616 8.55625 166.026 5.96924 166.711 4.9635L176.467 12.2306C179.958 14.8097 196.959 24.3162 207.238 31.8315C217.517 39.3468 217.38 40.7137 217.497 42.3277Z" stroke="white" stroke-linecap="round" stroke-linejoin="round"/>
<path d="M230.865 22.1392C229.119 23.5769 224.892 26.4687 221.956 26.5342C218.286 26.6161 206.061 20.7737 198.577 15.9114C191.093 11.0492 180.502 4.90471 179.374 3.55257C178.247 2.20044 178.095 2.13788 178.181 1.28615" stroke="white" stroke-linecap="round"/>
<path d="M177.991 13.4849L176.909 15.124" stroke="white" stroke-linecap="round"/>
<path d="M176.296 15.7076C173.083 13.3902 166.437 8.53304 165.553 7.64379" stroke="white" stroke-linecap="round"/>
<path d="M237.925 304.264C232.722 316.715 223.044 339.822 222.621 340.613C222.077 341.631 216.845 343.015 206.366 338.442C205.127 337.901 203.994 337.367 202.959 336.843M208.121 291.038C206.85 292.579 203.137 296.684 200.877 296.779C198.144 296.895 175.465 281.26 171.764 279.236C168.063 277.211 163.004 277.423 160.588 278.912C158.171 280.4 156.863 282.967 156.71 283.339C156.759 283.715 157.126 284.258 157.727 284.919" stroke="white" stroke-linecap="round"/>
<path d="M250.476 285.185C248.895 288.226 244.161 295.554 242.997 297.687C241.895 299.706 238.524 299.562 236.977 299.238C234.844 299.048 225.747 296.305 220.855 293.843C215.963 291.381 209.624 286.698 209.692 285.101C209.76 283.505 212.739 277.718 213.858 275.004C214.978 272.291 213.104 269.744 211.924 268.906C209.165 266.947 194.035 261.524 190.401 258.833C189.4 258.092 187.517 256.331 188.953 254.417" stroke="white"/>
<path d="M244.741 285.7C248.08 286.296 249.876 286.419 250.975 284.539C251.67 283.35 251.552 281.795 249.923 279.892C247.886 277.513 243.428 275.798 242.122 275.377C240.816 274.957 225.817 271.585 222.244 270.11C218.435 268.539 207.265 261.796 204.407 259.993C201.965 258.452 195.002 254.272 193.734 253.748C190.942 252.596 189.392 253.391 188.986 254.375C188.225 256.22 192.662 258.294 195.028 259.27L203.608 262.811C206.426 263.974 210.01 265.983 214.4 268.445L214.683 268.604C218.634 270.818 225.971 276.49 229.443 279.388C232.915 282.286 241.443 285.112 244.741 285.7Z" stroke="white" stroke-linecap="round"/>
<path d="M211.827 268.834C216.401 271.539 225.055 278.398 227.679 281.162C230.778 284.428 230.697 287.132 229.557 291.206" stroke="white" stroke-linecap="round"/>
<path d="M291.401 21.5186C291.364 21.6503 291.313 21.8252 291.255 22.0028C291.134 22.3754 290.986 22.7597 290.894 22.78C290.759 22.81 290.736 23.2288 290.742 23.4344L290.083 24.0859L290.235 24.6959C290.103 24.8439 289.83 25.1763 289.796 25.3217C289.762 25.4671 289.703 25.7216 289.678 25.8306L289.306 26.3956C289.394 26.9012 290.266 28.2043 293.053 29.3723C296.536 30.8322 297.948 30.3938 298.159 30.1747C298.328 29.9994 298.241 29.4402 298.176 29.1825C298.235 29.2345 298.372 29.2587 298.446 28.9388C298.52 28.6189 298.471 28.2167 298.437 28.0556L299.08 27.4769L298.707 26.8924L299.417 26.8274L298.994 25.6566L299.22 25.2987" stroke="white" stroke-linecap="round" stroke-linejoin="round"/>
<path d="M291.04 23.1685C291.636 23.6686 293.232 24.8351 294.849 25.4997C296.465 26.1644 298.008 26.5577 298.577 26.6713" stroke="white" stroke-linecap="round" stroke-linejoin="round"/>
<path d="M290.513 24.5205C291.109 25.0207 292.705 26.1871 294.321 26.8518C295.938 27.5165 297.481 27.9098 298.05 28.0233" stroke="white" stroke-linecap="round" stroke-linejoin="round"/>
<path d="M290.169 25.9995C290.765 26.4997 292.361 27.6661 293.978 28.3308C295.595 28.9955 297.137 29.3888 297.706 29.5023" stroke="white" stroke-linecap="round" stroke-linejoin="round"/>
<path d="M367.855 -47.0319C369.653 -52.9548 365.068 -58.2509 363.573 -59.5489C362.078 -60.8469 357.421 -63.0905 348.825 -62.0216C340.229 -60.9527 331.22 -54.6812 325.986 -46.3443C321.708 -39.531 322.292 -37.8539 321.162 -35.263C320.032 -32.6722 308.734 -18.5992 303.245 -9.51791C298.853 -2.2529 292.079 13.3918 289.242 20.306C291.714 23.3105 302.511 26.8734 302.983 25.2924C303.456 23.7114 307.914 12.7 314.33 -2.18952C319.365 -13.8771 324.834 -21.0738 330.112 -25.2688" stroke="white" stroke-linecap="round" stroke-linejoin="round"/>
<path d="M321.955 -27.7305C318.828 -23.6052 311.59 -13.3588 307.654 -5.37469C303.718 2.60941 298.233 16.1813 295.982 21.9693" stroke="white" stroke-linecap="round" stroke-linejoin="round"/>
<path d="M292.519 269.206C292.482 269.338 292.431 269.513 292.373 269.69C292.252 270.063 292.104 270.447 292.012 270.467C291.877 270.497 291.854 270.916 291.86 271.122L291.201 271.773L291.353 272.383C291.221 272.531 290.948 272.864 290.914 273.009C290.88 273.155 290.821 273.409 290.796 273.518L290.424 274.083C290.512 274.589 291.384 275.892 294.171 277.06C297.654 278.52 299.066 278.081 299.277 277.862C299.446 277.687 299.359 277.128 299.294 276.87C299.353 276.922 299.49 276.946 299.564 276.626C299.638 276.306 299.589 275.904 299.555 275.743L300.197 275.164L299.825 274.58L300.535 274.515L300.112 273.344L300.338 272.986" stroke="white" stroke-linecap="round" stroke-linejoin="round"/>
<path d="M292.158 270.856C292.754 271.356 294.35 272.523 295.967 273.187C297.583 273.852 299.126 274.245 299.695 274.359" stroke="white" stroke-linecap="round" stroke-linejoin="round"/>
<path d="M291.631 272.208C292.227 272.708 293.823 273.875 295.439 274.539C297.056 275.204 298.598 275.597 299.168 275.711" stroke="white" stroke-linecap="round" stroke-linejoin="round"/>
<path d="M291.287 273.687C291.883 274.187 293.479 275.354 295.096 276.018C296.713 276.683 298.255 277.076 298.824 277.19" stroke="white" stroke-linecap="round" stroke-linejoin="round"/>
<path d="M368.973 200.656C370.771 194.733 366.186 189.437 364.691 188.139C363.196 186.841 358.539 184.597 349.943 185.666C341.347 186.735 332.338 193.006 327.104 201.343C322.826 208.156 323.41 209.834 322.28 212.424C321.15 215.015 309.852 229.088 304.363 238.17C299.971 245.435 293.197 261.079 290.359 267.994C292.832 270.998 303.629 274.561 304.101 272.98C304.574 271.399 309.032 260.388 315.448 245.498C320.483 233.81 325.952 226.614 331.23 222.419" stroke="white" stroke-linecap="round" stroke-linejoin="round"/>
<path d="M323.072 219.957C319.946 224.082 312.708 234.329 308.772 242.313C304.836 250.297 299.351 263.869 297.1 269.657" stroke="white" stroke-linecap="round" stroke-linejoin="round"/>
<path d="M128.678 232.013L128.609 232.508V232.508L128.678 232.013ZM121.234 228.884L120.848 229.202V229.202L121.234 228.884ZM132.48 232.939L132.722 232.501V232.501L132.48 232.939ZM136.855 236.733L136.477 237.06V237.06L136.855 236.733ZM144.186 240.666L144.219 240.167V240.167L144.186 240.666ZM152.642 237.672L152.95 238.066V238.066L152.642 237.672ZM156.733 235.311L156.603 234.828V234.828L156.733 235.311ZM161.338 234.903L161.333 235.403V235.403L161.338 234.903ZM169.05 232.939L169.34 233.346V233.346L169.05 232.939ZM173.007 223.772L172.511 223.705V223.705L173.007 223.772ZM173.87 220.009L174.306 220.255V220.255L173.87 220.009ZM176.166 217.477L176.506 217.844L176.513 217.838L176.52 217.831L176.166 217.477ZM176.166 217.477L175.827 217.11L175.82 217.116L175.813 217.123L176.166 217.477ZM180.832 210.523L180.344 210.413V210.413L180.832 210.523ZM177.194 199.772L177.619 199.509V199.509L177.194 199.772ZM175.553 196.752L175.072 196.889V196.889L175.553 196.752ZM175.312 194.011L175.812 194.002V194.002L175.312 194.011ZM173.105 185.123L172.683 185.391V185.391L173.105 185.123ZM163.872 180.458L163.787 180.951V180.951L163.872 180.458ZM160.558 179.691L160.74 179.225V179.225L160.558 179.691ZM157.838 177.344L157.455 177.666L157.455 177.666L157.838 177.344ZM149.694 173.035L149.725 172.536V172.536L149.694 173.035ZM141.089 175.944L141.364 176.362H141.364L141.089 175.944ZM136.918 178.084L136.797 177.599V177.599L136.918 178.084ZM134.024 178.42L133.988 177.921V177.921L134.024 178.42ZM124.294 181.45L124.652 181.8V181.8L124.294 181.45ZM120.893 189.482L121.384 189.576V189.576L120.893 189.482ZM120.086 192.773L119.618 192.598V192.598L120.086 192.773ZM117.504 196.539L117.118 196.221H117.118L117.504 196.539ZM113.507 204.096L114.006 204.121V204.121L113.507 204.096ZM116.744 212.85L116.317 213.109V213.109L116.744 212.85ZM118.48 216.108L118.008 216.273L118.008 216.273L118.48 216.108ZM118.747 219.652L118.247 219.639V219.639L118.747 219.652ZM138.355 203.037L138.825 203.208V203.208L138.355 203.037ZM138.101 209.39L137.613 209.496V209.496L138.101 209.39ZM138.281 200.869L138.708 200.608V200.608L138.281 200.869ZM130.02 195.114L129.891 194.632V194.632L130.02 195.114ZM130.02 216.43L130.074 216.927V216.927L130.02 216.43ZM137.644 211.29L137.278 210.95V210.95L137.644 211.29ZM150.174 215.543L150.28 216.031H150.28L150.174 215.543ZM143.822 215.289L143.651 215.759V215.759L143.822 215.289ZM152.074 216L151.735 216.367V216.367L152.074 216ZM157.215 223.624L157.712 223.571V223.571L157.215 223.624ZM135.899 223.624L135.416 223.754V223.754L135.899 223.624ZM141.654 215.363L141.915 215.789V215.789L141.654 215.363ZM144.83 196.933L144.72 196.446V196.446L144.83 196.933ZM151.164 197.48L150.997 197.952V197.952L151.164 197.48ZM142.688 196.588L142.376 196.978V196.978L142.688 196.588ZM138.018 187.668L138.481 187.858V187.858L138.018 187.668ZM150.673 184.115L150.61 184.611V184.611L150.673 184.115ZM159.165 190.348L159.651 190.464V190.464L159.165 190.348ZM153.107 197.266L153.397 197.673L153.397 197.673L153.107 197.266ZM157.016 210.174L156.546 210.004V210.004L157.016 210.174ZM157.615 203.845L157.126 203.952V203.952L157.615 203.845ZM157.214 212.119L157.623 211.831V211.831L157.214 212.119ZM164.082 218.234L164.201 217.748V217.748L164.082 218.234ZM170.384 209.793L169.889 209.726V209.726L170.384 209.793ZM166.936 197.11L167.129 196.649V196.649L166.936 197.11ZM157.978 201.707L158.366 202.022V202.022L157.978 201.707ZM128.678 232.013L128.746 231.518C126.154 231.161 123.436 230.767 121.62 228.566L121.234 228.884L120.848 229.202C122.95 231.749 126.083 232.161 128.609 232.508L128.678 232.013ZM132.48 232.939L132.722 232.501C131.647 231.909 130.188 231.716 128.746 231.518L128.678 232.013L128.609 232.508C130.117 232.716 131.363 232.894 132.239 233.377L132.48 232.939ZM136.855 236.733L137.233 236.406C136.13 235.131 134.891 233.695 132.722 232.501L132.48 232.939L132.239 233.377C134.239 234.478 135.379 235.792 136.477 237.06L136.855 236.733ZM144.186 240.666L144.219 240.167C142.205 240.033 140.878 239.557 139.86 238.905C138.829 238.245 138.083 237.387 137.233 236.406L136.855 236.733L136.477 237.06C137.314 238.027 138.15 238.997 139.321 239.747C140.505 240.505 142 241.021 144.153 241.165L144.186 240.666ZM152.642 237.672L152.334 237.279C151.31 238.08 150.308 238.861 149.047 239.416C147.798 239.967 146.275 240.304 144.219 240.167L144.186 240.666L144.153 241.165C146.363 241.312 148.048 240.95 149.451 240.331C150.842 239.718 151.936 238.86 152.95 238.066L152.642 237.672ZM156.733 235.311L156.603 234.828C154.861 235.294 153.576 236.307 152.334 237.279L152.642 237.672L152.95 238.066C154.212 237.079 155.345 236.2 156.862 235.794L156.733 235.311ZM161.338 234.903L161.342 234.403C159.859 234.391 158.29 234.376 156.603 234.828L156.733 235.311L156.862 235.794C158.4 235.382 159.838 235.391 161.333 235.403L161.338 234.903ZM169.05 232.939L168.76 232.532C166.085 234.436 163.8 234.423 161.342 234.403L161.338 234.903L161.333 235.403C163.812 235.423 166.385 235.45 169.34 233.346L169.05 232.939ZM173.007 223.772L172.511 223.705C172.298 225.268 172.063 226.978 171.52 228.56C170.98 230.135 170.146 231.545 168.76 232.532L169.05 232.939L169.34 233.346C170.952 232.199 171.884 230.582 172.466 228.885C173.046 227.195 173.291 225.388 173.502 223.84L173.007 223.772ZM173.87 220.009L173.434 219.764C173.164 220.244 172.99 220.853 172.856 221.509C172.72 222.17 172.618 222.922 172.511 223.705L173.007 223.772L173.502 223.84C173.61 223.048 173.708 222.331 173.835 221.709C173.963 221.083 174.113 220.597 174.306 220.255L173.87 220.009ZM176.166 217.477L175.827 217.11C174.888 217.978 173.963 218.825 173.434 219.764L173.87 220.009L174.306 220.255C174.741 219.482 175.528 218.747 176.506 217.844L176.166 217.477ZM176.166 217.477L175.813 217.123L175.813 217.123L176.166 217.477L176.52 217.831L176.52 217.831L176.166 217.477ZM180.832 210.523L180.344 210.413C179.636 213.578 177.614 215.459 175.827 217.11L176.166 217.477L176.506 217.844C178.283 216.202 180.536 214.134 181.32 210.632L180.832 210.523ZM177.194 199.772L176.769 200.036C177.698 201.532 178.787 203.287 179.548 205.11C180.31 206.937 180.714 208.764 180.344 210.413L180.832 210.523L181.32 210.632C181.756 208.686 181.265 206.628 180.47 204.725C179.674 202.816 178.541 200.993 177.619 199.509L177.194 199.772ZM175.553 196.752L175.072 196.889C175.189 197.298 175.428 197.78 175.717 198.293C176.01 198.814 176.377 199.404 176.769 200.036L177.194 199.772L177.619 199.509C177.223 198.871 176.869 198.3 176.588 197.802C176.304 197.298 176.116 196.903 176.034 196.615L175.553 196.752ZM175.312 194.011L174.812 194.02C174.832 195.086 174.846 196.095 175.072 196.889L175.553 196.752L176.034 196.615C175.852 195.974 175.832 195.117 175.812 194.002L175.312 194.011ZM173.105 185.123L172.683 185.391C174.707 188.578 174.768 191.621 174.812 194.02L175.312 194.011L175.812 194.002C175.768 191.594 175.713 188.298 173.527 184.855L173.105 185.123ZM163.872 180.458L163.787 180.951C167 181.506 170.631 182.159 172.683 185.391L173.105 185.123L173.527 184.855C171.203 181.194 167.095 180.508 163.958 179.965L163.872 180.458ZM160.558 179.691L160.376 180.156C161.327 180.528 162.539 180.735 163.787 180.951L163.872 180.458L163.958 179.965C162.675 179.744 161.577 179.551 160.74 179.225L160.558 179.691ZM157.838 177.344L157.455 177.666C158.285 178.653 159.125 179.668 160.376 180.156L160.558 179.691L160.74 179.225C159.768 178.846 159.086 178.052 158.22 177.022L157.838 177.344ZM149.694 173.035L149.663 173.534C151.968 173.676 153.533 174.271 154.701 175.03C155.878 175.796 156.68 176.745 157.455 177.666L157.838 177.344L158.22 177.022C157.45 176.108 156.563 175.049 155.246 174.192C153.92 173.329 152.185 172.688 149.725 172.536L149.694 173.035ZM141.089 175.944L141.364 176.362C143.651 174.856 146.018 173.308 149.663 173.534L149.694 173.035L149.725 172.536C145.718 172.288 143.102 174.02 140.814 175.527L141.089 175.944ZM136.918 178.084L137.039 178.569C138.619 178.175 139.998 177.261 141.364 176.362L141.089 175.944L140.814 175.527C139.417 176.446 138.182 177.253 136.797 177.599L136.918 178.084ZM134.024 178.42L134.061 178.919C135.212 178.835 136.279 178.759 137.039 178.569L136.918 178.084L136.797 177.599C136.141 177.763 135.177 177.835 133.988 177.921L134.024 178.42ZM124.294 181.45L124.652 181.8C125.781 180.645 127.336 179.975 129.03 179.569C130.724 179.163 132.505 179.032 134.061 178.919L134.024 178.42L133.988 177.921C132.444 178.034 130.582 178.169 128.797 178.597C127.011 179.024 125.251 179.757 123.937 181.101L124.294 181.45ZM120.893 189.482L121.384 189.576C121.896 186.91 122.458 184.044 124.652 181.8L124.294 181.45L123.937 181.101C121.504 183.589 120.907 186.756 120.402 189.387L120.893 189.482ZM120.086 192.773L120.555 192.949C120.931 191.944 121.155 190.77 121.384 189.576L120.893 189.482L120.402 189.387C120.169 190.604 119.959 191.688 119.618 192.598L120.086 192.773ZM117.504 196.539L117.889 196.858C118.986 195.529 120.081 194.212 120.555 192.949L120.086 192.773L119.618 192.598C119.216 193.669 118.255 194.843 117.118 196.221L117.504 196.539ZM113.507 204.096L114.006 204.121C114.072 202.789 114.577 201.53 115.308 200.316C116.041 199.099 116.98 197.96 117.889 196.858L117.504 196.539L117.118 196.221C116.217 197.313 115.229 198.509 114.451 199.8C113.672 201.095 113.084 202.517 113.007 204.072L113.507 204.096ZM116.744 212.85L117.172 212.592C116.403 211.318 115.573 209.945 114.952 208.503C114.331 207.062 113.934 205.588 114.006 204.121L113.507 204.096L113.007 204.072C112.925 205.748 113.38 207.382 114.033 208.898C114.686 210.414 115.552 211.845 116.317 213.109L116.744 212.85ZM118.48 216.108L118.951 215.942C118.606 214.958 117.905 213.804 117.172 212.592L116.744 212.85L116.317 213.109C117.071 214.356 117.704 215.409 118.008 216.273L118.48 216.108ZM118.747 219.652L119.246 219.665C119.282 218.322 119.324 217.003 118.951 215.942L118.48 216.108L118.008 216.273C118.306 217.123 118.284 218.231 118.247 219.639L118.747 219.652ZM121.234 228.884L121.62 228.566C119.101 225.513 119.175 222.365 119.246 219.665L118.747 219.652L118.247 219.639C118.175 222.339 118.072 225.837 120.848 229.202L121.234 228.884ZM138.355 203.037L137.885 202.867C137.363 204.306 136.988 206.618 137.613 209.496L138.101 209.39L138.59 209.284C138.007 206.597 138.365 204.476 138.825 203.208L138.355 203.037ZM138.281 200.869L137.855 201.13C138.137 201.591 138.118 202.224 137.885 202.867L138.355 203.037L138.825 203.208C139.108 202.428 139.216 201.438 138.708 200.608L138.281 200.869ZM130.02 195.114L130.15 195.597C131.553 195.221 133.025 195.841 134.423 197.006C135.81 198.16 137.022 199.77 137.855 201.13L138.281 200.869L138.708 200.608C137.843 199.195 136.563 197.487 135.063 196.237C133.575 194.998 131.766 194.128 129.891 194.632L130.02 195.114ZM124.904 207.222H125.404C125.404 205.472 125.518 202.815 126.195 200.453C126.877 198.073 128.081 196.152 130.15 195.597L130.02 195.114L129.891 194.632C127.298 195.327 125.944 197.698 125.234 200.178C124.518 202.677 124.404 205.447 124.404 207.222H124.904ZM130.02 216.43L129.967 215.933C128.472 216.094 127.336 214.97 126.536 213.1C125.752 211.265 125.404 208.933 125.404 207.222H124.904H124.404C124.404 209.034 124.767 211.506 125.617 213.493C126.452 215.447 127.874 217.164 130.074 216.927L130.02 216.43ZM137.644 211.29L137.278 210.95C136.379 211.921 135.137 213.114 133.812 214.095C132.471 215.086 131.111 215.81 129.967 215.933L130.02 216.43L130.074 216.927C131.493 216.775 133.032 215.915 134.406 214.899C135.796 213.871 137.084 212.632 138.011 211.629L137.644 211.29ZM138.101 209.39L137.613 209.496C137.732 210.045 137.614 210.586 137.278 210.95L137.644 211.29L138.011 211.629C138.613 210.979 138.764 210.084 138.59 209.284L138.101 209.39ZM150.174 215.543L150.068 215.054C147.382 215.637 145.261 215.279 143.993 214.819L143.822 215.289L143.651 215.759C145.091 216.281 147.403 216.656 150.28 216.031L150.174 215.543ZM152.074 216L152.414 215.633C151.764 215.031 150.869 214.88 150.068 215.054L150.174 215.543L150.28 216.031C150.83 215.912 151.371 216.03 151.735 216.367L152.074 216ZM157.215 223.624L157.712 223.571C157.559 222.151 156.699 220.612 155.683 219.238C154.656 217.849 153.416 216.56 152.414 215.633L152.074 216L151.735 216.367C152.706 217.266 153.899 218.507 154.879 219.833C155.871 221.173 156.595 222.533 156.718 223.678L157.215 223.624ZM148.007 228.74V229.24C149.819 229.24 152.291 228.877 154.278 228.027C156.231 227.192 157.949 225.771 157.712 223.571L157.215 223.624L156.718 223.678C156.879 225.172 155.754 226.309 153.885 227.108C152.05 227.892 149.718 228.24 148.007 228.24V228.74ZM135.899 223.624L135.416 223.754C136.112 226.346 138.483 227.7 140.962 228.411C143.461 229.127 146.232 229.24 148.007 229.24V228.74V228.24C146.257 228.24 143.599 228.126 141.238 227.449C138.858 226.767 136.937 225.563 136.382 223.495L135.899 223.624ZM141.654 215.363L141.393 214.936C139.979 215.802 138.271 217.081 137.022 218.581C135.783 220.069 134.913 221.878 135.416 223.754L135.899 223.624L136.382 223.495C136.006 222.091 136.626 220.619 137.791 219.221C138.945 217.835 140.554 216.622 141.915 215.789L141.654 215.363ZM143.822 215.289L143.993 214.819C143.213 214.536 142.223 214.428 141.393 214.936L141.654 215.363L141.915 215.789C142.375 215.507 143.009 215.526 143.651 215.759L143.822 215.289ZM144.83 196.933L144.94 197.421C146.257 197.124 148.406 197.036 150.997 197.952L151.164 197.48L151.331 197.009C148.555 196.028 146.214 196.109 144.72 196.446L144.83 196.933ZM142.688 196.588L142.376 196.978C143.135 197.587 144.131 197.604 144.94 197.421L144.83 196.933L144.72 196.446C144.053 196.596 143.422 196.535 143.001 196.198L142.688 196.588ZM138.018 187.668L137.555 187.479C136.82 189.276 137.456 191.181 138.498 192.813C139.549 194.458 141.083 195.942 142.376 196.978L142.688 196.588L143.001 196.198C141.756 195.2 140.312 193.795 139.341 192.275C138.362 190.741 137.931 189.203 138.481 187.858L138.018 187.668ZM150.673 184.115L150.736 183.619C148.975 183.396 146.212 183.16 143.643 183.557C141.094 183.95 138.571 184.995 137.555 187.479L138.018 187.668L138.481 187.858C139.292 185.875 141.348 184.922 143.796 184.545C146.223 184.17 148.874 184.391 150.61 184.611L150.673 184.115ZM159.165 190.348L159.651 190.464C160.163 188.311 158.638 186.685 156.805 185.611C154.94 184.518 152.534 183.847 150.736 183.619L150.673 184.115L150.61 184.611C152.308 184.827 154.577 185.465 156.299 186.474C158.053 187.502 159.026 188.77 158.678 190.233L159.165 190.348ZM153.107 197.266L153.397 197.673C154.508 196.879 155.9 195.756 157.094 194.507C158.275 193.272 159.321 191.853 159.651 190.464L159.165 190.348L158.678 190.233C158.412 191.353 157.523 192.611 156.371 193.816C155.232 195.008 153.892 196.09 152.816 196.859L153.107 197.266ZM151.164 197.48L150.997 197.952C151.77 198.225 152.676 198.188 153.397 197.673L153.107 197.266L152.816 196.859C152.413 197.148 151.861 197.196 151.331 197.009L151.164 197.48ZM157.016 210.174L157.486 210.345C158.49 207.577 158.428 205.235 158.104 203.739L157.615 203.845L157.126 203.952C157.413 205.27 157.483 207.42 156.546 210.004L157.016 210.174ZM157.214 212.119L157.623 211.831C157.338 211.426 157.294 210.874 157.486 210.345L157.016 210.174L156.546 210.004C156.266 210.774 156.296 211.681 156.805 212.406L157.214 212.119ZM164.082 218.234L164.201 217.748C163.084 217.473 161.833 216.574 160.637 215.412C159.455 214.263 158.384 212.914 157.623 211.831L157.214 212.119L156.805 212.406C157.59 213.524 158.701 214.924 159.94 216.129C161.166 217.32 162.576 218.378 163.962 218.719L164.082 218.234ZM170.384 209.793L169.889 209.726C169.66 211.423 169.003 213.687 167.98 215.4C166.938 217.146 165.661 218.108 164.201 217.748L164.082 218.234L163.962 218.719C166.111 219.249 167.749 217.737 168.839 215.913C169.947 214.057 170.637 211.657 170.88 209.86L170.384 209.793ZM166.936 197.11L166.743 197.571C168.718 198.398 169.655 200.463 170.012 202.913C170.366 205.344 170.123 207.993 169.889 209.726L170.384 209.793L170.88 209.86C171.118 208.102 171.376 205.341 171.001 202.769C170.629 200.216 169.605 197.685 167.129 196.649L166.936 197.11ZM157.978 201.707L158.366 202.022C159.374 200.786 160.791 199.353 162.319 198.395C163.861 197.428 165.403 197.01 166.743 197.571L166.936 197.11L167.129 196.649C165.338 195.899 163.428 196.519 161.788 197.548C160.134 198.585 158.638 200.106 157.591 201.391L157.978 201.707ZM157.615 203.845L158.104 203.739C157.959 203.071 158.025 202.441 158.366 202.022L157.978 201.707L157.591 201.391C156.976 202.145 156.95 203.141 157.126 203.952L157.615 203.845Z" fill="white"/>
<path d="M121.109 209.358C121.597 213.319 124.122 220.539 129.271 225.484C133.813 229.847 137.199 232.238 147.678 232.238C157.778 232.238 165.302 225.513 167.994 221.475" stroke="white" stroke-linecap="round"/>
<path d="M131.177 186.238C133.713 184.014 139.849 179.718 147.954 179.718C156.06 179.718 161.321 184.131 164.131 186.94" stroke="white" stroke-linecap="round"/>
<path d="M172.384 197.886C172.813 200.578 173.39 205.811 172.875 209.417C172.36 213.023 170.678 217.825 170.054 218.937" stroke="white" stroke-linecap="round"/>
<path d="M144.326 201.961C144.166 202.021 142.78 204.534 142.055 205.834C141.957 206.011 141.876 206.201 141.875 206.404C141.87 208.127 144.307 211.531 144.864 211.531C145.455 211.531 150.052 211.773 150.751 211.182C151.45 210.59 152.606 206.262 152.498 205.939C152.391 205.617 150.267 201.961 149.649 201.799C149.031 201.638 144.541 201.88 144.326 201.961Z" stroke="white"/>
<path d="M146.638 203.896C145.735 203.875 145.061 204.748 144.837 205.187C144.652 205.549 144.446 206.101 144.837 207.476C145.24 208.893 146.02 208.977 147.982 209.085C149.944 209.192 150.063 205.868 149.514 204.837C149.014 203.896 147.767 203.923 146.638 203.896Z" stroke="white"/>
<path d="M283.877 50.4978C283.907 49.9833 283.802 48.8737 283.132 48.5519C282.295 48.1495 280.69 47.9587 280.497 48.1872" stroke="white" stroke-linecap="round"/>
<path d="M255.757 109.161C255.89 109.088 257.183 109.249 257.74 109.272C258.296 109.294 258.35 110.119 258.746 111.434C258.985 112.229 258.53 112.962 258.082 113.421" stroke="white"/>
<path d="M261.204 116.632C269.67 124.66 295.718 149.037 297.061 150.025C298.659 151.201 301.728 152.204 304.232 150.3C306.736 148.396 330.597 100.165 330.904 98.6094C331.212 97.0537 332.83 91.621 331.249 88.487C329.668 85.3529 328.307 83.0753 325.608 81.5518C323.407 80.3093 292.197 61.1073 280.517 53.8792M259.147 114.673C258.839 114.375 258.664 114.2 258.642 114.169C258.299 113.68 256.676 112.32 256.973 112.147C257.27 111.973 257.208 111.634 257.215 110.675C257.221 109.716 256.303 109.418 256.047 109.301C255.79 109.183 252.769 109.005 251.982 109.232C251.194 109.46 250.394 111.029 250.543 111.872C250.562 111.982 251.251 112.726 252.442 113.944M254.256 115.778C264.233 125.783 291.027 151.618 293.382 153.67C296.277 156.192 299.466 156.645 303.331 156.275C307.196 155.906 310.378 151.705 311.623 149.774C312.868 147.843 330.523 112.148 332.069 109.043C333.614 105.939 337.057 101.561 337.61 93.3514C338.164 85.1422 332.838 80.1316 331.046 78.7123C329.527 77.5093 293.651 56.0201 281.763 49.3821M277.841 52.2199C276.804 51.5752 276.201 51.1972 276.152 51.1588C275.699 50.809 275.113 49.9258 275.7 48.6495C275.93 48.1842 276.716 47.2923 278.017 47.4462C278.183 47.4659 278.853 47.7945 279.922 48.3701" stroke="white"/>
<path d="M255.247 110.923C255.003 110.797 254.513 110.512 254.499 110.374C254.482 110.202 255.184 110.196 255.267 110.193" stroke="white" stroke-linecap="round"/>
<path d="M255.909 111.241C256.175 111.352 256.612 111.925 256.798 112.197C256.73 112.166 255.849 112.295 255.176 112.506C254.504 112.718 254.153 113.542 253.815 114.277C253.477 115.012 254.182 115.446 254.28 115.559C254.379 115.673 254.365 115.941 254.171 115.947C253.976 115.954 252.909 114.998 252.607 114.64C252.306 114.282 252.476 113.703 252.702 112.766C252.927 111.829 254.327 111.226 255 111.042C255.673 110.859 255.576 111.101 255.909 111.241Z" stroke="white"/>
<path d="M283.541 64.1339C283.536 62.5093 284.895 59.3846 285.872 57.2572L283.453 55.7355C282.176 57.5862 281.095 60.2481 280.522 62.597C279.569 66.5023 281.133 68.6268 282.863 70.169C284.539 71.6626 304.45 85.1589 306.203 86.3041C307.956 87.4492 318.675 94.1966 320.626 96.3231C322.577 98.4495 322.227 102.43 320.749 105.81C319.272 109.19 316.219 109.223 315.028 108.839C313.837 108.456 279.373 81.8764 278.353 81.3671C277.334 80.8577 275.549 80.9396 273.551 82.7272C271.552 84.5148 270.729 86.8838 270.173 89.4164C269.617 91.949 269.955 95.1797 271.73 96.8561C273.504 98.5324 304.984 125.139 305.938 126.001C306.892 126.862 307.349 129.328 307.56 131.141C307.772 132.955 306.666 135.173 305.558 136.92C304.45 138.667 302.134 138.543 300.921 138.056C299.708 137.569 268.86 108.273 267.359 107.583C265.857 106.893 264.87 106.971 263.994 107.334C263.117 107.697 262.214 108.742 261.794 109.566L259.58 113.914C259.274 114.515 258.151 117.001 258.639 116.787C261.16 115.681 261.881 117.327 261.981 117.11C262.081 116.892 263.666 112.884 264.714 111.479C265.763 110.074 266.706 110.556 267.564 111.362C268.482 112.224 295.554 137.125 297.287 138.844C299.02 140.563 300.718 141.651 303.872 141.254C307.025 140.858 309.309 136.064 310.205 132.609C311.101 129.154 308.755 124.693 307.628 123.692C306.501 122.69 273.81 95.4541 273.284 94.6159C272.759 93.7776 272.013 91.5225 272.883 88.1879C273.753 84.8533 276.258 83.7267 277.381 83.8985C278.504 84.0703 310.673 109.651 311.338 110.164C312.002 110.678 318.239 115.802 322.883 107.655C327.528 99.5075 322.91 94.3634 321.913 93.523C320.915 92.6826 285.311 68.4385 284.742 67.7785C284.173 67.1185 283.547 66.1647 283.541 64.1339Z" stroke="white"/>
<path d="M279.592 50.7318C279.79 49.7795 281.235 49.4191 281.933 49.3579C281.743 48.8124 280.729 48.2583 280.351 48.3137C279.973 48.3691 278.808 48.8732 278.324 49.4265C277.841 49.9798 277.747 51.2583 277.846 52.3083C277.945 53.3584 278.66 53.5283 279.165 53.8484C279.67 54.1686 280.448 54.0856 280.58 53.9523C280.711 53.819 280.474 53.7982 280.158 53.7584C279.841 53.7187 279.345 51.9222 279.592 50.7318Z" stroke="white" stroke-linecap="round"/>
<path d="M255.149 190.008C255.482 190.897 254.878 192.355 254.989 192.682C255.106 193.031 256.655 196.331 257.588 196.793C258.521 197.255 262.404 196.053 263.799 195.699C265.194 195.345 268.918 195.098 271.014 195.323C273.11 195.548 274.397 197.406 274.862 197.288C275.327 197.169 280.584 196.149 281.167 196.38C281.75 196.61 287.407 202.968 288.133 204.176C288.859 205.383 289.801 208.173 290.584 212.384C291.368 216.594 290.384 221.23 290.2 221.906C290.017 222.582 288.265 227.314 287.707 227.595C287.261 227.82 282.731 229.057 280.522 229.647C280.059 230.27 278.84 231.744 277.67 232.66C276.207 233.807 269.391 234.972 264.365 235.643C259.34 236.313 258.611 234.407 257.797 234.643C256.983 234.878 249.84 235.859 248.724 236.189C247.608 236.519 245.928 235.501 245.649 235.526C245.37 235.55 235.252 237.915 234.133 237.43C233.014 236.946 226.404 230.894 226.145 230.034C225.886 229.174 223.355 218.265 223.444 217.171C223.515 216.296 225.979 210.217 227.201 207.287L237.193 204.998C237.052 204.642 236.797 203.588 236.87 202.991C236.942 202.395 237.393 201.872 237.61 201.685L236.782 200.046" stroke="white" stroke-linecap="round" stroke-linejoin="round"/>
<path d="M244.497 179.381C245.054 179.219 245.463 179.123 245.661 179.123C247.03 179.117 248.421 179.681 248.674 179.659C248.926 179.637 257.411 168.025 258.252 167.707C259.093 167.388 261.281 167.127 262.319 168.66C263.356 170.193 269.989 181.875 270.289 183.095C270.588 184.315 268.762 185.817 268.089 186.156C267.417 186.496 256.833 188.409 256.266 188.853C255.7 189.297 253.454 191.854 253.605 192.147C254.276 193.443 255.62 196.224 255.623 196.982C255.626 197.93 243.231 205.789 241.682 204.017C240.008 202.103 239.776 200.736 239.143 200.318C238.51 199.899 235.388 200.118 233.833 199.923C231.33 199.608 228.425 197.513 228.433 194.935C224.569 195.567 217.291 197.307 215.977 197.002C215.12 196.803 208.871 182.711 209.202 181.278C209.534 179.845 211.486 178.28 212.875 178.212C214.174 178.148 229.717 183.141 232.096 183.71" stroke="white" stroke-linecap="round" stroke-linejoin="round"/>
<path d="M236.588 175.164C237.103 174.987 237.222 175.029 237.809 174.9C239.748 174.472 241.812 174.398 242.266 175.296C242.856 176.466 244.817 179.759 244.988 180.691C245.159 181.623 241.871 184.899 236.639 186.401C235.775 186.587 233.944 186.863 233.531 186.472C233.015 185.984 231.47 182.092 231.301 181.638C231.132 181.184 230.684 179.823 231.351 178.948C231.719 178.464 232.462 177.655 233.427 176.898C233.857 176.562 233.974 176.404 234.479 176.122" stroke="white" stroke-linecap="round" stroke-linejoin="round"/>
<path d="M231.782 182.071C232.447 182.221 234.018 182.421 234.983 182.028C236.189 181.537 242.016 178.99 242.841 177.198" stroke="white" stroke-linecap="round" stroke-linejoin="round"/>
<path d="M232.971 185.204C232.711 184.431 232.548 182.777 233.964 182.345C235.735 181.805 238.184 182.298 238.879 183.52C239.435 184.497 239.627 184.95 239.653 185.054C239.167 183.519 238.625 180.229 240.354 179.357C242.515 178.266 243.994 179.484 244.547 180.424" stroke="white" stroke-linecap="round" stroke-linejoin="round"/>
<path d="M229.558 197.656C230.196 198.166 230.986 199.125 237.13 198.014C244.293 196.719 249.218 193.503 252.536 189.287" stroke="white" stroke-linecap="round" stroke-linejoin="round"/>
<path d="M232.368 184.621C231.071 185.775 228.765 188.155 229.916 188.438C231.354 188.792 234.683 188.851 238.629 187.16C241.785 185.807 244.055 184.522 244.796 184.048" stroke="white" stroke-linecap="round" stroke-linejoin="round"/>
<path d="M248.953 179.333L244.816 184.035C246.592 185.218 250.072 188.44 250.705 188.744C250.965 188.975 252.437 189.279 256.251 188.652" stroke="white" stroke-linecap="round" stroke-linejoin="round"/>
<path d="M228.451 194.983C228.558 193.609 228.89 190.175 229.61 187.988" stroke="white" stroke-linecap="round" stroke-linejoin="round"/>
<path d="M262.163 210.032L270.411 208.73" stroke="white" stroke-linecap="round" stroke-linejoin="round"/>
<path d="M265.208 223.768L272.828 221.649" stroke="white" stroke-linecap="round" stroke-linejoin="round"/>
<path d="M265.831 199.654L273.712 198.268" stroke="white" stroke-linecap="round" stroke-linejoin="round"/>
<path d="M272.701 210.596C272.523 213.579 274.318 218.541 275.238 220.649C277.712 225.553 281.315 226.811 282.479 226.871C283.643 226.931 286.053 226.147 288.346 222.777C290.628 219.423 289.572 213.478 288.954 210.004L288.945 209.954C288.329 206.487 284.216 201.116 282.983 199.849C281.75 198.583 277.504 198.297 275.423 200.588C273.341 202.88 272.925 206.868 272.701 210.596Z" stroke="white" stroke-linecap="round" stroke-linejoin="round"/>
<path d="M278.281 222.211C279.137 220.592 281.043 216.698 279.528 212.498C278.013 208.297 276.54 206.576 275.04 205.785" stroke="white" stroke-linecap="round" stroke-linejoin="round"/>
<path d="M274.727 210.52C275.275 211.215 276.422 213.216 276.621 215.663C276.819 218.11 276.554 219.025 276.396 219.176" stroke="white" stroke-linecap="round" stroke-linejoin="round"/>
<path d="M283.886 224.814C285.555 223.63 287.36 217.944 286.578 213.859C285.153 206.41 282.183 202.354 279.415 200.414" stroke="white" stroke-linecap="round" stroke-linejoin="round"/>
<path d="M280.882 223.476C283.129 219.701 283.465 217.02 283.053 213.961C282.262 208.1 277.69 202.324 276.33 201.661" stroke="white" stroke-linecap="round" stroke-linejoin="round"/>
<path d="M238.039 206.716C237.17 208.45 235.437 212.703 235.466 215.84C235.502 219.761 237.096 225.487 238.463 228.089C239.83 230.691 244.522 234.962 245.342 235.411" stroke="white" stroke-linecap="round" stroke-linejoin="round"/>
<path d="M257.857 234.546C255.005 232.208 250.981 227.978 248.997 221.694C247.41 216.666 247.818 211.514 248.22 209.566C248.787 206.818 252.152 201.628 257.913 197.019" stroke="white" stroke-linecap="round" stroke-linejoin="round"/>
<path d="M271.84 234.236C269.908 234.078 265.288 232.459 262.27 227.247C258.496 220.732 257.243 213.971 257.704 210.285C258.164 206.599 258.379 200.716 264.222 195.825" stroke="white" stroke-linecap="round" stroke-linejoin="round"/>
<path d="M237.083 204.648C237.55 206.258 238.621 207.267 238.998 207.301C239.469 207.344 241.96 206.804 242.584 206.615" stroke="white" stroke-linecap="round" stroke-linejoin="round"/>
<path d="M242.471 206.646C243.153 206.508 243.874 206.326 246.13 206.156" stroke="white" stroke-linecap="round" stroke-linejoin="round"/>
<path d="M223.626 217.361L235.35 215.546" stroke="white" stroke-linecap="round" stroke-linejoin="round"/>
<path d="M226.343 230.204L238.088 228.209" stroke="white" stroke-linecap="round" stroke-linejoin="round"/>
<path d="M268.637 195.269C267.08 195.749 263.693 197.322 262.599 199.774C261.231 202.838 258.825 210.475 261.137 218.051C263.448 225.627 266.247 230.852 271.231 232.493C275.217 233.806 277.331 233.067 277.889 232.533" stroke="white" stroke-linecap="round" stroke-linejoin="round"/>
<path d="M274.483 197.231C273.924 197.405 266.087 198.985 265.7 199.396C265.314 199.807 261.967 209.429 261.948 210.356C261.93 211.282 264.884 223.338 265.122 223.703C265.313 223.996 269.959 228.548 272.259 230.787C274.857 230.411 280.128 229.634 280.42 229.529" stroke="white" stroke-linecap="round" stroke-linejoin="round"/>
<path d="M278.273 196.613C276.975 196.999 274.279 197.873 273.884 198.289C273.39 198.807 270.534 207.264 270.473 208.213C270.424 208.971 272.037 217.371 272.849 221.477C275.185 223.968 279.97 229.022 280.42 229.314" stroke="white" stroke-linecap="round" stroke-linejoin="round"/>
<path d="M209.224 181.7C209.239 180.342 210.968 180.706 212.498 181.248C213.737 181.688 224.286 186.294 229.471 188.21" stroke="white" stroke-linecap="round" stroke-linejoin="round"/>
<path d="M256.239 169.939C257.832 168.334 260.15 170.373 261.035 172.001C261.92 173.63 266.277 182.238 268.121 185.944" stroke="white" stroke-linecap="round" stroke-linejoin="round"/>
<path d="M233.316 177.538C233.123 178.18 233.203 178.999 233.289 179.448C233.494 180.507 239.58 176.945 239.893 176.468C240.206 175.991 239.34 175.309 239.003 175.138C238.506 174.885 236.631 175.026 235.62 175.452C234.61 175.878 233.554 176.746 233.316 177.538Z" stroke="white" stroke-linecap="round" stroke-linejoin="round"/>
<path d="M231.147 179.877C231.505 180.561 233.126 181.463 236.747 179.605C241.272 177.282 242.46 175.976 242.017 175.177" stroke="white" stroke-linecap="round" stroke-linejoin="round"/>
<path d="M235.327 176.747C235.31 176.881 235.943 176.829 236.598 176.196" stroke="white" stroke-linecap="round" stroke-linejoin="round"/>
<path d="M20.7151 232.45C20.7151 233.595 19.4808 235.802 18.2545 237.355C17.2735 238.598 15.7887 239.216 14.5785 239.594C10.5546 236.826 8.45237 237.682 7.79835 237.846C7.14434 238.009 1.91221 241.443 1.25819 242.424C0.734969 243.209 0.285248 245.779 0.609413 247.499C0.992713 249.534 1.23876 251.465 3.89778 255.799C6.55681 260.132 12.296 262.422 13.9602 262.007C14.8348 261.788 21.4121 258.231 22.003 256.557C22.4757 255.218 22.4812 253.818 22.4248 253.286L33.8659 249.049C40.8841 251.459 48.7928 249.049 52.2841 247.735C54.1002 247.052 56.6242 244.938 59.2401 242.258C60.5496 240.917 62.5137 236.59 64.3305 232.252M67.0581 225.59C67.1269 225.422 67.1944 225.257 67.2603 225.097C67.7089 224.425 68.707 223.034 69.1108 222.854C69.6154 222.63 70.2378 222.957 71.4714 223.237C72.705 223.517 78.8222 219.132 78.9905 218.291C79.1587 217.45 80.3895 213.308 77.1304 207.336C73.5545 200.783 67.4348 200.457 66.5536 200.783C66.4282 200.83 65.4099 201.481 63.7555 202.568" stroke="white" stroke-linecap="round"/>
<path d="M63.0353 201.53C63.3223 201.943 63.5679 202.335 63.7616 202.695C64.9826 204.967 65.5129 208.311 65.5129 209.079C65.5129 209.848 65.705 214.546 65.5129 217.363C65.3209 220.181 64.658 221.648 64.658 222.097C64.658 222.545 65.1063 223.505 66.1308 223.505C67.1553 223.505 67.5395 229.268 67.4754 229.588C67.4114 229.908 57.1023 237.784 56.1418 237.72C55.1813 237.656 52.6841 236.056 51.9797 236.056C46.3022 236.76 33.6421 238.027 25.9887 235.094C15.2932 230.996 15.5456 224.338 15.4815 223.505C15.4175 222.673 14.8426 217.146 15.2453 215.132C15.6168 213.275 16.7477 211.748 17.2849 211.511C17.2849 209.131 16.6558 204.283 17.4025 202.695C17.5138 202.458 17.8643 201.901 18.436 201.158" stroke="white" stroke-linecap="round"/>
<path d="M20.9789 194.445C18.0402 197.575 18.6031 200.787 18.427 203.592C18.427 207.112 19.3094 211.25 23.8396 214.566C29.6877 218.848 36.5535 220.814 48.0152 219.214C59.4769 217.613 62.4141 207.224 62.545 206.729C62.8502 205.574 63.186 201.479 62.9444 200.157C62.545 197.97 61.3883 194.029 57.0382 191.618C52.118 188.89 46.401 188 38.7809 188C29.9418 188 24.6547 190.53 20.9789 194.445Z" stroke="white" stroke-linecap="round"/>
<path d="M29.4314 203.953C29.5958 203.986 29.9443 203.904 30.0232 203.312C30.1218 202.572 30.2205 202.77 31.4041 202.474C32.351 202.237 33.0151 201.685 33.2288 201.438C33.9521 200.83 35.527 199.564 36.0399 199.367C36.681 199.12 37.8647 198.035 38.2592 197.986" stroke="white" stroke-linecap="round" stroke-linejoin="round"/>
<path d="M30.7258 205.658C30.8902 205.691 31.2387 205.609 31.3176 205.017C31.4163 204.277 31.5149 204.475 32.6985 204.179C33.6454 203.942 34.3096 203.39 34.5233 203.143C35.2466 202.535 36.8214 201.269 37.3343 201.072C37.9755 200.825 39.1591 199.74 39.5536 199.691" stroke="white" stroke-linecap="round" stroke-linejoin="round"/>
<path d="M26.2258 204.051C26.4889 203.887 27.0149 203.499 27.0149 203.263C27.0149 202.967 27.0149 201.882 27.5574 201.832C27.9914 201.793 29.2506 200.829 29.826 200.353C30.2205 198.923 30.0726 199.071 30.7137 199.12C31.3548 199.169 32.8343 199.613 32.5878 198.429C32.3412 197.246 33.6727 197.196 34.018 197.344C34.3632 197.492 35.6454 196.999 35.6454 196.506C35.6454 196.013 36.977 196.21 37.8154 196.161C38.4861 196.121 39.7059 195.684 40.2319 195.47" stroke="white" stroke-linecap="round" stroke-linejoin="round"/>
<path d="M33.2285 206.672L34.9058 205.665L37.8411 207.846" stroke="white" stroke-linecap="round" stroke-linejoin="round"/>
<path d="M28.8611 209.298L30.5384 208.292L33.4736 210.473" stroke="white" stroke-linecap="round" stroke-linejoin="round"/>
<path d="M37.1365 204.11L38.8138 203.104L41.749 205.284" stroke="white" stroke-linecap="round" stroke-linejoin="round"/>
<path d="M41.4712 201.417L43.1485 200.411L46.0838 202.591" stroke="white" stroke-linecap="round" stroke-linejoin="round"/>
<path d="M45.4849 199.052L47.1622 198.046L50.0974 200.226" stroke="white" stroke-linecap="round" stroke-linejoin="round"/>
<path d="M34.0099 207.135C33.2551 207.722 34.5628 208.918 36.3743 208.448C36.5932 208.109 36.6436 207.371 35.0936 207.135" stroke="white" stroke-linecap="round" stroke-linejoin="round"/>
<path d="M29.6422 209.763C28.8874 210.35 30.1951 211.546 32.0066 211.076C32.2255 210.737 32.2759 209.999 30.7259 209.763" stroke="white" stroke-linecap="round" stroke-linejoin="round"/>
<path d="M37.9178 204.574C37.163 205.161 38.4707 206.357 40.2822 205.887C40.5012 205.548 40.5515 204.81 39.0015 204.574" stroke="white" stroke-linecap="round" stroke-linejoin="round"/>
<path d="M42.2525 201.881C41.4978 202.468 42.8055 203.664 44.6169 203.194C44.8359 202.855 44.8862 202.117 43.3362 201.881" stroke="white" stroke-linecap="round" stroke-linejoin="round"/>
<path d="M46.2662 199.517C45.5114 200.104 46.8191 201.3 48.6306 200.83C48.8496 200.491 48.8999 199.753 47.3499 199.517" stroke="white" stroke-linecap="round" stroke-linejoin="round"/>
<path d="M18.5624 201.189C17.9916 203.497 23.079 214.468 38.4581 215.493C54.6312 216.572 63.9302 206.157 62.877 201.316" stroke="white" stroke-linecap="round"/>
<path d="M17.1016 203.838C16.5646 214.048 24.347 220.108 35.2309 221.524C50.4895 223.509 57.9927 218.248 60.8484 214.599C63.1536 211.653 65.0013 206.533 64.5715 204.591" stroke="white" stroke-linecap="round"/>
<path d="M65.5847 215.65C65.5847 220.102 57.5843 226.417 52.455 227.984C46.6014 229.773 37.2784 229.016 32.7804 227.984C29.4742 227.225 22.7977 224.606 21.2358 222.943C19.4423 221.035 17.7601 217.466 17.55 216.83C17.3399 216.193 17.2705 210.653 17.2705 210.653" stroke="white" stroke-linecap="round" stroke-linejoin="round"/>
<path d="M15.125 217.909C15.9651 221.577 16.4327 224.547 22.2052 227.411C32.8073 232.673 41.9916 233.227 51.3605 231.335C53.0282 230.998 54.9255 231.958 55.6299 232.022C56.1933 232.073 63.0789 226.793 66.4512 224.146" stroke="white" stroke-linecap="round"/>
<path d="M65.5676 210.279C67.695 212.361 71.6928 218.374 69.0445 222.869" stroke="white" stroke-linecap="round"/>
<path d="M65.2026 203.128C69.1739 204.283 71.2755 206.372 73.3979 210.421C75.1238 213.713 75.4558 218.11 74.842 220.24" stroke="white" stroke-linecap="round"/>
<path d="M67.1287 202.093C70.1686 202.72 73.297 205.274 75.2592 208.631C77.2617 212.057 77.4065 215.7 77.2617 218.041" stroke="white" stroke-linecap="round"/>
<path d="M19.9131 242.432C21.4906 241.998 25.1307 240.894 27.0711 239.947" stroke="white" stroke-linecap="round"/>
<path d="M33.7673 249.069C35.4374 248.515 40.2109 246.56 43.1872 244.347" stroke="white" stroke-linecap="round"/>
<path d="M14.5439 239.563C16.064 240.993 18.2566 243.158 19.9211 246.136C20.9792 248.028 22.324 251.568 22.4254 253.324" stroke="white" stroke-linecap="round"/>
<path d="M6.13844 240.568C8.31154 241.063 11.1084 243.017 13.445 245.757C17.2239 250.19 18.1613 255.18 18.1951 258.186" stroke="white" stroke-linecap="round"/>
<path d="M7.84692 239.09C10.02 239.586 14.0067 241.75 16.0255 244.732C18.998 249.123 20.113 253.97 20.1468 256.976" stroke="white" stroke-linecap="round"/>
<path d="M1.25488 242.395C2.36327 240.516 7.59801 242.662 11.0711 246.946C15.8613 252.855 17.6208 259.358 15.3914 261.35" stroke="white" stroke-linecap="round"/>
<path d="M71.506 223.237C72.779 221.154 74.2324 216.177 71.506 211.815C69.4942 208.596 66.331 205.878 64.7847 205.026" stroke="white" stroke-linecap="round"/>
<path d="M4.20226 243.983C2.82876 243.857 2.13169 245.47 2.18006 246.273C2.09748 247.858 2.56312 250.765 4.87022 254.537C5.4311 255.455 10.5485 261.417 13.2526 259.202C16.304 256.703 10.9558 249.384 10.1699 248.251C9.0013 246.567 5.91913 244.14 4.20226 243.983Z" stroke="white" stroke-linecap="round"/>
<path d="M35.9021 213.388C36.3953 213.29 37.3816 213.004 37.3816 212.649C37.3816 212.205 38.3329 211.366 38.7274 211.366C39.043 211.366 39.9175 211.366 40.4275 210.921C40.81 210.071 40.6661 209.335 41.5736 209.295C42.7079 209.246 42.9545 207.914 43.6942 207.865C44.434 207.815 46.8998 208.358 46.9492 207.322C46.9985 206.287 48.9712 205.794 49.3164 205.251C49.6616 204.709 50.7959 203.821 51.437 203.624C52.0782 203.426 53.5577 203.377 53.5577 202.884" stroke="white" stroke-linecap="round" stroke-linejoin="round"/>
<path d="M63.0496 201.665C61.4822 198.682 54.2328 195.693 52.3151 195.005C45.0615 192.404 37.6032 192.647 34.5587 193.079C30.0106 193.725 21.2362 195.143 18.5811 201.138" stroke="white" stroke-linecap="round" stroke-linejoin="round"/>
<path d="M55.7522 232.068L56.1579 237.545" stroke="white" stroke-linecap="round" stroke-linejoin="round"/>
<path d="M124.972 273.785C126.77 267.863 122.185 262.567 120.69 261.268C119.195 259.97 114.538 257.727 105.942 258.796C97.3461 259.865 88.3373 266.136 83.1028 274.473C78.825 281.286 79.4091 282.964 78.2793 285.554C77.1495 288.145 65.8516 302.218 60.362 311.299C55.9703 318.564 49.1966 334.209 46.3587 341.123C48.8313 344.128 59.6279 347.691 60.1006 346.11C60.5733 344.529 65.0315 333.517 71.4468 318.628C76.4825 306.94 81.9516 299.744 87.2291 295.549" stroke="white" stroke-linecap="round" stroke-linejoin="round"/>
<path d="M83.1351 286.294C82.252 290.098 84.4749 294.248 87.1446 295.375C95.622 298.952 100.628 296.808 108.134 293.185C114.417 290.152 120.51 283.675 122.861 278.992C125.212 274.309 125.691 271.601 125.068 269.485C124.543 267.7 121.832 263.89 116.782 263.119C111.733 262.349 106.204 263.272 97.0643 268.734C87.9249 274.197 84.1621 281.869 83.1351 286.294Z" stroke="white" stroke-linecap="round" stroke-linejoin="round"/>
<path d="M85.23 286.693C84.2227 290.085 86.0542 294.098 88.6065 295.184L89.9351 296.069C89.279 296.693 87.7864 298.116 87.0641 298.822C86.1611 299.705 85.6084 301.001 86.9942 302.13C88.3799 303.259 90.994 302.963 91.8694 301.647C92.5698 300.594 93.6654 298.138 94.1257 297.042C98.2938 297.744 105.589 294.623 108.715 292.975C114.744 290.001 120.603 283.675 122.872 279.11C125.141 274.546 124.746 272.401 124.158 270.344C123.662 268.61 121.666 265.615 116.833 264.884C112 264.154 106.752 265.46 97.9796 270.809C89.2067 276.158 86.4891 282.453 85.23 286.693Z" stroke="white" stroke-linecap="round" stroke-linejoin="round"/>
<path d="M96.3046 275.805C95.9487 275.26 96.5941 274.863 97.0081 274.605C98.4851 274.116 98.2337 275.58 97.9511 276.187C97.6685 276.795 96.6181 276.285 96.3046 275.805Z" stroke="white" stroke-linecap="round" stroke-linejoin="round"/>
<path d="M98.9008 276.408C98.5449 275.863 99.1903 275.466 99.6043 275.208C101.081 274.718 100.83 276.183 100.547 276.79C100.265 277.397 99.2143 276.888 98.9008 276.408Z" stroke="white" stroke-linecap="round" stroke-linejoin="round"/>
<path d="M97.4358 275.823C97.4806 275.952 97.578 276.165 97.6099 275.982C97.6417 275.8 97.6812 275.656 97.697 275.607" stroke="white" stroke-linecap="round" stroke-linejoin="round"/>
<path d="M100.032 276.426C100.077 276.555 100.174 276.767 100.206 276.585C100.238 276.402 100.277 276.259 100.293 276.21" stroke="white" stroke-linecap="round" stroke-linejoin="round"/>
<path d="M101.48 277.083C101.124 276.538 101.77 276.141 102.184 275.883C103.661 275.394 103.409 276.858 103.127 277.465C102.844 278.072 101.794 277.563 101.48 277.083Z" stroke="white" stroke-linecap="round" stroke-linejoin="round"/>
<path d="M105.671 274.975C105.315 274.43 105.96 274.033 106.374 273.775C107.851 273.286 107.6 274.75 107.317 275.357C107.035 275.965 105.984 275.455 105.671 274.975Z" stroke="white" stroke-linecap="round" stroke-linejoin="round"/>
<path d="M106.802 274.994C106.847 275.123 106.944 275.335 106.976 275.153C107.008 274.97 107.047 274.827 107.063 274.777" stroke="white" stroke-linecap="round" stroke-linejoin="round"/>
<path d="M103.876 273.378C103.52 272.833 104.165 272.436 104.579 272.178C106.056 271.688 105.805 273.153 105.522 273.76C105.24 274.367 104.189 273.858 103.876 273.378Z" stroke="white" stroke-linecap="round" stroke-linejoin="round"/>
<path d="M105.007 273.397C105.052 273.526 105.149 273.738 105.181 273.556C105.213 273.373 105.253 273.229 105.268 273.18" stroke="white" stroke-linecap="round" stroke-linejoin="round"/>
<path d="M101.686 271.861C101.331 271.316 101.976 270.919 102.39 270.661C103.867 270.171 103.616 271.636 103.333 272.243C103.05 272.85 102 272.341 101.686 271.861Z" stroke="white" stroke-linecap="round" stroke-linejoin="round"/>
<path d="M102.818 271.879C102.862 272.009 102.96 272.221 102.992 272.039C103.024 271.856 103.063 271.712 103.079 271.663" stroke="white" stroke-linecap="round" stroke-linejoin="round"/>
<path d="M107.54 269.384C107.184 268.839 107.83 268.442 108.244 268.184C109.721 267.695 109.469 269.159 109.187 269.766C108.904 270.374 107.854 269.864 107.54 269.384Z" stroke="white" stroke-linecap="round" stroke-linejoin="round"/>
<path d="M108.671 269.402C108.716 269.531 108.814 269.744 108.845 269.562C108.877 269.379 108.917 269.235 108.933 269.186" stroke="white" stroke-linecap="round" stroke-linejoin="round"/>
<path d="M112.998 268.634C112.643 268.089 113.288 267.692 113.702 267.434C115.179 266.945 114.928 268.409 114.645 269.016C114.362 269.624 113.312 269.114 112.998 268.634Z" stroke="white" stroke-linecap="round" stroke-linejoin="round"/>
<path d="M114.13 268.653C114.174 268.782 114.272 268.995 114.304 268.812C114.336 268.629 114.375 268.486 114.391 268.437" stroke="white" stroke-linecap="round" stroke-linejoin="round"/>
<path d="M108.835 271.504C108.479 270.959 109.125 270.562 109.539 270.304C111.016 269.815 110.764 271.279 110.482 271.887C110.199 272.494 109.149 271.984 108.835 271.504Z" stroke="white" stroke-linecap="round" stroke-linejoin="round"/>
<path d="M109.966 271.523C110.011 271.652 110.109 271.865 110.14 271.682C110.172 271.5 110.212 271.356 110.228 271.307" stroke="white" stroke-linecap="round" stroke-linejoin="round"/>
<path d="M113.544 271.093C113.188 270.548 113.833 270.151 114.247 269.893C115.724 269.403 115.473 270.868 115.19 271.475C114.908 272.082 113.857 271.573 113.544 271.093Z" stroke="white" stroke-linecap="round" stroke-linejoin="round"/>
<path d="M114.675 271.111C114.72 271.24 114.817 271.453 114.849 271.271C114.881 271.088 114.92 270.944 114.936 270.895" stroke="white" stroke-linecap="round" stroke-linejoin="round"/>
<path d="M110.115 273.6C109.807 273.129 110.365 272.785 110.723 272.562C112 272.139 111.782 273.405 111.538 273.93C111.294 274.455 110.386 274.014 110.115 273.6Z" stroke="white" stroke-linecap="round" stroke-linejoin="round"/>
<path d="M111.093 273.616C111.131 273.727 111.215 273.911 111.243 273.753C111.27 273.596 111.305 273.471 111.318 273.429" stroke="white" stroke-linecap="round" stroke-linejoin="round"/>
<path d="M113.532 273.522C113.224 273.051 113.782 272.708 114.14 272.485C115.416 272.062 115.199 273.327 114.955 273.852C114.71 274.377 113.803 273.937 113.532 273.522Z" stroke="white" stroke-linecap="round" stroke-linejoin="round"/>
<path d="M114.509 273.538C114.548 273.649 114.632 273.833 114.66 273.675C114.687 273.517 114.721 273.393 114.735 273.351" stroke="white" stroke-linecap="round" stroke-linejoin="round"/>
<path d="M116.377 274.66C116.069 274.189 116.627 273.845 116.985 273.622C118.262 273.199 118.044 274.465 117.8 274.99C117.556 275.515 116.648 275.075 116.377 274.66Z" stroke="white" stroke-linecap="round" stroke-linejoin="round"/>
<path d="M117.355 274.676C117.393 274.787 117.477 274.971 117.505 274.813C117.532 274.656 117.567 274.531 117.58 274.489" stroke="white" stroke-linecap="round" stroke-linejoin="round"/>
<path d="M117.243 272.185C116.935 271.715 117.493 271.371 117.851 271.148C119.128 270.725 118.91 271.991 118.666 272.516C118.422 273.041 117.514 272.6 117.243 272.185Z" stroke="white" stroke-linecap="round" stroke-linejoin="round"/>
<path d="M118.221 272.202C118.259 272.313 118.344 272.497 118.371 272.339C118.399 272.181 118.433 272.057 118.446 272.015" stroke="white" stroke-linecap="round" stroke-linejoin="round"/>
<path d="M117.832 269.647C117.525 269.176 118.083 268.833 118.441 268.61C119.717 268.187 119.5 269.452 119.256 269.977C119.011 270.502 118.103 270.062 117.832 269.647Z" stroke="white" stroke-linecap="round" stroke-linejoin="round"/>
<path d="M118.81 269.663C118.849 269.774 118.933 269.958 118.96 269.8C118.988 269.642 119.022 269.518 119.036 269.476" stroke="white" stroke-linecap="round" stroke-linejoin="round"/>
<path d="M120.388 272.282C120.08 271.811 120.638 271.467 120.996 271.244C122.273 270.822 122.055 272.087 121.811 272.612C121.567 273.137 120.659 272.697 120.388 272.282Z" stroke="white" stroke-linecap="round" stroke-linejoin="round"/>
<path d="M121.365 272.298C121.404 272.409 121.488 272.593 121.516 272.435C121.543 272.278 121.578 272.153 121.591 272.111" stroke="white" stroke-linecap="round" stroke-linejoin="round"/>
<path d="M119.332 274.808C119.024 274.337 119.582 273.993 119.94 273.77C121.217 273.347 120.999 274.613 120.755 275.138C120.511 275.663 119.603 275.222 119.332 274.808Z" stroke="white" stroke-linecap="round" stroke-linejoin="round"/>
<path d="M120.31 274.824C120.348 274.935 120.432 275.119 120.46 274.961C120.488 274.804 120.522 274.679 120.535 274.637" stroke="white" stroke-linecap="round" stroke-linejoin="round"/>
<path d="M119.272 275.066C118.965 274.595 119.522 274.252 119.88 274.029C121.157 273.606 120.939 274.871 120.695 275.396C120.451 275.921 119.543 275.481 119.272 275.066Z" stroke="white" stroke-linecap="round" stroke-linejoin="round"/>
<path d="M120.25 275.082C120.288 275.194 120.373 275.377 120.4 275.22C120.428 275.062 120.462 274.938 120.476 274.895" stroke="white" stroke-linecap="round" stroke-linejoin="round"/>
<path d="M117.693 277.057C117.385 276.586 117.943 276.243 118.301 276.02C119.578 275.597 119.36 276.863 119.116 277.387C118.872 277.912 117.964 277.472 117.693 277.057Z" stroke="white" stroke-linecap="round" stroke-linejoin="round"/>
<path d="M121.618 275.715C121.401 275.382 121.795 275.139 122.048 274.982C122.951 274.683 122.797 275.577 122.624 275.948C122.452 276.319 121.81 276.008 121.618 275.715Z" stroke="white" stroke-linecap="round" stroke-linejoin="round"/>
<path d="M122.309 275.726C122.337 275.805 122.396 275.935 122.416 275.824C122.435 275.712 122.459 275.624 122.469 275.594" stroke="white" stroke-linecap="round" stroke-linejoin="round"/>
<path d="M111.246 276.589C111.298 276.737 111.41 276.982 111.446 276.772C111.483 276.562 111.528 276.397 111.546 276.341" stroke="white" stroke-linecap="round" stroke-linejoin="round"/>
<path d="M110.917 276.271C110.498 276.496 110.578 277.072 110.671 277.333C110.717 277.5 111.199 277.567 111.672 277.408C112.145 277.25 112.404 276.425 112.365 276.159C112.326 275.892 111.442 275.989 110.917 276.271Z" stroke="white" stroke-linecap="round" stroke-linejoin="round"/>
</svg>
