<svg width="375" height="348" viewBox="0 0 375 348" fill="none" xmlns="http://www.w3.org/2000/svg">
<path d="M296.44 -12.839C302.372 -3.08333 319.982 7.72912 323.938 10.6992C326.99 12.9906 338.728 33.1142 344.813 43.944M349.236 45.0294C352.294 42.7367 354.713 35.4624 355.74 29.4797C356.357 25.8881 362.236 24.4275 372.576 14.0475C385.585 2.60448 386.233 -3.20095 390.694 -5.51641C397.352 -8.97239 402.995 -12.9211 404.376 -16.0521M296.213 -17.4884C299.974 -26.1591 324.519 -35.4666 328.069 -40.7821C331.787 -46.3493 339.197 -64.3211 342.637 -69.4429M353.816 -66.0551C360.235 -61.4988 368.943 -53.9296 378.024 -44.2428C394.479 -26.6916 394.236 -23.183 401.751 -20.4524C402.262 -20.2666 402.702 -20.0623 403.073 -19.8412" stroke="white" stroke-linecap="round" stroke-linejoin="round"/>
<path d="M326.745 14.0573C324.884 10.8582 317.454 0.406143 312.432 -4.04166" stroke="white" stroke-linecap="round" stroke-linejoin="round"/>
<path d="M292.712 -13.6269C291.269 -10.6898 288.589 -4.67246 289.407 -4.10004C290.429 -3.38453 291.636 -6.79291 292.06 -7.3581C291.791 -6.33 291.527 -4.09907 292.624 -3.40015C293.995 -2.52649 293.905 -3.9982 294.927 -3.28268C295.949 -2.56716 296.814 -1.50251 297.504 -2.28375C298.195 -3.06499 297.06 -12.0784 296.519 -12.7438" stroke="white" stroke-linecap="round" stroke-linejoin="round"/>
<path d="M347.847 47.84C346.806 50.9421 344.477 57.1041 343.493 56.9355C342.263 56.7246 343.803 53.4532 343.899 52.753C343.367 53.6731 341.986 55.4444 340.714 55.1691C339.125 54.825 340.225 53.8431 338.995 53.6322C337.765 53.4214 336.402 53.5699 336.461 52.529C336.52 51.488 343.668 45.8814 344.52 45.7885" stroke="white" stroke-linecap="round" stroke-linejoin="round"/>
<path d="M339.354 53.7653C339.752 53.722 340.9 53.0796 342.313 50.8566" stroke="white" stroke-linecap="round" stroke-linejoin="round"/>
<path d="M349.402 46.2911C349.536 47.5179 347.374 47.719 346.276 47.6662C345.758 47.6612 344.709 45.9403 344.579 44.7475C344.449 43.5548 346.949 42.7651 347.972 42.6537C348.994 42.5423 349.235 44.7575 349.402 46.2911Z" stroke="white" stroke-linecap="round" stroke-linejoin="round"/>
<path d="M355.741 29.4798C356.415 26.5035 357.572 23.5773 356.211 21.1504" stroke="white" stroke-linecap="round" stroke-linejoin="round"/>
<path d="M349.931 321.502C348.388 332.815 355.246 352.308 356.446 357.108C357.372 360.81 353.802 383.832 351.702 396.076M354.452 399.706C358.271 399.853 364.733 395.729 369.302 391.732C372.044 389.332 377.529 391.903 392.099 390.361C409.411 389.675 413.573 385.576 418.496 386.59C425.843 388.102 432.713 388.593 435.758 387.032M352.685 317.75C361.07 313.388 385.993 321.631 392.099 319.741C398.494 317.761 415.574 308.478 421.472 306.669M428.017 316.345C430.129 323.928 432.119 335.293 433.065 348.537C434.779 372.534 432.38 375.105 436.493 381.962C436.773 382.428 436.986 382.864 437.135 383.27" stroke="white" stroke-linecap="round" stroke-linejoin="round"/>
<path d="M356.509 361.484C357.08 357.827 357.899 345.03 356.803 338.411" stroke="white" stroke-linecap="round" stroke-linejoin="round"/>
<path d="M347.533 318.541C344.562 319.912 338.688 322.894 338.963 323.854C339.305 325.054 342.391 323.169 343.076 322.997C342.219 323.626 340.608 325.191 341.02 326.425C341.534 327.968 342.391 326.768 342.734 327.968C343.076 329.168 343.076 330.539 344.105 330.368C345.133 330.196 349.933 322.483 349.933 321.626" stroke="white" stroke-linecap="round" stroke-linejoin="round"/>
<path d="M342.562 327.625C342.562 327.225 343.076 326.014 345.133 324.369" stroke="white" stroke-linecap="round" stroke-linejoin="round"/>
<path d="M348.904 316.827C347.67 316.827 347.705 318.998 347.876 320.083C347.92 321 349.802 321.763 350.961 321.455C352.675 321 352.675 318.884 352.675 317.855C352.675 316.827 350.447 316.827 348.904 316.827Z" stroke="white" stroke-linecap="round" stroke-linejoin="round"/>
<path d="M268.433 118.617C267.226 117.267 254.25 71.6122 247.913 48.9536C249.368 44.504 270.103 39.6001 277.11 37.9168C285.4 35.9255 306.007 32.7903 306.807 34.8061C307.607 36.8218 319.997 104.811 319.126 106.439C318.256 108.068 307.903 113.551 296.458 116.458C285.014 119.365 269.942 120.305 268.433 118.617Z" stroke="white"/>
<path d="M278.441 63.3564C267.261 66.4444 257.752 70.5001 258.12 72.0328C261.559 84.3309 268.572 109.166 269.113 110.122C269.788 111.318 284.878 111.564 294.37 109.09C301.963 107.111 310.243 103.077 313.896 99.9464C312.056 87.0379 308.226 61.0047 307.63 60.1393C306.951 59.1519 297.842 59.0584 286.428 61.4108" stroke="white" stroke-linejoin="round"/>
<path d="M256.6 66.1282C255.315 60.7783 251.16 52.2634 252.456 51.9519C254.077 51.5625 257.566 51.7208 262.04 50.8799" stroke="white" stroke-linecap="round"/>
<path d="M278.657 49.6835C279.098 51.522 278.647 55.0636 278.223 60.3332C278.01 62.9932 278.861 66.9533 283.56 65.8244C289.766 64.3336 284.336 55.6102 282.436 52.9639C281.119 51.1299 278.215 47.8451 278.657 49.6835Z" stroke="white"/>
<path d="M258.281 71.897C262.139 71.9402 273.408 71.9679 284.266 69.0491C295.741 65.9648 306.718 62.3949 307.058 60.1797" stroke="white"/>
<path d="M248.271 48.7969C253.246 48.3777 266.238 46.8082 278.414 43.8833C293.634 40.227 307.075 36.0286 306.767 34.7449" stroke="white"/>
<path d="M266.609 113.376C271.831 114.852 284.053 114.648 294.738 112.081C304.731 109.681 315.037 103.784 318.344 100.414" stroke="white" stroke-linecap="round"/>
<path d="M296.387 42.7802C298.287 42.2602 302.585 40.8353 304.57 39.295" stroke="white" stroke-linecap="round"/>
<path d="M266.246 83.4497C268.16 90.0581 272.098 103.737 272.543 105.588C273.099 107.901 292.548 105.349 300.357 101.19" stroke="white" stroke-linecap="round"/>
<path d="M405.277 219.741C413.757 216.28 421.011 205.589 423.577 200.676C425.285 197.718 433.371 207.206 438.71 217.935C444.049 228.664 445.977 237.085 444.327 238.037C442.677 238.99 426.413 239.824 417.768 244.326C409.123 248.829 405.789 266.765 389.838 275.974C373.888 285.183 350.941 285.82 350.549 285.619C349.858 285.264 343.071 279.843 339.028 272.253C334.985 264.663 334.09 260.84 334.073 257.082C334.056 253.324 352.054 233.229 363.403 227.435C378.035 219.965 394.676 224.066 405.277 219.741Z" stroke="white" stroke-linecap="round"/>
<path d="M366.041 278.546C371.3 278.342 383.613 276.445 390.794 270.487" stroke="white" stroke-linecap="round"/>
<path d="M360.17 233.609C355.342 237.701 345.389 246.994 344.199 251.436" stroke="white" stroke-linecap="round"/>
<path d="M342.476 257.638C343.266 255.324 345.969 252.636 350.247 260.046C355.647 269.398 359.262 278.205 356.5 278.7C352.446 279.427 349.133 272.968 346.778 269.629" stroke="white" stroke-linecap="round"/>
<path d="M346.946 261.952C347.07 261.489 347.902 261.65 350.234 265.995" stroke="white" stroke-linecap="round"/>
<path d="M338.131 255.069C339.538 260.809 344.892 274.097 353.956 282.478" stroke="white" stroke-linecap="round"/>
<path d="M313.834 -66.1905C321.81 -45.4715 317.362 -25.281 316.871 -24.3299C316.38 -23.3788 305.714 -7.37663 302.97 -6.7278C300.775 -6.20874 282.871 -7.12095 274.193 -7.64193C256.926 -18.3589 251.453 -42.2599 251.849 -43.8618C252.062 -44.7202 253.775 -46.9164 255.422 -48.8657" stroke="white" stroke-linecap="round"/>
<path d="M341.105 113.645C342.521 104.498 347.745 86.8481 357.317 89.4238C369.281 92.6434 368.761 104.907 368.461 114.235M364.463 113.557C364.363 112.603 365.636 94.7989 357.264 93.33C350.566 92.1549 346.747 105.291 345.63 112.356" stroke="white" stroke-linecap="round"/>
<path d="M419.711 147.897C419.63 148.198 419.247 149.481 416.64 154.964M335.533 132.567C333.912 130.286 335.119 125.242 337.136 121.406M333.757 141.602C332.133 145.201 330.053 151.888 331.686 156.243C330.633 163.121 329.096 165.867 329.971 167.797C330.679 169.36 332.371 172.078 335.554 175.128C336.422 175.96 337.4 176.816 338.5 177.68C343.962 181.974 352.411 186.467 365.103 189.117C384.8 193.228 391.203 192.025 398.683 189.96C402.208 188.207 402.807 182.525 405.262 177.581C407.929 176.205 409.977 171.327 411.22 167.582" stroke="white" stroke-linecap="round"/>
<path d="M407.983 128.337C403.526 126.343 391.255 120.29 389.315 119.769C387.148 119.185 374.694 115.325 372.601 115.271C370.508 115.216 362.439 113.336 360.374 112.635C358.31 111.934 352.868 111.632 351.213 111.841C349.558 112.05 343.157 112.071 340.173 114.248C337.785 115.989 337.089 120.265 337.29 121.676C341.574 129.199 346.853 135.833 376.494 145.83C406.135 155.828 419.249 147.826 419.633 147.525C420.017 147.224 421.795 141.742 422.201 140.235C422.607 138.727 419.544 133.963 418.131 133.582C417.281 133.354 415.184 132.058 413.069 130.841" stroke="white" stroke-linecap="round"/>
<path d="M369.432 122.976C369.632 123.324 370.253 123.749 371.134 122.662C372.234 121.304 374.501 118.753 374.712 117.56" stroke="white" stroke-linecap="round"/>
<path d="M365.906 114.088C366.398 114.306 367.324 115.021 367.083 116.132C366.783 117.522 365.912 120.485 365.718 121.205C365.524 121.925 365.632 126.034 365.596 126.576" stroke="white" stroke-linecap="round"/>
<path d="M379.076 135.527C376.336 135.226 375.955 138.733 373.612 138.821" stroke="white" stroke-linecap="round"/>
<path d="M355.053 125.493C354.195 124.716 353.297 125.391 352.961 126.777C352.624 128.163 352.519 130.034 352.509 130.797" stroke="white" stroke-linecap="round"/>
<path d="M351.233 111.851C351.89 111.782 354.313 112.271 354.806 113.288C355.422 114.559 357.272 121.722 356.791 123.509" stroke="white" stroke-linecap="round"/>
<path d="M344.746 114.489C343.981 114.76 342.479 115.524 342.584 116.41C342.715 117.518 345.236 121.7 348.321 122.458C350.789 123.065 353.659 124.586 354.785 125.27C355.758 125.938 355.898 126.928 357.178 127.272C358.778 127.703 376.594 135.357 378.084 135.401C379.574 135.444 380.351 136.011 382.484 136.585C384.618 137.159 391.208 137.645 393.238 138.335C394.664 138.819 398.688 139.861 401.121 140.483M417.631 136.963C418.292 137.427 418.554 139.642 418.357 140.375C418.159 141.109 415.588 141.632 414.39 142.096C413.653 142.382 409.694 141.937 406.653 141.524" stroke="white" stroke-linecap="round"/>
<path d="M415.542 156.478C414.763 157.017 410.361 158.995 401.437 158.6M412.347 162.688C410.834 164.009 406.096 165.896 398.824 166.133M394.535 157.957C389.241 157.315 382.703 156.127 374.686 154.104C351.435 148.236 338.986 137.289 335.694 132.771C335.152 134.971 334.04 140.117 333.865 141.023C333.645 142.155 344.324 155.683 373.771 162.942C380.415 164.579 386.111 165.489 390.928 165.897" stroke="white" stroke-linecap="round"/>
<path d="M357.099 127.251C356.613 127.12 355.808 127.621 355.803 129.127" stroke="white" stroke-linecap="round"/>
<path d="M346.904 133.144C346.188 134.247 344.851 137.037 344.848 140.785" stroke="white" stroke-linecap="round"/>
<path d="M353.419 156.276C352.703 157.378 349.716 165.757 350.385 169.996" stroke="white" stroke-linecap="round"/>
<path d="M338.69 163.669C337.974 164.771 335.636 171.282 335.633 175.03" stroke="white" stroke-linecap="round"/>
<path d="M349.942 134.867C349.226 135.97 347.794 139.112 347.791 142.86" stroke="white" stroke-linecap="round"/>
<path d="M356.872 157.918C356.156 159.021 353.742 167.645 353.74 171.393" stroke="white" stroke-linecap="round"/>
<path d="M336.544 144.987C335.828 146.09 333.753 154.476 333.75 158.224" stroke="white" stroke-linecap="round"/>
<path d="M341.725 165.403C341.009 166.505 338.506 173.626 338.504 177.374" stroke="white" stroke-linecap="round"/>
<path d="M377.666 146.383C377.732 147.696 376.875 150.361 375.61 154.027" stroke="white" stroke-linecap="round"/>
<path d="M369.581 177.515C369.647 178.828 367.74 185.393 366.475 189.059" stroke="white" stroke-linecap="round"/>
<path d="M374.381 145.499C373.666 146.602 372.309 149.747 372.022 153.301" stroke="white" stroke-linecap="round"/>
<path d="M365.221 175.919C364.505 177.021 362.194 184.681 361.906 188.235" stroke="white" stroke-linecap="round"/>
<path d="M331.815 156.219C334.608 160.128 345.456 171.012 368 176.398C390.543 181.784 402.38 178.851 405.2 177.546" stroke="white" stroke-linecap="round"/>
<path d="M304.177 240.074C312.153 260.793 307.705 280.983 307.214 281.934C306.724 282.885 296.057 298.888 293.313 299.536C291.119 300.055 273.214 299.143 264.536 298.622C247.27 287.905 241.796 264.004 242.193 262.402C242.405 261.544 244.118 259.348 245.765 257.398" stroke="white" stroke-linecap="round"/>
<path d="M242.399 262.337C244.475 262.382 247.043 262.433 250.178 262.401M301.837 241.971C297.413 246.669 288.06 255.666 283.24 260.232C278.247 261.069 271.457 261.613 264.669 261.945" stroke="white" stroke-linecap="round"/>
<path d="M251.549 256.283C251.153 256.721 250.479 257.668 250.943 257.948C251.032 258.002 251.702 258.048 252.784 258.084M281.288 256.172C280.763 256.733 280.225 257.111 280.021 257.23C278.64 257.671 273.824 257.93 268.497 258.06" stroke="white" stroke-linecap="round"/>
<path d="M258.835 264.012C265.5 263.172 268.576 258.476 269.281 256.352C270.872 256.185 272.812 255.423 274.799 254.279C277.476 256.25 284.507 256.748 286.812 255.889C289.118 255.031 292.538 250.99 292.618 249.572C292.682 248.438 292.233 247.811 292.001 247.64C294.719 246.609 298.212 244.203 299.619 243.129C307.532 239.787 311.69 227.576 310.496 227.383C309.541 227.228 304.502 229.487 302.102 230.637C303.992 228.311 303.331 224.053 302.765 222.215C301.924 223.032 293.817 226.98 291.306 229.443C291.504 228.175 290.819 226.082 290.452 225.195C290.706 223.368 291.018 219.123 290.236 216.761C289.453 214.399 286.693 212.594 285.411 211.987C282.35 212.964 277.315 219.98 276.792 219.44C276.206 218.833 275.129 218.103 275.083 218.297C275.037 218.491 273.376 220.816 273.229 220.468C273.082 220.12 271.273 217.827 270.398 216.994C269.697 216.328 266.371 214.01 264.796 212.934C264.638 213.224 264.191 214.118 263.673 215.374C263.156 216.63 262.111 220.369 261.653 222.082C261.111 221.824 256.798 221.109 254.708 220.783C253.845 221.317 252.35 223.509 251.71 224.539C250.402 223.32 247.335 222 245.965 221.493C244.235 224.973 246.254 231.351 247.48 234.105C244.707 232.837 240.339 232.976 239.773 233.229C239.208 233.481 240.057 234.681 239.095 234.701C238.325 234.717 237.159 234.985 236.672 235.118C237.057 240.009 249.116 244.555 249.293 245.424C249.692 247.391 253.014 247.597 252.376 247.925C251.738 248.252 236.97 248.271 236.278 248.43C235.725 248.557 236.939 249.725 237.616 250.293L230.481 252.571C229.526 252.876 234.048 256.571 241.294 257.353C247.09 257.979 255.189 255.435 258.514 254.085C255.496 256.204 249.445 260.509 249.382 260.776C249.303 261.111 250.503 265.062 258.835 264.012Z" stroke="white" stroke-linecap="round" stroke-linejoin="round"/>
<path d="M283.552 260.721C287.039 269.018 293.971 288.281 293.801 298.956" stroke="white" stroke-linecap="round"/>
<path d="M261.67 222.045C261.326 222.874 260.566 224.905 260.525 225.837" stroke="white" stroke-linecap="round"/>
<path d="M282.026 248.834C284.393 248.744 289.695 248.381 291.963 247.657" stroke="white" stroke-linecap="round"/>
<path d="M294.203 240.055C296.757 238.938 302.068 236.633 302.879 236.344C303.893 235.983 302.076 241.04 299.543 243.148" stroke="white" stroke-linecap="round"/>
<path d="M291.603 236.527C293.896 234.954 299.013 232.134 302.207 230.583" stroke="white" stroke-linecap="round"/>
<path d="M282.668 231.052C285.89 226.498 286.05 223.397 287.291 221.176C288.087 221.792 289.692 223.328 290.485 225.246" stroke="white" stroke-linecap="round" stroke-linejoin="round"/>
<path d="M271.857 247.007C271.933 247.913 277.825 246.906 280.761 246.29C285.674 244.722 288.469 240.575 288.415 239.263C288.362 237.952 281.957 238.07 280.92 238.567C279.883 239.064 271.761 245.875 271.857 247.007Z" stroke="white" stroke-linecap="round"/>
<path d="M276.837 219.485C278.188 221.386 280.889 226.225 280.887 230.376C280.885 234.526 278.983 238.362 278.032 239.761" stroke="white" stroke-linecap="round"/>
<path d="M273.499 220.394C271.866 222.528 270.137 225.164 269.99 227.908" stroke="white" stroke-linecap="round"/>
<path d="M261.023 234.4C260.594 231.782 261.95 229.328 262.786 227.334C264.056 227.997 265.298 227.707 266.568 228.43" stroke="white" stroke-linecap="round" stroke-linejoin="round"/>
<path d="M251.749 224.584C252.997 225.677 255.655 228.154 256.306 229.317" stroke="white" stroke-linecap="round"/>
<path d="M252.399 242.239C251.231 241.185 248.764 238.212 248.236 234.749C247.576 230.42 248.582 228.593 248.833 228.409C249.084 228.226 252.267 229.995 253.753 231.52C255.239 233.045 260.816 240.62 261.776 240.873" stroke="white" stroke-linecap="round"/>
<path d="M263.712 245.033C262.697 242.068 261.896 235.005 266.819 230.469C268.907 230.611 273.468 231.712 275.012 234.986C276.556 238.26 277.218 240.306 277.356 240.92" stroke="white" stroke-linecap="round"/>
<path d="M239.162 234.705C241.658 234.785 245.162 236.165 248.915 237.815" stroke="white" stroke-linecap="round"/>
<path d="M252.306 247.715C254.058 248.511 258.537 250.174 261.732 249.996" stroke="white" stroke-linecap="round"/>
<path d="M249.273 245.338C249.124 244.453 249.363 243.332 252.343 242.504C256.068 241.469 262.09 245.861 265.222 246.504C267.727 247.018 269.503 248.285 270.079 248.855" stroke="white" stroke-linecap="round"/>
<path d="M237.684 250.372C240.717 251.884 247.891 254.799 252.319 254.367" stroke="white" stroke-linecap="round"/>
<path d="M269.228 256.285C266.988 256.194 262.379 255.685 261.869 254.381C261.359 253.076 263.684 251.551 264.911 250.951" stroke="white" stroke-linecap="round"/>
<path d="M274.9 254.124C276.121 253.305 278.425 251.305 277.87 249.859C277.315 248.412 273.71 248.767 271.977 249.125" stroke="white" stroke-linecap="round"/>
<path d="M290.341 233.236C290.978 232.05 291.228 230.538 291.293 229.54" stroke="white" stroke-linecap="round"/>
<path d="M222.284 338.588C222.793 329.346 226.256 311.268 236.034 312.89C248.258 314.917 248.947 327.171 249.565 336.484M245.52 336.202C245.327 335.263 244.842 317.42 236.366 316.782C229.585 316.272 227.077 329.72 226.66 336.86" stroke="white" stroke-linecap="round"/>
<path d="M303.878 364.942C303.828 365.248 303.572 366.564 301.517 372.276M218.601 357.967C216.763 355.857 217.468 350.718 219.098 346.703M217.722 367.133C216.46 370.874 215.048 377.733 217.101 381.907C216.73 388.855 215.471 391.739 216.531 393.574C217.39 395.059 219.341 397.597 222.809 400.319C223.754 401.062 224.812 401.817 225.991 402.569C231.849 406.305 240.699 409.945 253.591 411.333C273.596 413.487 279.85 411.66 287.091 408.869C290.426 406.777 290.463 401.064 292.419 395.903C294.938 394.271 296.496 389.215 297.365 385.366" stroke="white" stroke-linecap="round"/>
<path d="M290.283 346.63C285.651 345.084 272.844 340.268 270.863 339.94C268.649 339.573 255.876 336.956 253.788 337.108C251.7 337.26 243.484 336.182 241.361 335.688C239.238 335.193 233.792 335.428 232.166 335.799C230.539 336.17 224.171 336.821 221.416 339.28C219.211 341.248 218.939 345.572 219.278 346.956C224.281 354.021 230.187 360.104 260.668 367.137C291.148 374.169 303.412 364.916 303.764 364.579C304.117 364.242 305.347 358.611 305.603 357.071C305.858 355.531 302.342 351.091 300.898 350.852C300.03 350.708 297.815 349.625 295.59 348.621" stroke="white" stroke-linecap="round"/>
<path d="M267.73 349.281C267.337 350.906 267.785 352.399 268.33 353.307C268.729 353.973 271.903 349.523 272.201 348.468" stroke="white" stroke-linecap="round"/>
<path d="M276.305 353.31C277.104 351.761 278.202 349.324 278.337 347.135C278.421 345.771 279.068 345.047 279.814 344.948" stroke="white" stroke-linecap="round"/>
<path d="M261.222 342.469C260.765 344.811 259.928 350.105 260.229 352.542" stroke="white" stroke-linecap="round"/>
<path d="M251.392 345.088C251.625 345.414 252.285 345.776 253.054 344.608C254.016 343.148 256.021 340.387 256.113 339.179" stroke="white" stroke-linecap="round"/>
<path d="M247.008 336.589C247.52 336.758 248.511 337.378 248.381 338.508C248.219 339.92 247.644 342.955 247.522 343.691C247.4 344.426 247.911 348.504 247.929 349.047" stroke="white" stroke-linecap="round"/>
<path d="M237.33 349.007C236.4 348.318 235.573 349.078 235.374 350.49C235.175 351.903 235.255 353.776 235.32 354.535" stroke="white" stroke-linecap="round"/>
<path d="M232.186 335.806C232.834 335.673 235.293 335.921 235.883 336.885C236.621 338.089 239.167 345.036 238.864 346.861" stroke="white" stroke-linecap="round"/>
<path d="M225.99 339.071C225.257 339.415 223.837 340.323 224.028 341.195C224.268 342.284 227.188 346.197 230.332 346.649C232.848 347.01 235.854 348.241 237.042 348.811C238.076 349.38 238.312 350.352 239.62 350.569C241.255 350.84 259.738 356.704 261.224 356.601C262.711 356.497 263.54 356.985 265.72 357.346C267.899 357.708 274.505 357.543 276.594 358.03C278.06 358.371 282.167 359.012 284.649 359.392M300.733 354.264C301.437 354.661 301.915 356.84 301.791 357.589C301.667 358.338 299.159 359.112 298.013 359.692C297.307 360.049 293.324 359.995 290.257 359.883" stroke="white" stroke-linecap="round"/>
<path d="M281.165 376.449C281.853 370.766 284.256 357.501 288.367 349.903C293.505 340.405 302.812 330.835 310.505 333.553C318.199 336.271 316.006 346.427 314.963 349.647C313.92 352.868 306.32 363.908 305.731 366.95C305.499 368.148 305.141 369.513 304.787 370.74M286.423 377.562C286.562 373.145 288.198 362.176 293.638 351.88C300.438 339.01 306.891 338.977 308.625 339.264C310.359 339.552 311.352 342.261 311.368 344.724C311.383 347.187 308.514 354.771 306.288 358.983C305.79 359.926 304.478 363.152 303.886 364.928" stroke="white" stroke-linecap="round"/>
<path d="M156.531 320.673C150.925 319.793 146.613 319.297 146.769 321.859C146.922 324.377 148.238 328.514 145.901 330.662C143.398 332.961 133.57 332.881 130.549 344.008C127.578 354.953 135.466 372.516 138.864 380.955C142.336 382.193 151.113 384.289 158.69 383.829C165.11 377.628 177.984 362.482 178.119 351.511C178.287 337.798 168.06 337.539 167.301 333.455C166.542 329.371 169.936 326.342 169.485 324.74C169.128 323.475 166.692 322.365 160.425 321.298" stroke="white" stroke-linejoin="round"/>
<path d="M145.386 335.487C147.994 337.015 155.885 339.824 166.588 338.831" stroke="white" stroke-linecap="round"/>
<path d="M137.213 340.446C135.782 341.713 132.995 345.468 133.299 350.352C133.604 355.236 135.137 362.36 135.866 365.311" stroke="white" stroke-linecap="round"/>
<path d="M148.699 322.338C152.445 323.321 161.445 325.29 167.483 325.301" stroke="white" stroke-linecap="round"/>
<path d="M161.655 317.862L161.271 318.902L160.174 321.873C159.914 322.462 156.731 321.915 156.642 321.316L156.216 317.004" stroke="white"/>
<path d="M116.493 309.323C126.061 295.238 143.068 270.19 146.157 265.72M199.272 322.7L183.765 271.641" stroke="white" stroke-linecap="round"/>
<path d="M145.596 265.597C144.348 265.4 144.412 263.533 147.203 263.516C149.995 263.5 158.258 263.636 165.447 264.77C169.993 265.487 181.238 268.488 183.382 269.223C186.344 270.238 185.134 271.834 184.079 271.667C183.024 271.501 172.079 268.499 165.034 267.388C157.688 266.229 146.844 265.794 145.596 265.597Z" stroke="white" stroke-linecap="round"/>
<path d="M114.705 312.039C113.908 311.718 114.066 309.647 115.125 309.376C116.094 309.129 146.338 312.23 159.099 314.243C171.407 316.184 199.23 322.684 200.337 323.066C201.231 323.374 200.956 325.842 199.083 325.349C197.551 324.945 169.896 319.134 158.609 317.354C147.321 315.573 115.492 312.356 114.705 312.039Z" stroke="white" stroke-linecap="round"/>
<path d="M30.8959 308.09C27.6169 309.482 21.6201 314.082 21.9962 322.314C22.4787 332.874 47.3716 392.728 49.1293 395.105C50.8871 397.483 54.0656 403.601 75.0206 395.329C96.0634 387.023 94.6453 381.235 93.3445 375.605C92.0437 369.974 71.5267 313.261 65.6095 305.935C60.1176 299.135 53.7673 299.126 49.2592 300.84" stroke="white" stroke-linecap="round"/>
<path d="M32.5901 293.661C29.9176 294.941 27.3091 296.588 27.112 297.718C26.8821 299.037 31.7317 309.944 31.8161 310.157C33.6049 310.097 38.2167 309.485 42.3531 307.523C46.4895 305.56 49.1951 303.668 50.0309 302.968C48.5826 299.09 45.5001 291.218 44.7564 290.753C43.9999 290.281 40.6797 290.848 37.6985 291.707" stroke="white" stroke-linecap="round" stroke-linejoin="round"/>
<path d="M28.8408 298.131C29.8232 298.046 32.8546 297.445 37.1208 295.728C41.387 294.011 43.5255 292.61 44.0614 292.123" stroke="white" stroke-linecap="round"/>
<path d="M27.1391 314.007C29.0069 314.855 34.6803 314.307 43.2124 310.939C51.627 307.618 55.3377 304.074 55.8054 302.268" stroke="white" stroke-linecap="round"/>
<path d="M30.3304 348.62C33.7022 348.569 43.9713 347.818 56.3243 342.88C68.6773 337.941 74.8805 331.869 76.7208 329.477" stroke="white" stroke-linecap="round"/>
<path d="M32.6825 354.405C36.0543 354.354 46.2601 353.617 58.6131 348.678C70.966 343.739 77.1692 337.667 79.0096 335.276" stroke="white" stroke-linecap="round"/>
<path d="M35.1759 360.135C38.5477 360.084 48.6613 359.371 61.0143 354.432C73.3673 349.493 79.4504 343.597 81.2907 341.205" stroke="white" stroke-linecap="round"/>
<path d="M37.7516 365.91C41.1234 365.86 50.9504 365.169 63.3033 360.231C75.6563 355.292 81.5433 349.693 83.3836 347.301" stroke="white" stroke-linecap="round"/>
<path d="M19.348 278.231C16.451 279.427 10.9791 281.69 9.82252 282.186C8.31849 282.829 2.41384 286.642 2.01353 286.901C1.61321 287.159 2.45728 289.488 2.96569 289.313C3.4741 289.137 9.98489 285.588 10.9977 285.163C11.7783 284.835 17.5123 282.582 20.5894 281.376" stroke="white" stroke-linecap="round"/>
<path d="M18.998 277.193L22.234 285.391C24.898 285.399 34.5296 281.821 38.8196 278.845C37.803 276.477 35.6764 271.489 35.3028 270.48C34.8358 269.219 33.7505 269.586 33.1918 269.807C32.6331 270.027 20.6239 274.583 19.6493 275.153C18.6747 275.722 18.7774 276.634 18.998 277.193Z" stroke="white" stroke-linecap="round" stroke-linejoin="round"/>
<path d="M32.8163 294.978C32.8738 293.268 31.505 289.146 28.9221 283.636" stroke="white" stroke-linecap="round"/>
<path d="M38.5023 292.795C37.2924 291.585 35.3116 287.666 33.4348 281.878" stroke="white" stroke-linecap="round"/>
<path d="M255.768 -34.0896C263.919 -38.2674 270.225 -49.5428 272.36 -54.6583C273.807 -57.7526 282.679 -48.9954 288.922 -38.7657C295.164 -28.5359 297.81 -20.3127 296.248 -19.2215C294.686 -18.1304 278.554 -15.8998 270.329 -10.67C262.103 -5.44015 260.325 12.7164 245.227 23.2641C230.128 33.8117 207.321 36.4214 206.913 36.2545C206.194 35.9605 198.966 31.1434 194.285 23.9297C189.604 16.7159 188.383 12.9847 188.042 9.24181C187.702 5.49893 203.904 -16.0705 214.712 -22.8199C228.647 -31.5217 245.579 -28.8673 255.768 -34.0896Z" stroke="white" stroke-linecap="round"/>
<path d="M221.739 27.8744C226.961 27.2188 239.066 24.2692 245.707 17.7152" stroke="white" stroke-linecap="round"/>
<path d="M212.022 -16.3901C207.565 -11.8985 198.448 -1.78323 197.644 2.74515" stroke="white" stroke-linecap="round"/>
<path d="M196.462 9.07286C197.05 6.69869 199.511 3.78852 204.412 10.8029C210.596 19.6556 214.955 28.118 212.247 28.849C208.27 29.9225 204.414 23.7729 201.78 20.6488" stroke="white" stroke-linecap="round"/>
<path d="M201.287 12.9857C201.371 12.5139 202.213 12.6025 204.911 16.7308" stroke="white" stroke-linecap="round"/>
<path d="M191.912 6.88673C193.808 12.4845 200.286 25.2622 210.037 32.8318" stroke="white" stroke-linecap="round"/>
</svg>
