<svg width="425" height="111" viewBox="0 0 425 111" fill="none" xmlns="http://www.w3.org/2000/svg">
<g clip-path="url(#clip0_2006_5564)">
<path d="M113.702 27.4192C115.673 19.7407 121.6 5.13235 129.544 8.12702C139.473 11.8704 138.006 22.2798 136.971 30.2061M133.62 29.2941C133.614 28.473 136.186 13.4033 129.172 11.4522C123.561 9.89126 119.21 20.7694 117.668 26.6984" stroke="white" stroke-linecap="round"/>
<path d="M177.845 63.1782C177.751 63.4274 177.317 64.4896 174.637 68.9452M107.373 43.082C106.182 41.003 107.632 36.8038 109.672 33.703M105.105 50.6352C103.421 53.567 101.089 59.0933 102.117 62.9421C100.646 68.7168 99.106 70.9289 99.6906 72.6475C100.164 74.0384 101.379 76.4962 103.838 79.3621C104.508 80.1434 105.271 80.955 106.136 81.7836C110.433 85.8997 117.259 90.435 127.857 93.7532C144.302 98.9024 149.86 98.4116 156.409 97.276C159.56 96.0757 160.545 91.2826 163.05 87.2737C165.438 86.3236 167.591 82.3359 168.964 79.2477" stroke="white" stroke-linecap="round"/>
<path d="M169.481 45.5264C165.848 43.4548 155.894 37.2712 154.285 36.6643C152.486 35.9864 142.193 31.6563 140.414 31.4351C138.634 31.2139 131.913 28.937 130.212 28.1672C128.511 27.3974 123.897 26.6859 122.469 26.7256C121.041 26.7653 115.583 26.2493 112.858 27.8555C110.677 29.1404 109.726 32.7267 109.781 33.9462C112.804 40.716 116.749 46.8122 141.18 57.8084C165.611 68.8047 177.457 63.0794 177.809 62.8551C178.162 62.6308 180.135 58.1061 180.607 56.8551C181.079 55.604 178.866 51.2872 177.693 50.8451C176.988 50.5791 175.308 49.2999 173.607 48.0853" stroke="white" stroke-linecap="round"/>
<path d="M171.954 76.5114C171.197 77.5546 169.54 79.5559 168.976 79.2156C168.411 78.8753 168.322 78.6123 168.348 78.5234L170.614 75.6321" stroke="white" stroke-linecap="round"/>
<path d="M150.093 43.9879C149.492 45.2881 149.62 46.6166 149.925 47.4708C150.15 48.0967 153.559 44.8883 153.985 44.0516" stroke="white" stroke-linecap="round"/>
<path d="M156.624 48.8032C157.554 47.6356 158.883 45.7714 159.362 43.9559C159.661 42.824 160.325 42.3239 160.968 42.3651" stroke="white" stroke-linecap="round"/>
<path d="M145.763 37.1788C144.989 39.0703 143.402 43.3775 143.248 45.4743" stroke="white" stroke-linecap="round"/>
<path d="M137.069 37.7382C137.211 38.0515 137.704 38.4651 138.546 37.6127C139.597 36.5471 141.743 34.5619 142.022 33.5625" stroke="white" stroke-linecap="round"/>
<path d="M134.806 29.8672C135.207 30.0944 135.936 30.7808 135.639 31.7082C135.267 32.8675 134.277 35.3208 134.051 35.9182C133.826 36.5155 133.575 40.0269 133.499 40.4857" stroke="white" stroke-linecap="round"/>
<path d="M144.242 49.2408C141.931 48.756 141.313 51.7133 139.309 51.5922" stroke="white" stroke-linecap="round"/>
<path d="M124.603 38.6832C123.936 37.9494 123.115 38.4493 122.712 39.6026C122.309 40.7558 122.063 42.3425 121.991 42.9916" stroke="white" stroke-linecap="round"/>
<path d="M122.485 26.7356C123.051 26.7318 125.076 27.3505 125.411 28.2584C125.83 29.3934 126.808 35.6541 126.249 37.1369" stroke="white" stroke-linecap="round"/>
<path d="M116.735 28.4426C116.062 28.6098 114.718 29.1353 114.733 29.8994C114.752 30.8545 116.552 34.6294 119.118 35.5336C121.17 36.2569 123.49 37.7928 124.393 38.4703C125.167 39.1206 125.203 39.9762 126.265 40.3767C127.593 40.8773 142.14 48.8893 143.407 49.0507C144.673 49.2121 145.288 49.7599 147.058 50.4274C148.829 51.0949 154.405 52.0597 156.079 52.8169C157.254 53.3486 160.596 54.5729 162.618 55.3059M176.985 53.684C177.51 54.1347 177.548 56.0449 177.319 56.6535C177.089 57.2622 174.854 57.4936 173.794 57.7893C173.142 57.9715 169.805 57.2615 167.247 56.6551" stroke="white" stroke-linecap="round"/>
<path d="M173.575 70.1438C172.866 70.5386 168.949 71.857 161.375 70.7754M170.333 75.1706C168.933 76.1701 164.737 77.3828 158.519 76.9782M155.545 69.6505C151.087 68.6617 145.613 67.1026 138.948 64.7088C119.62 57.7661 109.922 47.3957 107.493 43.2695C106.848 45.0995 105.471 49.3929 105.245 50.1505C104.963 51.0975 112.936 63.5202 137.431 72.1656C142.957 74.1161 147.736 75.3673 151.808 76.1174" stroke="white" stroke-linecap="round"/>
<path d="M156.844 69.0532C158.37 64.3941 162.604 53.6519 167.325 47.9554C173.227 40.8347 182.643 34.3494 188.652 37.917C194.661 41.4846 191.123 49.6497 189.709 52.1808C188.296 54.712 180.068 62.7178 179.066 65.1742C178.671 66.1419 178.143 67.2291 177.64 68.2009M161.075 70.8655C161.929 67.1784 165.135 58.237 171.423 50.4962C179.284 40.8202 184.711 41.8699 186.119 42.4009C187.527 42.9319 187.909 45.3739 187.511 47.4454C187.113 49.5169 183.437 55.4082 180.864 58.5749C180.288 59.2843 178.647 61.7754 177.854 63.1683" stroke="white" stroke-linecap="round"/>
<path d="M152.194 77.9129C151.677 78.5153 150.671 80.1068 151.108 80.7934C151.654 81.6516 154.357 83.0184 154.907 81.7906C155.347 80.8084 155.636 79.932 155.716 79.6432" stroke="white" stroke-linecap="round" stroke-linejoin="round"/>
<path d="M151.499 77.0597C151.528 76.5379 154.08 72.1351 155.352 69.9989C156.844 68.4591 160.308 70.8862 161.228 71.2331C162.148 71.5801 157.716 78.5976 156.525 79.3398C155.335 80.0821 151.464 77.7118 151.499 77.0597Z" stroke="white" stroke-linecap="round"/>
<path d="M177.7 68.2214C177.287 67.8654 175.568 68.5187 174.759 68.8899C174.268 69.3111 173.284 70.7435 172.169 72.2762C171.129 73.7046 170.243 75.1119 170.551 75.4591C171.191 76.1787 172.369 76.2581 172.978 76.2143C173.587 76.1704 177.205 71.2244 177.614 70.262C178.022 69.2997 178.215 68.6664 177.7 68.2214Z" stroke="white" stroke-linecap="round"/>
<path d="M126.2 40.3523C125.796 40.2004 125.069 40.5594 124.938 41.8434" stroke="white" stroke-linecap="round"/>
<path d="M117.018 44.5233C116.315 45.4035 114.942 47.67 114.627 50.8646" stroke="white" stroke-linecap="round"/>
<path d="M120.639 64.7846C119.937 65.6648 116.691 72.5569 116.908 76.2265" stroke="white" stroke-linecap="round"/>
<path d="M107.467 69.8564C106.765 70.7365 104.228 76.0904 103.913 79.2849" stroke="white" stroke-linecap="round"/>
<path d="M147.375 75.5694C147.322 76.6941 145.208 83.6772 143.336 86.2849" stroke="white" stroke-linecap="round"/>
<path d="M171.356 64.6085C171.302 65.7332 170.781 68.4918 168.909 71.0995" stroke="white" stroke-linecap="round"/>
<path d="M155.817 88.3103C155.764 89.435 154.571 95.1653 152.699 97.773" stroke="white" stroke-linecap="round"/>
<path d="M119.463 46.246C118.761 47.1262 117.278 49.6851 116.963 52.8797" stroke="white" stroke-linecap="round"/>
<path d="M123.445 66.4728C122.743 67.3529 119.966 74.5022 119.65 77.6968" stroke="white" stroke-linecap="round"/>
<path d="M107.198 53.7539C106.495 54.634 104.026 61.6086 103.711 64.8032" stroke="white" stroke-linecap="round"/>
<path d="M109.91 71.5878C109.208 72.468 106.48 78.3287 106.164 81.5232" stroke="white" stroke-linecap="round"/>
<path d="M143.546 74.4522C143.492 75.5769 141.239 82.9282 139.367 85.5359" stroke="white" stroke-linecap="round"/>
<path d="M166.644 76.9946C166.59 78.1193 163.838 84.4381 160.783 87.584" stroke="white" stroke-linecap="round"/>
<path d="M168.273 64.5762C168.22 65.7009 167.753 68.3136 165.881 70.9213" stroke="white" stroke-linecap="round"/>
<path d="M152.934 88.0421C152.88 89.1668 151.039 95.4263 149.167 98.0339" stroke="white" stroke-linecap="round"/>
<path d="M142.133 58.377C142.08 59.5017 141.126 61.7014 139.742 64.7206" stroke="white" stroke-linecap="round"/>
<path d="M132.642 84.2383C132.589 85.363 130.415 90.7993 129.031 93.8185" stroke="white" stroke-linecap="round"/>
<path d="M139.407 57.35C138.705 58.2301 137.287 60.797 136.745 63.8026" stroke="white" stroke-linecap="round"/>
<path d="M129.059 82.5131C128.356 83.3933 125.747 89.7295 125.205 92.735" stroke="white" stroke-linecap="round"/>
<path d="M102.229 62.9326C104.284 66.4974 112.622 76.6803 131.388 83.1539C150.153 89.6275 160.488 88.1154 163.001 87.2383" stroke="white" stroke-linecap="round"/>
<path d="M290.386 55.4658C297.217 73.2107 293.408 90.5031 292.987 91.3177C292.567 92.1323 283.432 105.837 281.082 106.393C279.202 106.838 263.868 106.056 256.435 105.61C241.647 96.4316 236.959 75.9614 237.299 74.5894C237.481 73.8542 238.948 71.9732 240.359 70.3038" stroke="white" stroke-linecap="round"/>
<path d="M237.475 74.5329C239.253 74.5718 241.453 74.6153 244.138 74.5876M288.382 57.0905C284.592 61.1141 276.582 68.8198 272.454 72.7301C268.178 73.4467 262.363 73.9132 256.549 74.1971" stroke="white" stroke-linecap="round"/>
<path d="M245.312 69.3475C244.974 69.723 244.396 70.534 244.793 70.7738C244.87 70.82 245.444 70.8599 246.37 70.8907M270.783 69.2528C270.333 69.7335 269.872 70.0574 269.698 70.1592C268.515 70.5368 264.39 70.7586 259.828 70.8699" stroke="white" stroke-linecap="round"/>
<path d="M251.552 75.9678C257.261 75.2483 259.895 71.2263 260.499 69.4076C261.861 69.2641 263.523 68.6122 265.226 67.6317C267.518 69.3199 273.539 69.747 275.514 69.0114C277.489 68.2757 280.418 64.8154 280.486 63.6011C280.541 62.6297 280.157 62.0929 279.958 61.9459C282.285 61.0627 285.277 59.0025 286.482 58.0828C293.259 55.2203 296.82 44.762 295.798 44.5963C294.981 44.4638 290.665 46.3991 288.609 47.3833C290.228 45.3918 289.662 41.7447 289.177 40.1702C288.457 40.87 281.513 44.2515 279.363 46.3612C279.532 45.2746 278.946 43.4829 278.632 42.7228C278.849 41.158 279.116 37.5225 278.446 35.4995C277.776 33.4764 275.412 31.9305 274.314 31.4104C271.692 32.2472 267.38 38.2567 266.932 37.7935C266.43 37.2736 265.508 36.649 265.468 36.8152C265.429 36.9813 264.006 38.9721 263.88 38.6742C263.754 38.3764 262.206 36.4125 261.456 35.6993C260.856 35.1288 258.007 33.1434 256.658 32.2221C256.522 32.4703 256.14 33.2357 255.697 34.3113C255.253 35.3869 254.358 38.5898 253.966 40.0568C253.502 39.8361 249.808 39.223 248.018 38.944C247.279 39.4012 245.998 41.279 245.45 42.1607C244.33 41.117 241.704 39.9868 240.53 39.5521C239.048 42.5327 240.778 47.9952 241.828 50.3539C239.453 49.2682 235.711 49.3871 235.227 49.6032C234.743 49.8192 235.47 50.8468 234.646 50.8641C233.987 50.8779 232.988 51.1078 232.571 51.221C232.901 55.4105 243.229 59.3039 243.38 60.0481C243.722 61.7329 246.568 61.9092 246.021 62.1897C245.474 62.4703 232.827 62.4862 232.234 62.6224C231.76 62.7314 232.8 63.7319 233.38 64.2185L227.268 66.1693C226.45 66.4304 230.324 69.5948 236.529 70.265C241.494 70.8012 248.43 68.6224 251.277 67.466C248.693 69.2807 243.511 72.9675 243.457 73.1968C243.389 73.4835 244.416 76.8672 251.552 75.9678Z" stroke="white" stroke-linecap="round" stroke-linejoin="round"/>
<path d="M272.722 73.1493C275.708 80.2553 281.645 96.7532 281.5 105.896" stroke="white" stroke-linecap="round"/>
<path d="M253.981 40.025C253.686 40.7349 253.035 42.4742 253 43.2721" stroke="white" stroke-linecap="round"/>
<path d="M271.415 62.9688C273.442 62.891 277.983 62.5805 279.925 61.9605" stroke="white" stroke-linecap="round"/>
<path d="M281.843 55.4493C284.031 54.4931 288.58 52.5188 289.274 52.2713C290.143 51.9619 288.587 56.2935 286.418 58.0985" stroke="white" stroke-linecap="round"/>
<path d="M279.617 52.4276C281.581 51.0805 285.963 48.6656 288.698 47.3368" stroke="white" stroke-linecap="round"/>
<path d="M271.965 47.7394C274.724 43.8393 274.861 41.1832 275.924 39.2807C276.606 39.8087 277.98 41.1241 278.659 42.7667" stroke="white" stroke-linecap="round" stroke-linejoin="round"/>
<path d="M262.705 61.4035C262.771 62.1791 267.817 61.3173 270.332 60.7895C274.539 59.4463 276.933 55.8946 276.887 54.7713C276.842 53.6481 271.355 53.7495 270.467 54.1753C269.579 54.601 262.623 60.4341 262.705 61.4035Z" stroke="white" stroke-linecap="round"/>
<path d="M266.971 37.8322C268.127 39.4603 270.441 43.6052 270.439 47.1597C270.437 50.7143 268.808 53.9996 267.994 55.1979" stroke="white" stroke-linecap="round"/>
<path d="M264.112 38.6103C262.713 40.4378 261.233 42.6956 261.107 45.0462" stroke="white" stroke-linecap="round"/>
<path d="M253.426 50.6063C253.059 48.3641 254.221 46.2618 254.937 44.5546C256.024 45.1225 257.088 44.8734 258.176 45.4932" stroke="white" stroke-linecap="round" stroke-linejoin="round"/>
<path d="M245.483 42.1992C246.552 43.1354 248.83 45.257 249.387 46.2533" stroke="white" stroke-linecap="round"/>
<path d="M246.041 57.3201C245.04 56.4175 242.927 53.8709 242.475 50.9049C241.91 47.1974 242.771 45.6325 242.986 45.4755C243.201 45.3185 245.927 46.8338 247.2 48.1396C248.473 49.4453 253.249 55.933 254.072 56.1498" stroke="white" stroke-linecap="round"/>
<path d="M255.73 59.7132C254.86 57.1739 254.174 51.1244 258.391 47.2402C260.179 47.3613 264.085 48.3045 265.408 51.1086C266.73 53.9127 267.297 55.665 267.415 56.1906" stroke="white" stroke-linecap="round"/>
<path d="M234.703 50.8682C236.841 50.9368 239.842 52.1181 243.057 53.5318" stroke="white" stroke-linecap="round"/>
<path d="M245.96 62.0107C247.461 62.6921 251.297 64.1163 254.034 63.9637" stroke="white" stroke-linecap="round"/>
<path d="M243.363 59.9742C243.235 59.2161 243.44 58.2561 245.992 57.5469C249.183 56.6604 254.34 60.4218 257.022 60.9726C259.168 61.4132 260.69 62.4985 261.182 62.986" stroke="white" stroke-linecap="round"/>
<path d="M233.438 64.2852C236.036 65.5801 242.18 68.0774 245.972 67.7069" stroke="white" stroke-linecap="round"/>
<path d="M260.454 69.3501C258.535 69.272 254.588 68.8363 254.151 67.719C253.714 66.6017 255.706 65.2952 256.757 64.7816" stroke="white" stroke-linecap="round"/>
<path d="M265.311 67.4991C266.357 66.7975 268.331 65.0847 267.855 63.8461C267.379 62.6075 264.292 62.9111 262.808 63.2178" stroke="white" stroke-linecap="round"/>
<path d="M278.536 49.6097C279.082 48.5942 279.296 47.2995 279.352 46.4446" stroke="white" stroke-linecap="round"/>
<path d="M385.175 41.4639C392.438 38.4999 398.65 29.3437 400.849 25.136C402.312 22.6024 409.236 30.7288 413.809 39.9178C418.381 49.1068 420.033 56.3186 418.62 57.1345C417.206 57.9504 403.277 58.6646 395.873 62.5208C388.469 66.3769 385.613 81.7385 371.953 89.6257C358.292 97.5128 338.638 98.0584 338.303 97.886C337.711 97.5821 331.898 92.9389 328.436 86.4385C324.973 79.9381 324.206 76.6643 324.192 73.4455C324.178 70.2267 339.592 53.0162 349.312 48.0538C361.844 41.6559 376.096 45.1689 385.175 41.4639Z" stroke="white" stroke-linecap="round"/>
<path d="M351.571 91.8276C356.075 91.6532 366.621 90.0286 372.771 84.9258" stroke="white" stroke-linecap="round"/>
<path d="M346.543 53.3418C342.408 56.8458 333.883 64.805 332.864 68.6097" stroke="white" stroke-linecap="round"/>
<path d="M331.388 73.922C332.066 71.9395 334.38 69.6377 338.044 75.9842C342.669 83.9939 345.765 91.5361 343.4 91.9602C339.927 92.583 337.09 87.0514 335.073 84.1916" stroke="white" stroke-linecap="round"/>
<path d="M335.217 77.6165C335.324 77.2202 336.035 77.3578 338.033 81.0793" stroke="white" stroke-linecap="round"/>
<path d="M327.667 71.7207C328.873 76.637 333.458 88.0174 341.22 95.1952" stroke="white" stroke-linecap="round"/>
<path d="M401.229 25.2129C400.771 27.3121 401.331 33.8479 407.237 43.1969C414.619 54.8831 418.048 57.2784 418.684 56.9117" stroke="white" stroke-linecap="round"/>
<path d="M399.484 32.4951C398.279 34.2118 394.939 38.2975 391.221 40.9065" stroke="white" stroke-linecap="round"/>
<path d="M38.3406 24.2127C33.5909 25.2445 29.9943 26.1837 30.9115 28.1807C31.8133 30.1441 34.1454 33.0409 32.9434 35.4794C31.6564 38.0905 23.7834 41.0681 24.815 50.8886C25.8298 60.5494 37.5653 72.1325 42.891 77.8206C46.0466 77.7338 53.7043 76.6911 59.6133 73.9788C62.8204 67.0392 68.4128 50.9593 65.125 42.157C61.0152 31.1542 52.7681 34.1123 50.8978 31.0862C49.0274 28.0601 50.8005 24.5902 49.9443 23.4509C49.2677 22.5505 46.9784 22.4186 41.6438 23.5062" stroke="white" stroke-linejoin="round"/>
<path d="M34.0259 39.4912C36.5814 39.9047 43.7525 39.7053 51.9921 35.5995" stroke="white" stroke-linecap="round"/>
<path d="M43.0933 75.2441C45.7476 75.1289 52.4711 74.3162 58.1305 71.9869" stroke="white" stroke-linecap="round"/>
<path d="M29.0338 45.9815C28.2829 47.4363 27.2198 51.2974 28.9747 55.1037C30.7295 58.9101 34.1588 64.1239 35.6541 66.255" stroke="white" stroke-linecap="round"/>
<path d="M32.6021 27.9658C35.8971 27.5916 43.6937 26.378 48.5191 24.518" stroke="white" stroke-linecap="round"/>
<path d="M41.5629 20.3815L41.578 21.3309L41.6212 24.0426C41.5961 24.5936 38.8849 25.1416 38.6282 24.6909L36.9536 21.3799" stroke="white"/>
<path d="M2.85447 27.541C6.13582 13.3318 11.9644 -11.935 13.0469 -16.4613M73.0998 12.6015L44.9125 -23.3734" stroke="white" stroke-linecap="round"/>
<path d="M2.26766 30.2634C1.53119 30.2538 1.01657 28.5514 1.77889 28.0069C2.47602 27.5092 27.5878 20.6246 38.4016 18.2822C48.8309 16.0231 73.062 12.6021 74.0638 12.5643C74.8729 12.5338 75.4174 14.5893 73.7691 14.7754C72.4205 14.9277 48.5378 18.8465 38.9727 20.9184C29.4075 22.9903 2.99399 30.2729 2.26766 30.2634Z" stroke="white" stroke-linecap="round"/>
<path d="M61.2709 70.421C66.1615 68.8882 77.2049 66.5719 78.036 71.3133C79.0749 77.2401 62.8812 88.7672 65.7378 93.6704C68.5945 98.5736 87.1241 76.978 87.5095 95.6709" stroke="white" stroke-linecap="round"/>
<path d="M279.465 -50.3808C276.657 -49.1887 271.521 -45.2492 271.843 -38.1991C272.256 -29.1543 293.576 22.1074 295.081 24.144C296.587 26.1806 299.309 31.42 317.256 24.3358C335.279 17.2218 334.064 12.2641 332.95 7.44223C331.836 2.62033 314.264 -45.9521 309.196 -52.2271C304.492 -58.0512 299.054 -58.0587 295.193 -56.5907" stroke="white" stroke-linecap="round"/>
<path d="M285.336 -0.861109C288.224 -0.90459 296.641 -1.49597 307.22 -5.72563C317.8 -9.95529 322.842 -14.7509 324.418 -16.7995" stroke="white" stroke-linecap="round"/>
<path d="M286.975 3.93381C289.863 3.89033 298.28 3.29895 308.86 -0.930706C319.439 -5.16036 324.481 -9.95599 326.057 -12.0046" stroke="white" stroke-linecap="round"/>
<path d="M288.834 8.64182C291.722 8.59834 300.139 8.00696 310.718 3.7773C321.298 -0.452356 326.34 -5.24798 327.916 -7.29656" stroke="white" stroke-linecap="round"/>
<path d="M200.052 -58.2361C192.118 -52.5201 184.06 -36.7622 181.788 -33.1859C180.035 -30.4269 163.636 -19.0619 154.795 -13.143M154.163 -9.29419C156.325 -6.83593 162.697 -5.25633 167.874 -4.77805C170.982 -4.49092 172.622 0.431458 182.175 8.56748C192.813 18.9119 197.814 19.0781 200.088 22.7323C203.483 28.1863 207.232 32.7418 209.997 33.7116M204.007 -58.7395C211.661 -56.1073 221.246 -35.7697 226.022 -33.0936C231.023 -30.2907 246.863 -25.1624 251.466 -22.5672M249.319 -12.796C245.857 -7.01088 239.975 0.929265 232.31 9.32991C218.421 24.5508 215.409 24.5777 213.579 31.1766C213.455 31.6257 213.31 32.0145 213.146 32.3467" stroke="white" stroke-linecap="round" stroke-linejoin="round"/>
<path d="M202.388 26.2179C201.359 24.4955 199.129 20.4442 198.444 18.0176" stroke="white" stroke-linecap="round" stroke-linejoin="round"/>
<path d="M213.965 35.2892C214.867 37.9429 216.48 43.3492 215.722 43.7451C214.775 44.2401 214.126 41.2122 213.827 40.6853C213.943 41.5882 213.921 43.5122 212.912 43.9848C211.651 44.5756 211.891 43.3357 210.943 43.8306C209.996 44.3256 209.145 45.1346 208.645 44.3949C208.144 43.6553 210.102 36.125 210.634 35.6194" stroke="white" stroke-linecap="round" stroke-linejoin="round"/>
<path d="M211.257 43.7347C211.506 43.4988 211.954 42.4649 211.763 40.2171" stroke="white" stroke-linecap="round" stroke-linejoin="round"/>
<path d="M214.22 33.4266C214.948 34.1929 213.58 35.4524 212.805 35.9864C212.45 36.2518 210.841 35.6247 210.134 34.8797C209.426 34.1347 210.719 32.2987 211.357 31.692C211.996 31.0853 213.31 32.4688 214.22 33.4266Z" stroke="white" stroke-linecap="round" stroke-linejoin="round"/>
</g>
<defs>
<clipPath id="clip0_2006_5564">
<rect width="425" height="111" fill="white"/>
</clipPath>
</defs>
</svg>
