<svg width="312" height="276" viewBox="0 0 312 276" fill="none" xmlns="http://www.w3.org/2000/svg">
<path d="M250.506 -32.1518C255.587 -23.7965 270.669 -14.5361 274.057 -11.9923C276.671 -10.0299 286.724 7.20519 291.936 16.4805M295.724 17.4101C298.343 15.4464 300.415 9.21633 301.295 4.09239C301.823 1.01635 306.858 -0.234612 315.714 -9.12467C326.856 -18.9252 327.411 -23.8973 331.231 -25.8804C336.933 -28.8403 341.767 -32.2222 342.949 -34.9037M250.312 -36.1339C253.533 -43.56 274.555 -51.5315 277.595 -56.084C280.779 -60.852 287.126 -76.2442 290.072 -80.6308M299.646 -77.7293C305.144 -73.827 312.602 -67.3443 320.38 -59.048C334.472 -44.0161 334.265 -41.0111 340.701 -38.6725C341.139 -38.5133 341.515 -38.3384 341.834 -38.149" stroke="white" stroke-linecap="round" stroke-linejoin="round"/>
<path d="M294.534 19.8172C293.643 22.474 291.648 27.7516 290.805 27.6071C289.752 27.4265 291.071 24.6247 291.153 24.025C290.698 24.813 289.514 26.3301 288.425 26.0943C287.064 25.7996 288.006 24.9586 286.953 24.778C285.9 24.5974 284.732 24.7247 284.783 23.8331C284.833 22.9416 290.955 18.1397 291.685 18.0602" stroke="white" stroke-linecap="round" stroke-linejoin="round"/>
<path d="M287.261 24.892C287.601 24.8549 288.585 24.3047 289.795 22.4007" stroke="white" stroke-linecap="round" stroke-linejoin="round"/>
<path d="M295.867 18.4903C295.981 19.541 294.129 19.7133 293.189 19.668C292.746 19.6637 291.847 18.1899 291.736 17.1683C291.624 16.1467 293.766 15.4704 294.641 15.375C295.517 15.2796 295.724 17.1768 295.867 18.4903Z" stroke="white" stroke-linecap="round" stroke-linejoin="round"/>
<path d="M301.295 4.09226C301.873 1.54321 302.864 -0.962934 301.698 -3.0415" stroke="white" stroke-linecap="round" stroke-linejoin="round"/>
<path d="M290.53 245.355C289.209 255.044 295.082 271.74 296.11 275.85C296.903 279.021 293.846 298.738 292.047 309.225M294.402 312.334C297.673 312.46 303.208 308.928 307.12 305.504C309.469 303.449 314.167 305.651 326.645 304.33C341.472 303.743 345.037 300.232 349.253 301.1C355.545 302.396 361.43 302.816 364.038 301.48M292.889 242.142C300.07 238.406 321.416 245.466 326.645 243.847C332.122 242.152 346.75 234.201 351.802 232.652M357.407 240.939C359.216 247.433 360.921 257.167 361.731 268.51C363.199 289.062 361.144 291.264 364.667 297.137C364.907 297.536 365.089 297.909 365.217 298.257" stroke="white" stroke-linecap="round" stroke-linejoin="round"/>
<path d="M296.164 279.598C296.653 276.466 297.354 265.506 296.416 259.837" stroke="white" stroke-linecap="round" stroke-linejoin="round"/>
<path d="M288.476 242.819C285.932 243.993 280.901 246.548 281.136 247.37C281.43 248.397 284.072 246.783 284.659 246.636C283.925 247.174 282.545 248.515 282.898 249.572C283.338 250.893 284.072 249.865 284.366 250.893C284.659 251.921 284.659 253.095 285.54 252.948C286.421 252.801 290.532 246.195 290.532 245.461" stroke="white" stroke-linecap="round" stroke-linejoin="round"/>
<path d="M284.219 250.6C284.219 250.257 284.659 249.22 286.421 247.811" stroke="white" stroke-linecap="round" stroke-linejoin="round"/>
<path d="M289.651 241.351C288.594 241.351 288.623 243.211 288.77 244.14C288.808 244.925 290.419 245.578 291.412 245.315C292.881 244.925 292.881 243.113 292.881 242.232C292.881 241.351 290.972 241.351 289.651 241.351Z" stroke="white" stroke-linecap="round" stroke-linejoin="round"/>
<path d="M204.358 61.0402C203.324 59.884 192.211 20.7825 186.784 1.37634C188.03 -2.43454 205.788 -6.63449 211.79 -8.07618C218.89 -9.78169 236.539 -12.4669 237.224 -10.7404C237.909 -9.01399 248.52 49.2159 247.775 50.6106C247.029 52.0053 238.163 56.7015 228.361 59.1912C218.559 61.6809 205.651 62.4855 204.358 61.0402Z" stroke="white"/>
<path d="M212.93 13.7121C203.355 16.3568 195.21 19.8303 195.526 21.143C198.471 31.6758 204.478 52.9462 204.94 53.7653C205.519 54.7892 218.443 55.0002 226.572 52.8814C233.075 51.1863 240.167 47.731 243.295 45.0499C241.719 33.9943 238.44 11.698 237.929 10.9567C237.347 10.1111 229.546 10.031 219.77 12.0457" stroke="white" stroke-linejoin="round"/>
<path d="M194.223 16.086C193.123 11.504 189.564 4.21131 190.675 3.94453C192.063 3.61105 195.051 3.74659 198.882 3.02641" stroke="white" stroke-linecap="round"/>
<path d="M213.114 2.00147C213.492 3.57606 213.106 6.60932 212.743 11.1225C212.56 13.4007 213.29 16.7923 217.314 15.8255C222.629 14.5487 217.979 7.07741 216.351 4.81099C215.223 3.24019 212.736 0.426886 213.114 2.00147Z" stroke="white"/>
<path d="M195.664 21.0269C198.967 21.0639 208.619 21.0876 217.919 18.5878C227.746 15.9462 237.148 12.8887 237.439 10.9914" stroke="white"/>
<path d="M187.091 1.24219C191.351 0.883219 202.479 -0.460998 212.907 -2.96612C225.942 -6.09752 237.454 -9.69335 237.19 -10.7928" stroke="white"/>
<path d="M202.796 56.5517C207.268 57.8159 217.736 57.6411 226.888 55.4426C235.445 53.3868 244.273 48.336 247.105 45.4502" stroke="white" stroke-linecap="round"/>
<path d="M202.485 30.9209C204.124 36.5807 207.497 48.2965 207.878 49.8813C208.354 51.8624 225.012 49.6769 231.699 46.1146" stroke="white" stroke-linecap="round"/>
<path d="M337.932 158.199C345.195 155.235 351.407 146.079 353.605 141.871C355.068 139.338 361.993 147.464 366.566 156.653C371.138 165.842 372.789 173.054 371.376 173.87C369.963 174.686 356.034 175.4 348.63 179.256C341.225 183.112 338.37 198.474 324.709 206.361C311.048 214.248 291.395 214.794 291.059 214.621C290.468 214.317 284.655 209.674 281.192 203.174C277.73 196.673 276.963 193.4 276.948 190.181C276.934 186.962 292.348 169.752 302.068 164.789C314.6 158.391 328.853 161.904 337.932 158.199Z" stroke="white" stroke-linecap="round"/>
<path d="M304.327 208.563C308.832 208.389 319.378 206.764 325.528 201.662" stroke="white" stroke-linecap="round"/>
<path d="M299.3 170.077C295.165 173.581 286.64 181.54 285.621 185.345" stroke="white" stroke-linecap="round"/>
<path d="M284.145 190.657C284.822 188.675 287.137 186.373 290.801 192.72C295.425 200.729 298.521 208.271 296.156 208.696C292.684 209.318 289.847 203.787 287.83 200.927" stroke="white" stroke-linecap="round"/>
<path d="M287.974 194.352C288.08 193.956 288.792 194.093 290.79 197.815" stroke="white" stroke-linecap="round"/>
<path d="M280.424 188.457C281.629 193.373 286.215 204.753 293.977 211.931" stroke="white" stroke-linecap="round"/>
<path d="M282.97 67.3265C284.183 59.4925 288.658 44.3759 296.855 46.5819C307.102 49.3393 306.657 59.8422 306.4 67.8316M302.975 67.2507C302.89 66.4341 303.98 51.1854 296.81 49.9274C291.073 48.9209 287.803 60.1715 286.846 66.2226" stroke="white" stroke-linecap="round"/>
<path d="M350.293 96.6624C350.224 96.9196 349.896 98.019 347.663 102.715M278.198 83.5323C276.81 81.5793 277.844 77.2588 279.571 73.974M276.677 91.2708C275.286 94.3527 273.505 100.08 274.903 103.81C274.002 109.701 272.685 112.053 273.434 113.706C274.041 115.044 275.49 117.372 278.216 119.984C278.959 120.697 279.797 121.43 280.739 122.17C285.417 125.848 292.653 129.696 303.524 131.965C320.393 135.487 325.877 134.456 332.284 132.688C335.303 131.186 335.816 126.319 337.918 122.086C340.202 120.907 341.956 116.728 343.021 113.521" stroke="white" stroke-linecap="round"/>
<path d="M340.249 79.9096C336.431 78.2021 325.922 73.0184 324.26 72.5713C322.404 72.0719 311.738 68.766 309.946 68.7193C308.153 68.6727 301.242 67.0618 299.474 66.4616C297.706 65.8613 293.045 65.6029 291.627 65.7817C290.21 65.9604 284.727 65.979 282.172 67.8432C280.127 69.3346 279.531 72.9965 279.703 74.2049C283.372 80.6477 287.893 86.3302 313.279 94.8923C338.666 103.454 349.897 96.6015 350.226 96.3439C350.555 96.0863 352.078 91.3907 352.426 90.0997C352.773 88.8086 350.15 84.7281 348.94 84.4024C348.212 84.2065 346.416 83.0971 344.604 82.0542" stroke="white" stroke-linecap="round"/>
<path d="M307.231 75.3186C307.403 75.6166 307.935 75.9801 308.689 75.0497C309.631 73.8867 311.573 71.7017 311.754 70.68" stroke="white" stroke-linecap="round"/>
<path d="M304.211 67.7061C304.633 67.8931 305.425 68.5051 305.22 69.4571C304.962 70.6471 304.216 73.1853 304.05 73.8017C303.885 74.4182 303.976 77.9374 303.946 78.4014" stroke="white" stroke-linecap="round"/>
<path d="M315.491 86.0673C313.144 85.8101 312.818 88.8135 310.812 88.8884" stroke="white" stroke-linecap="round"/>
<path d="M294.916 77.4742C294.181 76.8089 293.413 77.3865 293.124 78.5735C292.836 79.7605 292.746 81.3635 292.737 82.0167" stroke="white" stroke-linecap="round"/>
<path d="M291.644 65.7902C292.207 65.7313 294.283 66.1496 294.705 67.0206C295.232 68.1093 296.816 74.2447 296.405 75.7751" stroke="white" stroke-linecap="round"/>
<path d="M286.088 68.0497C285.434 68.2818 284.148 68.9358 284.237 69.6948C284.349 70.6434 286.509 74.2249 289.151 74.8746C291.264 75.3944 293.722 76.6968 294.687 77.283C295.52 77.8548 295.64 78.7029 296.736 78.9979C298.107 79.3667 313.366 85.9222 314.642 85.9594C315.917 85.9966 316.583 86.4818 318.41 86.9735C320.237 87.4652 325.881 87.8818 327.621 88.4723C328.842 88.8868 332.288 89.7795 334.372 90.3119M348.512 87.297C349.078 87.6944 349.302 89.5918 349.133 90.2199C348.964 90.848 346.762 91.2963 345.736 91.6939C345.105 91.9388 341.714 91.5575 339.11 91.2034" stroke="white" stroke-linecap="round"/>
<path d="M346.723 104.011C346.055 104.473 342.286 106.167 334.642 105.829M343.987 109.33C342.69 110.462 338.632 112.078 332.404 112.281M328.731 105.278C324.197 104.729 318.597 103.711 311.731 101.978C291.818 96.9527 281.155 87.5772 278.336 83.7075C277.872 85.5917 276.92 89.9989 276.769 90.7749C276.581 91.7448 285.727 103.331 310.948 109.547C316.637 110.95 321.516 111.729 325.642 112.079" stroke="white" stroke-linecap="round"/>
<path d="M296.669 78.9799C296.252 78.868 295.563 79.2963 295.559 80.5869" stroke="white" stroke-linecap="round"/>
<path d="M287.937 84.0271C287.324 84.9715 286.179 87.3611 286.176 90.5711" stroke="white" stroke-linecap="round"/>
<path d="M293.516 103.838C292.903 104.783 290.345 111.959 290.918 115.59" stroke="white" stroke-linecap="round"/>
<path d="M280.902 110.17C280.289 111.115 278.286 116.69 278.284 119.9" stroke="white" stroke-linecap="round"/>
<path d="M290.539 85.5026C289.926 86.4471 288.699 89.1385 288.697 92.3485" stroke="white" stroke-linecap="round"/>
<path d="M296.474 105.245C295.861 106.189 293.794 113.575 293.791 116.785" stroke="white" stroke-linecap="round"/>
<path d="M279.064 94.1703C278.451 95.1147 276.673 102.297 276.671 105.507" stroke="white" stroke-linecap="round"/>
<path d="M283.501 111.655C282.888 112.599 280.745 118.698 280.742 121.908" stroke="white" stroke-linecap="round"/>
<path d="M314.284 95.3661C314.34 96.4906 313.606 98.7728 312.522 101.913" stroke="white" stroke-linecap="round"/>
<path d="M307.359 122.029C307.415 123.153 305.782 128.776 304.699 131.915" stroke="white" stroke-linecap="round"/>
<path d="M311.47 94.6088C310.857 95.5533 309.696 98.2462 309.449 101.29" stroke="white" stroke-linecap="round"/>
<path d="M303.624 120.662C303.011 121.606 301.032 128.166 300.786 131.21" stroke="white" stroke-linecap="round"/>
<path d="M275.014 103.79C277.406 107.137 286.697 116.459 306.005 121.072C325.312 125.685 335.45 123.173 337.865 122.055" stroke="white" stroke-linecap="round"/>
<path d="M254.382 167.464C261.213 185.209 257.404 202.501 256.984 203.316C256.563 204.13 247.428 217.836 245.078 218.391C243.198 218.836 227.864 218.055 220.431 217.608C205.643 208.43 200.955 187.959 201.295 186.587C201.477 185.852 202.944 183.971 204.355 182.302" stroke="white" stroke-linecap="round"/>
<path d="M201.472 186.531C203.25 186.57 205.45 186.613 208.134 186.586M252.378 169.089C248.589 173.112 240.579 180.818 236.451 184.728C232.174 185.445 226.359 185.911 220.545 186.195" stroke="white" stroke-linecap="round"/>
<path d="M209.308 181.346C208.97 181.721 208.392 182.532 208.79 182.772C208.866 182.819 209.44 182.858 210.366 182.889M234.779 181.251C234.329 181.732 233.868 182.056 233.694 182.158C232.511 182.535 228.386 182.757 223.824 182.868" stroke="white" stroke-linecap="round"/>
<path d="M215.548 187.966C221.257 187.246 223.891 183.224 224.495 181.406C225.858 181.262 227.519 180.61 229.222 179.63C231.514 181.318 237.535 181.745 239.51 181.009C241.485 180.274 244.414 176.813 244.482 175.599C244.537 174.628 244.153 174.091 243.954 173.944C246.282 173.061 249.273 171.001 250.478 170.081C257.255 167.218 260.816 156.76 259.794 156.594C258.977 156.462 254.661 158.397 252.605 159.381C254.224 157.39 253.658 153.743 253.173 152.168C252.453 152.868 245.51 156.25 243.359 158.359C243.528 157.273 242.942 155.481 242.628 154.721C242.845 153.156 243.112 149.521 242.442 147.498C241.772 145.474 239.408 143.929 238.31 143.408C235.688 144.245 231.376 150.255 230.928 149.792C230.426 149.272 229.504 148.647 229.465 148.813C229.425 148.979 228.002 150.97 227.876 150.672C227.75 150.374 226.202 148.411 225.452 147.697C224.852 147.127 222.003 145.141 220.654 144.22C220.518 144.468 220.136 145.234 219.693 146.309C219.249 147.385 218.354 150.588 217.962 152.055C217.498 151.834 213.804 151.221 212.014 150.942C211.275 151.399 209.994 153.277 209.446 154.159C208.326 153.115 205.7 151.985 204.526 151.55C203.044 154.531 204.774 159.993 205.824 162.352C203.449 161.266 199.707 161.385 199.223 161.601C198.739 161.817 199.467 162.845 198.642 162.862C197.983 162.876 196.984 163.106 196.567 163.219C196.897 167.409 207.225 171.302 207.376 172.046C207.718 173.731 210.564 173.907 210.017 174.188C209.47 174.468 196.823 174.484 196.23 174.62C195.756 174.729 196.796 175.73 197.376 176.217L191.264 178.167C190.446 178.428 194.32 181.593 200.525 182.263C205.49 182.799 212.426 180.62 215.273 179.464C212.689 181.279 207.507 184.966 207.453 185.195C207.385 185.482 208.412 188.865 215.548 187.966Z" stroke="white" stroke-linecap="round" stroke-linejoin="round"/>
<path d="M236.718 185.147C239.705 192.253 245.641 208.751 245.496 217.894" stroke="white" stroke-linecap="round"/>
<path d="M217.977 152.023C217.682 152.733 217.031 154.472 216.996 155.27" stroke="white" stroke-linecap="round"/>
<path d="M235.411 174.967C237.438 174.89 241.979 174.579 243.921 173.959" stroke="white" stroke-linecap="round"/>
<path d="M245.84 167.447C248.027 166.491 252.576 164.517 253.271 164.269C254.139 163.96 252.583 168.292 250.414 170.097" stroke="white" stroke-linecap="round"/>
<path d="M243.613 164.426C245.577 163.079 249.959 160.664 252.695 159.335" stroke="white" stroke-linecap="round"/>
<path d="M235.961 159.737C238.72 155.837 238.857 153.181 239.92 151.278C240.602 151.806 241.976 153.122 242.656 154.764" stroke="white" stroke-linecap="round" stroke-linejoin="round"/>
<path d="M226.701 173.402C226.767 174.178 231.813 173.316 234.328 172.788C238.536 171.445 240.929 167.893 240.883 166.77C240.838 165.647 235.352 165.748 234.463 166.174C233.575 166.6 226.619 172.433 226.701 173.402Z" stroke="white" stroke-linecap="round"/>
<path d="M230.967 149.83C232.124 151.458 234.437 155.603 234.435 159.158C234.433 162.712 232.804 165.998 231.99 167.196" stroke="white" stroke-linecap="round"/>
<path d="M228.108 150.609C226.709 152.436 225.228 154.694 225.102 157.045" stroke="white" stroke-linecap="round"/>
<path d="M217.423 162.605C217.055 160.363 218.217 158.26 218.933 156.553C220.02 157.121 221.084 156.872 222.172 157.492" stroke="white" stroke-linecap="round" stroke-linejoin="round"/>
<path d="M209.479 154.197C210.548 155.133 212.825 157.255 213.383 158.251" stroke="white" stroke-linecap="round"/>
<path d="M210.037 169.319C209.036 168.416 206.923 165.869 206.471 162.903C205.906 159.196 206.767 157.631 206.982 157.474C207.197 157.317 209.923 158.832 211.196 160.138C212.469 161.444 217.245 167.932 218.068 168.148" stroke="white" stroke-linecap="round"/>
<path d="M219.726 171.711C218.856 169.172 218.17 163.122 222.387 159.238C224.175 159.359 228.082 160.303 229.404 163.107C230.726 165.911 231.293 167.663 231.411 168.189" stroke="white" stroke-linecap="round"/>
<path d="M198.699 162.866C200.837 162.934 203.838 164.116 207.053 165.529" stroke="white" stroke-linecap="round"/>
<path d="M209.957 174.008C211.457 174.69 215.293 176.114 218.03 175.961" stroke="white" stroke-linecap="round"/>
<path d="M207.359 171.973C207.231 171.215 207.436 170.255 209.989 169.545C213.179 168.659 218.337 172.42 221.019 172.971C223.164 173.412 224.686 174.497 225.179 174.985" stroke="white" stroke-linecap="round"/>
<path d="M197.433 176.284C200.031 177.579 206.176 180.076 209.968 179.705" stroke="white" stroke-linecap="round"/>
<path d="M224.45 181.348C222.531 181.27 218.584 180.834 218.147 179.717C217.711 178.6 219.702 177.293 220.753 176.78" stroke="white" stroke-linecap="round"/>
<path d="M229.308 179.497C230.354 178.796 232.327 177.083 231.851 175.844C231.376 174.606 228.289 174.909 226.804 175.216" stroke="white" stroke-linecap="round"/>
<path d="M242.532 161.607C243.078 160.592 243.292 159.297 243.348 158.442" stroke="white" stroke-linecap="round"/>
<path d="M187.365 259.653C187.801 251.737 190.767 236.254 199.142 237.643C209.61 239.379 210.2 249.874 210.73 257.85M207.266 257.609C207.1 256.805 206.685 241.523 199.426 240.976C193.618 240.539 191.47 252.057 191.113 258.173" stroke="white" stroke-linecap="round"/>
<path d="M257.247 282.223C257.204 282.485 256.985 283.612 255.225 288.504M184.21 276.249C182.637 274.442 183.24 270.041 184.636 266.602M183.457 284.099C182.377 287.303 181.168 293.178 182.926 296.753C182.609 302.703 181.53 305.173 182.438 306.745C183.173 308.017 184.845 310.19 187.814 312.522C188.624 313.158 189.53 313.805 190.54 314.449C195.557 317.649 203.137 320.766 214.178 321.955C231.312 323.8 236.668 322.235 242.869 319.845C245.726 318.053 245.758 313.16 247.433 308.74C249.59 307.342 250.925 303.011 251.669 299.715" stroke="white" stroke-linecap="round"/>
<path d="M245.603 266.539C241.636 265.215 230.668 261.091 228.971 260.809C227.075 260.495 216.135 258.254 214.347 258.384C212.558 258.514 205.522 257.591 203.703 257.168C201.885 256.744 197.221 256.946 195.828 257.263C194.435 257.58 188.981 258.138 186.621 260.245C184.733 261.93 184.5 265.633 184.791 266.818C189.075 272.869 194.133 278.079 220.239 284.102C246.344 290.125 256.847 282.201 257.149 281.912C257.451 281.623 258.505 276.801 258.724 275.482C258.943 274.163 255.931 270.36 254.695 270.155C253.951 270.032 252.054 269.104 250.149 268.245" stroke="white" stroke-linecap="round"/>
<path d="M226.287 268.81C225.951 270.202 226.335 271.48 226.801 272.258C227.143 272.829 229.862 269.017 230.117 268.114" stroke="white" stroke-linecap="round"/>
<path d="M233.632 272.26C234.316 270.934 235.256 268.846 235.372 266.972C235.444 265.804 235.998 265.184 236.637 265.099" stroke="white" stroke-linecap="round"/>
<path d="M220.713 262.976C220.323 264.982 219.606 269.516 219.864 271.603" stroke="white" stroke-linecap="round"/>
<path d="M212.294 265.219C212.495 265.499 213.06 265.808 213.718 264.808C214.542 263.558 216.259 261.192 216.338 260.158" stroke="white" stroke-linecap="round"/>
<path d="M208.54 257.94C208.979 258.085 209.827 258.616 209.716 259.583C209.577 260.793 209.084 263.392 208.98 264.022C208.876 264.652 209.313 268.145 209.329 268.609" stroke="white" stroke-linecap="round"/>
<path d="M221.572 275.103C219.211 275.078 219.181 278.099 217.192 278.371" stroke="white" stroke-linecap="round"/>
<path d="M200.251 268.576C199.455 267.986 198.747 268.636 198.576 269.846C198.406 271.055 198.474 272.66 198.53 273.31" stroke="white" stroke-linecap="round"/>
<path d="M195.846 257.27C196.4 257.156 198.507 257.368 199.012 258.193C199.645 259.225 201.825 265.174 201.565 266.738" stroke="white" stroke-linecap="round"/>
<path d="M190.539 260.065C189.911 260.361 188.695 261.138 188.859 261.884C189.064 262.817 191.565 266.169 194.258 266.556C196.412 266.865 198.987 267.919 200.004 268.408C200.89 268.895 201.092 269.727 202.212 269.913C203.612 270.145 219.442 275.167 220.716 275.079C221.989 274.99 222.699 275.408 224.566 275.717C226.432 276.027 232.09 275.886 233.879 276.303C235.135 276.595 238.652 277.145 240.778 277.469M254.553 273.078C255.156 273.418 255.566 275.284 255.459 275.926C255.353 276.567 253.205 277.23 252.224 277.727C251.619 278.032 248.208 277.987 245.581 277.89" stroke="white" stroke-linecap="round"/>
<path d="M254.417 289.887C253.799 290.413 250.214 292.469 242.574 292.885M252.218 295.45C251.039 296.703 247.159 298.71 240.982 299.525M236.637 292.918C232.072 292.817 226.398 292.355 219.395 291.306C199.084 288.264 187.551 279.983 184.365 276.41C184.088 278.33 183.574 282.81 183.501 283.597C183.409 284.581 193.651 295.211 219.36 298.916C225.16 299.752 230.092 300.047 234.232 299.989" stroke="white" stroke-linecap="round"/>
<path d="M237.794 292.079C238.383 287.212 240.442 275.85 243.962 269.343C248.363 261.208 256.334 253.012 262.923 255.34C269.512 257.667 267.634 266.366 266.74 269.124C265.847 271.882 259.338 281.338 258.834 283.943C258.635 284.969 258.329 286.138 258.025 287.189M242.298 293.031C242.416 289.249 243.818 279.854 248.477 271.036C254.301 260.013 259.828 259.985 261.313 260.231C262.798 260.477 263.648 262.798 263.661 264.908C263.675 267.017 261.217 273.512 259.311 277.119C258.884 277.927 257.761 280.69 257.254 282.211" stroke="white" stroke-linecap="round"/>
<path d="M202.143 269.901C201.718 269.831 201.074 270.325 201.197 271.61" stroke="white" stroke-linecap="round"/>
<path d="M193.951 275.783C193.433 276.783 192.529 279.274 192.842 282.468" stroke="white" stroke-linecap="round"/>
<path d="M134.273 242.679C129.471 241.925 125.778 241.501 125.912 243.694C126.043 245.851 127.17 249.394 125.168 251.234C123.025 253.203 114.608 253.134 112.021 262.664C109.475 272.038 116.232 287.08 119.142 294.308C122.115 295.368 129.632 297.163 136.122 296.769C141.62 291.458 152.646 278.486 152.762 269.09C152.906 257.346 144.147 257.124 143.497 253.626C142.847 250.129 145.754 247.534 145.367 246.162C145.062 245.078 142.975 244.128 137.608 243.214" stroke="white" stroke-linejoin="round"/>
<path d="M124.728 255.366C126.961 256.675 133.72 259.08 142.886 258.23" stroke="white" stroke-linecap="round"/>
<path d="M117.728 259.613C116.502 260.698 114.115 263.914 114.376 268.097C114.637 272.281 115.95 278.381 116.574 280.909" stroke="white" stroke-linecap="round"/>
<path d="M127.565 244.105C130.773 244.947 138.481 246.633 143.653 246.643" stroke="white" stroke-linecap="round"/>
<path d="M138.662 240.271L138.332 241.162L137.393 243.706C137.17 244.211 134.444 243.742 134.368 243.229L134.003 239.537" stroke="white"/>
<path d="M99.9821 232.958C108.177 220.895 122.743 199.442 125.388 195.613M170.879 244.414L157.598 200.684" stroke="white" stroke-linecap="round"/>
<path d="M124.907 195.508C123.838 195.34 123.893 193.74 126.284 193.726C128.675 193.712 135.752 193.828 141.909 194.8C145.803 195.414 155.434 197.985 157.27 198.614C159.807 199.483 158.77 200.85 157.867 200.707C156.963 200.565 147.589 197.994 141.555 197.042C135.264 196.049 125.976 195.677 124.907 195.508Z" stroke="white" stroke-linecap="round"/>
<path d="M98.4509 235.284C97.7677 235.008 97.9031 233.235 98.8107 233.003C99.6405 232.791 125.543 235.447 136.473 237.171C147.013 238.834 170.843 244.401 171.791 244.728C172.556 244.992 172.321 247.105 170.717 246.683C169.405 246.337 145.72 241.36 136.052 239.835C126.385 238.31 99.1247 235.555 98.4509 235.284Z" stroke="white" stroke-linecap="round"/>
<path d="M26.4611 238.618C23.6528 239.81 18.5168 243.75 18.8389 250.8C19.2521 259.845 40.5718 311.106 42.0773 313.143C43.5827 315.18 46.305 320.419 64.2521 313.335C82.2744 306.221 81.0599 301.263 79.9458 296.441C78.8317 291.619 61.2597 243.047 56.1919 236.772C51.4883 230.948 46.0495 230.94 42.1885 232.408" stroke="white" stroke-linecap="round"/>
<path d="M27.9121 226.26C25.6232 227.356 23.3891 228.767 23.2203 229.735C23.0234 230.864 27.1769 240.205 27.2492 240.388C28.7813 240.337 32.731 239.812 36.2737 238.132C39.8163 236.451 42.1336 234.831 42.8494 234.231C41.609 230.909 38.969 224.167 38.3321 223.77C37.6841 223.365 34.8405 223.85 32.2872 224.587" stroke="white" stroke-linecap="round" stroke-linejoin="round"/>
<path d="M24.7009 230.089C25.5423 230.016 28.1386 229.501 31.7924 228.031C35.4463 226.56 37.2777 225.36 37.7367 224.943" stroke="white" stroke-linecap="round"/>
<path d="M23.2434 243.686C24.843 244.412 29.7021 243.943 37.0095 241.058C44.2163 238.214 47.3943 235.178 47.7949 233.632" stroke="white" stroke-linecap="round"/>
<path d="M25.9767 273.33C28.8645 273.287 37.6596 272.644 48.2394 268.414C58.8192 264.184 64.132 258.984 65.7082 256.935" stroke="white" stroke-linecap="round"/>
<path d="M27.9913 278.285C30.8791 278.241 39.62 277.61 50.1998 273.38C60.7796 269.151 66.0924 263.95 67.6685 261.902" stroke="white" stroke-linecap="round"/>
<path d="M30.1268 283.193C33.0146 283.149 41.6765 282.538 52.2564 278.308C62.8362 274.079 68.0461 269.028 69.6223 266.98" stroke="white" stroke-linecap="round"/>
<path d="M32.3327 288.139C35.2205 288.095 43.6369 287.504 54.2167 283.274C64.7965 279.045 69.8385 274.249 71.4146 272.201" stroke="white" stroke-linecap="round"/>
<path d="M16.5709 213.045C14.0898 214.069 9.40335 216.008 8.41274 216.432C7.1246 216.983 2.06751 220.249 1.72466 220.47C1.3818 220.691 2.10471 222.686 2.54014 222.536C2.97558 222.385 8.55181 219.345 9.41925 218.981C10.0877 218.701 14.9987 216.771 17.6341 215.738" stroke="white" stroke-linecap="round"/>
<path d="M16.271 212.156L19.0426 219.177C21.3241 219.184 29.5732 216.12 33.2474 213.57C32.3767 211.542 30.5554 207.271 30.2354 206.407C29.8355 205.327 28.906 205.641 28.4274 205.83C27.9489 206.019 17.6636 209.921 16.8289 210.408C15.9941 210.896 16.0821 211.677 16.271 212.156Z" stroke="white" stroke-linecap="round" stroke-linejoin="round"/>
<path d="M28.1058 227.388C28.1551 225.923 26.9828 222.393 24.7706 217.674" stroke="white" stroke-linecap="round"/>
<path d="M32.9755 225.518C31.9393 224.482 30.2428 221.126 28.6354 216.168" stroke="white" stroke-linecap="round"/>
</svg>
