<svg width="45" height="45" viewBox="0 0 45 45" fill="none" xmlns="http://www.w3.org/2000/svg">
<circle cx="22.5" cy="22.5" r="22.5" fill="#C4C4C4" fill-opacity="0.46"/>
<mask id="mask0_206_14162" style="mask-type:alpha" maskUnits="userSpaceOnUse" x="2" y="2" width="38" height="39">
<path d="M20.4084 4.49646L38.5192 21.5867L35.228 30.3934L31.9751 33.1015L30.6044 32.9198L30.105 32.8541L29.7009 33.1549L21.9601 38.9257L4.00485 21.9822L20.4084 4.49646Z" fill="#D9D9D9" stroke="white" stroke-width="2.48518"/>
</mask>
<g mask="url(#mask0_206_14162)">
<path d="M80.6053 79.2537C80.5354 79.8165 80.041 79.1099 80.0822 80.0413C79.9615 80.0271 79.8396 80.0139 79.7191 79.9997C79.8458 79.7435 79.9716 79.4875 80.0984 79.2313C80.2672 79.2383 80.4363 79.2452 80.606 79.2526C80.6058 79.253 80.6056 79.2533 80.6053 79.2537ZM82.6538 76.3336C82.1126 76.9521 81.6363 76.9095 81.6324 77.7898C81.8104 77.5727 81.989 77.3561 82.1669 77.1389C82.1888 77.4071 82.2121 77.676 82.2356 77.9436C82.3406 77.8839 82.4455 77.8241 82.5498 77.7653C82.358 78.2157 82.1652 78.667 81.9733 79.1188C81.9547 79.0238 81.936 78.9274 81.9175 78.8325C81.4907 79.0298 81.2382 78.9991 80.902 78.8754C80.8678 78.9889 80.8342 79.1017 80.7999 79.2153C80.7514 78.9554 80.7037 78.6954 80.6568 78.4363C80.8878 78.3555 81.1457 78.266 81.3604 78.1901C81.5672 77.425 81.0052 77.5713 80.7452 77.5948C80.3909 77.6274 80.6361 77.3555 80.3785 77.3719C80.3377 77.3741 80.1846 77.6118 80.126 77.5806C79.8309 77.4215 79.3651 76.9499 80.0349 76.5927C80.4524 76.9567 81.1294 76.7566 81.4855 77.2079C81.7674 76.4844 82.1455 76.4151 82.6538 76.3336ZM72.8076 72.8978C73.152 72.6815 73.3577 72.9962 73.4131 73.3404C73.4133 73.3406 73.4135 73.3407 73.4138 73.3409C73.4259 73.4167 73.2544 73.8931 73.1243 73.7835C72.9131 73.6034 73.2276 72.8824 72.819 73.2432C72.819 73.1258 72.8105 73.0158 72.8076 72.8978ZM72.2878 72.6089C72.2532 72.358 72.6377 71.9124 72.7248 72.1597C72.7251 72.1593 72.7253 72.1589 72.7256 72.1585C72.762 72.2619 72.3653 72.5528 72.884 72.3344C72.7371 72.6742 72.6076 72.9861 72.4669 73.3159C72.3994 73.2783 72.3356 73.2476 72.2657 73.207C72.6403 72.7365 72.3233 72.8586 72.2878 72.6089ZM79.625 76.7239C79.3164 77.1665 79.4094 77.2213 79.3667 77.6367C79.2287 77.5286 79.0916 77.4196 78.9549 77.3121C79.1788 77.116 79.4013 76.9202 79.625 76.7239ZM83.0846 78.9854C83.0849 78.9855 83.0851 78.9857 83.0853 78.9858C83.1794 78.9441 83.2739 78.9022 83.3667 78.8611C83.2958 79.0434 83.225 79.2248 83.1541 79.4071C83.4243 79.3617 83.6965 79.3173 83.9667 79.2702C83.6397 79.759 83.3721 79.4819 82.9836 79.7246C82.8172 79.4139 82.872 79.0466 83.1161 78.6121C83.1056 78.736 83.0943 78.861 83.0846 78.9854ZM44.7115 48.6197C44.555 48.7006 44.399 48.7821 44.2424 48.863C44.2639 48.9783 44.2963 49.0797 44.3112 49.2047C44.9485 48.816 44.564 49.3106 44.8338 49.48C45.6626 49.9978 46.174 48.9928 45.8023 50.7766C45.3223 50.279 45.0529 51.0385 44.3504 51.212C44.5654 50.8138 45.5288 50.3142 45.4408 49.9708C44.7623 50.0165 44.1202 50.0492 43.5115 49.9328C43.4744 50.0018 43.4371 50.0709 43.4 50.1399C43.4967 50.1582 43.5932 50.1758 43.6902 50.1941C43.4874 50.2918 43.2874 50.3894 43.0819 50.4878C43.4722 50.2074 43.0728 50.2113 43.4478 49.8273C43.6147 49.6563 43.9292 49.489 44.1356 49.3652C44.0593 49.1391 43.9732 48.9181 43.8947 48.6941C44.0976 48.6171 44.3007 48.5398 44.5031 48.4622C44.573 48.5135 44.6415 48.5657 44.7117 48.617C44.7116 48.6179 44.7116 48.6188 44.7115 48.6197ZM12.122 19.5931C12.6971 19.4059 13.0712 19.6903 12.7754 20.2871C12.5519 20.0482 12.334 19.8175 12.122 19.5931ZM83.3144 78.2519C83.29 78.3477 83.2655 78.4422 83.2411 78.538C83.039 78.6183 82.8369 78.6971 82.6348 78.7773C82.7565 78.5322 82.8779 78.2867 82.9984 78.0423C83.1036 78.1116 83.209 78.1825 83.3144 78.2519ZM76.1927 74.1028C76.2803 74.1399 76.2824 74.1519 76.3594 74.248C76.3594 74.2477 76.3594 74.2475 76.3594 74.2472C76.3903 74.2845 76.6302 74.629 76.4807 74.7821C76.3167 74.6805 76.146 74.5659 75.9809 74.459C76.0506 74.3397 76.1237 74.2239 76.1927 74.1028ZM78.0416 75.4383C78.0416 75.4389 78.0415 75.4394 78.0415 75.44C78.0842 75.5051 78.1061 75.596 78.1615 75.6455C77.7621 75.7821 78.0448 75.2597 77.7536 75.2722C77.4619 75.2857 77.1616 75.4813 77.4287 74.6883C77.5572 74.6264 77.7188 74.5236 77.8601 74.4459C77.97 74.902 78.2113 74.6939 78.6118 74.5705C78.4213 74.8604 78.2321 75.1484 78.0416 75.4383ZM46.9531 52.6087C47.256 52.3383 47.0643 52.6897 47.0672 52.6982C47.0668 52.6985 47.0664 52.6988 47.066 52.699C47.7469 52.7745 46.8674 52.8239 47.2516 53.2169C47.1255 53.2436 46.9969 53.2755 46.8707 53.3035C46.8957 53.0745 46.9345 52.8234 46.9531 52.6087ZM61.6622 63.9182C61.5985 64.0163 61.5355 64.1152 61.4718 64.2133C61.2214 63.9995 60.8855 64.3241 60.9097 63.8248C61.1608 63.855 61.4117 63.8859 61.663 63.9171C61.6627 63.9174 61.6624 63.9178 61.6622 63.9182ZM75.3046 72.5112C75.7208 72.5168 75.9925 72.5766 76.0854 73.0593C76.0854 73.0598 76.0854 73.0603 76.0853 73.0609C76.09 73.0899 75.8778 73.2434 75.8658 73.3091C75.9445 73.3167 76.0358 73.309 76.1191 73.311C76.021 73.4807 75.9226 73.6501 75.8251 73.8188C75.6872 73.6631 75.5497 73.5075 75.4121 73.3517C75.3747 73.4639 75.3383 73.5757 75.3009 73.6879C75.1263 73.6446 74.9526 73.6015 74.7785 73.5582C75.0026 73.3213 75.2265 73.0843 75.4505 72.8459C75.402 72.7339 75.3521 72.624 75.3046 72.5112ZM58.0711 59.7026C58.0411 59.8392 57.8289 59.9476 57.8349 60.0889C57.8417 60.2291 58.1149 60.136 57.87 60.4023C57.745 60.3694 57.611 60.3388 57.483 60.3065C57.4115 61.0626 58.0778 60.826 57.607 61.4742C57.425 61.0805 57.1184 60.9724 56.6936 60.9319C57.085 60.4306 57.7045 60.207 57.8765 59.5905C57.9404 59.6278 58.0096 59.6644 58.0696 59.7033C58.0701 59.7031 58.0706 59.7029 58.0711 59.7026ZM91.8697 74.1293C92.0323 74.2837 92.5958 74.3193 92.6451 74.7806C92.657 74.8941 92.2488 76.0284 92.1683 76.1619C91.8944 76.61 91.6172 76.5276 91.7001 76.9759C91.6115 76.9271 91.5173 76.8938 91.4266 76.8504C91.2616 77.1629 91.097 77.4746 90.932 77.7857C91.0641 77.8028 91.1965 77.8198 91.3294 77.8359C91.2749 77.9395 91.2203 78.0433 91.1658 78.1468C90.7865 77.9229 90.7794 78.444 90.3684 78.6878C90.4404 78.9784 90.515 79.2692 90.5877 79.5598C90.4965 79.4752 90.3832 79.3852 90.307 79.3039C89.989 79.8109 90.2816 79.8194 90.2627 79.9373C90.1548 80.6029 89.2372 79.686 88.7043 80.381C88.8265 80.5672 88.9589 80.7566 89.0866 80.9444C88.981 81.0064 88.8748 81.0681 88.7692 81.13C88.6762 80.3743 88.3394 79.9237 88.0716 79.3251C88.0173 79.3212 87.9626 79.3179 87.9095 79.3134C87.7826 79.5523 87.6556 79.79 87.5287 80.029C87.4495 80.0184 87.3696 80.0071 87.2905 79.9964C87.9338 79.3456 87.6709 79.201 87.6439 78.5499C87.9685 78.381 88.0728 78.6656 88.3591 78.1579C87.5658 78.2021 87.241 77.263 86.4405 77.3666C86.2419 77.3917 85.8515 78.034 85.5737 77.7824C85.6273 77.7184 85.7067 77.5922 85.7701 77.5037C85.0466 77.4821 84.5879 77.4524 84.2048 76.7838C84.0965 77.0345 83.9872 77.2858 83.8791 77.5365C84.0721 77.4978 84.2666 77.4572 84.4592 77.418C84.3097 77.8499 84.0827 77.9413 84.4532 78.164C84.7556 78.3459 84.6786 78.0673 84.8283 78.0042C85.0298 77.9163 84.9392 78.2772 85.1601 78.1762C85.3303 78.0992 85.4248 77.7255 85.6101 77.9485C85.268 78.298 84.9157 78.6595 84.5695 79.0133C84.5683 78.8865 84.5685 78.7587 84.5681 78.631C84.6922 78.5577 84.8144 78.4851 84.9385 78.4117C84.6166 78.4827 84.3121 78.5489 83.9697 78.6166C84.4001 78.0722 84.0416 78.1548 83.878 78.1495C83.6227 78.1415 84.0325 77.837 83.8676 77.8281C83.7022 77.8203 83.2914 78.1893 83.1283 77.9549C83.4084 77.7676 83.3906 77.4329 83.5705 77.2112C83.7504 76.9896 84.0179 77.0816 83.9546 76.6788C83.3984 76.6102 83.3024 77.8197 82.9178 77.7867C82.4555 77.7468 83.2977 76.2003 83.6005 75.9436C83.8386 75.7416 84.0894 75.9678 84.3277 75.767C84.1031 74.9984 83.5448 75.8936 83.3496 76.0154C82.6407 76.4593 83.9074 74.8849 83.1557 75.2711C83.3606 74.9567 83.5441 74.6735 83.7409 74.3721C83.6413 74.3906 83.5511 74.4415 83.4459 74.4397C83.2863 75.202 83.1176 75.0597 83.0219 75.0012C82.8709 74.9095 82.914 75.357 82.8258 75.4104C82.5886 75.5526 82.4785 75.3517 82.4121 75.6901C82.4447 75.5337 82.4737 75.3745 82.5045 75.2184C82.2314 75.2677 80.9916 76.3381 81.5501 76.3154C81.2057 76.7861 81.2269 76.4693 81.1752 76.3323C81.1235 76.1953 80.929 76.5107 80.8786 76.3981C80.6797 75.9494 81.2413 75.554 81.5591 75.167C80.9249 75.1718 81.2471 75.6429 80.4743 75.4256C80.1959 75.7285 80.2673 76.2846 79.8922 76.3239C80.2198 75.6991 80.3056 75.1558 80.0713 74.7304C79.9492 74.8444 79.8263 74.9596 79.7041 75.0735C79.8491 74.3966 80.3128 73.8918 79.5108 74.3353C80.5025 73.2109 79.8579 73.9239 79.8498 73.2036C79.8479 73.0581 80.1675 72.8976 80.1573 72.7063C80.1525 72.6199 79.9252 72.7499 79.9178 72.5327C79.9147 72.4256 79.9858 71.7932 79.6776 71.9178C79.4116 72.5995 78.7735 72.9154 78.7205 73.5865C78.307 73.1476 77.7803 73.218 78.8554 72.7462C78.8479 72.4833 78.8401 72.2213 78.8328 71.9597C78.6543 72.0483 78.4758 72.1353 78.2974 72.2224C78.6026 71.7175 78.7047 71.5867 78.3108 71.4557C78.5326 71.4333 78.7551 71.4085 78.9784 71.3855C79.0476 71.2884 79.1349 71.1974 79.1923 71.0969C78.8892 71.1712 78.3297 70.9256 78.1226 70.9783C77.9152 71.0309 78.1285 71.2203 78.0108 71.3254C77.0369 72.1902 77.5616 71.4269 77.2344 71.4713C77.0418 71.4981 77.2617 71.806 77.1662 71.8087C76.8129 71.8165 77.0616 71.1824 76.8502 71.0344C76.7211 71.4023 76.5884 71.7748 76.4561 72.1448C76.2391 71.9796 75.988 71.8117 75.7114 71.7761C75.6029 71.7619 75.5118 72.0388 75.4881 72.0458C75.372 72.0856 75.0025 72.0268 74.973 72.0088C74.7476 71.8636 74.9544 71.5328 74.7492 71.3723C74.8524 71.4006 74.9488 71.4284 75.0496 71.4564C75.4332 70.9517 75.8173 70.4474 76.2012 69.9415C76.0143 69.7638 75.8274 69.587 75.6413 69.4092C75.68 69.6877 75.7205 69.9659 75.7604 70.2448C75.2381 70.5131 74.7152 70.7818 74.1921 71.0501C74.2382 70.7045 74.2854 70.3595 74.3327 70.0144C73.9474 69.8585 73.3143 70.9673 73.768 69.9289C73.6161 69.9413 73.4643 69.9537 73.3132 69.965C73.4153 69.8417 73.5174 69.7179 73.6195 69.5946C73.4454 69.5964 73.2718 69.5977 73.0974 69.6005C72.9116 70.1546 72.708 70.732 72.5317 71.2723C72.2266 71.2165 72.4864 70.8145 72.517 70.6915C72.5981 70.3655 72.177 70.5974 72.2648 70.304C72.2954 70.2037 72.7005 70.0954 72.8217 69.7395C72.8447 69.6703 73.2756 68.3523 72.9098 68.4783C72.7794 68.6821 72.6302 68.9392 72.4923 69.1635C72.1472 69.1092 72.7148 67.9692 72.946 67.6982C72.6691 67.8107 72.4545 67.6913 72.2107 67.9937C72.1345 67.9538 72.0591 67.9138 71.983 67.8739C72.5823 67.1411 72.1886 67.0834 71.7147 67.7415C71.8311 67.8443 71.9399 67.9431 72.0508 68.0421C71.4028 68.8033 71.4523 69.5606 71.1744 68.2624C71.3104 67.7305 71.406 68.5039 71.4976 68.0987C71.4076 67.766 71.1005 67.7858 71.0982 67.3493C71.0968 66.805 71.649 66.6577 70.7417 66.7326C71.2378 68.8029 70.0177 67.4132 69.1654 67.3674C69.7958 66.0829 69.5421 65.3656 68.6146 65.2362C68.463 65.6106 68.7954 65.5935 68.8477 65.7871C68.9 65.9808 68.6317 66.0798 68.6845 66.3398C68.7374 66.5997 68.9312 67.0366 68.9351 67.3767C68.6732 67.4678 67.7074 67.4433 68.5067 67.2243C68.3975 66.6752 68.4703 66.2382 68.1078 65.8984C67.6385 66.3212 67.4297 66.6425 67.0268 66.3843C67.7438 65.8423 67.6363 65.0447 68.2361 64.3868C68.3957 64.748 67.7538 65.3465 67.6813 65.7959C67.6745 65.8411 68.056 65.8439 68.1078 65.8984C68.2822 65.082 68.3559 64.784 69.0362 64.14C68.8065 64.0784 68.7578 63.9044 68.4923 64.253C68.5619 64.0701 68.6315 63.887 68.7019 63.7047C68.64 63.6674 68.5752 63.6437 68.5115 63.5951C68.2259 64.2009 68.2823 63.7449 67.9878 63.9045C67.693 64.0642 67.5623 64.6088 67.2175 64.3766C67.2428 64.5828 67.2712 64.7644 67.2982 64.9616C66.9808 64.9474 66.6626 64.9336 66.3463 64.9194C66.2693 65.3583 66.2634 66.0852 65.9519 66.5151C65.964 66.2792 65.4147 66.3248 65.3685 66.31C65.1902 66.2514 65.4619 66.0329 65.4554 66.0184C65.3175 65.7229 65.0629 65.6832 65.2666 65.2063C64.963 65.2725 64.9081 65.0742 64.719 64.9564C64.6149 64.8916 64.4201 65.2102 64.4023 65.1109C64.2857 64.4501 64.9316 64.3183 63.6585 64.5383C63.5987 64.8142 63.5345 65.0944 63.474 65.3726C63.3331 65.3927 63.1925 65.4136 63.0517 65.4336C63.0226 65.355 62.9943 65.2765 62.9653 65.1979C63.2916 64.7394 63.6189 64.2802 63.9452 63.8217C63.9015 63.7529 63.8573 63.6848 63.8138 63.6161C63.9509 63.6457 64.0883 63.6756 64.2257 63.7053C64.2925 63.6313 64.3587 63.5568 64.4254 63.4827C64.3575 63.2462 64.2916 63.0092 64.2257 62.7723C64.1094 62.9298 63.9924 63.0885 63.8761 63.246C63.6825 62.7728 63.7753 62.6354 63.125 62.8325C62.8642 62.6381 62.1737 63.1495 61.8206 63.3197C61.8299 63.1911 61.8401 63.0614 61.849 62.9326C61.7192 63.0397 61.5894 63.1459 61.4595 63.2529C61.5225 63.019 61.5848 62.7844 61.6476 62.5517C61.309 62.9413 61.1948 63.0569 61.3593 63.3986C60.8934 63.851 60.5835 63.2782 60.5181 62.965C60.4682 62.7272 60.9419 62.4122 60.9617 62.3464C61.0301 62.1237 60.6801 62.1041 60.6516 62.038C60.5294 61.7606 60.3662 61.6744 60.246 61.4401C60.223 61.394 60.319 61.0453 60.3166 61.0304C60.2826 60.9338 60.2121 60.6783 60.196 60.6605C59.3669 59.737 59.5475 61.6919 58.7258 60.8934C58.6393 61.07 58.5517 61.2441 58.4645 61.4201C58.3867 61.3773 58.3079 61.3329 58.23 61.2899C58.2359 61.0931 58.5189 60.937 58.1999 60.9957C58.3529 60.8125 58.506 60.6291 58.6588 60.4473C58.5051 60.4934 58.3548 60.5408 58.1994 60.5855C58.5659 59.8277 58.2284 59.3422 58.8389 58.5862C59.0465 58.3289 59.5652 58.2926 59.6076 57.8843C59.513 57.7273 59.3701 58.1128 59.3024 58.0881C58.8165 57.9053 59.1702 57.4789 58.9197 57.4757C58.7526 57.6467 58.5814 57.8204 58.4122 57.9927C58.3925 57.891 58.3727 57.7892 58.3526 57.6871C58.2432 57.8041 58.1329 57.9208 58.0234 58.0377C58.0747 58.0895 58.1332 58.1469 58.1799 58.1951C57.7369 58.6344 56.8944 58.3474 57.4673 58.1202C57.7 58.0281 57.8379 58.2452 58.1527 57.57C57.9092 57.5185 57.6408 57.4505 57.389 57.392C57.4774 57.2621 57.5663 57.1322 57.6546 57.0023C57.3399 56.8918 57.1937 57.5677 56.9915 57.8364C56.9276 57.7999 56.8639 57.7621 56.8001 57.7257C56.8668 57.5855 56.9391 57.4406 57.0019 57.3034C56.8542 57.495 56.4832 57.9197 56.4361 57.622C56.4071 57.4294 56.9489 57.0742 56.687 56.9818C56.4754 57.295 56.2748 57.72 55.9663 57.6383C56.1805 57.3062 56.3659 56.9938 56.5976 56.6499C56.0792 56.731 56.3014 56.1353 55.6856 56.2182C55.2944 56.2694 54.3893 56.8203 55.1724 55.5012C55.0356 55.3452 54.8561 55.6857 54.7566 55.7166C54.2858 55.8631 54.5594 55.1616 54.5438 55.0959C54.4447 54.6748 54.1738 54.7808 54.168 54.3444C54.007 54.5765 53.8501 54.7926 53.6912 55.0173C54.1465 54.8362 54.2337 54.9291 54.4561 55.2163C54.3283 55.189 54.1999 55.1627 54.0724 55.1355C53.9479 55.3284 53.8232 55.5213 53.6988 55.713C55.1099 55.6654 54.0419 56.64 53.1278 56.3258C53.3242 55.9422 53.518 55.558 53.7164 55.1744C52.9099 55.3601 53.0574 54.7685 52.6775 54.3011C52.6298 54.2444 52.2725 54.2739 52.1763 54.2134C52.1768 54.2159 52.1772 54.2183 52.1777 54.2207C51.876 54.4922 51.8375 54.696 51.6262 54.9846C51.5503 54.9819 51.4745 54.979 51.3987 54.9763C51.4591 54.677 51.6348 54.5307 51.3839 54.4152C51.2447 54.6511 51.1053 54.8868 50.9663 55.1227C50.7287 54.9471 50.7602 54.5961 50.4675 54.5266C50.567 54.4745 50.6662 54.4218 50.7657 54.3697C50.4635 53.7955 51.8212 52.8367 50.9801 53.1824C51.0443 53.0557 51.11 52.9283 51.1743 52.8016C51.3385 52.8887 51.5026 52.9767 51.6671 53.0636C51.792 52.9113 51.9166 52.7598 52.0409 52.607C51.8507 52.5315 51.6592 52.4569 51.47 52.3816C51.6634 52.3668 51.8577 52.3523 52.0514 52.3374C51.9323 52.1222 51.814 51.9074 51.6967 51.6931C51.4339 52.4098 51.1361 52.2856 50.7361 52.8838C50.7939 52.1661 51.0409 51.3562 50.2502 51.3662C50.0933 51.3686 49.8304 51.8005 49.9453 51.1095C49.5144 51.7865 48.9316 51.7965 48.5008 52.4234C48.6198 52.4727 48.7385 52.539 48.855 52.5755C48.9165 52.2871 49.353 51.7094 49.6434 51.6679C50.0136 51.615 49.993 52.242 50.4825 51.6049C50.5389 51.6986 50.5995 51.7758 50.6576 51.8633C50.5013 51.9933 50.3448 52.1249 50.189 52.2553C50.6058 52.1892 50.6824 52.3806 50.4776 52.8599C50.1389 52.7372 49.803 52.6144 49.4678 52.4914C49.4853 52.5494 49.5032 52.608 49.5216 52.665C49.0011 52.9049 48.9034 53.4505 48.4619 53.2354C48.611 53.0542 48.7598 52.8724 48.9097 52.6903C48.3868 53.075 47.9989 52.7566 47.67 53.4193C47.6928 53.1523 47.7574 53.0241 47.4475 53.2738C47.486 52.5986 47.7296 51.902 48.358 51.3458C48.1621 51.3582 47.9662 51.3707 47.7713 51.3835C47.693 51.612 47.6157 51.8399 47.538 52.0687C47.3517 51.8985 47.1649 51.7278 46.9805 51.5598C47.3849 51.0252 47.4813 51.7071 47.7463 51.1502C47.7995 51.0384 47.533 51.1531 47.5485 51.0782C47.7237 50.2747 47.8407 51.0547 48.1102 50.5499C47.7924 50.0653 48.7275 49.6164 47.6435 49.7482C47.7506 49.5859 47.8591 49.4196 47.9667 49.2592C47.7726 49.0842 47.5119 49.4354 47.2868 49.3565C47.1459 49.3067 47.4986 48.6027 47.0479 48.9076C46.9655 48.9643 46.5684 49.8536 46.1752 49.4732C45.8626 49.1715 46.4224 48.7753 46.3915 48.4438C46.3601 48.112 45.3594 48.4723 45.9068 47.5715C45.912 47.756 45.984 47.9137 46.0163 48.0883C46.1887 47.9681 46.3585 47.8485 46.5295 47.7286C46.1224 47.7295 46.0747 47.2863 45.605 47.523C45.7639 46.6901 44.9741 46.9204 44.5305 47.6392C44.7113 47.6345 44.8333 47.2607 44.8275 47.5597C44.7169 47.7211 44.6079 47.8826 44.4974 48.0441C44.2673 47.8187 44.0952 47.6796 44.5886 47.32C44.5599 47.2772 44.5317 47.2347 44.5032 47.192C44.2195 47.5144 43.9356 47.8387 43.6519 48.1611C43.5756 48.1598 43.4993 48.1579 43.423 48.1566C43.4338 48.0419 43.4452 47.9264 43.4564 47.8105C43.9635 47.3498 44.0922 47.4301 43.9572 46.816C43.8043 46.9941 43.6514 47.1711 43.4985 47.3492C43.3723 46.849 43.7379 46.4137 43.3109 46.075C44.1567 45.7272 43.3869 46.9695 44.4445 45.7228C44.4512 45.8697 44.4577 46.0184 44.4649 46.1656C44.6299 45.9947 44.795 45.8234 44.9594 45.652C44.4813 45.4092 42.7473 45.9746 43.1454 44.9514C43.0293 45.0179 42.9239 45.0716 42.801 45.1447C42.9352 44.4353 41.9018 45.3933 42.1551 44.5438C42.1825 44.4554 43.1023 43.5115 42.7185 43.2386C42.615 43.3754 42.4307 43.5967 42.2962 43.7658C42.2885 43.6196 42.2847 43.4703 42.2796 43.3231C42.1621 43.4302 42.0439 43.5367 41.9256 43.6446C42.0153 43.8049 42.1046 43.9659 42.1955 44.1267C42.051 44.0725 41.906 44.0178 41.7621 43.9638C41.7338 44.2824 41.7964 44.3407 41.4392 44.578C41.2996 44.4888 41.1594 44.4007 41.0207 44.3119C40.9384 44.3806 40.8553 44.4504 40.7729 44.5192C40.6242 44.8093 40.481 45.095 40.3299 45.3891C40.1821 44.9159 39.9031 44.651 40.0607 43.9605C40.0872 43.8437 40.5108 43.6689 39.9733 43.6889C40.1131 43.5213 40.2224 43.3815 40.3507 43.2258C39.5909 43.3683 39.5942 43.1271 39.5223 42.4709C39.4852 42.99 39.4521 42.6012 39.2453 42.7122C39.103 42.7887 39.279 42.9161 39.1551 43.0188C39.0319 43.1207 38.3977 43.4095 38.5262 43.6275C39.836 43.0437 38.9187 44.3215 39.9131 44.3621C39.7126 44.41 39.5113 44.4575 39.3109 44.5053C39.2772 44.6282 39.2461 44.7393 39.2113 44.8706C39.0579 44.3928 39.1051 44.6566 38.8394 44.6905C38.5736 44.7243 38.2207 44.6395 38.0246 44.5386C37.9628 44.5068 38.2105 44.3346 38.1156 44.2132C38.0512 44.1303 37.5523 44.2673 37.8455 43.8414C38.0367 43.5644 38.9815 43.1775 38.5194 42.7656C38.651 42.4439 38.8035 42.7176 38.8346 42.6925C39.1336 42.4378 39.0466 41.9663 38.7191 42.0712C38.6914 42.0808 38.5915 42.3991 38.4007 42.3873C37.9448 42.359 38.0336 41.9701 38.1685 41.4572C37.7801 41.8501 37.1077 42.1304 36.9616 41.7209C36.841 41.8247 36.7201 41.9301 36.5987 42.0347C36.6989 42.013 36.7983 41.992 36.8985 41.9702C36.88 42.0874 36.8826 42.1873 36.8514 42.3168C36.4741 42.1568 35.9229 42.6835 35.5988 42.7644C34.4918 43.0399 36.1297 41.8127 36.4462 41.6324C36.4121 41.7915 36.3652 41.9609 36.3262 42.125C36.4488 41.9766 36.5723 41.827 36.6962 41.6782C35.9984 41.0473 37.43 40.6582 37.3214 40.0737C36.5943 40.6902 36.2753 40.5209 36.3608 39.7822C36.322 39.7528 36.2856 39.7207 36.2462 39.6922C36.1469 39.7882 36.0041 39.9433 35.9329 40.0012C35.4385 39.7615 36.3607 38.6293 36.4156 38.4919C36.6647 37.8875 35.9599 38.3878 35.9059 38.3472C35.68 38.1763 35.8772 37.8456 35.5732 37.7816C35.246 37.7134 35.1911 38.0579 34.9513 38.1868C34.7603 38.2887 34.5714 38.1609 34.3585 38.2521C34.5044 38.1507 34.6509 38.0545 34.797 37.9525C34.7447 37.5772 34.7292 37.2444 34.5295 36.9749C33.3846 37.6419 34.6343 35.8676 33.5284 37.2182C33.6715 37.5195 33.6625 37.7845 33.4802 38.2231C33.2913 38.1217 33.1041 38.0196 32.9167 37.9189C33.0049 37.739 33.1027 37.575 33.1854 37.3849C32.79 37.5681 32.6432 37.1863 32.4573 37.1725C31.5862 37.1082 31.2546 37.7496 31.6236 36.4883C32.0171 36.7119 32.4077 36.304 32.6692 36.664C32.8798 36.3069 32.6625 36.2134 33.1004 35.964C32.7148 35.7573 32.5139 36.1634 32.1304 36.3256C31.7997 36.4654 31.5835 36.2813 31.2967 36.6014C31.44 36.4114 31.5827 36.2314 31.7259 36.0418C31.5303 35.855 31.3378 35.6675 31.1454 35.4824C31.3986 35.3854 31.6521 35.2879 31.9045 35.1915C31.9076 35.0645 31.9106 34.9378 31.9142 34.8111C30.9105 34.903 31.0548 33.0683 29.8394 34.5747C29.5662 34.3901 29.7077 34.19 29.8404 33.8079C29.7239 33.8982 29.6251 33.9714 29.4969 34.0735C29.4582 33.8188 28.9595 34.0964 28.932 33.867C28.904 33.6385 29.2389 33.24 28.6048 33.8384C28.6982 33.578 28.7663 33.3521 28.8432 33.0999C28.6517 33.188 28.4618 33.2745 28.2716 33.3622C28.2647 33.2079 28.2577 33.054 28.2517 32.9003C27.9138 33.1504 27.7291 32.708 27.3949 32.7664C27.5847 32.3197 28.5921 31.331 28.1137 31.2039C27.8718 31.4573 27.6305 31.71 27.3887 31.9635C27.3722 31.8421 27.3557 31.721 27.3394 31.5996C27.4168 31.5153 27.4948 31.4316 27.5723 31.3474C27.5818 31.4077 27.591 31.4675 27.5998 31.5288C27.7075 31.3623 27.8153 31.1971 27.9237 31.0313C27.6158 31.126 27.3078 31.2205 26.9997 31.3147C26.9838 31.6095 26.9693 31.9056 26.9562 32.2026C26.5951 32.2009 26.6556 31.8955 26.2984 31.9392C26.5089 31.4621 26.7577 31.3184 27.1887 31.0093C27.1063 30.9887 27.0225 30.9644 26.9392 30.9429C27.3471 30.6097 27.4909 30.3093 27.7503 30.6371C27.8376 30.5122 27.9196 30.3918 28.0117 30.2635C27.9491 30.2329 28.0059 30.1098 27.9112 30.0951C27.6516 30.0545 26.8796 30.5819 26.6579 30.8174C26.5419 30.941 26.9184 30.8645 26.7413 31.0256C26.3095 31.4184 26.163 30.8909 26.2251 31.7968C25.7988 31.891 25.9634 31.6583 25.8654 31.4025C25.7396 31.5522 25.6144 31.7007 25.4882 31.8499C25.4711 31.7033 25.454 31.5571 25.4378 31.4111C26.2654 30.8307 25.9467 29.959 27.1037 29.9006C26.9789 29.7067 26.8563 29.5143 26.7365 29.3213C26.842 29.283 26.9467 29.2456 27.0522 29.2073C27.0828 29.3175 27.114 29.4268 27.146 29.5366C27.1981 29.3205 27.2498 29.1054 27.3031 28.8902C26.9432 28.8507 26.6111 29.0204 26.2056 29.2344C26.1968 29.6908 26.4406 29.3097 26.6784 29.4315C26.4713 29.6191 26.2946 29.8059 26.068 29.9937C26.3931 29.497 25.7968 29.4826 25.709 29.4314C25.4418 29.2756 26.0128 29.0508 25.8848 28.8991C25.7603 28.7513 25.3435 28.8037 25.6363 28.2931C25.4096 28.5132 25.1823 28.7485 24.9824 28.9558C24.6858 28.7935 25.0008 28.5833 25.0129 28.5258C25.2273 27.5952 24.5471 27.8515 24.0865 27.4781C24.066 27.5995 24.0531 27.7151 24.0379 27.8333C23.2465 27.9692 23.5985 28.0453 23.7034 28.4812C23.503 28.1693 22.9462 28.41 22.6492 28.3405C22.3493 28.2675 22.2495 27.7286 22.307 27.4538C22.8297 27.477 22.9411 27.9532 23.285 28.1727C23.4881 27.9186 23.6561 27.6995 23.8817 27.4229C23.2241 27.7083 23.4505 27.2885 23.4586 27.1656C23.482 26.8047 23.0637 27.2061 23.4186 26.6718C23.2658 26.8225 23.1369 26.9487 22.9944 27.0898C22.7136 26.6552 22.6301 26.0043 21.8319 26.3061C22.1908 25.9351 22.5408 25.5823 22.9049 25.2012C22.4807 25.3125 22.6526 24.9119 22.4613 24.8369C22.2723 24.7645 22.0118 25.0968 21.7506 25.0483C21.7024 25.0392 21.8398 24.8029 21.6334 24.8617C21.4256 24.9205 20.1252 25.6253 21.0246 24.7487C20.9092 24.6125 20.8307 24.4573 20.731 24.3152C20.8958 24.3922 21.0599 24.4714 21.2259 24.5492C21.3534 24.2369 21.4818 23.9268 21.6112 23.6163C21.3983 23.7852 21.1817 23.9573 20.9718 24.1243C20.4739 24.0655 20.6035 23.5467 20.2578 23.3185C20.2001 23.2806 19.907 23.7569 19.8107 23.4447C19.7153 23.1331 20.3142 22.3016 19.7019 22.1955C19.6689 22.1886 19.0095 22.6006 19.2788 22.1049C19.3406 21.9934 19.5907 22.0069 19.6443 21.8295C19.6974 21.6515 19.5118 21.2467 19.7712 20.9722C19.6748 21.0643 19.5893 21.1758 19.4966 21.2757C19.4012 21.264 19.3055 21.2521 19.2108 21.2394C19.3815 21.0783 19.5521 20.9165 19.7219 20.7562C19.0411 20.8108 18.2416 21.2512 18.0631 20.6034C17.9276 20.9649 17.7745 21.3084 17.632 21.6619C17.8414 21.5373 18.0521 21.4118 18.2611 21.2868C18.3725 21.5572 18.488 21.8307 18.6056 22.1071C18.8399 21.9608 19.0731 21.8144 19.3075 21.6681C19.3313 21.7483 19.3557 21.8274 19.38 21.9079C19.2206 22.0249 19.0617 22.141 18.9017 22.2574C19.0382 22.3383 19.1764 22.4193 19.3052 22.4913C18.2488 23.0529 18.8162 21.7922 18.12 22.4724C18.1881 22.3218 18.257 22.1706 18.3264 22.0196C17.9551 22.3115 17.9661 22.1193 17.8655 21.8935C17.7277 22.0883 17.5961 22.2853 17.4539 22.4787C17.5454 22.0876 17.2552 21.8072 17.1971 21.5506C17.1689 21.4348 17.4948 21.2877 17.5039 21.2371C17.5508 20.9731 16.8979 21.1342 16.8905 21.0544C16.8444 20.5773 17.5278 19.6424 16.701 19.8305C16.8411 20.2685 16.7482 20.0451 16.5377 20.4325C16.4716 20.5538 16.6335 21.1477 16.2676 20.5498C16.2342 20.4891 15.9711 19.0064 16.6983 18.9269C16.4176 18.897 16.1459 18.9224 15.871 18.9169C16.7532 17.5312 15.7475 18.6319 15.2227 19.2707C15.1712 19.2175 15.1187 19.1704 15.0689 19.1139C15.8213 18.6711 15.3052 18.0045 14.7891 18.0745C14.6183 18.0985 14.5904 18.4812 14.347 18.4018C14.3224 18.2831 14.3022 18.1429 14.2801 18.0167C13.98 18.4958 13.6185 18.4031 13.2102 18.7744C13.4474 18.3009 14.1258 17.4957 14.6176 17.1987C14.3442 17.2355 14.0493 17.2478 13.7675 17.2776C13.7226 17.4238 13.6796 17.5704 13.6352 17.7173C13.5142 17.0601 12.4897 17.1038 13.2621 16.2308C13.2054 16.1809 13.1494 16.13 13.0935 16.081C12.934 16.1967 12.7748 16.3132 12.6155 16.4292C12.5159 16.069 12.4299 15.7245 12.3343 15.3749C12.619 15.5008 12.8637 15.3548 12.9046 15.7324C12.9902 15.4932 13.0755 15.2521 13.1628 15.0156C12.4231 15.1123 12.062 15.3064 11.7287 14.7035C11.7219 14.6834 11.704 13.9427 11.7235 13.8937C11.8223 13.6729 12.1449 13.5296 12.1984 13.4215C12.3499 13.117 12.4467 12.0915 12.5367 12.0117C13.6679 11.0025 15.337 12.6759 15.7405 13.0211C20.3737 16.9555 23.1316 21.8628 27.1861 25.8727C27.2283 25.9134 27.3705 25.7434 27.3945 25.7551C27.5409 25.83 27.3977 26.1777 27.4273 26.2296C27.4912 26.3397 27.6739 26.0718 27.7363 26.1374C28.3817 26.8242 28.8166 27.548 29.5148 28.1912C29.5599 28.2327 29.3348 28.3647 29.4418 28.4107C29.497 28.4325 29.9012 28.2906 29.9868 28.3701C30.2927 28.6559 30.4519 28.9973 30.7725 29.3153C30.9479 29.4889 31.1867 29.7781 31.3887 29.9737C31.4778 30.0601 31.6951 30.0265 31.7862 30.1098C31.9155 30.2282 31.6354 30.458 31.6378 30.4922C31.6483 30.6415 31.939 30.3724 32.0082 30.4551C32.1361 30.6101 31.9571 30.805 32.1537 30.9699C32.2945 31.0873 32.7398 31.2363 32.9491 31.3574C33.1173 31.9565 33.7208 32.3795 34.138 32.645C34.3918 32.8089 34.1545 33.0943 34.2425 33.1784C34.5555 33.4729 35.1195 33.3611 35.4249 33.6342C35.8298 33.9967 35.9717 34.5652 36.3237 34.9311C36.3819 34.9913 36.6009 34.7316 36.6664 34.7818C36.9084 34.9679 37.235 35.1919 37.402 35.4156C37.5884 35.6643 37.3354 36.1019 37.6249 36.2359C37.7101 36.2749 38.0231 35.9767 38.1698 36.0379C38.4023 36.136 38.3397 36.5979 38.4252 36.7352C38.5482 36.9268 38.7059 36.4732 38.8839 36.7188C38.8912 36.729 38.7109 36.9905 38.7681 37.0231C38.9342 37.1189 39.0878 36.9239 39.2736 37.1275C39.2905 37.1476 39.3572 37.6163 39.3836 37.6421C39.538 37.7907 39.7885 38.1622 39.9265 38.2019C40.4186 38.3444 40.4675 37.7492 40.0693 38.7745C40.366 38.7049 40.6641 38.6317 40.9642 38.5743C40.7245 38.6644 40.8607 39.2307 40.9003 39.2377C41.2226 39.2981 41.3648 38.8888 41.5852 39.1762C40.6201 39.5485 41.848 39.5727 42.0207 39.6949C42.8446 40.2786 43.4094 41.0851 44.1579 41.7315C44.4132 41.9516 44.8837 42.1025 45.1539 42.3427C45.2174 42.3981 45.0268 42.5218 45.0799 42.574C45.1338 42.625 45.2315 42.3854 45.287 42.4506C45.6281 42.8579 45.6505 43.487 46.3889 43.3581C46.3522 43.4366 46.3089 43.4865 46.2782 43.581C46.905 43.436 47.0249 44.4517 47.1813 44.7088C47.4249 45.1092 47.7373 44.9146 47.9406 45.1778C48.2085 45.5265 48.2737 46.4713 48.771 45.416C49.0221 45.5797 49.2492 45.756 49.4035 46.0204C49.4209 46.0503 49.2211 46.2574 49.2274 46.2702C49.2644 46.3545 49.4484 46.1733 49.4987 46.1997C49.635 46.2713 49.2499 46.3518 49.4702 46.4227C49.587 46.4596 49.7786 46.3275 50.0257 46.5252C51.5269 47.7316 53.0933 49.099 54.6314 50.3611C54.7377 50.448 54.838 50.1737 54.9623 50.2942C55.4054 50.7224 55.927 51.7228 56.3705 51.9862C56.8104 52.2468 56.9677 51.8552 57.323 51.9152C57.3918 51.9266 57.211 52.0792 57.253 52.1161C57.5364 52.3619 57.6741 52.9227 57.8855 53.153C58.0249 53.3056 58.2323 53.0062 58.3602 53.0713C58.5501 53.169 58.501 53.5938 58.5838 53.6717C58.9613 54.0243 59.4197 54.0003 59.7144 54.4119C59.7473 54.3365 59.7819 54.2697 59.8165 54.197C60.2643 54.5514 60.7161 54.9068 61.173 55.2639C61.1947 55.1888 61.2175 55.1138 61.2399 55.0378C61.761 55.4766 61.2287 56.0681 62.1757 54.6861C62.2505 54.6682 62.3332 54.6446 62.4035 54.6292C61.8746 55.3106 61.8343 56.0673 62.1269 56.5563C62.1474 56.592 62.8472 56.0634 62.2378 56.8483C62.4345 56.6914 62.5651 56.5795 62.736 56.4402C62.6456 56.7472 62.5589 57.0524 62.47 57.3588C62.5439 57.3575 62.6175 57.3579 62.6914 57.3566C62.8132 57.2045 62.927 57.0373 63.0549 56.8941C63.292 57.0317 63.605 57.5588 63.796 57.6673C64.2704 57.9358 65.0266 57.8338 65.0404 58.5452C65.2427 58.6196 65.298 58.1884 65.5205 58.4084C65.4362 58.5861 65.355 58.7561 65.2686 58.9396C65.9768 58.3843 65.7151 58.8438 65.8912 59.1924C66.0048 59.4248 66.2487 59.3395 66.4016 59.4995C66.4403 59.5402 66.2871 59.7425 66.3226 59.7577C66.4406 59.8098 66.9367 59.7346 67.0152 59.7787C67.7297 60.1739 68.2817 60.6115 68.8726 61.1396C68.9364 61.1959 68.9898 60.9275 69.0554 60.9865C69.1612 61.0809 68.8735 61.3491 68.9296 61.4115C69.0878 61.5838 69.3206 61.2516 69.5942 61.4167C70.4927 61.9589 71.2695 62.866 72.1553 63.5044C72.1833 63.5235 72.3153 63.3258 72.347 63.3446C72.5518 63.4705 72.5731 63.8739 72.7566 63.9945C73.0604 64.1955 73.4743 64.0727 73.7733 64.2764C74.3623 64.6761 74.7601 65.1496 75.3509 65.5559C75.8312 65.8867 76.2726 66.1422 76.8114 66.5002C79.1846 68.0754 81.9754 68.9772 84.1513 70.8219C84.206 70.8689 84.07 71.0315 84.0933 71.0354C84.3168 71.0688 84.4827 70.8382 84.2307 71.3808C84.5167 71.4224 84.8234 71.0885 85.0779 71.2855C85.2138 71.3903 84.7405 71.9095 85.1743 71.7604C85.5666 71.6255 85.5198 71.1503 85.9782 71.8919C85.9901 71.9119 85.8549 72.324 86.051 72.3167C86.2471 72.3107 86.2444 71.954 86.627 72.0845C87.5309 72.3954 88.3266 73.3127 89.2861 73.7662C89.3462 73.7947 90.0106 73.9353 90.1729 73.9122C90.4871 73.8667 90.6047 73.5719 90.9173 73.6716C91.1588 73.7487 91.151 74.1583 91.4371 74.2482C91.4707 74.2583 91.7067 73.9747 91.8697 74.1293ZM43.4316 48.4633C43.1548 48.6975 42.2206 49.6319 42.1994 49.0874C42.1974 49.0361 42.9252 48.4667 42.8645 48.2256C43.0767 48.2809 43.2437 48.3823 43.4325 48.4622C43.4322 48.4625 43.4319 48.4629 43.4316 48.4633ZM88.9537 82.1744C88.7451 81.9729 88.5361 81.7717 88.3291 81.5706C88.5768 81.5333 88.8247 81.4963 89.0727 81.4576C89.0332 81.6964 88.9929 81.9353 88.9537 82.1744ZM60.4095 62.6614C60.4097 62.6616 60.4099 62.6617 60.4101 62.6619C60.0746 62.6277 59.7394 62.5937 59.4053 62.5596C59.5035 62.4765 59.6021 62.3931 59.7002 62.3099C60.001 62.2859 60.302 62.2621 60.6028 62.2375C60.5383 62.3788 60.4739 62.5201 60.4095 62.6614ZM63.0641 62.9464C63.1311 63.1775 62.9458 63.353 62.8866 63.6111C62.8869 63.6107 62.8871 63.6104 62.8874 63.61C62.8721 63.6772 62.9404 63.7946 62.9738 63.8302C63.0504 63.692 63.1217 63.5525 63.1965 63.4145C63.7621 63.3522 63.6665 64.9422 62.4664 64.7539C62.5944 64.6018 62.7212 64.4501 62.8492 64.298C62.3851 64.0345 62.1244 63.3174 63.0641 62.9464ZM39.7348 46.0266C38.9646 46.2136 38.7571 46.2133 38.6185 45.4969C38.8009 45.4128 38.9833 45.3287 39.1657 45.2445C39.1132 45.4484 39.0614 45.6511 39.0095 45.8555C39.0097 45.8556 39.0099 45.8558 39.0101 45.856C39.1543 45.7206 39.2988 45.5849 39.4424 45.4489C39.5446 45.6459 39.6367 45.8338 39.7348 46.0266ZM77.5117 73.3354C76.9211 74.497 77.2961 73.8424 76.8271 73.8875C76.6646 73.9033 76.647 74.1619 76.5596 74.1504C76.0863 74.0899 76.5284 73.3413 76.8533 73.0134C77.0734 73.1194 77.2948 73.2292 77.511 73.335C77.5112 73.3351 77.5115 73.3353 77.5117 73.3354ZM87.1292 79.0337C87.1294 79.0339 87.1296 79.034 87.1298 79.0342C86.9761 79.3107 86.7838 79.2935 86.7964 79.6516C86.6697 79.5733 86.5438 79.494 86.4169 79.4154C86.4696 79.4129 86.5223 79.4121 86.575 79.4097C86.598 79.2966 86.6218 79.1824 86.645 79.0694C86.4119 79.3531 86.4792 79.1468 86.4092 78.9618C86.2449 79.3163 86.0804 79.6711 85.9163 80.0257C85.8211 79.8324 85.7259 79.6385 85.6316 79.4455C85.6804 79.3607 85.7293 79.2757 85.7781 79.1909C85.6552 79.2623 85.532 79.3353 85.409 79.4067C85.4539 79.2972 85.4987 79.1889 85.5436 79.0795C85.4276 79.1123 85.3116 79.145 85.1951 79.1788C85.3209 78.924 85.5384 78.9138 85.2281 78.8081C85.4627 78.6114 85.6966 78.4153 85.9317 78.2187C86.329 78.4894 86.728 78.7613 87.1292 79.0337ZM74.4779 71.8352C74.9608 72.0876 74.7216 72.1756 74.2653 72.644C74.3362 72.3744 74.4065 72.1045 74.4779 71.8352ZM52.3921 55.3247C52.0023 55.5754 51.6186 55.8253 51.2308 56.0578C50.8252 56.0499 51.0642 55.2225 51.4472 55.1262C51.9082 55.0116 51.888 55.5294 52.3921 55.3247ZM46.6372 50.9555C46.8065 51.3576 46.197 51.5296 45.9375 51.7086C46.1638 51.2637 46.0219 51.2024 45.8746 51.0071C46.0668 51.1251 46.6099 50.8884 46.6381 50.9544C46.6378 50.9548 46.6375 50.9551 46.6372 50.9555ZM57.0323 59.4992C57.1644 59.5819 57.3613 59.5767 57.3843 59.7794C57.1008 60.0901 57.1049 59.6173 56.8941 60.2347C56.8078 60.1833 56.7218 60.1317 56.6356 60.0818C56.8395 59.9134 56.8868 59.7087 57.0318 59.5005C57.032 59.5001 57.0321 59.4996 57.0323 59.4992ZM69.8877 69.3636C69.9091 68.7793 69.7426 68.9226 69.2939 69.0325C69.484 68.6739 70.1676 68.3215 70.4424 68.3281C70.2572 68.673 70.0721 69.0182 69.8877 69.3636ZM15.7214 21.7859C16.1522 21.4975 16.5719 21.8726 16.6325 22.1709C16.5551 22.1983 16.4768 22.2263 16.3985 22.2546C16.1718 22.0975 15.944 21.9388 15.7214 21.7859ZM45.8096 50.9082C45.8307 50.9452 45.8526 50.9779 45.8746 51.0071C45.8406 50.9862 45.8167 50.9551 45.8096 50.9082ZM35.1205 38.5245C35.5445 38.2577 35.3783 37.8784 35.5856 38.3332C35.5859 38.3328 35.5862 38.3325 35.5865 38.3322C35.7248 38.633 35.7518 38.7039 35.9353 38.9267C35.4369 39.3133 34.8595 39.0789 35.3592 39.7208C35.3659 39.7278 35.6052 39.4444 35.66 39.5647C35.6771 39.6021 35.5595 39.908 35.6358 40.0995C35.6606 40.1611 35.9285 40.5373 35.4729 40.1229C35.192 40.4544 34.8698 40.7547 34.5852 41.0651C34.3271 40.9924 34.764 40.2379 34.5567 40.0728C34.2484 39.8301 33.5182 40.3231 34.2331 39.4477C34.6591 39.468 35.0759 39.848 34.67 40.3964C34.8948 40.6169 35.3319 40.2646 35.339 39.8958C34.3015 39.4056 35.6781 39.0857 34.6817 38.7593C34.5665 38.8662 34.4228 38.9627 34.3265 39.0745C34.4927 38.4732 34.9688 38.62 35.1205 38.5245ZM35.9543 40.9378C35.5941 41.0565 35.2326 41.1774 34.8723 41.2972C35.2383 40.8998 35.6405 40.6118 36.0601 40.5849C36.0242 40.7026 35.9891 40.8209 35.9543 40.9378ZM24.6743 30.0412C24.4441 30.2252 24.2014 30.3605 23.9642 30.5167C24.1037 30.3052 23.3356 29.1467 23.9886 29.4841C24.0804 29.53 24.1402 30.3476 24.6743 30.0412ZM71.8852 70.1758C71.864 69.9244 71.8439 69.6733 71.8242 69.4227C72.0923 69.4521 72.3628 69.4789 72.633 69.5064C72.3837 69.7294 72.1348 69.9529 71.8852 70.1758ZM50.6794 53.3155C50.7247 53.3658 50.3005 53.5443 50.5458 53.6583C50.2319 53.7387 49.9526 53.7956 49.652 53.8664C49.7262 53.681 49.7995 53.496 49.8739 53.3107C49.7628 53.379 49.6515 53.446 49.5403 53.5142C49.7346 53.3131 49.9225 53.1152 50.1207 52.9112C49.9995 53.5788 50.4785 53.095 50.6794 53.3155ZM58.9274 58.2989C58.6137 58.8199 58.0226 58.8277 58.3355 59.182C58.0283 59.4489 57.7906 59.5317 57.553 59.3981C57.609 59.2501 57.6645 59.1031 57.7207 58.9552C57.4729 59.278 57.327 59.3576 57.0323 59.4992C57.0325 59.4987 57.0326 59.4982 57.0328 59.4978C56.6874 59.2753 56.7885 59.1814 57.1108 58.5868C57.2298 59.1488 57.6065 58.6672 58.0596 58.5527C58.371 58.4738 58.5164 58.7236 58.9274 58.2989ZM25.662 31.0625C25.0816 31.1957 24.9294 31.7249 24.9428 30.9555C25.0604 30.8907 25.1773 30.8267 25.2948 30.7619C25.4175 30.8608 25.5398 30.9611 25.662 31.0625ZM58.9227 60.8788C59.4517 60.105 59.646 59.3418 58.7028 60.5396C58.7487 60.9596 59.1499 60.1826 58.9227 60.8788ZM47.6672 49.9039C48.054 50.2784 47.3088 51.034 46.8024 51.3021C46.8975 51.1314 46.993 50.9605 47.0881 50.7913C46.96 50.799 46.8317 50.8067 46.7045 50.8135C47.0253 50.5107 47.3467 50.2069 47.6672 49.9039ZM67.2693 65.5952C66.5471 65.9078 67.4202 66.1534 66.9471 66.3332C66.5739 66.4805 66.6974 65.7448 67.0354 65.4655C67.1086 65.5021 67.1874 65.5469 67.2686 65.5948C67.2688 65.5949 67.2691 65.5951 67.2693 65.5952ZM65.1856 64.3685C64.8304 64.9927 64.87 64.7657 65.2112 64.849C65.308 64.8727 65.7644 65.5216 65.8474 64.8559C65.6295 64.7029 65.4062 64.5329 65.1856 64.3685ZM42.2265 46.6891C42.4251 46.4497 43.3069 46.3069 43.2528 46.4854C43.2531 46.485 43.2534 46.4847 43.2537 46.4843C43.1039 46.9698 42.5964 46.6214 42.3828 47.2806C42.3025 46.4699 41.286 47.3893 42.4842 46.0552C42.7952 46.2197 42.4318 46.3942 42.2265 46.6891ZM12.1353 15.5693C12.1351 15.5691 12.1349 15.5689 12.1347 15.5687C12.1557 15.6121 12.0228 16.1388 11.8836 16.2215C11.7411 15.8703 11.9912 15.6974 11.393 15.7845C11.4947 15.6605 11.5946 15.5418 11.6959 15.4158C11.8605 15.4517 12.053 15.3769 12.1353 15.5693ZM24.1226 28.5456C24.277 28.591 24.2077 29.0091 24.3329 29.1123C23.0412 29.6307 23.5077 28.3629 24.1226 28.5456ZM82.6555 76.3331C82.6549 76.3333 82.6544 76.3335 82.6538 76.3336C82.6543 76.3331 82.6547 76.3326 82.6552 76.3321C82.6553 76.3324 82.6554 76.3328 82.6555 76.3331ZM31.1523 36.7966C31.1978 36.7236 31.2413 36.664 31.2832 36.6154C31.2874 36.611 31.2916 36.6067 31.2958 36.6024C31.248 36.6657 31.2001 36.7302 31.1523 36.7966ZM41.2643 45.9801C41.3695 45.4965 42.4157 45.4919 42.5034 45.785C42.3607 45.9235 42.2415 46.0578 42.0615 46.2029C42.2387 45.6782 41.2463 46.0615 41.2643 45.9801ZM55.3726 57.2602C54.8758 56.8656 56.5675 56.0016 55.7686 57.1117C55.7515 57.132 55.387 57.2683 55.3726 57.2602ZM45.1385 49.0519C45.5942 48.7567 45.4338 48.4429 45.7737 48.8441C45.7109 48.9669 45.648 49.0898 45.5854 49.2126C45.4363 49.1588 45.287 49.1056 45.1385 49.0519ZM53.5205 52.9798C52.7169 52.7163 51.8114 52.6481 51.3301 54.0925C51.4057 54.0937 51.481 54.0966 51.5566 54.0978C51.995 53.5544 51.9332 53.9914 52.1759 54.2113C52.3832 54.0218 52.565 54.0833 52.7368 53.9187C53.0685 53.6004 53.1024 53.2199 53.5205 52.9798ZM79.8556 72.9645C79.781 73.0582 79.7062 73.1526 79.6322 73.2454C79.4544 73.2914 79.2767 73.3367 79.099 73.3827C79.2388 73.2006 79.3787 73.0186 79.5184 72.8365C79.6307 72.8789 79.7427 72.921 79.8553 72.9635C79.8554 72.9638 79.8555 72.9641 79.8556 72.9645ZM37.5106 40.368C36.5749 41.289 36.9219 41.28 37.7453 41.1335C37.666 40.8779 37.5873 40.6223 37.5106 40.368ZM63.2347 60.9575C63.0307 61.2699 62.8272 61.5812 62.624 61.8941C63.0705 61.7376 63.2779 61.361 63.4602 60.8843C63.3848 60.9085 63.31 60.9334 63.2347 60.9575ZM66.4597 63.0635C66.4134 62.9357 66.2871 63.2148 66.2811 63.2032C66.1418 62.9114 66.1889 62.7758 65.7778 62.7623C65.6979 62.8026 65.6162 62.8466 65.535 62.8888C65.2152 63.6192 65.5543 63.3379 65.567 63.9086C65.671 63.6542 65.7755 63.3997 65.8805 63.1444C66.0012 63.299 66.1221 63.4527 66.2438 63.6076C66.3094 63.5528 66.3746 63.4987 66.4403 63.4439C66.4463 63.3183 66.4583 63.1808 66.4597 63.0635ZM80.895 74.0274C81.0307 74.1497 81.1669 74.2736 81.3034 74.3961C81.4113 74.2367 81.5196 74.0761 81.6274 73.9167C81.3833 73.9537 81.1388 73.9905 80.895 74.0274ZM34.3585 38.2521C34.3013 38.2919 34.2441 38.3322 34.1872 38.3745C34.2463 38.3133 34.3033 38.2758 34.3585 38.2521ZM12.5566 14.4814C12.5045 14.2326 12.2455 14.0923 12.0974 13.903C11.7821 14.2687 12.2577 14.5644 12.1939 14.9222C12.2791 14.8862 12.5776 14.5853 12.5566 14.4814ZM48.2161 50.4091C48.4083 50.2555 48.5997 50.1027 48.7912 49.9484C48.8723 50.0482 48.9529 50.1494 49.0351 50.2499C49.1621 50.0992 49.29 49.9472 49.4169 49.7964C48.8231 49.6423 49.2812 49.2826 49.4226 48.6744C49.0206 49.2523 48.6182 49.8298 48.2161 50.4091ZM86.4819 76.0379C86.0758 75.9451 85.8267 76.0841 85.7081 76.7053C85.8977 76.6626 86.0882 76.6202 86.278 76.5775C86.3457 76.3975 86.4135 76.2174 86.4819 76.0379ZM29.4363 32.8372C29.0462 32.7581 29.597 32.1874 29.05 32.2645C29.072 32.4945 29.0938 32.7264 29.1173 32.9573C29.2244 32.9184 29.3304 32.8773 29.4363 32.8372ZM42.8804 42.4613C42.9553 42.1599 41.9096 42.9872 42.2396 41.9872C41.9771 42.1408 41.7499 42.3083 41.5012 42.4662C41.6685 42.2032 41.8338 41.9331 42.0016 41.6736C42.0014 41.6734 42.0012 41.6733 42.001 41.6731C41.6607 41.5103 41.5814 41.9559 41.3593 42.1957C41.2668 42.2947 41.2149 41.9459 41.0829 42.2229C40.8564 42.6987 41.4587 42.843 41.0532 43.3078C41.0412 43.0284 40.6493 42.9061 40.4603 43.2885C40.2529 43.7084 41.0188 43.3751 40.9423 43.8074C41.3506 42.8529 41.6449 43.5182 41.1997 44.1348C41.8681 43.9477 41.7603 43.5379 41.4521 43.3026C42.0126 43.0228 41.5427 43.0269 41.814 42.6229C42.1987 42.5744 42.6607 43.3024 42.8804 42.4613ZM56.2226 54.7808C55.9865 54.6468 55.858 54.1288 55.4154 54.4058C55.1572 54.567 55.3539 54.9981 54.8525 55.1771C55.0855 55.3019 55.2394 55.1993 55.4429 54.8603C55.5187 54.8592 55.5944 54.8594 55.6694 54.8592C55.6447 54.9368 55.6211 55.0141 55.5964 55.0918C55.7194 54.9825 55.8417 54.8744 55.9641 54.7646C55.9949 54.8285 56.0263 54.8929 56.0566 54.9577C56.1118 54.8976 56.1648 54.8492 56.2226 54.7808ZM22.7429 25.8721C22.796 25.9229 22.8488 25.9733 22.9031 26.0236C22.9677 25.9526 23.0342 25.8779 23.1 25.8042C23.1525 25.7466 23.2049 25.6889 23.2574 25.6312C23.0823 25.8507 22.9834 26.4238 23.3026 26.3325C23.4626 26.2866 23.7324 25.8012 24.0169 25.973C23.8394 25.8213 23.642 25.7137 23.4588 25.581C23.5874 25.489 23.7166 25.3953 23.8451 25.3033C23.8451 25.3031 23.8452 25.3028 23.8453 25.3026C23.8213 25.2244 23.7982 25.1445 23.7746 25.0666C23.4304 25.3353 23.0872 25.6037 22.7429 25.8721ZM63.487 60.2307C63.1011 60.3317 62.9387 60.4114 62.7451 60.886C62.7451 60.8863 62.7452 60.8867 62.7453 60.887C62.951 60.7636 63.1567 60.6402 63.3623 60.5167C63.404 60.4216 63.4459 60.3262 63.487 60.2307ZM33.9169 35.5616C32.2178 36.5506 33.904 36.5638 34.1796 35.9353C34.1921 35.9065 33.809 35.7476 33.9169 35.5616ZM47.9596 49.3912C48.0826 49.4726 48.2052 49.5555 48.3294 49.6376C48.4499 49.4359 48.5695 49.2344 48.6902 49.0328C48.4471 49.1521 48.2029 49.2722 47.9596 49.3912ZM85.438 74.3853C85.5771 73.8607 85.3365 73.4899 84.8738 73.8671C84.9261 73.9775 84.9786 74.088 85.0312 74.1984C84.832 74.1511 84.6316 74.1105 84.4336 74.0595C84.0439 74.669 84.4557 74.4312 84.6397 74.7803C84.6673 74.8353 84.483 75.7778 84.9373 75.263C85.0301 75.1569 84.7746 74.8872 85.1988 74.6743C85.1228 74.5897 85.0392 74.5462 84.9611 74.4769C85.0453 74.3263 85.1295 74.1756 85.2131 74.0247C85.2882 74.1447 85.3625 74.2651 85.438 74.3853ZM54.9593 53.8765C54.6966 53.622 54.485 53.8232 54.1126 54.1806C54.2812 54.2386 54.4496 54.2975 54.6189 54.3556C54.7318 54.196 54.8456 54.0371 54.9593 53.8765ZM82.755 72.5126C82.632 72.3362 82.4827 72.7336 82.3733 72.758C81.9605 72.8489 81.9454 72.4877 81.596 72.4868C81.6554 72.4294 81.7106 72.3756 81.7682 72.3199C81.7679 72.3197 81.7677 72.3196 81.7675 72.3195C80.7368 71.2491 80.8799 72.4582 81.68 72.7839C81.6142 72.9253 81.5477 73.0664 81.4826 73.2067C81.9449 73.1797 82.3782 73.1455 82.755 72.5126ZM37.4206 38.7765C37.4743 38.6944 37.9901 38.3343 37.6078 38.3726C36.8516 38.8955 37.3967 38.7932 37.2248 39.1041C37.1154 39.1203 37.0066 39.1338 36.8979 39.1505C37.0313 39.6194 37.2212 39.5038 37.5528 38.9176C37.5746 38.8778 37.3671 38.8584 37.4206 38.7765ZM35.708 36.5693C34.7601 37.4927 35.5523 37.4232 35.8191 37.1104C35.777 37.0483 35.5825 37.1726 35.594 37.0472C35.605 36.9214 35.8018 36.6825 35.708 36.5693ZM46.8113 46.8821C46.803 46.8674 47.0389 46.3398 46.7721 46.6839C46.2608 47.5994 46.9877 47.3433 47.1639 47.0231C47.0528 46.9533 46.8875 47.0165 46.8122 46.881C46.8119 46.8814 46.8116 46.8817 46.8113 46.8821ZM87.6562 75.3845C87.6689 75.3491 87.4572 74.9575 87.3072 75.1088C87.1508 75.287 87.0032 75.4902 86.8512 75.6807C87.1482 75.5999 87.4261 75.9701 87.6555 75.3841C87.6557 75.3842 87.6559 75.3843 87.6562 75.3845Z" fill="#E7E7E7"/>
</g>
<mask id="mask1_206_14162" style="mask-type:alpha" maskUnits="userSpaceOnUse" x="3" y="6" width="39" height="38">
<path d="M13.7007 25.3793L24.2019 14.1853L28.0051 15.6178L28.1469 15.7892L27.9254 17.4841L29.6067 19.7527L32.5116 23.6702L22.8282 33.9924L13.7007 25.3793Z" fill="#D9D9D9" stroke="white" stroke-width="13.9291"/>
</mask>
<g mask="url(#mask1_206_14162)">
<path d="M-22.5741 59.7023C-22.7866 59.8 -22.1551 59.3571 -22.6055 59.6055C-22.5242 59.5356 -22.4421 59.4645 -22.3599 59.3934C-22.3215 59.4015 -22.2824 59.4093 -22.2436 59.4177C-22.3543 59.5135 -22.4643 59.6083 -22.574 59.7024C-22.574 59.7024 -22.574 59.7023 -22.5741 59.7023ZM-22.5317 60.1131C-22.4697 59.9734 -22.1448 59.7091 -22.5516 59.9099C-22.5648 59.9541 -22.5788 59.9983 -22.5923 60.0417C-22.7285 60.1126 -22.8706 60.1889 -23.0159 60.269C-23.0581 60.3116 -23.1001 60.3539 -23.1422 60.3958C-23.2272 60.4023 -23.3108 60.4093 -23.394 60.4174C-23.338 60.3837 -23.2809 60.3495 -23.2243 60.3157C-23.0341 60.1307 -22.8507 59.9802 -22.5877 59.7731C-22.618 59.7815 -22.6482 59.7901 -22.6783 59.7986C-22.5304 59.7108 -22.3803 59.623 -22.2285 59.5355C-22.339 59.6432 -22.4619 59.7615 -22.5631 59.8582C-22.3427 59.7914 -22.0449 59.5236 -21.8854 59.3839C-21.6678 59.1945 -21.6972 59.2664 -21.5333 59.1252C-21.5071 59.1027 -21.5223 59.0733 -21.4677 59.0322C-21.2031 58.8322 -20.6833 58.4715 -20.9372 58.7599C-21.3655 59.0612 -21.7408 59.4047 -22.1847 59.6972C-22.0237 59.6813 -22.2406 59.8702 -22.5317 60.1131ZM-14.6213 53.8316C-14.7091 54.0025 -15.0016 54.1865 -15.2149 54.2847C-15.2151 54.2849 -15.2153 54.285 -15.2155 54.2852C-15.2627 54.3066 -15.4124 54.2943 -15.2796 54.195C-15.0631 54.0324 -14.862 54.0861 -14.8144 53.9053C-14.7514 53.8827 -14.687 53.8562 -14.6213 53.8316ZM-14.1764 53.4687C-14.0241 53.4031 -14.0049 53.5562 -14.1857 53.6512C-14.1857 53.6512 -14.1856 53.6513 -14.1855 53.6514C-14.2607 53.691 -14.1902 53.5064 -14.3676 53.7761C-14.4632 53.7486 -14.5524 53.7261 -14.6457 53.702C-14.5879 53.6544 -14.5374 53.6114 -14.4774 53.5622C-14.4409 53.7022 -14.3281 53.5348 -14.1764 53.4687ZM-20.7379 58.563C-20.7554 58.491 -20.8426 58.5555 -21.0144 58.6264C-20.8757 58.5249 -20.7356 58.4228 -20.5948 58.32C-20.6425 58.4021 -20.6898 58.4827 -20.7379 58.563ZM-24.0473 60.9723C-24.0475 60.9725 -24.0477 60.9726 -24.0479 60.9728C-24.0889 61.0112 -24.13 61.0495 -24.1704 61.0868C-24.2047 61.0937 -24.2432 61.1037 -24.2794 61.1124C-24.4408 61.2481 -24.601 61.3817 -24.7581 61.5119C-24.7612 61.4645 -24.4617 61.252 -24.3115 61.1024C-24.0615 60.9328 -23.9419 60.8784 -23.9021 60.8993C-23.9506 60.9235 -23.9988 60.9476 -24.0473 60.9723ZM13.6203 30.4755C13.5945 30.3522 13.5677 30.2291 13.5413 30.1053C13.4445 30.1333 13.3565 30.1691 13.2544 30.1921C13.4074 30.6886 13.1095 30.4111 12.9131 30.6473C12.317 31.3655 12.9514 31.7006 11.6415 31.574C12.1687 31.1181 11.6517 30.9623 11.691 30.3939C11.9477 30.5361 12.0894 31.2908 12.3813 31.186C12.5217 30.6284 12.6377 30.1103 12.8701 29.588C12.8246 29.5631 12.7792 29.538 12.7338 29.5131C12.6976 29.5959 12.6619 29.6781 12.6255 29.7605C12.596 29.6001 12.5653 29.4414 12.5347 29.2778C12.6651 29.5799 12.7519 29.2449 12.9674 29.525C13.0633 29.6498 13.1214 29.8984 13.1698 30.0597C13.3658 29.9766 13.5617 29.8849 13.7597 29.7983C13.7724 29.9624 13.7848 30.1259 13.7971 30.2883C13.7389 30.3512 13.6804 30.4127 13.6223 30.4753C13.6216 30.4754 13.621 30.4754 13.6203 30.4755ZM40.1066 -3.67288C40.4587 -3.06703 40.266 -2.64186 39.5644 -2.88668C39.753 -3.15722 39.9269 -3.41188 40.1066 -3.67288ZM-23.8682 60.9156C-23.8954 60.9259 -23.9218 60.9357 -23.9489 60.946C-23.8558 60.8613 -23.7615 60.775 -23.6674 60.6878C-23.6349 60.6925 -23.6018 60.697 -23.5684 60.7015C-23.669 60.7733 -23.7694 60.845 -23.8682 60.9156ZM-17.2864 56.0782C-17.3594 56.1363 -17.3669 56.1399 -17.4633 56.2034C-17.4632 56.2033 -17.4631 56.2033 -17.4629 56.2032C-17.5015 56.2287 -17.8215 56.4336 -17.8076 56.3789C-17.6578 56.2655 -17.496 56.1445 -17.34 56.0268C-17.3213 56.0432 -17.3064 56.0624 -17.2864 56.0782ZM-19.108 57.4046C-19.1082 57.4047 -19.1085 57.4048 -19.1087 57.4049C-19.1672 57.4421 -19.2253 57.473 -19.2835 57.5138C-19.1054 57.3204 -19.0221 57.3697 -18.8465 57.2086C-18.6708 57.0469 -18.583 56.9142 -18.3448 56.9006C-18.3948 56.9618 -18.4448 57.0328 -18.4949 57.0969C-18.7977 57.2539 -18.8425 57.3471 -19.0321 57.5425C-19.0574 57.4964 -19.0826 57.4507 -19.108 57.4046ZM9.91108 32.7013C10.0309 32.9217 9.81969 32.7983 9.8127 32.8015C9.8126 32.8012 9.8125 32.8009 9.81241 32.8006C9.56921 33.3544 9.77252 32.6527 9.37643 32.9951C9.39092 32.8966 9.40207 32.7963 9.41519 32.6973C9.57807 32.697 9.75495 32.7057 9.91108 32.7013ZM-3.52372 45.1327C-3.55583 45.1011 -3.58871 45.0701 -3.62078 45.0385C-3.37729 44.8413 -3.43019 44.6486 -3.12935 44.6028C-3.26045 44.7813 -3.39182 44.958 -3.52338 45.1332C-3.52349 45.133 -3.5236 45.1329 -3.52372 45.1327ZM-15.8931 55.2403C-16.1444 55.4812 -16.3523 55.6537 -16.6708 55.8062C-16.671 55.8063 -16.6713 55.8063 -16.6715 55.8064C-16.69 55.815 -16.638 55.7205 -16.6655 55.7266C-16.7193 55.7748 -16.7727 55.8272 -16.8261 55.8765C-16.8544 55.8529 -16.8824 55.8291 -16.9105 55.8059C-16.7425 55.6929 -16.573 55.579 -16.4014 55.4638C-16.4383 55.4643 -16.4756 55.4655 -16.5123 55.4661C-16.3762 55.3498 -16.2522 55.2414 -16.126 55.1309C-16.1362 55.2171 -16.1467 55.3027 -16.1568 55.3875C-16.0693 55.3386 -15.9816 55.2891 -15.8931 55.2403ZM0.832759 42.0571C0.753188 42.0511 0.770495 41.9086 0.672603 41.9294C0.575267 41.9509 0.521916 42.139 0.447266 41.9916C0.522017 41.8967 0.59917 41.7951 0.67491 41.6971C0.196924 41.7356 0.0785879 42.1914 -0.152874 41.9254C0.180372 41.7472 0.381195 41.51 0.584187 41.1888C0.759781 41.419 0.647721 41.848 0.99256 41.9017C0.93966 41.9529 0.885092 42.0078 0.832956 42.0561C0.832889 42.0565 0.832826 42.0568 0.832759 42.0571ZM-27.9653 64.1367C-28.1534 64.2569 -28.5555 64.5209 -28.8012 64.6868C-28.8604 64.7251 -29.0494 64.8503 -29.0479 64.8495C-29.0441 64.8444 -28.8222 64.6807 -29.0608 64.8539C-28.9817 64.7954 -28.9035 64.7379 -28.8219 64.6786C-28.8382 64.6871 -28.8542 64.6956 -28.8696 64.704C-28.9671 64.7774 -29.0626 64.8499 -29.1557 64.9212C-29.1605 64.9245 -29.1653 64.9277 -29.17 64.931C-28.8318 64.6719 -29.033 64.8237 -28.8558 64.684C-29.0237 64.8106 -29.1848 64.9368 -29.3362 65.0603C-29.249 64.9891 -29.1427 64.904 -29.0612 64.8397C-29.0527 64.8291 -29.2427 64.9833 -29.2736 65.0088C-29.4688 65.1631 -28.499 64.3856 -28.4244 64.3189C-28.5676 64.4296 -28.7537 64.5763 -28.9075 64.7015C-28.8628 64.664 -28.8171 64.6256 -28.7716 64.5874C-28.3884 64.2836 -28.0203 64.0054 -27.5578 63.6757C-27.5211 63.6478 -27.4842 63.6197 -27.4476 63.5919C-27.4631 63.5938 -27.4778 63.5954 -27.493 63.5975C-27.4375 63.5546 -27.3808 63.5108 -27.3243 63.4673C-27.4758 63.6138 -27.2491 63.4415 -26.9426 63.2461C-27.094 63.3674 -27.2853 63.4968 -27.2619 63.5021C-26.7353 63.1071 -26.0994 62.7009 -25.5765 62.312C-25.449 62.2164 -25.4595 62.1714 -25.1665 61.9713C-25.1737 61.9825 -25.1703 61.9913 -25.1731 62.0013C-24.6774 61.6324 -24.3257 61.3641 -23.782 61.0248C-23.8253 61.0281 -23.868 61.0312 -23.9107 61.035C-24.0184 61.1238 -24.1214 61.2088 -24.2393 61.303C-24.3389 61.3323 -24.2294 61.2371 -24.5812 61.4867C-24.8667 61.6895 -24.6891 61.58 -24.7616 61.6421C-24.8594 61.7255 -24.9633 61.7705 -25.0661 61.859C-25.1454 61.9269 -25.0416 61.8818 -25.265 62.0312C-25.1929 61.9458 -25.1196 61.8564 -25.0474 61.7661C-24.9896 61.7327 -24.9318 61.6997 -24.873 61.6664C-24.9236 61.713 -24.9731 61.7585 -25.0234 61.8042C-24.8385 61.6547 -24.6611 61.5099 -24.464 61.3471C-24.5037 61.4363 -24.2996 61.2688 -24.1843 61.179C-24.0134 61.0452 -24.1433 61.1825 -24.0334 61.0971C-23.9239 61.0124 -23.8264 60.8899 -23.6132 60.7485C-23.7104 60.8494 -23.5455 60.7606 -23.5614 60.8014C-23.5777 60.8425 -23.7965 60.9997 -23.5689 60.8739C-23.1672 60.5716 -23.6669 60.8068 -23.3972 60.5976C-23.0735 60.341 -22.8969 60.4188 -22.9811 60.5185C-23.0474 60.5967 -23.3266 60.7789 -23.3918 60.8534C-22.8727 60.5633 -22.9166 60.4772 -22.843 60.4026C-22.5697 60.1278 -22.6741 60.4342 -22.3591 60.1363C-22.3446 60.1721 -22.331 60.2038 -22.3175 60.2382C-22.26 60.1922 -22.2244 60.1577 -22.1529 60.1039C-22.4137 60.1871 -22.2329 60.0712 -22.141 60.0089C-21.9958 59.9108 -22.2408 60.0313 -22.2075 59.9976C-22.1188 59.9064 -21.9479 59.8033 -22.0676 59.8441C-22.0137 59.8262 -21.9557 59.8059 -21.8999 59.7873C-21.7392 59.6569 -21.4331 59.2256 -21.797 59.5257C-21.7974 59.4474 -21.6568 59.3847 -21.5535 59.3241C-21.4503 59.2633 -21.476 59.2292 -21.3855 59.1743C-21.036 58.9642 -21.2094 59.1818 -21.2289 59.265C-20.8195 58.9315 -21.2602 59.2067 -20.6505 58.7424C-20.619 58.6563 -20.9378 58.8192 -20.7144 58.6214C-20.62 58.6626 -20.4072 58.5908 -20.0324 58.3667C-20.01 58.3243 -19.9879 58.2816 -19.9657 58.2387C-19.724 58.1757 -19.7539 58.3157 -19.4754 57.9808C-19.5414 58.2844 -19.4926 58.0841 -19.1291 57.9407C-19.0549 57.9117 -19.1776 58.0496 -19.0752 58.0078C-19.0286 57.9889 -18.9492 57.8936 -18.8339 57.8478C-18.778 57.8254 -18.498 57.7433 -18.3599 57.6002C-18.5409 57.5886 -18.2919 57.2991 -18.6037 57.4041C-18.113 57.0858 -17.7994 56.8002 -18.2555 57.3106C-18.1128 57.2539 -17.9686 57.1972 -17.8231 57.1407C-17.7539 57.0593 -17.6893 56.9805 -17.6222 56.8991C-17.5529 56.9717 -17.5509 57.0047 -17.232 56.7652C-17.3613 56.8829 -17.4893 56.9989 -17.6182 57.1141C-17.6117 57.1336 -17.6197 57.1639 -17.604 57.1765C-17.4519 57.03 -16.9643 56.6798 -16.8577 56.573C-16.7522 56.467 -16.9911 56.6212 -16.9714 56.5752C-16.809 56.191 -16.7379 56.3414 -16.5499 56.1634C-16.4402 56.0577 -16.7486 56.2434 -16.6884 56.189C-16.466 55.987 -16.2809 56.008 -16.0594 55.8557C-16.1791 55.8515 -16.2977 55.8467 -16.4139 55.8422C-16.1797 55.6785 -15.9395 55.5066 -15.7506 55.34C-15.6764 55.2745 -15.7686 55.2728 -15.7577 55.2603C-15.7046 55.198 -15.4596 54.9792 -15.4316 54.958C-15.2215 54.8019 -15.169 54.8628 -14.9592 54.7145C-15.0367 54.78 -15.1094 54.8409 -15.1848 54.9042C-15.1457 55.0364 -15.1079 55.1684 -15.0698 55.2992C-14.8593 55.164 -14.6468 55.0272 -14.4318 54.8888C-14.6109 54.9592 -14.7886 55.0303 -14.9641 55.101C-14.7901 54.8491 -14.6173 54.5908 -14.4456 54.3263C-14.2817 54.2896 -14.1231 54.2587 -13.9652 54.23C-13.6539 53.9826 -13.8876 53.7939 -13.5867 53.8873C-13.5038 53.8 -13.4209 53.712 -13.3378 53.6237C-13.3299 53.6637 -13.3218 53.7037 -13.314 53.7435C-13.2114 53.6405 -13.1085 53.5367 -13.0057 53.4317C-13.2065 53.4142 -13.4064 53.3912 -13.5987 53.3795C-13.3917 53.1843 -13.3212 53.2713 -13.2711 53.2685C-13.1379 53.2611 -13.0188 53.0434 -12.9059 53.0453C-12.8674 53.0467 -13.0472 53.2763 -12.9192 53.2882C-12.8954 53.2895 -12.4025 53.3273 -12.2491 53.1242C-12.2878 53.0789 -12.3458 53.0312 -12.3917 52.985C-12.1473 52.7565 -11.8418 52.9237 -11.8206 53.0184C-11.7223 52.8713 -11.5273 52.7229 -11.5581 52.6227C-11.4904 52.57 -11.4229 52.5176 -11.3549 52.4645C-11.2834 52.7135 -11.017 52.4671 -11.1243 52.2814C-11.2473 52.3657 -11.3701 52.4495 -11.492 52.5329C-11.5529 52.26 -12.0079 52.4067 -11.1149 52.0333C-10.8894 52.0347 -11.3822 52.2108 -11.2043 52.2044C-10.9646 52.0999 -10.8015 51.915 -10.5463 51.8459C-10.2271 51.7603 -10.4609 52.0831 -9.97621 51.5281C-11.4828 52.1628 -9.94894 51.178 -9.47681 50.6459C-9.07474 50.8495 -8.49972 50.5969 -7.88671 49.9703C-8.03264 49.9285 -8.21078 50.1432 -8.35855 50.2059C-8.50595 50.269 -8.41536 50.1105 -8.60217 50.1843C-8.78913 50.2583 -9.15613 50.4483 -9.35652 50.5018C-9.26724 50.3516 -8.72429 49.7218 -9.0324 50.2049C-8.64665 50.0496 -8.42269 50.0312 -8.0085 49.7392C-8.00453 49.495 -8.0831 49.4052 -7.71765 49.1059C-7.77358 49.4935 -7.23373 49.3102 -7.1555 49.6063C-7.46473 49.7582 -7.47982 49.4291 -7.7121 49.4459C-7.73459 49.4474 -7.94302 49.6948 -8.0085 49.7392C-7.59909 49.7238 -7.46527 49.7405 -7.44443 50.0815C-7.28038 49.9289 -7.14583 49.8742 -7.21405 49.7521C-7.13993 49.7717 -7.06529 49.7914 -6.99124 49.8118C-6.93321 49.767 -6.88355 49.7232 -6.82021 49.6776C-7.03574 49.574 -6.78923 49.5531 -6.72968 49.3871C-6.67062 49.2203 -6.93304 49.2083 -6.61033 48.9564C-6.74961 48.9999 -6.87447 49.042 -7.00708 49.0851C-6.83348 48.8805 -6.65944 48.6725 -6.48581 48.4628C-6.71557 48.4725 -7.14835 48.5689 -7.24518 48.4255C-7.11146 48.4012 -6.85995 48.0451 -6.82771 48.0114C-6.70196 47.884 -6.70777 48.0339 -6.69574 48.0275C-6.44615 47.8935 -6.29081 47.7155 -6.10095 47.7839C-5.98606 47.5894 -5.82796 47.5176 -5.66699 47.3798C-5.57644 47.3023 -5.67499 47.2147 -5.60592 47.1896C-5.14502 47.0218 -5.37997 47.4447 -4.887 46.609C-5.02986 46.6061 -5.17204 46.601 -5.3136 46.5984C-5.25752 46.505 -5.20212 46.4114 -5.14626 46.3171C-5.08354 46.2858 -5.02109 46.2551 -4.95808 46.2238C-4.83178 46.3848 -4.70546 46.5462 -4.5792 46.7071C-4.51378 46.6679 -4.4482 46.6282 -4.38249 46.5888C-4.47053 46.6873 -4.55876 46.7853 -4.64669 46.8828C-4.63359 46.9182 -4.61987 46.9532 -4.60682 46.9886C-4.42279 46.9111 -4.23763 46.8344 -4.05072 46.7573C-4.09276 46.6987 -4.13519 46.6397 -4.17727 46.5811C-3.77513 46.3826 -3.72578 46.4264 -3.5281 46.0012C-3.27176 45.7946 -3.27677 45.3906 -3.22332 45.169C-3.14726 45.16 -3.07052 45.1514 -2.99341 45.1421C-3.00156 45.066 -3.00938 44.9895 -3.01786 44.913C-2.89924 44.9279 -2.77917 44.9425 -2.65967 44.9577C-2.75207 44.7707 -2.77493 44.7058 -3.0641 44.8617C-3.1383 44.5961 -2.63996 44.3058 -2.40755 44.2188C-2.23171 44.1529 -2.24485 44.4482 -2.21167 44.4536C-2.09908 44.4742 -1.92386 44.2239 -1.86738 44.1948C-1.62873 44.0723 -1.49525 43.9439 -1.28251 43.8261C-1.24103 43.8033 -1.05208 43.8272 -1.0407 43.8235C-0.959926 43.7864 -0.751813 43.7003 -0.735089 43.6888C0.250211 42.9909 -1.12766 43.3509 -0.237831 42.6628C-0.317052 42.6209 -0.393676 42.5777 -0.471974 42.5355C-0.411642 42.4751 -0.350378 42.4141 -0.289931 42.3534C-0.1638 42.3352 -0.179445 42.5207 -0.084741 42.2984C-0.0281959 42.3876 0.0282268 42.4767 0.0837053 42.5658C0.118302 42.4611 0.150448 42.3585 0.186269 42.2514C0.533252 42.4301 1.00893 42.1307 1.26063 42.4888C1.34634 42.6112 1.13947 42.9794 1.40177 42.966C1.55302 42.8815 1.35047 42.8202 1.39789 42.7688C1.74158 42.3978 1.8817 42.6065 1.99736 42.4237C1.95254 42.3207 1.90745 42.2148 1.86212 42.1101C1.94224 42.0839 2.02275 42.0575 2.10386 42.0308C2.0704 41.9634 2.03737 41.8954 2.00375 41.8279C1.94451 41.872 1.87823 41.9221 1.82375 41.9622C1.72181 41.6806 2.25804 41.0407 2.17909 41.4336C2.1458 41.5936 1.93898 41.7148 2.27095 41.8738C2.4093 41.6934 2.56974 41.4912 2.71684 41.3001C2.7705 41.3513 2.82389 41.4029 2.8776 41.4541C3.08944 41.2115 2.67533 41.1747 2.57324 41.0548C2.62524 41.0037 2.6782 40.9524 2.73028 40.901C2.80053 40.9353 2.87197 40.9731 2.94217 41.0049C2.86964 40.916 2.72586 40.6869 2.95475 40.6182C3.10302 40.5749 3.12652 40.9411 3.30307 40.7348C3.16927 40.6107 2.95289 40.5088 3.13853 40.2662C3.28504 40.39 3.43007 40.4946 3.57855 40.6306C3.74081 40.2472 4.06513 40.36 4.25732 39.9056C4.38042 39.618 4.34025 38.9845 4.9754 39.4481C5.13895 39.3321 4.96453 39.2296 4.98026 39.1582C5.05307 38.8194 5.45267 38.9569 5.50692 38.9392C5.85055 38.8238 5.87755 38.6274 6.20144 38.5791C6.09244 38.4789 5.99383 38.3801 5.88969 38.2809C5.84899 38.6125 5.7459 38.6881 5.45337 38.8845C5.52187 38.7853 5.5899 38.6851 5.65829 38.5851C5.56542 38.5093 5.4728 38.4334 5.38113 38.3578C4.88337 39.4228 4.59487 38.7159 5.15222 37.9828C5.35505 38.0938 5.56059 38.2031 5.76527 38.3164C5.93428 37.7138 6.31093 37.7631 6.80793 37.4121C6.86681 37.3701 6.97321 37.096 7.05223 37.0147C7.05026 37.0153 7.04828 37.0159 7.0463 37.0165C6.95317 36.808 6.81621 36.7983 6.67863 36.6624C6.7071 36.6027 6.73563 36.5428 6.76402 36.4829C6.96345 36.499 7.00962 36.6231 7.1759 36.4199C7.05071 36.3336 6.92612 36.2471 6.8015 36.1611C7.00329 35.962 7.24774 35.9543 7.39324 35.7191C7.39914 35.7921 7.40544 35.8646 7.41112 35.9373C7.93047 35.6477 8.1922 36.6214 8.21695 35.9952C8.29006 36.0338 8.36324 36.0736 8.43658 36.1123C8.31527 36.2491 8.19362 36.385 8.07307 36.52C8.14378 36.6034 8.21393 36.6865 8.28515 36.7693C8.40736 36.616 8.52958 36.4605 8.65178 36.3056C8.59626 36.4557 8.53982 36.6056 8.48359 36.7542C8.68677 36.6434 8.89108 36.5323 9.09635 36.4209C8.64187 36.2799 8.84007 36.0347 8.52326 35.7749C9.04385 35.7511 9.58661 35.874 9.85548 35.2356C9.90866 35.1085 9.65936 34.9398 10.1634 34.9605C9.78394 34.6774 9.96039 34.2112 9.61454 33.9227C9.53972 34.0244 9.45621 34.123 9.3874 34.225C9.59023 34.2434 9.89589 34.5398 9.82873 34.7731C9.74218 35.0703 9.26347 35.1176 9.58863 35.4475C9.49628 35.5023 9.41556 35.5586 9.32807 35.6137C9.2818 35.5014 9.23419 35.389 9.18694 35.2769C9.09579 35.6053 8.92186 35.6837 8.6284 35.5676C8.83512 35.2864 9.04161 35.0036 9.24847 34.7177C9.19798 34.7381 9.14692 34.7588 9.09702 34.7797C9.08574 34.3814 8.70006 34.3618 9.00753 33.9748C9.09826 34.0774 9.18946 34.1796 9.28062 34.2826C9.16123 33.8913 9.51229 33.5497 9.11146 33.3474C9.30569 33.3388 9.38011 33.3825 9.28119 33.1563C9.76788 33.1291 10.2278 33.2644 10.4682 33.7196C10.5158 33.5646 10.563 33.4087 10.6094 33.2528C10.4573 33.2097 10.3062 33.1674 10.1553 33.1248C10.3362 32.9603 10.5188 32.7936 10.6998 32.6274C10.9957 32.9085 10.4445 33.0476 10.7953 33.2122C10.8658 33.2455 10.8548 33.04 10.908 33.0457C11.4784 33.116 10.8408 33.2804 11.1519 33.4536C11.6226 33.1531 11.6968 33.8752 11.919 33.0019C12.0155 33.0748 12.1147 33.1485 12.2098 33.222C12.409 33.0467 12.2074 32.8647 12.3382 32.6706C12.4197 32.5486 12.8818 32.7737 12.7722 32.4273C12.7506 32.3633 12.1533 32.123 12.575 31.7511C12.9025 31.4621 13.0638 31.8911 13.3364 31.8381C13.6069 31.7906 13.5751 30.9997 14.155 31.3783C14.0053 31.397 13.8608 31.4681 13.7138 31.5075C13.7648 31.6391 13.8156 31.7684 13.8661 31.8984C13.9716 31.5681 14.3408 31.4949 14.2724 31.1258C14.9051 31.1915 14.9282 30.5495 14.4533 30.2392C14.4114 30.3909 14.6841 30.4606 14.4426 30.4817C14.3397 30.4031 14.2366 30.3257 14.134 30.2472C14.3728 30.0342 14.5299 29.8751 14.6986 30.2596C14.7409 30.2317 14.7829 30.2039 14.8253 30.1759C14.6332 29.9652 14.4396 29.7543 14.2473 29.5434C14.2669 29.4784 14.2869 29.4132 14.3064 29.3478C14.3969 29.346 14.4882 29.3446 14.5802 29.3429C14.8335 29.7322 14.7317 29.85 15.2748 29.6754C15.1658 29.5615 15.0577 29.4476 14.9487 29.3336C15.3923 29.1755 15.6703 29.4437 16.0478 29.0543C16.1378 29.7412 15.2907 29.1986 16.0643 29.988C15.9383 30.008 15.8114 30.0279 15.6861 30.048C15.786 30.173 15.8859 30.2979 15.9861 30.4222C16.3385 29.9841 16.2571 28.5687 17.0115 28.8293C16.9817 28.7364 16.9599 28.6514 16.9258 28.5531C17.4883 28.6131 16.908 27.8079 17.567 27.9539C17.6363 27.9699 18.2324 28.683 18.5558 28.3295C18.4614 28.2517 18.3126 28.1112 18.1976 28.0095C18.3245 27.9902 18.4538 27.9738 18.5821 27.9564C18.5159 27.8636 18.4503 27.7702 18.3833 27.6768C18.2256 27.7694 18.0683 27.8611 17.9117 27.9533C17.9893 27.8239 18.0674 27.6933 18.1449 27.563C17.8782 27.567 17.8163 27.6266 17.6901 27.337C17.7951 27.2075 17.8994 27.0765 18.0045 26.946C17.9628 26.8801 17.9204 26.8137 17.8786 26.7477C17.6614 26.6447 17.448 26.5462 17.23 26.4417C17.6617 26.2625 17.9312 25.9977 18.487 26.0768C18.5814 26.0898 18.6523 26.4457 18.7341 25.9768C18.8515 26.0848 18.9509 26.1685 19.0604 26.2675C19.0829 25.6109 19.2789 25.596 19.8544 25.482C19.4155 25.4904 19.7544 25.4312 19.6933 25.2588C19.6509 25.1403 19.5133 25.3047 19.4459 25.2044C19.3797 25.1051 19.2326 24.5715 19.0279 24.7026C19.3181 25.7989 18.38 25.1072 18.1741 25.9822C18.1695 25.8113 18.1647 25.6391 18.1591 25.4672C18.0612 25.4485 17.9731 25.4311 17.8689 25.4122C18.2966 25.2345 18.0673 25.2996 18.0834 25.0681C18.1013 24.8348 18.2261 24.5172 18.3373 24.3376C18.3727 24.2808 18.4805 24.4839 18.5962 24.3905C18.6755 24.3274 18.6317 23.8981 18.949 24.1203C19.1572 24.2657 19.3376 25.0671 19.7646 24.6235C20.021 24.7124 19.7604 24.8709 19.7771 24.8961C19.9469 25.1383 20.3706 25.0225 20.3339 24.74C20.3299 24.7162 20.0697 24.6556 20.1106 24.4845C20.2061 24.0769 20.5377 24.1106 20.959 24.1945C20.6752 23.8826 20.5217 23.3108 20.8953 23.1446C20.821 23.0456 20.7452 22.9464 20.6701 22.8466C20.6762 22.9346 20.6816 23.0217 20.6875 23.1094C20.5886 23.1028 20.5021 23.1136 20.3948 23.0966C20.5808 22.7467 20.1944 22.297 20.1621 22.0117C20.0499 21.033 20.9246 22.4045 21.0393 22.6735C20.9048 22.6571 20.7634 22.6301 20.6262 22.6097C20.7394 22.7068 20.8536 22.8046 20.967 22.9029C21.6103 22.2157 21.7634 23.4739 22.298 23.3229C21.8499 22.7236 22.0483 22.4049 22.6899 22.4241C22.7207 22.3867 22.7536 22.3511 22.7837 22.313C22.7101 22.2313 22.5889 22.1154 22.5457 22.0559C22.8139 21.5853 23.7256 22.3234 23.8413 22.3644C24.3543 22.545 23.9824 21.95 24.0235 21.8982C24.1995 21.6821 24.4779 21.8346 24.5678 21.5535C24.6635 21.25 24.3559 21.2283 24.2628 21.0204C24.189 20.8546 24.3226 20.6702 24.2594 20.4821C24.3381 20.6073 24.4116 20.7335 24.4903 20.8587C24.8369 20.7773 25.1451 20.7327 25.4158 20.5203C24.9066 19.5165 26.4425 20.5057 25.2863 19.6053C24.9925 19.7726 24.7488 19.7904 24.3637 19.664C24.4724 19.4773 24.582 19.2905 24.6903 19.1023C24.8489 19.1663 24.9927 19.2408 25.1619 19.2988C25.0206 18.95 25.3775 18.7782 25.3955 18.6097C25.4916 17.8049 24.9149 17.5483 26.0509 17.7826C25.8311 18.1691 26.1849 18.4968 25.8451 18.7653C26.1588 18.9313 26.2562 18.7241 26.4615 19.1075C26.6722 18.7363 26.3093 18.5825 26.1783 18.2406C26.065 17.9455 26.2425 17.7266 25.9599 17.4868C26.1287 17.6037 26.2884 17.7211 26.4573 17.8381C26.6384 17.6377 26.8212 17.4377 27.0029 17.2356C27.0831 17.4669 27.1628 17.6976 27.2406 17.9268C27.3597 17.9176 27.4789 17.9081 27.5986 17.899C27.558 16.9554 29.2688 16.9366 27.8754 15.9179C28.0528 15.6385 28.2395 15.753 28.6011 15.841C28.5172 15.7382 28.4492 15.6506 28.3541 15.5378C28.5971 15.4739 28.3414 15.0174 28.5545 14.9712C28.7691 14.9224 29.1486 15.2048 28.5793 14.6546C28.825 14.7191 29.0427 14.7588 29.2779 14.8138C29.1909 14.6404 29.1049 14.4682 29.0174 14.2955C29.1608 14.2765 29.3044 14.2571 29.4486 14.2383C29.2037 13.9387 29.6139 13.7229 29.548 13.4054C29.9773 13.545 30.9515 14.4242 31.0669 13.9468C30.8156 13.7373 30.5651 13.5284 30.314 13.3191C30.4303 13.2904 30.5469 13.2615 30.6642 13.2323C30.7481 13.2991 30.8314 13.3665 30.9153 13.4333C30.8568 13.4491 30.7989 13.4645 30.7397 13.4795C30.9039 13.5671 31.0672 13.655 31.2314 13.7434C31.1327 13.4522 31.0328 13.1599 30.9321 12.8662C30.6433 12.8845 30.356 12.9031 30.0704 12.9221C30.0591 12.5685 30.3562 12.5935 30.301 12.2448C30.7691 12.4003 30.9196 12.6299 31.2365 13.0179C31.2532 12.9355 31.2714 12.8534 31.2879 12.7709C31.627 13.136 31.9303 13.2411 31.6153 13.53C31.7401 13.6019 31.8606 13.6692 31.9894 13.7456C32.0199 13.6792 32.1397 13.725 32.1507 13.6322C32.1806 13.379 31.6334 12.6794 31.3941 12.4866C31.2689 12.3859 31.3623 12.7437 31.1983 12.5871C30.7993 12.2056 31.2918 12.0139 30.4332 12.159C30.3175 11.7555 30.5478 11.8929 30.7868 11.7721C30.6357 11.6643 30.486 11.5569 30.3357 11.4487C30.474 11.4173 30.6125 11.3856 30.7516 11.3543C31.3571 12.1058 32.1953 11.7029 32.3068 12.8312C32.4912 12.69 32.6758 12.5492 32.8625 12.4094C32.905 12.5095 32.9466 12.6089 32.9888 12.7089C32.8805 12.7509 32.7735 12.793 32.6665 12.8357C32.8819 12.8646 33.0975 12.8928 33.3145 12.9221C33.3435 12.5598 33.1516 12.2585 32.9175 11.8809C32.469 11.9178 32.8621 12.1141 32.7506 12.3641C32.5554 12.1799 32.3624 12.0257 32.1659 11.8223C32.6746 12.0863 32.6474 11.5067 32.692 11.4132C32.8269 11.1335 33.0861 11.6733 33.228 11.531C33.3705 11.3887 33.2783 10.9928 33.803 11.2326C33.5682 11.0312 33.3186 10.8306 33.099 10.6542C33.2281 10.3508 33.4631 10.6387 33.5202 10.6455C34.4524 10.769 34.1434 10.1236 34.4739 9.61764C34.35 9.61112 34.2331 9.61147 34.1137 9.60948C33.9034 8.82952 33.8583 9.19403 33.4387 9.3469C33.7272 9.11243 33.4326 8.57871 33.4696 8.26816C33.5069 7.95797 34.0157 7.80759 34.297 7.83338C34.338 8.36295 33.8921 8.51033 33.7024 8.89164C33.9758 9.06633 34.2113 9.20986 34.5107 9.40467C34.1639 8.77173 34.6006 8.95626 34.7238 8.95247C35.0841 8.94046 34.6358 8.5641 35.2097 8.86319C35.0415 8.72626 34.9006 8.61064 34.7433 8.48308C35.1371 8.15964 35.7991 7.98719 35.3841 7.21866C35.805 7.54002 36.2068 7.85449 36.6398 8.18009C36.4739 7.76329 36.9024 7.89323 36.9475 7.69919C36.9914 7.50526 36.6194 7.27651 36.6271 7.0113C36.6286 6.96228 36.8869 7.07708 36.796 6.87579C36.7064 6.67408 35.7864 5.43293 36.8147 6.24927C36.9343 6.117 37.08 6.01888 37.21 5.89935C37.1568 6.07797 37.1015 6.25463 37.0483 6.4317C37.385 6.52692 37.722 6.62272 38.0617 6.71898C37.8561 6.52077 37.6465 6.31911 37.4429 6.12369C37.4305 5.59981 37.9728 5.68369 38.1454 5.30771C38.1738 5.24462 37.6358 4.99766 37.9367 4.86467C38.2368 4.73091 39.2031 5.2532 39.2127 4.59908C39.2132 4.56586 38.6732 3.91967 39.2311 4.14778C39.3579 4.19953 39.3933 4.45632 39.5861 4.49313C39.7791 4.53004 40.1641 4.29512 40.498 4.53582C40.3835 4.44639 40.2512 4.36984 40.1296 4.28496C40.122 4.18706 40.1147 4.08844 40.1082 3.99055C40.3094 4.14912 40.5113 4.30757 40.7117 4.46537C40.5191 3.77698 39.8976 2.99129 40.5341 2.7339C40.1347 2.62457 39.7361 2.515 39.3411 2.40643C39.5147 2.6102 39.6893 2.81495 39.8627 3.01775C39.6049 3.16419 39.3484 3.31139 39.0929 3.45721C39.2921 3.68152 39.4901 3.90522 39.6872 4.13075C39.6088 4.16409 39.5318 4.19762 39.4536 4.23093C39.3018 4.07979 39.1508 3.92919 38.9993 3.77734C38.9439 3.92599 38.8892 4.07516 38.834 4.22257C38.062 3.18497 39.4571 3.64079 38.617 2.99765C38.7843 3.05235 38.9529 3.10784 39.1219 3.1636C38.7444 2.8128 38.9414 2.80486 39.152 2.67581C38.9222 2.55476 38.6919 2.44044 38.4636 2.31469C38.8817 2.3672 39.1087 2.03136 39.3644 1.93614C39.4768 1.89444 39.7028 2.21549 39.7565 2.21978C40.0361 2.24515 39.7177 1.58927 39.7975 1.57283C40.2751 1.47484 41.4126 2.08716 41.0313 1.23409C40.5993 1.4371 40.8147 1.31061 40.36 1.13547C40.2173 1.08039 39.637 1.32084 40.1752 0.864616C40.2358 0.811536 41.7163 0.383254 41.9789 1.13606C41.9427 0.84046 41.8507 0.557099 41.7908 0.264531C43.4784 1.0408 42.0652 0.0979037 41.2598 -0.384228C41.3038 -0.446005 41.3414 -0.508368 41.39 -0.569474C42.0443 0.177204 42.6281 -0.441857 42.4208 -0.981938C42.3513 -1.16127 41.9388 -1.15056 41.9594 -1.41762C42.077 -1.45469 42.2195 -1.48973 42.3477 -1.52622C41.7615 -1.79667 41.7643 -2.19239 41.263 -2.59115C41.8265 -2.39028 42.8663 -1.74833 43.3094 -1.25084C43.2056 -1.54579 43.1014 -1.84206 42.9942 -2.13957C42.8276 -2.17541 42.6617 -2.20953 42.4957 -2.24517C43.1448 -2.4126 42.8465 -3.54189 43.9862 -2.77588C44.0232 -2.83829 44.0617 -2.90053 44.0988 -2.96306C43.9314 -3.1252 43.7631 -3.28709 43.5955 -3.44937C43.9528 -3.58027 44.3129 -3.70986 44.6744 -3.841C44.6082 -3.52129 44.8242 -3.2604 44.4242 -3.18915C44.7064 -3.1144 44.9921 -3.04015 45.2747 -2.96309C44.9973 -3.77315 44.6585 -4.12047 45.2585 -4.53377C45.285 -4.55251 46.0945 -4.58595 46.1537 -4.56277C46.4212 -4.45747 46.6561 -4.11162 46.7882 -4.0545C47.1566 -3.89382 48.3253 -3.77221 48.4356 -3.67073C49.7735 -2.42078 48.4064 -0.805731 48.1084 -0.325042C44.9696 4.66524 40.1741 8.15277 36.3323 12.5291C36.2934 12.5743 36.4749 12.6979 36.4644 12.7225C36.3962 12.8726 36.0353 12.7631 35.985 12.7963C35.8778 12.8678 36.1591 13.0225 36.0965 13.0884C35.446 13.763 34.7008 14.2809 34.0708 15.0094C34.0301 15.0564 33.8945 14.8513 33.8506 14.9582C33.8291 15.0143 33.9813 15.3851 33.8967 15.4797C33.6014 15.8099 33.2553 15.9978 32.9356 16.3328C32.7607 16.5162 32.4727 16.7664 32.2795 16.9706C32.1941 17.0608 32.2242 17.2618 32.1419 17.3525C32.0251 17.481 31.8064 17.2357 31.7725 17.241C31.6244 17.2649 31.8801 17.5178 31.7955 17.5909C31.6367 17.7267 31.4541 17.5714 31.2821 17.7749C31.1575 17.9232 30.9854 18.3633 30.8543 18.5717C30.252 18.7902 29.8325 19.3665 29.5266 19.7938C29.3457 20.0469 29.0897 19.8492 29.0017 19.9386C28.694 20.2555 28.7539 20.7661 28.4683 21.063C28.0952 21.4503 27.5374 21.6292 27.1382 21.9947C27.0732 22.0543 27.2934 22.2334 27.2366 22.2985C27.0266 22.5393 26.7706 22.8568 26.5383 23.0253C26.2796 23.2133 25.9055 23.0179 25.7451 23.287C25.6982 23.3659 25.9327 23.625 25.8565 23.7595C25.7336 23.9734 25.3224 23.9431 25.1781 24.0348C24.9808 24.161 25.378 24.2671 25.1212 24.4459C25.1105 24.4531 24.8966 24.3118 24.8577 24.3655C24.7429 24.5217 24.9009 24.6415 24.68 24.825C24.6576 24.8423 24.2093 24.9437 24.1814 24.9693C24.0161 25.1215 23.6317 25.3744 23.5716 25.4993C23.3559 25.9449 23.885 25.9433 23.0282 25.6677C23.0396 25.9232 23.0528 26.1784 23.0503 26.4349C23.0159 26.229 22.4711 26.3979 22.4575 26.4332C22.3384 26.7227 22.6802 26.8156 22.3748 27.0309C22.2335 26.2138 21.965 27.2924 21.8201 27.447C21.1347 28.1934 20.2863 28.7456 19.525 29.4444C19.2685 29.6806 19.0198 30.0894 18.7454 30.3305C18.6819 30.3872 18.6231 30.2364 18.5652 30.2842C18.5082 30.3325 18.6892 30.3981 18.6195 30.4486C18.1863 30.7552 17.6475 30.8201 17.5494 31.4316C17.4918 31.4073 17.4611 31.3749 17.3879 31.3573C17.3265 31.8783 16.4173 32.0593 16.1587 32.2077C15.7518 32.4393 15.8243 32.68 15.5463 32.8631C15.1776 33.1047 14.3935 33.2145 15.1075 33.5454C14.9005 33.7548 14.6757 33.9577 14.3993 34.1096C14.3683 34.1266 14.262 33.9806 14.2491 33.9869C14.1661 34.0251 14.2556 34.1603 14.2165 34.2039C14.1104 34.322 14.1732 34.0131 14.0398 34.2001C13.9698 34.2989 14.0145 34.4448 13.7669 34.6614C12.2932 35.9462 10.5904 37.3179 9.04407 38.5614C8.9378 38.647 9.10935 38.702 8.96958 38.8036C8.46636 39.1707 7.45676 39.6756 7.07787 40.0268C6.69723 40.3777 6.92639 40.4601 6.73108 40.7262C6.69345 40.7775 6.65545 40.6574 6.61023 40.6911C6.30746 40.9178 5.83619 41.0619 5.56887 41.2424C5.39432 41.3592 5.52552 41.484 5.42072 41.5832C5.26407 41.7304 4.97377 41.7315 4.88112 41.7981C4.44637 42.112 4.25181 42.4439 3.818 42.6924C3.85762 42.709 3.89031 42.7276 3.9273 42.7458C3.46738 43.0955 2.99767 43.4515 2.51924 43.8125C2.5627 43.8204 2.60568 43.8292 2.64961 43.8377C2.08337 44.2476 1.92151 43.9291 2.44864 44.4604C2.42499 44.5107 2.40154 44.5658 2.37825 44.6129C2.14759 44.3087 1.63431 44.3504 1.15729 44.5981C1.12254 44.6166 1.14771 45.0494 0.89767 44.7057C0.91099 44.8265 0.92491 44.9056 0.937845 45.0098C0.76751 44.978 0.598016 44.9488 0.43008 44.9185C0.395097 44.9693 0.359183 45.0197 0.323963 45.0704C0.368874 45.1389 0.42869 45.2 0.464047 45.2738C0.241481 45.4575 -0.289392 45.7337 -0.461328 45.876C-0.888714 46.2318 -1.20877 46.724 -1.68929 46.803C-1.84072 46.943 -1.58286 46.937 -1.84143 47.1032C-1.91619 47.0656 -1.98718 47.0294 -2.06417 46.9912C-2.053 47.3944 -2.23278 47.2752 -2.5587 47.4317C-2.78032 47.5379 -2.85671 47.6919 -3.04892 47.8133C-3.0976 47.8441 -3.14947 47.7662 -3.17907 47.7918C-3.27847 47.8774 -3.49971 48.1961 -3.57197 48.252C-4.22171 48.7627 -4.80579 49.161 -5.48408 49.6056C-5.55606 49.6528 -5.41385 49.6543 -5.48863 49.7028C-5.60878 49.7809 -5.61865 49.6315 -5.68982 49.6744C-5.88736 49.7947 -5.807 49.9015 -6.06385 50.09C-6.89064 50.6946 -7.98047 51.338 -8.87357 51.941C-8.9015 51.9601 -8.85907 52.0132 -8.88909 52.0344C-9.08707 52.1726 -9.33325 52.2304 -9.52409 52.3627C-9.83264 52.5756 -10.0099 52.8045 -10.3124 53.0062C-10.9077 53.4042 -11.4273 53.6956 -12.0591 54.1126C-12.5638 54.4439 -12.9906 54.7323 -13.5252 55.0785C-15.9175 56.648 -18.3282 58.2726 -20.8049 59.7016C-20.8661 59.7371 -20.8553 59.7017 -20.8731 59.7137C-21.0505 59.8346 -21.051 59.8723 -21.1543 59.856C-21.3814 60.0112 -21.4281 60.0968 -21.7088 60.2616C-21.8576 60.3489 -21.7886 60.2231 -22.0153 60.404C-22.2225 60.5682 -21.9423 60.4408 -22.6435 60.8195C-22.6624 60.8295 -22.7744 60.8521 -22.9105 60.9468C-23.047 61.041 -22.8688 60.9652 -23.2044 61.1757C-23.9713 61.6527 -24.9922 62.2342 -25.9276 62.821C-25.9877 62.8587 -26.5143 63.194 -26.6357 63.2752C-26.847 63.4159 -26.7971 63.3977 -27.0691 63.5688C-27.2817 63.7025 -27.4388 63.787 -27.7026 63.9596C-27.7318 63.9787 -27.7781 64.0178 -27.9653 64.1367ZM14.0562 29.3846C13.9343 29.1713 13.3994 28.4643 13.8405 28.3892C13.8828 28.3823 14.1736 28.952 14.384 28.8753C14.2885 29.0638 14.1664 29.2168 14.0568 29.3853C14.0566 29.3851 14.0564 29.3849 14.0562 29.3846ZM-29.2861 65.0162C-29.0888 64.8435 -28.8779 64.666 -28.655 64.4846C-28.8075 64.6115 -28.9549 64.7353 -29.0964 64.8553C-29.1614 64.909 -29.2243 64.9624 -29.2861 65.0162ZM-2.16211 44.1025C-2.16231 44.1027 -2.16251 44.1029 -2.16271 44.1031C-1.98711 43.8596 -1.81174 43.6133 -1.63662 43.3643C-1.62668 43.4248 -1.61673 43.4854 -1.60696 43.5456C-1.72933 43.7612 -1.8524 43.9747 -1.97527 44.1856C-2.03766 44.1578 -2.09998 44.1302 -2.16211 44.1025ZM-3.57121 45.974C-3.75151 46.05 -3.77507 45.9472 -3.91173 45.9418C-3.91162 45.9419 -3.91151 45.9421 -3.9114 45.9422C-3.94726 45.941 -4.05732 46.0061 -4.09693 46.0346C-4.04654 46.0687 -3.9925 46.0989 -3.94104 46.1318C-4.19298 46.5169 -5.1436 46.6771 -4.43482 45.8107C-4.4013 45.8789 -4.36755 45.9462 -4.33418 46.0141C-3.93134 45.6442 -3.35345 45.3735 -3.57121 45.974ZM16.81 25.9795C16.8007 25.3148 16.8274 25.1332 17.4443 24.9473C17.4847 25.1003 17.5246 25.2529 17.5642 25.4052C17.4032 25.3771 17.244 25.3493 17.0841 25.3217C17.0839 25.3219 17.0838 25.3221 17.0836 25.3223C17.1717 25.4364 17.2599 25.5506 17.3483 25.664C17.1684 25.7692 16.9885 25.8747 16.81 25.9795ZM-17.7044 56.6762C-17.9309 56.5703 -17.8298 56.655 -17.5655 56.3991C-17.4739 56.31 -17.5952 56.3507 -17.5358 56.2987C-17.2159 56.0149 -17.0978 56.1207 -17.1297 56.2432C-17.3231 56.3899 -17.5171 56.5357 -17.7038 56.6758C-17.704 56.6759 -17.7042 56.6761 -17.7044 56.6762ZM-26.7991 63.1123C-26.7993 63.1124 -26.7996 63.1126 -26.7998 63.1127C-26.8158 63.1099 -26.6742 63.002 -26.8425 63.1113C-26.7227 63.0231 -26.5862 62.9238 -26.4756 62.8429C-26.5096 62.8693 -26.5405 62.8934 -26.578 62.9222C-26.5412 62.9009 -26.5116 62.885 -26.4782 62.8665C-26.4458 62.8241 -26.4031 62.8036 -26.2763 62.7192C-26.3206 62.7293 -26.3642 62.7397 -26.4075 62.7506C-26.2634 62.6499 -26.1157 62.5479 -25.9653 62.4455C-25.9607 62.4482 -25.956 62.451 -25.9514 62.4537C-25.8994 62.4083 -25.8478 62.3627 -25.7953 62.3163C-25.7765 62.3103 -25.7583 62.3047 -25.7394 62.2988C-25.6738 62.2456 -25.6077 62.1919 -25.5413 62.1376C-25.5113 62.1358 -25.6597 62.2506 -25.3918 62.0536C-25.4637 62.126 -25.5397 62.2 -25.6139 62.2717C-26.0288 62.5621 -26.3832 62.8132 -26.7991 63.1123ZM-15.0448 54.6388C-15.4677 54.9666 -15.3696 54.8428 -15.3479 54.6612C-15.2478 54.6535 -15.1463 54.6457 -15.0448 54.6388ZM6.15264 37.3006C6.11184 37.0217 6.07138 36.7421 6.03543 36.4629C6.1767 36.1446 6.69896 36.245 6.63728 36.5365C6.56097 36.8853 6.19014 36.9232 6.15264 37.3006ZM11.2646 32.2881C10.9037 32.4666 10.9437 31.9809 10.876 31.7828C11.1576 31.926 11.2454 31.8023 11.4397 31.6587C11.2939 31.8323 11.3251 32.2592 11.2652 32.2887C11.265 32.2885 11.2648 32.2883 11.2646 32.2881ZM1.41743 41.2647C1.30377 41.374 1.22284 41.5198 1.07443 41.5612C0.983141 41.3886 1.30398 41.3334 0.971875 41.2521C1.04315 41.1814 1.1147 41.1105 1.18523 41.0395C1.21449 41.1716 1.33496 41.1815 1.41671 41.2645C1.41695 41.2646 1.41719 41.2647 1.41743 41.2647ZM-11.0207 51.4113C-10.7004 51.3295 -10.6873 51.2491 -10.5 50.9795C-10.3981 51.0426 -10.5799 51.4207 -10.7395 51.5922C-10.8333 51.5313 -10.927 51.4709 -11.0207 51.4113ZM38.7674 0.436085C39.1655 0.857167 38.8908 1.32131 38.5981 1.42081C38.5527 1.34262 38.5065 1.2636 38.46 1.1845C38.5626 0.936234 38.6655 0.68618 38.7674 0.436085ZM11.5357 31.5939C11.5007 31.6154 11.4689 31.6372 11.4397 31.6587C11.4657 31.628 11.4968 31.6047 11.5357 31.5939ZM23.9423 21.2026C24.1406 21.5656 24.4987 21.3851 24.0685 21.6086C24.0688 21.6088 24.069 21.6091 24.0693 21.6094C23.7857 21.7573 23.7202 21.7868 23.5045 21.9667C23.2126 21.5496 23.4686 21.0137 22.86 21.5089C22.8527 21.5161 23.0819 21.7066 22.9669 21.7685C22.9313 21.7875 22.6708 21.7084 22.4924 21.7949C22.4348 21.8229 22.072 22.0997 22.4898 21.6487C22.2268 21.4226 21.9958 21.156 21.7516 20.9247C21.8416 20.6796 22.4597 21.0141 22.6214 20.8154C22.8602 20.5191 22.4825 19.8939 23.1983 20.4717C23.1444 20.8627 22.7722 21.2651 22.3305 20.9418C22.118 21.1635 22.378 21.5339 22.7071 21.5054C23.2316 20.5341 23.3894 21.753 23.7727 20.8227C23.6874 20.7267 23.6138 20.6037 23.5224 20.5252C24.0462 20.6256 23.8716 21.0733 23.9423 21.2026ZM21.7145 22.1596C21.6575 21.8391 21.5884 21.5249 21.5202 21.2079C21.8297 21.5051 22.0417 21.8438 22.0153 22.2212C21.9148 22.2002 21.814 22.1798 21.7145 22.1596ZM32.0204 10.4554C31.823 10.2472 31.6717 10.0211 31.4999 9.80244C31.7148 9.91916 32.7448 9.05886 32.4898 9.73153C32.4514 9.82886 31.6865 9.95082 32.0204 10.4554ZM-12.6073 52.7861C-12.4518 52.7278 -12.2922 52.6679 -12.1439 52.6174C-12.308 52.7809 -12.4979 52.9627 -12.6738 53.132C-12.6509 53.0175 -12.6292 52.9024 -12.6073 52.7861ZM8.21822 35.7712C8.16576 35.8117 8.17301 35.494 8.00714 35.6985C8.05107 35.4588 8.10006 35.2425 8.14459 35.0092C8.25902 35.0497 8.37393 35.0897 8.48904 35.1306C8.47425 35.0485 8.46024 34.9659 8.44517 34.8835C8.53325 35.0191 8.62078 35.1498 8.70919 35.288C8.24496 35.2579 8.45118 35.5919 8.21822 35.7712ZM1.41951 42.521C1.19991 42.3521 1.45192 41.921 1.07285 42.1901C1.02416 41.9967 1.06939 41.8323 1.26339 41.6404C1.34097 41.6642 1.41835 41.6878 1.49632 41.7118C1.38067 41.5665 1.38888 41.468 1.41743 41.2647C1.41767 41.2648 1.41791 41.2649 1.41815 41.265C1.71259 40.9846 1.7313 41.0509 2.00625 41.2226C1.57581 41.3681 1.74734 41.5938 1.62737 41.9151C1.54477 42.1357 1.3085 42.2702 1.41951 42.521ZM31.1012 11.5378C30.9372 10.9802 30.4134 10.889 31.1594 10.8146C31.2301 10.9241 31.2997 11.0329 31.3701 11.1422C31.2814 11.2752 31.1916 11.407 31.1012 11.5378ZM-0.31264 42.8022C-0.0284023 43.0888 0.394205 43.1485 0.00410373 42.6074C-0.291701 42.687 0.0503703 42.8844 -0.31264 42.8022ZM11.7889 33.0358C11.3774 33.3854 11.0132 32.8474 10.9486 32.4575C11.0536 32.5193 11.1589 32.5815 11.2633 32.6436C11.2943 32.5392 11.3251 32.4343 11.3563 32.3298C11.501 32.5655 11.6456 32.8012 11.7889 33.0358ZM-7.37024 49.1499C-7.18293 48.7283 -7.78544 49.3276 -7.64484 49.0463C-7.53435 48.8207 -7.16791 48.8047 -7.17289 48.9835C-7.23243 49.0353 -7.29956 49.0915 -7.36963 49.1494C-7.36984 49.1495 -7.37003 49.1497 -7.37024 49.1499ZM-5.53896 47.6118C-5.74592 47.4595 -5.61873 47.4504 -5.84957 47.6947C-5.91643 47.7651 -6.5539 48.1629 -6.18638 48.1238C-5.97971 47.9584 -5.74817 47.7772 -5.53896 47.6118ZM15.7815 28.1852C15.9401 28.3316 15.8582 29.0714 15.7228 29.04C15.723 29.0402 15.7232 29.0405 15.7235 29.0407C15.3601 28.9556 15.759 28.4928 15.267 28.3685C15.9515 28.2249 15.3996 27.4477 16.2436 28.3545C16.0452 28.6284 15.9788 28.3357 15.7815 28.1852ZM44.4111 -4.04464C44.4113 -4.04485 44.4114 -4.04506 44.4116 -4.04526C44.3739 -4.02608 43.7538 -4.11675 43.63 -4.26437C43.9872 -4.46363 44.2295 -4.18555 43.9807 -4.834C44.1421 -4.73067 44.2974 -4.62868 44.4611 -4.52558C44.4639 -4.34414 44.5952 -4.14037 44.4111 -4.04464ZM33.4166 9.77085C33.3867 9.92863 32.9715 9.90172 32.8843 10.0341C32.2471 8.81576 33.5338 9.13902 33.4166 9.77085ZM-22.5326 60.1139C-22.5323 60.1136 -22.532 60.1134 -22.5317 60.1131C-22.5317 60.1132 -22.5318 60.1134 -22.5319 60.1135C-22.5321 60.1136 -22.5323 60.1137 -22.5326 60.1139ZM25.7866 17.3693C25.8517 17.4053 25.9046 17.4406 25.9476 17.4754C25.9514 17.4789 25.9553 17.4825 25.9591 17.486C25.9028 17.447 25.8456 17.408 25.7866 17.3693ZM16.5525 27.3093C16.9331 27.3595 16.7205 28.2563 16.4607 28.3503C16.3768 28.2403 16.2914 28.1499 16.2095 28.0086C16.6033 28.119 16.4902 27.3018 16.5525 27.3093ZM3.64304 39.7793C4.11869 39.3656 4.05512 40.5427 3.59111 40.0596C3.5837 40.0491 3.63179 39.7912 3.64304 39.7793ZM13.1739 30.8635C13.2933 31.2136 13.5797 31.059 13.1793 31.3666C13.0988 31.3247 13.0184 31.2828 12.9382 31.2411C13.017 31.1159 13.0954 30.9897 13.1739 30.8635ZM7.47865 37.9373C7.98937 37.2881 8.32444 36.5992 7.42827 36.3501C7.40244 36.4086 7.37541 36.4669 7.3495 36.5251C7.59782 36.8167 7.30733 36.7989 7.05393 37.0142C7.12003 37.1572 7.00897 37.3043 7.06854 37.4213C7.18321 37.6472 7.45476 37.6379 7.47865 37.9373ZM-19.0128 57.8977C-19.0124 57.8761 -19.0124 57.8545 -19.012 57.8329C-18.9223 57.7468 -18.8319 57.6596 -18.7417 57.5717C-18.7384 57.612 -18.7352 57.6522 -18.732 57.6923C-18.8259 57.7612 -18.919 57.8294 -19.0121 57.8973C-19.0123 57.8974 -19.0125 57.8976 -19.0128 57.8977ZM22.0081 23.5201C21.3228 22.7578 21.2873 23.0738 21.3002 23.7947C21.5347 23.7035 21.7711 23.6115 22.0081 23.5201ZM-2.38144 45.8557C-2.48561 45.7531 -2.5891 45.6507 -2.69351 45.5487C-2.80264 45.8333 -2.66207 45.929 -2.44216 45.9992C-2.42161 45.9513 -2.4019 45.9038 -2.38144 45.8557ZM-5.38471 48.2833C-5.2778 48.2349 -5.38803 48.1887 -5.3773 48.1831C-5.119 48.052 -5.06253 48.0709 -4.84181 47.7988C-4.82611 47.7512 -4.81194 47.7029 -4.79688 47.6545C-5.09216 47.5352 -5.08926 47.7241 -5.44751 47.8036C-5.34337 47.8397 -5.23886 47.8763 -5.13352 47.9133C-5.28991 48.0101 -5.45018 48.1105 -5.61458 48.2141C-5.61507 48.2503 -5.61579 48.2863 -5.61634 48.3225C-5.54003 48.3093 -5.45893 48.2984 -5.38471 48.2833ZM-20.2258 58.6683C-20.3801 58.7687 -20.5335 58.8686 -20.6847 58.9672C-20.6767 58.9908 -20.6684 59.0143 -20.6605 59.0378C-20.5167 58.9168 -20.3714 58.7934 -20.2258 58.6683ZM24.2594 20.4821C24.2286 20.433 24.1972 20.3839 24.1641 20.3352C24.2142 20.3842 24.243 20.4333 24.2594 20.4821ZM45.7026 -3.63943C45.96 -3.7024 46.0655 -4.0044 46.236 -4.16357C45.7663 -4.51118 45.5298 -3.95294 45.1278 -4.01105C45.189 -3.92066 45.594 -3.61262 45.7026 -3.63943ZM11.2297 33.5268C11.2917 33.6685 11.353 33.8094 11.4149 33.9501C11.3124 34.0233 11.2093 34.0959 11.1068 34.1693C11.1847 34.2581 11.2633 34.3476 11.3412 34.4364C11.6444 33.9522 11.7837 34.2869 12.2215 34.3515C11.8898 34.0762 11.5597 33.8011 11.2297 33.5268ZM-24.9894 61.9981C-24.6646 61.7736 -24.5531 61.6769 -24.7638 61.7712C-24.8758 61.858 -24.9874 61.9438 -25.0973 62.0278C-25.0614 62.0176 -25.0252 62.0076 -24.9894 61.9981ZM29.5322 15.3549C29.6062 14.974 30.1483 15.4552 30.0672 14.9429C29.8499 14.9825 29.6324 15.0212 29.4174 15.0605C29.4559 15.1583 29.494 15.2573 29.5322 15.3549ZM19.1938 28.4032C19.4392 28.4455 18.9644 27.5939 19.753 27.8074C19.6748 27.5931 19.5765 27.4099 19.4902 27.207C19.6837 27.3311 19.8845 27.4529 20.0761 27.5779C20.0763 27.5777 20.0765 27.5776 20.0766 27.5774C20.2908 27.2692 19.9164 27.2356 19.7534 27.062C19.6859 26.9896 20.0003 26.9152 19.7854 26.823C19.4162 26.6659 19.174 27.2005 18.8562 26.886C19.0969 26.8539 19.2786 26.5018 18.9859 26.3688C18.6662 26.2237 18.8054 26.8624 18.4534 26.8295C19.1879 27.1055 18.555 27.417 18.1186 27.0865C18.1367 27.6547 18.5101 27.5237 18.7833 27.2295C18.9043 27.6959 19.002 27.2845 19.2921 27.4892C19.2586 27.8146 18.5095 28.2876 19.1938 28.4032ZM5.07842 40.1615C5.27399 39.9704 5.69493 39.8355 5.66932 39.5291C5.65267 39.3508 5.26543 39.5378 5.32992 39.1793C5.15096 39.3656 5.16524 39.4701 5.32986 39.5908C5.30123 39.6469 5.27162 39.703 5.24251 39.7585C5.19646 39.747 5.15026 39.7365 5.10433 39.7251C5.13476 39.8062 5.16451 39.8869 5.19525 39.9673C5.13779 39.9951 5.07846 40.0246 5.01804 40.0545C5.03904 40.09 5.05246 40.1249 5.07842 40.1615ZM35.9396 8.09052C35.8938 8.15101 35.8485 8.21088 35.8036 8.27202C35.8831 8.32922 35.9667 8.38785 36.0491 8.44591C36.1138 8.49232 36.1785 8.53873 36.2432 8.58515C35.9986 8.43363 35.4075 8.40055 35.5367 8.71087C35.6008 8.8664 36.1214 9.0855 35.9782 9.38818C36.1124 9.19514 36.2006 8.98464 36.3164 8.7836C36.4243 8.90308 36.5339 9.02301 36.6416 9.14237C36.6419 9.14243 36.6421 9.14248 36.6424 9.14254C36.7201 9.10932 36.7999 9.07654 36.8778 9.0433C36.5655 8.72567 36.2529 8.40873 35.9396 8.09052ZM-2.03071 45.9456C-1.9092 45.6964 -1.88392 45.5935 -2.10089 45.5157C-2.10115 45.5158 -2.10141 45.5159 -2.10167 45.5159C-2.11964 45.6423 -2.13811 45.768 -2.15694 45.893C-2.11513 45.9106 -2.07323 45.9284 -2.03071 45.9456ZM26.783 19.8248C25.9751 18.3441 25.8697 19.8883 26.4205 20.0934C26.4481 20.1008 26.6195 19.7393 26.783 19.8248ZM12.1068 33.2282C12.0046 33.3363 11.9017 33.4436 11.7992 33.5514C11.9214 33.6316 12.0442 33.711 12.1669 33.7914C12.1477 33.6047 12.1275 33.4165 12.1068 33.2282ZM-23.4904 61.0964C-23.3379 61.0493 -22.988 60.851 -22.8479 60.6997C-22.9397 60.7511 -23.0308 60.8025 -23.1211 60.8535C-22.9598 60.743 -22.7987 60.6314 -22.6321 60.5166C-22.6614 60.4533 -22.8359 60.6148 -23.1327 60.7869C-23.1798 60.813 -23.5024 60.935 -23.5653 61.0448C-23.5786 61.067 -23.2775 60.8801 -23.4647 61.0428C-23.373 60.9866 -23.2949 60.9353 -23.2076 60.8807C-23.1929 60.8891 -23.1782 60.8977 -23.1628 60.9058C-23.2733 60.9699 -23.3821 61.0331 -23.4904 61.0964ZM6.23714 39.1368C6.52983 38.9132 6.46458 38.7703 6.34434 38.52C6.23558 38.6556 6.12647 38.7903 6.01771 38.9245C6.09094 38.9949 6.16342 39.066 6.23714 39.1368ZM-20.7109 59.335C-20.5388 59.2369 -20.6387 59.24 -20.5773 59.1885C-20.3448 58.9927 -20.1485 58.9098 -19.9056 58.7216C-19.9166 58.7417 -19.9266 58.7602 -19.9372 58.7794C-19.9369 58.7793 -19.9367 58.7792 -19.9365 58.779C-18.6897 58.0246 -19.403 58.3294 -20.1188 58.8289C-20.147 58.8232 -20.1746 58.8171 -20.2026 58.8117C-20.5037 59.0547 -20.7749 59.2699 -20.7109 59.335ZM23.4546 23.2952C23.5214 23.3368 23.7753 23.7707 23.7938 23.4311C23.4235 22.7934 23.4423 23.2754 23.1864 23.1456C23.1862 23.0489 23.1882 22.9522 23.1871 22.8557C22.7529 23.0121 22.8243 23.1793 23.3097 23.4249C23.3433 23.4406 23.3879 23.2539 23.4546 23.2952ZM25.6671 21.5741C24.9139 20.7839 24.8977 21.5059 25.1547 21.7221C25.2165 21.6786 25.1232 21.5113 25.2373 21.511C25.3521 21.5102 25.5512 21.6702 25.6671 21.5741ZM14.4697 32.0662C14.4835 32.0583 14.8473 32.2122 14.6409 32.0198C14.0381 31.6706 14.0526 32.2425 14.2602 32.3619C14.3466 32.2674 14.3406 32.1379 14.4703 32.0668C14.4701 32.0666 14.4699 32.0664 14.4697 32.0662ZM-25.5125 62.4228C-25.5051 62.42 -25.1586 62.2122 -25.1304 62.1798C-25.1045 62.1464 -25.0962 62.1229 -25.0792 62.0941C-25.2378 62.2135 -25.6275 62.4576 -25.5118 62.4224C-25.512 62.4225 -25.5122 62.4227 -25.5125 62.4228Z" fill="#E7E7E7"/>
</g>
</svg>
