<svg width="37" height="24" viewBox="0 0 37 24" fill="none" xmlns="http://www.w3.org/2000/svg">
<g clip-path="url(#clip0_206_14176)">
<path d="M6.38961 18.4293C6.14972 18.3487 6.43969 18.3421 6.65203 18.3656C6.85397 18.3948 7.02722 18.3809 6.47542 18.1879C6.66479 18.1983 6.8495 18.2291 7.02216 18.2745C7.0882 18.2929 7.15418 18.3143 7.21958 18.339C7.26424 18.4396 7.30427 18.543 7.33293 18.6455C7.20247 18.5803 7.07309 18.5341 6.94786 18.5014C6.77133 18.4583 6.58222 18.432 6.38957 18.4297C6.38959 18.4296 6.3896 18.4294 6.38961 18.4293ZM6.06417 19.3636C6.19007 19.1175 6.89876 19.156 6.18581 18.8906C6.12579 18.964 6.07143 19.0404 6.02597 19.1186C5.78899 19.085 5.53527 19.1065 5.29664 19.1736C5.23377 19.24 5.17788 19.3091 5.1277 19.3798C4.96829 19.3387 4.79815 19.3144 4.6159 19.3176C4.7106 19.2479 4.80665 19.1898 4.9046 19.1391C5.18359 18.811 5.58931 18.5539 6.27797 18.5483C6.22007 18.5158 6.15815 18.486 6.09507 18.4585C6.38627 18.487 6.65825 18.5743 6.88528 18.6924C6.95731 18.7268 7.02167 18.7629 7.09374 18.8083C7.01393 18.7829 6.94253 18.7672 6.86515 18.7539C6.64879 18.7246 6.41443 18.7291 6.22063 18.7636C6.39121 18.8515 6.59486 18.9098 6.79228 18.9764C7.0999 19.0635 7.46516 19.3103 7.61417 19.5186C7.94009 20.0076 7.76443 19.9297 7.87746 20.2396C7.8906 20.2867 7.96612 20.2839 7.97719 20.3767C8.00405 20.6094 7.99143 20.8906 7.96909 20.9501C7.9579 20.9849 7.93125 20.9477 7.89937 20.9427C7.86818 20.9326 7.84978 21.0077 7.80055 20.9806C7.79384 20.8427 7.78759 20.5045 7.69145 20.1592C7.61618 19.8172 7.29778 19.3029 6.83674 19.1212C6.90904 19.2558 6.83004 19.2871 6.68853 19.2932C6.54784 19.3071 6.31336 19.2925 6.06417 19.3636ZM11.5515 19.3065C11.5954 19.3254 11.6148 19.3623 11.6166 19.3501C11.6182 19.3446 11.6148 19.2416 11.6809 19.1283C11.6708 19.124 11.6585 19.1186 11.6448 19.1123C11.6448 19.1123 11.6447 19.1123 11.6447 19.1124C11.6267 19.1084 11.5441 19.0082 11.5513 19.0093C11.5522 19.0109 11.5565 19.0217 11.5648 19.0342C11.4455 19.3024 11.6042 19.3517 11.4842 19.356C11.5102 19.3594 11.532 19.3388 11.5515 19.3065ZM11.4124 18.9272C11.4028 18.7748 11.5732 18.7785 11.5993 18.9591C11.5994 18.959 11.5996 18.959 11.5997 18.9589C11.6071 19.0307 11.4517 18.9492 11.6444 19.1322C11.5669 19.2051 11.4931 19.2665 11.4086 19.3131C11.3998 19.2818 11.3867 19.2442 11.369 19.1946C11.5302 19.1804 11.4213 19.0779 11.4124 18.9272ZM7.54325 20.5857C7.53659 20.5492 7.54663 20.527 7.5799 20.52C7.64459 20.5052 7.84606 20.602 7.95382 20.7421C8.06284 20.8781 8.08405 20.9472 8.12428 20.9414C8.12154 20.939 8.12344 20.9183 8.08718 20.8259C8.05731 20.7461 7.92691 20.5017 7.64497 20.377C7.21826 20.2314 7.20375 20.3397 7.18185 20.3268C7.22079 20.4073 7.26293 20.4095 7.54325 20.5857ZM4.67788 21.0225C4.67795 21.0227 4.67801 21.0229 4.67808 21.0231C4.7143 21.066 4.75014 21.1091 4.78487 21.1519C4.74426 21.1948 4.70336 21.2367 4.66185 21.278C4.75172 21.4338 4.83432 21.5923 4.89789 21.7282C4.74653 21.7355 4.72637 21.4614 4.57457 21.3184C4.55551 21.0626 4.59707 20.9097 4.71719 20.853C4.70484 20.9099 4.69142 20.9662 4.67788 21.0225ZM32.6055 8.40459C32.5489 8.41183 32.4929 8.41982 32.4369 8.42825C32.2718 8.34577 32.2138 8.16615 32.3201 8.01531C32.3202 7.99393 32.3203 7.97264 32.3203 7.95142C32.3072 7.96406 32.2943 7.97682 32.2813 7.98966C32.1576 8.16526 32.2252 8.37436 32.4174 8.47038C32.4733 8.51229 32.529 8.55348 32.5824 8.59993C32.8683 8.53548 32.8148 8.6913 33.0756 8.82679C33.8505 9.26915 33.8614 8.92383 34.1956 9.76619C33.7294 9.33075 33.783 9.64512 33.3977 9.54639C33.3999 9.40309 33.8646 9.41687 33.6859 9.2182C33.2441 9.05261 32.8156 8.93418 32.3383 8.7953C32.3426 8.81968 32.3467 8.84408 32.3508 8.86843C32.4259 8.89036 32.5005 8.91315 32.5751 8.93735C32.4761 8.94704 32.3796 8.95897 32.2808 8.97235C32.3799 8.9291 32.2914 8.89 32.2477 8.83604C31.8204 8.62254 31.6701 8.15757 31.9452 7.76711C31.9755 7.7491 32.0075 7.74336 32.0399 7.77937C32.0533 7.79439 32.063 7.81936 32.0701 7.84976C31.8511 8.16042 31.9707 8.53037 32.3107 8.70025C32.3741 8.67421 32.4647 8.65733 32.5284 8.64259C32.4813 8.6086 32.4332 8.57503 32.3842 8.54188C32.1461 8.42289 32.0623 8.16376 32.2156 7.94615C32.3093 7.84436 32.4002 7.74048 32.4882 7.63622C32.4802 7.74717 32.4686 7.8603 32.4552 7.97303C32.4361 8.00387 32.4165 8.03481 32.3966 8.06598C32.3248 8.1679 32.364 8.28926 32.4755 8.345C32.5186 8.36416 32.5615 8.38365 32.6044 8.40343C32.6047 8.40381 32.6051 8.4042 32.6055 8.40459ZM2.77876 16.9936C2.93936 16.7684 3.36749 16.5751 3.64084 16.6457C3.35782 16.7557 3.05196 16.878 2.77876 16.9936ZM4.81454 20.8029C4.79912 20.8359 4.7837 20.8683 4.76791 20.9009C4.68918 20.8032 4.60812 20.7055 4.52595 20.6129C4.58615 20.5684 4.64531 20.5214 4.70435 20.4752C4.74302 20.5825 4.78011 20.6936 4.81454 20.8029ZM10.7248 18.8804C10.7116 18.8768 10.6997 18.8734 10.6888 18.8702C10.6077 18.8466 10.5805 18.834 10.4526 18.7957C10.4528 18.7958 10.4529 18.7959 10.4531 18.796C10.3924 18.7664 9.89661 18.6761 9.95413 18.6306C10.1949 18.6402 10.4594 18.6788 10.7232 18.7652C10.7307 18.7677 10.7381 18.7701 10.7452 18.7725C10.7394 18.8087 10.7295 18.8434 10.7248 18.8804ZM7.92249 19.9055C7.92225 19.9059 7.92201 19.9062 7.92178 19.9066C7.8818 20.0139 7.84526 20.1149 7.82917 20.2197C7.79302 19.8284 8.04316 19.6879 8.08461 19.5024C8.08706 19.4796 8.07966 19.4732 8.07085 19.474C8.25848 19.026 8.38021 19.045 8.45939 18.9631C8.54153 18.9059 8.60506 18.8749 8.66794 18.8533C8.79014 18.8129 8.90387 18.8172 9.03165 18.8765C8.94501 18.9313 8.8565 19.0057 8.76649 19.0837C8.69464 19.1008 8.62516 19.1241 8.54568 19.1698C8.46996 19.2258 8.35944 19.2548 8.24747 19.5319C8.24673 19.5509 8.19419 19.7318 8.17877 20.0029C8.0928 19.9714 8.00771 19.9392 7.92249 19.9055ZM35.0954 11.3113C35.2137 11.3212 35.1383 11.4157 35.1388 11.4211C35.1387 11.421 35.1385 11.421 35.1384 11.4209C35.3745 11.835 35.0769 11.3822 35.173 11.8C35.1332 11.744 35.0905 11.6918 35.0474 11.6407C35.0691 11.5354 35.0896 11.4205 35.0954 11.3113ZM23.08 13.7928C23.0918 13.764 23.1029 13.7346 23.1147 13.7058C23.3802 13.8783 23.5107 13.8161 23.6773 14.0459C23.4779 13.9631 23.2796 13.8793 23.0798 13.7932C23.0799 13.7931 23.0799 13.793 23.08 13.7928ZM11.1927 19.7262C10.9726 19.797 10.7655 19.8232 10.5782 19.7722L10.9557 20.226C10.969 20.1748 10.9926 20.1289 11.0244 20.1012C11.0245 20.1011 11.0247 20.101 11.0248 20.101C11.0322 20.0953 11.0843 20.1499 11.1029 20.1429C11.1 20.1135 11.0933 20.0918 11.0885 20.0772C11.1338 20.1017 11.1779 20.1284 11.2204 20.1569C11.2224 20.1306 11.1912 20.1642 11.1766 20.2413L10.6033 19.5522C10.6415 19.5608 10.6852 19.5683 10.7299 19.5745C10.7082 19.5433 10.6867 19.5121 10.6682 19.4805C10.792 19.4744 10.93 19.458 11.0579 19.432C11.0195 19.5198 10.9762 19.6068 10.9293 19.6929C11.016 19.7081 11.1045 19.7188 11.1927 19.7262ZM27.5442 16.5344C27.5057 16.4828 27.6208 16.4683 27.5526 16.4099C27.4838 16.3518 27.316 16.3498 27.3861 16.2764C27.4948 16.3078 27.6136 16.3401 27.7248 16.3692C27.442 16.0761 27.0447 16.0678 27.1238 15.8723C27.4263 16.0656 27.7071 16.1535 28.0449 16.2171C27.9759 16.3709 27.5973 16.3801 27.7468 16.606C27.679 16.5824 27.6095 16.5587 27.5451 16.5343C27.5448 16.5343 27.5445 16.5343 27.5442 16.5344ZM1.75564 21.2241C1.71597 20.9985 1.54123 20.5102 1.58026 20.2509C1.5897 20.183 1.84627 19.9311 1.88545 19.9219C2.0193 19.8854 2.09776 20.1105 2.12067 19.8459C2.14298 19.9219 2.16926 20.0066 2.19303 20.0965C2.27961 20.0591 2.36565 20.0208 2.45187 19.9836C2.41163 19.8762 2.36996 19.7703 2.32858 19.6892C2.35648 19.6756 2.38439 19.6619 2.41218 19.6481C2.51536 19.999 2.56966 19.7614 2.7291 19.94C2.73546 19.737 2.74359 19.5008 2.71303 19.3567C2.7518 19.4137 2.79164 19.5654 2.81 19.6608C2.96728 19.6335 2.85925 19.4028 2.85983 19.3509C2.86976 19.1875 3.02831 19.4438 3.1161 19.7221C3.21541 20.0031 3.31913 20.319 3.44255 20.3436C3.4251 20.1472 3.40556 19.9396 3.38076 19.7306C3.42232 19.7818 3.46358 19.834 3.50448 19.8858C3.45353 20.3734 3.50044 20.8761 3.53507 21.4098C3.553 21.4538 3.57143 21.4984 3.58928 21.542C3.65454 21.5107 3.7197 21.48 3.78503 21.4488C3.81092 21.5151 3.83743 21.5823 3.86397 21.6476C3.58462 21.5077 3.65797 21.7851 3.62437 22.1652C3.4901 22.0085 3.47612 21.7691 3.33265 21.8252C3.41927 22.0061 3.48686 22.2018 3.55143 22.4025C3.55865 22.4228 3.58202 22.4424 3.60359 22.4431C4.0895 22.4725 4.60825 22.5271 5.04222 22.3779C5.18078 22.3193 5.20544 22.1442 5.42542 22.0571C5.42518 22.0575 5.42499 22.0578 5.42486 22.0581C5.43072 22.0652 5.43771 22.0754 5.44476 22.0867C5.45292 22.1031 5.46224 22.1209 5.46798 22.1368C5.47003 22.1348 5.47197 22.133 5.47382 22.1311C5.55095 21.9925 5.45905 21.6849 5.40867 21.4638C5.35002 21.2248 5.29502 20.9773 5.24108 20.6539C5.18502 20.7114 5.1283 20.7685 5.07125 20.8244C5.14514 20.9428 5.21691 21.0633 5.28386 21.185C5.18881 21.2999 5.11946 21.1892 5.1918 21.5588C5.23388 21.8506 5.26011 21.6697 5.30394 21.7463C5.36034 21.8482 5.26149 21.9433 5.302 21.9807C5.33457 21.9958 5.38828 22.039 5.40973 22.0332C5.40221 22.0402 5.38394 22.0498 5.35318 22.0577C5.36087 22.0118 5.36226 21.9648 5.3418 21.9294C5.22196 21.9051 5.12626 21.9311 5.04333 21.9081C5.0718 21.9123 5.10463 21.8774 5.13199 21.8339C5.16646 21.8771 5.19677 21.9171 5.22545 21.9442C5.18474 21.8422 5.10389 21.6353 4.99873 21.443C5.19133 21.4767 5.07731 21.2647 5.02157 21.1458C4.93578 20.9609 5.10244 21.0936 5.04572 20.971C4.9872 20.8477 4.81241 20.7524 4.75989 20.5178C4.87938 20.6121 4.88823 20.4222 4.96959 20.4285C5.05158 20.4342 5.15463 20.6808 5.14701 20.4126C4.93297 20.0034 4.8489 20.5013 4.70962 20.3289C4.65786 20.1845 4.68227 19.9288 4.77555 19.807C4.78599 19.7849 4.80069 19.7593 4.81908 19.7324C5.21419 19.2308 5.57322 19.6522 5.5076 19.789C5.47495 19.8805 5.30362 20.0263 5.26082 20.1568L5.26663 20.1108C5.28827 20.1393 5.31082 20.1645 5.33261 20.1767C5.32905 20.1471 5.32369 20.1164 5.31891 20.0903L5.30637 20.1896C5.66187 19.9258 5.5786 19.7602 5.64233 19.654C5.95745 19.3276 5.84517 19.8855 6.22046 19.6653C6.20991 19.7638 6.20299 19.8525 6.19629 19.9471C6.24977 19.93 6.28899 19.9088 6.36085 19.9077C6.17203 19.6887 6.34673 19.7119 6.45438 19.7398C6.61617 19.7835 6.38856 19.6249 6.43384 19.6133C6.48157 19.6007 6.53685 19.6039 6.5845 19.6108C6.67909 19.6251 6.74637 19.6544 6.68152 19.563C6.72759 19.6247 6.76873 19.6932 6.79334 19.7601C6.99843 19.7726 7.65056 20.3295 7.27563 19.7276C7.44818 19.7003 7.50025 19.9747 7.50639 20.1296C7.51774 20.2873 7.61094 20.2684 7.60887 20.3998C7.56958 20.8796 7.38256 20.5705 7.24856 20.5191C7.30933 20.7976 7.34123 20.7942 7.377 20.8263C7.39432 20.8411 7.41053 20.8654 7.4287 20.9255C7.43786 20.9543 7.44771 20.9947 7.46037 21.0319C7.45906 21.0646 7.53873 21.1165 7.42105 20.9837C7.37739 20.7591 7.97685 21.3029 7.53723 20.7242C7.52044 20.7275 7.50215 20.7304 7.48273 20.7334C7.34196 20.7598 7.26527 20.8614 7.33864 20.9048C7.40316 20.9498 7.54802 20.9399 7.71295 20.8689C7.72149 20.8132 7.72746 20.7576 7.73202 20.7025C7.98648 20.7227 8.05405 20.9187 8.17658 20.4988C8.30343 20.9071 8.25825 20.6898 8.57919 20.4337C8.64397 20.3545 8.63247 20.5994 8.726 20.4803C8.74011 20.4587 8.75064 20.4223 8.75195 20.3679C8.74791 20.3147 8.74169 20.2386 8.79033 20.1807C8.82029 20.124 8.99094 20.0766 9.07477 19.8028C9.04311 19.8768 9.02163 19.8741 9.01419 19.8733C8.97193 19.7854 8.8695 19.7647 8.85547 19.6689C8.84331 19.6269 8.83459 19.5854 8.80467 19.5583C8.77331 19.5479 8.72845 19.4625 8.59015 19.6441C8.58493 19.6476 8.57961 19.6511 8.57409 19.655C8.57634 19.6502 8.57843 19.6456 8.58043 19.6409C8.7003 19.418 8.7792 19.4462 8.85119 19.3985C8.92233 19.3674 8.98576 19.3465 9.04248 19.3296C9.15517 19.2966 9.24142 19.2808 9.28939 19.2793C9.38825 19.2816 9.3082 19.3167 9.03652 19.5345C9.19428 19.5405 9.34389 19.5689 9.48755 19.6074C9.57673 19.5506 9.67286 19.4987 9.77386 19.4527C9.79056 19.6129 9.7782 19.6325 10.1431 19.6486C9.98135 19.6608 9.82302 19.6929 9.6704 19.7387C9.66698 19.7702 9.64804 19.8041 9.65518 19.8341C9.80342 19.7666 10.1976 19.7663 10.3826 19.8053C10.43 19.8143 10.4662 19.8193 10.4907 19.8201C10.6391 19.8252 10.3796 19.7285 10.4301 19.7029C10.635 19.6015 10.7762 19.5985 10.7399 19.6592C10.6918 19.7003 10.6018 19.7154 10.5686 19.8524C10.5349 19.9986 10.7285 19.7056 10.704 19.7864C10.633 19.9507 10.5552 20.0506 10.4922 20.1937C10.4914 20.2141 10.5052 20.2322 10.5256 20.2339C10.5916 20.2653 10.6645 20.2898 10.7517 20.2931C10.6767 20.2093 10.6066 20.1217 10.5486 20.032L10.6949 20.2078C10.714 20.1942 10.7333 20.1819 10.7527 20.1708C10.751 20.1837 10.7495 20.1973 10.7483 20.2115L10.5547 19.9789C10.7864 20.0092 11.0623 19.9987 11.2738 19.9379C11.3619 19.9121 11.2825 19.8491 11.2965 19.842C11.3675 19.8101 11.6237 19.7028 11.6446 19.6898C11.8313 19.6159 11.8866 19.7056 12.0434 19.5949C11.9933 19.6483 11.9354 19.6949 11.8681 19.7387C11.9113 19.9035 11.9393 20.074 11.9564 20.2472C12.1733 20.1687 12.395 20.0462 12.5692 19.8473C12.6161 19.7928 12.6532 19.7314 12.6801 19.6681C12.6428 19.7273 12.5965 19.7816 12.5432 19.8263C12.4016 19.9339 12.2471 19.9978 12.0975 20.0343C12.1945 19.9042 12.2649 19.761 12.2918 19.6227C12.3054 19.4921 12.2378 19.3946 12.1621 19.2959C12.2353 19.181 12.2794 19.0195 12.3109 18.8559C12.153 18.4872 11.8681 18.7002 12.0646 18.4094C11.9945 18.3114 11.9231 18.2141 11.8518 18.115C11.897 18.1135 11.9423 18.1119 11.9875 18.1101C11.9052 17.9897 11.8229 17.8687 11.7435 17.7422C11.6641 17.9414 11.5849 18.1461 11.515 18.342C11.3682 18.0941 11.4804 18.0322 11.4921 17.9803C11.5227 17.843 11.329 17.6532 11.3726 17.5238C11.3869 17.4903 11.5655 17.7512 11.6205 17.6196C11.6321 17.5903 11.8154 17.1133 11.8107 16.963C11.7503 16.9425 11.67 16.9356 11.5994 16.9317C11.6306 16.7381 11.8366 16.6738 11.9241 16.7192C12.0506 16.78 12.1497 16.8971 12.1419 16.9589C12.2872 16.8421 12.512 16.7592 12.5156 16.6504C12.6031 16.6179 12.6722 16.5917 12.7587 16.5594C12.7558 16.8227 13.0763 16.6647 13.0342 16.4536C12.8872 16.4985 12.7479 16.5405 12.6061 16.5835C12.6269 16.2999 12.1501 16.297 13.1151 16.2215C13.3284 16.292 12.809 16.3071 12.9803 16.3559C13.2366 16.3306 13.4479 16.2055 13.708 16.2164C14.0273 16.232 13.7212 16.4569 14.332 16.0888C12.7466 16.2333 14.448 15.7783 15.0983 15.4355C15.4082 15.7241 16.0237 15.6397 16.7889 15.2703C16.6733 15.1992 16.4374 15.3336 16.2824 15.3493C16.1266 15.3652 16.2642 15.2545 16.0677 15.269C15.8719 15.2833 15.4671 15.3498 15.2608 15.3422C15.3964 15.2342 16.1181 14.846 15.6651 15.1736C16.075 15.1446 16.286 15.1853 16.7606 15.0489C16.8502 14.8491 16.8084 14.7563 17.2648 14.6025C17.0642 14.9042 17.6317 14.8838 17.5891 15.1419C17.2488 15.1956 17.36 14.9222 17.1389 14.8807C17.1162 14.8767 16.8318 15.0295 16.7606 15.0489C17.1284 15.1411 17.2568 15.1787 17.145 15.4692C17.3535 15.3786 17.4964 15.364 17.4803 15.2481C17.5404 15.2811 17.6009 15.314 17.6606 15.3472C17.7304 15.3233 17.792 15.2985 17.8663 15.2755C17.7114 15.1429 17.9401 15.1814 18.0585 15.0608C18.1757 14.9407 17.9449 14.87 18.3314 14.7453C18.1894 14.7476 18.062 14.7516 17.9241 14.7553C18.161 14.6325 18.4 14.5095 18.6363 14.389C18.4301 14.3418 17.9975 14.3136 17.9665 14.177C18.0964 14.1908 18.4683 13.9766 18.5104 13.9597C18.6766 13.893 18.6097 14.0061 18.6233 14.0042C18.8994 13.9632 19.1137 13.867 19.2505 13.9652C19.4364 13.8464 19.5904 13.8365 19.8079 13.7701C19.9243 13.7347 19.8744 13.6471 19.947 13.6458C20.4462 13.6374 20.0313 13.8729 20.8667 13.4115C20.7466 13.3702 20.6144 13.3315 20.4889 13.293C20.5825 13.2419 20.6862 13.189 20.7791 13.14C20.8526 13.1349 20.9299 13.1297 21.0014 13.1263C21.0324 13.2712 21.0631 13.4164 21.0942 13.5612C21.1643 13.5536 21.2533 13.5426 21.3274 13.5364C21.1975 13.5768 21.0769 13.6189 20.9472 13.6649C20.941 13.6931 20.9355 13.7213 20.931 13.7492C21.1356 13.7415 21.3252 13.7404 21.5252 13.7481C21.5204 13.6966 21.5156 13.6448 21.5111 13.5934C21.6046 13.5943 21.702 13.5977 21.7601 13.6059C21.7758 13.6053 21.8108 13.6135 21.8238 13.6223C21.9883 13.7744 22.0521 13.8169 22.3801 13.8941C22.6466 14.0638 22.9787 14.016 23.181 14.034C23.2215 14.0927 23.2612 14.1513 23.3028 14.2105C23.361 14.1958 23.4193 14.1813 23.4772 14.1663C23.5171 14.2603 23.5572 14.3542 23.5981 14.4479C23.7078 14.3558 23.7484 14.3317 23.4983 14.1248C23.6791 14.0385 24.1262 14.3926 24.2965 14.556C24.4263 14.681 24.1876 14.7047 24.1981 14.7305C24.2325 14.818 24.5077 14.9185 24.5558 14.9567C24.7596 15.1184 24.9205 15.1999 25.1081 15.3376C25.145 15.3649 25.214 15.5032 25.2222 15.5107C25.2879 15.5635 25.4508 15.6986 25.4711 15.7104C26.5176 16.3185 25.541 15.3985 26.523 15.9247C26.5148 15.8645 26.509 15.8058 26.5018 15.7459C26.5787 15.7793 26.6546 15.8119 26.7322 15.8445C26.8103 15.9275 26.662 15.9447 26.8786 15.9751C26.8403 16.0266 26.8018 16.078 26.7627 16.1288C26.86 16.1359 26.9551 16.1418 27.0545 16.1486C27.0987 16.4085 27.5852 16.6609 27.4562 16.8828C27.4126 16.9601 27.0126 16.8926 27.1703 17.0577C27.3226 17.1393 27.2538 16.9993 27.3204 17.0203C27.7991 17.168 27.7238 17.2898 27.931 17.3232C27.9821 17.275 28.0345 17.2258 28.0859 17.1767C28.1532 17.219 28.2207 17.2607 28.2887 17.3018C28.3186 17.2673 28.3488 17.2329 28.3784 17.1983C28.3112 17.1742 28.2355 17.1465 28.1736 17.1227C28.3119 17.006 29.1281 17.1627 28.7866 17.2098C28.6448 17.2294 28.4234 17.1365 28.5132 17.3641C28.7397 17.4033 28.9974 17.4429 29.2366 17.4678C29.2349 17.5098 29.2328 17.5517 29.2313 17.5936C29.555 17.635 29.2992 17.4125 29.3204 17.3262C29.3917 17.3392 29.463 17.3515 29.5352 17.3628C29.5579 17.4078 29.5792 17.4544 29.6043 17.4983C29.6189 17.4356 29.6832 17.2994 29.8862 17.3851C30.0182 17.4393 29.7771 17.5699 30.0478 17.5819C30.0385 17.48 29.9622 17.3525 30.2519 17.3495C30.2711 17.4554 30.3038 17.5534 30.3188 17.6638C30.5572 17.6187 30.7093 17.6609 30.9009 17.6672C31.0155 17.6704 31.1426 17.6609 31.3026 17.6052C31.5819 17.5121 31.8878 17.2 32.146 17.5516C32.3496 17.5162 32.2619 17.4327 32.3145 17.3968C32.5566 17.2252 32.8094 17.3309 32.8669 17.3213C33.2143 17.2617 33.3236 17.1314 33.6132 17.0667C33.5619 17.0109 33.5191 16.9545 33.4723 16.8981C33.3111 17.1176 33.1877 17.179 32.8492 17.2861C32.9552 17.2299 33.0586 17.1694 33.1588 17.1055C33.1156 17.0594 33.0732 17.0126 33.0321 16.9655C32.5983 17.2868 32.3702 17.2885 32.3938 17.21C32.4121 17.1256 32.6501 16.95 33.0049 16.7359C33.1175 16.8055 33.2369 16.8693 33.358 16.9302C33.7162 16.5269 33.9846 16.5134 34.4239 16.1082C34.4759 16.0602 34.5909 15.8251 34.6517 15.7363C34.6503 15.7375 34.6488 15.7386 34.6474 15.7398C34.6033 15.6235 34.5108 15.6658 34.4302 15.616C34.4546 15.5651 34.4779 15.5139 34.5006 15.4617C34.6298 15.4011 34.6571 15.4721 34.776 15.2516C34.6975 15.2429 34.6203 15.2315 34.5424 15.2205C34.6799 14.9998 34.8312 14.8825 34.9098 14.6411C34.9161 14.6909 34.9221 14.7406 34.9273 14.7906C35.224 14.3213 35.4274 14.8903 35.4034 14.4106C35.4477 14.3983 35.4923 14.386 35.5366 14.3727C35.4788 14.5478 35.4149 14.7188 35.3443 14.8867C35.3894 14.9125 35.4341 14.9386 35.4794 14.9639C35.5525 14.7768 35.6164 14.5862 35.6729 14.3941C35.6534 14.5431 35.6301 14.6903 35.6003 14.8406C35.7203 14.6356 35.8282 14.4286 35.9289 14.2125C35.6667 14.3843 35.7513 14.0731 35.5523 14.0698C35.7401 13.8495 35.9323 13.6593 36.0392 13.3512C36.0899 13.2021 36.1165 13.0267 36.0965 12.8161C36.0801 12.6834 35.9542 12.752 36.1198 12.3932C35.9148 12.4744 35.7971 12.0522 35.5987 12.1296C35.6184 12.2378 35.6288 12.3514 35.6392 12.4594C35.7082 12.3389 35.9003 12.3042 35.9544 12.5106C36.0247 12.7788 35.825 13.1357 36.0338 13.1595C36.0159 13.2201 35.9985 13.2784 35.9798 13.3367C35.9669 13.3768 35.9539 13.4164 35.9401 13.4563C35.8997 13.4025 35.8585 13.3499 35.8173 13.2975C35.8288 13.5963 35.7495 13.7652 35.5834 13.8543C35.6254 13.6601 35.6606 13.465 35.6907 13.2664C35.7107 13.1319 35.7232 12.9988 35.7282 12.8665C35.7131 12.9122 35.6969 12.9584 35.6803 13.0039C35.5802 12.7466 35.4337 12.9651 35.4365 12.5485C35.4981 12.5536 35.5598 12.5584 35.6217 12.5639C35.4721 12.3949 35.4348 11.9964 35.2572 12.1432C35.303 12.0209 35.3341 11.9879 35.2223 11.9396C35.3123 11.615 35.3959 11.3342 35.646 11.3877C35.5708 11.2684 35.4892 11.1554 35.4026 11.0491C35.38 11.1439 35.3538 11.2358 35.3237 11.325C35.2501 11.1187 35.1543 10.9166 35.0415 10.7246C35.186 10.6113 35.2977 11.0805 35.3749 10.8906C35.391 10.851 35.272 10.7716 35.2709 10.7346C35.2592 10.3313 35.4181 10.8843 35.4946 10.724C35.2568 10.2344 35.71 10.449 35.0822 9.95496C35.1089 9.90714 35.135 9.85704 35.1614 9.80977C34.9858 9.59956 34.9142 9.69416 34.7396 9.54509C34.6314 9.45472 34.6328 9.1799 34.4204 9.17909C34.3828 9.18344 34.4222 9.52861 34.0095 9.18055C33.6792 8.92097 33.921 8.88565 33.7637 8.7007C33.6007 8.51044 33.0218 8.45506 33.0072 8.14336C33.1007 8.23263 33.2292 8.32529 33.3324 8.42017C33.4073 8.40204 33.4811 8.38456 33.5567 8.36852C33.251 8.26167 32.9978 8.03847 32.7507 8.06136C32.7206 8.02459 32.6879 7.99132 32.6534 7.96161L32.749 8.29932C33.0524 8.04127 33.087 7.62978 32.8587 7.63504C32.8192 7.76835 32.9764 7.68826 32.8283 7.82052C32.7742 7.81131 32.7204 7.80189 32.6667 7.7916C32.8345 7.52586 32.9285 7.32806 33.0009 7.5291C33.0273 7.48743 33.0537 7.44426 33.0792 7.40168C32.9821 7.34314 32.8839 7.28589 32.7864 7.22808C32.8001 7.17158 32.8126 7.11604 32.8243 7.05982C32.8724 7.01413 32.9204 6.96663 32.9677 6.91789C33.098 7.06203 33.0524 7.21829 33.3252 6.77948C33.2674 6.75755 33.2101 6.73512 33.1523 6.7133C33.3525 6.35014 33.5085 6.37046 33.598 5.84126C33.7417 6.29244 33.3017 6.42194 33.7192 6.5328C33.6629 6.63012 33.6032 6.72579 33.5416 6.81792C33.5953 6.85366 33.6488 6.88985 33.7023 6.9259C33.8966 6.32978 33.5973 5.3525 33.8824 5.00754C33.8521 4.95959 33.8257 4.91388 33.7924 4.86627C33.9393 4.57751 33.7274 4.41206 33.7558 4.17091C33.7625 4.11047 33.7806 4.0446 33.8158 3.96598C33.8248 3.92299 34.223 3.98896 34.081 3.41239C34.0413 3.43815 33.9698 3.46452 33.9176 3.4894C33.9146 3.36713 33.9052 3.24527 33.8872 3.1233C33.8406 3.11849 33.7937 3.11361 33.747 3.11072C33.8086 3.29823 33.8508 3.49245 33.8704 3.68822C33.8267 3.53013 33.7684 3.37856 33.6981 3.23455C33.7069 3.45346 33.722 3.53546 33.586 3.45358C33.5299 3.2943 33.4578 3.14244 33.3729 2.99807C33.34 2.99584 33.3074 2.9951 33.275 2.99425C33.2406 3.10301 33.202 3.20771 33.1537 3.30643C33.0566 2.92735 32.8433 2.65417 32.728 2.31488C32.706 2.25858 32.928 2.30759 32.5773 2.1276C32.6098 2.07989 32.6315 2.03722 32.6602 1.99213C32.1822 1.82024 32.0961 1.71278 31.6898 1.38902C31.9371 1.62564 31.7063 1.43624 31.6075 1.45734C31.5407 1.47097 31.7408 1.55513 31.7 1.5832C31.6577 1.60772 31.3464 1.65402 31.5456 1.76474C32.205 1.71246 32.1513 2.12987 32.7556 2.49183C32.6485 2.44323 32.5382 2.39992 32.4289 2.36435C32.4474 2.42004 32.4615 2.46949 32.4775 2.52858C32.2423 2.22821 32.3476 2.38299 32.1958 2.32846C32.0428 2.27605 31.7863 2.16548 31.6149 2.09535C31.56 2.07255 31.6519 2.03141 31.5345 1.966C31.4521 1.9187 31.1798 1.92997 31.1723 1.78513C31.1593 1.68797 31.6603 1.61058 31.0886 1.40765C31.0057 1.28976 31.2777 1.40781 31.2861 1.40191C31.3756 1.32354 31.0303 1.12122 30.8351 1.15529C30.8202 1.1583 30.9317 1.27045 30.7801 1.26281C30.4178 1.24896 30.2407 1.13084 30.0202 0.976809C29.9751 1.1179 29.6671 1.25177 29.3051 1.18872C29.2853 1.22977 29.2665 1.27127 29.2472 1.31277C29.3038 1.29193 29.3601 1.272 29.4167 1.25241C29.4781 1.28114 29.5423 1.30378 29.5992 1.33853C29.2335 1.35236 29.1802 1.55793 29.0149 1.63076C28.4528 1.89647 28.7696 1.35768 28.8833 1.26258C28.9629 1.29756 29.0371 1.33801 29.1128 1.37707C29.1044 1.32643 29.0956 1.27542 29.088 1.2245C28.1843 1.25007 28.943 0.893869 28.4629 0.82423C28.3544 1.08161 28.0262 1.13006 27.5625 1.04558C27.5145 1.05463 27.466 1.06316 27.4177 1.07325C27.4159 1.11043 27.4257 1.16505 27.4167 1.19094C27.3747 1.2019 27.3349 1.20988 27.2971 1.21523C26.8863 1.27945 26.7005 1.01894 26.6399 1.00052C26.3499 0.932018 26.2629 1.22127 26.2042 1.2518C25.9429 1.39131 25.8211 1.34895 25.6048 1.5385C25.3827 1.74442 25.5954 1.69191 25.5606 1.79859C25.5329 1.88285 25.3564 2.02791 25.3209 2.1302C25.3207 2.07145 25.3251 2.01063 25.3263 1.95145C25.0512 2.08816 24.8219 2.20946 24.5647 2.44394C24.5336 2.94845 23.9067 2.81956 24.3357 3.02273C24.5687 2.80604 24.7347 2.71362 24.934 2.68118C24.7998 2.83326 24.6675 2.99435 24.5451 3.1552C24.4681 3.16636 24.4032 3.1662 24.3176 3.18741C24.2964 3.3742 24.0404 3.62153 23.9812 3.75388C23.7106 4.37041 23.9851 4.29928 23.3997 4.62904C23.6106 4.25235 23.4873 4.16821 23.7573 3.82837C23.6162 3.84053 23.5052 4.03572 23.4849 3.84432C23.2669 4.20913 23.4407 4.16187 23.4329 4.35292C23.4269 4.51731 23.281 4.75568 23.3853 4.80279C23.3175 4.79372 23.2548 4.78049 23.187 4.77196C23.0445 5.0013 22.9071 5.23333 22.7746 5.46861C22.7747 5.33673 22.7764 5.20371 22.7797 5.07094C22.7141 5.13395 22.6486 5.19834 22.5836 5.26259C22.4212 5.9378 21.5861 6.80795 22.1238 6.86437C21.9973 7.16256 21.9266 7.16562 21.7642 7.28602C21.7908 7.31987 21.8119 7.35043 21.8427 7.38593C21.7194 7.55586 21.7851 7.76083 21.6769 7.91072C21.5705 8.05762 21.4255 8.04901 21.6251 8.16493C21.5163 8.24861 21.4229 8.32622 21.3179 8.41501C21.3372 8.50173 21.3566 8.58686 21.3773 8.67022C21.3103 8.75729 21.2386 8.85631 21.1717 8.94396C21.2511 9.03699 21.0344 9.4293 21.029 9.62823C20.8446 9.75458 20.5106 9.60738 20.3955 10.0059C20.4825 10.038 20.5696 10.0691 20.6573 10.0995C20.5999 10.1723 20.5359 10.2614 20.4599 10.3318C20.4328 10.3177 20.4072 10.3016 20.3813 10.2857C20.4071 10.2704 20.4496 10.2188 20.4766 10.1893C20.4156 10.1949 20.3437 10.215 20.2908 10.1997C20.2972 10.2173 20.2877 10.2331 20.3369 10.2228C20.2652 10.3137 20.1472 10.4144 20.0594 10.5068C20.1109 10.5091 20.1932 10.5017 20.2555 10.5002C20.3064 10.5023 20.3988 10.4917 20.4442 10.4927C20.5445 10.4553 20.5714 10.4101 20.6091 10.3798C20.6492 10.3385 20.675 10.3144 20.7062 10.2803C20.6935 10.328 20.6815 10.3656 20.6536 10.417C20.6259 10.4572 20.6177 10.5163 20.4812 10.5858C20.4542 10.5978 20.412 10.6116 20.3702 10.6255C20.3447 10.6341 20.3155 10.6438 20.2826 10.6562C20.2101 10.6829 20.15 10.7113 20.0922 10.7553C19.8661 10.6918 19.9132 10.6005 19.9511 10.4443C19.886 10.4768 19.8052 10.5135 19.7514 10.5423C19.7542 10.3969 19.6151 10.354 20.016 10.2418C19.9803 10.2116 19.9434 10.1837 19.9054 10.1526C19.8443 10.178 19.785 10.1614 19.7131 10.1994C19.5505 10.2928 19.4487 10.5776 19.4894 10.6541C19.5132 10.6935 19.6882 10.5508 19.6965 10.6141C19.7219 10.767 19.2592 10.8367 19.9374 10.7901C19.7672 10.9447 19.6785 10.8947 19.4447 10.9366C19.4771 10.9802 19.5088 11.0237 19.5402 11.0677C19.4319 11.0761 19.3165 11.0867 19.1948 11.0992C19.264 10.8031 18.4424 10.9504 19.0964 10.5105C18.8586 10.5707 18.6768 10.6137 18.4412 10.6725C18.4797 10.6325 18.5175 10.593 18.5546 10.5535C18.6573 10.5371 18.7559 10.5218 18.8514 10.5073C18.7295 10.4928 18.6024 10.4803 18.4706 10.4689C18.2137 10.6111 18.1509 10.7286 18.0575 10.8784C18.3962 10.8638 18.2507 10.7871 18.4896 10.6903C18.5021 10.7633 18.5336 10.8245 18.5338 10.9051C18.3654 10.7972 17.9968 11.0254 17.8938 11.0647C17.6218 11.1713 17.7977 10.9612 17.6077 11.0159C17.4173 11.0707 17.2019 11.2297 17.0101 11.1331C17.0372 11.2118 17.0747 11.2903 17.1079 11.3594C16.8198 11.4761 16.848 11.3647 16.8137 11.3619C16.2497 11.3157 16.0333 11.5669 15.4782 11.7602C15.5574 11.7627 15.6362 11.7628 15.7147 11.764C15.3452 12.0625 15.6092 11.9246 16.0004 11.8654C15.6438 11.9565 15.4974 12.159 15.2597 12.2791C15.0243 12.3983 14.5881 12.4524 14.4121 12.4439C14.7406 12.2407 15.1306 12.1871 15.5191 12.0395C15.4498 11.9722 15.3854 11.917 15.3118 11.8422C15.1236 12.0864 14.9503 12.0154 14.8668 12.0165C14.6185 12.0208 14.6702 12.1646 14.4824 12.0509C14.5047 12.1031 14.5229 12.1472 14.5442 12.1958C14.0566 12.322 13.5207 12.3842 13.2727 12.6801C13.2043 12.5593 13.1442 12.4412 13.0707 12.3191C12.9011 12.479 12.6974 12.4332 12.5341 12.5093C12.3711 12.5855 12.4697 12.6695 12.2848 12.7718C12.2506 12.7907 12.1539 12.7491 12.079 12.8258C12.0033 12.9028 11.7805 13.3697 11.6406 13.0674C11.471 13.1193 11.307 13.1586 11.1392 13.2059C11.2954 13.1368 11.4518 13.0684 11.607 12.9999C11.4453 12.967 11.2842 12.9342 11.122 12.9016C11.1259 12.9752 11.1302 13.0501 11.1346 13.1227C10.7891 13.3234 10.4836 13.2982 10.1173 13.4445C10.0562 13.4689 10.2466 13.5561 9.95844 13.6107C9.66981 13.6656 9.38069 13.4816 8.94147 13.7309C8.91898 13.7438 8.8402 13.9815 8.62742 13.9038C8.57898 13.8863 8.72706 13.7888 8.6255 13.7782C8.52336 13.7676 8.11922 13.8637 8.05814 13.7795C8.07325 13.8115 8.10901 13.838 8.13198 13.8681C8.07074 13.9058 8.00709 13.9443 7.94348 13.9825C7.91781 13.9259 7.89161 13.8694 7.86604 13.8131C7.51889 14.0788 7.40086 14.3643 6.79752 14.4844C6.98656 14.5157 7.17882 14.5465 7.36844 14.578C7.39211 14.5038 7.41587 14.429 7.43914 14.3549C7.70826 14.2922 7.98601 14.227 8.25709 14.1646C8.27796 14.0823 8.29824 14.0004 8.31932 13.9181C8.39214 13.9041 8.46435 13.89 8.53749 13.876C8.536 13.931 8.53429 13.9858 8.53213 14.041C8.66705 13.9836 8.80273 13.9258 8.93814 13.8685C8.74823 14.2517 8.14388 14.1001 8.26002 14.3315C8.18639 14.3138 8.11005 14.2968 8.03477 14.2794C8.04601 14.4064 7.90654 14.4145 7.67744 14.4697C7.74765 14.5109 7.82304 14.5495 7.88942 14.5927C7.64462 14.5824 7.26573 14.717 7.02738 14.7618C6.9239 14.781 6.99407 14.6627 6.96131 14.6625C6.79179 14.6608 6.56048 14.9044 6.49464 14.9136C6.10234 14.9684 5.78954 14.7604 5.4507 15.0851C5.87712 14.9892 5.64815 15.0466 5.82593 15.1007C5.88091 15.1179 6.41977 15.0088 5.765 15.1996C5.67847 15.2234 4.43243 15.4428 4.76894 15.1575C4.59008 15.274 4.46052 15.382 4.30846 15.4935C3.73235 15.2601 4.01536 15.573 4.21585 15.7286C4.1443 15.7555 4.07754 15.7822 4.0055 15.8085C4.0838 15.5389 3.28706 15.8174 3.07916 16.0224C3.00857 16.0903 3.27117 16.0661 3.08667 16.1742C2.97877 16.1992 2.85936 16.2242 2.75284 16.2479C2.95081 16.3224 2.68771 16.4872 2.74913 16.6195C2.51924 16.5732 2.26407 16.3841 2.31044 16.2029C2.1775 16.3242 2.06185 16.4398 1.92787 16.5682C2.00946 16.5684 2.10786 16.5618 2.18489 16.5657C1.97953 16.6201 1.81822 16.7002 1.62887 16.8075C1.48926 16.8824 1.29092 17.0376 1.28947 17.0103C1.23274 17.0792 1.17076 17.1341 1.08168 17.1403C1.06468 17.2097 1.05212 17.2791 1.04335 17.3491C1.09085 17.379 1.13923 17.406 1.18787 17.4324C1.10773 17.7216 1.08346 18.0401 1.1349 18.3539C1.02838 18.0954 0.943379 18.0251 0.991679 17.72C0.933535 17.837 0.883862 17.9644 0.844796 18.0953C0.964565 18.3238 1.07222 18.4278 1.17097 18.5555C1.27626 18.6785 1.35741 18.8405 1.60118 19.0626C1.59725 19.1004 2.03597 19.4255 2.07251 19.4198C2.1507 19.4934 2.00045 19.5557 2.03487 19.5922C2.12564 19.734 2.90423 19.8813 2.90007 19.8925C2.87854 20.0647 2.07921 20.4997 1.05189 19.9023C0.0635624 19.2465 -0.012542 18.1717 -0.0393914 17.8101C-0.0562852 17.3976 -0.0400816 17.0054 0.168061 16.4998C6.24478 12.7754 10.8008 12.5326 16.1425 10.6309C16.1975 10.6133 16.1564 10.5653 16.1791 10.5557C16.3191 10.4976 16.5018 10.5361 16.5566 10.5232C16.6772 10.4943 16.5877 10.4345 16.6735 10.4081C17.5669 10.1357 18.4088 9.93132 19.3021 9.64343C19.3606 9.62454 19.3216 9.70627 19.4183 9.66431C19.4615 9.64432 19.6056 9.49305 19.7177 9.45666C19.809 9.42732 20.0194 9.36119 19.9993 9.37322C19.522 9.6221 19.6203 9.68007 19.5821 9.69404C19.5697 9.71463 19.5782 9.70475 19.585 9.69465C19.6021 9.66907 19.6288 9.62188 19.6557 9.57057C19.7112 9.46426 19.7706 9.33802 19.8291 9.20114C19.9226 8.98245 20.0797 8.63042 20.1861 8.37679C20.2361 8.25758 20.2417 8.12521 20.2902 8.00893C20.3595 7.84323 20.4317 7.91585 20.4478 7.89343C20.518 7.7967 20.4292 7.73979 20.4774 7.6362C20.5692 7.44104 20.6337 7.46661 20.7408 7.21562C20.8145 7.04143 20.9509 6.61873 21.0445 6.3906C21.3645 5.91273 21.6708 5.25932 21.92 4.77765C22.0677 4.49196 22.168 4.5175 22.2354 4.40551C22.4742 4.01215 22.5648 3.64788 22.8211 3.28346C23.1632 2.80157 23.5628 2.43965 23.9784 2.01967C24.0461 1.95193 23.9671 1.90477 24.0328 1.83615C24.2783 1.5785 24.619 1.26287 24.8959 1.07792C25.2058 0.872374 25.3914 0.906738 25.6967 0.708312C25.7892 0.650743 25.7652 0.533443 25.9298 0.44017C26.194 0.291173 26.5493 0.275448 26.7564 0.233184C27.0205 0.181205 26.8091 0.130682 27.0803 0.0702444C27.1011 0.0659374 27.1252 0.0618177 27.1532 0.0579982C27.1672 0.0561331 27.2319 0.12835 27.302 0.112303C27.5059 0.0673404 27.4754 0.0042342 27.7846 -0.0310031C27.8121 -0.0356123 28.2345 -0.00144812 28.2728 -0.00221425C28.5148 -0.0244777 29.0043 -0.0116449 29.1487 -0.024369C29.67 -0.0720889 29.2682 -0.211021 29.697 0.0825916C29.8936 0.0302226 30.0962 -0.0163988 30.319 -0.0487246C30.1711 -0.0126708 30.7245 0.165491 30.7627 0.173883C31.1011 0.205981 30.9294 0.05049 31.3483 0.187373C30.7274 0.258526 31.8745 0.369693 32.1192 0.504364C33.2663 1.00723 34.2854 1.93728 34.6448 3.41043C34.6961 3.63532 34.7417 3.90289 34.7488 4.18571C34.7592 4.41471 34.7674 4.6541 34.7565 4.8667C34.7518 4.95865 34.698 4.88649 34.6925 4.96662C34.6871 5.0465 34.7567 4.96043 34.7478 5.05331C34.6879 5.63091 34.5132 6.08179 34.5121 6.68699C34.4834 6.70913 34.4669 6.70379 34.431 6.74289C34.4474 7.26261 33.874 8.03995 33.684 8.28493C33.5443 8.48464 33.4714 8.61635 33.4098 8.73692L32.987 7.24263C33.1274 7.29019 33.2498 7.32666 33.4143 7.42329C33.8378 7.66355 34.3419 8.22605 34.2333 7.79638C34.5225 7.97493 34.792 8.17087 35.0415 8.41987C35.0692 8.44768 34.9996 8.48747 35.0104 8.49877C35.0772 8.57086 35.1459 8.54183 35.1981 8.58482C35.3377 8.70194 35.0654 8.56021 35.2699 8.71956C35.3763 8.80667 35.4783 8.81253 35.7406 9.10276C36.7299 10.1462 37.3672 11.9786 36.9175 13.565C36.709 14.3987 36.3981 15.2462 35.9082 16.0195C35.8184 16.1584 35.9399 16.1077 35.8185 16.279C35.4184 16.9057 34.2945 17.7152 33.7151 17.975C33.1462 18.2605 33.3127 18.2927 32.9466 18.4682C32.8752 18.4997 32.9176 18.4228 32.851 18.4422C32.3994 18.5761 31.8518 18.5684 31.5006 18.5843C31.2673 18.5948 31.2924 18.6877 31.1304 18.7031C31.0614 18.7092 30.9913 18.7055 30.9236 18.697C30.7486 18.6762 30.5922 18.6221 30.4999 18.6161C29.8867 18.5725 29.4696 18.5798 28.9411 18.4206C28.9574 18.446 28.9669 18.4682 28.9802 18.4925C28.3454 18.3449 27.7458 18.1442 27.1662 17.9162C27.1868 17.9448 27.2065 17.9732 27.2272 18.002C26.5486 17.7247 26.7158 17.5568 26.6016 17.9895C26.5464 17.9831 26.4871 17.9774 26.4342 17.9702C26.5424 17.7694 26.2051 17.4468 25.7402 17.1573C25.7057 17.1363 25.3676 17.2165 25.5098 16.995C25.4187 17.0211 25.3612 17.0416 25.2835 17.0654C25.217 16.9432 25.1477 16.8198 25.0835 16.6976C25.0236 16.6798 24.9631 16.6609 24.9029 16.6426C24.8709 16.6836 24.8524 16.7339 24.8112 16.7691C24.5528 16.6429 24.0697 16.3037 23.872 16.1977C23.378 15.9362 22.8202 15.7641 22.5296 15.411C22.3431 15.3147 22.4682 15.5097 22.2085 15.3348C22.2051 15.2729 22.2022 15.2137 22.199 15.15C21.8634 15.2092 21.8898 15.0629 21.621 14.837C21.4758 14.7147 21.3462 14.6677 21.2058 14.587L21.8334 14.7492C21.8247 14.7517 21.8055 14.7539 21.7757 14.7555C21.7372 14.7579 21.7356 14.6908 21.7085 14.6971C21.612 14.7168 21.3214 14.8746 21.2317 14.8999C20.4915 15.1066 19.8191 15.3012 19.0747 15.5051C18.994 15.5276 19.1173 15.5583 19.0336 15.5814C18.8991 15.6188 18.9477 15.4975 18.8698 15.5167C18.6537 15.5707 18.6808 15.6739 18.3867 15.7734C17.4107 16.104 16.2563 16.4046 15.2279 16.7464C15.1958 16.7573 15.2178 16.8159 15.1832 16.8283C14.9596 16.9075 14.7026 16.9058 14.4938 16.9782C14.1553 17.0953 13.9214 17.2685 13.5844 17.384C13.1354 17.5372 12.7343 17.6574 12.2624 17.7963C12.3371 17.7711 12.4705 17.7112 12.5931 17.5741C12.7166 17.4384 12.7717 17.2703 12.7837 17.1806C12.8021 17.0015 12.7756 17.0282 12.792 17.0693C12.8754 17.3936 13.1793 17.8536 13.439 18.6749C13.4868 18.8479 13.5358 19.0414 13.544 19.3137C13.5514 19.5738 13.5018 19.9955 13.2055 20.3624C12.1896 21.4106 11.3133 21.3179 10.4034 21.306C9.80144 21.2551 9.39134 20.7225 9.41569 20.1189C9.43207 19.8501 9.48854 19.4759 9.75305 19.0994C9.80512 19.0227 9.92109 18.8925 9.8593 18.9628C9.83968 19.0046 9.77278 19.0072 9.65813 19.3682C9.60064 19.5411 9.61676 19.9192 9.73793 20.1348C9.8569 20.365 9.96394 20.4454 10.0357 20.5076C10.2877 20.6873 10.2593 20.6377 10.2846 20.6568C10.2996 20.664 10.1901 20.6302 10.1192 20.6093C10.0278 20.5862 9.8583 20.5742 9.69088 20.5954C9.60811 20.6052 9.52261 20.6231 9.4652 20.6417C9.43804 20.6502 9.41522 20.6611 9.42957 20.6568C9.4379 20.6534 9.45453 20.6488 9.50885 20.6145C9.5587 20.5519 9.6801 20.6044 9.90825 20.0758C9.79641 20.3914 9.74148 20.4579 9.75405 20.4484C9.75888 20.4415 9.76002 20.4308 9.75706 20.4666C9.68727 20.9518 9.55133 21.0792 9.465 21.2268C9.37155 21.3617 9.28776 21.4562 9.20574 21.5427C9.0425 21.7124 8.88698 21.8422 8.71962 21.9647C8.55103 22.0864 8.37821 22.1969 8.15225 22.3034C8.03712 22.3562 7.91189 22.4094 7.72771 22.4556C7.53906 22.4831 7.30128 22.6026 6.73313 22.3801C6.46727 22.2626 6.25807 22.0396 6.15845 21.873C6.05336 21.7015 6.01516 21.5743 5.98689 21.4719C5.93711 21.274 5.93435 21.1644 5.92806 21.0699C5.92009 20.8869 5.92553 20.7784 5.92548 20.6892C5.92585 20.6368 5.98197 20.6558 5.97877 20.6406C5.94527 20.5111 5.87067 20.5512 6.02065 20.4982C5.97681 20.4456 5.89554 20.6734 6.12787 20.7979C6.18099 20.8212 6.1954 20.7664 6.21548 20.7374C6.22229 20.7081 6.21176 20.6886 6.19529 20.7301C6.16606 20.8157 6.2327 20.908 6.19771 20.8145C6.19767 20.8114 6.12342 20.7248 6.11476 20.7697C6.12302 20.7942 6.14807 20.8703 6.21023 20.8412L6.3564 19.684C6.37252 19.7147 6.39112 19.7539 6.4108 19.7989C6.55207 20.1256 6.66962 20.476 6.76506 20.8901C6.8117 21.0993 6.85446 21.3187 6.87557 21.601C6.88442 21.7451 6.89255 21.9017 6.86295 22.1327C6.81109 22.3397 6.8325 22.77 6.19939 23.2397C5.87927 23.4342 5.71854 23.4545 5.56024 23.4973C5.4085 23.532 5.28156 23.5504 5.16111 23.5654C4.92196 23.5943 4.71131 23.6067 4.5067 23.6177C4.42507 23.6277 3.70647 23.6786 3.54979 23.6899C3.53989 23.6911 3.53049 23.6923 3.52154 23.6935C3.04082 23.676 2.51972 23.2404 2.35882 22.7871C2.235 22.5715 2.17142 22.6332 2.05823 22.3113C1.96964 22.0543 2.00403 21.8165 1.91351 21.5219C1.903 21.4874 1.79477 21.4504 1.75564 21.2241ZM32.6875 7.20656C32.6282 7.11068 32.3651 6.87945 32.5753 6.63154C32.596 6.60507 32.7577 6.84963 32.8586 6.69103C32.8194 6.86945 32.7548 7.03672 32.6878 7.20672C32.6877 7.20667 32.6876 7.20661 32.6875 7.20656ZM3.45846 19.0236C3.57741 19.2949 3.58394 19.4159 3.61962 19.5736C3.64813 19.7209 3.67102 19.8611 3.69307 19.9991C3.60969 19.8203 3.52713 19.6403 3.42726 19.4443C3.45346 19.329 3.49102 19.224 3.45846 19.0236ZM24.4966 14.7269C24.4964 14.7268 24.4962 14.7267 24.496 14.7266C24.7642 14.829 25.0342 14.9289 25.3024 15.0239C25.2603 15.0385 25.2186 15.0534 25.1769 15.0681C24.9563 15.0065 24.7355 14.9421 24.5146 14.8756C24.5086 14.8261 24.5025 14.7765 24.4966 14.7269ZM22.3845 13.857C22.2504 13.7261 22.3232 13.694 22.2727 13.5859C22.2727 13.586 22.2726 13.5861 22.2725 13.5862C22.2592 13.5579 22.1629 13.4794 22.1239 13.4515C22.1165 13.4958 22.1139 13.5424 22.108 13.5872C22.0437 13.5647 21.9769 13.5274 21.9135 13.4822C21.8801 13.4594 21.7899 13.4384 21.7495 13.4398C21.5053 13.4477 21.286 13.4263 21.207 13.3552C21.1434 13.2893 21.1752 13.1526 21.7233 13.0314C21.8246 13.0279 22.0505 13.0805 22.1343 13.1376C22.1459 13.1429 22.1578 13.1484 22.1698 13.154C22.1359 13.1826 22.1025 13.2113 22.0687 13.2399C21.9999 13.193 21.8143 13.1498 21.7311 13.1527C21.728 13.1627 21.7249 13.1727 21.7219 13.1827C21.7256 13.1823 21.7293 13.182 21.7329 13.1817C21.8118 13.1789 21.9878 13.2199 22.053 13.2644C22.5091 13.5415 22.9486 13.9483 22.3845 13.857ZM32.9346 3.37875C32.6126 3.12688 32.5458 3.0828 32.3035 2.67639C32.3842 2.68532 32.4654 2.69781 32.5466 2.71381C32.5652 2.80602 32.5763 2.89455 32.5834 2.98365C32.5835 2.98381 32.5837 2.98398 32.5838 2.98414C32.6337 2.9638 32.6842 2.94422 32.7345 2.92492C32.8195 3.07262 32.887 3.22538 32.9346 3.37875ZM9.83692 19.0945C9.68972 18.7599 9.72194 18.9311 10.1761 18.8969C10.3378 18.8923 10.1913 18.811 10.2935 18.8164C10.4688 18.8277 10.5941 18.8752 10.67 18.9278C10.7857 19.0265 10.7414 19.1523 10.6535 19.2095C10.6285 19.2022 10.6089 19.1967 10.5843 19.1895C10.3313 19.1145 10.0783 19.0905 9.83781 19.0945C9.83751 19.0945 9.83721 19.0945 9.83692 19.0945ZM3.85114 22.2903C3.85106 22.2901 3.85098 22.2898 3.8509 22.2896C3.86898 22.2811 3.88689 22.2833 3.9039 22.2888L3.62784 22.0736C3.65797 22.0354 3.70887 22.0126 3.6351 21.9628L4.00955 22.2547C4.01245 22.2408 4.01485 22.2237 4.01674 22.2028C4.02148 22.2178 4.02624 22.2328 4.03103 22.2478L3.63658 21.9403C3.75895 21.9486 3.88473 21.9542 4.01107 21.9572C3.9691 21.9641 3.92643 21.9703 3.88459 21.9766C3.92025 22.0064 3.95673 22.0364 3.99298 22.0658C4.04582 21.9712 4.09117 22.0284 4.2406 22.0605C4.19923 21.9584 4.15937 21.856 4.12013 21.7534C4.28839 21.7856 4.45811 21.8137 4.62439 21.8355C4.62777 21.8611 4.63123 21.8867 4.63466 21.9123C4.69552 21.8761 4.75455 21.8386 4.81099 21.8005C4.83002 21.8296 4.84841 21.8585 4.8678 21.8874C4.93763 21.8569 5.00476 21.8245 5.06311 21.7902C5.09297 21.8589 4.9696 21.9205 5.19866 21.8503C5.15513 21.9414 5.08039 22.0325 5.00025 22.1201C4.55783 22.1683 4.08147 22.1575 3.6245 22.1244L3.85546 22.3044C3.85402 22.2997 3.85258 22.295 3.85114 22.2903ZM11.9407 19.4968C11.6509 19.7011 11.7044 19.5814 11.7018 19.4032C11.777 19.4426 11.8564 19.4753 11.9407 19.4968ZM33.964 16.2004C33.9931 16.0192 34.0095 15.8406 34.0166 15.6661C34.1443 15.4292 34.4712 15.3213 34.4129 15.5424C34.3322 15.8135 34.0686 15.94 33.964 16.2004ZM34.7531 10.2059C34.9305 10.5178 34.6174 10.3369 34.5082 10.3336C34.5462 10.1799 34.4492 10.0835 34.3062 9.92009C34.4567 10.0554 34.7223 10.1524 34.7534 10.2057C34.7533 10.2058 34.7532 10.2058 34.7531 10.2059ZM28.4464 16.7328C28.3045 16.6906 28.154 16.6726 28.0414 16.5904C28.1172 16.5013 28.3315 16.6817 28.2082 16.466C28.2969 16.4941 28.3876 16.522 28.4764 16.5477C28.3994 16.5937 28.4591 16.6664 28.4461 16.7323C28.4462 16.7324 28.4463 16.7326 28.4464 16.7328ZM13.3946 15.6712C13.7195 15.6976 13.759 15.625 14.0158 15.4417C14.09 15.5285 13.805 15.8139 13.6041 15.9243C13.5354 15.8396 13.4664 15.7548 13.3946 15.6712ZM6.39593 15.3254C6.42424 15.1727 6.91795 14.9873 7.18384 14.941C7.16011 14.9701 7.13643 14.9994 7.11293 15.0288C6.87237 15.1276 6.64021 15.2241 6.39593 15.3254ZM34.2381 9.84109C34.2619 9.86929 34.2847 9.89557 34.3062 9.92009C34.2795 9.89564 34.256 9.8696 34.2381 9.84109ZM25.8792 1.62964C25.9262 1.45338 25.5651 1.61575 26.0035 1.41791C26.0034 1.41781 26.0034 1.4177 26.0033 1.41759C26.299 1.2967 26.3639 1.27723 26.6416 1.1805C26.5937 1.37284 26.109 1.63124 26.8355 1.38401C26.8453 1.38125 26.7943 1.29382 26.9181 1.26951C26.9569 1.26251 27.0964 1.3027 27.2792 1.28987C27.2857 1.28941 27.2968 1.28826 27.3106 1.28685C27.4157 1.27573 27.6681 1.24818 27.3162 1.31611C27.2799 1.32345 27.237 1.33245 27.187 1.34408C27.2294 1.45157 27.2249 1.57125 27.2519 1.6788C27.0594 1.75798 26.8313 1.59705 26.6089 1.6978C26.2831 1.85199 26.2549 2.14501 26.0399 1.92656C26.2556 1.69566 26.7581 1.48231 26.877 1.63801C27.142 1.55222 27.1966 1.39357 26.9429 1.38884C26.0164 1.84856 26.5642 1.25637 25.8098 1.82049C25.8231 1.86105 25.8164 1.91884 25.8427 1.94793C25.5286 1.98578 25.8576 1.69156 25.8792 1.62964ZM28.0777 1.27277C27.9118 1.37964 27.7423 1.49285 27.5866 1.60801C27.5637 1.46836 27.6345 1.32355 27.9121 1.20536C27.9678 1.22746 28.0232 1.25 28.0777 1.27277ZM17.7236 11.4386C17.721 11.5202 17.6741 11.6086 17.6455 11.6942C17.5608 11.6517 16.28 11.9784 16.9112 11.7183C17.0033 11.6803 17.6138 11.6366 17.7236 11.4386ZM11.2773 16.9679C11.3172 16.73 11.6291 16.4422 11.8394 16.4493C11.8681 16.4532 11.9104 16.4525 11.9511 16.452C11.9158 16.469 11.8789 16.4863 11.855 16.4992C11.7028 16.5489 11.5215 16.7376 11.5047 16.9107C11.4788 17.0796 11.5169 17.2019 11.5533 17.3129C11.4512 17.2353 11.3443 17.1454 11.2773 16.9679ZM35.3857 14.2435C35.3604 14.3021 35.3362 14.0669 35.2623 14.3073C35.2669 14.1086 35.2692 13.9261 35.2623 13.7334C35.3262 13.6971 35.3898 13.6595 35.4535 13.6204C35.4344 13.5702 35.4156 13.5186 35.3956 13.4693C35.4597 13.5128 35.5222 13.555 35.5864 13.6019C35.3485 13.8568 35.4969 13.9751 35.3857 14.2435ZM27.521 16.9882C27.5262 16.8199 27.9893 16.8958 27.5763 16.7099C27.6942 16.6434 27.8398 16.6423 28.089 16.721C28.115 16.7726 28.1414 16.8238 28.1679 16.8752C28.2076 16.7755 28.2858 16.7609 28.4464 16.7328C28.4465 16.7329 28.4465 16.7331 28.4466 16.7332C28.8222 16.8438 28.7888 16.866 28.8335 17.0625C28.4577 16.8516 28.4021 16.9987 28.094 16.996C27.8832 16.9933 27.6491 16.8728 27.521 16.9882ZM19.0712 11.0258C18.8305 11.2397 19.1304 11.2794 18.5619 11.3033C18.5822 11.2614 18.6084 11.2181 18.6333 11.1748C18.7875 11.1223 18.9337 11.0726 19.0712 11.0258ZM26.3776 15.8928C26.3007 16.1299 26.4771 16.4254 26.6897 16.0813C26.4757 15.8916 26.5007 16.1542 26.3776 15.8928ZM35.134 10.0647C35.4477 10.5121 35.1352 10.5717 34.9118 10.4854C34.9353 10.4309 34.9579 10.3756 34.9797 10.3203C34.9081 10.2619 34.8356 10.2067 34.7615 10.153C34.884 10.1202 35.0084 10.0906 35.134 10.0647ZM17.5681 14.7216C17.904 14.428 17.1166 14.765 17.3552 14.5722C17.5469 14.4175 17.8868 14.4948 17.8124 14.6354C17.7385 14.6624 17.6556 14.6914 17.5689 14.7214C17.5686 14.7215 17.5684 14.7215 17.5681 14.7216ZM19.8202 13.9718C19.7041 13.8098 19.8062 13.8365 19.5091 13.9594C19.4204 13.9945 18.6949 14.1422 19.0378 14.2004C19.2904 14.1232 19.5551 14.0467 19.8202 13.9718ZM33.3453 5.39325C33.4322 5.39302 33.5345 5.97529 33.4694 6.03966C33.4695 6.03968 33.4696 6.0397 33.4697 6.03973C33.3148 6.2037 33.4006 5.62984 33.1915 5.84831C33.4244 5.32702 33.0636 5.12075 33.5344 5.20007C33.5254 5.53557 33.4417 5.36805 33.3453 5.39325ZM1.20351 18.3279C1.20358 18.3281 1.20366 18.3284 1.20373 18.3286C1.19 18.291 1.25052 17.9872 1.30106 18.0172C1.32956 18.3368 1.24624 18.3332 1.48699 18.5358C1.45782 18.5695 1.42946 18.6017 1.40264 18.6389C1.32076 18.5473 1.24058 18.5012 1.20351 18.3279ZM16.3003 11.7013C16.4248 11.6407 16.6878 11.6529 16.8418 11.6003C16.4578 12.0743 15.7989 11.9443 16.3003 11.7013ZM6.06273 19.3641C6.06321 19.364 6.06369 19.3638 6.06417 19.3636C6.06404 19.3638 6.06386 19.364 6.06373 19.3642C6.0634 19.3642 6.06306 19.3642 6.06273 19.3641ZM23.4554 4.81042C23.4274 4.81337 23.4058 4.81151 23.3896 4.80552C23.3883 4.80468 23.387 4.80383 23.3856 4.80298C23.4082 4.80601 23.4313 4.80866 23.4554 4.81042ZM33.3815 4.24112C33.5004 4.00854 33.6681 4.79348 33.6029 5.04633C33.552 5.02533 33.5051 5.01955 33.4478 4.975C33.5972 4.77923 33.3627 4.27728 33.3815 4.24112ZM30.9203 17.3566C31.3309 17.3419 31.1098 17.5657 30.8992 17.5894C30.8043 17.5999 30.7159 17.5659 30.7074 17.4523C30.7088 17.4469 30.8389 17.3897 30.8942 17.3658C30.9078 17.3603 30.9173 17.3568 30.9203 17.3566ZM33.1119 8.68856C33.3137 8.64962 33.0647 8.45439 33.4818 8.73747C33.4874 8.78294 33.4929 8.82859 33.4979 8.874C33.3708 8.80839 33.2419 8.7467 33.1119 8.68856ZM34.8305 16.2687C35.332 15.5677 35.4979 14.8105 34.9405 15.0853C34.9237 15.1403 34.9047 15.1965 34.8855 15.252C35.038 15.353 34.845 15.4907 34.6529 15.7353C34.6854 15.8148 34.5872 15.9639 34.6125 16.0285C34.6601 16.1578 34.864 16.0471 34.8305 16.2687ZM8.65811 20.3151C8.62849 20.2994 8.59893 20.2832 8.57015 20.266C8.55276 20.1391 8.55954 19.9987 8.58568 19.8657C8.63096 19.9105 8.67699 19.9544 8.72453 19.9959C8.68592 20.0993 8.66563 20.2048 8.65839 20.3144C8.6583 20.3146 8.65821 20.3148 8.65811 20.3151ZM28.8071 0.82993C28.7507 1.18003 28.9829 1.09403 29.4962 0.942912C29.2703 0.895483 29.0402 0.858071 28.8071 0.82993ZM22.9943 14.7659C23.0314 14.6736 23.0685 14.5818 23.1051 14.4892C22.8254 14.4378 22.808 14.5586 22.8494 14.7363C22.8978 14.7463 22.9455 14.7557 22.9943 14.7659ZM19.6739 14.5085C19.7845 14.4971 19.7085 14.437 19.7199 14.4353C20.0003 14.3966 20.041 14.4219 20.3587 14.2714C20.3932 14.2402 20.4252 14.2088 20.4597 14.1772C20.2581 14.0194 20.1713 14.159 19.8175 14.1358C19.8962 14.1863 19.9737 14.2374 20.0503 14.2891C19.868 14.3258 19.6865 14.3638 19.5023 14.4033C19.487 14.4305 19.4716 14.4576 19.4563 14.4849C19.5291 14.4922 19.6042 14.5026 19.6739 14.5085ZM7.57397 21.2502C7.46305 21.289 7.3325 21.3272 7.23322 21.2815C7.18752 21.2583 7.16563 21.204 7.15438 21.1491C7.10385 21.1558 7.05264 21.1608 7.00147 21.1637C7.03267 21.2351 7.08242 21.3373 7.1924 21.3712C7.36804 21.4037 7.47064 21.3156 7.57397 21.2502ZM25.3209 2.1302C25.3209 2.15324 25.3214 2.17612 25.3235 2.19821C25.3102 2.18014 25.3113 2.15662 25.3209 2.1302ZM1.1622 18.8822C1.25561 19.0968 1.54111 19.3166 1.78123 19.4085C1.79528 19.3457 1.65039 19.2673 1.51818 19.1426C1.38299 19.0209 1.26872 18.8505 1.2504 18.7438C1.21481 18.728 1.12072 18.7925 1.1622 18.8822ZM35.5323 10.6963C35.6127 10.7122 35.6932 10.7311 35.7737 10.7518C35.8252 10.8732 35.8709 10.9977 35.9105 11.1243C35.9605 11.1099 36.0109 11.0955 36.061 11.0814C35.7717 10.5477 35.952 10.6243 35.9325 10.2765C35.8037 10.422 35.6702 10.5618 35.5323 10.6963ZM5.91817 22.2211C6.00221 21.8841 5.92314 21.7647 5.88747 21.6972C5.84113 21.6362 5.79133 21.6695 5.71958 21.7901C5.7498 21.9357 5.82521 22.0905 5.68353 22.3185C5.76746 22.3055 5.8487 22.2641 5.91817 22.2211ZM21.2643 8.13824C21.1843 8.46741 20.9914 8.38812 20.9685 8.73903C21.0751 8.58672 21.1757 8.45079 21.2833 8.29957C21.2766 8.24667 21.2704 8.19211 21.2643 8.13824ZM34.0851 2.88565C34.0691 2.67939 33.64 2.57095 33.5346 2.0522C33.4026 2.01454 33.2998 2.01071 33.1826 1.99721C33.203 1.9021 33.2146 1.79873 33.2294 1.70248C33.2292 1.70226 33.2289 1.70205 33.2287 1.70183C32.8875 1.43436 33.0324 1.69976 32.9677 1.756C32.9421 1.77754 32.744 1.54283 32.7698 1.6627C32.8214 1.85442 33.2937 2.22394 33.1641 2.33789C33.0741 2.14173 32.7452 1.90997 32.7608 2.06973C32.772 2.2335 33.1709 2.35496 33.2294 2.60982C33.2325 2.17598 33.6004 2.81612 33.4402 2.98388C33.749 3.28654 33.6751 2.90346 33.4137 2.54345C33.692 2.6802 33.4015 2.39785 33.4545 2.26913C33.7308 2.42137 34.0967 3.41939 34.0851 2.88565ZM31.7975 17.9385C32.0755 17.8924 32.5425 17.8697 32.6922 17.6827C32.7756 17.5791 32.3417 17.6493 32.5936 17.4504C32.3425 17.5385 32.2917 17.5924 32.3622 17.6826C32.3048 17.7099 32.2453 17.7363 32.187 17.7613C32.1544 17.7477 32.1214 17.7343 32.0893 17.7202C32.0657 17.7683 32.0408 17.8161 32.0169 17.8637C31.9496 17.8676 31.8813 17.8705 31.8138 17.8719C31.8093 17.8942 31.7988 17.9146 31.7975 17.9385ZM13.4854 12.3478C13.5562 12.3244 13.626 12.3014 13.6962 12.2779C13.681 12.2563 13.6639 12.2342 13.6473 12.2123C13.6348 12.1947 13.6223 12.1772 13.6098 12.1597C13.673 12.2165 14.0443 12.2282 14.1601 12.1107C14.2195 12.0513 14.0154 11.9691 14.3135 11.8513C14.0914 11.9276 13.9017 12.0063 13.6916 12.084C13.6984 12.0386 13.7043 11.9931 13.7111 11.9477C13.711 11.9477 13.7108 11.9477 13.7107 11.9477C13.6375 11.9607 13.563 11.9736 13.4893 11.9868C13.4879 12.1072 13.4869 12.2273 13.4854 12.3478ZM23.0799 15.0446C23.3387 15.1061 23.4335 15.1131 23.3981 14.9394C23.3979 14.9392 23.3977 14.939 23.3975 14.9388C23.2865 14.9401 23.1762 14.9413 23.0656 14.9422C23.0701 14.9762 23.0746 15.0102 23.0799 15.0446ZM23.4896 3.4559C23.5601 4.18931 24.0584 3.03098 23.7892 3.10873C23.7752 3.11113 23.5626 3.44723 23.4896 3.4559ZM35.1916 9.89081C35.2905 10.0069 35.3848 10.1288 35.4737 10.2557C35.5051 10.1923 35.5346 10.1273 35.5637 10.062C35.4405 9.9985 35.3157 9.94126 35.1916 9.89081ZM5.84463 20.2305C5.8772 20.1437 5.87675 20.0148 5.84433 19.8845L5.76411 20.5196C5.80044 20.505 5.86086 20.4217 5.86472 20.3212C5.80733 20.3377 5.74785 20.3638 5.69616 20.3928C5.75944 20.3018 5.85565 20.2128 5.95788 20.1571C5.90025 19.9789 5.78264 20.1203 5.57643 20.2516C5.56381 20.2595 5.50117 20.2662 5.44235 20.2876L5.475 20.0292C5.47046 20.1622 5.48103 20.3189 5.60521 20.3508C5.649 20.3619 5.5466 20.0054 5.73434 20.2117C5.70938 20.1211 5.6803 20.0433 5.65051 19.9604L5.59525 20.3979C5.59951 20.3928 5.6051 20.3865 5.61147 20.3799C5.64915 20.4055 5.68607 20.432 5.72281 20.4588C5.71363 20.4646 5.70516 20.4702 5.69925 20.4728L5.76988 19.9137C5.79728 20.02 5.82167 20.125 5.84463 20.2305ZM33.3983 17.4394C33.762 17.2658 33.7598 17.1613 33.7558 17.0076C33.6135 17.1176 33.4636 17.219 33.3078 17.3116C33.338 17.3541 33.3674 17.3969 33.3983 17.4394ZM6.50619 20.9543C6.50072 21.2106 6.60315 21.0963 6.64157 21.2131C6.6883 21.3238 6.73694 21.5667 7.03747 21.7116C7.38999 21.829 7.51088 21.7393 7.65144 21.71C7.78249 21.6672 7.89382 21.6111 8.00087 21.5284C7.99085 21.5586 7.98084 21.5869 7.96992 21.6162C7.9702 21.616 7.97049 21.6159 7.97077 21.6157C8.72507 21.2159 8.79186 20.9437 8.66999 21.0365C8.52955 21.1136 8.19514 21.3781 7.72076 21.6081C7.68236 21.58 7.64338 21.5515 7.60712 21.5216C7.48562 21.575 7.36479 21.6703 7.09116 21.5936C6.882 21.5093 6.81612 21.3447 6.7747 21.2698C6.73338 21.1853 6.70874 21.1265 6.68189 21.0797C6.62994 20.9879 6.57616 20.945 6.50619 20.9543ZM27.6031 0.650663C27.583 0.6283 27.7002 0.445379 27.4448 0.562991C27.2737 0.831535 27.5968 0.657447 27.6993 0.735719C27.6289 0.768862 27.5611 0.80176 27.4946 0.835737C27.9298 0.834181 27.9867 0.777438 27.807 0.625117C27.7943 0.614753 27.6242 0.672738 27.6031 0.650663ZM24.8223 1.80871C25.0006 2.10832 25.3323 1.64215 25.2606 1.56744C25.1932 1.6117 25.18 1.69584 25.099 1.72645C25.0172 1.75836 24.9485 1.70805 24.8223 1.80871ZM33.3756 8.00994C33.3628 8.00059 33.2856 7.79238 33.246 7.90136C33.2983 8.23298 33.729 8.29131 33.7198 8.17583C33.5997 8.10757 33.5013 8.0967 33.3757 8.00962C33.3757 8.00973 33.3756 8.00984 33.3756 8.00994ZM5.11279 22.9856C5.11173 23.002 5.61722 22.9715 5.72562 22.8449C5.76872 22.7692 5.7824 22.6991 5.79749 22.6256C5.80645 22.607 5.8147 22.5881 5.82248 22.5686C5.80999 22.58 5.79653 22.5913 5.78214 22.6022C5.40396 22.8822 4.98146 22.8279 5.11371 22.9855C5.1134 22.9855 5.1131 22.9855 5.11279 22.9856Z" fill="white"/>
<path d="M25.6802 11.1053C25.6976 10.9563 25.8337 11.1469 25.8199 10.8994C25.8523 10.9038 25.8851 10.9078 25.9176 10.9119C25.8844 10.9794 25.8517 11.0469 25.8188 11.1146C25.7726 11.1119 25.7264 11.1089 25.68 11.1056C25.68 11.1055 25.6801 11.1054 25.6802 11.1053ZM25.1281 11.8647C25.2774 11.707 25.4119 11.7245 25.4043 11.4867C25.3561 11.5427 25.3074 11.5986 25.2589 11.6545C25.25 11.5813 25.2413 11.508 25.2335 11.4353C25.2042 11.4495 25.1749 11.4636 25.1457 11.4774C25.1981 11.3595 25.2516 11.2417 25.3054 11.1242C25.3103 11.1499 25.3153 11.176 25.3204 11.2017C25.4382 11.1558 25.5074 11.1673 25.6005 11.2037C25.6093 11.1736 25.6181 11.1438 25.6271 11.1138C25.6412 11.1836 25.656 11.2536 25.6714 11.3235C25.608 11.3433 25.5369 11.3647 25.4775 11.3824C25.4254 11.5859 25.5841 11.5538 25.6565 11.5491C25.7558 11.5429 25.691 11.6146 25.7636 11.6118C25.7751 11.6114 25.8141 11.548 25.8311 11.5567C25.9161 11.6007 26.0597 11.728 25.8777 11.8237C25.7502 11.7245 25.5603 11.7732 25.4523 11.646C25.3822 11.8387 25.2745 11.8527 25.1281 11.8647ZM28.0695 12.6028C27.9922 12.679 27.9139 12.6088 27.8761 12.5222C27.876 12.5222 27.876 12.5222 27.8759 12.5221C27.8674 12.5031 27.8829 12.3704 27.9247 12.3918C27.9924 12.4268 27.9577 12.631 28.0422 12.5144C28.0503 12.5447 28.0601 12.5725 28.0695 12.6028ZM28.2303 12.6456C28.2584 12.7077 28.19 12.8469 28.147 12.7885C28.147 12.7886 28.147 12.7887 28.1469 12.7888C28.129 12.7643 28.2145 12.6653 28.0905 12.753C28.1048 12.6564 28.1168 12.5682 28.1311 12.4749C28.1517 12.4805 28.1709 12.4845 28.1923 12.4906C28.1265 12.6346 28.2023 12.5838 28.2303 12.6456ZM25.9914 11.7887C26.0679 11.6691 26.04 11.6544 26.0431 11.5427C26.084 11.5716 26.125 11.6005 26.1661 11.6289C26.1081 11.6825 26.0501 11.7357 25.9914 11.7887ZM24.9986 11.1368C24.9985 11.1367 24.9985 11.1367 24.9984 11.1366C24.9721 11.1455 24.9456 11.1542 24.9195 11.1628C24.9406 11.1157 24.9619 11.069 24.9832 11.0221C24.9086 11.0273 24.8339 11.0319 24.7585 11.0357C24.856 10.9157 24.9244 10.9968 25.0335 10.9417C25.0751 11.0285 25.0575 11.1253 24.9874 11.2361C24.991 11.2031 24.9949 11.1698 24.9986 11.1368ZM30.2015 7.76626C30.1761 7.72616 30.1503 7.6864 30.1246 7.64656C30.0937 7.65928 30.0669 7.67403 30.0333 7.68499C30.153 7.84436 30.01 7.76253 29.9695 7.84621C29.845 8.09879 30.1183 8.21227 29.6298 8.16471C29.7615 8.0182 29.5556 7.96234 29.4953 7.78033C29.6062 7.82517 29.7549 8.07342 29.8465 8.03684C29.8246 7.85006 29.8018 7.67395 29.8167 7.49924C29.7972 7.49244 29.7776 7.48556 29.7581 7.47872C29.7558 7.50638 29.7536 7.53393 29.7512 7.56151C29.7198 7.5102 29.6882 7.45974 29.656 7.40813C29.7421 7.50188 29.7297 7.3921 29.8434 7.47608C29.894 7.51351 29.9473 7.59252 29.9857 7.6441C30.0451 7.61066 30.103 7.57362 30.1618 7.5378C30.1881 7.5908 30.2141 7.64411 30.2399 7.69743C30.2275 7.72052 30.2148 7.74316 30.2022 7.76615C30.202 7.76619 30.2017 7.76623 30.2015 7.76626ZM24.325 9.31494C24.2228 9.18614 24.2582 9.05113 24.4364 9.05392C24.3979 9.14184 24.3617 9.22725 24.325 9.31494ZM24.9304 11.3281C24.9376 11.3029 24.9449 11.2781 24.9522 11.2529C25.0089 11.2365 25.0654 11.22 25.1218 11.2029C25.0871 11.2661 25.0528 11.3294 25.0187 11.3926C24.9891 11.3713 24.9597 11.3495 24.9304 11.3281ZM27.0577 12.4351C27.031 12.4278 27.0297 12.4247 27.0029 12.4013C27.0029 12.4013 27.0029 12.4014 27.003 12.4015C26.9921 12.3925 26.9072 12.307 26.9421 12.2623C26.9927 12.2849 27.0467 12.3107 27.0985 12.334C27.0852 12.3678 27.0708 12.4008 27.0577 12.4351ZM26.4762 12.1202C26.4762 12.12 26.4762 12.1199 26.4762 12.1197C26.4619 12.103 26.4525 12.079 26.4352 12.0666C26.5421 12.0239 26.4817 12.168 26.5634 12.1598C26.6451 12.1511 26.7201 12.0922 26.6793 12.3098C26.6457 12.329 26.6044 12.3597 26.5676 12.3831C26.5166 12.2627 26.4574 12.3227 26.3479 12.3613C26.3908 12.2808 26.4334 12.2007 26.4762 12.1202ZM29.7978 9.36521C29.8542 9.27441 29.8312 9.37732 29.8323 9.37916C29.8323 9.37926 29.8322 9.37936 29.8321 9.37946C30.0091 9.3513 29.7916 9.42431 29.9113 9.49749C29.8811 9.51242 29.8512 9.52928 29.8222 9.54547C29.8156 9.4866 29.8077 9.42023 29.7978 9.36521ZM31.3195 12.7952C31.2946 12.777 31.2696 12.759 31.2448 12.7408C31.2975 12.6852 31.2092 12.6005 31.336 12.6116C31.3323 12.6736 31.3278 12.7338 31.3198 12.7954C31.3197 12.7953 31.3196 12.7952 31.3195 12.7952ZM27.4085 12.8284C27.2886 12.843 27.2047 12.8358 27.1483 12.71C27.1483 12.7099 27.1483 12.7097 27.1483 12.7096C27.1452 12.702 27.1966 12.6542 27.196 12.6363C27.1731 12.6369 27.1474 12.6418 27.1234 12.6439C27.1414 12.5956 27.1595 12.5473 27.1775 12.4993C27.2256 12.5362 27.2739 12.5728 27.3224 12.6091C27.3261 12.578 27.3296 12.547 27.3334 12.5159C27.3849 12.5209 27.4371 12.5259 27.4888 12.5303C27.4408 12.6019 27.3926 12.6733 27.344 12.745C27.3654 12.7729 27.3871 12.8003 27.4085 12.8284ZM32.185 11.6848C32.1506 11.6967 32.0962 11.6675 32.066 11.6864C32.0363 11.7041 32.0944 11.7479 32.0012 11.7289C31.9915 11.7013 31.979 11.6732 31.9669 11.6464C31.7936 11.7154 31.932 11.8082 31.7244 11.7726C31.7902 11.7168 31.7703 11.652 31.712 11.591C31.8799 11.5886 32.0219 11.677 32.1806 11.6282C32.1823 11.6467 32.1846 11.6664 32.1846 11.6846C32.1848 11.6847 32.1849 11.6847 32.185 11.6848ZM22.3087 11.8981C22.2608 11.8352 22.0791 11.7517 22.0787 11.6103C22.0777 11.5748 22.2463 11.3004 22.277 11.2731C22.3794 11.1804 22.4589 11.2369 22.4536 11.1004C22.4779 11.1248 22.5048 11.1455 22.5304 11.1684C22.5929 11.0995 22.6554 11.031 22.7182 10.9627C22.6802 10.9433 22.6422 10.9237 22.6043 10.904C22.6255 10.8816 22.6467 10.8592 22.6679 10.8368C22.7663 10.9407 22.7949 10.7979 22.925 10.7742C22.9189 10.6873 22.9142 10.601 22.9123 10.516C22.9321 10.5479 22.9583 10.5835 22.9751 10.6131C23.0925 10.5082 23.0125 10.4776 23.0252 10.4481C23.0954 10.2832 23.2928 10.6128 23.4768 10.4692C23.4532 10.4099 23.4292 10.3501 23.4063 10.2899C23.4383 10.2825 23.4707 10.2753 23.5024 10.2673C23.4808 10.4718 23.5517 10.6192 23.6037 10.8003C23.6187 10.8053 23.634 10.8101 23.6487 10.8151C23.6933 10.7596 23.738 10.7045 23.7828 10.6492C23.8042 10.6573 23.8258 10.6656 23.8473 10.6736C23.6437 10.8052 23.7104 10.8618 23.699 11.0413C23.6013 11.0654 23.5795 10.979 23.4812 11.0967C23.71 11.1436 23.7865 11.4241 24.0253 11.442C24.0841 11.4462 24.2053 11.2904 24.2835 11.3732C24.2673 11.3882 24.243 11.419 24.2237 11.4402C24.4374 11.4835 24.5639 11.5055 24.6754 11.701C24.7063 11.6359 24.7377 11.5708 24.769 11.5059C24.7141 11.5108 24.6582 11.5153 24.603 11.5194C24.6478 11.4071 24.7122 11.39 24.6099 11.3173C24.5263 11.2572 24.545 11.3351 24.5017 11.3464C24.4425 11.3617 24.4715 11.2668 24.407 11.2846C24.3572 11.2979 24.3261 11.396 24.2746 11.3258C24.3776 11.2468 24.4826 11.1638 24.5851 11.082C24.5838 11.1164 24.5824 11.1512 24.5813 11.186C24.5452 11.2009 24.5095 11.2155 24.4731 11.2301C24.5663 11.2248 24.6544 11.2192 24.7496 11.211C24.624 11.344 24.7255 11.3335 24.7716 11.3398C24.8435 11.3497 24.7264 11.4197 24.7731 11.4272C24.8201 11.4344 24.9365 11.3457 24.9821 11.413C24.9028 11.4566 24.9079 11.5478 24.8571 11.6032C24.8061 11.6587 24.7285 11.6254 24.7481 11.7375C24.9092 11.7723 24.9321 11.445 25.0417 11.4637C25.1712 11.4841 24.9426 11.8866 24.8566 11.9492C24.7888 11.9983 24.7133 11.9288 24.6446 11.9763C24.7187 12.1959 24.8741 11.9645 24.9293 11.936C25.131 11.8312 24.7808 12.2336 24.9973 12.1454C24.9422 12.2274 24.8928 12.3012 24.8398 12.3796C24.8694 12.3771 24.8955 12.3653 24.9272 12.3684C24.9591 12.1611 25.0126 12.2048 25.0421 12.2229C25.0889 12.2515 25.0671 12.1271 25.0923 12.1143C25.1596 12.0801 25.1959 12.1373 25.2088 12.0455C25.2022 12.0879 25.1969 12.1311 25.1911 12.1735C25.2719 12.1658 25.6092 11.8881 25.448 11.8877C25.5387 11.7638 25.5381 11.8495 25.556 11.8874C25.5738 11.9252 25.6233 11.8412 25.6401 11.8721C25.7075 11.9956 25.5554 12.0994 25.4715 12.2017C25.6582 12.2067 25.5504 12.0757 25.7826 12.1395C25.8544 12.0578 25.8187 11.9067 25.9256 11.8968C25.8482 12.0656 25.8398 12.214 25.924 12.3303C25.9554 12.299 25.9869 12.2673 26.0182 12.2359C25.9983 12.4192 25.8836 12.5595 26.0988 12.4341C25.8541 12.7452 26.0128 12.5478 26.0454 12.7437C26.0523 12.7833 25.9648 12.8289 25.9763 12.8811C25.9817 12.9047 26.0431 12.8678 26.0554 12.927C26.061 12.9561 26.0713 13.1299 26.1577 13.093C26.2027 12.9046 26.3747 12.8108 26.3585 12.6283C26.4987 12.7411 26.6511 12.7131 26.3595 12.8578C26.375 12.929 26.3911 13 26.4081 13.0711C26.4564 13.0444 26.5045 13.0178 26.5524 12.9909C26.4908 13.1332 26.4677 13.1709 26.5939 13.1991C26.5286 13.2094 26.4636 13.2202 26.3976 13.2298C26.3825 13.2573 26.3616 13.2834 26.3502 13.3117C26.4373 13.2875 26.6221 13.3441 26.6812 13.325C26.7402 13.3061 26.6636 13.2594 26.6922 13.2283C26.9272 12.9718 26.8193 13.1902 26.9144 13.17C26.9699 13.1575 26.884 13.0804 26.9123 13.0771C27.0161 13.0654 26.9853 13.2431 27.0593 13.2767C27.0713 13.1737 27.0849 13.0695 27.0991 12.9663C27.173 13.0036 27.2592 13.0404 27.3424 13.0395C27.375 13.0392 27.3816 12.9619 27.388 12.9592C27.4199 12.9447 27.5268 12.9437 27.5366 12.947C27.6099 12.9749 27.575 13.0714 27.6449 13.1039C27.6134 13.1013 27.5845 13.0987 27.5539 13.0959C27.4816 13.2464 27.4086 13.3966 27.3353 13.5469C27.404 13.5866 27.4735 13.6255 27.5437 13.6642C27.5086 13.5921 27.4734 13.5199 27.4405 13.4478C27.5712 13.3539 27.7013 13.2583 27.8272 13.1603C27.8414 13.2531 27.8572 13.3461 27.8734 13.4391C27.9985 13.4589 28.0796 13.1321 28.0432 13.4295C28.0857 13.4173 28.1279 13.4049 28.1698 13.3925C28.1521 13.4309 28.1345 13.4693 28.1167 13.5076C28.1666 13.4965 28.2157 13.4851 28.2657 13.4731C28.2646 13.3176 28.2697 13.1555 28.2721 13.005C28.3602 12.9993 28.3239 13.1196 28.3268 13.1534C28.3343 13.2429 28.4299 13.1546 28.4329 13.2357C28.4342 13.2637 28.331 13.3193 28.3308 13.419C28.3302 13.4383 28.3394 13.8077 28.4347 13.75C28.4505 13.6883 28.4662 13.6117 28.4821 13.5442C28.5853 13.5331 28.5474 13.8664 28.5111 13.9531C28.5796 13.904 28.6574 13.9181 28.6924 13.8219C28.7192 13.826 28.7456 13.8301 28.7722 13.8339C28.6858 14.0683 28.8099 14.0512 28.8644 13.8447C28.8202 13.8291 28.7761 13.8129 28.7329 13.7968C28.8295 13.5508 28.7305 13.3665 28.9536 13.6669C28.9775 13.8117 28.8623 13.6272 28.8834 13.7364C28.9471 13.8118 29.0284 13.7786 29.0839 13.8864C29.1533 14.0202 29.0176 14.1114 29.2637 14.0029C28.9437 13.6398 29.2006 13.7059 29.431 13.7033C29.4947 13.7028 29.5565 13.6977 29.6058 13.6795C29.6115 14.0556 29.7982 14.2047 30.0783 14.1055C30.0541 14.001 29.9684 14.0499 29.9225 14.0119C29.8777 13.974 29.9335 13.917 29.8798 13.8637C29.8259 13.8106 29.7126 13.7314 29.6652 13.651C29.7231 13.6006 29.968 13.4865 29.7972 13.6361C29.9019 13.7504 29.9502 13.8617 30.0993 13.8869C30.1484 13.7261 30.1477 13.6277 30.2781 13.6205C30.2011 13.8475 30.3681 13.9988 30.3441 14.2317C30.2267 14.1817 30.2849 13.9539 30.2235 13.8469C30.2178 13.8365 30.122 13.8921 30.0993 13.8869C30.19 14.0925 30.2357 14.1669 30.1643 14.4079C30.244 14.3877 30.296 14.416 30.2996 14.3008C30.3174 14.3502 30.3362 14.3996 30.3557 14.4487C30.3827 14.4462 30.4069 14.4402 30.4358 14.439C30.3844 14.2684 30.468 14.3702 30.5132 14.286C30.5558 14.2014 30.4743 14.0749 30.6059 14.0542C30.5557 14.0209 30.5121 13.9912 30.4676 13.957C30.5443 13.9043 30.616 13.8475 30.6804 13.7874C30.603 13.6967 30.4773 13.5555 30.4641 13.4159C30.501 13.4651 30.5788 13.3565 30.5854 13.3503C30.619 13.3279 30.6194 13.4182 30.6226 13.4197C30.6951 13.4464 30.7339 13.4018 30.8019 13.5194C30.8295 13.4457 30.8751 13.4642 30.9223 13.4383C30.948 13.424 30.8991 13.3386 30.9218 13.348C31.0717 13.4061 31.0638 13.5655 31.1089 13.2437C31.0476 13.2039 30.9887 13.1596 30.9327 13.1138C30.9357 13.0811 30.937 13.0487 30.9374 13.0166C30.9551 13.019 30.9734 13.0209 30.9917 13.0224C31.0826 13.1393 31.1735 13.2566 31.2641 13.3737C31.2848 13.3678 31.3056 13.3611 31.3267 13.354C31.3088 13.388 31.2903 13.4212 31.2696 13.4546C31.2824 13.4775 31.2953 13.5004 31.3078 13.5235C31.3774 13.5227 31.4471 13.5191 31.5194 13.5098C31.4863 13.4704 31.4528 13.4307 31.4196 13.3913C31.5594 13.3614 31.5991 13.3827 31.5755 13.1994C31.6399 13.13 31.5171 12.9373 31.4728 12.8457C31.506 12.8496 31.5399 12.8531 31.5739 12.8553C31.546 12.8209 31.518 12.7867 31.4895 12.7528C31.551 12.7691 31.6125 12.785 31.6747 12.7987C31.5698 12.712 31.5375 12.6859 31.451 12.7267C31.3304 12.6073 31.4687 12.5329 31.5495 12.5059C31.611 12.4864 31.7044 12.6041 31.7219 12.608C31.7831 12.619 31.78 12.5239 31.797 12.5128C31.8686 12.4662 31.8852 12.4192 31.9444 12.3705C31.9559 12.3617 32.0519 12.368 32.0559 12.3661C32.0804 12.3509 32.1464 12.3125 32.1506 12.3062C32.1552 12.2996 32.1595 12.2932 32.1634 12.2871C32.3231 12.0204 31.8645 12.191 31.9887 11.9495C31.9376 11.9432 31.8871 11.9356 31.8364 11.9275C31.8386 11.9094 31.8405 11.8917 31.8419 11.8737C31.8885 11.862 31.9575 11.907 31.9073 11.8472C31.9679 11.8636 32.0284 11.8805 32.0884 11.8979C32.0606 11.8677 32.0319 11.84 32.0024 11.8127C32.2245 11.8191 32.2883 11.6707 32.5415 11.6927C32.6292 11.6995 32.7053 11.8442 32.8046 11.7804C32.828 11.7207 32.721 11.754 32.7175 11.7293C32.6887 11.5551 32.8293 11.5641 32.7886 11.4907C32.7257 11.4822 32.6616 11.4743 32.598 11.4677C32.6146 11.4414 32.6307 11.4144 32.6461 11.3865C32.6038 11.385 32.5614 11.3836 32.5191 11.3828C32.519 11.4059 32.5186 11.4315 32.5174 11.4525C32.3573 11.4313 32.2449 11.2132 32.3969 11.2779C32.4596 11.3059 32.4464 11.386 32.6294 11.3101C32.5911 11.2386 32.5461 11.1617 32.4994 11.0949C32.5387 11.0818 32.578 11.0688 32.6171 11.0555C32.5617 10.9585 32.4306 11.0999 32.3444 11.1208C32.3362 11.1005 32.3278 11.08 32.3189 11.06C32.3543 11.0392 32.3914 11.0177 32.425 10.9958C32.3639 11.0145 32.2207 11.0501 32.2507 10.9725C32.2692 10.9206 32.4442 10.9272 32.3925 10.8564C32.3028 10.9002 32.2008 10.9684 32.1386 10.9031C32.2305 10.8543 32.3124 10.8047 32.4088 10.7535C32.2698 10.6888 32.387 10.566 32.2157 10.5026C32.1061 10.4615 31.8334 10.5229 32.1261 10.2441C32.0962 10.1851 32.028 10.2614 31.999 10.2598C31.8631 10.2555 31.9702 10.0875 31.9674 10.0665C31.9534 9.93798 31.8715 9.94557 31.8774 9.82023C31.8266 9.8745 31.777 9.92434 31.7266 9.97638C31.8604 9.95738 31.8858 9.99266 31.938 10.0924C31.903 10.0734 31.8674 10.0553 31.832 10.0376C31.7908 10.0819 31.7492 10.1259 31.7077 10.1694C32.1005 10.2727 31.7519 10.4346 31.5278 10.2973C31.5969 10.2071 31.6636 10.115 31.7299 10.022C31.4979 10.0206 31.5537 9.8689 31.4403 9.71831C31.4267 9.70052 31.3251 9.69692 31.2976 9.67799C31.2977 9.67868 31.2979 9.67937 31.298 9.68006C31.2143 9.74702 31.2044 9.80208 31.1457 9.87565C31.1249 9.87345 31.1042 9.87136 31.0834 9.86948C31.0997 9.78994 31.1474 9.75243 31.0763 9.71732C31.04 9.77967 31.0032 9.84169 30.9661 9.90352C30.9019 9.85506 30.9062 9.76064 30.8246 9.74201C30.8509 9.72785 30.8773 9.7137 30.9039 9.69989C30.8086 9.54436 31.1634 9.28315 30.9327 9.3755C30.9467 9.34057 30.9609 9.30539 30.9745 9.2703C31.0261 9.29506 31.0779 9.32135 31.1287 9.34767C31.1604 9.30668 31.1921 9.26595 31.2237 9.22486C31.1644 9.20023 31.1035 9.17646 31.0438 9.15412C31.1007 9.15113 31.1587 9.14949 31.2165 9.14851C31.1714 9.08507 31.1254 9.02272 31.0772 8.96059C31.0358 9.16246 30.939 9.12541 30.8501 9.29313C30.8364 9.0957 30.8558 8.86136 30.6159 8.87754C30.5687 8.88161 30.5243 9.00695 30.5031 8.81331C30.427 9.01021 30.2632 9.03584 30.1885 9.22214C30.2246 9.22971 30.2594 9.2411 30.2951 9.24688C30.2938 9.16775 30.375 8.99508 30.4576 8.97528C30.5651 8.95113 30.5996 9.12429 30.7031 8.94002C30.727 8.96563 30.7496 8.98609 30.7726 9.00993C30.734 9.0478 30.6958 9.08634 30.658 9.12483C30.7759 9.09992 30.8116 9.15476 30.7741 9.28799C30.6706 9.25702 30.5672 9.22921 30.4635 9.20473C30.472 9.21995 30.4806 9.23537 30.4892 9.25042C30.3557 9.32958 30.3596 9.47812 30.2268 9.43749C30.2571 9.38366 30.2873 9.32972 30.3178 9.27565C30.1938 9.39548 30.0767 9.33496 30.0284 9.52364C30.0201 9.45404 30.0285 9.41716 29.9643 9.49973C29.936 9.32543 29.9436 9.13043 30.0688 8.94728C30.0147 8.96157 29.9622 8.97737 29.9117 8.99465C29.9109 9.05866 29.9092 9.12231 29.9068 9.18614C29.8458 9.15581 29.7823 9.12658 29.7206 9.10084C29.7749 8.93225 29.8634 9.09767 29.8826 8.93624C29.886 8.90352 29.8256 8.95293 29.8228 8.93293C29.7866 8.71423 29.8998 8.90442 29.922 8.75533C29.8086 8.67417 29.9172 8.53733 29.8157 8.54737L29.8798 8.79441C29.8879 8.77027 29.8948 8.7279 29.8937 8.66507C29.9367 8.69311 29.981 8.72108 30.0239 8.74867C30.0817 8.68335 29.9871 8.61707 30.0141 8.54696C30.0296 8.50462 30.2264 8.57847 30.1446 8.45681C30.1284 8.43554 29.8833 8.35511 29.9889 8.22509C30.0703 8.12261 30.1828 8.26625 30.2749 8.24062C30.3678 8.21386 30.2542 7.94451 30.5115 8.05017C30.4603 8.06312 30.4177 8.09323 30.3696 8.11258C30.405 8.1561 30.44 8.19907 30.475 8.24253C30.471 8.12311 30.5934 8.08177 30.5202 7.95873C30.7543 7.95163 30.6748 7.73252 30.466 7.65322C30.4716 7.70537 30.5772 7.71592 30.4947 7.73426C30.4478 7.71279 30.401 7.69165 30.3542 7.67006C30.4105 7.58942 30.4441 7.52962 30.5552 7.6484C30.5663 7.63706 30.5773 7.62584 30.5883 7.61452C30.4925 7.55451 30.3962 7.4946 30.3003 7.4347C30.2984 7.41288 30.2968 7.39072 30.2949 7.36882C30.3265 7.36412 30.3581 7.35979 30.3901 7.35473C30.5309 7.46815 30.5122 7.51286 30.677 7.4274C30.6237 7.39621 30.5707 7.36495 30.5173 7.33377C30.6496 7.26062 30.7826 7.33014 30.8573 7.18296C30.9838 7.39842 30.6175 7.27277 30.9925 7.48402C30.9517 7.4987 30.9111 7.51212 30.8705 7.52621C30.9222 7.56154 30.9739 7.59694 31.0256 7.63218C31.0865 7.46158 30.8612 7.01777 31.1551 7.03976C31.1321 7.01186 31.1125 6.98687 31.0875 6.95725C31.2595 6.93155 31.052 6.77348 31.1462 6.72039C31.161 6.71172 31.1837 6.70423 31.2172 6.69718C31.2418 6.69092 31.5606 6.84737 31.6074 6.65146C31.5628 6.64367 31.4894 6.62499 31.4338 6.61254C31.4707 6.58464 31.5092 6.55154 31.5453 6.52078C31.5064 6.50444 31.4675 6.48809 31.428 6.47235C31.3985 6.531 31.3663 6.58769 31.331 6.64444C31.3339 6.58928 31.334 6.53496 31.3318 6.48243C31.2502 6.53094 31.2415 6.55576 31.1464 6.4915C31.1539 6.43817 31.1583 6.3858 31.161 6.33351C31.1345 6.32328 31.1076 6.31323 31.0809 6.30341C30.9947 6.31397 30.9106 6.32049 30.8238 6.32319C30.9135 6.22563 30.9268 6.12892 31.092 6.03519C31.1195 6.01872 31.2288 6.08065 31.13 5.96237C31.1874 5.95915 31.2339 5.95458 31.2869 5.95081C31.1188 5.8024 31.1638 5.76944 31.2432 5.58297C31.1593 5.7075 31.2091 5.60146 31.1464 5.59027C31.1037 5.58297 31.1244 5.64669 31.0816 5.64796C31.0391 5.647 30.8583 5.61333 30.8533 5.67968C31.2229 5.77711 30.8256 5.87995 30.9859 6.07613C30.9429 6.04092 30.8988 6.00968 30.8539 5.98011C30.824 5.99481 30.7968 6.00721 30.7646 6.02109C30.8314 5.91737 30.7876 5.96677 30.7331 5.92866C30.6781 5.88962 30.6255 5.8269 30.6028 5.78616C30.5956 5.77289 30.6747 5.77404 30.6749 5.73889C30.675 5.71367 30.5493 5.68516 30.6744 5.63396C30.7537 5.5935 31.0252 5.65273 30.9709 5.48034C31.041 5.41873 31.0446 5.51354 31.0544 5.51222C31.1588 5.50124 31.1929 5.35399 31.097 5.32954C31.0892 5.3284 31.0312 5.39776 30.9847 5.36661C30.8745 5.29768 30.9303 5.20982 30.998 5.07963C30.8664 5.14299 30.6783 5.16401 30.6593 5.05127C30.623 5.07219 30.5867 5.09384 30.5505 5.11556C30.5774 5.11422 30.6041 5.11353 30.6311 5.11316C30.6202 5.1423 30.615 5.16785 30.599 5.19884C30.5128 5.13838 30.3457 5.25338 30.2656 5.27104C29.9933 5.34065 30.4325 5.03807 30.5256 5.0053C30.5124 5.04626 30.4937 5.08808 30.4764 5.12831C30.5142 5.09458 30.5521 5.06033 30.59 5.0263C30.4167 4.83204 30.8117 4.77736 30.777 4.60329C30.5688 4.74714 30.4891 4.70016 30.4767 4.48813C30.4639 4.47953 30.4515 4.4702 30.4382 4.46193C30.414 4.48913 30.3803 4.53316 30.3625 4.54967C30.2081 4.48649 30.3955 4.15559 30.3994 4.11368C30.4186 3.93381 30.2505 4.09334 30.2315 4.08429C30.1474 4.04417 30.1691 3.94329 30.0713 3.93994C29.9651 3.93719 29.9891 4.0348 29.9331 4.0826C29.8886 4.1205 29.8197 4.09792 29.7709 4.13716C29.8004 4.1004 29.831 4.06516 29.8611 4.02859C29.8054 3.93321 29.7498 3.84232 29.6572 3.78875C29.4232 4.05557 29.5212 3.4921 29.4044 3.93667C29.4876 4.00012 29.5218 4.07017 29.524 4.19702C29.4616 4.18765 29.3966 4.17818 29.3323 4.17072C29.3328 4.11742 29.3373 4.06696 29.3337 4.01141C29.255 4.09661 29.1625 4.01787 29.113 4.03556C28.8807 4.11895 28.8909 4.31161 28.7973 3.97004C28.9288 3.97363 28.974 3.83175 29.0962 3.88914C29.0995 3.77915 29.0254 3.78066 29.1046 3.67109C28.9661 3.66404 28.9758 3.78537 28.9017 3.86966C28.8387 3.94263 28.7545 3.9264 28.7318 4.03732C28.7384 3.97492 28.7462 3.91487 28.7524 3.85246C28.7181 3.8443 28.6833 3.83619 28.6481 3.82822C28.6008 3.81752 28.5535 3.809 28.5061 3.80282C28.5497 3.74335 28.5975 3.68549 28.6494 3.63023C28.6249 3.60019 28.5992 3.57074 28.5723 3.5418C28.3334 3.69427 27.9173 3.38002 28.0465 3.87567C27.9555 3.90594 27.9352 3.84661 27.8597 3.76496C27.8624 3.80383 27.8641 3.83631 27.8685 3.87931C27.7967 3.85532 27.7909 4.00757 27.7309 3.98756C27.6695 3.96852 27.6084 3.84598 27.6796 4.06409C27.6255 4.01374 27.5712 3.97622 27.5154 3.93318C27.5154 3.9896 27.5165 4.04524 27.5189 4.10085C27.4785 4.08893 27.437 4.07826 27.3946 4.06858C27.4255 4.1747 27.2925 4.19067 27.2801 4.28373C27.1759 4.20826 26.9812 3.8896 26.8989 4.02159C26.9522 4.09686 27.0052 4.17208 27.0581 4.24764C27.0227 4.24763 26.9869 4.24837 26.9506 4.24983C26.9321 4.22601 26.9138 4.20207 26.8953 4.17829C26.9138 4.17695 26.932 4.17585 26.9504 4.1751C26.9108 4.14033 26.8711 4.10597 26.8308 4.07181C26.8326 4.16183 26.8365 4.25158 26.8445 4.33921C26.9272 4.34941 27.0127 4.35943 27.0936 4.37428C27.0696 4.47158 26.9867 4.44763 26.9801 4.54607C26.8595 4.47709 26.8307 4.40718 26.7683 4.28144C26.7573 4.30424 26.7461 4.32697 26.7355 4.34994C26.6637 4.23133 26.582 4.18845 26.6981 4.11668C26.6674 4.0903 26.6375 4.06568 26.6057 4.03825C26.591 4.05678 26.5591 4.03901 26.5481 4.06639C26.5176 4.14171 26.6284 4.36403 26.6852 4.4275C26.7146 4.4609 26.7119 4.35476 26.7486 4.40617C26.8367 4.53234 26.6867 4.56105 26.9379 4.56226C26.9455 4.67928 26.89 4.6289 26.8149 4.653C26.8515 4.6892 26.8877 4.72537 26.9239 4.76196C26.8835 4.76416 26.8442 4.76594 26.8038 4.76901C26.6741 4.53416 26.4072 4.63104 26.4424 4.29993C26.3795 4.33676 26.3168 4.37526 26.2538 4.41509C26.247 4.38487 26.2406 4.35478 26.2342 4.32441C26.2688 4.31292 26.303 4.30183 26.3372 4.29102C26.2756 4.27869 26.2135 4.26771 26.1507 4.2575C26.1205 4.36633 26.1598 4.45877 26.2089 4.57167C26.3425 4.56326 26.238 4.50221 26.2841 4.42972C26.3309 4.48649 26.3787 4.53447 26.425 4.59676C26.2921 4.51072 26.2684 4.68392 26.2516 4.7108C26.1988 4.79308 26.1486 4.63346 26.0999 4.67651C26.0509 4.72021 26.0631 4.83458 25.9197 4.7695C25.9802 4.82661 26.045 4.88343 26.1019 4.93349C26.0539 5.02275 25.9962 4.94141 25.9798 4.94001C25.7144 4.91692 25.7834 5.10407 25.6792 5.25851C25.7141 5.25727 25.7468 5.25489 25.7809 5.25252C25.8251 5.47231 25.8435 5.36656 25.9668 5.31476C25.8787 5.38816 25.9534 5.53291 25.9384 5.6207C25.9233 5.70826 25.7804 5.76263 25.703 5.76384C25.6957 5.61661 25.8237 5.56055 25.8831 5.44952C25.8094 5.40538 25.7457 5.36965 25.6648 5.32112C25.7513 5.49462 25.632 5.45282 25.5971 5.45812C25.4954 5.4735 25.6164 5.56683 25.4599 5.49968C25.5052 5.53345 25.5431 5.56201 25.5855 5.5935C25.4721 5.69748 25.2896 5.77328 25.3987 5.977C25.2841 5.90375 25.1748 5.83184 25.0568 5.75855C25.0998 5.8726 24.9815 5.85777 24.9683 5.91744C24.9555 5.97666 25.0571 6.02283 25.0544 6.10006C25.0539 6.11428 24.9833 6.09553 25.0079 6.14874C25.0321 6.20297 25.2835 6.50544 25.0029 6.33064C24.9707 6.37532 24.9316 6.41199 24.8971 6.45409C24.9107 6.39979 24.925 6.34586 24.9391 6.29188C24.8476 6.28422 24.7561 6.27729 24.664 6.27123C24.7202 6.31559 24.7776 6.3606 24.8333 6.40412C24.8389 6.55336 24.6931 6.56395 24.6507 6.68291C24.6437 6.70273 24.7887 6.73717 24.7102 6.79465C24.6321 6.85191 24.3712 6.77238 24.3778 6.95912C24.3782 6.96878 24.5281 7.11121 24.3797 7.08781C24.346 7.08267 24.3328 7.0128 24.2822 7.01676C24.2314 7.02058 24.1358 7.11675 24.0449 7.0763C24.076 7.09262 24.1115 7.1037 24.1444 7.11815C24.1477 7.14594 24.1509 7.17389 24.154 7.20163C24.0994 7.1727 24.0446 7.14389 23.9902 7.11515C24.0506 7.29936 24.2229 7.47046 24.0643 7.59845C24.1685 7.59486 24.2729 7.59211 24.3767 7.59011C24.3286 7.54688 24.2803 7.50329 24.2323 7.46001C24.2966 7.39673 24.3611 7.33386 24.4262 7.27166C24.3713 7.22341 24.3165 7.17532 24.2618 7.12677C24.2815 7.11141 24.301 7.09608 24.3207 7.0809C24.3624 7.11216 24.404 7.14329 24.4457 7.17467C24.4577 7.12909 24.4697 7.08331 24.482 7.0379C24.6978 7.27282 24.3292 7.24635 24.5565 7.36482C24.5121 7.36243 24.4673 7.36005 24.4224 7.35777C24.5257 7.42729 24.4742 7.44501 24.4215 7.4985C24.483 7.51413 24.5444 7.528 24.6056 7.54542C24.4961 7.56322 24.4424 7.67668 24.3784 7.72443C24.3502 7.74547 24.2867 7.6742 24.2728 7.67747C24.2005 7.69419 24.2943 7.85098 24.2743 7.86225C24.154 7.93017 23.854 7.86107 23.9695 8.0652C24.0731 7.97022 24.022 8.02453 24.1402 8.03331C24.1773 8.036 24.319 7.91923 24.1927 8.09234C24.1779 8.11009 23.8187 8.36539 23.7353 8.18064C23.7518 8.26 23.7825 8.32918 23.8046 8.4054C23.3686 8.35175 23.7415 8.47754 23.9525 8.53473C23.9433 8.55583 23.9358 8.57643 23.9255 8.59767C23.7441 8.45384 23.6198 8.68069 23.6866 8.80895C23.7088 8.85129 23.8085 8.8078 23.8113 8.88314C23.7835 8.90548 23.7498 8.92976 23.7199 8.95294C23.8699 8.9681 23.8807 9.07721 24.0138 9.13558C23.8707 9.13786 23.6007 9.06985 23.4789 8.97781C23.5127 9.04978 23.5469 9.12121 23.5821 9.19174C23.6231 9.18403 23.6639 9.17597 23.705 9.16837C23.5549 9.28142 23.6628 9.56181 23.3686 9.47528C23.3624 9.49585 23.3553 9.5183 23.3488 9.53984C23.3939 9.56574 23.4392 9.59139 23.4844 9.61715C23.4049 9.69428 23.3283 9.7654 23.2495 9.84619C23.2523 9.74994 23.1914 9.70408 23.2813 9.63935C23.2129 9.65084 23.144 9.66297 23.076 9.67411C23.1719 9.86853 23.2648 9.91703 23.1469 10.1029C23.141 10.1119 22.963 10.2154 22.9483 10.2188C22.8834 10.2244 22.8144 10.1587 22.7821 10.16C22.691 10.1639 22.4283 10.2848 22.3994 10.2716C22.034 10.1089 22.2627 9.44671 22.3151 9.27375C22.851 7.42592 23.9564 5.93779 25.228 4.43345C25.2412 4.41794 25.1926 4.38533 25.1966 4.37722C25.2224 4.32765 25.326 4.34925 25.3425 4.33727C25.378 4.31104 25.301 4.2709 25.3231 4.24773C25.5507 4.012 25.8176 3.82825 26.0824 3.60217C26.1 3.58727 26.1225 3.65424 26.1469 3.6204C26.1591 3.60279 26.1492 3.48161 26.1869 3.4521C26.3193 3.34893 26.4564 3.2958 26.6156 3.19982C26.704 3.14634 26.8411 3.08226 26.951 3.02925C26.9983 3.00623 27.0299 2.94084 27.0785 2.91875C27.1474 2.88783 27.169 2.98208 27.1818 2.98317C27.2389 2.98847 27.2085 2.88855 27.2567 2.87362C27.3466 2.84728 27.3727 2.91125 27.4825 2.87243C27.5629 2.84321 27.7443 2.74465 27.8582 2.71283C28.1342 2.74953 28.4761 2.72014 28.7409 2.74153C28.8208 2.74719 28.8586 2.77806 28.8835 2.80717C28.8992 2.83329 28.9071 2.85899 28.9282 2.86385C29.08 2.89823 29.2215 2.80694 29.3699 2.84619C29.5592 2.89677 29.7026 3.03167 29.888 3.11068C29.9175 3.12333 29.9436 3.03766 29.974 3.04744C30.0849 3.08278 30.2377 3.13315 30.3304 3.19321C30.4387 3.26261 30.4116 3.39478 30.5329 3.43261C30.5679 3.44363 30.6342 3.3505 30.6948 3.36972C30.7891 3.39937 30.8331 3.54831 30.8809 3.59567C30.95 3.66306 30.9497 3.51933 31.0494 3.61252C31.0535 3.61649 31.0194 3.69442 31.044 3.70858C31.1149 3.75051 31.1515 3.69486 31.2444 3.78282C31.2538 3.79086 31.3247 3.96343 31.3358 3.9763C31.406 4.04424 31.522 4.21606 31.5714 4.25325C31.753 4.39042 31.7524 4.18206 31.6403 4.48992C31.7411 4.5203 31.8415 4.5541 31.944 4.60562C31.8637 4.58202 31.9028 4.83876 31.9121 4.85213C32.0102 4.96208 32.0763 4.84366 32.1277 5.02603C31.8156 4.88435 32.1812 5.25489 32.2035 5.37227C32.346 5.88819 32.2642 6.35491 32.12 6.85079C32.0988 6.92084 32.0796 7.00588 32.048 7.10638C32.0126 7.22476 31.9891 7.30923 31.9532 7.37928C31.9391 7.4068 31.8984 7.36004 31.885 7.38358C31.8725 7.40607 31.943 7.40998 31.9264 7.43485C31.8206 7.59071 31.6487 7.65044 31.7022 7.8656C31.6792 7.86164 31.6642 7.85287 31.6368 7.85232C31.6902 8.03559 31.4031 8.16214 31.3322 8.22964C31.2215 8.33636 31.2793 8.41737 31.2049 8.5003C31.1064 8.61031 30.8329 8.69408 31.135 8.77701C31.0854 8.86792 31.03 8.95293 30.9435 9.02561C30.9337 9.03383 30.8775 8.98265 30.8734 8.98573C30.8464 9.00446 30.895 9.0525 30.885 9.07135C30.8575 9.1224 30.8487 8.99862 30.8174 9.07848C30.8002 9.12108 30.8346 9.17536 30.7523 9.2797C30.7078 9.33544 30.6564 9.39683 30.5971 9.46088L30.1187 7.61627C30.8344 7.85697 31.4095 8.22742 31.9427 8.65982C31.9826 8.69273 32.002 8.61435 32.0499 8.65958C32.219 8.81539 32.4309 9.18805 32.5746 9.32932C32.7212 9.47118 32.7721 9.36812 32.8913 9.44444C32.9143 9.4595 32.8533 9.4804 32.8669 9.49933C32.96 9.62662 32.9901 9.83788 33.0446 9.95556C33.0807 10.0335 33.1598 9.97993 33.1966 10.0305C33.2512 10.1069 33.2086 10.2372 33.2268 10.2827C33.3131 10.4971 33.4462 10.6304 33.4685 10.8693C33.4866 10.8552 33.5039 10.8443 33.5219 10.8313C33.5916 11.1057 33.6252 11.4026 33.6103 11.6997C33.63 11.6864 33.6499 11.6733 33.6698 11.6594C33.642 12.0167 33.4245 11.9459 33.8691 11.9691C33.8812 11.9986 33.895 12.0306 33.9052 12.0595C33.6811 12.0199 33.4898 12.2083 33.3598 12.4241C33.3517 12.438 33.5179 12.6334 33.2768 12.5301C33.3263 12.5809 33.3607 12.6143 33.403 12.6604C33.3097 12.6813 33.2172 12.6989 33.1247 12.7118C33.1246 12.7181 33.1245 12.7244 33.1243 12.7307C33.1254 12.7503 33.1262 12.7698 33.1273 12.7893C33.1723 12.814 33.2215 12.8344 33.2639 12.8623C33.228 12.9586 33.0747 13.1187 33.0388 13.195C32.9558 13.3801 32.9469 13.6509 32.7205 13.7059C32.6816 13.7837 32.8149 13.7747 32.7246 13.8714C32.6751 13.852 32.6282 13.8328 32.5777 13.8119C32.6882 14.0366 32.5629 13.9724 32.4284 14.0485C32.3337 14.1022 32.3262 14.1878 32.2422 14.25C32.2212 14.2653 32.1794 14.213 32.168 14.2261C32.1313 14.2697 32.0544 14.4491 32.0175 14.4778C31.7099 14.7339 31.3532 14.8831 30.9794 14.9459C30.9391 14.9527 31.0058 15.0049 30.9635 15.0117C30.8954 15.0222 30.9137 14.9146 30.8751 14.9175C30.7691 14.9242 30.7859 15.0309 30.6392 15.0554C30.1519 15.1321 29.6864 14.9962 29.3276 14.9358C29.3162 14.9341 29.3076 14.9961 29.2951 14.9948C29.2737 14.9924 29.2533 14.984 29.2336 14.9726C29.1747 14.9403 29.121 14.8849 29.0644 14.8754C28.9384 14.8539 28.8255 14.9208 28.7029 14.8935C28.4609 14.8394 28.2642 14.7415 28.0279 14.6696C27.8349 14.6102 27.6662 14.5648 27.4603 14.4929C26.565 14.1786 25.6012 13.9432 24.8256 13.3657C24.8061 13.351 24.8427 13.3084 24.8351 13.3067C24.7625 13.2916 24.7186 13.3521 24.7775 13.2053C24.6852 13.1858 24.5998 13.2712 24.5116 13.2068C24.4645 13.1723 24.5975 13.0412 24.465 13.0686C24.3453 13.0927 24.3732 13.2303 24.2066 13.0005C24.2022 12.9942 24.2345 12.8829 24.1732 12.8767C24.1116 12.8698 24.1208 12.9719 23.9965 12.9167C23.7041 12.7862 23.4369 12.473 23.1312 12.2618C23.1118 12.2491 22.9008 12.1507 22.8486 12.1411C22.7479 12.1244 22.7081 12.1992 22.6079 12.1377C22.5302 12.0894 22.5393 11.9718 22.4494 11.9134C22.439 11.9067 22.358 11.9626 22.3087 11.8981ZM30.2118 7.39153C30.1402 7.32754 29.8583 7.12401 30.0035 7.08375C30.0174 7.07965 30.1955 7.24771 30.2587 7.21412C30.2507 7.27831 30.2283 7.33281 30.2121 7.39172C30.212 7.39166 30.2119 7.39159 30.2118 7.39153ZM23.5243 9.9836C23.5624 10.0507 23.6043 10.1198 23.6456 10.1864C23.5786 10.1782 23.5105 10.1678 23.4429 10.1575C23.4693 10.099 23.4966 10.0411 23.5243 9.9836ZM31.6259 12.4699C31.6259 12.4699 31.6259 12.47 31.6258 12.47C31.6261 12.3795 31.622 12.2916 31.6176 12.2005C31.6434 12.2225 31.669 12.245 31.6946 12.2674C31.712 12.3478 31.7294 12.4254 31.7427 12.5074C31.7037 12.4952 31.6647 12.4827 31.6259 12.4699ZM31.5474 13.1802C31.4839 13.1917 31.4439 13.1375 31.379 13.1125C31.379 13.1126 31.3791 13.1127 31.3792 13.1128C31.3622 13.1064 31.3295 13.1188 31.3192 13.1254C31.3513 13.1517 31.3843 13.1764 31.4169 13.2017C31.3916 13.3683 31.0249 13.2093 31.1071 12.9475C31.1405 12.9876 31.1736 13.0277 31.2065 13.0684C31.2852 12.9758 31.4759 12.9214 31.5474 13.1802ZM30.6006 6.26942C30.4513 6.13693 30.4178 6.12366 30.5379 6.01245C30.5862 6.02852 30.6341 6.04736 30.6816 6.06778C30.6313 6.08662 30.581 6.10302 30.5301 6.11764C30.5301 6.11769 30.53 6.11774 30.53 6.1178C30.5813 6.12642 30.6326 6.13554 30.6838 6.14491C30.6581 6.18851 30.63 6.23132 30.6006 6.26942ZM26.7213 12.6745C26.8312 12.3493 26.7573 12.5339 26.8888 12.5101C26.9344 12.5017 26.9258 12.432 26.9513 12.4328C27.0882 12.4357 27.0045 12.648 26.9297 12.7449C26.8599 12.7225 26.7894 12.6982 26.7215 12.6746C26.7214 12.6746 26.7213 12.6745 26.7213 12.6745ZM23.8597 10.9435C23.8597 10.9435 23.8596 10.9434 23.8596 10.9434C23.9114 10.8782 23.9646 10.8944 23.9723 10.7972C24.0051 10.8258 24.0382 10.8547 24.0718 10.8833C24.057 10.881 24.042 10.8781 24.0271 10.8756C24.0174 10.9048 24.0077 10.9344 23.9982 10.9637C24.0716 10.9004 24.0467 10.9522 24.0621 11.0064C24.1172 10.9194 24.1728 10.8327 24.2285 10.7462C24.2491 10.8029 24.2707 10.8599 24.293 10.9169C24.2774 10.9374 24.2618 10.9579 24.2462 10.9784C24.2826 10.9655 24.3186 10.9517 24.3546 10.9383C24.3398 10.9657 24.3249 10.9928 24.3102 11.0203C24.3436 11.017 24.3769 11.0137 24.4105 11.0099C24.3706 11.0732 24.3083 11.0656 24.3952 11.1091C24.3254 11.1516 24.2554 11.1936 24.1847 11.2352C24.0741 11.1405 23.9659 11.0434 23.8597 10.9435ZM27.6873 12.9692C27.5344 12.9263 27.596 12.8917 27.6903 12.7472C27.6888 12.8211 27.6879 12.8951 27.6873 12.9692ZM31.3548 9.99082C31.2432 10.0438 31.1344 10.0987 31.0289 10.1536C30.9249 10.147 30.9928 9.93111 31.0964 9.91048C31.2231 9.88828 31.2124 10.0269 31.3548 9.99082ZM29.5806 8.39479C29.4742 8.43622 29.433 8.27527 29.3844 8.2084C29.4994 8.27065 29.5162 8.2324 29.568 8.1893C29.5374 8.24341 29.5997 8.38648 29.5809 8.39502C29.5808 8.39495 29.5807 8.39487 29.5806 8.39479ZM32.0601 11.4551C32.0672 11.4905 32.1016 11.5262 32.0633 11.5601C31.9533 11.5529 32.0501 11.4894 31.8893 11.5397C31.8856 11.5197 31.8814 11.4997 31.8764 11.4802C31.945 11.4867 31.9936 11.4644 32.0598 11.4553C32.0599 11.4552 32.06 11.4552 32.0601 11.4551ZM29.1716 13.2742C29.2314 13.4193 29.2586 13.3678 29.3607 13.2944C29.3548 13.4012 29.219 13.5576 29.1439 13.5823C29.1528 13.4795 29.1621 13.3768 29.1716 13.2742ZM24.5582 8.09128C24.4489 8.00824 24.5101 7.85687 24.5842 7.80574C24.5972 7.82382 24.6104 7.84202 24.6236 7.86019C24.6013 7.93714 24.5797 8.01371 24.5582 8.09128ZM29.5942 8.16987C29.5843 8.17642 29.5756 8.18294 29.568 8.1893C29.5733 8.17983 29.5816 8.1728 29.5942 8.16987ZM30.0168 4.16458C30.1134 4.07192 30.0252 3.97481 30.1339 4.09149C30.134 4.09138 30.134 4.09127 30.1341 4.09117C30.2066 4.17037 30.2163 4.18658 30.2909 4.2458C30.1705 4.36323 29.9987 4.32439 30.1809 4.48016C30.1834 4.48204 30.2322 4.39715 30.2569 4.42995C30.2649 4.44046 30.2491 4.52628 30.2818 4.57928C30.2925 4.59645 30.3855 4.69713 30.2363 4.5878C30.1739 4.6837 30.0985 4.77191 30.0344 4.86234C29.9673 4.854 30.0491 4.6395 29.9828 4.605C29.8862 4.55626 29.7287 4.72965 29.8525 4.45897C29.9703 4.43791 30.1122 4.52405 30.0302 4.68477C30.0991 4.73312 30.2051 4.62981 30.1859 4.52849C29.8683 4.43564 30.2261 4.29015 29.9153 4.25133C29.8932 4.28635 29.8624 4.32047 29.8462 4.35577C29.8345 4.18663 29.9824 4.1973 30.0168 4.16458ZM30.3974 4.80884C30.3012 4.83946 30.204 4.87294 30.1147 4.91426C30.2023 4.80261 30.3016 4.71654 30.4206 4.71301C30.4134 4.74536 30.4057 4.77748 30.3974 4.80884ZM26.404 4.99196C26.4524 5.05282 26.4871 5.11806 26.5287 5.18051C26.4722 5.14115 26.1532 5.38783 26.2458 5.19623C26.2603 5.16656 26.48 5.13707 26.404 4.99196ZM28.5503 13.2412C28.581 13.3038 28.612 13.3662 28.6435 13.4283C28.5661 13.4416 28.486 13.4542 28.407 13.4661C28.4552 13.3914 28.503 13.3163 28.5503 13.2412ZM30.8512 9.41236C30.8657 9.42588 30.7521 9.47666 30.8249 9.50658C30.7392 9.52983 30.6628 9.54785 30.5826 9.5721C30.5964 9.52108 30.6096 9.47003 30.6224 9.4186C30.594 9.43881 30.5657 9.45891 30.5377 9.4795C30.583 9.42143 30.627 9.36453 30.6739 9.30603C30.6699 9.48964 30.7844 9.35191 30.8512 9.41236ZM32.6174 11.6638C32.4581 11.6721 32.3669 11.5374 32.3376 11.6673C32.2341 11.6373 32.1812 11.6016 32.1694 11.5343C32.209 11.5217 32.2481 11.5083 32.2873 11.494C32.1802 11.4992 32.1396 11.483 32.0601 11.4551C32.0602 11.4551 32.0603 11.4551 32.0605 11.455C32.0416 11.3599 32.0756 11.3619 32.2446 11.3043C32.166 11.4351 32.3236 11.4119 32.4258 11.4946C32.4954 11.5527 32.4646 11.6326 32.6174 11.6638ZM26.7148 4.70516C26.7338 4.86615 26.8778 4.906 26.665 4.90412C26.6494 4.87222 26.6348 4.83984 26.6198 4.80745C26.6511 4.77242 26.6828 4.73834 26.7148 4.70516ZM32.0112 11.9927C32.2483 12.0623 32.4583 12.0237 32.0711 11.9163C31.9754 11.9607 32.2024 11.9911 32.0112 11.9927ZM29.8488 8.67495C29.8293 8.69445 29.808 8.70503 29.7866 8.70786L29.7764 8.66829C29.8387 8.76555 29.7339 8.9573 29.6523 9.05341C29.6526 9.05118 29.6529 9.04894 29.6532 9.04671C29.3725 8.92764 29.269 8.64161 29.4951 8.43699C29.5358 8.46428 29.5772 8.4908 29.6188 8.51649C29.6195 8.48142 29.6183 8.44754 29.6181 8.41253C29.6962 8.49868 29.7733 8.5862 29.8488 8.67495ZM30.3578 13.8241C30.4619 13.6416 30.2288 13.7326 30.3037 13.6187C30.359 13.5291 30.4524 13.6978 30.4327 13.8114C30.4101 13.8166 30.3846 13.8207 30.358 13.8241C30.3579 13.8241 30.3578 13.8241 30.3578 13.8241ZM30.9958 13.6216C30.9005 13.458 30.9485 13.4982 30.8844 13.5615C30.8659 13.5827 30.6631 13.5706 30.7848 13.6966C30.8544 13.6759 30.9266 13.6517 30.9958 13.6216ZM30.6467 6.92335C30.7202 6.96035 30.7953 7.19905 30.7442 7.1978C30.7443 7.19786 30.7444 7.19792 30.7445 7.19798C30.6083 7.19095 30.6812 7.0227 30.4957 7.01077C30.7091 6.92942 30.4159 6.715 30.828 6.94561C30.7976 7.04761 30.7349 6.95788 30.6467 6.92335ZM23.3184 9.87112C23.3184 9.8712 23.3184 9.87127 23.3183 9.87135C23.326 9.8618 23.4736 9.81385 23.5078 9.8409C23.4327 9.93556 23.3656 9.88966 23.4501 10.0341C23.4089 10.0248 23.3691 10.0152 23.3274 10.0063C23.3188 9.95846 23.28 9.91867 23.3184 9.87112ZM25.9834 5.19272C25.9962 5.14648 26.1127 5.15097 26.1425 5.11184C26.2887 5.45332 25.9356 5.37427 25.9834 5.19272ZM25.1276 11.8648C25.1277 11.8647 25.1279 11.8647 25.1281 11.8647C25.1279 11.8648 25.1278 11.8649 25.1277 11.8651C25.1276 11.865 25.1276 11.8649 25.1276 11.8648ZM28.7256 4.10107C28.7258 4.07831 28.7276 4.05893 28.7306 4.0423C28.731 4.04076 28.7314 4.03922 28.7317 4.03768C28.7295 4.05848 28.7274 4.07956 28.7256 4.10107ZM30.7812 6.60135C30.9158 6.58342 30.9792 6.87639 30.9014 6.92852C30.8576 6.89962 30.8161 6.87703 30.7686 6.83845C30.9186 6.84348 30.762 6.59921 30.7812 6.60135ZM32.0385 10.7328C31.952 10.5715 32.4671 10.5677 32.1517 10.7456C32.1451 10.7478 32.0412 10.736 32.0385 10.7328ZM30.0916 7.9113C30.1797 8.02616 30.2637 7.96441 30.1581 8.08224C30.1235 8.07031 30.089 8.05821 30.0546 8.04606C30.0674 8.0012 30.0795 7.95635 30.0916 7.9113ZM31.6781 9.38046C31.4291 9.26258 31.1606 9.23564 31.0569 9.62856C31.0782 9.62972 31.0995 9.6315 31.1209 9.63299C31.2366 9.49042 31.2279 9.61068 31.2975 9.6774C31.3551 9.63056 31.4077 9.65358 31.4564 9.61391C31.5511 9.53759 31.5561 9.43008 31.6781 9.38046ZM26.0541 12.8088C26.072 12.7828 26.0898 12.7565 26.1075 12.7307C26.1577 12.7167 26.2077 12.7027 26.2575 12.6882C26.2249 12.7391 26.1922 12.79 26.1595 12.8409C26.1244 12.8304 26.0894 12.8199 26.0543 12.8091C26.0542 12.809 26.0542 12.8089 26.0541 12.8088ZM30.8382 4.70259C30.568 4.92017 30.6598 4.91792 30.8955 4.94465C30.8826 4.86539 30.8621 4.7829 30.8382 4.70259ZM32.0925 13.2215C32.0098 13.1685 31.9277 13.1152 31.8455 13.0616C31.8796 13.1872 31.9754 13.246 32.1055 13.2889C32.1014 13.2663 32.0969 13.244 32.0925 13.2215ZM31.0985 14.0933C31.1432 14.0972 31.094 14.0317 31.0985 14.0316C31.2046 14.0312 31.2379 14.0566 31.3162 13.946C31.319 13.9206 31.3205 13.8944 31.3221 13.8686C31.1733 13.7173 31.1952 13.8349 31.0486 13.7699C31.0945 13.8264 31.1421 13.882 31.192 13.9363C31.1285 13.9511 31.0644 13.9627 31.0009 13.9705C31.0016 13.9935 31.0019 14.0163 31.0021 14.0394C31.0331 14.0579 31.0672 14.0785 31.0985 14.0933ZM25.7055 12.5206C25.6602 12.4862 25.6151 12.4511 25.5703 12.4162C25.5434 12.4591 25.5164 12.5023 25.4894 12.5452C25.5616 12.5375 25.6338 12.5294 25.7055 12.5206ZM29.7709 4.13716C29.7593 4.15158 29.7479 4.16617 29.7367 4.18127C29.7464 4.16109 29.7581 4.14723 29.7709 4.13716ZM23.0065 9.91175C22.9513 9.95876 22.94 10.0584 22.9102 10.1211C23.031 10.1594 23.0599 9.97432 23.1533 9.94506C23.1354 9.92784 23.0298 9.89178 23.0065 9.91175ZM29.9366 8.71133C29.9743 8.65792 30.0127 8.60525 30.0518 8.55266C30.0888 8.57473 30.1219 8.5963 30.1572 8.61896C30.1788 8.57184 30.2007 8.52432 30.2224 8.47723C30.0262 8.46759 30.1208 8.34627 30.0816 8.17358C30.0362 8.3537 29.9872 8.53259 29.9366 8.71133ZM24.0047 11.8096C24.1277 11.8583 24.2024 11.8312 24.238 11.6643C24.1814 11.6667 24.1244 11.6686 24.0676 11.6702C24.0466 11.7166 24.0257 11.7631 24.0047 11.8096ZM27.5255 3.7575C27.4454 3.85148 27.3618 3.6604 27.3102 3.8127C27.3794 3.8225 27.4469 3.83543 27.5118 3.85078C27.5158 3.81984 27.5206 3.78852 27.5255 3.7575ZM31.824 6.53315C31.9082 6.48239 31.5889 6.32798 31.8546 6.18912C31.7816 6.14379 31.7102 6.11606 31.6369 6.0812C31.7185 6.06493 31.801 6.04458 31.8815 6.02581C31.8815 6.0257 31.8815 6.02558 31.8815 6.02547C31.8531 5.86875 31.7522 5.9738 31.6664 5.97012C31.6313 5.96897 31.6866 5.8614 31.6104 5.8979C31.4829 5.95878 31.5528 6.16005 31.3891 6.14817C31.4479 6.08546 31.4026 5.95145 31.2944 5.9917C31.1766 6.02835 31.3717 6.15263 31.2643 6.21932C31.5346 6.13468 31.4283 6.36531 31.225 6.35111C31.3493 6.50608 31.439 6.4039 31.4496 6.25748C31.5898 6.36583 31.5248 6.2254 31.6524 6.21365C31.727 6.31915 31.5889 6.65325 31.824 6.53315ZM32.4638 10.1721C32.4049 10.0996 32.3855 9.9271 32.2446 9.95755C32.1641 9.97646 32.2031 10.121 32.0521 10.1191C32.1124 10.1777 32.1606 10.1668 32.2348 10.093C32.2567 10.1016 32.2786 10.111 32.3002 10.1203C32.2894 10.1397 32.2787 10.1591 32.2676 10.1782C32.3083 10.1622 32.349 10.1468 32.39 10.1312C32.3957 10.154 32.4011 10.1769 32.4061 10.2001C32.4253 10.1904 32.4433 10.1838 32.4638 10.1721ZM25.2508 5.75037C25.2637 5.73112 25.2763 5.71239 25.2892 5.69279C25.2676 5.67962 25.2449 5.66621 25.2224 5.65295C25.2049 5.64229 25.1873 5.63165 25.1697 5.62098C25.2364 5.65374 25.4 5.6397 25.3672 5.55531C25.351 5.5126 25.208 5.46952 25.2516 5.37511C25.2117 5.43696 25.1849 5.50236 25.151 5.56633C25.122 5.5362 25.0926 5.50596 25.0637 5.47573C25.0637 5.47573 25.0636 5.47572 25.0635 5.47572C25.0416 5.48907 25.019 5.50274 24.9973 5.51591C25.0816 5.59441 25.1661 5.67238 25.2508 5.75037ZM32.2937 13.2728C32.2763 13.155 32.2551 13.109 32.1243 13.0697C32.1242 13.0698 32.1241 13.0698 32.124 13.0699C32.1554 13.1276 32.1858 13.186 32.2153 13.2451C32.2413 13.2545 32.2674 13.2639 32.2937 13.2728ZM29.2651 3.4839C28.9556 3.90899 29.4132 3.73267 29.3991 3.55113C29.3985 3.54241 29.263 3.54036 29.2651 3.4839ZM29.9854 8.75088C29.9659 8.77815 29.9438 8.80715 29.9225 8.83405L29.8337 8.49198C29.8478 8.49532 29.862 8.49879 29.8762 8.50237C29.8854 8.44087 29.8937 8.37937 29.9017 8.31762C29.8965 8.32219 29.8912 8.32676 29.886 8.33136L30.0462 8.94903C30.0282 8.88178 30.0086 8.81452 29.9854 8.75088ZM24.3265 12.3195C24.2902 12.4605 24.3716 12.5751 24.506 12.4856C24.488 12.4529 24.4702 12.4201 24.4526 12.3874C24.5137 12.4078 24.5753 12.4259 24.6365 12.4465C24.7431 12.2888 24.6226 12.3424 24.5625 12.239C24.553 12.2226 24.5985 11.9682 24.4681 12.0945C24.4411 12.1204 24.5207 12.2049 24.3955 12.2483C24.4194 12.2748 24.4452 12.2901 24.4698 12.3123C24.4465 12.3512 24.4231 12.3901 24.4 12.4292C24.3751 12.3927 24.3508 12.3561 24.3265 12.3195ZM32.1207 9.75297C32.0443 9.65207 31.9771 9.69388 31.863 9.76863C31.9126 9.79833 31.9614 9.82909 32.0104 9.86142C32.047 9.82532 32.0839 9.78942 32.1207 9.75297ZM25.1963 12.9196C25.2413 12.971 25.272 12.8623 25.3047 12.8572C25.4281 12.8377 25.4475 12.9382 25.5555 12.9418C25.5398 12.9572 25.5251 12.9717 25.5098 12.9866C25.5099 12.9867 25.51 12.9867 25.51 12.9867C25.8688 13.2853 25.7725 12.9535 25.5168 12.8584C25.5311 12.8198 25.5456 12.7813 25.5598 12.743C25.4201 12.7465 25.2889 12.7493 25.1963 12.9196ZM30.7446 4.21114C30.756 4.18781 30.8987 4.09469 30.7746 4.09225C30.57 4.23205 30.7376 4.21413 30.7044 4.30548C30.6701 4.30643 30.6364 4.30745 30.6039 4.31068C30.675 4.45351 30.7267 4.42837 30.7983 4.26095C30.8028 4.24934 30.7334 4.23456 30.7446 4.21114ZM29.9548 3.599C29.7961 3.90856 30.0176 3.83919 30.0629 3.74193C30.0409 3.72637 29.9977 3.77098 29.9853 3.73633C29.9723 3.70146 30.0003 3.62466 29.9548 3.599ZM30.7145 8.2749C30.7184 8.27169 30.8691 8.30762 30.7698 8.25027C30.5082 8.15686 30.5867 8.35527 30.6771 8.38937C30.6962 8.35191 30.6775 8.30611 30.7148 8.2751C30.7147 8.27504 30.7146 8.27497 30.7145 8.2749ZM23.645 11.9212C23.6406 11.9303 23.7059 12.0555 23.7525 12.0221C23.8006 11.9816 23.8458 11.9332 23.8923 11.8886C23.8013 11.8938 23.7179 11.7712 23.6452 11.9214C23.6452 11.9213 23.6451 11.9213 23.645 11.9212Z" fill="white"/>
</g>
<defs>
<clipPath id="clip0_206_14176">
<rect width="37" height="24" fill="white"/>
</clipPath>
</defs>
</svg>
