<svg width="21" height="20" viewBox="0 0 21 20" fill="none" xmlns="http://www.w3.org/2000/svg">
<mask id="mask0_126_24009" style="mask-type:alpha" maskUnits="userSpaceOnUse" x="0" y="0" width="19" height="20">
<path d="M0.992676 0L18.0526 0L18.0623 17.3763L11.7899 20L8.52135 19.5965L7.7945 18.5878L1.00233 17.3763L0.992676 0Z" fill="#D9D9D9"/>
</mask>
<g mask="url(#mask0_126_24009)">
<path d="M8.8207 62.0485C8.52079 62.2649 8.63648 61.7203 8.21037 62.152C8.16309 62.0891 8.11471 62.0261 8.06751 61.9634C8.24658 61.9093 8.42512 61.8549 8.60421 61.801C8.67658 61.8832 8.74901 61.9655 8.82159 62.0484C8.8213 62.0484 8.821 62.0485 8.8207 62.0485ZM11.1325 61.716C10.5947 61.7361 10.4016 61.494 9.97975 61.8819C10.1631 61.8692 10.3466 61.857 10.5299 61.8443C10.4117 61.9733 10.2938 62.1033 10.1766 62.2328C10.2522 62.2555 10.3278 62.2782 10.4025 62.3011C10.1016 62.4106 9.79978 62.52 9.49819 62.6301C9.53515 62.5793 9.57281 62.5279 9.6098 62.4772C9.32442 62.3645 9.22588 62.2325 9.13427 62.0201C9.06471 62.0543 8.99582 62.0885 8.92628 62.1228C9.02853 61.9849 9.13127 61.8475 9.2339 61.7108C9.37603 61.7833 9.53427 61.8645 9.66675 61.9316C10.1246 61.6898 9.80295 61.4912 9.67515 61.3796C9.50082 61.228 9.74051 61.2226 9.61723 61.1091C9.59788 61.0909 9.41582 61.1244 9.40446 61.0831C9.34811 60.8743 9.36443 60.4472 9.8351 60.6031C9.84847 60.9599 10.2474 61.1887 10.1916 61.5554C10.6633 61.3672 10.8658 61.5138 11.1325 61.716ZM8.35841 55.5794C8.61611 55.6452 8.55814 55.8809 8.41873 56.0592C8.41876 56.0594 8.41879 56.0595 8.41882 56.0597C8.38809 56.0989 8.08384 56.2293 8.0778 56.1198C8.06906 55.9411 8.5541 55.7695 8.19877 55.7376C8.25477 55.6857 8.30347 55.633 8.35841 55.5794ZM8.26323 55.2078C8.36745 55.0806 8.7525 55.0637 8.67355 55.214C8.67385 55.214 8.67415 55.2139 8.67445 55.2139C8.64145 55.2767 8.32474 55.2194 8.66158 55.3659C8.43354 55.4474 8.22665 55.5247 8.00621 55.6047C7.99386 55.5564 7.97991 55.5129 7.96795 55.4621C8.36041 55.4295 8.15999 55.335 8.26323 55.2078ZM9.58875 60.469C9.23922 60.5202 9.25475 60.5881 9.03736 60.752C9.02709 60.6395 9.01768 60.5269 9.00771 60.4152C9.20166 60.4334 9.3948 60.451 9.58875 60.469ZM10.0598 63.092C10.0599 63.0921 10.0599 63.0923 10.0599 63.0925C10.122 63.1181 10.1843 63.1439 10.2456 63.1692C10.1268 63.2166 10.0085 63.2638 9.88972 63.3113C10.0325 63.4178 10.1756 63.5258 10.3192 63.6315C9.93936 63.6947 9.95167 63.4466 9.66171 63.3719C9.73549 63.1564 9.93533 63.0194 10.2521 62.9414C10.1883 62.9914 10.1236 63.0415 10.0598 63.092ZM7.32529 31.6694C7.21635 31.6316 7.10738 31.5944 6.99847 31.5565C6.95319 31.6175 6.91942 31.6775 6.86652 31.7396C7.33822 31.8673 6.92965 31.9051 6.97019 32.1065C7.09588 32.7242 7.80467 32.5206 6.78742 33.1335C6.80887 32.6885 6.32584 32.8973 5.92745 32.644C6.21385 32.5692 6.88489 32.801 7.00905 32.6081C6.68235 32.3098 6.37822 32.0227 6.16009 31.6855C6.11054 31.6985 6.0608 31.7115 6.01125 31.7245C6.04604 31.7781 6.08103 31.8311 6.11588 31.8847C5.97818 31.8327 5.84175 31.7818 5.70251 31.7288C6.01156 31.7882 5.83018 31.6025 6.18176 31.609C6.33825 31.6119 6.55932 31.6858 6.71113 31.7281C6.78458 31.5924 6.85123 31.4545 6.92266 31.3187C7.05058 31.3801 7.17868 31.4413 7.30665 31.502C7.31364 31.5575 7.31954 31.6127 7.3266 31.6683C7.32616 31.6687 7.32573 31.6691 7.32529 31.6694ZM6.47447 3.55728C6.82259 3.74548 6.85589 4.04675 6.4388 4.17013C6.45174 3.95983 6.46326 3.75576 6.47447 3.55728ZM10.5129 62.8749C10.4563 62.9059 10.4001 62.9362 10.3435 62.9673C10.2146 62.9081 10.0864 62.8482 9.95758 62.789C10.1291 62.7375 10.3007 62.6857 10.4714 62.634C10.4854 62.714 10.4988 62.7948 10.5129 62.8749ZM9.30114 57.6998C9.32271 57.7572 9.31792 57.7636 9.30657 57.8422C9.3067 57.8421 9.30684 57.842 9.30697 57.8419C9.30299 57.8728 9.24617 58.1378 9.10606 58.1354C9.08104 58.0135 9.05921 57.8829 9.03622 57.7581C9.12439 57.738 9.21239 57.721 9.30114 57.6998ZM9.49259 59.1577C9.49232 59.1579 9.49206 59.1581 9.49179 59.1584C9.47984 59.2072 9.44623 59.2577 9.44749 59.3056C9.20324 59.1788 9.57928 59.0801 9.44279 58.9491C9.30559 58.8184 9.07763 58.7642 9.57581 58.5384C9.66296 58.5712 9.78449 58.6015 9.88484 58.6333C9.71645 58.8867 9.92394 58.9077 10.1624 59.0409C9.93859 59.0799 9.71636 59.1187 9.49259 59.1577ZM6.43117 34.4826C6.69619 34.5053 6.44253 34.5705 6.43979 34.5756C6.43948 34.5756 6.43917 34.5755 6.43886 34.5754C6.70883 34.9284 6.29012 34.5373 6.27537 34.8912C6.20598 34.8438 6.13302 34.7975 6.06294 34.7506C6.18336 34.6613 6.32048 34.5686 6.43117 34.4826ZM7.64302 46.381C7.56765 46.3945 7.49221 46.4087 7.41684 46.4222C7.40646 46.2102 7.10086 46.1961 7.34987 45.9868C7.44817 46.1179 7.54606 46.2493 7.64392 46.3809C7.64362 46.381 7.64332 46.381 7.64302 46.381ZM9.66253 56.5791C9.84647 56.7767 9.93975 56.9305 9.75106 57.1877C9.75079 57.1879 9.75052 57.1881 9.75025 57.1884C9.73849 57.2034 9.57006 57.1718 9.53337 57.1953C9.56504 57.2355 9.60964 57.2749 9.646 57.3149C9.52104 57.344 9.39608 57.3728 9.27188 57.4018C9.28435 57.2682 9.29694 57.1349 9.30963 57.0014C9.23928 57.0335 9.16967 57.066 9.09934 57.0981C9.04173 56.9971 8.98442 56.8965 8.927 56.7957C9.14052 56.796 9.35406 56.7961 9.56823 56.7956C9.5999 56.7233 9.63001 56.6513 9.66253 56.5791ZM8.04191 42.8333C7.96331 42.8796 7.81635 42.8279 7.75164 42.8932C7.68782 42.9583 7.85486 43.0454 7.61797 43.0481C7.57748 42.975 7.53199 42.8986 7.48991 42.8243C7.09719 43.1248 7.50912 43.3329 6.98862 43.3984C7.0947 43.139 7.00863 42.9474 6.83725 42.7302C7.25204 42.6924 7.63681 42.8842 8.00807 42.6925C8.01891 42.7389 8.03253 42.7876 8.04095 42.8329C8.04127 42.8331 8.04159 42.8332 8.04191 42.8333ZM16.3138 65.0588C16.3129 65.2033 16.5483 65.4831 16.3502 65.7104C16.3013 65.7663 15.577 66.0773 15.4772 66.0987C15.1406 66.1688 15.0558 66.0025 14.8789 66.2398C14.8625 66.1767 14.8363 66.1178 14.8163 66.0561C14.5932 66.1171 14.3707 66.1781 14.1483 66.2385C14.1993 66.308 14.2505 66.3776 14.3023 66.447C14.2285 66.4673 14.1545 66.4876 14.0806 66.508C14.0176 66.2311 13.7657 66.4585 13.4652 66.3739C13.3587 66.5364 13.2534 66.7001 13.1472 66.8629C13.1467 66.7827 13.1389 66.6897 13.1436 66.618C12.7592 66.6935 12.8861 66.8344 12.8214 66.8778C12.4553 67.122 12.482 66.2859 11.9115 66.3439C11.8773 66.4837 11.8462 66.6296 11.8138 66.7726C11.7369 66.7506 11.6599 66.7282 11.583 66.7061C11.9021 66.3278 11.9663 65.9704 12.1321 65.5798C12.1096 65.5527 12.0867 65.5255 12.0651 65.4987C11.8941 65.545 11.7238 65.5907 11.5529 65.6371C11.5225 65.5952 11.4921 65.5528 11.4617 65.511C12.0606 65.5243 12.0118 65.337 12.3105 65.0361C12.5366 65.1134 12.4474 65.2884 12.818 65.1976C12.4416 64.8455 12.7443 64.2774 12.3362 63.9481C12.2352 63.8662 11.7537 63.9676 11.7493 63.726C11.8039 63.7228 11.8998 63.7041 11.9704 63.6947C11.6565 63.346 11.4652 63.1178 11.6126 62.6423C11.4445 62.7025 11.2755 62.7625 11.1074 62.8229C11.2124 62.8962 11.3189 62.9694 11.4239 63.0423C11.1508 63.1635 11.0054 63.0975 11.0651 63.3698C11.1138 63.592 11.2123 63.4326 11.3095 63.4748C11.4417 63.5304 11.2289 63.6477 11.3761 63.7065C11.4891 63.7522 11.7098 63.6311 11.6864 63.8166C11.3663 63.811 11.0359 63.8059 10.7119 63.8003C10.7719 63.7437 10.833 63.6871 10.8937 63.6304C10.9843 63.6561 11.0737 63.6813 11.1643 63.7069C10.9862 63.5875 10.8182 63.4741 10.6325 63.3436C11.0852 63.3043 10.8851 63.1728 10.8143 63.0937C10.7038 62.9706 11.0327 63.0278 10.9631 62.9466C10.8927 62.8656 10.5325 62.8364 10.5713 62.6562C10.7862 62.7045 10.938 62.548 11.1244 62.5342C11.3108 62.5204 11.3868 62.6865 11.5506 62.4785C11.3341 62.1875 10.7138 62.6779 10.5573 62.4831C10.3691 62.2487 11.4847 61.9588 11.7428 61.9871C11.946 62.0093 11.9504 62.2269 12.153 62.2497C12.4192 61.8042 11.7418 61.9388 11.5962 61.9012C11.0666 61.7655 12.3857 61.6622 11.8645 61.4809C12.1064 61.4377 12.3238 61.3984 12.5558 61.3572C12.5024 61.3187 12.4377 61.299 12.3914 61.2489C11.956 61.5115 11.9484 61.3695 11.9334 61.2987C11.9095 61.1874 11.7152 61.4056 11.6502 61.3879C11.476 61.3397 11.5226 61.1991 11.3313 61.3179C11.4205 61.2639 11.5095 61.207 11.5979 61.1523C11.452 61.0462 10.3854 60.9388 10.6466 61.1906C10.2675 61.2375 10.4283 61.1072 10.4705 61.0223C10.5127 60.9375 10.275 60.9859 10.3061 60.9125C10.4312 60.6206 10.8716 60.7088 11.1987 60.6864C10.9121 60.3913 10.8317 60.7509 10.5891 60.2925C10.3197 60.296 10.0863 60.5757 9.89942 60.4172C10.3445 60.2942 10.6422 60.0939 10.7402 59.7958C10.6311 59.789 10.521 59.7824 10.4119 59.7756C10.7999 59.5439 11.2487 59.5378 10.6776 59.3582C11.6587 59.3254 11.0295 59.3388 11.3697 59.0162C11.4382 58.9509 11.6581 59.0297 11.7448 58.9403C11.7839 58.8998 11.62 58.8508 11.7204 58.7512C11.77 58.7023 12.1037 58.4558 11.9062 58.3665C11.4615 58.5434 11.0248 58.3842 10.6807 58.6563C10.7048 58.2682 10.4351 58.0525 11.1422 58.3477C11.2643 58.2278 11.3859 58.1082 11.5074 57.989C11.3851 57.9446 11.2636 57.8994 11.1421 57.8543C11.5198 57.774 11.628 57.7639 11.514 57.5213C11.6241 57.6154 11.7356 57.7087 11.8467 57.8031C11.9241 57.7926 12.0066 57.7933 12.0803 57.7757C11.909 57.6665 11.7754 57.2956 11.6575 57.2219C11.5394 57.1479 11.5446 57.3317 11.4417 57.3231C10.5924 57.2492 11.1919 57.1573 11.024 57.0237C10.9248 56.9452 10.8765 57.1846 10.8324 57.1409C10.6703 56.9787 11.0844 56.8148 11.0602 56.6502C10.8268 56.7524 10.5895 56.8551 10.3537 56.9568C10.3352 56.782 10.3027 56.59 10.1957 56.4445C10.1539 56.3874 9.98088 56.4672 9.96688 56.4592C9.89587 56.4224 9.75826 56.2231 9.75362 56.2014C9.72182 56.0314 9.97245 55.982 9.95703 55.8148C9.98976 55.8757 10.0198 55.9332 10.0515 55.9928C10.4644 55.9494 10.8773 55.9063 11.2908 55.8625C11.2918 55.6962 11.2924 55.5304 11.2938 55.3645C11.1783 55.5058 11.0636 55.6479 10.9484 55.79C10.5863 55.6639 10.2235 55.5376 9.86095 55.4111C10.0466 55.2798 10.2324 55.1492 10.4182 55.0187C10.3199 54.7692 9.50685 54.9629 10.2058 54.7161C10.1318 54.6504 10.0578 54.5847 9.98464 54.5189C10.0893 54.5122 10.1941 54.5053 10.2988 54.4986C10.2198 54.4178 10.1414 54.337 10.0618 54.2565C9.71414 54.4145 9.34727 54.5744 9.01044 54.7308C8.90023 54.5631 9.20853 54.5071 9.28098 54.467C9.47289 54.3608 9.17343 54.2659 9.35276 54.1774C9.41437 54.1473 9.64769 54.2893 9.87185 54.1887C9.91522 54.1689 10.7374 53.7879 10.5132 53.6721C10.3575 53.7011 10.1679 53.7449 9.99899 53.7795C9.87014 53.5936 10.6687 53.3555 10.9017 53.344C10.7238 53.264 10.6845 53.1105 10.4309 53.13C10.4158 53.0766 10.4011 53.0236 10.386 52.9702C11.0044 52.9271 10.8553 52.717 10.3288 52.7859C10.332 52.8859 10.3336 52.9806 10.3361 53.0764C9.68227 53.1093 9.34314 53.4674 9.83794 52.763C10.1527 52.5915 9.82657 52.9784 10.061 52.8421C10.1794 52.6527 10.0322 52.5175 10.2394 52.3234C10.4986 52.082 10.8165 52.2758 10.3738 51.8835C9.60848 53.0317 9.72436 51.845 9.36387 51.4251C10.2595 51.1526 10.488 50.7165 10.1337 50.2243C9.88707 50.3188 10.0443 50.4671 9.97539 50.5773C9.90643 50.6875 9.73884 50.6054 9.63851 50.7452C9.53818 50.8849 9.41672 51.169 9.25618 51.3212C9.09523 51.2387 8.67368 50.775 9.1367 51.053C9.34968 50.7589 9.5909 50.5998 9.59037 50.2795C9.17817 50.2464 8.9312 50.2906 8.87361 49.9875C9.45388 50.084 9.78617 49.681 10.3691 49.6713C10.2684 49.9058 9.6949 49.8695 9.44796 50.0342C9.42331 50.051 9.59311 50.2311 9.59037 50.2795C10.0581 50.0003 10.2334 49.9031 10.8458 49.9373C10.7721 49.8024 10.8333 49.7026 10.5479 49.7323C10.6664 49.6841 10.7849 49.6357 10.9035 49.5881C10.8935 49.5426 10.8758 49.5018 10.8704 49.4504C10.4533 49.5843 10.6961 49.4092 10.4879 49.3416C10.2794 49.274 9.96095 49.4535 9.91704 49.1892C9.82998 49.2922 9.75611 49.3858 9.67414 49.4857C9.53851 49.3306 9.40234 49.1753 9.26718 49.0206C9.0233 49.1785 8.67384 49.4972 8.32898 49.5412C8.44695 49.4426 8.17877 49.2052 8.16507 49.1769C8.11307 49.0673 8.33917 49.0982 8.34324 49.0887C8.42228 48.8934 8.327 48.7564 8.64593 48.6411C8.47813 48.528 8.54813 48.4146 8.51943 48.2738C8.50367 48.1963 8.2643 48.2458 8.30362 48.1936C8.56656 47.8467 8.91928 48.0914 8.24307 47.5915C8.08458 47.6855 7.92215 47.7792 7.76227 47.8739C7.68947 47.8167 7.6164 47.7599 7.54366 47.7028C7.5681 47.6544 7.59285 47.6064 7.61733 47.5581C7.98249 47.5084 8.34843 47.4589 8.71358 47.4092C8.72678 47.3584 8.73942 47.3074 8.75267 47.2567C8.80005 47.3341 8.84747 47.4118 8.89496 47.4893C8.96024 47.4879 9.02548 47.486 9.09075 47.4846C9.17311 47.3482 9.25658 47.2125 9.34004 47.0769C9.21272 47.092 9.08451 47.1072 8.95719 47.1223C9.09605 46.8223 9.20324 46.8051 8.81737 46.5873C8.79308 46.379 8.23927 46.2812 7.99964 46.1908C8.06514 46.1383 8.13156 46.0858 8.19703 46.033C8.08768 46.0194 7.97876 46.0055 7.86942 45.9919C8.00928 45.918 8.14913 45.8436 8.28832 45.7702C7.95053 45.7836 7.84411 45.7811 7.75497 46.0093C7.33006 45.9908 7.46418 45.5921 7.58423 45.423C7.67524 45.2945 8.03812 45.3775 8.0784 45.3577C8.21535 45.2913 8.06759 45.1185 8.08632 45.0759C8.16382 44.896 8.13171 44.7813 8.18948 44.6214C8.20113 44.5902 8.41057 44.4812 8.4166 44.4734C8.44741 44.4148 8.53766 44.2688 8.53888 44.2534C8.60726 43.4564 7.75588 44.405 7.7679 43.6666C7.64485 43.7041 7.52248 43.74 7.39936 43.7768C7.38487 43.7214 7.37065 43.6649 7.3562 43.6093C7.45269 43.5251 7.65421 43.5889 7.483 43.4652C7.63908 43.4559 7.79523 43.4468 7.95059 43.4381C7.85958 43.3864 7.76953 43.3368 7.6784 43.2836C8.20435 43.1207 8.28445 42.7479 8.91908 42.7002C9.13495 42.6839 9.38513 42.9111 9.5989 42.7506C9.63135 42.6369 9.38332 42.7402 9.36467 42.6975C9.23376 42.3888 9.59591 42.3664 9.48498 42.2474C9.32842 42.2446 9.16872 42.241 9.01057 42.2378C9.05022 42.1836 9.0899 42.1294 9.12955 42.0749C9.02461 42.0752 8.9195 42.075 8.81456 42.0753C8.81289 42.1223 8.81181 42.175 8.80975 42.2183C8.40136 42.2045 8.16 41.6824 8.52555 41.8509C8.67393 41.9193 8.63233 42.08 9.09563 41.9293C9.01095 41.7924 8.92281 41.6364 8.8377 41.4924C8.93932 41.4765 9.04117 41.4608 9.14279 41.4449C9.05419 41.2484 8.6662 41.4784 8.44729 41.5023C8.43598 41.4562 8.4254 41.4096 8.41413 41.3635C8.51094 41.3329 8.61249 41.3028 8.70614 41.2717C8.54842 41.287 8.17936 41.3006 8.30019 41.147C8.37899 41.0482 8.79164 41.1456 8.71816 40.9819C8.47376 41.0209 8.18099 41.1146 8.08146 40.9337C8.33597 40.8875 8.56821 40.8365 8.83627 40.7933C8.56484 40.5859 8.94863 40.427 8.63264 40.1747C8.43256 40.0138 7.76338 39.8325 8.74407 39.6173C8.75703 39.4842 8.51409 39.5504 8.45464 39.5173C8.17339 39.3611 8.63072 39.1796 8.65509 39.1433C8.81137 38.9108 8.63913 38.8305 8.84461 38.6351C8.66169 38.6621 8.48818 38.6839 8.30969 38.7085C8.60046 38.8422 8.59532 38.9241 8.55829 39.1553C8.51394 39.0833 8.46878 39.0115 8.42452 38.9396C8.27657 38.9664 8.12858 38.9931 7.98136 39.0194C8.63777 39.6605 7.69337 39.5898 7.4327 39.0221C7.70382 38.9448 7.97408 38.8661 8.2461 38.7898C7.79535 38.4934 8.14364 38.3012 8.19585 37.9166C8.2015 37.8692 8.02696 37.7145 8.01257 37.6427C8.01162 37.644 8.01067 37.6453 8.00972 37.6466C7.7448 37.6248 7.63028 37.6968 7.39781 37.7251C7.365 37.6883 7.33232 37.6514 7.29954 37.6146C7.46938 37.5108 7.61808 37.5287 7.56042 37.3599C7.38548 37.3988 7.21048 37.4374 7.03556 37.4764C7.01253 37.2873 7.19404 37.1471 7.09574 36.979C7.16526 37.0027 7.23494 37.026 7.30447 37.0497C7.44248 36.6543 8.50945 36.8681 7.96687 36.6261C8.05614 36.6002 8.14634 36.5748 8.23562 36.549C8.26789 36.6645 8.29961 36.7804 8.3321 36.896C8.46082 36.8873 8.589 36.8789 8.71767 36.8698C8.66828 36.7472 8.61778 36.6244 8.56869 36.5023C8.66266 36.5866 8.75686 36.6713 8.85097 36.7556C8.90001 36.6047 8.94932 36.4544 8.99881 36.3047C8.53904 36.4978 8.46451 36.3033 7.99959 36.3796C8.36774 36.0899 8.86485 35.8483 8.50483 35.4816C8.4332 35.409 8.10916 35.4763 8.49023 35.2252C7.97388 35.3218 7.70732 35.0527 7.21494 35.1273C7.24489 35.2049 7.26657 35.2899 7.30151 35.3607C7.46667 35.2622 7.93816 35.212 8.08843 35.33C8.27991 35.4804 7.97175 35.7476 8.49539 35.696C8.47604 35.7638 8.46645 35.8264 8.45089 35.8922C8.31866 35.8763 8.18567 35.8609 8.05349 35.8454C8.27221 36.0118 8.21541 36.1323 7.89487 36.2478C7.80123 36.0347 7.70889 35.8228 7.61693 35.6112C7.59716 35.645 7.57727 35.6793 7.5583 35.7131C7.21014 35.5747 6.90615 35.7697 6.8103 35.4675C6.96371 35.4575 7.11719 35.4471 7.27136 35.437C6.85306 35.3615 6.83058 35.0388 6.36692 35.177C6.5044 35.0698 6.59455 35.0436 6.33627 35.0083C6.67544 34.7282 7.11695 34.5351 7.66444 34.5845C7.57053 34.498 7.47657 34.4116 7.38285 34.3257C7.23877 34.3898 7.09543 34.4542 6.95143 34.5187C6.94884 34.3562 6.94628 34.1931 6.94347 34.0324C7.38006 33.9862 7.09828 34.3325 7.48286 34.211C7.56005 34.1867 7.38566 34.1122 7.4283 34.0864C7.89 33.8139 7.57077 34.2132 7.9325 34.1169C8.02073 33.7537 8.6549 33.9945 8.10494 33.5439C8.23046 33.5225 8.35847 33.5001 8.4833 33.4798C8.47952 33.3114 8.19492 33.3441 8.13138 33.2036C8.09182 33.1154 8.58589 32.9703 8.23803 32.8933C8.17396 32.8796 7.57166 33.0857 7.57623 32.7333C7.57957 32.4534 8.02001 32.5413 8.16412 32.3805C8.30814 32.2193 7.68672 31.9086 8.36204 31.768C8.2764 31.8519 8.23365 31.9552 8.1649 32.0475C8.29968 32.0753 8.43298 32.1023 8.56698 32.1296C8.38362 31.9389 8.57341 31.721 8.24948 31.6049C8.7179 31.3119 8.25315 31.0428 7.7112 31.1517C7.79472 31.2346 8.02771 31.1269 7.88257 31.2561C7.75596 31.2755 7.63 31.2955 7.50339 31.3149C7.50739 31.1074 7.4963 30.9652 7.88941 31.0382C7.89695 31.0058 7.9045 30.9738 7.91207 30.9416C7.6309 30.9507 7.34873 30.9605 7.06756 30.9696C7.0339 30.9331 7.0005 30.8965 6.96686 30.8601C7.02633 30.8145 7.08653 30.7689 7.14679 30.7231C7.59429 30.7579 7.61383 30.8537 7.84582 30.5194C7.69221 30.5261 7.53918 30.5324 7.38556 30.5392C7.56719 30.2593 7.93899 30.2388 7.90845 29.889C8.45441 30.1326 7.51635 30.3193 8.58588 30.2658C8.51885 30.3337 8.45095 30.4024 8.38401 30.4707C8.53962 30.4728 8.69545 30.4748 8.85104 30.4763C8.75184 30.1447 7.70294 29.58 8.36949 29.3156C8.28565 29.2904 8.21261 29.2646 8.12259 29.2391C8.52093 28.9892 7.59985 28.9265 8.11849 28.6707C8.173 28.6446 9.03627 28.6601 8.99371 28.3596C8.88202 28.3713 8.69371 28.3824 8.5527 28.3938C8.61888 28.3257 8.6883 28.258 8.75613 28.1907C8.65227 28.1828 8.54843 28.1743 8.44379 28.1664C8.40776 28.2791 8.37119 28.3921 8.33542 28.5057C8.29627 28.4139 8.25716 28.3218 8.21818 28.2303C8.05368 28.3576 8.05403 28.4127 7.78037 28.3496C7.76014 28.2447 7.73904 28.1401 7.71903 28.0357C7.64924 28.0274 7.57864 28.0192 7.50884 28.0108C7.30374 28.0689 7.10325 28.1277 6.89512 28.1865C7.05419 27.9083 7.05492 27.6604 7.45479 27.4299C7.52235 27.3908 7.79611 27.5126 7.54494 27.269C7.68762 27.2607 7.80337 27.2504 7.93524 27.242C7.52569 26.948 7.64213 26.8432 7.92238 26.52C7.65839 26.7316 7.82871 26.5445 7.68289 26.4963C7.58241 26.4633 7.60087 26.6021 7.49623 26.5892C7.39229 26.5763 6.96952 26.4057 6.92342 26.5623C7.79056 26.92 6.76929 27.0527 7.19708 27.5377C7.08412 27.4647 6.97094 27.3911 6.85808 27.3181C6.78437 27.3564 6.71749 27.3908 6.63926 27.4324C6.79796 27.1496 6.69343 27.2881 6.55785 27.1782C6.42225 27.0683 6.30396 26.8651 6.26383 26.7285C6.25122 26.6855 6.4446 26.7258 6.45979 26.6277C6.4703 26.561 6.1807 26.387 6.51544 26.3369C6.73335 26.3045 7.34257 26.5777 7.33101 26.1789C7.54345 26.0989 7.48164 26.2912 7.50759 26.2948C7.76336 26.3229 7.94885 26.0741 7.7516 25.9665C7.73459 25.9577 7.53805 26.0512 7.45783 25.9563C7.26628 25.7297 7.49148 25.5999 7.79652 25.4371C7.43465 25.4279 6.99873 25.2357 7.12809 24.9864C7.02441 24.9756 6.91981 24.9653 6.81536 24.9544C6.87078 24.9918 6.92548 25.0293 6.98094 25.0667C6.91679 25.1097 6.87036 25.155 6.79465 25.1975C6.70114 24.9497 6.20238 24.923 6.01809 24.8064C5.38893 24.4077 6.71022 24.6361 6.93842 24.7053C6.8473 24.7594 6.7455 24.8121 6.6498 24.8661C6.77564 24.8583 6.90243 24.8503 7.02904 24.843C7.01575 24.2369 7.84494 24.7379 8.07454 24.4292C7.45385 24.3594 7.39101 24.1349 7.7813 23.8494C7.77788 23.8182 7.77678 23.7869 7.77261 23.7559C7.68222 23.7515 7.54412 23.7529 7.48451 23.7449C7.37626 23.407 8.33039 23.3411 8.4205 23.3063C8.82043 23.1569 8.26509 23.0463 8.26011 23.0031C8.23993 22.8216 8.48609 22.7685 8.37983 22.5974C8.26511 22.4137 8.07635 22.5397 7.90706 22.4839C7.77261 22.439 7.74854 22.2939 7.60929 22.2341C7.72319 22.258 7.8349 22.2844 7.94924 22.3081C8.10444 22.118 8.25595 21.9641 8.29444 21.7515C7.46173 21.5075 8.86889 21.3128 7.72819 21.3883C7.64909 21.5884 7.51882 21.7009 7.22798 21.8086C7.19126 21.6752 7.15567 21.5421 7.11928 21.4097C7.24463 21.3719 7.36673 21.3455 7.49446 21.3006C7.22928 21.1955 7.34508 20.9583 7.268 20.8648C6.90667 20.4271 6.45201 20.5539 7.21865 20.1715C7.28927 20.4549 7.65926 20.4587 7.60544 20.7403C7.87025 20.6819 7.81701 20.5386 8.13283 20.6345C8.05771 20.3622 7.774 20.4467 7.52415 20.338C7.30877 20.2441 7.29914 20.0614 7.01772 20.0676C7.17263 20.0512 7.32255 20.039 7.47727 20.0227C7.4782 19.8485 7.48086 19.6754 7.48235 19.5034C7.6425 19.5796 7.803 19.6558 7.96249 19.732C8.02437 19.6775 8.08604 19.6231 8.14797 19.5689C7.65252 19.1377 8.59087 18.3971 7.32673 18.4895C7.29167 18.2797 7.45061 18.2581 7.6922 18.1521C7.59678 18.1371 7.51746 18.1229 7.41122 18.1077C7.51502 17.9772 7.15841 17.8651 7.25524 17.7511C7.35136 17.6373 7.69178 17.6191 7.12158 17.5847C7.28757 17.5138 7.42577 17.4464 7.58042 17.3714C7.45226 17.3201 7.32562 17.269 7.19826 17.2182C7.2686 17.147 7.33872 17.0759 7.40915 17.0053C7.13803 16.9567 7.26543 16.675 7.0872 16.5435C7.38524 16.436 8.30935 16.4741 8.15446 16.1932C7.92493 16.1911 7.69607 16.1889 7.46654 16.1869C7.51689 16.1257 7.56712 16.0646 7.61754 16.0034C7.69251 16.0027 7.76747 16.0025 7.84244 16.0018C7.81799 16.0329 7.79367 16.0636 7.76846 16.0947C7.8962 16.072 8.02333 16.0499 8.15105 16.0279C7.96735 15.9248 7.78372 15.8216 7.60021 15.7182C7.45273 15.8406 7.30528 15.9642 7.15804 16.0889C6.99628 15.9183 7.16886 15.8122 6.98726 15.6635C7.30907 15.5523 7.48946 15.606 7.83066 15.6725C7.80334 15.6247 7.77714 15.5746 7.74989 15.526C8.09208 15.571 8.2998 15.5064 8.2606 15.7727C8.35934 15.7587 8.45353 15.7443 8.5561 15.7311C8.54247 15.6881 8.62661 15.6606 8.59098 15.6096C8.49343 15.4697 7.89488 15.3389 7.68296 15.3384C7.57193 15.3383 7.77786 15.4817 7.62148 15.4694C7.24011 15.4393 7.42522 15.1381 7.022 15.5663C6.78529 15.4073 6.97014 15.3822 7.04773 15.2234C6.91988 15.2302 6.79285 15.2368 6.66503 15.2431C6.72708 15.1705 6.78897 15.0981 6.85111 15.0261C7.49997 15.1597 7.77128 14.6259 8.31998 15.1442C8.35606 15.0002 8.39244 14.8578 8.43034 14.7165C8.49602 14.7492 8.56103 14.782 8.62672 14.8148C8.58808 14.8777 8.55006 14.9404 8.51224 15.0039C8.63856 14.9332 8.76419 14.8628 8.89057 14.7931C8.74733 14.6064 8.51709 14.525 8.23264 14.4285C8.01149 14.6254 8.30261 14.5722 8.35174 14.7377C8.16923 14.7229 8.00072 14.7221 7.80938 14.6982C8.1921 14.6324 7.93051 14.3456 7.91532 14.2818C7.86909 14.0875 8.23318 14.2571 8.24773 14.13C8.26201 14.0064 8.0494 13.8335 8.42419 13.7463C8.21738 13.7366 8.00305 13.7333 7.81441 13.7306C7.75806 13.5196 7.99998 13.5752 8.0328 13.5556C8.57206 13.2466 8.14383 13.0396 8.11404 12.6585C8.04706 12.7023 7.98628 12.7471 7.92315 12.792C7.50213 12.4796 7.62444 12.6787 7.46429 12.92C7.52245 12.6883 7.15719 12.5324 7.05653 12.3621C6.9562 12.1889 7.16761 11.9046 7.32419 11.8106C7.54858 12.0668 7.37222 12.3289 7.42266 12.5873C7.63499 12.5709 7.81492 12.5535 8.04809 12.5379C7.61618 12.3541 7.91785 12.2759 7.97996 12.2255C8.1622 12.0776 7.78283 12.0576 8.19689 11.9893C8.05637 11.9838 7.93825 11.9787 7.80699 11.9738C7.88729 11.6503 8.15926 11.3245 7.65622 11.0818C7.99433 11.0873 8.3198 11.0967 8.66503 11.1002C8.42106 10.9496 8.68902 10.8541 8.63854 10.7311C8.58786 10.6104 8.31245 10.6341 8.21789 10.4898C8.20053 10.4631 8.37477 10.4237 8.25388 10.3525C8.13232 10.2807 7.21133 9.97902 8.03341 10.0163C8.04618 9.90203 8.08464 9.79678 8.1073 9.68734C8.14494 9.79877 8.18115 9.91085 8.2189 10.0232C8.42488 9.94573 8.63022 9.86964 8.83619 9.79387C8.65996 9.76803 8.48053 9.74186 8.30657 9.71662C8.11025 9.45644 8.41539 9.28906 8.36822 9.02594C8.36024 8.98209 8.00164 9.05382 8.10675 8.87111C8.21197 8.68905 8.87719 8.60487 8.65185 8.27007C8.64028 8.25148 8.14726 8.12249 8.50431 8.0311C8.58517 8.01106 8.69143 8.1347 8.79995 8.08189C8.90852 8.02849 9.0174 7.76304 9.26479 7.76429C9.17759 7.75942 9.086 7.76827 8.99678 7.76859C8.95933 7.71858 8.9219 7.66825 8.88526 7.61813C9.03878 7.62755 9.19256 7.63666 9.34531 7.64603C9.01261 7.34964 8.44303 7.16718 8.67066 6.79811C8.43771 6.89335 8.20538 6.9725 7.97314 7.06104C8.12668 7.10477 8.28127 7.1487 8.43486 7.19203C8.35653 7.36347 8.2785 7.53821 8.2 7.71522C8.37513 7.7611 8.54981 7.80641 8.72496 7.85231C8.69759 7.89882 8.67097 7.94511 8.64359 7.99202C8.51613 7.96844 8.38935 7.94482 8.26193 7.92074C8.28496 8.02059 8.30865 8.12124 8.33245 8.21355C7.58949 7.96362 8.44464 7.67572 7.80753 7.64746C7.90982 7.61317 8.01279 7.57909 8.11582 7.54526C7.80978 7.499 7.90611 7.41961 7.96819 7.27288C7.81347 7.29373 7.66048 7.31856 7.50447 7.33672C7.73167 7.20766 7.73427 6.94762 7.83012 6.80733C7.87245 6.7431 8.08927 6.83177 8.11736 6.81377C8.26406 6.7197 7.8933 6.4833 7.92791 6.44468C8.13399 6.21297 8.88647 6.12319 8.42451 5.8168C8.27939 6.0755 8.34373 5.93349 8.0647 6.00486C7.97722 6.02715 7.76775 6.36477 7.88727 5.9294C7.90108 5.88695 8.48755 5.11057 8.85295 5.41783C8.74075 5.27258 8.60623 5.15588 8.48498 5.02405C9.54135 4.82941 8.56486 4.84052 8.02469 4.87464C8.02678 4.82698 8.02552 4.78157 8.02999 4.73323C8.57948 4.89249 8.66394 4.3562 8.39817 4.14413C8.30981 4.07425 8.11526 4.22959 8.04339 4.08007C8.08869 4.01626 8.14628 3.94506 8.19634 3.87907C7.83332 3.94872 7.71455 3.73781 7.35407 3.70908C7.68607 3.61229 8.37459 3.57721 8.73739 3.6779C8.59676 3.56545 8.45799 3.43207 8.3169 3.31255C8.22716 3.35583 8.13807 3.40008 8.04822 3.44387C8.30626 3.09762 7.82396 2.63483 8.58709 2.614C8.58536 2.56533 8.58431 2.5166 8.5824 2.46872C8.45556 2.44456 8.32842 2.42101 8.20154 2.39712C8.32801 2.19168 8.45315 1.99959 8.57643 1.80067C8.64473 1.99007 8.8244 2.04086 8.66317 2.22639C8.81553 2.16134 8.9686 2.0953 9.12048 2.03219C8.74135 1.72682 8.4864 1.64246 8.62324 1.22022C8.62974 1.20816 8.9742 0.873437 9.00631 0.861003C9.15595 0.810135 9.36935 0.898683 9.44489 0.876212C9.65796 0.813268 10.1898 0.406378 10.2684 0.413444C11.2577 0.500343 11.2125 2.02493 11.2302 2.36677C11.4456 6.28144 10.3559 9.73724 10.2737 13.4095C10.2733 13.4473 10.4182 13.4393 10.4234 13.4557C10.4538 13.5575 10.2238 13.6433 10.2125 13.68C10.1889 13.7586 10.3986 13.7265 10.3955 13.7847C10.3593 14.3906 10.2107 14.9137 10.219 15.5252C10.2195 15.5646 10.0554 15.5169 10.0817 15.5875C10.0962 15.6231 10.3457 15.7506 10.3464 15.8259C10.3481 16.0955 10.2572 16.3207 10.2502 16.6114C10.2466 16.7703 10.2164 17.0099 10.2142 17.191C10.2132 17.2709 10.327 17.3582 10.3284 17.4377C10.3302 17.5506 10.0947 17.5202 10.0795 17.5364C10.0132 17.6071 10.2722 17.6252 10.2639 17.6941C10.2477 17.8225 10.0744 17.8242 10.0844 17.9893C10.0919 18.1072 10.2214 18.382 10.2579 18.5337C10.0485 18.8767 10.1187 19.3466 10.18 19.6596C10.2162 19.8511 9.97351 19.8653 9.97308 19.9437C9.97367 20.2205 10.2807 20.4363 10.2881 20.7001C10.2977 21.0501 10.0908 21.3672 10.075 21.6938C10.0725 21.7477 10.2947 21.7361 10.3002 21.789C10.3205 21.9847 10.3608 22.2368 10.3293 22.4138C10.2948 22.611 9.97252 22.685 10.039 22.88C10.0587 22.9372 10.3416 22.9528 10.3784 23.0487C10.4362 23.2012 10.1881 23.3753 10.1611 23.476C10.1252 23.6182 10.4122 23.4923 10.3753 23.6842C10.3737 23.6921 10.1681 23.7227 10.1783 23.7639C10.2074 23.8842 10.3693 23.8704 10.3559 24.0474C10.3539 24.0642 10.1607 24.3021 10.1603 24.3258C10.159 24.4639 10.0947 24.7453 10.1378 24.8276C10.2913 25.1215 10.5968 24.8821 9.92928 25.1471C10.0959 25.2557 10.2648 25.3635 10.4272 25.4791C10.2764 25.4062 10.0679 25.7198 10.0824 25.7415C10.1985 25.9195 10.4575 25.8058 10.4197 26.036C9.8083 25.747 10.349 26.3342 10.3684 26.4692C10.4608 27.1134 10.3305 27.7342 10.359 28.3707C10.3689 28.5876 10.5085 28.875 10.5155 29.1078C10.5177 29.162 10.373 29.1272 10.372 29.1751C10.372 29.2229 10.53 29.163 10.5239 29.2179C10.4832 29.5576 10.1935 29.8457 10.5868 30.1354C10.5329 30.1528 10.4896 30.1544 10.4308 30.1818C10.7816 30.412 10.3515 30.9163 10.2992 31.1031C10.2179 31.3942 10.451 31.4549 10.4169 31.6665C10.3712 31.9461 9.95013 32.3935 10.6766 32.1613C10.7114 32.3514 10.7294 32.5357 10.6727 32.7248C10.6663 32.7461 10.4778 32.7438 10.4745 32.7524C10.451 32.8069 10.6201 32.8134 10.6301 32.8486C10.6572 32.9441 10.4458 32.7989 10.511 32.9336C10.5459 33.0047 10.695 33.0363 10.7117 33.2395C10.8112 34.4763 10.863 35.8148 10.9521 37.0937C10.9584 37.1819 11.1342 37.1078 11.1326 37.2193C11.1275 37.6163 10.8847 38.3026 10.9583 38.627C11.0315 38.9484 11.2889 38.8493 11.4199 39.0424C11.4453 39.0798 11.2914 39.0623 11.2926 39.0983C11.3027 39.3399 11.097 39.6521 11.0821 39.8529C11.072 39.9857 11.3079 39.9508 11.3343 40.0395C11.373 40.1717 11.1483 40.3363 11.1484 40.4096C11.1497 40.7423 11.367 40.9468 11.3029 41.2668C11.3537 41.2489 11.4011 41.2356 11.4513 41.2197C11.4833 41.5863 11.5166 41.9552 11.5514 42.3272C11.5969 42.3042 11.643 42.2817 11.6893 42.2587C11.7139 42.6969 11.1929 42.7086 12.2771 42.5422C12.3192 42.5694 12.3676 42.5977 12.4065 42.6239C11.8441 42.6769 11.4651 42.9922 11.3632 43.3455C11.3553 43.3709 11.9216 43.4655 11.2737 43.5266C11.4368 43.5494 11.5488 43.5613 11.692 43.5799C11.505 43.6731 11.3205 43.7673 11.1344 43.861C11.1682 43.8951 11.201 43.9298 11.2348 43.9639C11.3621 43.9538 11.4929 43.9332 11.6186 43.9299C11.6594 44.1019 11.5485 44.4817 11.5824 44.6192C11.6672 44.9602 12.0553 45.2698 11.7221 45.5906C11.7774 45.7184 12.0079 45.5537 12.0028 45.7553C11.8802 45.7943 11.7627 45.8313 11.6364 45.8719C12.2191 45.9586 11.8824 46.0389 11.7952 46.2756C11.7353 46.4316 11.8854 46.5082 11.8777 46.6506C11.8757 46.6867 11.7104 46.7043 11.7191 46.7277C11.7471 46.8061 12.0057 47.0054 12.0198 47.0618C12.1519 47.5714 12.1908 48.0236 12.2039 48.5341C12.2057 48.5889 12.3577 48.4953 12.359 48.5521C12.3614 48.6435 12.1043 48.6272 12.0998 48.6811C12.0885 48.8314 12.3515 48.7937 12.3954 48.9949C12.5398 49.6558 12.4555 50.421 12.5482 51.1186C12.5516 51.1402 12.7052 51.1146 12.7104 51.1378C12.7422 51.2895 12.5592 51.4778 12.584 51.6172C12.6243 51.8485 12.8685 51.9882 12.9054 52.2185C12.9789 52.6713 12.9313 53.0672 13.0024 53.5238C13.0599 53.8953 13.1359 54.2152 13.2067 54.6261C13.519 56.4352 14.3396 58.1421 14.4343 59.9781C14.4364 60.0246 14.2978 60.0328 14.3064 60.0454C14.3906 60.165 14.575 60.1407 14.2031 60.2627C14.3114 60.4152 14.6082 60.4111 14.6282 60.6175C14.6391 60.7277 14.1793 60.7356 14.4448 60.8729C14.6849 60.997 14.8908 60.7648 14.7422 61.3078C14.738 61.3222 14.4808 61.4413 14.5721 61.5299C14.6628 61.6192 14.8319 61.4601 14.941 61.6971C15.1977 62.2582 15.1163 63.0372 15.3297 63.6875C15.343 63.7283 15.5736 64.1018 15.6573 64.1676C15.8198 64.2947 16.0131 64.2193 16.1056 64.4099C16.177 64.5572 15.9779 64.7349 16.0632 64.9087C16.0734 64.9289 16.3145 64.914 16.3138 65.0588ZM6.82457 30.9994C6.58853 30.9729 5.72332 30.9465 5.97325 30.6963C5.9968 30.6727 6.59533 30.7632 6.6829 30.6283C6.75191 30.7523 6.77864 30.8755 6.82548 30.9994C6.82518 30.9994 6.82487 30.9994 6.82457 30.9994ZM11.1671 67.2551C11.1698 67.0681 11.1723 66.881 11.1756 66.6949C11.3043 66.7945 11.433 66.8944 11.5626 66.9934C11.4309 67.0807 11.2988 67.1676 11.1671 67.2551ZM7.68031 45.2379C7.68033 45.238 7.68035 45.2382 7.68037 45.2384C7.54607 45.0659 7.41184 44.8936 7.27812 44.7218C7.36184 44.7312 7.44591 44.7405 7.52963 44.7498C7.67608 44.8803 7.82253 45.011 7.96926 45.1412C7.87292 45.1734 7.77663 45.2056 7.68031 45.2379ZM8.73572 46.609C8.65558 46.7426 8.48864 46.7333 8.33898 46.8196C8.33928 46.8196 8.33958 46.8195 8.33988 46.8195C8.30092 46.842 8.2756 46.9259 8.27362 46.9574C8.3739 46.9322 8.47243 46.904 8.57182 46.878C8.85535 47.1158 8.054 47.7739 7.60526 47.1277C7.73527 47.1205 7.86455 47.1129 7.99455 47.1057C7.91197 46.7715 8.13706 46.3322 8.73572 46.609ZM6.32385 28.1882C5.88846 27.909 5.79528 27.8114 6.07432 27.4302C6.1964 27.4788 6.31848 27.5274 6.44061 27.5759C6.31985 27.6412 6.19996 27.7063 6.07928 27.7721C6.07929 27.7723 6.07929 27.7724 6.0793 27.7726C6.20868 27.7806 6.33829 27.7886 6.46765 27.796C6.41973 27.9309 6.3716 28.0571 6.32385 28.1882ZM10.2587 57.9785C9.43957 58.2157 9.92006 58.1018 9.68832 57.9019C9.60793 57.8327 9.47658 57.9389 9.4429 57.8928C9.25957 57.6442 9.81505 57.5202 10.1172 57.5274C10.1653 57.6775 10.2121 57.8298 10.2586 57.978C10.2586 57.9782 10.2586 57.9784 10.2587 57.9785ZM11.849 65.0091C11.849 65.0093 11.849 65.0094 11.8491 65.0096C11.6482 65.06 11.5702 64.9623 11.405 65.1268C11.3855 65.0327 11.367 64.9386 11.3477 64.8443C11.3724 64.8679 11.3964 64.8922 11.4212 64.9158C11.4855 64.8766 11.5507 64.8371 11.615 64.798C11.3752 64.8143 11.5038 64.7546 11.5607 64.6398C11.3179 64.7198 11.0749 64.7998 10.8321 64.8799C10.8817 64.7497 10.9316 64.6192 10.9814 64.4895C11.0438 64.4749 11.1063 64.4601 11.1687 64.4455C11.0794 64.4195 10.9895 64.3941 10.9003 64.368C10.9726 64.3405 11.0444 64.3137 11.1168 64.2862C11.0491 64.2464 10.9815 64.2065 10.9132 64.1669C11.0912 64.113 11.1935 64.2104 11.1049 64.0182C11.3039 64.0411 11.5024 64.0638 11.7015 64.087C11.7503 64.393 11.7993 64.7004 11.849 65.0091ZM9.61447 55.8924C9.71054 56.2305 9.56127 56.1573 9.13321 56.1506C9.29364 56.0645 9.45394 55.9781 9.61447 55.8924ZM7.57964 38.2347C7.28501 38.1625 6.99354 38.0928 6.70849 38.0135C6.53009 37.8196 7.03198 37.5664 7.24991 37.7036C7.51157 37.8694 7.2556 38.0885 7.57964 38.2347ZM7.07734 33.6044C6.9617 33.8614 6.60586 33.6512 6.40396 33.6084C6.71769 33.5183 6.68313 33.4246 6.71004 33.2692C6.74017 33.4115 7.09706 33.562 7.07825 33.6044C7.07795 33.6044 7.07764 33.6044 7.07734 33.6044ZM7.6726 42.2561C7.69245 42.3546 7.78334 42.4447 7.69699 42.5451C7.42155 42.5493 7.64881 42.3423 7.25978 42.5162C7.24553 42.4531 7.23152 42.3898 7.21663 42.3274C7.38849 42.3487 7.50733 42.2804 7.67172 42.2564C7.67201 42.2563 7.67231 42.2562 7.6726 42.2561ZM8.73542 52.6467C9.02382 52.3983 8.88079 52.3836 8.62703 52.2218C8.88345 52.1523 9.35819 52.317 9.47831 52.4488C9.23069 52.5145 8.98293 52.5804 8.73542 52.6467ZM7.05338 6.21636C7.38461 6.29215 7.39531 6.65481 7.2808 6.81464C7.23286 6.79023 7.18427 6.76572 7.13557 6.7413C7.10817 6.56549 7.08094 6.38843 7.05338 6.21636ZM6.72799 33.195C6.71982 33.2212 6.71408 33.246 6.71004 33.2692C6.7047 33.244 6.7088 33.2191 6.72799 33.195ZM7.82239 22.7122C8.14021 22.7938 8.24604 22.5485 8.12271 22.8464C8.12301 22.8464 8.12331 22.8464 8.12362 22.8464C8.04255 23.044 8.02093 23.0879 7.99739 23.2723C7.58903 23.2087 7.4409 22.834 7.35998 23.3518C7.35966 23.358 7.60228 23.3455 7.56968 23.4243C7.55955 23.4488 7.36093 23.5284 7.30406 23.6486C7.28587 23.6874 7.22716 23.9792 7.21963 23.5825C6.93539 23.5966 6.64741 23.5776 6.37157 23.5807C6.2901 23.4274 6.84597 23.3001 6.83132 23.1299C6.80826 22.878 6.24494 22.7522 6.98346 22.7022C7.16546 22.9114 7.17201 23.2747 6.72822 23.3258C6.72427 23.5286 7.08872 23.5787 7.26752 23.4194C7.03434 22.7158 7.80595 23.2216 7.51316 22.6096C7.41041 22.6025 7.29978 22.5776 7.20323 22.5816C7.56437 22.3946 7.70867 22.683 7.82239 22.7122ZM7.04803 24.1679C6.82945 24.051 6.60927 23.9345 6.39019 23.818C6.74407 23.8147 7.06218 23.8768 7.26368 24.062C7.19151 24.0971 7.11941 24.1327 7.04803 24.1679ZM7.15925 14.0637C6.96802 14.0364 6.79437 13.9819 6.61327 13.9391C6.7767 13.9115 6.98207 13.04 7.11558 13.4958C7.13507 13.5591 6.77296 13.9474 7.15925 14.0637ZM9.24375 53.9426C9.35418 53.8214 9.46499 53.7009 9.57573 53.5809C9.68191 53.7196 9.79042 53.8583 9.8985 53.9971C9.68028 53.9789 9.46197 53.961 9.24375 53.9426ZM7.76828 36.5437C7.76471 36.5872 7.48901 36.4669 7.54486 36.6323C7.36556 36.5205 7.21295 36.4145 7.04414 36.3048C7.16584 36.2577 7.28702 36.2104 7.40876 36.1635C7.32632 36.1415 7.24432 36.1189 7.16189 36.0968C7.34504 36.0992 7.5238 36.1 7.7101 36.103C7.33739 36.3408 7.78316 36.352 7.76828 36.5437ZM9.09582 42.6148C8.70651 42.6978 8.43745 42.424 8.40891 42.7273C8.14374 42.7011 7.9975 42.6262 7.95456 42.4557C8.05029 42.4166 8.14532 42.3777 8.24108 42.3387C7.97591 42.365 7.8724 42.3318 7.6726 42.2561C7.67289 42.2559 7.67318 42.2558 7.67347 42.2557C7.62449 41.9953 7.71469 42.0013 8.14293 41.8898C7.92836 42.1939 8.32714 42.1579 8.58518 42.3198C8.76263 42.4311 8.70873 42.6096 9.09582 42.6148ZM7.11796 14.978C6.79326 14.7638 6.47293 14.9252 6.84508 14.5926C6.92886 14.6194 7.01191 14.6462 7.0957 14.673C7.10387 14.7742 7.11117 14.8759 7.11796 14.978ZM7.86321 43.7526C8.46974 43.6588 8.92101 43.4127 7.9263 43.4995C7.74655 43.7067 8.29725 43.5515 7.86321 43.7526ZM8.04143 33.6238C8.03669 33.9706 7.34164 33.9544 6.98632 33.835C7.11043 33.8043 7.23479 33.7737 7.35818 33.7436C7.29695 33.6868 7.23564 33.6301 7.17524 33.5733C7.46371 33.5903 7.75296 33.6071 8.04143 33.6238ZM9.35886 49.7523C8.88574 49.5518 9.16027 50.0699 8.86225 49.9275C8.62457 49.8176 9.03096 49.5502 9.31585 49.5852C9.33122 49.6357 9.34519 49.6925 9.35878 49.7518C9.35881 49.7519 9.35884 49.7521 9.35886 49.7523ZM9.00927 48.2327C8.55212 48.3421 8.67816 48.2603 8.79155 48.4571C8.82366 48.513 8.7189 49.014 9.07368 48.7586C9.04895 48.5887 9.0298 48.4088 9.00927 48.2327ZM7.12832 29.6507C7.33172 29.6383 7.79616 29.9894 7.68676 30.0427C7.68707 30.0427 7.68737 30.0427 7.68767 30.0427C7.389 30.1866 7.3269 29.7946 6.91671 29.9851C7.26696 29.5897 6.37189 29.518 7.54627 29.492C7.60769 29.7106 7.36115 29.617 7.12832 29.6507ZM8.3943 1.79267C8.39431 1.7925 8.39433 1.79232 8.39434 1.79214C8.38313 1.82115 8.07271 1.9905 7.97066 1.96141C8.07359 1.73979 8.26848 1.78127 7.95769 1.53837C8.06243 1.53159 8.16394 1.52634 8.26949 1.51848C8.3265 1.61167 8.4488 1.66929 8.3943 1.79267ZM7.62245 13.1455C7.67037 13.2381 7.44026 13.3897 7.4475 13.494C6.61921 13.1147 7.43246 12.7758 7.62245 13.1455ZM11.1335 61.7166C11.1332 61.7164 11.1328 61.7162 11.1325 61.716C11.1329 61.716 11.1334 61.716 11.1338 61.716C11.1337 61.7162 11.1336 61.7164 11.1335 61.7166ZM6.85979 20.0858C6.91502 20.075 6.96294 20.0692 7.00497 20.0675C7.00891 20.0675 7.01286 20.0676 7.01681 20.0676C6.96516 20.0731 6.91292 20.079 6.85979 20.0858ZM7.03363 28.886C7.31138 28.7221 7.78392 29.2114 7.68368 29.3819C7.55354 29.3759 7.43594 29.3792 7.28585 29.3587C7.61559 29.2104 6.98675 28.9135 7.03363 28.886ZM7.99515 40.4882C7.96026 40.0808 9.13193 40.4928 8.24379 40.6084C8.22644 40.6094 7.99776 40.4985 7.99515 40.4882ZM7.31118 32.0607C7.65664 32.1443 7.73413 31.9305 7.69564 32.2671C7.60895 32.2918 7.52207 32.3166 7.43539 32.3414C7.39406 32.2477 7.35233 32.1541 7.31118 32.0607ZM9.20448 37.7287C8.96922 37.2353 8.59497 36.7802 7.69016 37.1922C7.72354 37.2282 7.75599 37.2648 7.78939 37.3008C8.24536 37.2666 8.00926 37.4306 8.01338 37.6415C8.19686 37.6552 8.24922 37.7676 8.40485 37.7755C8.70563 37.7906 8.90225 37.6385 9.20448 37.7287ZM11.4864 58.9131C11.4082 58.9196 11.3296 58.9264 11.2522 58.9327C11.1505 58.8697 11.0492 58.8065 10.9476 58.7435C11.0972 58.7285 11.2468 58.7135 11.3963 58.6984C11.4264 58.7698 11.4566 58.841 11.4867 58.9125C11.4866 58.9127 11.4865 58.9129 11.4864 58.9131ZM8.01942 24.6478C7.15988 24.6143 7.32024 24.7734 7.76033 25.0956C7.84648 24.9456 7.93284 24.796 8.01942 24.6478ZM9.761 45.8099C9.52047 45.8523 9.28066 45.8945 9.0402 45.9375C9.31523 46.0777 9.58796 46.0085 9.89713 45.8833C9.85181 45.8587 9.80631 45.8346 9.761 45.8099ZM10.2035 48.2533C10.2437 48.1751 10.0539 48.2392 10.0567 48.2312C10.1334 48.0369 10.2193 47.9991 10.0412 47.8003C9.98615 47.7807 9.92851 47.7619 9.87194 47.7424C9.38001 47.9154 9.66633 47.95 9.39978 48.2083C9.56783 48.1445 9.73616 48.081 9.90503 48.0174C9.88541 48.1424 9.86636 48.267 9.84703 48.3926C9.90262 48.3991 9.95773 48.4058 10.0133 48.4123C10.0759 48.3596 10.1469 48.3044 10.2035 48.2533ZM11.445 59.8707C11.4474 59.9885 11.4493 60.1072 11.452 60.2254C11.5764 60.2054 11.7016 60.1851 11.826 60.1651C11.699 60.0671 11.5718 59.9687 11.445 59.8707ZM7.60929 22.2341C7.56461 22.2248 7.51966 22.2157 7.47395 22.2076C7.52966 22.2084 7.57315 22.2186 7.60929 22.2341ZM9.10163 1.51174C9.19663 1.37763 9.14674 1.19399 9.17022 1.04095C8.85422 1.05378 8.9276 1.40773 8.72856 1.5353C8.78407 1.55952 9.06171 1.56741 9.10163 1.51174ZM8.04718 34.1044C8.20679 34.1268 8.36564 34.1492 8.52522 34.171C8.51407 34.2531 8.50206 34.3356 8.49109 34.4185C8.61996 34.4116 8.74994 34.4045 8.87881 34.3976C8.6855 34.0509 9.06275 34.107 9.41624 33.905C8.96014 33.9714 8.504 34.0374 8.04718 34.1044ZM12.989 63.3793C12.8513 63.1478 12.6733 63.0926 12.3237 63.3121C12.429 63.3821 12.5346 63.4526 12.6401 63.5226C12.7563 63.4746 12.8726 63.4267 12.989 63.3793ZM7.97243 17.5345C7.83448 17.3162 8.35403 17.3238 8.07115 17.1006C7.97156 17.2123 7.87101 17.3247 7.77165 17.4374C7.83838 17.4706 7.90565 17.5024 7.97243 17.5345ZM9.43693 28.0927C9.61419 27.995 8.74986 27.8688 9.3747 27.5828C9.18346 27.5273 9.00149 27.4945 8.81443 27.4473C9.01498 27.4099 9.21798 27.3684 9.41706 27.3327C9.41706 27.3326 9.41705 27.3324 9.41705 27.3322C9.34164 27.1006 9.09366 27.2599 8.87956 27.2614C8.79077 27.2616 8.93362 27.0834 8.74229 27.1435C8.41374 27.247 8.6158 27.5936 8.21203 27.6082C8.33979 27.4792 8.22179 27.2413 7.95461 27.3212C7.66132 27.409 8.16447 27.6217 7.92415 27.7764C8.5625 27.5471 8.3778 27.9788 7.88385 28.0417C8.27352 28.273 8.42033 28.0417 8.3939 27.7931C8.77917 27.9329 8.566 27.7141 8.88047 27.6633C9.07652 27.8225 8.93734 28.3606 9.43693 28.0927ZM9.55921 39.7918C9.51712 39.6218 9.70641 39.3328 9.37558 39.2475C9.18276 39.1975 9.0655 39.4802 8.75495 39.324C8.8001 39.4884 8.91811 39.5154 9.17118 39.4611C9.20575 39.4962 9.23961 39.5318 9.27343 39.5669C9.22528 39.5896 9.17784 39.6126 9.12969 39.6353C9.23703 39.6448 9.34354 39.6544 9.45084 39.6634C9.43422 39.706 9.41764 39.7492 9.4003 39.792C9.45373 39.7914 9.50064 39.7949 9.55921 39.7918ZM8.27296 11.3193C8.27272 11.3667 8.2725 11.4137 8.27305 11.4614C8.33592 11.4606 8.40144 11.4589 8.46609 11.4575C8.51715 11.4568 8.56821 11.456 8.61927 11.4553C8.436 11.4696 8.11885 11.6753 8.30604 11.7853C8.39995 11.8404 8.75234 11.7536 8.79875 11.9631C8.79099 11.8128 8.75327 11.6726 8.73389 11.528C8.83552 11.548 8.93829 11.5675 9.03992 11.5874C9.04008 11.5874 9.04024 11.5873 9.0404 11.5872C9.06679 11.5415 9.09435 11.4955 9.12076 11.4501C8.83799 11.4064 8.55572 11.3631 8.27296 11.3193ZM10.2209 45.607C9.99961 45.4707 9.8887 45.4297 9.57542 45.5487C9.57529 45.5489 9.57516 45.5491 9.57503 45.5493C9.72621 45.5912 9.87737 45.6331 10.0286 45.6749C10.0926 45.6525 10.1569 45.63 10.2209 45.607ZM8.69181 20.8408C7.45638 20.4782 8.20881 21.2764 8.63207 21.1289C8.65139 21.1221 8.5547 20.8721 8.69181 20.8408ZM8.41716 33.5347C8.43362 33.6284 8.44922 33.7225 8.46588 33.817C8.61621 33.7846 8.76597 33.7517 8.91631 33.7195C8.75016 33.658 8.58323 33.5963 8.41716 33.5347ZM13.3101 62.1584C13.6228 61.9913 13.692 61.7144 13.3046 61.6646C13.2754 61.738 13.2461 61.8115 13.2169 61.885C13.1503 61.7707 13.0798 61.6588 13.0155 61.5434C12.5499 61.6306 12.848 61.7183 12.7638 61.9592C12.7499 61.9964 12.2175 62.3272 12.6668 62.3123C12.759 62.3088 12.7732 62.0697 13.0649 62.1742C13.0712 62.1012 13.0546 62.0427 13.0526 61.9754C13.1622 61.9482 13.2719 61.921 13.3814 61.8933C13.3578 61.9817 13.3336 62.0698 13.3101 62.1584ZM9.42312 38.7997C9.42652 38.5641 9.23553 38.5537 8.8979 38.5367C8.94594 38.6415 8.99352 38.7465 9.04178 38.8516C9.1686 38.8341 9.29553 38.8173 9.42312 38.7997ZM13.0016 60.0721C13.0306 59.9363 12.774 60.0423 12.7133 60.0018C12.4849 59.8485 12.6506 59.6816 12.4944 59.5174C12.5484 59.5199 12.5989 59.522 12.6513 59.5243C12.6512 59.5241 12.6512 59.5239 12.6512 59.5238C12.7001 58.567 12.1871 59.1692 12.3903 59.6883C12.2933 59.72 12.1962 59.7513 12.1 59.783C12.3201 59.9877 12.5306 60.1756 13.0016 60.0721ZM8.73702 23.9039C8.80027 23.8929 9.2038 23.9765 9.0136 23.8138C8.42443 23.6891 8.71834 23.9 8.49288 23.9563C8.43598 23.9121 8.38062 23.8669 8.32376 23.8232C8.16046 24.0926 8.30089 24.1309 8.72929 24.0282C8.75807 24.0209 8.67396 23.9148 8.73702 23.9039ZM9.01781 22.1264C8.15158 22.0881 8.54115 22.4297 8.81011 22.4171C8.82078 22.37 8.67409 22.3334 8.73892 22.2835C8.8038 22.2332 9.00611 22.2204 9.01781 22.1264ZM9.09713 31.8884C9.10038 31.878 9.45787 31.756 9.17398 31.7825C8.50783 31.9465 8.95656 32.1747 9.18836 32.1161C9.17171 32.0332 9.06733 31.9835 9.09804 31.8883C9.09774 31.8883 9.09744 31.8884 9.09713 31.8884ZM13.827 63.6402C13.8496 63.6305 13.9417 63.3579 13.8022 63.3546C13.6471 63.3602 13.484 63.381 13.3249 63.3941C13.4966 63.4976 13.4444 63.7917 13.8269 63.6397C13.8269 63.6399 13.827 63.6401 13.827 63.6402Z" fill="white"/>
</g>
<mask id="mask1_126_24009" style="mask-type:alpha" maskUnits="userSpaceOnUse" x="0" y="2" width="21" height="18">
<path d="M0.0107422 19.427L0.00126015 2.36706L17.3775 2.36705L20.0047 8.64092L19.6031 11.9092L18.5947 12.6355L17.387 19.427L0.0107422 19.427Z" fill="#D9D9D9"/>
</mask>
<g mask="url(#mask1_126_24009)">
<path d="M-27.6506 4.93313C-27.7904 4.87594 -27.3032 4.97728 -27.6189 4.87465C-27.5501 4.88188 -27.4804 4.88903 -27.4107 4.89618C-27.3975 4.91808 -27.3839 4.94018 -27.3708 4.96244C-27.4647 4.95284 -27.5579 4.94312 -27.6506 4.93322C-27.6506 4.93319 -27.6506 4.93316 -27.6506 4.93313ZM-27.8252 5.13797C-27.7321 5.10466 -27.4643 5.14043 -27.7384 5.03717C-27.7649 5.05073 -27.792 5.06395 -27.8183 5.07707C-27.9119 5.04409 -28.0104 5.0108 -28.1123 4.97763C-28.151 4.97674 -28.1894 4.97575 -28.2277 4.97459C-28.2683 4.93707 -28.3085 4.90039 -28.3491 4.8645C-28.3085 4.87596 -28.2672 4.88774 -28.2263 4.8995C-28.0552 4.9068 -27.9035 4.92646 -27.6899 4.95851C-27.7072 4.94784 -27.7246 4.93732 -27.7419 4.92682C-27.6353 4.95772 -27.5277 4.98967 -27.4195 5.02252C-27.519 5.0184 -27.6289 5.01312 -27.7191 5.00844C-27.5903 5.08326 -27.3329 5.10457 -27.1967 5.11769C-27.0115 5.13607 -27.0584 5.15441 -26.9196 5.16891C-26.8974 5.17124 -26.8902 5.15079 -26.8468 5.15833C-26.6359 5.19431 -26.2367 5.27947 -26.4845 5.28831C-26.8153 5.21997 -27.1427 5.1958 -27.4763 5.11612C-27.3977 5.18555 -27.5824 5.16726 -27.8252 5.13797ZM-21.3777 6.07907C-21.4968 6.11411 -21.7125 6.05755 -21.8528 6.00015C-21.853 6.00013 -21.8532 6.0001 -21.8533 6.00007C-21.8842 5.98725 -21.9446 5.91045 -21.8392 5.929C-21.6672 5.959 -21.6036 6.07887 -21.4976 6.02029C-21.4591 6.04009 -21.4182 6.05885 -21.3777 6.07907ZM-21.0106 6.12781C-20.9124 6.17081 -20.9759 6.24875 -21.1005 6.20536C-21.1005 6.20543 -21.1005 6.2055 -21.1005 6.20556C-21.1523 6.18756 -21.0344 6.13819 -21.2396 6.17493C-21.2688 6.11702 -21.2976 6.06451 -21.3275 6.00919C-21.2795 6.01534 -21.2371 6.02005 -21.1874 6.02653C-21.2372 6.10679 -21.1086 6.08529 -21.0106 6.12781ZM-26.3038 5.29463C-26.2777 5.2539 -26.3466 5.24141 -26.4558 5.19154C-26.3468 5.21195 -26.2369 5.23269 -26.1264 5.25349C-26.1861 5.26771 -26.2449 5.28143 -26.3038 5.29463ZM-28.8986 4.80312C-28.8987 4.80309 -28.8989 4.80306 -28.8991 4.80303C-28.9353 4.80076 -28.9714 4.79841 -29.0068 4.79603C-29.0252 4.78276 -29.0469 4.76895 -29.067 4.75561C-29.2021 4.73985 -29.3357 4.72368 -29.4663 4.70745C-29.4454 4.68466 -29.2131 4.73164 -29.0764 4.73588C-28.8862 4.7786 -28.8079 4.81099 -28.8001 4.83934C-28.8329 4.82714 -28.8655 4.81506 -28.8986 4.80312ZM2.07117 9.05687C2.11757 8.98924 2.16345 8.92126 2.20987 8.85309C2.15394 8.81948 2.0982 8.79349 2.04223 8.75508C1.877 9.05084 1.87543 8.78419 1.67776 8.79632C1.07724 8.83398 1.20052 9.28714 0.680636 8.60502C1.12764 8.6522 0.972078 8.33549 1.25609 8.09926C1.30292 8.28561 1.01158 8.69178 1.18984 8.78415C1.51352 8.60105 1.80783 8.42399 2.15558 8.30064C2.1472 8.26776 2.13885 8.2348 2.13048 8.20199C2.07563 8.22181 2.02128 8.24165 1.96653 8.26125C2.02872 8.17517 2.08957 8.08938 2.15278 8.00139C2.06876 8.19915 2.26429 8.09032 2.22819 8.31884C2.21207 8.42058 2.12119 8.55988 2.06691 8.65531C2.19263 8.71159 2.32228 8.76398 2.45043 8.81969C2.37912 8.89936 2.3079 8.97863 2.23714 9.05732C2.18192 9.05775 2.12722 9.05744 2.07213 9.05779C2.07181 9.05749 2.07149 9.05718 2.07117 9.05687ZM29.7997 6.41468C29.6721 6.85426 29.3876 6.9524 29.1913 6.50721C29.4015 6.47634 29.5978 6.44553 29.7997 6.41468ZM-28.7928 4.86284C-28.8097 4.85446 -28.826 4.84631 -28.8428 4.83807C-28.7618 4.84431 -28.6796 4.85037 -28.597 4.85596C-28.5848 4.87352 -28.5723 4.8913 -28.5597 4.90921C-28.6379 4.89363 -28.716 4.87806 -28.7928 4.86284ZM-23.611 5.82019C-23.6706 5.81159 -23.6756 5.80961 -23.748 5.79227C-23.748 5.79231 -23.7479 5.79235 -23.7478 5.79239C-23.7769 5.78546 -24.0145 5.72529 -23.9826 5.70734C-23.8631 5.72766 -23.7348 5.75023 -23.6105 5.7716C-23.61 5.7879 -23.6124 5.80357 -23.611 5.82019ZM-25.0393 5.5495C-25.0394 5.54942 -25.0396 5.54935 -25.0397 5.54927C-25.083 5.53815 -25.1233 5.52439 -25.1681 5.51507C-24.9985 5.5129 -24.9849 5.57471 -24.8316 5.58583C-24.678 5.59679 -24.5768 5.57889 -24.4652 5.68618C-24.5161 5.68985 -24.5715 5.69798 -24.6238 5.70297C-24.8314 5.62945 -24.895 5.65 -25.0706 5.64762C-25.0601 5.61488 -25.0498 5.58232 -25.0393 5.5495ZM-0.613488 8.28486C-0.663872 8.44095 -0.69942 8.28477 -0.703975 8.28284C-0.703883 8.28266 -0.703783 8.28248 -0.703694 8.2823C-1.07109 8.41475 -0.651972 8.19692 -0.98777 8.16153C-0.935143 8.12425 -0.883156 8.08455 -0.830892 8.04639C-0.758726 8.12398 -0.684564 8.2123 -0.613488 8.28486ZM-12.3876 7.45731C-12.3869 7.42781 -12.3869 7.3982 -12.3862 7.36873C-12.186 7.39619 -12.1189 7.28445 -11.9644 7.40727C-12.1062 7.42495 -12.2472 7.4417 -12.3876 7.45765C-12.3876 7.45754 -12.3876 7.45742 -12.3876 7.45731ZM-22.6017 6.10679C-22.826 6.09543 -22.999 6.07401 -23.2113 5.99096C-23.2114 5.99088 -23.2116 5.99079 -23.2117 5.9907C-23.2239 5.98581 -23.1565 5.96805 -23.1716 5.95768C-23.2179 5.9538 -23.2662 5.95191 -23.3129 5.94864C-23.3144 5.92456 -23.3155 5.90057 -23.317 5.87671C-23.1897 5.90588 -23.0612 5.93538 -22.9313 5.96529C-22.9479 5.94795 -22.9649 5.93073 -22.9814 5.91354C-22.8665 5.92604 -22.7608 5.93637 -22.6531 5.94672C-22.6982 5.98063 -22.7431 6.01412 -22.7874 6.04739C-22.7258 6.06707 -22.6638 6.08662 -22.6017 6.10679ZM-9.01806 8.15311C-9.05037 8.11244 -8.97582 8.05672 -9.02886 8.0194C-9.08197 7.98264 -9.19386 8.04163 -9.15765 7.93986C-9.08006 7.9329 -8.99822 7.92406 -8.91875 7.91618C-9.14805 7.70553 -9.41438 7.85377 -9.39179 7.62399C-9.16084 7.70287 -8.96072 7.69213 -8.72017 7.6447C-8.75066 7.83178 -9.00164 7.97099 -8.87444 8.15952C-8.92188 8.1573 -8.97177 8.15592 -9.0175 8.15276C-9.01769 8.15287 -9.01787 8.15299 -9.01806 8.15311ZM-32.1171 4.36068C-32.2567 4.32515 -32.5584 4.2522 -32.7449 4.20967C-32.789 4.19868 -32.9313 4.16484 -32.9303 4.1652C-32.9262 4.16474 -32.7513 4.19694 -32.9381 4.16106C-32.8756 4.17246 -32.814 4.18392 -32.7501 4.19612C-32.7613 4.19216 -32.7724 4.18838 -32.7831 4.18483C-32.8607 4.17134 -32.937 4.15839 -33.0116 4.14604C-33.0152 4.14521 -33.0189 4.14441 -33.0225 4.14362C-32.7514 4.18844 -32.9116 4.1607 -32.7676 4.18238C-32.9013 4.1593 -33.0318 4.13918 -33.1567 4.12247C-33.0847 4.13207 -32.9977 4.14448 -32.9315 4.15447C-32.9229 4.15376 -33.0792 4.13245 -33.1049 4.12917C-33.2636 4.10549 -32.4698 4.21842 -32.4055 4.22391C-32.5208 4.20544 -32.6719 4.18264 -32.7987 4.16566C-32.7613 4.1701 -32.7231 4.17462 -32.685 4.1791C-32.373 4.22525 -32.0796 4.27552 -31.7204 4.34756C-31.691 4.35248 -31.6615 4.35743 -31.6323 4.36236C-31.64 4.35586 -31.6473 4.34956 -31.6549 4.34325C-31.6103 4.35038 -31.5647 4.35772 -31.5192 4.36505C-31.655 4.35879 -31.4739 4.38928 -31.2467 4.44734C-31.3706 4.4298 -31.5159 4.39689 -31.508 4.41041C-31.0897 4.48361 -30.6179 4.60365 -30.2041 4.67771C-30.1028 4.69537 -30.0863 4.67018 -29.8628 4.71967C-29.8712 4.72127 -29.8738 4.72681 -29.8798 4.72996C-29.4874 4.79999 -29.2058 4.84675 -28.8061 4.95295C-28.8268 4.9338 -28.8471 4.91492 -28.8678 4.89626C-28.9571 4.88495 -29.0426 4.87418 -29.139 4.86043C-29.1967 4.82617 -29.1036 4.83548 -29.3764 4.78028C-29.5978 4.73558 -29.4678 4.7709 -29.5291 4.76434C-29.6115 4.75528 -29.6785 4.72608 -29.7656 4.71695C-29.8325 4.7097 -29.7655 4.73884 -29.9344 4.69967C-29.8624 4.69565 -29.788 4.69026 -29.7136 4.68403C-29.6724 4.69651 -29.6313 4.70923 -29.5897 4.72222C-29.634 4.71912 -29.6772 4.71596 -29.721 4.7126C-29.569 4.73339 -29.4225 4.7527 -29.2589 4.77334C-29.3184 4.79454 -29.1495 4.8163 -29.0564 4.83081C-28.9179 4.85201 -29.0399 4.8519 -28.9512 4.86579C-28.863 4.87979 -28.7622 4.87115 -28.6016 4.90902C-28.692 4.90815 -28.5774 4.9467 -28.6037 4.95748C-28.6302 4.96816 -28.8007 4.93471 -28.6411 4.98648C-28.3215 5.04174 -28.6528 4.90971 -28.4353 4.94392C-28.1716 4.98262 -28.1303 5.1016 -28.2143 5.1064C-28.2804 5.10997 -28.4894 5.05905 -28.5533 5.06154C-28.1876 5.17813 -28.1664 5.11851 -28.0988 5.11998C-27.8488 5.1265 -28.0391 5.21457 -27.7599 5.23051C-27.7703 5.2535 -27.7793 5.27422 -27.7895 5.2961C-27.7425 5.30281 -27.7105 5.30425 -27.6536 5.31405C-27.8079 5.22739 -27.6736 5.26131 -27.6036 5.27702C-27.4934 5.302 -27.6582 5.23959 -27.6277 5.24026C-27.5457 5.24151 -27.4217 5.27644 -27.4938 5.23786C-27.4615 5.25547 -27.4263 5.27396 -27.393 5.29213C-27.2606 5.30997 -26.9226 5.26175 -27.2244 5.22346C-27.1877 5.18809 -27.0962 5.2268 -27.0221 5.24868C-26.9479 5.27048 -26.9432 5.24293 -26.8774 5.2613C-26.6243 5.33315 -26.8032 5.34847 -26.851 5.3766C-26.5133 5.42145 -26.8374 5.33547 -26.3497 5.41687C-26.2953 5.39313 -26.5127 5.31469 -26.321 5.33204C-26.2987 5.39553 -26.1709 5.46448 -25.9001 5.54211C-25.8703 5.53371 -25.8404 5.52502 -25.8104 5.51633C-25.674 5.603 -25.7531 5.65168 -25.4726 5.63369C-25.6445 5.73874 -25.5288 5.67191 -25.3008 5.78044C-25.2545 5.80273 -25.3735 5.80632 -25.3086 5.83627C-25.2792 5.84996 -25.1993 5.84487 -25.1268 5.8792C-25.0915 5.8957 -24.9293 5.99206 -24.801 5.99342C-24.8755 5.90209 -24.6294 5.89045 -24.8164 5.78927C-24.45 5.87969 -24.1772 5.90058 -24.6187 5.91297C-24.529 5.95538 -24.4387 5.9985 -24.3479 6.04238C-24.279 6.0387 -24.2134 6.03404 -24.1455 6.02941C-24.1491 6.095 -24.1637 6.1108 -23.9102 6.15492C-24.0227 6.14628 -24.1338 6.13751 -24.2448 6.12794C-24.2512 6.13984 -24.269 6.14958 -24.268 6.16273C-24.1319 6.16929 -23.7519 6.24395 -23.6546 6.24667C-23.5581 6.24927 -23.7361 6.20481 -23.7058 6.1935C-23.4534 6.09815 -23.4927 6.19957 -23.326 6.20902C-23.2278 6.21376 -23.4513 6.15041 -23.3991 6.15467C-23.2059 6.1697 -23.1341 6.26725 -22.9646 6.30424C-23.0155 6.24539 -23.0657 6.18676 -23.1148 6.12942C-22.9344 6.16734 -22.7475 6.20437 -22.5857 6.21942C-22.5222 6.22533 -22.562 6.18066 -22.5514 6.18022C-22.4986 6.17752 -22.2875 6.1958 -22.2652 6.1996C-22.099 6.22944 -22.1045 6.28181 -21.9421 6.31504C-22.0071 6.30758 -22.0679 6.30034 -22.1309 6.29287C-22.1759 6.37094 -22.2212 6.44825 -22.2659 6.52518C-22.1094 6.56462 -21.9513 6.60428 -21.7912 6.64448C-21.9034 6.59085 -22.0153 6.53819 -22.126 6.48642C-21.9307 6.45603 -21.7329 6.42221 -21.5327 6.38506C-21.4431 6.44663 -21.3585 6.50818 -21.2753 6.57052C-21.0215 6.60751 -21.036 6.41147 -20.947 6.5967C-20.8694 6.5969 -20.7914 6.59686 -20.7131 6.59672C-20.7284 6.61851 -20.7437 6.64029 -20.759 6.66194C-20.6652 6.6645 -20.571 6.66682 -20.4762 6.66855C-20.5567 6.56512 -20.6341 6.45962 -20.7135 6.36278C-20.5303 6.37363 -20.5401 6.44626 -20.5166 6.46887C-20.4543 6.52896 -20.2994 6.48784 -20.2504 6.54244C-20.2341 6.56144 -20.4215 6.57897 -20.3705 6.64525C-20.3606 6.65716 -20.1608 6.90885 -19.9975 6.89066C-19.9933 6.85186 -19.9965 6.8028 -19.995 6.76015C-19.7796 6.77391 -19.7234 6.99452 -19.7585 7.04717C-19.6459 7.02786 -19.49 7.05407 -19.4565 6.99436C-19.4018 7.00293 -19.3474 7.01148 -19.2924 7.02001C-19.3779 7.16595 -19.1444 7.18215 -19.1045 7.04754C-19.1984 7.02686 -19.2921 7.00604 -19.3851 6.98548C-19.2837 6.83383 -19.5536 6.68311 -18.9837 6.94057C-18.8847 7.04861 -19.1852 6.89301 -19.1036 6.97489C-18.9486 7.04204 -18.7896 7.03666 -18.6445 7.12716C-18.4632 7.24073 -18.7182 7.27443 -18.2432 7.25586C-19.207 6.82352 -18.0666 7.11153 -17.608 7.09735C-17.5261 7.38035 -17.1534 7.54074 -16.5881 7.55128C-16.6329 7.46299 -16.8125 7.47456 -16.9072 7.43234C-17.002 7.39048 -16.8875 7.36243 -17.0047 7.30659C-17.1221 7.25078 -17.3735 7.16132 -17.4871 7.0899C-17.3771 7.06492 -16.8412 7.04063 -17.2044 7.1109C-16.961 7.22489 -16.8534 7.32329 -16.5333 7.38943C-16.4167 7.28159 -16.4092 7.20381 -16.1071 7.24348C-16.314 7.39098 -15.9894 7.5658 -16.094 7.7361C-16.302 7.65703 -16.154 7.502 -16.2645 7.39888C-16.2751 7.38883 -16.4835 7.40069 -16.5333 7.38943C-16.3452 7.57754 -16.2939 7.64883 -16.445 7.81197C-16.3008 7.82154 -16.2157 7.86109 -16.1884 7.77371C-16.1649 7.81784 -16.1411 7.86224 -16.118 7.9067C-16.0714 7.91421 -16.0288 7.9182 -15.9794 7.92789C-16.0259 7.77865 -15.9072 7.88672 -15.8029 7.84053C-15.6984 7.79372 -15.8087 7.66329 -15.5478 7.70391C-15.6297 7.65706 -15.7046 7.61647 -15.7835 7.57266C-15.6107 7.56346 -15.436 7.55297 -15.2608 7.54146C-15.3668 7.43636 -15.6033 7.27344 -15.5787 7.16291C-15.5082 7.21569 -15.2297 7.17554 -15.1997 7.17579C-15.0843 7.17848 -15.1573 7.24305 -15.149 7.2459C-14.9757 7.30463 -14.8234 7.29867 -14.7718 7.4199C-14.6296 7.38725 -14.526 7.43034 -14.3901 7.44513C-14.3137 7.45347 -14.3161 7.36716 -14.2738 7.38879C-13.9913 7.53306 -14.2938 7.61106 -13.6834 7.47064C-13.7452 7.40124 -13.8056 7.3312 -13.8669 7.26255C-13.7982 7.24732 -13.7298 7.23167 -13.6608 7.21593C-13.6184 7.23178 -13.5764 7.24773 -13.5338 7.26371C-13.5537 7.39621 -13.5737 7.52893 -13.5935 7.66139C-13.5462 7.67494 -13.4986 7.68835 -13.4511 7.702C-13.5362 7.70425 -13.6213 7.70626 -13.7059 7.70811C-13.7168 7.73029 -13.7271 7.75253 -13.738 7.77466C-13.6203 7.82757 -13.5025 7.88136 -13.3836 7.9358C-13.3747 7.88944 -13.3657 7.84273 -13.3568 7.79633C-13.0858 7.89885 -13.0846 7.94205 -12.7975 7.8453C-12.5872 7.87465 -12.3996 7.69083 -12.2719 7.61678C-12.234 7.64898 -12.1961 7.68171 -12.1577 7.71429C-12.1255 7.6762 -12.0931 7.63816 -12.0609 7.59974C-12.0155 7.66298 -11.9692 7.72675 -11.9236 7.79056C-11.8766 7.66252 -11.8562 7.62248 -12.0572 7.55464C-11.9652 7.4 -11.6087 7.50716 -11.4651 7.57889C-11.3565 7.63314 -11.501 7.75948 -11.4889 7.77774C-11.4488 7.84062 -11.2538 7.81177 -11.2152 7.82563C-11.0522 7.88439 -10.9329 7.89035 -10.7836 7.93888C-10.7546 7.94843 -10.6823 8.04922 -10.6755 8.05298C-10.6224 8.07483 -10.49 8.13543 -10.4772 8.13823C-9.71398 8.29458 -10.492 7.79929 -9.77559 7.91458C-9.7909 7.85797 -9.80448 7.80204 -9.81928 7.74577C-9.76423 7.74742 -9.70855 7.74923 -9.6533 7.75079C-9.58906 7.80279 -9.68305 7.8786 -9.53683 7.82396C-9.55371 7.89095 -9.57063 7.95788 -9.58795 8.02433C-9.52347 7.99381 -9.4611 7.96307 -9.395 7.93208C-9.32557 8.17775 -8.97472 8.27013 -9.03168 8.55098C-9.05129 8.64682 -9.31563 8.71349 -9.19341 8.83255C-9.08687 8.86673 -9.14759 8.7426 -9.1025 8.74215C-8.77639 8.73946 -8.81246 8.89999 -8.67549 8.87306C-8.64693 8.80544 -8.61713 8.7364 -8.588 8.66776C-8.54027 8.6942 -8.49232 8.72076 -8.44393 8.74746C-8.42708 8.70124 -8.40973 8.65495 -8.39287 8.60859C-8.43981 8.60017 -8.4926 8.59104 -8.5355 8.58306C-8.44837 8.40803 -7.91087 8.37647 -8.13024 8.51519C-8.22006 8.57114 -8.36839 8.52692 -8.29633 8.75664C-8.15047 8.74161 -7.98462 8.72736 -7.82988 8.71172C-7.83019 8.76029 -7.83084 8.80893 -7.83115 8.85755C-7.6236 8.84965 -7.78936 8.63564 -7.77816 8.53309C-7.73118 8.53494 -7.68369 8.53718 -7.63657 8.53897C-7.62159 8.58785 -7.60779 8.63892 -7.59168 8.68666C-7.582 8.61217 -7.53799 8.44074 -7.40455 8.51904C-7.31868 8.57032 -7.48023 8.74592 -7.30536 8.73755C-7.30623 8.61801 -7.35402 8.46906 -7.15806 8.44868C-7.15144 8.57414 -7.13641 8.69026 -7.13467 8.82216C-6.88293 8.72742 -6.79251 8.93274 -6.49422 8.82043C-6.30482 8.75008 -6.02515 8.44652 -5.96201 8.95759C-5.83528 8.98356 -5.86426 8.85435 -5.82376 8.82977C-5.63255 8.71245 -5.52046 8.96481 -5.48814 8.98271C-5.28206 9.09484 -5.17793 9.01957 -5.01206 9.15241C-5.01321 9.05543 -5.01047 8.96407 -5.0099 8.86983C-5.18359 8.99928 -5.26463 8.98403 -5.48616 8.93264C-5.40929 8.92077 -5.33219 8.90826 -5.25502 8.896C-5.26048 8.81767 -5.26583 8.73943 -5.27084 8.66174C-5.99084 8.90235 -5.78653 8.44742 -5.196 8.38421C-5.15844 8.5308 -5.11889 8.67792 -5.08158 8.82641C-4.72401 8.63657 -4.58065 8.83841 -4.19617 8.91798C-4.15045 8.92725 -3.97475 8.85499 -3.90164 8.85619C-3.9028 8.85553 -3.90397 8.85486 -3.90513 8.85419C-3.84845 8.71618 -3.90444 8.64648 -3.90147 8.51982C-3.86085 8.5066 -3.82017 8.49337 -3.77947 8.48C-3.69886 8.58237 -3.73667 8.66011 -3.56783 8.64828C-3.58264 8.54979 -3.59713 8.45151 -3.61187 8.35346C-3.42921 8.36037 -3.31754 8.47359 -3.14284 8.43746C-3.17447 8.47302 -3.20572 8.50859 -3.23733 8.54392C-2.87179 8.66176 -3.21301 9.22361 -2.9082 8.95442C-2.894 9.00663 -2.88028 9.05938 -2.86604 9.11177C-2.98389 9.11529 -3.10143 9.11819 -3.21812 9.12129C-3.22597 9.19242 -3.23398 9.26322 -3.24135 9.33436C-3.11538 9.32389 -2.98834 9.31243 -2.8616 9.3012C-2.95658 9.34205 -3.05191 9.38242 -3.14653 9.42228C-3.00468 9.46951 -2.86217 9.51712 -2.71911 9.56507C-2.8539 9.28492 -2.65119 9.26947 -2.66936 9.0017C-2.42801 9.23945 -2.24569 9.55362 -1.82717 9.39545C-1.74405 9.36382 -1.77514 9.16916 -1.5619 9.41898C-1.59688 9.11083 -1.30011 8.98586 -1.3177 8.69137C-1.39847 8.70127 -1.4817 8.70568 -1.55995 8.71858C-1.4789 8.82365 -1.48283 9.10253 -1.62199 9.17515C-1.79973 9.26721 -2.03361 9.06 -2.04464 9.3632C-2.11118 9.34371 -2.1733 9.33046 -2.23784 9.31343C-2.20562 9.24098 -2.17393 9.16781 -2.14219 9.09493C-2.33662 9.19882 -2.45032 9.15099 -2.52561 8.95887C-2.30225 8.93133 -2.07823 8.90297 -1.85257 8.87337C-1.88449 8.85842 -1.91679 8.84338 -1.94867 8.82895C-1.76674 8.64482 -1.9281 8.45198 -1.61055 8.42506C-1.61857 8.51438 -1.62618 8.60376 -1.63422 8.6935C-1.5034 8.46093 -1.18787 8.47518 -1.27019 8.1931C-1.18027 8.28195 -1.16786 8.33707 -1.10551 8.1884C-0.877526 8.40847 -0.737591 8.68868 -0.844909 9.00766C-0.751101 8.96083 -0.657078 8.91343 -0.563438 8.86558C-0.610446 8.77365 -0.657438 8.68255 -0.704211 8.59145C-0.547019 8.60395 -0.388047 8.61632 -0.230056 8.62815C-0.231021 8.89551 -0.540066 8.69479 -0.462148 8.93615C-0.446595 8.98471 -0.355036 8.88724 -0.334229 8.91519C-0.114916 9.21899 -0.474053 8.98845 -0.417714 9.21462C-0.0685312 9.30448 -0.374568 9.66388 0.133468 9.37816C0.141927 9.45687 0.151266 9.53731 0.158813 9.61566C0.329189 9.63209 0.325415 9.45423 0.474337 9.42957C0.567593 9.41378 0.666398 9.73533 0.780433 9.52758C0.800857 9.48859 0.649444 9.09566 1.01037 9.13011C1.29084 9.15682 1.16092 9.42625 1.3064 9.53259C1.44832 9.64047 1.80524 9.27046 1.88416 9.71714C1.80922 9.65406 1.71193 9.61695 1.6284 9.56445C1.58924 9.64785 1.55105 9.73012 1.51237 9.81253C1.71401 9.71475 1.91168 9.85811 2.05459 9.65994C2.3036 9.99144 2.615 9.71455 2.55046 9.34858C2.46081 9.39665 2.54872 9.55806 2.43198 9.45225C2.42335 9.36786 2.41405 9.28393 2.40546 9.19972C2.611 9.21821 2.75517 9.22185 2.6494 9.47489C2.68125 9.48253 2.71281 9.49015 2.74469 9.49781C2.75857 9.31158 2.77182 9.12455 2.78568 8.93816C2.82491 8.91835 2.86432 8.89863 2.90359 8.87867C2.94449 8.92102 2.98554 8.96399 3.02703 9.00714C2.95646 9.30269 2.85618 9.30693 3.17829 9.48794C3.18351 9.38481 3.18917 9.28209 3.19438 9.17894C3.46479 9.31983 3.46194 9.57285 3.8116 9.57846C3.52926 9.92947 3.40898 9.28168 3.38099 10.0051C3.31586 9.95388 3.25036 9.90221 3.18552 9.85143C3.17107 9.95516 3.1567 10.059 3.14271 10.1625C3.50411 10.1343 4.13198 9.46057 4.34349 9.93767C4.37388 9.8818 4.40412 9.8333 4.43512 9.77289C4.65583 10.0684 4.77675 9.43023 4.99985 9.81038C5.02304 9.85064 4.9523 10.4551 5.26122 10.451C5.25594 10.371 5.256 10.237 5.2528 10.1364C5.31799 10.1884 5.3829 10.2428 5.44786 10.2962C5.46205 10.223 5.47683 10.1498 5.49102 10.0759C5.37779 10.0422 5.26521 10.0081 5.15262 9.97472C5.24767 9.95373 5.3435 9.93249 5.43888 9.91101C5.31899 9.78547 5.26367 9.78263 5.34362 9.59254C5.45082 9.58454 5.55841 9.57566 5.66608 9.5673C5.67854 9.51786 5.69093 9.4678 5.70339 9.41827C5.65559 9.26837 5.60734 9.12228 5.55993 8.9713C5.83493 9.09711 6.07838 9.10706 6.28721 9.40799C6.32287 9.45889 6.18733 9.65233 6.44338 9.48115C6.44473 9.58565 6.44944 9.67064 6.45149 9.76733C6.76935 9.48366 6.86309 9.57057 7.17118 9.79438C6.97304 9.5885 7.15079 9.7238 7.20457 9.61735C7.24138 9.54396 7.1034 9.55193 7.12061 9.47479C7.13784 9.3986 7.32293 9.0891 7.17093 9.05014C6.78526 9.68029 6.69448 8.92209 6.19313 9.2161C6.27117 9.13729 6.34981 9.0578 6.42794 8.97799C6.39342 8.92289 6.36256 8.87301 6.32532 8.81476C6.59791 8.93936 6.4659 8.859 6.5816 8.76289C6.69889 8.66682 6.90304 8.58402 7.03641 8.55662C7.07876 8.54807 7.0312 8.69061 7.12619 8.70398C7.19089 8.71356 7.3728 8.50016 7.40904 8.75136C7.43298 8.91599 7.13703 9.3615 7.53398 9.36655C7.60577 9.52882 7.41612 9.47545 7.41171 9.49469C7.37325 9.68443 7.61511 9.83487 7.7313 9.69065C7.74069 9.67807 7.65392 9.52665 7.75225 9.46948C7.98564 9.33232 8.11659 9.50584 8.26371 9.74474C8.28437 9.46929 8.48446 9.13963 8.72773 9.24358C8.74128 9.16369 8.75425 9.08302 8.76778 9.00239C8.72927 9.04475 8.69078 9.08642 8.65228 9.12853C8.61157 9.07833 8.56829 9.04183 8.5288 8.98297C8.7751 8.91493 8.81495 8.52874 8.9344 8.38542C9.34353 7.89307 9.0877 8.92574 9.01232 9.10115C8.96047 9.02956 8.91057 8.94992 8.85946 8.87524C8.86403 8.97283 8.8687 9.07121 8.87281 9.16948C9.47966 9.16871 8.95759 9.80586 9.265 9.99355C9.34762 9.5108 9.58481 9.46279 9.85983 9.77785C9.89098 9.77579 9.92225 9.77555 9.95344 9.77285C9.95913 9.70107 9.95981 9.59125 9.96861 9.54396C10.3079 9.4611 10.3655 10.2275 10.3975 10.3012C10.5399 10.6272 10.6542 10.1828 10.6966 10.1792C10.8758 10.1665 10.9277 10.3678 11.0992 10.2848C11.2838 10.1945 11.1579 10.0378 11.2141 9.90009C11.2591 9.79054 11.4047 9.77171 11.4649 9.65721C11.441 9.7509 11.4145 9.8426 11.3906 9.93632C11.5822 10.0655 11.7395 10.1927 11.959 10.2269C12.204 9.53365 12.4203 10.7108 12.3305 9.75487C12.122 9.68949 12.0058 9.58098 11.8946 9.34038C12.0302 9.30862 12.1662 9.27726 12.3024 9.24469C12.3426 9.34914 12.3714 9.45123 12.4191 9.55807C12.52 9.3342 12.7585 9.42775 12.8455 9.36089C13.2653 9.04607 13.1302 8.65549 13.5233 9.30335C13.2448 9.37154 13.2479 9.68746 12.9716 9.64539C13.0327 9.86971 13.1729 9.82341 13.0841 10.0933C13.3514 10.0276 13.2628 9.7853 13.3651 9.56946C13.4532 9.38308 13.6344 9.36983 13.6217 9.12735C13.6416 9.26036 13.6573 9.38932 13.6772 9.52244C13.8513 9.51917 14.026 9.51692 14.2011 9.51319C14.1283 9.65513 14.0554 9.79663 13.9825 9.9365C14.0395 9.98927 14.0967 10.042 14.154 10.0951C14.5782 9.65286 15.3446 10.462 15.205 9.33968C15.4145 9.29928 15.4435 9.43978 15.5624 9.65206C15.5734 9.5659 15.5843 9.49415 15.5951 9.39815C15.7326 9.48561 15.8333 9.15892 15.9493 9.24008C16.0673 9.32076 16.103 9.62863 16.1087 9.11002C16.1873 9.2564 16.2651 9.37821 16.3434 9.51526C16.3861 9.396 16.4288 9.27776 16.471 9.15854C16.5434 9.21855 16.616 9.27853 16.6887 9.339C16.7206 9.08772 17.0034 9.18709 17.123 9.01336C17.2477 9.2811 17.2672 10.1406 17.542 9.9819C17.5288 9.76792 17.5158 9.55464 17.5027 9.34084C17.5676 9.38359 17.6328 9.42633 17.6984 9.46933C17.7043 9.53934 17.7096 9.60937 17.7155 9.67941C17.6822 9.65851 17.6493 9.63774 17.616 9.61619C17.6477 9.73392 17.6789 9.85131 17.7102 9.96943C17.8029 9.79182 17.8956 9.61312 17.9886 9.43337C17.8521 9.30356 17.7162 9.17456 17.5808 9.04654C17.7415 8.88274 17.8613 9.03593 18.0003 8.85337C18.1347 9.14674 18.0938 9.32157 18.0524 9.64682C18.0983 9.61791 18.1449 9.58986 18.1909 9.56078C18.17 9.88639 18.2551 10.0785 17.9802 10.0573C18.0018 10.1492 18.0236 10.237 18.0449 10.3327C18.0895 10.3175 18.121 10.3954 18.1694 10.359C18.3013 10.2599 18.3867 9.68493 18.3711 9.48417C18.3628 9.37924 18.2365 9.58417 18.2373 9.43561C18.2393 9.07399 18.5473 9.22352 18.099 8.87809C18.2369 8.64205 18.2744 8.81367 18.4369 8.87378C18.4205 8.75329 18.4045 8.63363 18.3886 8.51329C18.4646 8.56533 18.5408 8.61737 18.617 8.66981C18.5331 9.2959 19.0932 9.51611 18.6139 10.0748C18.7617 10.0997 18.9095 10.1249 19.0577 10.1515C19.0296 10.2167 19.0014 10.2811 18.9733 10.3461C18.9056 10.3131 18.8385 10.2808 18.7711 10.2488C18.853 10.3647 18.9352 10.4804 19.0176 10.5972C19.2002 10.4488 19.2564 10.2221 19.3297 9.94109C19.1137 9.74318 19.1958 10.0191 19.0293 10.0777C19.0292 9.90191 19.0159 9.74057 19.0242 9.55553C19.1258 9.91693 19.3853 9.64431 19.4489 9.62374C19.6397 9.56298 19.5016 9.92871 19.6311 9.93276C19.7609 9.93716 19.9055 9.71578 20.0257 10.074C20.016 9.87156 19.9994 9.66236 19.9847 9.47837C20.1841 9.40422 20.1533 9.64549 20.1754 9.67586C20.5305 10.1768 20.696 9.74002 21.0794 9.6714C21.0276 9.60926 20.9756 9.55352 20.9237 9.49554C21.1959 9.04567 21.0052 9.18736 20.7477 9.05523C20.9853 9.08817 21.1048 8.70827 21.2667 8.58691C21.4286 8.46582 21.7244 8.64169 21.8369 8.78775C21.607 9.04454 21.3404 8.89732 21.0778 8.97741C21.117 9.18634 21.1542 9.36326 21.1955 9.59362C21.3384 9.14434 21.4454 9.4358 21.5017 9.49297C21.667 9.65989 21.6447 9.27697 21.7589 9.68533C21.7485 9.54358 21.7402 9.42441 21.7303 9.29207C22.0563 9.33553 22.4303 9.57481 22.6065 9.03225C22.6424 9.37737 22.6732 9.71034 22.7124 10.0631C22.8342 9.7972 22.9632 10.0603 23.074 9.99492C23.1844 9.92909 23.1267 9.64876 23.2543 9.53369C23.2779 9.51244 23.3386 9.68737 23.3926 9.55376C23.4474 9.4206 23.6211 8.42493 23.6944 9.28217C23.8093 9.28015 23.9198 9.30586 24.0334 9.3145C23.9262 9.36905 23.819 9.42173 23.7124 9.47554C23.817 9.67921 23.9215 9.88322 24.0269 10.0888C24.0287 9.90172 24.0302 9.71116 24.0316 9.52633C24.2715 9.28583 24.4724 9.58267 24.725 9.4969C24.7672 9.48224 24.6445 9.1144 24.8401 9.1987C25.0357 9.28231 25.2193 9.97825 25.5299 9.69C25.5457 9.67534 25.609 9.12782 25.7494 9.49673C25.7814 9.58056 25.6768 9.71244 25.745 9.82114C25.8132 9.92991 26.0939 10.0089 26.1291 10.2763C26.1203 10.1815 26.0975 10.084 26.0834 9.98784C26.1259 9.94036 26.1688 9.8927 26.2118 9.8458C26.2267 10.013 26.242 10.1805 26.2568 10.347C26.4939 9.94668 26.5865 9.29772 26.9891 9.48689C26.8633 9.24694 26.7379 9.00726 26.6137 8.76977C26.5953 8.94402 26.5767 9.11917 26.5586 9.29287C26.3758 9.23517 26.1932 9.17838 26.0116 9.12147C25.9948 9.31716 25.9778 9.51202 25.9595 9.70722C25.9092 9.68464 25.8594 9.66286 25.8091 9.64037C25.8126 9.5001 25.8162 9.36048 25.8202 9.22002C25.726 9.26011 25.6319 9.30071 25.5384 9.34032C25.6823 8.5066 26.087 9.37782 26.016 8.68815C26.0645 8.79266 26.1132 8.89814 26.162 9.00392C26.159 8.66631 26.25 8.757 26.4038 8.79993C26.3586 8.63581 26.3101 8.47451 26.2679 8.30906C26.4285 8.53248 26.6864 8.49071 26.8443 8.57035C26.9137 8.60546 26.8634 8.85725 26.8852 8.88483C26.9973 9.02991 27.1633 8.58403 27.2064 8.61484C27.4639 8.79938 27.6813 9.6175 27.9118 9.05329C27.6253 8.93756 27.78 8.98395 27.6605 8.68811C27.623 8.59518 27.2533 8.42529 27.7054 8.47847C27.7571 8.48367 28.6139 9.00007 28.3778 9.46263C28.5001 9.31297 28.592 9.14213 28.7025 8.98257C29.087 10.1371 28.9022 9.03923 28.7709 8.43817C28.8194 8.43159 28.8652 8.42163 28.9154 8.41753C28.8558 9.06468 29.4044 9.06683 29.5654 8.72595C29.6186 8.61246 29.4308 8.41995 29.5649 8.31027C29.6345 8.34996 29.714 8.4024 29.7879 8.44739C29.6547 8.04598 29.8413 7.87021 29.8058 7.45195C29.9615 7.81136 30.1218 8.59605 30.0853 9.03065C30.1774 8.84899 30.2699 8.66657 30.3617 8.48214C30.3046 8.38637 30.2471 8.29175 30.1902 8.19641C30.5563 8.43195 30.9528 7.78386 31.0994 8.67183C31.145 8.66162 31.1913 8.6522 31.2369 8.64194C31.2387 8.48933 31.2399 8.33637 31.2415 8.18357C31.4612 8.29591 31.6815 8.41015 31.9032 8.52441C31.7242 8.63578 31.6978 8.85586 31.4871 8.6964C31.5772 8.86486 31.6691 9.03474 31.7583 9.20443C32.0146 8.70922 32.027 8.39172 32.4865 8.49382C32.5071 8.4981 32.8816 8.87036 32.897 8.90907C32.9663 9.08413 32.9085 9.35129 32.9404 9.44003C33.0284 9.68814 33.4897 10.3016 33.4911 10.3998C33.4991 11.5991 32.1366 11.6679 31.7793 11.7405C28.0505 12.4723 24.2912 11.7404 20.5387 11.8639C20.5003 11.8655 20.5228 12.0077 20.5066 12.0136C20.4061 12.0483 20.2975 11.8267 20.2596 11.8175C20.1786 11.7983 20.2308 12.0021 20.1721 12.0016C19.5679 11.9928 18.995 11.8686 18.3746 11.8938C18.3345 11.8954 18.3706 11.7387 18.301 11.7656C18.2652 11.7805 18.1589 12.0193 18.0771 12.0212C17.7915 12.028 17.5502 11.9468 17.2516 11.944C17.0882 11.9426 16.8433 11.9171 16.662 11.9162C16.582 11.9158 16.501 12.0202 16.4221 12.0215C16.3102 12.0233 16.3283 11.8088 16.3108 11.795C16.234 11.735 16.2287 11.9705 16.157 11.9628C16.023 11.9478 16.0149 11.7909 15.8433 11.7999C15.7187 11.8068 15.4361 11.9217 15.2804 11.9524C14.9113 11.7624 14.4554 11.8203 14.1196 11.8656C13.9209 11.8925 13.9002 11.6816 13.8193 11.6796C13.5345 11.6746 13.3217 11.932 13.056 11.9286C12.7093 11.9239 12.3784 11.7376 12.0303 11.7106C11.9736 11.7063 11.9871 11.8917 11.9315 11.8938C11.7256 11.9014 11.4634 11.9214 11.2816 11.8859C11.0789 11.8466 11.0049 11.5803 10.8077 11.6242C10.75 11.6373 10.7323 11.8654 10.6355 11.8893C10.4808 11.9264 10.313 11.7164 10.2061 11.6886C10.0596 11.6509 10.1857 11.8882 9.98817 11.8457C9.98005 11.8438 9.95162 11.6783 9.90923 11.6838C9.78517 11.6989 9.79898 11.8281 9.61512 11.8049C9.59705 11.8019 9.35111 11.6332 9.32672 11.6314C9.18219 11.6206 8.8934 11.5504 8.80828 11.5777C8.50386 11.6744 8.73877 11.9264 8.48877 11.3935C8.37399 11.5136 8.26017 11.6343 8.1388 11.7481C8.22012 11.6394 7.89979 11.4548 7.87723 11.4642C7.68876 11.5371 7.79648 11.742 7.56031 11.6926C7.88097 11.2588 7.25631 11.6141 7.11968 11.6143C6.46628 11.6216 5.83184 11.464 5.1672 11.4139C4.94291 11.3972 4.6411 11.4618 4.40656 11.4389C4.35188 11.434 4.39663 11.3383 4.3486 11.3321C4.3007 11.3266 4.35002 11.4424 4.29549 11.4317C3.95998 11.3624 3.69117 11.1343 3.36088 11.3617C3.34677 11.3233 3.34844 11.2941 3.32428 11.2512C3.05271 11.4556 2.56554 11.1027 2.38151 11.0458C2.09287 10.9554 2.012 11.098 1.80306 11.0474C1.52662 10.9798 1.12827 10.6547 1.28886 11.144C1.09904 11.1391 0.904421 11.1228 0.710818 11.059C0.689136 11.0518 0.710638 10.9356 0.701992 10.9323C0.647331 10.9098 0.623511 11.0132 0.585734 11.0141C0.483393 11.0164 0.656116 10.9078 0.509348 10.928C0.432047 10.9389 0.383384 11.0257 0.172199 11.0047C-1.08259 10.8776 -2.47939 10.6805 -3.74688 10.5007C-3.83405 10.4884 -3.78402 10.595 -3.89352 10.5739C-4.28836 10.4985 -4.97177 10.2434 -5.30416 10.2203C-5.6372 10.1962 -5.57456 10.3426 -5.78585 10.3688C-5.82659 10.3739 -5.78698 10.3019 -5.82281 10.2954C-6.06311 10.2528 -6.33914 10.0926 -6.54207 10.0462C-6.67406 10.0153 -6.67468 10.1339 -6.76759 10.1285C-6.90595 10.1198 -7.0348 9.98185 -7.10703 9.96756C-7.44659 9.9011 -7.68844 9.9573 -7.9969 9.86196C-7.98721 9.88835 -7.98151 9.91229 -7.97366 9.93807C-8.34121 9.87574 -8.71603 9.81157 -9.097 9.74547C-9.08154 9.76979 -9.06669 9.79423 -9.05123 9.81898C-9.49401 9.73298 -9.41597 9.5128 -9.43253 10.0027C-9.46658 10.014 -9.50286 10.0276 -9.53525 10.0376C-9.49437 9.79108 -9.74077 9.56502 -10.068 9.4488C-10.092 9.44056 -10.2842 9.64687 -10.2333 9.37335C-10.2841 9.43393 -10.3151 9.4761 -10.3583 9.52904C-10.4186 9.43354 -10.4799 9.33961 -10.5399 9.24595C-10.5792 9.25206 -10.6187 9.25761 -10.6581 9.26356C-10.6704 9.31574 -10.6727 9.37168 -10.6917 9.42167C-10.8764 9.39807 -11.2407 9.26898 -11.3836 9.25094C-11.7396 9.20698 -12.1123 9.27545 -12.3617 9.08189C-12.4944 9.07257 -12.3776 9.19281 -12.57 9.14417C-12.5854 9.09166 -12.5997 9.04154 -12.6158 8.98769C-12.8003 9.1741 -12.8237 9.03489 -13.0412 8.94981C-13.1891 8.8919 -13.2952 8.92467 -13.4372 8.88759C-13.4731 8.87819 -13.4595 8.8185 -13.4846 8.81587C-13.5687 8.80698 -13.8162 8.84465 -13.8744 8.83533C-14.4015 8.75508 -14.8467 8.65565 -15.3553 8.53217C-15.4093 8.51908 -15.3472 8.58753 -15.403 8.5737C-15.4928 8.55149 -15.4269 8.47967 -15.4786 8.46506C-15.6223 8.42496 -15.6371 8.51125 -15.8391 8.47354C-16.4885 8.35121 -17.2724 8.12108 -17.9503 7.96659C-17.9717 7.96188 -17.9779 8.00595 -18.0011 8.00117C-18.1535 7.96898 -18.2895 7.8777 -18.436 7.84625C-18.6723 7.79493 -18.8582 7.81334 -19.0867 7.75995C-19.5368 7.65528 -19.9032 7.53877 -20.3784 7.42528C-20.7571 7.33388 -21.0812 7.26028 -21.4801 7.16134C-23.2747 6.7277 -25.1034 6.31069 -26.8692 5.77463C-26.9129 5.76145 -26.8915 5.75065 -26.905 5.74759C-27.0402 5.71755 -27.0582 5.73427 -27.0962 5.67777C-27.2694 5.63948 -27.3303 5.65574 -27.5318 5.59625C-27.6386 5.56473 -27.5489 5.54099 -27.7341 5.51446C-27.9029 5.48969 -27.7192 5.56574 -28.2069 5.40234C-28.22 5.39787 -28.2801 5.35472 -28.3848 5.33253C-28.4893 5.30991 -28.375 5.36063 -28.6222 5.29561C-29.1852 5.14513 -29.9095 4.92077 -30.5985 4.73942C-30.6428 4.72772 -31.0331 4.62784 -31.1248 4.60657C-31.2843 4.56921 -31.2537 4.58479 -31.4543 4.53217C-31.611 4.49108 -31.7202 4.45423 -31.9178 4.4062C-31.9397 4.40091 -31.9785 4.39643 -32.1171 4.36068ZM2.77563 8.77567C2.82178 8.62183 2.91681 8.0493 3.14714 8.22622C3.16904 8.24334 3.03051 8.6377 3.15955 8.70376C3.02888 8.74272 2.90308 8.75302 2.77561 8.77628C2.77561 8.77608 2.77563 8.77588 2.77563 8.77567ZM-33.1138 4.12657C-32.9455 4.14301 -32.7689 4.16379 -32.5852 4.18852C-32.7122 4.17286 -32.8355 4.1582 -32.9544 4.14472C-33.0084 4.13784 -33.0612 4.13182 -33.1138 4.12657ZM-11.3021 7.64369C-11.3022 7.64367 -11.3024 7.64365 -11.3026 7.64364C-11.1107 7.61802 -10.9174 7.59099 -10.7232 7.56269C-10.7472 7.59459 -10.7712 7.62653 -10.7952 7.65825C-10.9505 7.69671 -11.1052 7.73391 -11.2586 7.77008C-11.2731 7.72784 -11.2876 7.68571 -11.3021 7.64369ZM-12.8038 7.81253C-12.9192 7.76071 -12.8812 7.70329 -12.9391 7.63574C-12.9391 7.63585 -12.9391 7.63596 -12.9391 7.63608C-12.9544 7.61847 -13.0336 7.59521 -13.0645 7.58915C-13.0583 7.62848 -13.0486 7.6678 -13.0413 7.70711C-13.3335 7.76001 -13.8287 7.37889 -13.1086 7.32756C-13.1258 7.37414 -13.1425 7.42045 -13.1597 7.46688C-12.808 7.49274 -12.4255 7.64661 -12.8038 7.81253ZM5.59083 8.56347C5.89841 8.26095 5.99531 8.19227 6.35542 8.4035C6.30157 8.4914 6.2477 8.57892 6.19383 8.6661C6.13578 8.57662 6.0783 8.48812 6.02054 8.39939C6.02037 8.39939 6.02019 8.39939 6.02002 8.39939C6.00552 8.49264 5.99096 8.58596 5.97692 8.67905C5.84799 8.64028 5.71893 8.60173 5.59083 8.56347ZM-24.0769 5.89008C-24.1271 5.73467 -24.1223 5.82086 -23.8852 5.83164C-23.8029 5.83514 -23.8756 5.79575 -23.8249 5.80059C-23.5501 5.82534 -23.5478 5.92907 -23.6195 5.96895C-23.7739 5.94283 -23.9281 5.91606 -24.0765 5.89017C-24.0766 5.89014 -24.0768 5.89011 -24.0769 5.89008ZM-31.1204 4.4555C-31.1205 4.45547 -31.1207 4.45543 -31.1209 4.4554C-31.1266 4.44649 -31.0133 4.46537 -31.139 4.43442C-31.0446 4.45181 -30.9377 4.47212 -30.8508 4.48841C-30.8782 4.48408 -30.9032 4.48022 -30.9333 4.47531C-30.9071 4.48327 -30.8865 4.4902 -30.8631 4.49781C-30.8288 4.49413 -30.8003 4.50529 -30.7046 4.52769C-30.7289 4.51117 -30.753 4.49507 -30.7773 4.47938C-30.6663 4.50265 -30.5531 4.52714 -30.4385 4.55265C-30.4378 4.55607 -30.437 4.55952 -30.4363 4.56295C-30.3919 4.56728 -30.3477 4.57138 -30.3027 4.5755C-30.2916 4.58172 -30.2809 4.58788 -30.2697 4.59421C-30.2158 4.60153 -30.1613 4.60884 -30.1065 4.61604C-30.0924 4.6295 -30.2119 4.61049 -30.001 4.6494C-30.0667 4.64772 -30.1351 4.64483 -30.2016 4.64175C-30.5214 4.57487 -30.796 4.51908 -31.1204 4.4555ZM-21.9443 6.24025C-22.2852 6.18629 -22.1836 6.17733 -22.0886 6.10605C-22.0408 6.15022 -21.9923 6.19501 -21.9443 6.24025ZM-4.43357 8.55533C-4.32066 8.41064 -4.20734 8.26586 -4.09219 8.12339C-3.88037 8.04795 -3.69659 8.3422 -3.86068 8.4436C-4.05811 8.56372 -4.23985 8.40382 -4.43357 8.55533ZM0.178972 8.74551C-0.0643869 8.65334 0.181148 8.45452 0.244117 8.33332C0.301485 8.53202 0.398335 8.5184 0.551664 8.54673C0.405725 8.55497 0.219239 8.76143 0.178942 8.74607C0.178951 8.74588 0.178963 8.74569 0.178972 8.74551ZM-8.38759 8.07615C-8.48911 8.071 -8.59334 8.09785 -8.67835 8.04567C-8.63768 7.92465 -8.46996 8.05286 -8.57856 7.85799C-8.51386 7.86023 -8.44895 7.86253 -8.38444 7.86428C-8.43354 7.93755 -8.38495 7.99945 -8.3878 8.07571C-8.38773 8.07586 -8.38766 8.076 -8.38759 8.07615ZM-18.6497 6.70589C-18.4698 6.82175 -18.4262 6.79181 -18.2167 6.75989C-18.2013 6.83674 -18.4594 6.92006 -18.6105 6.92115C-18.6233 6.84909 -18.6363 6.77732 -18.6497 6.70589ZM27.2822 7.61333C27.2614 7.99222 26.9224 8.06865 26.746 7.97318C26.7625 7.91649 26.7791 7.859 26.7955 7.80136C26.9572 7.7393 27.1199 7.67654 27.2822 7.61333ZM0.624506 8.56347C0.598939 8.55642 0.574632 8.55099 0.551664 8.54673C0.577545 8.54534 0.602221 8.54976 0.624506 8.56347ZM10.9868 9.82866C10.9044 10.0861 11.1476 10.1762 10.8524 10.0709C10.8524 10.0712 10.8524 10.0714 10.8524 10.0717C10.6575 10.0025 10.6146 9.98439 10.4348 9.96199C10.5012 9.63556 10.8657 9.51763 10.3641 9.4489C10.3575 9.44857 10.3697 9.6435 10.2898 9.61631C10.2651 9.60782 10.1869 9.44789 10.0674 9.40146C10.0288 9.38646 9.73842 9.33722 10.1348 9.33469C10.1243 9.10771 10.147 8.87783 10.1474 8.6575C10.3021 8.5906 10.4189 9.03581 10.5836 9.02402C10.8282 9.00531 10.9541 8.54457 11.0001 9.14559C10.7929 9.29507 10.4395 9.29762 10.3956 8.94169C10.1976 8.9396 10.1391 9.22981 10.2981 9.37422C10.9856 9.18945 10.484 9.81122 11.0898 9.57735C11.0971 9.49355 11.1221 9.40324 11.1184 9.32439C11.3033 9.61967 11.0162 9.73692 10.9868 9.82866ZM9.55212 9.19334C9.67713 9.02243 9.79382 8.84853 9.91225 8.6739C9.90992 8.95496 9.84496 9.20804 9.65634 9.36464C9.62173 9.3072 9.58664 9.24992 9.55212 9.19334ZM19.6002 8.8737C19.6103 8.68611 19.6492 8.51246 19.6755 8.33239C19.716 8.48741 20.5753 8.59451 20.1472 8.77388C20.0846 8.79913 19.6886 8.48807 19.6002 8.8737ZM-19.9967 6.56811C-19.9006 6.61602 -19.802 6.66508 -19.7127 6.71298C-19.8621 6.70835 -20.0314 6.6996 -20.1887 6.69197C-20.1248 6.65135 -20.0611 6.60999 -19.9967 6.56811ZM-2.80251 8.85448C-2.84474 8.84766 -2.69243 8.70853 -2.86171 8.72113C-2.72982 8.63454 -2.60666 8.56085 -2.47747 8.47739C-2.44589 8.55019 -2.41385 8.62296 -2.38214 8.69625C-2.35015 8.65234 -2.3176 8.6086 -2.28558 8.56442C-2.31026 8.66731 -2.3329 8.76773 -2.35869 8.87197C-2.54984 8.63693 -2.61536 8.8852 -2.80251 8.85448ZM-8.97658 8.6412C-8.99432 8.46064 -8.68048 8.38723 -8.97441 8.32733C-8.90509 8.21724 -8.8079 8.16499 -8.63204 8.17134C-8.60894 8.21903 -8.58583 8.26653 -8.56267 8.31451C-8.54554 8.19411 -8.49564 8.15378 -8.38759 8.07615C-8.38752 8.0763 -8.38745 8.07644 -8.38737 8.07659C-8.1256 8.09115 -8.14847 8.12982 -8.10755 8.33803C-8.3661 8.19806 -8.39627 8.38122 -8.60017 8.46825C-8.74029 8.52794 -8.90786 8.47565 -8.97658 8.6412ZM18.6859 8.91917C18.8745 8.59096 18.6852 8.29976 19.0505 8.62303C19.0305 8.70585 19.0104 8.78788 18.9903 8.87048C18.8887 8.88765 18.7872 8.90376 18.6859 8.91917ZM-9.87411 7.94149C-9.88312 8.20574 -9.72441 8.43405 -9.64268 8.00507C-9.81078 7.89977 -9.75232 8.15151 -9.87411 7.94149ZM0.060029 9.33123C-0.285967 9.29167 -0.19463 8.87646 -0.0402774 8.67065C-0.0228766 8.74853 -0.00547068 8.8267 0.0115401 8.90439C0.0742779 8.87234 0.137091 8.84 0.199931 8.80799C0.153361 8.98283 0.106683 9.15756 0.060029 9.33123ZM-15.9743 7.42874C-15.6935 7.32861 -16.2413 7.31076 -16.047 7.25138C-15.8921 7.20267 -15.7228 7.37008 -15.809 7.44804C-15.8596 7.44292 -15.9157 7.43618 -15.9738 7.42881C-15.974 7.42879 -15.9742 7.42876 -15.9743 7.42874ZM-14.4426 7.61035C-14.4625 7.44333 -14.402 7.49987 -14.6188 7.4996C-14.6814 7.49935 -15.1499 7.37433 -14.9692 7.53186C-14.8002 7.55606 -14.6128 7.58498 -14.4426 7.61035ZM4.10141 9.06151C4.10296 9.20289 3.71967 9.49557 3.67454 9.41685C3.67453 9.41706 3.67452 9.41726 3.67451 9.41747C3.55367 9.20579 3.94719 9.1887 3.78784 8.89802C4.15802 9.16051 4.2783 8.54838 4.22644 9.35809C4.01025 9.3862 4.11811 9.22321 4.10141 9.06151ZM31.8818 8.30733C31.882 8.30731 31.8822 8.3073 31.8823 8.30728C31.8566 8.29782 31.6242 7.96063 31.6384 7.83534C31.8901 7.91707 31.8673 8.15738 32.0606 7.74819C32.0838 7.87164 32.1049 7.99158 32.1292 8.116C32.0454 8.19853 32.0083 8.35257 31.8818 8.30733ZM20.5393 9.23458C20.4521 9.29092 20.2808 9.08037 20.1802 9.098C20.4687 8.24766 20.8872 9.00759 20.5393 9.23458ZM-27.8259 5.1379C-27.8257 5.13793 -27.8254 5.13795 -27.8252 5.13797C-27.8253 5.138 -27.8254 5.13802 -27.8255 5.13805C-27.8256 5.138 -27.8258 5.13795 -27.8259 5.1379ZM13.6 8.99186C13.6119 9.03907 13.6188 9.08019 13.6215 9.11635C13.6216 9.11976 13.6216 9.12316 13.6216 9.12657C13.615 9.08223 13.6079 9.0374 13.6 8.99186ZM4.8533 9.03681C4.99813 9.2411 4.48348 9.54177 4.32446 9.45986C4.33895 9.37046 4.34358 9.28914 4.37358 9.18668C4.49605 9.42426 4.82925 9.00373 4.8533 9.03681ZM-6.70647 8.47074C-6.30199 8.51188 -6.88271 9.00999 -6.861 8.57178C-6.85938 8.56357 -6.71701 8.4707 -6.70647 8.47074ZM1.6917 9.01785C1.58024 9.23189 1.7795 9.29927 1.45808 9.24607C1.44213 9.18891 1.42622 9.13171 1.41031 9.07472C1.5039 9.05612 1.59776 9.03696 1.6917 9.01785ZM-4.14615 9.47374C-3.61558 9.42601 -3.14412 9.27676 -3.42348 8.73737C-3.46233 8.75128 -3.50163 8.76453 -3.54042 8.7783C-3.56749 9.02767 -3.68757 8.88106 -3.90064 8.85677C-3.93856 8.9525 -4.05671 8.96555 -4.08528 9.04647C-4.14061 9.20257 -4.01618 9.32795 -4.14615 9.47374ZM-25.2292 5.81647C-25.2189 5.80691 -25.2088 5.79723 -25.1984 5.78772C-25.1183 5.79174 -25.0374 5.79553 -24.9562 5.7989C-24.9737 5.81863 -24.9912 5.83824 -25.0086 5.85776C-25.0825 5.84404 -25.1557 5.83039 -25.2288 5.81664C-25.2289 5.81659 -25.2291 5.81653 -25.2292 5.81647ZM9.04425 9.94349C9.09828 9.2744 8.93445 9.3991 8.60214 9.72845C8.74873 9.79956 8.89651 9.87125 9.04425 9.94349ZM-12.2225 8.32651C-12.2203 8.23074 -12.218 8.13542 -12.2162 8.03987C-12.3981 8.11564 -12.381 8.22567 -12.3167 8.36198C-12.2852 8.3503 -12.2542 8.33835 -12.2225 8.32651ZM-14.69 7.98553C-14.62 8.01471 -14.647 7.94144 -14.6396 7.94403C-14.4639 8.00823 -14.4478 8.04363 -14.2225 8.02658C-14.1932 8.01272 -14.1643 7.99777 -14.1349 7.98321C-14.2093 7.7889 -14.2967 7.8751 -14.4923 7.74011C-14.4633 7.80594 -14.4343 7.8722 -14.4052 7.93903C-14.5198 7.90799 -14.6378 7.87672 -14.759 7.84488C-14.7763 7.86094 -14.7935 7.87678 -14.8108 7.89275C-14.7708 7.92319 -14.7299 7.95695 -14.69 7.98553ZM-26.1274 5.58563C-26.2427 5.5574 -26.3575 5.52925 -26.4706 5.50163C-26.4782 5.51605 -26.4856 5.53059 -26.4931 5.54495C-26.3727 5.55898 -26.2505 5.57261 -26.1274 5.58563ZM11.4649 9.65721C11.4743 9.62047 11.4834 9.58348 11.4916 9.54583C11.4908 9.59171 11.4805 9.62751 11.4649 9.65721ZM32.2647 9.10644C32.4083 9.20141 32.5965 9.11674 32.7466 9.12707C32.7011 8.74685 32.3349 8.88348 32.1839 8.66521C32.1686 8.73489 32.204 9.0665 32.2647 9.10644ZM-0.417654 9.2846C-0.456734 9.37781 -0.495749 9.47027 -0.534365 9.56291C-0.614041 9.54685 -0.693673 9.53024 -0.773483 9.51421C-0.7807 9.59125 -0.787916 9.66895 -0.795136 9.74595C-0.433802 9.67341 -0.529297 9.89008 -0.36594 10.128C-0.383509 9.84616 -0.400377 9.5652 -0.417654 9.2846ZM-29.7972 4.81596C-29.5482 4.86958 -29.4534 4.87916 -29.5908 4.82132C-29.6811 4.80704 -29.7707 4.7925 -29.8588 4.77794C-29.8381 4.79047 -29.8174 4.80319 -29.7972 4.81596ZM16.2025 9.87927C16.4138 9.74399 16.4283 10.2186 16.6325 9.95039C16.5177 9.86424 16.4033 9.77762 16.2897 9.69247C16.2609 9.7547 16.2313 9.81727 16.2025 9.87927ZM5.50897 10.7887C5.59776 10.9249 5.78702 10.3163 6.03588 10.7886C6.10174 10.6552 6.14416 10.5261 6.20112 10.3939C6.22855 10.542 6.26027 10.6925 6.28643 10.84C6.28661 10.84 6.28678 10.84 6.28695 10.84C6.52623 10.8041 6.37635 10.6103 6.38559 10.4546C6.38963 10.3899 6.56369 10.5067 6.51186 10.3627C6.42211 10.116 6.06426 10.2399 6.07112 9.94716C6.19267 10.0477 6.43819 9.97661 6.37103 9.77715C6.29758 9.55943 6.05967 9.9123 5.91937 9.72948C6.11495 10.204 5.68882 10.0414 5.65069 9.6848C5.39227 9.94826 5.61894 10.0678 5.87776 10.0664C5.71258 10.3333 5.94874 10.1955 5.98113 10.4258C5.81366 10.5557 5.26039 10.4101 5.50897 10.7887ZM-6.25141 9.32699C-6.07522 9.33451 -5.82579 9.47473 -5.69329 9.325C-5.61696 9.23703 -5.87593 9.13624 -5.6791 9.00605C-5.8457 9.00434 -5.88843 9.05805 -5.8723 9.19073C-5.91131 9.20228 -5.95073 9.21333 -5.98964 9.22434C-6.00464 9.19724 -6.0201 9.17046 -6.03507 9.14345C-6.0597 9.19439 -6.0844 9.24477 -6.10856 9.29553C-6.14703 9.28062 -6.18715 9.26557 -6.22784 9.25013C-6.23522 9.27608 -6.2457 9.29818 -6.25141 9.32699ZM22.4442 9.68828C22.3955 9.69346 22.3474 9.69858 22.2989 9.7045C22.3073 9.76813 22.3169 9.83438 22.3262 9.89979C22.3331 9.95149 22.3401 10.0032 22.347 10.0549C22.3096 9.87011 22.0632 9.57269 21.9751 9.77344C21.9306 9.87375 22.0586 10.2208 21.8534 10.2878C22.0033 10.2656 22.141 10.2135 22.2865 10.1788C22.2783 10.2839 22.2707 10.39 22.2625 10.495C22.2625 10.4951 22.2626 10.4953 22.2627 10.4954C22.3127 10.5177 22.3634 10.5411 22.4135 10.5635C22.424 10.272 22.4339 9.98058 22.4442 9.68828ZM-12.1098 8.53404C-11.939 8.48007 -11.8795 8.44591 -11.9388 8.30751C-11.939 8.30743 -11.9391 8.30735 -11.9393 8.30726C-12.0066 8.35544 -12.0738 8.40308 -12.1408 8.45025C-12.1306 8.47808 -12.1204 8.50604 -12.1098 8.53404ZM12.8903 10.5684C13.2266 9.51876 12.4561 10.1604 12.6038 10.5156C12.6126 10.5321 12.8579 10.452 12.8903 10.5684ZM0.110349 9.5693C0.0144565 9.56902 -0.081416 9.56802 -0.177352 9.56748C-0.160876 9.66178 -0.143841 9.75599 -0.127301 9.85066C-0.0481985 9.75773 0.0311602 9.66362 0.110349 9.5693ZM-28.7111 5.12385C-28.6216 5.17525 -28.3739 5.25261 -28.2408 5.2512C-28.3056 5.23068 -28.3699 5.2104 -28.4338 5.1904C-28.3106 5.21748 -28.187 5.24391 -28.0594 5.27162C-28.0425 5.22923 -28.1956 5.21876 -28.4076 5.15493C-28.4406 5.14424 -28.6405 5.04564 -28.7199 5.06507C-28.7362 5.06869 -28.5154 5.12795 -28.6745 5.112C-28.6076 5.13037 -28.549 5.14448 -28.4848 5.16144C-28.4822 5.17224 -28.4798 5.18306 -28.4768 5.19404C-28.5558 5.17026 -28.6335 5.14693 -28.7111 5.12385ZM-5.2581 9.4198C-5.02373 9.45906 -4.98549 9.36377 -4.92116 9.19408C-5.03292 9.20307 -5.14435 9.21144 -5.25545 9.21981C-5.25608 9.28633 -5.25744 9.35282 -5.2581 9.4198ZM-26.6552 5.65454C-26.5331 5.6923 -26.5787 5.64616 -26.5273 5.65224C-26.3325 5.67483 -26.2069 5.73103 -26.0111 5.76199C-26.0254 5.76578 -26.0385 5.76934 -26.0522 5.77298C-26.052 5.77302 -26.0519 5.77306 -26.0517 5.7731C-25.1463 6.02729 -25.6046 5.82485 -26.1557 5.70879C-26.1655 5.69278 -26.1748 5.67695 -26.1846 5.66118C-26.4319 5.62714 -26.6529 5.59483 -26.6552 5.65454ZM9.78993 10.5336C9.79999 10.5842 9.70892 10.9 9.87636 10.7566C10.0114 10.2939 9.79375 10.5189 9.74132 10.3385C9.78654 10.295 9.83279 10.2527 9.87756 10.2089C9.61203 10.0715 9.56521 10.1806 9.66495 10.5226C9.67251 10.5457 9.77975 10.4833 9.78993 10.5336ZM11.5762 10.8192C11.6131 10.1052 11.2676 10.4211 11.28 10.6408C11.3277 10.6508 11.3648 10.5312 11.4155 10.5856C11.4667 10.6401 11.4798 10.807 11.5762 10.8192ZM1.70069 10.1759C1.71048 10.179 1.79919 10.4217 1.79819 10.2368C1.69533 9.79247 1.43347 10.056 1.46928 10.2086C1.55183 10.2075 1.60991 10.1465 1.70066 10.1765C1.70067 10.1763 1.70068 10.1761 1.70069 10.1759ZM-30.2279 4.75797C-30.2234 4.76018 -29.9726 4.83166 -29.9449 4.83053C-29.9178 4.82788 -29.9031 4.82124 -29.882 4.8164C-30.0082 4.79459 -30.2951 4.71884 -30.2274 4.7581C-30.2276 4.75806 -30.2278 4.75801 -30.2279 4.75797Z" fill="white"/>
</g>
</svg>
